M48
; DRILL file {KiCad 9.0.4} date 2025-10-30T10:47:46-0400
; FORMAT={-:-/ absolute / metric / decimal}
; #@! TF.CreationDate,2025-10-30T10:47:46-04:00
; #@! TF.GenerationSoftware,Kicad,Pcbnew,9.0.4
; #@! TF.FileFunction,Plated,1,4,PTH
FMAT,2
METRIC
; #@! TA.AperFunction,Plated,PTH,ViaDrill
T1C0.300
; #@! TA.AperFunction,Plated,PTH,ComponentDrill
T2C0.500
; #@! TA.AperFunction,Plated,PTH,ComponentDrill
T3C0.600
; #@! TA.AperFunction,Plated,PTH,ComponentDrill
T4C1.000
%
G90
G05
T1
X53.5Y-39.9
X53.5Y-40.6
X53.5Y-41.3
X53.6Y-46.5
X53.6Y-47.2
X53.6Y-47.9
X53.6Y-48.6
X54.2Y-39.9
X54.2Y-40.6
X54.2Y-41.3
X54.3Y-46.5
X54.3Y-47.2
X54.3Y-47.9
X54.3Y-48.6
X54.9Y-39.9
X54.9Y-40.6
X54.9Y-41.3
X55.0Y-46.5
X55.0Y-47.2
X55.0Y-47.9
X55.0Y-48.6
X55.7Y-46.5
X55.7Y-47.2
X55.7Y-47.9
X55.7Y-48.6
X56.2Y-40.8
X56.25Y-40.1
X56.4Y-46.5
X56.4Y-47.2
X56.4Y-47.9
X56.4Y-48.6
X57.0Y-40.1
X57.0Y-40.8
X57.5Y-36.7
X57.7Y-37.6
X57.7Y-40.1
X57.7Y-40.8
X57.7Y-41.5
X58.1Y-39.2
X58.4Y-40.1
X58.4Y-40.8
X58.4Y-41.5
X59.0Y-35.2
X59.1Y-40.1
X59.1Y-40.8
X59.1Y-41.5
X60.2Y-35.7
X61.0Y-39.6
X61.1Y-34.5
X61.6Y-41.0
X62.6Y-41.2
X66.4Y-48.9
X68.1Y-33.5
X69.5Y-41.5
X70.0Y-40.1
X71.6Y-40.3
X71.95Y-41.501
X72.8Y-44.9
X72.8Y-46.7
X73.4Y-37.0
X73.4Y-38.2
X73.5Y-41.501
X74.124Y-46.524
X74.7Y-39.0
X74.7Y-39.8
X74.9Y-36.4
X75.1Y-37.5
X75.2Y-45.9
X75.4Y-32.6
X75.4Y-33.5
X76.8Y-31.8
X76.8Y-32.5
X76.8Y-33.2
X76.8Y-33.9
X77.5Y-31.8
X77.5Y-32.5
X77.5Y-33.2
X77.5Y-33.9
X78.0Y-35.9
X78.1Y-33.2
X78.1Y-33.9
X78.2Y-31.8
X78.2Y-32.5
X79.3Y-37.5
X80.1Y-47.7
X82.1Y-46.8
X83.9Y-47.1
X84.8Y-48.6
T2
X68.6Y-48.31
X69.6Y-48.31
X70.6Y-48.31
X71.6Y-48.31
X72.6Y-48.31
T3
X80.023Y-33.6
X81.523Y-33.6
X85.8Y-39.4
X85.9Y-44.7
T4
X51.2Y-36.49
X51.2Y-39.03
X51.2Y-41.57
X51.2Y-44.11
X56.98Y-32.4
X59.52Y-32.4
X62.06Y-32.4
X64.6Y-32.4
M30
