%TF.GenerationSoftware,KiCad,Pcbnew,9.0.4*%
%TF.CreationDate,2025-10-30T10:47:44-04:00*%
%TF.ProjectId,SERVO-ESC,53455256-4f2d-4455-9343-2e6b69636164,rev?*%
%TF.SameCoordinates,Original*%
%TF.FileFunction,Copper,L4,Bot*%
%TF.FilePolarity,Positive*%
%FSLAX46Y46*%
G04 Gerber Fmt 4.6, Leading zero omitted, Abs format (unit mm)*
G04 Created by KiCad (PCBNEW 9.0.4) date 2025-10-30 10:47:44*
%MOMM*%
%LPD*%
G01*
G04 APERTURE LIST*
G04 Aperture macros list*
%AMRoundRect*
0 Rectangle with rounded corners*
0 $1 Rounding radius*
0 $2 $3 $4 $5 $6 $7 $8 $9 X,Y pos of 4 corners*
0 Add a 4 corners polygon primitive as box body*
4,1,4,$2,$3,$4,$5,$6,$7,$8,$9,$2,$3,0*
0 Add four circle primitives for the rounded corners*
1,1,$1+$1,$2,$3*
1,1,$1+$1,$4,$5*
1,1,$1+$1,$6,$7*
1,1,$1+$1,$8,$9*
0 Add four rect primitives between the rounded corners*
20,1,$1+$1,$2,$3,$4,$5,0*
20,1,$1+$1,$4,$5,$6,$7,0*
20,1,$1+$1,$6,$7,$8,$9,0*
20,1,$1+$1,$8,$9,$2,$3,0*%
G04 Aperture macros list end*
%TA.AperFunction,ComponentPad*%
%ADD10RoundRect,0.250000X0.350000X0.350000X-0.350000X0.350000X-0.350000X-0.350000X0.350000X-0.350000X0*%
%TD*%
%TA.AperFunction,ComponentPad*%
%ADD11C,1.200000*%
%TD*%
%TA.AperFunction,ComponentPad*%
%ADD12RoundRect,0.250000X-0.550000X-0.550000X0.550000X-0.550000X0.550000X0.550000X-0.550000X0.550000X0*%
%TD*%
%TA.AperFunction,ComponentPad*%
%ADD13R,0.850000X0.850000*%
%TD*%
%TA.AperFunction,ComponentPad*%
%ADD14C,0.850000*%
%TD*%
%TA.AperFunction,ComponentPad*%
%ADD15R,1.700000X1.700000*%
%TD*%
%TA.AperFunction,ComponentPad*%
%ADD16C,1.700000*%
%TD*%
%TA.AperFunction,ViaPad*%
%ADD17C,0.600000*%
%TD*%
%TA.AperFunction,Conductor*%
%ADD18C,0.200000*%
%TD*%
G04 APERTURE END LIST*
D10*
%TO.P,C4,1*%
%TO.N,+7V*%
X81522600Y-33600000D03*
D11*
%TO.P,C4,2*%
%TO.N,GND*%
X80022600Y-33600000D03*
%TD*%
D12*
%TO.P,J6,1,Pin_1*%
%TO.N,HBRIDGE+*%
X85900000Y-44700000D03*
%TD*%
%TO.P,J5,1,Pin_1*%
%TO.N,HBRIDGE-*%
X85800000Y-39400000D03*
%TD*%
D13*
%TO.P,MAG,1,Pin_1*%
%TO.N,+3.3V*%
X68600000Y-48310000D03*
D14*
%TO.P,MAG,2,Pin_2*%
%TO.N,GND*%
X69600000Y-48310000D03*
%TO.P,MAG,3,Pin_3*%
%TO.N,MAG-SCLK*%
X70600000Y-48310000D03*
%TO.P,MAG,4,Pin_4*%
%TO.N,MAG-MISO*%
X71600000Y-48310000D03*
%TO.P,MAG,5,Pin_5*%
%TO.N,MAG-MOSI*%
X72600000Y-48310000D03*
%TD*%
D15*
%TO.P,J1,1,Pin_1*%
%TO.N,GND*%
X51200000Y-44110000D03*
D16*
%TO.P,J1,2,Pin_2*%
%TO.N,I2C-SCL-2*%
X51200000Y-41570000D03*
%TO.P,J1,3,Pin_3*%
%TO.N,I2C-SDA-2*%
X51200000Y-39030000D03*
%TO.P,J1,4,Pin_4*%
%TO.N,+SV*%
X51200000Y-36490000D03*
%TD*%
D15*
%TO.P,J2,1,Pin_1*%
%TO.N,SWCLK*%
X64600000Y-32400000D03*
D16*
%TO.P,J2,2,Pin_2*%
%TO.N,SWDIO*%
X62060000Y-32400000D03*
%TO.P,J2,3,Pin_3*%
%TO.N,GND*%
X59520000Y-32400000D03*
%TO.P,J2,4,Pin_4*%
%TO.N,3.3V*%
X56980000Y-32400000D03*
%TD*%
D17*
%TO.N,GND*%
X56400000Y-48600000D03*
X55700000Y-48600000D03*
X55000000Y-48600000D03*
X54300000Y-48600000D03*
X53600000Y-48600000D03*
X56400000Y-47900000D03*
X56400000Y-47200000D03*
X56400000Y-46500000D03*
X55700000Y-47900000D03*
X55000000Y-47900000D03*
X54300000Y-47900000D03*
X53600000Y-47900000D03*
X55700000Y-47200000D03*
X55000000Y-47200000D03*
X54300000Y-47200000D03*
X53600000Y-47200000D03*
X55700000Y-46500000D03*
X55000000Y-46500000D03*
X54300000Y-46500000D03*
X53600000Y-46500000D03*
X78100000Y-33900000D03*
X77500000Y-33900000D03*
X76800000Y-33900000D03*
X78100000Y-33200000D03*
X77500000Y-33200000D03*
X76800000Y-33200000D03*
X78200000Y-32500000D03*
X77500000Y-32500000D03*
X76800000Y-32500000D03*
X78200000Y-31800000D03*
X77500000Y-31800000D03*
X76800000Y-31800000D03*
%TO.N,+3.3V*%
X68100000Y-33500000D03*
%TO.N,TMP102-INT*%
X70000000Y-40100000D03*
X61600000Y-41000000D03*
X61000000Y-39600000D03*
%TO.N,HBRIDGE-FAULT*%
X74124265Y-46524265D03*
%TO.N,HBRIDGE-VREF*%
X72800000Y-46700000D03*
%TO.N,HBRIDGE-IPROPI*%
X72800000Y-44900000D03*
%TO.N,MAG-MISO*%
X71950000Y-41501000D03*
%TO.N,MAG-MOSI*%
X73500000Y-41501000D03*
%TO.N,MAG-SCLK*%
X71600000Y-40300000D03*
%TO.N,+3.3V*%
X75200000Y-45900000D03*
X78000000Y-35900000D03*
X62600000Y-41200000D03*
%TO.N,RGB-LED-RED*%
X69500000Y-41500000D03*
%TO.N,+3.3V*%
X61100000Y-34500000D03*
%TO.N,I2C-SCL-1*%
X73400000Y-38200000D03*
%TO.N,I2C-SDA-1*%
X73400000Y-37000000D03*
%TO.N,I2C-SCL-1*%
X57700000Y-37600000D03*
%TO.N,RGB-LED-RED*%
X66400000Y-48900000D03*
%TO.N,SWCLK*%
X74900000Y-36400000D03*
%TO.N,SWDIO*%
X75100000Y-37500000D03*
%TO.N,I2C-SCL-2*%
X74700000Y-39800003D03*
%TO.N,I2C-SDA-2*%
X74700000Y-39000000D03*
%TO.N,+3.3V*%
X84800000Y-48600000D03*
%TO.N,HBRIDGE-VREF*%
X82100000Y-46800000D03*
%TO.N,HBRIDGE-IPROPI*%
X83900000Y-47100000D03*
%TO.N,+3.3V*%
X75400000Y-33500000D03*
X75400000Y-32600000D03*
X79300000Y-37500000D03*
%TO.N,HBRIDGE-FAULT*%
X80100000Y-47700000D03*
%TO.N,+3.3V*%
X57700000Y-41500000D03*
X59100000Y-41500000D03*
X58400000Y-41500000D03*
X59100000Y-40800000D03*
X58400000Y-40800000D03*
X57700000Y-40800000D03*
X57000000Y-40800000D03*
X56200000Y-40800000D03*
X59100000Y-40100000D03*
X58400000Y-40100000D03*
X57700000Y-40100000D03*
X57000000Y-40100000D03*
X56250000Y-40100000D03*
%TO.N,GND*%
X58100000Y-39200000D03*
%TO.N,+7V*%
X54900000Y-41300000D03*
X54200000Y-41300000D03*
X53500000Y-41300000D03*
X54900000Y-40600000D03*
X54200000Y-40600000D03*
X53500000Y-40600000D03*
X54900000Y-39900000D03*
X54200000Y-39900000D03*
X53500000Y-39900000D03*
%TO.N,GND*%
X57500000Y-36700000D03*
%TO.N,I2C-SDA-1*%
X60200000Y-35700000D03*
%TO.N,INA236-INT*%
X59000000Y-35200000D03*
%TD*%
D18*
%TO.N,MAG-SCLK*%
X70400000Y-48110000D02*
X70600000Y-48310000D01*
X71600000Y-40300000D02*
X71100000Y-40800000D01*
X71100000Y-40800000D02*
X71100000Y-41200000D01*
X70400000Y-41900000D02*
X70400000Y-48110000D01*
X71100000Y-41200000D02*
X70400000Y-41900000D01*
%TO.N,MAG-MISO*%
X71600000Y-47600000D02*
X71600000Y-48310000D01*
X71100000Y-47100000D02*
X71600000Y-47600000D01*
X71100000Y-42400000D02*
X71100000Y-47100000D01*
X71950000Y-41550000D02*
X71100000Y-42400000D01*
X71950000Y-41501000D02*
X71950000Y-41550000D01*
%TO.N,MAG-MOSI*%
X72326000Y-48036000D02*
X72600000Y-48310000D01*
X72326000Y-47326000D02*
X72326000Y-48036000D01*
X71800000Y-46800000D02*
X72326000Y-47326000D01*
X71800000Y-43201000D02*
X71800000Y-46800000D01*
X73500000Y-41501000D02*
X71800000Y-43201000D01*
%TO.N,+3.3V*%
X69200000Y-23840000D02*
X69200000Y-24700000D01*
X68930000Y-23570000D02*
X69200000Y-23840000D01*
X68030000Y-23570000D02*
X68930000Y-23570000D01*
X67100000Y-24500000D02*
X68030000Y-23570000D01*
X66730000Y-24600000D02*
X66830000Y-24500000D01*
X66830000Y-24500000D02*
X67100000Y-24500000D01*
%TO.N,TMP102-INT*%
X62200000Y-40400000D02*
X61600000Y-41000000D01*
X70000000Y-40100000D02*
X69700000Y-40400000D01*
X69700000Y-40400000D02*
X62200000Y-40400000D01*
%TO.N,I2C-SCL-2*%
X74451057Y-39601000D02*
X74500997Y-39601000D01*
X62100000Y-39500000D02*
X74350057Y-39500000D01*
X52050000Y-42420000D02*
X59180000Y-42420000D01*
X59180000Y-42420000D02*
X62100000Y-39500000D01*
X74350057Y-39500000D02*
X74451057Y-39601000D01*
X74500997Y-39601000D02*
X74700000Y-39800003D01*
X51200000Y-41570000D02*
X52050000Y-42420000D01*
%TO.N,I2C-SDA-1*%
X71100000Y-36200000D02*
X70600000Y-35700000D01*
X72600000Y-36200000D02*
X71100000Y-36200000D01*
X70600000Y-35700000D02*
X60200000Y-35700000D01*
X73400000Y-37000000D02*
X72600000Y-36200000D01*
%TO.N,I2C-SCL-1*%
X57800000Y-37700000D02*
X57700000Y-37600000D01*
X72900000Y-37700000D02*
X57800000Y-37700000D01*
X73400000Y-38200000D02*
X72900000Y-37700000D01*
%TO.N,I2C-SDA-2*%
X57851057Y-38599000D02*
X57650057Y-38800000D01*
X57650057Y-38800000D02*
X51430000Y-38800000D01*
X51430000Y-38800000D02*
X51200000Y-39030000D01*
X58348943Y-38599000D02*
X57851057Y-38599000D01*
X58549943Y-38800000D02*
X58348943Y-38599000D01*
X74700000Y-39000000D02*
X74500000Y-38800000D01*
X74500000Y-38800000D02*
X58549943Y-38800000D01*
%TO.N,MAG-SCLK*%
X71200000Y-23925001D02*
X71200000Y-24700000D01*
X72625001Y-22500000D02*
X71200000Y-23925001D01*
X75500000Y-22500000D02*
X72625001Y-22500000D01*
%TO.N,HBRIDGE-FAULT*%
X75300000Y-47700000D02*
X80100000Y-47700000D01*
X74124265Y-46524265D02*
X75300000Y-47700000D01*
%TO.N,HBRIDGE-VREF*%
X79400000Y-44100000D02*
X82100000Y-46800000D01*
X75000000Y-44100000D02*
X79400000Y-44100000D01*
X72800000Y-46300000D02*
X75000000Y-44100000D01*
X72800000Y-46700000D02*
X72800000Y-46300000D01*
%TO.N,HBRIDGE-IPROPI*%
X80000000Y-43200000D02*
X83900000Y-47100000D01*
X72800000Y-44900000D02*
X74500000Y-43200000D01*
X74500000Y-43200000D02*
X80000000Y-43200000D01*
%TO.N,RGB-LED-RED*%
X66400000Y-47300000D02*
X66400000Y-48900000D01*
X69100000Y-44600000D02*
X66400000Y-47300000D01*
X69100000Y-41900000D02*
X69100000Y-44600000D01*
X69500000Y-41500000D02*
X69100000Y-41900000D01*
%TO.N,GND*%
X70200000Y-21040000D02*
X70200000Y-24700000D01*
X70030000Y-20870000D02*
X70200000Y-21040000D01*
%TO.N,MAG-MISO*%
X72725001Y-23400000D02*
X75150000Y-23400000D01*
X72200000Y-23925001D02*
X72725001Y-23400000D01*
X72200000Y-24700000D02*
X72200000Y-23925001D01*
%TO.N,MAG-MOSI*%
X75055000Y-24700000D02*
X75150000Y-24605000D01*
X73200000Y-24700000D02*
X75055000Y-24700000D01*
%TO.N,HBRIDGE-VREF*%
X82000000Y-46800000D02*
X82100000Y-46800000D01*
%TO.N,SWDIO*%
X75000000Y-37500000D02*
X75100000Y-37500000D01*
X63430000Y-34100000D02*
X71600000Y-34100000D01*
X62060000Y-32730000D02*
X63430000Y-34100000D01*
X62060000Y-32400000D02*
X62060000Y-32730000D01*
X71600000Y-34100000D02*
X75000000Y-37500000D01*
%TO.N,SWCLK*%
X74900000Y-34700000D02*
X74900000Y-36400000D01*
X72600000Y-32400000D02*
X74900000Y-34700000D01*
X64600000Y-32400000D02*
X72600000Y-32400000D01*
%TD*%
%TA.AperFunction,Conductor*%
%TO.N,GND*%
G36*
X69245935Y-40753674D02*
G01*
X69257138Y-40752470D01*
X69278859Y-40763342D01*
X69302163Y-40770185D01*
X69309540Y-40778698D01*
X69319618Y-40783743D01*
X69332014Y-40804635D01*
X69347918Y-40822989D01*
X69349521Y-40834140D01*
X69355272Y-40843832D01*
X69354405Y-40868106D01*
X69357862Y-40892147D01*
X69353181Y-40902396D01*
X69352779Y-40913657D01*
X69338927Y-40933607D01*
X69328837Y-40955703D01*
X69318323Y-40963284D01*
X69312932Y-40971050D01*
X69294124Y-40982209D01*
X69294553Y-40982952D01*
X69161988Y-41059488D01*
X69161982Y-41059493D01*
X69059493Y-41161982D01*
X69059488Y-41161988D01*
X68987017Y-41287511D01*
X68987016Y-41287515D01*
X68949500Y-41427525D01*
X68949500Y-41427527D01*
X68949500Y-41503456D01*
X68929815Y-41570495D01*
X68913181Y-41591137D01*
X68819531Y-41684786D01*
X68819529Y-41684789D01*
X68803252Y-41712982D01*
X68787360Y-41740509D01*
X68773386Y-41764712D01*
X68773386Y-41764713D01*
X68749500Y-41853856D01*
X68749500Y-44403456D01*
X68729815Y-44470495D01*
X68713181Y-44491137D01*
X66119531Y-47084786D01*
X66119529Y-47084789D01*
X66097765Y-47122487D01*
X66087360Y-47140509D01*
X66073386Y-47164712D01*
X66060452Y-47212982D01*
X66049500Y-47253856D01*
X66049500Y-48420614D01*
X66029815Y-48487653D01*
X66013181Y-48508295D01*
X65959493Y-48561982D01*
X65959488Y-48561988D01*
X65887017Y-48687511D01*
X65887016Y-48687515D01*
X65849500Y-48827525D01*
X65849500Y-48972475D01*
X65877645Y-49077511D01*
X65887017Y-49112488D01*
X65959488Y-49238011D01*
X65959493Y-49238017D01*
X66009295Y-49287819D01*
X66042780Y-49349142D01*
X66037796Y-49418834D01*
X65995924Y-49474767D01*
X65930460Y-49499184D01*
X65921614Y-49499500D01*
X52558189Y-49499500D01*
X52491150Y-49479815D01*
X52445395Y-49427011D01*
X52435451Y-49357853D01*
X52464476Y-49294297D01*
X52485303Y-49275182D01*
X52527510Y-49244517D01*
X52694517Y-49077510D01*
X52833343Y-48886433D01*
X52940568Y-48675992D01*
X53013553Y-48451368D01*
X53043548Y-48261988D01*
X53050500Y-48218097D01*
X53050500Y-47981902D01*
X53013553Y-47748631D01*
X52976469Y-47634500D01*
X52940568Y-47524008D01*
X52940566Y-47524005D01*
X52940566Y-47524003D01*
X52864390Y-47374500D01*
X52833343Y-47313567D01*
X52694517Y-47122490D01*
X52527510Y-46955483D01*
X52336433Y-46816657D01*
X52296959Y-46796544D01*
X52125996Y-46709433D01*
X51901368Y-46636446D01*
X51668097Y-46599500D01*
X51668092Y-46599500D01*
X51431908Y-46599500D01*
X51431903Y-46599500D01*
X51198631Y-46636446D01*
X50974003Y-46709433D01*
X50763566Y-46816657D01*
X50686744Y-46872472D01*
X50572490Y-46955483D01*
X50572488Y-46955485D01*
X50572487Y-46955485D01*
X50405485Y-47122487D01*
X50405485Y-47122488D01*
X50405483Y-47122490D01*
X50392390Y-47140511D01*
X50266655Y-47313568D01*
X50234984Y-47375727D01*
X50187010Y-47426522D01*
X50119189Y-47443317D01*
X50053054Y-47420779D01*
X50009603Y-47366064D01*
X50000500Y-47319431D01*
X50000500Y-42156405D01*
X50020185Y-42089366D01*
X50072989Y-42043611D01*
X50142147Y-42033667D01*
X50205703Y-42062692D01*
X50234985Y-42100111D01*
X50258766Y-42146786D01*
X50265755Y-42156405D01*
X50360586Y-42286928D01*
X50483072Y-42409414D01*
X50623212Y-42511232D01*
X50777555Y-42589873D01*
X50942299Y-42643402D01*
X51113389Y-42670500D01*
X51113390Y-42670500D01*
X51286610Y-42670500D01*
X51286611Y-42670500D01*
X51457701Y-42643402D01*
X51622445Y-42589873D01*
X51622447Y-42589871D01*
X51626971Y-42588402D01*
X51696812Y-42586407D01*
X51752970Y-42618652D01*
X51834788Y-42700470D01*
X51914712Y-42746614D01*
X52003856Y-42770500D01*
X52003857Y-42770500D01*
X52003858Y-42770500D01*
X59226142Y-42770500D01*
X59226144Y-42770500D01*
X59315288Y-42746614D01*
X59395212Y-42700470D01*
X60898146Y-41197535D01*
X60959467Y-41164052D01*
X61029159Y-41169036D01*
X61085092Y-41210908D01*
X61093212Y-41223217D01*
X61103194Y-41240506D01*
X61159491Y-41338015D01*
X61261985Y-41440509D01*
X61261986Y-41440510D01*
X61261988Y-41440511D01*
X61387511Y-41512982D01*
X61387512Y-41512982D01*
X61387515Y-41512984D01*
X61527525Y-41550500D01*
X61527528Y-41550500D01*
X61672472Y-41550500D01*
X61672475Y-41550500D01*
X61812485Y-41512984D01*
X61938015Y-41440509D01*
X61938020Y-41440503D01*
X61940304Y-41438752D01*
X61942587Y-41437869D01*
X61945054Y-41436445D01*
X61945276Y-41436829D01*
X62005472Y-41413555D01*
X62073917Y-41427591D01*
X62123180Y-41475123D01*
X62159491Y-41538015D01*
X62261985Y-41640509D01*
X62261986Y-41640510D01*
X62261988Y-41640511D01*
X62387511Y-41712982D01*
X62387512Y-41712982D01*
X62387515Y-41712984D01*
X62527525Y-41750500D01*
X62527528Y-41750500D01*
X62672472Y-41750500D01*
X62672475Y-41750500D01*
X62812485Y-41712984D01*
X62938015Y-41640509D01*
X63040509Y-41538015D01*
X63112984Y-41412485D01*
X63150500Y-41272475D01*
X63150500Y-41127525D01*
X63112984Y-40987515D01*
X63112696Y-40987016D01*
X63083531Y-40936500D01*
X63067058Y-40868600D01*
X63089911Y-40802573D01*
X63144832Y-40759382D01*
X63190918Y-40750500D01*
X69235124Y-40750500D01*
X69245935Y-40753674D01*
G37*
%TD.AperFunction*%
%TA.AperFunction,Conductor*%
G36*
X86246488Y-31120185D02*
G01*
X86292243Y-31172989D01*
X86302187Y-31242147D01*
X86273162Y-31305703D01*
X86252337Y-31324815D01*
X86072490Y-31455483D01*
X86072488Y-31455485D01*
X86072487Y-31455485D01*
X85905485Y-31622487D01*
X85905485Y-31622488D01*
X85905483Y-31622490D01*
X85845862Y-31704550D01*
X85766657Y-31813566D01*
X85659433Y-32024003D01*
X85586446Y-32248631D01*
X85549500Y-32481902D01*
X85549500Y-32718097D01*
X85586446Y-32951368D01*
X85659433Y-33175996D01*
X85734985Y-33324273D01*
X85766657Y-33386433D01*
X85905483Y-33577510D01*
X86072490Y-33744517D01*
X86263567Y-33883343D01*
X86362991Y-33934002D01*
X86474003Y-33990566D01*
X86474005Y-33990566D01*
X86474008Y-33990568D01*
X86594412Y-34029689D01*
X86698631Y-34063553D01*
X86931903Y-34100500D01*
X86931908Y-34100500D01*
X87168097Y-34100500D01*
X87401368Y-34063553D01*
X87413863Y-34059493D01*
X87625992Y-33990568D01*
X87836433Y-33883343D01*
X88027510Y-33744517D01*
X88187819Y-33584208D01*
X88249142Y-33550723D01*
X88318834Y-33555707D01*
X88374767Y-33597579D01*
X88399184Y-33663043D01*
X88399500Y-33671889D01*
X88399500Y-47028111D01*
X88379815Y-47095150D01*
X88327011Y-47140905D01*
X88257853Y-47150849D01*
X88194297Y-47121824D01*
X88187819Y-47115792D01*
X88027512Y-46955485D01*
X88027510Y-46955483D01*
X87836433Y-46816657D01*
X87796959Y-46796544D01*
X87625996Y-46709433D01*
X87401368Y-46636446D01*
X87168097Y-46599500D01*
X87168092Y-46599500D01*
X86931908Y-46599500D01*
X86931903Y-46599500D01*
X86698631Y-46636446D01*
X86474003Y-46709433D01*
X86263566Y-46816657D01*
X86186744Y-46872472D01*
X86072490Y-46955483D01*
X86072488Y-46955485D01*
X86072487Y-46955485D01*
X85905485Y-47122487D01*
X85905485Y-47122488D01*
X85905483Y-47122490D01*
X85892390Y-47140511D01*
X85766657Y-47313566D01*
X85659433Y-47524003D01*
X85586446Y-47748631D01*
X85549500Y-47981902D01*
X85549500Y-48218097D01*
X85585874Y-48447759D01*
X85585877Y-48447771D01*
X85586447Y-48451368D01*
X85588696Y-48458292D01*
X85588700Y-48458304D01*
X85659433Y-48675996D01*
X85763669Y-48880568D01*
X85766657Y-48886433D01*
X85905483Y-49077510D01*
X86072490Y-49244517D01*
X86114697Y-49275182D01*
X86157362Y-49330513D01*
X86163341Y-49400126D01*
X86130735Y-49461921D01*
X86069896Y-49496278D01*
X86041811Y-49499500D01*
X66878386Y-49499500D01*
X66811347Y-49479815D01*
X66765592Y-49427011D01*
X66755648Y-49357853D01*
X66784673Y-49294297D01*
X66790705Y-49287819D01*
X66803342Y-49275182D01*
X66840509Y-49238015D01*
X66912984Y-49112485D01*
X66950500Y-48972475D01*
X66950500Y-48827525D01*
X66912984Y-48687515D01*
X66906333Y-48675996D01*
X66840511Y-48561988D01*
X66840506Y-48561982D01*
X66786819Y-48508295D01*
X66753334Y-48446972D01*
X66750500Y-48420614D01*
X66750500Y-47860321D01*
X67924500Y-47860321D01*
X67924500Y-48759678D01*
X67939032Y-48832735D01*
X67939033Y-48832739D01*
X67940338Y-48834692D01*
X67994399Y-48915601D01*
X68060161Y-48959541D01*
X68077260Y-48970966D01*
X68077264Y-48970967D01*
X68150321Y-48985499D01*
X68150324Y-48985500D01*
X68150326Y-48985500D01*
X69049676Y-48985500D01*
X69049677Y-48985499D01*
X69122740Y-48970966D01*
X69205601Y-48915601D01*
X69260966Y-48832740D01*
X69275500Y-48759674D01*
X69275500Y-47860326D01*
X69275500Y-47860323D01*
X69275499Y-47860321D01*
X69260967Y-47787264D01*
X69260966Y-47787260D01*
X69235057Y-47748484D01*
X69205601Y-47704399D01*
X69139839Y-47660459D01*
X69122739Y-47649033D01*
X69122735Y-47649032D01*
X69049677Y-47634500D01*
X69049674Y-47634500D01*
X68150326Y-47634500D01*
X68150323Y-47634500D01*
X68077264Y-47649032D01*
X68077260Y-47649033D01*
X67994399Y-47704399D01*
X67939033Y-47787260D01*
X67939032Y-47787264D01*
X67924500Y-47860321D01*
X66750500Y-47860321D01*
X66750500Y-47496544D01*
X66770185Y-47429505D01*
X66786819Y-47408863D01*
X68083197Y-46112485D01*
X69380470Y-44815212D01*
X69426614Y-44735288D01*
X69440145Y-44684788D01*
X69450500Y-44646144D01*
X69450500Y-42174500D01*
X69470185Y-42107461D01*
X69522989Y-42061706D01*
X69564560Y-42052662D01*
X69564415Y-42051561D01*
X69572471Y-42050500D01*
X69572475Y-42050500D01*
X69712485Y-42012984D01*
X69838015Y-41940509D01*
X69838019Y-41940504D01*
X69844461Y-41935562D01*
X69845280Y-41936630D01*
X69899142Y-41907220D01*
X69968834Y-41912204D01*
X70024767Y-41954076D01*
X70049184Y-42019540D01*
X70049500Y-42028386D01*
X70049500Y-47880399D01*
X70029815Y-47947438D01*
X70028603Y-47949289D01*
X70001382Y-47990027D01*
X70001376Y-47990038D01*
X69950461Y-48112959D01*
X69950458Y-48112969D01*
X69924500Y-48243466D01*
X69924500Y-48243469D01*
X69924500Y-48376531D01*
X69924500Y-48376533D01*
X69924499Y-48376533D01*
X69950458Y-48507030D01*
X69950461Y-48507040D01*
X70001376Y-48629961D01*
X70001386Y-48629979D01*
X70075301Y-48740601D01*
X70075307Y-48740609D01*
X70169390Y-48834692D01*
X70169398Y-48834698D01*
X70280020Y-48908613D01*
X70280023Y-48908614D01*
X70280031Y-48908620D01*
X70280037Y-48908622D01*
X70280038Y-48908623D01*
X70351002Y-48938017D01*
X70402964Y-48959540D01*
X70402968Y-48959540D01*
X70402969Y-48959541D01*
X70533466Y-48985500D01*
X70533469Y-48985500D01*
X70666533Y-48985500D01*
X70754325Y-48968035D01*
X70797036Y-48959540D01*
X70919969Y-48908620D01*
X70961952Y-48880568D01*
X71031110Y-48834359D01*
X71097787Y-48813481D01*
X71165167Y-48831966D01*
X71168890Y-48834359D01*
X71280020Y-48908613D01*
X71280023Y-48908614D01*
X71280031Y-48908620D01*
X71280037Y-48908622D01*
X71280038Y-48908623D01*
X71351002Y-48938017D01*
X71402964Y-48959540D01*
X71402968Y-48959540D01*
X71402969Y-48959541D01*
X71533466Y-48985500D01*
X71533469Y-48985500D01*
X71666533Y-48985500D01*
X71754325Y-48968035D01*
X71797036Y-48959540D01*
X71919969Y-48908620D01*
X71961952Y-48880568D01*
X72031110Y-48834359D01*
X72097787Y-48813481D01*
X72165167Y-48831966D01*
X72168890Y-48834359D01*
X72280020Y-48908613D01*
X72280023Y-48908614D01*
X72280031Y-48908620D01*
X72280037Y-48908622D01*
X72280038Y-48908623D01*
X72351002Y-48938017D01*
X72402964Y-48959540D01*
X72402968Y-48959540D01*
X72402969Y-48959541D01*
X72533466Y-48985500D01*
X72533469Y-48985500D01*
X72666533Y-48985500D01*
X72754325Y-48968035D01*
X72797036Y-48959540D01*
X72919969Y-48908620D01*
X73030606Y-48834695D01*
X73124695Y-48740606D01*
X73198620Y-48629969D01*
X73241053Y-48527525D01*
X84249500Y-48527525D01*
X84249500Y-48672475D01*
X84287016Y-48812485D01*
X84287017Y-48812488D01*
X84359488Y-48938011D01*
X84359490Y-48938013D01*
X84359491Y-48938015D01*
X84461985Y-49040509D01*
X84461986Y-49040510D01*
X84461988Y-49040511D01*
X84587511Y-49112982D01*
X84587512Y-49112982D01*
X84587515Y-49112984D01*
X84727525Y-49150500D01*
X84727528Y-49150500D01*
X84872472Y-49150500D01*
X84872475Y-49150500D01*
X85012485Y-49112984D01*
X85138015Y-49040509D01*
X85240509Y-48938015D01*
X85312984Y-48812485D01*
X85350500Y-48672475D01*
X85350500Y-48527525D01*
X85312984Y-48387515D01*
X85306642Y-48376531D01*
X85240511Y-48261988D01*
X85240506Y-48261982D01*
X85138017Y-48159493D01*
X85138011Y-48159488D01*
X85012488Y-48087017D01*
X85012489Y-48087017D01*
X85001006Y-48083940D01*
X84872475Y-48049500D01*
X84727525Y-48049500D01*
X84598993Y-48083940D01*
X84587511Y-48087017D01*
X84461988Y-48159488D01*
X84461982Y-48159493D01*
X84359493Y-48261982D01*
X84359488Y-48261988D01*
X84287017Y-48387511D01*
X84287016Y-48387515D01*
X84249500Y-48527525D01*
X73241053Y-48527525D01*
X73249540Y-48507036D01*
X73259234Y-48458304D01*
X73275500Y-48376533D01*
X73275500Y-48243466D01*
X73249541Y-48112969D01*
X73249540Y-48112968D01*
X73249540Y-48112964D01*
X73238792Y-48087016D01*
X73198623Y-47990038D01*
X73198622Y-47990037D01*
X73198620Y-47990031D01*
X73193192Y-47981908D01*
X73124698Y-47879398D01*
X73124692Y-47879390D01*
X73030609Y-47785307D01*
X73030601Y-47785301D01*
X72919979Y-47711386D01*
X72919972Y-47711382D01*
X72919969Y-47711380D01*
X72919965Y-47711378D01*
X72919961Y-47711376D01*
X72797040Y-47660461D01*
X72797033Y-47660459D01*
X72776306Y-47656336D01*
X72748179Y-47641622D01*
X72719297Y-47628432D01*
X72717439Y-47625540D01*
X72714396Y-47623949D01*
X72698689Y-47596366D01*
X72681523Y-47569654D01*
X72680862Y-47565057D01*
X72679823Y-47563233D01*
X72676500Y-47534719D01*
X72676500Y-47374500D01*
X72696185Y-47307461D01*
X72748989Y-47261706D01*
X72800500Y-47250500D01*
X72872472Y-47250500D01*
X72872475Y-47250500D01*
X73012485Y-47212984D01*
X73138015Y-47140509D01*
X73240509Y-47038015D01*
X73312984Y-46912485D01*
X73350500Y-46772475D01*
X73350500Y-46705375D01*
X73370185Y-46638336D01*
X73422989Y-46592581D01*
X73492147Y-46582637D01*
X73555703Y-46611662D01*
X73593477Y-46670440D01*
X73594260Y-46673229D01*
X73608809Y-46727525D01*
X73611282Y-46736753D01*
X73683753Y-46862276D01*
X73683755Y-46862278D01*
X73683756Y-46862280D01*
X73786250Y-46964774D01*
X73786251Y-46964775D01*
X73786253Y-46964776D01*
X73911776Y-47037247D01*
X73911777Y-47037247D01*
X73911780Y-47037249D01*
X74051790Y-47074765D01*
X74127721Y-47074765D01*
X74194760Y-47094450D01*
X74215402Y-47111084D01*
X74628322Y-47524003D01*
X75019531Y-47915212D01*
X75084788Y-47980469D01*
X75084791Y-47980470D01*
X75084794Y-47980473D01*
X75164706Y-48026611D01*
X75164707Y-48026611D01*
X75164712Y-48026614D01*
X75253856Y-48050500D01*
X79620614Y-48050500D01*
X79687653Y-48070185D01*
X79708295Y-48086819D01*
X79761985Y-48140509D01*
X79761986Y-48140510D01*
X79761988Y-48140511D01*
X79887511Y-48212982D01*
X79887512Y-48212982D01*
X79887515Y-48212984D01*
X80027525Y-48250500D01*
X80027528Y-48250500D01*
X80172472Y-48250500D01*
X80172475Y-48250500D01*
X80312485Y-48212984D01*
X80438015Y-48140509D01*
X80540509Y-48038015D01*
X80612984Y-47912485D01*
X80650500Y-47772475D01*
X80650500Y-47627525D01*
X80612984Y-47487515D01*
X80584406Y-47438017D01*
X80540511Y-47361988D01*
X80540506Y-47361982D01*
X80438017Y-47259493D01*
X80438011Y-47259488D01*
X80312488Y-47187017D01*
X80312489Y-47187017D01*
X80301006Y-47183940D01*
X80172475Y-47149500D01*
X80027525Y-47149500D01*
X79898993Y-47183940D01*
X79887511Y-47187017D01*
X79761988Y-47259488D01*
X79761982Y-47259493D01*
X79708295Y-47313181D01*
X79646972Y-47346666D01*
X79620614Y-47349500D01*
X75496543Y-47349500D01*
X75429504Y-47329815D01*
X75408862Y-47313181D01*
X74711084Y-46615402D01*
X74696380Y-46588474D01*
X74679788Y-46562656D01*
X74678896Y-46556455D01*
X74677599Y-46554079D01*
X74674765Y-46527721D01*
X74674765Y-46447191D01*
X74694450Y-46380152D01*
X74747254Y-46334397D01*
X74816412Y-46324453D01*
X74860766Y-46339804D01*
X74861982Y-46340506D01*
X74861985Y-46340509D01*
X74987515Y-46412984D01*
X75127525Y-46450500D01*
X75127528Y-46450500D01*
X75272472Y-46450500D01*
X75272475Y-46450500D01*
X75412485Y-46412984D01*
X75538015Y-46340509D01*
X75640509Y-46238015D01*
X75712984Y-46112485D01*
X75750500Y-45972475D01*
X75750500Y-45827525D01*
X75712984Y-45687515D01*
X75698357Y-45662181D01*
X75640511Y-45561988D01*
X75640506Y-45561982D01*
X75538017Y-45459493D01*
X75538011Y-45459488D01*
X75412488Y-45387017D01*
X75412489Y-45387017D01*
X75401006Y-45383940D01*
X75272475Y-45349500D01*
X75127525Y-45349500D01*
X74998993Y-45383940D01*
X74987511Y-45387017D01*
X74861988Y-45459488D01*
X74861982Y-45459493D01*
X74759493Y-45561982D01*
X74759488Y-45561988D01*
X74687017Y-45687511D01*
X74687016Y-45687515D01*
X74649500Y-45827525D01*
X74649500Y-45827527D01*
X74649500Y-45977073D01*
X74629815Y-46044112D01*
X74577011Y-46089867D01*
X74507853Y-46099811D01*
X74463500Y-46084460D01*
X74336753Y-46011282D01*
X74336754Y-46011282D01*
X74325271Y-46008205D01*
X74196740Y-45973765D01*
X74051790Y-45973765D01*
X73911576Y-46011335D01*
X73841726Y-46009672D01*
X73783864Y-45970509D01*
X73756360Y-45906281D01*
X73767947Y-45837378D01*
X73791799Y-45803882D01*
X75108863Y-44486819D01*
X75170186Y-44453334D01*
X75196544Y-44450500D01*
X79203456Y-44450500D01*
X79270495Y-44470185D01*
X79291137Y-44486819D01*
X81513181Y-46708863D01*
X81546666Y-46770186D01*
X81549500Y-46796544D01*
X81549500Y-46872475D01*
X81587016Y-47012485D01*
X81587017Y-47012488D01*
X81659488Y-47138011D01*
X81659490Y-47138013D01*
X81659491Y-47138015D01*
X81761985Y-47240509D01*
X81761986Y-47240510D01*
X81761988Y-47240511D01*
X81887511Y-47312982D01*
X81887512Y-47312982D01*
X81887515Y-47312984D01*
X82027525Y-47350500D01*
X82027528Y-47350500D01*
X82172472Y-47350500D01*
X82172475Y-47350500D01*
X82312485Y-47312984D01*
X82438015Y-47240509D01*
X82540509Y-47138015D01*
X82612984Y-47012485D01*
X82650500Y-46872475D01*
X82650500Y-46727525D01*
X82630692Y-46653601D01*
X82632355Y-46583755D01*
X82671517Y-46525893D01*
X82735745Y-46498388D01*
X82804647Y-46509974D01*
X82838148Y-46533830D01*
X83313181Y-47008863D01*
X83346666Y-47070186D01*
X83349500Y-47096544D01*
X83349500Y-47172475D01*
X83372817Y-47259493D01*
X83387017Y-47312488D01*
X83459488Y-47438011D01*
X83459490Y-47438013D01*
X83459491Y-47438015D01*
X83561985Y-47540509D01*
X83561986Y-47540510D01*
X83561988Y-47540511D01*
X83687511Y-47612982D01*
X83687512Y-47612982D01*
X83687515Y-47612984D01*
X83827525Y-47650500D01*
X83827528Y-47650500D01*
X83972472Y-47650500D01*
X83972475Y-47650500D01*
X84112485Y-47612984D01*
X84238015Y-47540509D01*
X84340509Y-47438015D01*
X84412984Y-47312485D01*
X84450500Y-47172475D01*
X84450500Y-47027525D01*
X84412984Y-46887515D01*
X84398412Y-46862276D01*
X84340511Y-46761988D01*
X84340506Y-46761982D01*
X84238017Y-46659493D01*
X84238011Y-46659488D01*
X84112488Y-46587017D01*
X84112489Y-46587017D01*
X84100315Y-46583755D01*
X83972475Y-46549500D01*
X83972472Y-46549500D01*
X83896544Y-46549500D01*
X83829505Y-46529815D01*
X83808863Y-46513181D01*
X81397817Y-44102135D01*
X84849500Y-44102135D01*
X84849500Y-45297870D01*
X84849501Y-45297876D01*
X84855908Y-45357483D01*
X84906202Y-45492328D01*
X84906206Y-45492335D01*
X84992452Y-45607544D01*
X84992455Y-45607547D01*
X85107664Y-45693793D01*
X85107671Y-45693797D01*
X85242517Y-45744091D01*
X85242516Y-45744091D01*
X85249444Y-45744835D01*
X85302127Y-45750500D01*
X86497872Y-45750499D01*
X86557483Y-45744091D01*
X86692331Y-45693796D01*
X86807546Y-45607546D01*
X86893796Y-45492331D01*
X86944091Y-45357483D01*
X86950500Y-45297873D01*
X86950499Y-44102128D01*
X86944091Y-44042517D01*
X86893796Y-43907669D01*
X86893795Y-43907668D01*
X86893793Y-43907664D01*
X86807547Y-43792455D01*
X86807544Y-43792452D01*
X86692335Y-43706206D01*
X86692328Y-43706202D01*
X86557482Y-43655908D01*
X86557483Y-43655908D01*
X86497883Y-43649501D01*
X86497881Y-43649500D01*
X86497873Y-43649500D01*
X86497864Y-43649500D01*
X85302129Y-43649500D01*
X85302123Y-43649501D01*
X85242516Y-43655908D01*
X85107671Y-43706202D01*
X85107664Y-43706206D01*
X84992455Y-43792452D01*
X84992452Y-43792455D01*
X84906206Y-43907664D01*
X84906202Y-43907671D01*
X84855908Y-44042517D01*
X84849501Y-44102116D01*
X84849501Y-44102123D01*
X84849500Y-44102135D01*
X81397817Y-44102135D01*
X80215213Y-42919531D01*
X80215208Y-42919527D01*
X80135290Y-42873387D01*
X80135289Y-42873386D01*
X80135288Y-42873386D01*
X80046144Y-42849500D01*
X74453856Y-42849500D01*
X74364712Y-42873386D01*
X74364709Y-42873387D01*
X74284791Y-42919527D01*
X74284786Y-42919531D01*
X72891137Y-44313181D01*
X72829814Y-44346666D01*
X72803456Y-44349500D01*
X72727525Y-44349500D01*
X72598993Y-44383940D01*
X72587511Y-44387017D01*
X72461988Y-44459488D01*
X72461982Y-44459493D01*
X72362181Y-44559295D01*
X72300858Y-44592780D01*
X72231166Y-44587796D01*
X72175233Y-44545924D01*
X72150816Y-44480460D01*
X72150500Y-44471614D01*
X72150500Y-43397544D01*
X72170185Y-43330505D01*
X72186819Y-43309863D01*
X73408863Y-42087819D01*
X73470186Y-42054334D01*
X73496544Y-42051500D01*
X73572472Y-42051500D01*
X73572475Y-42051500D01*
X73712485Y-42013984D01*
X73838015Y-41941509D01*
X73940509Y-41839015D01*
X74012984Y-41713485D01*
X74050500Y-41573475D01*
X74050500Y-41428525D01*
X74012984Y-41288515D01*
X74012404Y-41287511D01*
X73940511Y-41162988D01*
X73940506Y-41162982D01*
X73838017Y-41060493D01*
X73838011Y-41060488D01*
X73712488Y-40988017D01*
X73712489Y-40988017D01*
X73690813Y-40982209D01*
X73572475Y-40950500D01*
X73427525Y-40950500D01*
X73309187Y-40982209D01*
X73287511Y-40988017D01*
X73161988Y-41060488D01*
X73161982Y-41060493D01*
X73059493Y-41162982D01*
X73059488Y-41162988D01*
X72987017Y-41288511D01*
X72987016Y-41288515D01*
X72949500Y-41428525D01*
X72949500Y-41428527D01*
X72949500Y-41504456D01*
X72929815Y-41571495D01*
X72913181Y-41592137D01*
X72669846Y-41835471D01*
X72608523Y-41868956D01*
X72538831Y-41863972D01*
X72482898Y-41822100D01*
X72458481Y-41756636D01*
X72462390Y-41715695D01*
X72462980Y-41713490D01*
X72462984Y-41713485D01*
X72500500Y-41573475D01*
X72500500Y-41428525D01*
X72462984Y-41288515D01*
X72462404Y-41287511D01*
X72390511Y-41162988D01*
X72390506Y-41162982D01*
X72288017Y-41060493D01*
X72288011Y-41060488D01*
X72162488Y-40988017D01*
X72162489Y-40988017D01*
X72042628Y-40955900D01*
X72022475Y-40950500D01*
X72022471Y-40950499D01*
X72014415Y-40949439D01*
X72014763Y-40946793D01*
X71960347Y-40930815D01*
X71914592Y-40878011D01*
X71904648Y-40808853D01*
X71933673Y-40745297D01*
X71939705Y-40738819D01*
X71951912Y-40726612D01*
X72040509Y-40638015D01*
X72112984Y-40512485D01*
X72150500Y-40372475D01*
X72150500Y-40227525D01*
X72112984Y-40087515D01*
X72095645Y-40057483D01*
X72083531Y-40036500D01*
X72067058Y-39968600D01*
X72089911Y-39902573D01*
X72144832Y-39859382D01*
X72190918Y-39850500D01*
X74048463Y-39850500D01*
X74115502Y-39870185D01*
X74161257Y-39922989D01*
X74168235Y-39942399D01*
X74187016Y-40012488D01*
X74187017Y-40012491D01*
X74259488Y-40138014D01*
X74259490Y-40138016D01*
X74259491Y-40138018D01*
X74361985Y-40240512D01*
X74361986Y-40240513D01*
X74361988Y-40240514D01*
X74487511Y-40312985D01*
X74487512Y-40312985D01*
X74487515Y-40312987D01*
X74627525Y-40350503D01*
X74627528Y-40350503D01*
X74772472Y-40350503D01*
X74772475Y-40350503D01*
X74912485Y-40312987D01*
X75038015Y-40240512D01*
X75140509Y-40138018D01*
X75212984Y-40012488D01*
X75250500Y-39872478D01*
X75250500Y-39727528D01*
X75212984Y-39587518D01*
X75140515Y-39461998D01*
X75124043Y-39394102D01*
X75140516Y-39338002D01*
X75212984Y-39212485D01*
X75250500Y-39072475D01*
X75250500Y-38927525D01*
X75216901Y-38802135D01*
X84749500Y-38802135D01*
X84749500Y-39997870D01*
X84749501Y-39997876D01*
X84755908Y-40057483D01*
X84806202Y-40192328D01*
X84806206Y-40192335D01*
X84892452Y-40307544D01*
X84892455Y-40307547D01*
X85007664Y-40393793D01*
X85007671Y-40393797D01*
X85142517Y-40444091D01*
X85142516Y-40444091D01*
X85149444Y-40444835D01*
X85202127Y-40450500D01*
X86397872Y-40450499D01*
X86457483Y-40444091D01*
X86592331Y-40393796D01*
X86707546Y-40307546D01*
X86793796Y-40192331D01*
X86844091Y-40057483D01*
X86850500Y-39997873D01*
X86850499Y-38802128D01*
X86844091Y-38742517D01*
X86814053Y-38661982D01*
X86793797Y-38607671D01*
X86793793Y-38607664D01*
X86707547Y-38492455D01*
X86707544Y-38492452D01*
X86592335Y-38406206D01*
X86592328Y-38406202D01*
X86457482Y-38355908D01*
X86457483Y-38355908D01*
X86397883Y-38349501D01*
X86397881Y-38349500D01*
X86397873Y-38349500D01*
X86397864Y-38349500D01*
X85202129Y-38349500D01*
X85202123Y-38349501D01*
X85142516Y-38355908D01*
X85007671Y-38406202D01*
X85007664Y-38406206D01*
X84892455Y-38492452D01*
X84892452Y-38492455D01*
X84806206Y-38607664D01*
X84806202Y-38607671D01*
X84755908Y-38742517D01*
X84751071Y-38787511D01*
X84749501Y-38802123D01*
X84749500Y-38802135D01*
X75216901Y-38802135D01*
X75212984Y-38787515D01*
X75187004Y-38742517D01*
X75140511Y-38661988D01*
X75140506Y-38661982D01*
X75038017Y-38559493D01*
X75038011Y-38559488D01*
X74912488Y-38487017D01*
X74912489Y-38487017D01*
X74901006Y-38483940D01*
X74772475Y-38449500D01*
X74627525Y-38449500D01*
X74627520Y-38449500D01*
X74618919Y-38451805D01*
X74554747Y-38451805D01*
X74551090Y-38450825D01*
X74546144Y-38449500D01*
X74546143Y-38449500D01*
X74064666Y-38449500D01*
X73997627Y-38429815D01*
X73951872Y-38377011D01*
X73941928Y-38307853D01*
X73944891Y-38293407D01*
X73950500Y-38272475D01*
X73950500Y-38127525D01*
X73912984Y-37987515D01*
X73895133Y-37956597D01*
X73840511Y-37861988D01*
X73840506Y-37861982D01*
X73738017Y-37759493D01*
X73738015Y-37759491D01*
X73656604Y-37712488D01*
X73647769Y-37707387D01*
X73599553Y-37656820D01*
X73586331Y-37588213D01*
X73612299Y-37523348D01*
X73647769Y-37492613D01*
X73664082Y-37483194D01*
X73738015Y-37440509D01*
X73840509Y-37338015D01*
X73912984Y-37212485D01*
X73921601Y-37180324D01*
X73957964Y-37120666D01*
X74020810Y-37090136D01*
X74090186Y-37098430D01*
X74129056Y-37124738D01*
X74516016Y-37511698D01*
X74548110Y-37567285D01*
X74549500Y-37572472D01*
X74549500Y-37572475D01*
X74580192Y-37687016D01*
X74587017Y-37712488D01*
X74659488Y-37838011D01*
X74659490Y-37838013D01*
X74659491Y-37838015D01*
X74761985Y-37940509D01*
X74761986Y-37940510D01*
X74761988Y-37940511D01*
X74887511Y-38012982D01*
X74887512Y-38012982D01*
X74887515Y-38012984D01*
X75027525Y-38050500D01*
X75027528Y-38050500D01*
X75172472Y-38050500D01*
X75172475Y-38050500D01*
X75312485Y-38012984D01*
X75438015Y-37940509D01*
X75540509Y-37838015D01*
X75612984Y-37712485D01*
X75650500Y-37572475D01*
X75650500Y-37427525D01*
X78749500Y-37427525D01*
X78749500Y-37572475D01*
X78780192Y-37687016D01*
X78787017Y-37712488D01*
X78859488Y-37838011D01*
X78859490Y-37838013D01*
X78859491Y-37838015D01*
X78961985Y-37940509D01*
X78961986Y-37940510D01*
X78961988Y-37940511D01*
X79087511Y-38012982D01*
X79087512Y-38012982D01*
X79087515Y-38012984D01*
X79227525Y-38050500D01*
X79227528Y-38050500D01*
X79372472Y-38050500D01*
X79372475Y-38050500D01*
X79512485Y-38012984D01*
X79638015Y-37940509D01*
X79740509Y-37838015D01*
X79812984Y-37712485D01*
X79850500Y-37572475D01*
X79850500Y-37427525D01*
X79812984Y-37287515D01*
X79812975Y-37287500D01*
X79740511Y-37161988D01*
X79740506Y-37161982D01*
X79638017Y-37059493D01*
X79638011Y-37059488D01*
X79512488Y-36987017D01*
X79512489Y-36987017D01*
X79474937Y-36976955D01*
X79372475Y-36949500D01*
X79227525Y-36949500D01*
X79125063Y-36976955D01*
X79087511Y-36987017D01*
X78961988Y-37059488D01*
X78961982Y-37059493D01*
X78859493Y-37161982D01*
X78859488Y-37161988D01*
X78787017Y-37287511D01*
X78787016Y-37287515D01*
X78749500Y-37427525D01*
X75650500Y-37427525D01*
X75612984Y-37287515D01*
X75612975Y-37287500D01*
X75540511Y-37161988D01*
X75540506Y-37161982D01*
X75438017Y-37059493D01*
X75438015Y-37059491D01*
X75312485Y-36987016D01*
X75312340Y-36986932D01*
X75264124Y-36936365D01*
X75250902Y-36867758D01*
X75276870Y-36802893D01*
X75286643Y-36791880D01*
X75340509Y-36738015D01*
X75412984Y-36612485D01*
X75450500Y-36472475D01*
X75450500Y-36327525D01*
X75412984Y-36187515D01*
X75385843Y-36140506D01*
X75340511Y-36061988D01*
X75340506Y-36061982D01*
X75286819Y-36008295D01*
X75272115Y-35981367D01*
X75255523Y-35955549D01*
X75254631Y-35949348D01*
X75253334Y-35946972D01*
X75250500Y-35920614D01*
X75250500Y-35827525D01*
X77449500Y-35827525D01*
X77449500Y-35972475D01*
X77474976Y-36067552D01*
X77487017Y-36112488D01*
X77559488Y-36238011D01*
X77559490Y-36238013D01*
X77559491Y-36238015D01*
X77661985Y-36340509D01*
X77661986Y-36340510D01*
X77661988Y-36340511D01*
X77787511Y-36412982D01*
X77787512Y-36412982D01*
X77787515Y-36412984D01*
X77927525Y-36450500D01*
X77927528Y-36450500D01*
X78072472Y-36450500D01*
X78072475Y-36450500D01*
X78212485Y-36412984D01*
X78338015Y-36340509D01*
X78440509Y-36238015D01*
X78512984Y-36112485D01*
X78550500Y-35972475D01*
X78550500Y-35827525D01*
X78512984Y-35687515D01*
X78485843Y-35640506D01*
X78440511Y-35561988D01*
X78440506Y-35561982D01*
X78338017Y-35459493D01*
X78338011Y-35459488D01*
X78212488Y-35387017D01*
X78212489Y-35387017D01*
X78161621Y-35373387D01*
X78072475Y-35349500D01*
X77927525Y-35349500D01*
X77838379Y-35373387D01*
X77787511Y-35387017D01*
X77661988Y-35459488D01*
X77661982Y-35459493D01*
X77559493Y-35561982D01*
X77559488Y-35561988D01*
X77487017Y-35687511D01*
X77482583Y-35704055D01*
X77449500Y-35827525D01*
X75250500Y-35827525D01*
X75250500Y-34653858D01*
X75250500Y-34653856D01*
X75226614Y-34564712D01*
X75219696Y-34552731D01*
X75219695Y-34552726D01*
X75219694Y-34552727D01*
X75180470Y-34484788D01*
X73223207Y-32527525D01*
X74849500Y-32527525D01*
X74849500Y-32672475D01*
X74887016Y-32812485D01*
X74887017Y-32812488D01*
X74959488Y-32938011D01*
X74959489Y-32938012D01*
X74959491Y-32938015D01*
X74972844Y-32951368D01*
X74983796Y-32962320D01*
X75017280Y-33023644D01*
X75012294Y-33093335D01*
X74983796Y-33137680D01*
X74959488Y-33161988D01*
X74887017Y-33287511D01*
X74887016Y-33287515D01*
X74849500Y-33427525D01*
X74849500Y-33572475D01*
X74877511Y-33677011D01*
X74887017Y-33712488D01*
X74959488Y-33838011D01*
X74959490Y-33838013D01*
X74959491Y-33838015D01*
X75061985Y-33940509D01*
X75061986Y-33940510D01*
X75061988Y-33940511D01*
X75187511Y-34012982D01*
X75187512Y-34012982D01*
X75187515Y-34012984D01*
X75327525Y-34050500D01*
X75327528Y-34050500D01*
X75472472Y-34050500D01*
X75472475Y-34050500D01*
X75612485Y-34012984D01*
X75738015Y-33940509D01*
X75840509Y-33838015D01*
X75912984Y-33712485D01*
X75950500Y-33572475D01*
X75950500Y-33427525D01*
X75912984Y-33287515D01*
X75905571Y-33274676D01*
X75899825Y-33264723D01*
X75899824Y-33264722D01*
X75863690Y-33202135D01*
X80672100Y-33202135D01*
X80672100Y-33997870D01*
X80672101Y-33997876D01*
X80678508Y-34057483D01*
X80728802Y-34192328D01*
X80728806Y-34192335D01*
X80815052Y-34307544D01*
X80815055Y-34307547D01*
X80930264Y-34393793D01*
X80930271Y-34393797D01*
X81065117Y-34444091D01*
X81065116Y-34444091D01*
X81072044Y-34444835D01*
X81124727Y-34450500D01*
X81920472Y-34450499D01*
X81980083Y-34444091D01*
X82114931Y-34393796D01*
X82230146Y-34307546D01*
X82316396Y-34192331D01*
X82366691Y-34057483D01*
X82373100Y-33997873D01*
X82373099Y-33202128D01*
X82366691Y-33142517D01*
X82357147Y-33116929D01*
X82316397Y-33007671D01*
X82316393Y-33007664D01*
X82230147Y-32892455D01*
X82230144Y-32892452D01*
X82114935Y-32806206D01*
X82114928Y-32806202D01*
X81980082Y-32755908D01*
X81980083Y-32755908D01*
X81920483Y-32749501D01*
X81920481Y-32749500D01*
X81920473Y-32749500D01*
X81920464Y-32749500D01*
X81124729Y-32749500D01*
X81124723Y-32749501D01*
X81065116Y-32755908D01*
X80930271Y-32806202D01*
X80930264Y-32806206D01*
X80815055Y-32892452D01*
X80815052Y-32892455D01*
X80728806Y-33007664D01*
X80728802Y-33007671D01*
X80678508Y-33142517D01*
X80674909Y-33175996D01*
X80672101Y-33202123D01*
X80672100Y-33202135D01*
X75863690Y-33202135D01*
X75840509Y-33161985D01*
X75807904Y-33129380D01*
X75801308Y-33119668D01*
X75794064Y-33097133D01*
X75782720Y-33076358D01*
X75783569Y-33064484D01*
X75779926Y-33053151D01*
X75786015Y-33030277D01*
X75787704Y-33006666D01*
X75795552Y-32994453D01*
X75797901Y-32985633D01*
X75805924Y-32978315D01*
X75816205Y-32962319D01*
X75827156Y-32951368D01*
X75840509Y-32938015D01*
X75912984Y-32812485D01*
X75950500Y-32672475D01*
X75950500Y-32527525D01*
X75912984Y-32387515D01*
X75840509Y-32261985D01*
X75738015Y-32159491D01*
X75738013Y-32159490D01*
X75738011Y-32159488D01*
X75612488Y-32087017D01*
X75612489Y-32087017D01*
X75561621Y-32073387D01*
X75472475Y-32049500D01*
X75327525Y-32049500D01*
X75238379Y-32073387D01*
X75187511Y-32087017D01*
X75061988Y-32159488D01*
X75061982Y-32159493D01*
X74959493Y-32261982D01*
X74959488Y-32261988D01*
X74887017Y-32387511D01*
X74887016Y-32387515D01*
X74849500Y-32527525D01*
X73223207Y-32527525D01*
X72815212Y-32119530D01*
X72815211Y-32119529D01*
X72815208Y-32119527D01*
X72735290Y-32073387D01*
X72735289Y-32073386D01*
X72735288Y-32073386D01*
X72646144Y-32049500D01*
X72646143Y-32049500D01*
X65824500Y-32049500D01*
X65757461Y-32029815D01*
X65711706Y-31977011D01*
X65700500Y-31925500D01*
X65700500Y-31525323D01*
X65700499Y-31525321D01*
X65685967Y-31452264D01*
X65685966Y-31452260D01*
X65630601Y-31369399D01*
X65568045Y-31327601D01*
X65523241Y-31273991D01*
X65514534Y-31204666D01*
X65544688Y-31141638D01*
X65604131Y-31104918D01*
X65636937Y-31100500D01*
X86179449Y-31100500D01*
X86246488Y-31120185D01*
G37*
%TD.AperFunction*%
%TA.AperFunction,Conductor*%
G36*
X58219438Y-38969185D02*
G01*
X58240080Y-38985819D01*
X58334731Y-39080470D01*
X58414655Y-39126614D01*
X58503799Y-39150500D01*
X60409082Y-39150500D01*
X60476121Y-39170185D01*
X60521876Y-39222989D01*
X60531820Y-39292147D01*
X60516469Y-39336500D01*
X60487017Y-39387511D01*
X60487016Y-39387515D01*
X60449500Y-39527525D01*
X60449500Y-39672475D01*
X60487016Y-39812485D01*
X60487017Y-39812488D01*
X60559488Y-39938011D01*
X60559490Y-39938013D01*
X60559491Y-39938015D01*
X60661985Y-40040509D01*
X60743395Y-40087511D01*
X60776781Y-40106787D01*
X60824997Y-40157354D01*
X60838219Y-40225961D01*
X60812251Y-40290826D01*
X60802462Y-40301855D01*
X59801855Y-41302462D01*
X59779912Y-41314443D01*
X59760261Y-41329898D01*
X59749776Y-41330899D01*
X59740532Y-41335947D01*
X59715593Y-41334163D01*
X59690708Y-41336540D01*
X59681347Y-41331714D01*
X59670840Y-41330963D01*
X59650825Y-41315980D01*
X59628605Y-41304525D01*
X59618700Y-41291930D01*
X59614907Y-41289091D01*
X59606787Y-41276782D01*
X59569384Y-41211998D01*
X59552912Y-41144101D01*
X59569384Y-41088001D01*
X59612984Y-41012485D01*
X59650500Y-40872475D01*
X59650500Y-40727525D01*
X59612984Y-40587515D01*
X59569384Y-40511998D01*
X59552912Y-40444101D01*
X59569384Y-40388001D01*
X59612984Y-40312485D01*
X59650500Y-40172475D01*
X59650500Y-40027525D01*
X59612984Y-39887515D01*
X59604302Y-39872478D01*
X59540511Y-39761988D01*
X59540506Y-39761982D01*
X59438017Y-39659493D01*
X59438011Y-39659488D01*
X59312488Y-39587017D01*
X59312489Y-39587017D01*
X59301006Y-39583940D01*
X59172475Y-39549500D01*
X59027525Y-39549500D01*
X58898993Y-39583940D01*
X58887511Y-39587017D01*
X58812000Y-39630614D01*
X58744100Y-39647087D01*
X58688000Y-39630614D01*
X58612488Y-39587017D01*
X58612489Y-39587017D01*
X58601006Y-39583940D01*
X58472475Y-39549500D01*
X58327525Y-39549500D01*
X58198993Y-39583940D01*
X58187511Y-39587017D01*
X58112000Y-39630614D01*
X58044100Y-39647087D01*
X57988000Y-39630614D01*
X57912488Y-39587017D01*
X57912489Y-39587017D01*
X57901006Y-39583940D01*
X57772475Y-39549500D01*
X57627525Y-39549500D01*
X57498993Y-39583940D01*
X57487511Y-39587017D01*
X57412000Y-39630614D01*
X57344100Y-39647087D01*
X57288000Y-39630614D01*
X57212488Y-39587017D01*
X57212489Y-39587017D01*
X57201006Y-39583940D01*
X57072475Y-39549500D01*
X56927525Y-39549500D01*
X56798993Y-39583940D01*
X56787511Y-39587017D01*
X56687000Y-39645048D01*
X56619100Y-39661521D01*
X56563000Y-39645048D01*
X56462488Y-39587017D01*
X56462489Y-39587017D01*
X56451006Y-39583940D01*
X56322475Y-39549500D01*
X56177525Y-39549500D01*
X56048993Y-39583940D01*
X56037511Y-39587017D01*
X55911988Y-39659488D01*
X55911982Y-39659493D01*
X55809493Y-39761982D01*
X55809488Y-39761988D01*
X55737017Y-39887511D01*
X55737016Y-39887515D01*
X55699500Y-40027525D01*
X55699500Y-40172475D01*
X55737016Y-40312485D01*
X55737017Y-40312486D01*
X55755614Y-40344697D01*
X55758408Y-40356217D01*
X55765307Y-40365854D01*
X55766493Y-40389542D01*
X55772087Y-40412597D01*
X55768298Y-40425559D01*
X55768803Y-40435636D01*
X55755893Y-40467996D01*
X55755766Y-40468434D01*
X55755475Y-40468940D01*
X55687016Y-40587515D01*
X55686676Y-40588781D01*
X55682039Y-40596860D01*
X55662340Y-40615735D01*
X55645218Y-40636982D01*
X55637478Y-40639557D01*
X55631590Y-40645200D01*
X55604813Y-40650428D01*
X55578924Y-40659045D01*
X55571021Y-40657027D01*
X55563016Y-40658591D01*
X55537663Y-40648513D01*
X55511225Y-40641765D01*
X55505666Y-40635794D01*
X55498088Y-40632782D01*
X55482207Y-40610596D01*
X55463615Y-40590626D01*
X55461497Y-40581664D01*
X55457420Y-40575968D01*
X55456685Y-40561299D01*
X55450500Y-40535124D01*
X55450500Y-40527527D01*
X55450500Y-40527525D01*
X55412984Y-40387515D01*
X55369384Y-40311998D01*
X55352912Y-40244101D01*
X55369385Y-40188000D01*
X55412984Y-40112485D01*
X55450500Y-39972475D01*
X55450500Y-39827525D01*
X55412984Y-39687515D01*
X55397976Y-39661521D01*
X55340511Y-39561988D01*
X55340506Y-39561982D01*
X55238017Y-39459493D01*
X55238011Y-39459488D01*
X55105447Y-39382952D01*
X55106842Y-39380535D01*
X55063018Y-39345218D01*
X55040955Y-39278924D01*
X55058235Y-39211225D01*
X55109374Y-39163615D01*
X55164876Y-39150500D01*
X57696199Y-39150500D01*
X57696201Y-39150500D01*
X57785345Y-39126614D01*
X57865269Y-39080470D01*
X57959920Y-38985819D01*
X57986847Y-38971115D01*
X58012666Y-38954523D01*
X58018866Y-38953631D01*
X58021243Y-38952334D01*
X58047601Y-38949500D01*
X58152399Y-38949500D01*
X58219438Y-38969185D01*
G37*
%TD.AperFunction*%
%TA.AperFunction,Conductor*%
G36*
X56702292Y-31120185D02*
G01*
X56748047Y-31172989D01*
X56757991Y-31242147D01*
X56728966Y-31305703D01*
X56673571Y-31342430D01*
X56590572Y-31369399D01*
X56557552Y-31380128D01*
X56403211Y-31458768D01*
X56323256Y-31516859D01*
X56263072Y-31560586D01*
X56263070Y-31560588D01*
X56263069Y-31560588D01*
X56140588Y-31683069D01*
X56140588Y-31683070D01*
X56140586Y-31683072D01*
X56096859Y-31743256D01*
X56038768Y-31823211D01*
X55960128Y-31977552D01*
X55906597Y-32142302D01*
X55887641Y-32261988D01*
X55879500Y-32313389D01*
X55879500Y-32486611D01*
X55906598Y-32657701D01*
X55960127Y-32822445D01*
X56038768Y-32976788D01*
X56140586Y-33116928D01*
X56263072Y-33239414D01*
X56403212Y-33341232D01*
X56557555Y-33419873D01*
X56722299Y-33473402D01*
X56893389Y-33500500D01*
X56893390Y-33500500D01*
X57066610Y-33500500D01*
X57066611Y-33500500D01*
X57237701Y-33473402D01*
X57402445Y-33419873D01*
X57556788Y-33341232D01*
X57696928Y-33239414D01*
X57819414Y-33116928D01*
X57921232Y-32976788D01*
X57999873Y-32822445D01*
X58053402Y-32657701D01*
X58080500Y-32486611D01*
X58080500Y-32313389D01*
X58053402Y-32142299D01*
X57999873Y-31977555D01*
X57921232Y-31823212D01*
X57819414Y-31683072D01*
X57696928Y-31560586D01*
X57556788Y-31458768D01*
X57402445Y-31380127D01*
X57286428Y-31342430D01*
X57228753Y-31302993D01*
X57201555Y-31238635D01*
X57213470Y-31169788D01*
X57260714Y-31118313D01*
X57324747Y-31100500D01*
X61715253Y-31100500D01*
X61782292Y-31120185D01*
X61828047Y-31172989D01*
X61837991Y-31242147D01*
X61808966Y-31305703D01*
X61753571Y-31342430D01*
X61670572Y-31369399D01*
X61637552Y-31380128D01*
X61483211Y-31458768D01*
X61403256Y-31516859D01*
X61343072Y-31560586D01*
X61343070Y-31560588D01*
X61343069Y-31560588D01*
X61220588Y-31683069D01*
X61220588Y-31683070D01*
X61220586Y-31683072D01*
X61176859Y-31743256D01*
X61118768Y-31823211D01*
X61040128Y-31977552D01*
X60986597Y-32142302D01*
X60967641Y-32261988D01*
X60959500Y-32313389D01*
X60959500Y-32486611D01*
X60986598Y-32657701D01*
X61040127Y-32822445D01*
X61118768Y-32976788D01*
X61220586Y-33116928D01*
X61343072Y-33239414D01*
X61483212Y-33341232D01*
X61637555Y-33419873D01*
X61802299Y-33473402D01*
X61973389Y-33500500D01*
X61973390Y-33500500D01*
X62146608Y-33500500D01*
X62146611Y-33500500D01*
X62246683Y-33484649D01*
X62315972Y-33493603D01*
X62353759Y-33519441D01*
X63214788Y-34380470D01*
X63282444Y-34419531D01*
X63294712Y-34426614D01*
X63383856Y-34450500D01*
X63383857Y-34450500D01*
X63476144Y-34450500D01*
X71403456Y-34450500D01*
X71470495Y-34470185D01*
X71491137Y-34486819D01*
X72642137Y-35637819D01*
X72675622Y-35699142D01*
X72670638Y-35768834D01*
X72628766Y-35824767D01*
X72563302Y-35849184D01*
X72554456Y-35849500D01*
X71296544Y-35849500D01*
X71229505Y-35829815D01*
X71208863Y-35813181D01*
X70815213Y-35419531D01*
X70815208Y-35419527D01*
X70735290Y-35373387D01*
X70735289Y-35373386D01*
X70735288Y-35373386D01*
X70646144Y-35349500D01*
X70646143Y-35349500D01*
X60679386Y-35349500D01*
X60612347Y-35329815D01*
X60591705Y-35313181D01*
X60538017Y-35259493D01*
X60538011Y-35259488D01*
X60412488Y-35187017D01*
X60412489Y-35187017D01*
X60401006Y-35183940D01*
X60272475Y-35149500D01*
X60127525Y-35149500D01*
X59998993Y-35183940D01*
X59987511Y-35187017D01*
X59861988Y-35259488D01*
X59861982Y-35259493D01*
X59762181Y-35359295D01*
X59700858Y-35392780D01*
X59631166Y-35387796D01*
X59575233Y-35345924D01*
X59550816Y-35280460D01*
X59550500Y-35271614D01*
X59550500Y-35127527D01*
X59550500Y-35127525D01*
X59512984Y-34987515D01*
X59485843Y-34940506D01*
X59440511Y-34861988D01*
X59440506Y-34861982D01*
X59338017Y-34759493D01*
X59338011Y-34759488D01*
X59212488Y-34687017D01*
X59212489Y-34687017D01*
X59201006Y-34683940D01*
X59072475Y-34649500D01*
X58927525Y-34649500D01*
X58798993Y-34683940D01*
X58787511Y-34687017D01*
X58661988Y-34759488D01*
X58661982Y-34759493D01*
X58559493Y-34861982D01*
X58559488Y-34861988D01*
X58487017Y-34987511D01*
X58487016Y-34987515D01*
X58449500Y-35127525D01*
X58449500Y-35272475D01*
X58476540Y-35373387D01*
X58487017Y-35412488D01*
X58559488Y-35538011D01*
X58559490Y-35538013D01*
X58559491Y-35538015D01*
X58661985Y-35640509D01*
X58661986Y-35640510D01*
X58661988Y-35640511D01*
X58787511Y-35712982D01*
X58787512Y-35712982D01*
X58787515Y-35712984D01*
X58927525Y-35750500D01*
X58927528Y-35750500D01*
X59072472Y-35750500D01*
X59072475Y-35750500D01*
X59212485Y-35712984D01*
X59338015Y-35640509D01*
X59437819Y-35540705D01*
X59499142Y-35507220D01*
X59568834Y-35512204D01*
X59624767Y-35554076D01*
X59649184Y-35619540D01*
X59649500Y-35628386D01*
X59649500Y-35772475D01*
X59684634Y-35903594D01*
X59687017Y-35912488D01*
X59759488Y-36038011D01*
X59759490Y-36038013D01*
X59759491Y-36038015D01*
X59861985Y-36140509D01*
X59861986Y-36140510D01*
X59861988Y-36140511D01*
X59987511Y-36212982D01*
X59987512Y-36212982D01*
X59987515Y-36212984D01*
X60127525Y-36250500D01*
X60127528Y-36250500D01*
X60272472Y-36250500D01*
X60272475Y-36250500D01*
X60412485Y-36212984D01*
X60538015Y-36140509D01*
X60591705Y-36086819D01*
X60653028Y-36053334D01*
X60679386Y-36050500D01*
X70403456Y-36050500D01*
X70470495Y-36070185D01*
X70491137Y-36086819D01*
X70884788Y-36480470D01*
X70964712Y-36526614D01*
X71053856Y-36550500D01*
X72403456Y-36550500D01*
X72470495Y-36570185D01*
X72491137Y-36586819D01*
X72813181Y-36908863D01*
X72846666Y-36970186D01*
X72847943Y-36976955D01*
X72849500Y-36986687D01*
X72849500Y-37072475D01*
X72883560Y-37199589D01*
X72884572Y-37205911D01*
X72880926Y-37234471D01*
X72880241Y-37263256D01*
X72876557Y-37268698D01*
X72875725Y-37275219D01*
X72857216Y-37297274D01*
X72841079Y-37321119D01*
X72835036Y-37323706D01*
X72830812Y-37328741D01*
X72803318Y-37337288D01*
X72776850Y-37348623D01*
X72764494Y-37349359D01*
X72764093Y-37349484D01*
X72763792Y-37349400D01*
X72762129Y-37349500D01*
X58262627Y-37349500D01*
X58195588Y-37329815D01*
X58155240Y-37287500D01*
X58140509Y-37261985D01*
X58038015Y-37159491D01*
X58038013Y-37159490D01*
X58038011Y-37159488D01*
X57912488Y-37087017D01*
X57912489Y-37087017D01*
X57901006Y-37083940D01*
X57772475Y-37049500D01*
X57627525Y-37049500D01*
X57498993Y-37083940D01*
X57487511Y-37087017D01*
X57361988Y-37159488D01*
X57361982Y-37159493D01*
X57259493Y-37261982D01*
X57259488Y-37261988D01*
X57187017Y-37387511D01*
X57187016Y-37387515D01*
X57149500Y-37527525D01*
X57149500Y-37672475D01*
X57172817Y-37759493D01*
X57187017Y-37812488D01*
X57259488Y-37938011D01*
X57259490Y-37938013D01*
X57259491Y-37938015D01*
X57361985Y-38040509D01*
X57361986Y-38040510D01*
X57361988Y-38040511D01*
X57487511Y-38112982D01*
X57487512Y-38112982D01*
X57487515Y-38112984D01*
X57559155Y-38132180D01*
X57564336Y-38135337D01*
X57570392Y-38135771D01*
X57593821Y-38153309D01*
X57618812Y-38168542D01*
X57621464Y-38174003D01*
X57626326Y-38177642D01*
X57636554Y-38205065D01*
X57649342Y-38231389D01*
X57648621Y-38237417D01*
X57650743Y-38243106D01*
X57644522Y-38271703D01*
X57641048Y-38300765D01*
X57636852Y-38306964D01*
X57635892Y-38311379D01*
X57614741Y-38339634D01*
X57541192Y-38413182D01*
X57479872Y-38446666D01*
X57453513Y-38449500D01*
X52201716Y-38449500D01*
X52134677Y-38429815D01*
X52101398Y-38398386D01*
X52091246Y-38384413D01*
X52039414Y-38313072D01*
X51916928Y-38190586D01*
X51776788Y-38088768D01*
X51701682Y-38050500D01*
X51622447Y-38010128D01*
X51622446Y-38010127D01*
X51622445Y-38010127D01*
X51457701Y-37956598D01*
X51457699Y-37956597D01*
X51457698Y-37956597D01*
X51326271Y-37935781D01*
X51286611Y-37929500D01*
X51113389Y-37929500D01*
X51073728Y-37935781D01*
X50942302Y-37956597D01*
X50777552Y-38010128D01*
X50623211Y-38088768D01*
X50563463Y-38132178D01*
X50483072Y-38190586D01*
X50483070Y-38190588D01*
X50483069Y-38190588D01*
X50360588Y-38313069D01*
X50360588Y-38313070D01*
X50360586Y-38313072D01*
X50334119Y-38349501D01*
X50258768Y-38453211D01*
X50234985Y-38499889D01*
X50187010Y-38550685D01*
X50119189Y-38567480D01*
X50053055Y-38544943D01*
X50009603Y-38490228D01*
X50000500Y-38443594D01*
X50000500Y-37076405D01*
X50020185Y-37009366D01*
X50072989Y-36963611D01*
X50142147Y-36953667D01*
X50205703Y-36982692D01*
X50234985Y-37020111D01*
X50258766Y-37066786D01*
X50273465Y-37087017D01*
X50360586Y-37206928D01*
X50483072Y-37329414D01*
X50623212Y-37431232D01*
X50777555Y-37509873D01*
X50942299Y-37563402D01*
X51113389Y-37590500D01*
X51113390Y-37590500D01*
X51286610Y-37590500D01*
X51286611Y-37590500D01*
X51457701Y-37563402D01*
X51622445Y-37509873D01*
X51776788Y-37431232D01*
X51916928Y-37329414D01*
X52039414Y-37206928D01*
X52141232Y-37066788D01*
X52219873Y-36912445D01*
X52273402Y-36747701D01*
X52300500Y-36576611D01*
X52300500Y-36403389D01*
X52273402Y-36232299D01*
X52219873Y-36067555D01*
X52141232Y-35913212D01*
X52039414Y-35773072D01*
X51916928Y-35650586D01*
X51776788Y-35548768D01*
X51755676Y-35538011D01*
X51622447Y-35470128D01*
X51622446Y-35470127D01*
X51622445Y-35470127D01*
X51457701Y-35416598D01*
X51457699Y-35416597D01*
X51457698Y-35416597D01*
X51307320Y-35392780D01*
X51286611Y-35389500D01*
X51113389Y-35389500D01*
X51092680Y-35392780D01*
X50942302Y-35416597D01*
X50777552Y-35470128D01*
X50623211Y-35548768D01*
X50605020Y-35561985D01*
X50483072Y-35650586D01*
X50483070Y-35650588D01*
X50483069Y-35650588D01*
X50360588Y-35773069D01*
X50360588Y-35773070D01*
X50360586Y-35773072D01*
X50321022Y-35827527D01*
X50258768Y-35913211D01*
X50234985Y-35959889D01*
X50187010Y-36010685D01*
X50119189Y-36027480D01*
X50053055Y-36004943D01*
X50009603Y-35950228D01*
X50000500Y-35903594D01*
X50000500Y-34427525D01*
X60549500Y-34427525D01*
X60549500Y-34572475D01*
X60571307Y-34653858D01*
X60587017Y-34712488D01*
X60659488Y-34838011D01*
X60659490Y-34838013D01*
X60659491Y-34838015D01*
X60761985Y-34940509D01*
X60761986Y-34940510D01*
X60761988Y-34940511D01*
X60887511Y-35012982D01*
X60887512Y-35012982D01*
X60887515Y-35012984D01*
X61027525Y-35050500D01*
X61027528Y-35050500D01*
X61172472Y-35050500D01*
X61172475Y-35050500D01*
X61312485Y-35012984D01*
X61438015Y-34940509D01*
X61540509Y-34838015D01*
X61612984Y-34712485D01*
X61650500Y-34572475D01*
X61650500Y-34427525D01*
X61612984Y-34287515D01*
X61558029Y-34192331D01*
X61540511Y-34161988D01*
X61540506Y-34161982D01*
X61438017Y-34059493D01*
X61438011Y-34059488D01*
X61312488Y-33987017D01*
X61312489Y-33987017D01*
X61301006Y-33983940D01*
X61172475Y-33949500D01*
X61027525Y-33949500D01*
X60898993Y-33983940D01*
X60887511Y-33987017D01*
X60761988Y-34059488D01*
X60761982Y-34059493D01*
X60659493Y-34161982D01*
X60659488Y-34161988D01*
X60587017Y-34287511D01*
X60587016Y-34287515D01*
X60549500Y-34427525D01*
X50000500Y-34427525D01*
X50000500Y-33380568D01*
X50020185Y-33313529D01*
X50072989Y-33267774D01*
X50142147Y-33257830D01*
X50205703Y-33286855D01*
X50234984Y-33324272D01*
X50266657Y-33386433D01*
X50405483Y-33577510D01*
X50572490Y-33744517D01*
X50763567Y-33883343D01*
X50862991Y-33934002D01*
X50974003Y-33990566D01*
X50974005Y-33990566D01*
X50974008Y-33990568D01*
X51094412Y-34029689D01*
X51198631Y-34063553D01*
X51431903Y-34100500D01*
X51431908Y-34100500D01*
X51668097Y-34100500D01*
X51901368Y-34063553D01*
X51913863Y-34059493D01*
X52125992Y-33990568D01*
X52336433Y-33883343D01*
X52527510Y-33744517D01*
X52694517Y-33577510D01*
X52833343Y-33386433D01*
X52940568Y-33175992D01*
X53013553Y-32951368D01*
X53022884Y-32892454D01*
X53050500Y-32718097D01*
X53050500Y-32481902D01*
X53013553Y-32248631D01*
X52961041Y-32087017D01*
X52940568Y-32024008D01*
X52940566Y-32024005D01*
X52940566Y-32024003D01*
X52865015Y-31875727D01*
X52833343Y-31813567D01*
X52694517Y-31622490D01*
X52527510Y-31455483D01*
X52347664Y-31324816D01*
X52305000Y-31269488D01*
X52299021Y-31199874D01*
X52331627Y-31138080D01*
X52392466Y-31103722D01*
X52420551Y-31100500D01*
X56635253Y-31100500D01*
X56702292Y-31120185D01*
G37*
%TD.AperFunction*%
%TD*%
M02*
