%TF.GenerationSoftware,KiCad,Pcbnew,9.0.4*%
%TF.CreationDate,2025-10-30T10:47:44-04:00*%
%TF.ProjectId,SERVO-ESC,53455256-4f2d-4455-9343-2e6b69636164,rev?*%
%TF.SameCoordinates,Original*%
%TF.FileFunction,Copper,L1,Top*%
%TF.FilePolarity,Positive*%
%FSLAX46Y46*%
G04 Gerber Fmt 4.6, Leading zero omitted, Abs format (unit mm)*
G04 Created by KiCad (PCBNEW 9.0.4) date 2025-10-30 10:47:44*
%MOMM*%
%LPD*%
G01*
G04 APERTURE LIST*
G04 Aperture macros list*
%AMRoundRect*
0 Rectangle with rounded corners*
0 $1 Rounding radius*
0 $2 $3 $4 $5 $6 $7 $8 $9 X,Y pos of 4 corners*
0 Add a 4 corners polygon primitive as box body*
4,1,4,$2,$3,$4,$5,$6,$7,$8,$9,$2,$3,0*
0 Add four circle primitives for the rounded corners*
1,1,$1+$1,$2,$3*
1,1,$1+$1,$4,$5*
1,1,$1+$1,$6,$7*
1,1,$1+$1,$8,$9*
0 Add four rect primitives between the rounded corners*
20,1,$1+$1,$2,$3,$4,$5,0*
20,1,$1+$1,$4,$5,$6,$7,0*
20,1,$1+$1,$6,$7,$8,$9,0*
20,1,$1+$1,$8,$9,$2,$3,0*%
G04 Aperture macros list end*
%TA.AperFunction,SMDPad,CuDef*%
%ADD10RoundRect,0.090000X0.510000X0.210000X-0.510000X0.210000X-0.510000X-0.210000X0.510000X-0.210000X0*%
%TD*%
%TA.AperFunction,SMDPad,CuDef*%
%ADD11RoundRect,0.140000X0.140000X0.170000X-0.140000X0.170000X-0.140000X-0.170000X0.140000X-0.170000X0*%
%TD*%
%TA.AperFunction,ComponentPad*%
%ADD12RoundRect,0.250000X0.350000X0.350000X-0.350000X0.350000X-0.350000X-0.350000X0.350000X-0.350000X0*%
%TD*%
%TA.AperFunction,ComponentPad*%
%ADD13C,1.200000*%
%TD*%
%TA.AperFunction,ComponentPad*%
%ADD14RoundRect,0.250000X-0.550000X-0.550000X0.550000X-0.550000X0.550000X0.550000X-0.550000X0.550000X0*%
%TD*%
%TA.AperFunction,ComponentPad*%
%ADD15R,0.850000X0.850000*%
%TD*%
%TA.AperFunction,ComponentPad*%
%ADD16C,0.850000*%
%TD*%
%TA.AperFunction,SMDPad,CuDef*%
%ADD17RoundRect,0.140000X-0.140000X-0.170000X0.140000X-0.170000X0.140000X0.170000X-0.140000X0.170000X0*%
%TD*%
%TA.AperFunction,SMDPad,CuDef*%
%ADD18RoundRect,0.087500X0.087500X-0.250000X0.087500X0.250000X-0.087500X0.250000X-0.087500X-0.250000X0*%
%TD*%
%TA.AperFunction,SMDPad,CuDef*%
%ADD19R,1.150000X0.600000*%
%TD*%
%TA.AperFunction,SMDPad,CuDef*%
%ADD20RoundRect,0.218750X-0.218750X-0.256250X0.218750X-0.256250X0.218750X0.256250X-0.218750X0.256250X0*%
%TD*%
%TA.AperFunction,SMDPad,CuDef*%
%ADD21RoundRect,0.140000X-0.170000X0.140000X-0.170000X-0.140000X0.170000X-0.140000X0.170000X0.140000X0*%
%TD*%
%TA.AperFunction,ComponentPad*%
%ADD22R,1.700000X1.700000*%
%TD*%
%TA.AperFunction,ComponentPad*%
%ADD23C,1.700000*%
%TD*%
%TA.AperFunction,SMDPad,CuDef*%
%ADD24R,1.050000X0.450000*%
%TD*%
%TA.AperFunction,SMDPad,CuDef*%
%ADD25RoundRect,0.135000X-0.185000X0.135000X-0.185000X-0.135000X0.185000X-0.135000X0.185000X0.135000X0*%
%TD*%
%TA.AperFunction,SMDPad,CuDef*%
%ADD26RoundRect,0.250000X-0.625000X0.312500X-0.625000X-0.312500X0.625000X-0.312500X0.625000X0.312500X0*%
%TD*%
%TA.AperFunction,SMDPad,CuDef*%
%ADD27RoundRect,0.135000X0.135000X0.185000X-0.135000X0.185000X-0.135000X-0.185000X0.135000X-0.185000X0*%
%TD*%
%TA.AperFunction,SMDPad,CuDef*%
%ADD28RoundRect,0.135000X-0.135000X-0.185000X0.135000X-0.185000X0.135000X0.185000X-0.135000X0.185000X0*%
%TD*%
%TA.AperFunction,SMDPad,CuDef*%
%ADD29RoundRect,0.250000X-0.350000X0.450000X-0.350000X-0.450000X0.350000X-0.450000X0.350000X0.450000X0*%
%TD*%
%TA.AperFunction,SMDPad,CuDef*%
%ADD30RoundRect,0.075000X-0.662500X-0.075000X0.662500X-0.075000X0.662500X0.075000X-0.662500X0.075000X0*%
%TD*%
%TA.AperFunction,SMDPad,CuDef*%
%ADD31RoundRect,0.075000X-0.075000X-0.662500X0.075000X-0.662500X0.075000X0.662500X-0.075000X0.662500X0*%
%TD*%
%TA.AperFunction,SMDPad,CuDef*%
%ADD32RoundRect,0.135000X0.185000X-0.135000X0.185000X0.135000X-0.185000X0.135000X-0.185000X-0.135000X0*%
%TD*%
%TA.AperFunction,SMDPad,CuDef*%
%ADD33RoundRect,0.225000X-0.225000X-0.250000X0.225000X-0.250000X0.225000X0.250000X-0.225000X0.250000X0*%
%TD*%
%TA.AperFunction,SMDPad,CuDef*%
%ADD34R,0.450000X1.475000*%
%TD*%
%TA.AperFunction,SMDPad,CuDef*%
%ADD35R,2.310000X2.460000*%
%TD*%
%TA.AperFunction,ViaPad*%
%ADD36C,0.600000*%
%TD*%
%TA.AperFunction,Conductor*%
%ADD37C,0.200000*%
%TD*%
%TA.AperFunction,Conductor*%
%ADD38C,0.300000*%
%TD*%
%TA.AperFunction,Conductor*%
%ADD39C,0.500000*%
%TD*%
G04 APERTURE END LIST*
D10*
%TO.P,RGB,1*%
%TO.N,GND*%
X59200000Y-48900000D03*
%TO.P,RGB,2*%
X59200000Y-47800000D03*
%TO.P,RGB,3*%
X59200000Y-46700000D03*
%TO.P,RGB,4*%
%TO.N,Net-(LED1-Pad4)*%
X62200000Y-48900000D03*
%TO.P,RGB,5*%
%TO.N,Net-(LED1-Pad5)*%
X62200000Y-47800000D03*
%TO.P,RGB,6*%
%TO.N,Net-(LED1-Pad6)*%
X62200000Y-46700000D03*
%TD*%
D11*
%TO.P,C3,2*%
%TO.N,VCP*%
X82320000Y-36500000D03*
%TO.P,C3,1*%
%TO.N,+7V*%
X83280000Y-36500000D03*
%TD*%
D12*
%TO.P,C4,1*%
%TO.N,+7V*%
X81522600Y-33600000D03*
D13*
%TO.P,C4,2*%
%TO.N,GND*%
X80022600Y-33600000D03*
%TD*%
D14*
%TO.P,J6,1,Pin_1*%
%TO.N,HBRIDGE+*%
X85900000Y-44700000D03*
%TD*%
%TO.P,J5,1,Pin_1*%
%TO.N,HBRIDGE-*%
X85800000Y-39400000D03*
%TD*%
D15*
%TO.P,MAG,1,Pin_1*%
%TO.N,+3.3V*%
X68600000Y-48310000D03*
D16*
%TO.P,MAG,2,Pin_2*%
%TO.N,GND*%
X69600000Y-48310000D03*
%TO.P,MAG,3,Pin_3*%
%TO.N,MAG-SCLK*%
X70600000Y-48310000D03*
%TO.P,MAG,4,Pin_4*%
%TO.N,MAG-MISO*%
X71600000Y-48310000D03*
%TO.P,MAG,5,Pin_5*%
%TO.N,MAG-MOSI*%
X72600000Y-48310000D03*
%TD*%
D17*
%TO.P,C14,2*%
%TO.N,GND*%
X62080000Y-35500000D03*
%TO.P,C14,1*%
%TO.N,+3.3V*%
X61120000Y-35500000D03*
%TD*%
D18*
%TO.P,IC2,1,SCL*%
%TO.N,I2C-SCL-1*%
X60500000Y-38012500D03*
%TO.P,IC2,2,GND*%
%TO.N,GND*%
X61000000Y-38012500D03*
%TO.P,IC2,3,ALERT*%
%TO.N,TMP102-INT*%
X61500000Y-38012500D03*
%TO.P,IC2,4,ADD0*%
%TO.N,GND*%
X61500000Y-36587500D03*
%TO.P,IC2,5,V+*%
%TO.N,+3.3V*%
X61000000Y-36587500D03*
%TO.P,IC2,6,SDA*%
%TO.N,I2C-SDA-1*%
X60500000Y-36587500D03*
%TD*%
D11*
%TO.P,C15,1*%
%TO.N,+3.3VA*%
X63467500Y-43900000D03*
%TO.P,C15,2*%
%TO.N,GND*%
X62507500Y-43900000D03*
%TD*%
D19*
%TO.P,IC5,5,VOUT*%
%TO.N,+3.3V*%
X57800000Y-42650000D03*
%TO.P,IC5,4,NC*%
%TO.N,unconnected-(IC5-NC-Pad4)*%
X57800000Y-44550000D03*
%TO.P,IC5,3,EN*%
%TO.N,+7V*%
X55200000Y-44550000D03*
%TO.P,IC5,2,GND*%
%TO.N,GND*%
X55200000Y-43600000D03*
%TO.P,IC5,1,VIN*%
%TO.N,+7V*%
X55200000Y-42650000D03*
%TD*%
D20*
%TO.P,FB1,2*%
%TO.N,+3.3VA*%
X64775000Y-42600000D03*
%TO.P,FB1,1*%
%TO.N,+3.3V*%
X63200000Y-42600000D03*
%TD*%
D21*
%TO.P,C18,1*%
%TO.N,+3.3V*%
X59200000Y-42620000D03*
%TO.P,C18,2*%
%TO.N,GND*%
X59200000Y-43580000D03*
%TD*%
%TO.P,C17,1*%
%TO.N,+7V*%
X53800000Y-42620000D03*
%TO.P,C17,2*%
%TO.N,GND*%
X53800000Y-43580000D03*
%TD*%
D22*
%TO.P,J1,1,Pin_1*%
%TO.N,GND*%
X51200000Y-44110000D03*
D23*
%TO.P,J1,2,Pin_2*%
%TO.N,I2C-SCL-2*%
X51200000Y-41570000D03*
%TO.P,J1,3,Pin_3*%
%TO.N,I2C-SDA-2*%
X51200000Y-39030000D03*
%TO.P,J1,4,Pin_4*%
%TO.N,+SV*%
X51200000Y-36490000D03*
%TD*%
D24*
%TO.P,IC3,8,~{ALERT}*%
%TO.N,INA236-INT*%
X58925000Y-35925000D03*
%TO.P,IC3,7,A0*%
%TO.N,GND*%
X58925000Y-36575000D03*
%TO.P,IC3,6,SDA*%
%TO.N,I2C-SDA-1*%
X58925000Y-37225000D03*
%TO.P,IC3,5,SCL*%
%TO.N,I2C-SCL-1*%
X58925000Y-37875000D03*
%TO.P,IC3,4,VS*%
%TO.N,+3.3V*%
X56275000Y-37875000D03*
%TO.P,IC3,3,GND*%
%TO.N,GND*%
X56275000Y-37225000D03*
%TO.P,IC3,2,IN-*%
%TO.N,+7V*%
X56275000Y-36575000D03*
%TO.P,IC3,1,IN+*%
%TO.N,+SV*%
X56275000Y-35925000D03*
%TD*%
D22*
%TO.P,J2,1,Pin_1*%
%TO.N,SWCLK*%
X64600000Y-32400000D03*
D23*
%TO.P,J2,2,Pin_2*%
%TO.N,SWDIO*%
X62060000Y-32400000D03*
%TO.P,J2,3,Pin_3*%
%TO.N,GND*%
X59520000Y-32400000D03*
%TO.P,J2,4,Pin_4*%
%TO.N,3.3V*%
X56980000Y-32400000D03*
%TD*%
D17*
%TO.P,C12,1*%
%TO.N,+3.3V*%
X56270000Y-39200000D03*
%TO.P,C12,2*%
%TO.N,GND*%
X57230000Y-39200000D03*
%TD*%
D25*
%TO.P,R4,1*%
%TO.N,HBRIDGE-IPROPI*%
X83000000Y-46790000D03*
%TO.P,R4,2*%
%TO.N,GND*%
X83000000Y-47810000D03*
%TD*%
D21*
%TO.P,C10,1*%
%TO.N,+3.3V*%
X78000000Y-36700000D03*
%TO.P,C10,2*%
%TO.N,GND*%
X78000000Y-37660000D03*
%TD*%
D26*
%TO.P,R1,1*%
%TO.N,+SV*%
X54200000Y-35537500D03*
%TO.P,R1,2*%
%TO.N,+7V*%
X54200000Y-38462500D03*
%TD*%
D11*
%TO.P,C6,1*%
%TO.N,HSE-OUT*%
X64580000Y-41100000D03*
%TO.P,C6,2*%
%TO.N,GND*%
X63620000Y-41100000D03*
%TD*%
D17*
%TO.P,C16,1*%
%TO.N,+3.3VA*%
X64557500Y-43900000D03*
%TO.P,C16,2*%
%TO.N,GND*%
X65517500Y-43900000D03*
%TD*%
%TO.P,C2,1*%
%TO.N,+7V*%
X83320000Y-35100000D03*
%TO.P,C2,2*%
%TO.N,GND*%
X84280000Y-35100000D03*
%TD*%
D27*
%TO.P,R8,1*%
%TO.N,+3.3V*%
X74200000Y-33600000D03*
%TO.P,R8,2*%
%TO.N,I2C-SDA-1*%
X73180000Y-33600000D03*
%TD*%
D28*
%TO.P,R7,1*%
%TO.N,Net-(LED1-Pad4)*%
X63680000Y-48900000D03*
%TO.P,R7,2*%
%TO.N,RGB-LED-RED*%
X64700000Y-48900000D03*
%TD*%
D29*
%TO.P,Y1,1,1*%
%TO.N,HSE-IN*%
X63250000Y-37200000D03*
%TO.P,Y1,2,2*%
%TO.N,GND*%
X63250000Y-39400000D03*
%TO.P,Y1,3,3*%
%TO.N,HSE-OUT*%
X64950000Y-39400000D03*
%TO.P,Y1,4,4*%
%TO.N,GND*%
X64950000Y-37200000D03*
%TD*%
D25*
%TO.P,R3,1*%
%TO.N,HBRIDGE-FAULT*%
X81200000Y-46790000D03*
%TO.P,R3,2*%
%TO.N,GND*%
X81200000Y-47810000D03*
%TD*%
D28*
%TO.P,R6,1*%
%TO.N,Net-(LED1-Pad5)*%
X63680000Y-47700000D03*
%TO.P,R6,2*%
%TO.N,RGB-LED-GREEN*%
X64700000Y-47700000D03*
%TD*%
D30*
%TO.P,U1,1,VBAT*%
%TO.N,+3.3V*%
X68037500Y-36650000D03*
%TO.P,U1,2,PC13*%
%TO.N,unconnected-(U1-PC13-Pad2)*%
X68037500Y-37150000D03*
%TO.P,U1,3,PC14*%
%TO.N,unconnected-(U1-PC14-Pad3)*%
X68037500Y-37650000D03*
%TO.P,U1,4,PC15*%
%TO.N,unconnected-(U1-PC15-Pad4)*%
X68037500Y-38150000D03*
%TO.P,U1,5,PF0*%
%TO.N,HSE-IN*%
X68037500Y-38650000D03*
%TO.P,U1,6,PF1*%
%TO.N,HSE-OUT*%
X68037500Y-39150000D03*
%TO.P,U1,7,NRST*%
%TO.N,unconnected-(U1-NRST-Pad7)*%
X68037500Y-39650000D03*
%TO.P,U1,8,VSSA*%
%TO.N,GND*%
X68037500Y-40150000D03*
%TO.P,U1,9,VDDA*%
%TO.N,+3.3VA*%
X68037500Y-40650000D03*
%TO.P,U1,10,PA0*%
%TO.N,unconnected-(U1-PA0-Pad10)*%
X68037500Y-41150000D03*
%TO.P,U1,11,PA1*%
%TO.N,unconnected-(U1-PA1-Pad11)*%
X68037500Y-41650000D03*
%TO.P,U1,12,PA2*%
%TO.N,RGB-LED-BLUE*%
X68037500Y-42150000D03*
D31*
%TO.P,U1,13,PA3*%
%TO.N,RGB-LED-GREEN*%
X69450000Y-43562500D03*
%TO.P,U1,14,PA4*%
%TO.N,HBRIDGE-VREF*%
X69950000Y-43562500D03*
%TO.P,U1,15,PA5*%
%TO.N,RGB-LED-RED*%
X70450000Y-43562500D03*
%TO.P,U1,16,PA6*%
%TO.N,unconnected-(U1-PA6-Pad16)*%
X70950000Y-43562500D03*
%TO.P,U1,17,PA7*%
%TO.N,HBRIDGE-FAULT*%
X71450000Y-43562500D03*
%TO.P,U1,18,PB0*%
%TO.N,HBRIDGE-IPROPI*%
X71950000Y-43562500D03*
%TO.P,U1,19,PB1*%
%TO.N,unconnected-(U1-PB1-Pad19)*%
X72450000Y-43562500D03*
%TO.P,U1,20,PB2*%
%TO.N,unconnected-(U1-PB2-Pad20)*%
X72950000Y-43562500D03*
%TO.P,U1,21,PB10*%
%TO.N,unconnected-(U1-PB10-Pad21)*%
X73450000Y-43562500D03*
%TO.P,U1,22,PB11*%
%TO.N,unconnected-(U1-PB11-Pad22)*%
X73950000Y-43562500D03*
%TO.P,U1,23,VSS*%
%TO.N,GND*%
X74450000Y-43562500D03*
%TO.P,U1,24,VDD*%
%TO.N,+3.3V*%
X74950000Y-43562500D03*
D30*
%TO.P,U1,25,PB12*%
%TO.N,HBRIDGE-SLEEP*%
X76362500Y-42150000D03*
%TO.P,U1,26,PB13*%
%TO.N,MAG-MOSI*%
X76362500Y-41650000D03*
%TO.P,U1,27,PB14*%
%TO.N,MAG-MISO*%
X76362500Y-41150000D03*
%TO.P,U1,28,PB15*%
%TO.N,MAG-SCLK*%
X76362500Y-40650000D03*
%TO.P,U1,29,PA8*%
%TO.N,HBRIDGE-IN2*%
X76362500Y-40150000D03*
%TO.P,U1,30,PA9*%
%TO.N,I2C-SCL-2*%
X76362500Y-39650000D03*
%TO.P,U1,31,PA10*%
%TO.N,I2C-SDA-2*%
X76362500Y-39150000D03*
%TO.P,U1,32,PA11*%
%TO.N,HBRIDGE-IN1*%
X76362500Y-38650000D03*
%TO.P,U1,33,PA12*%
%TO.N,unconnected-(U1-PA12-Pad33)*%
X76362500Y-38150000D03*
%TO.P,U1,34,PA13*%
%TO.N,SWDIO*%
X76362500Y-37650000D03*
%TO.P,U1,35,VSS*%
%TO.N,GND*%
X76362500Y-37150000D03*
%TO.P,U1,36,VDD*%
%TO.N,+3.3V*%
X76362500Y-36650000D03*
D31*
%TO.P,U1,37,PA14*%
%TO.N,SWCLK*%
X74950000Y-35237500D03*
%TO.P,U1,38,PA15*%
%TO.N,unconnected-(U1-PA15-Pad38)*%
X74450000Y-35237500D03*
%TO.P,U1,39,PB3*%
%TO.N,unconnected-(U1-PB3-Pad39)*%
X73950000Y-35237500D03*
%TO.P,U1,40,PB4*%
%TO.N,unconnected-(U1-PB4-Pad40)*%
X73450000Y-35237500D03*
%TO.P,U1,41,PB5*%
%TO.N,I2C-SDA-1*%
X72950000Y-35237500D03*
%TO.P,U1,42,PB6*%
%TO.N,I2C-SCL-1*%
X72450000Y-35237500D03*
%TO.P,U1,43,PB7*%
%TO.N,unconnected-(U1-PB7-Pad43)*%
X71950000Y-35237500D03*
%TO.P,U1,44,BOOT0*%
%TO.N,unconnected-(U1-BOOT0-Pad44)*%
X71450000Y-35237500D03*
%TO.P,U1,45,PB8*%
%TO.N,unconnected-(U1-PB8-Pad45)*%
X70950000Y-35237500D03*
%TO.P,U1,46,PB9*%
%TO.N,TMP102-INT*%
X70450000Y-35237500D03*
%TO.P,U1,47,VSS*%
%TO.N,GND*%
X69950000Y-35237500D03*
%TO.P,U1,48,VDD*%
%TO.N,+3.3V*%
X69450000Y-35237500D03*
%TD*%
D32*
%TO.P,R2,1*%
%TO.N,+3.3V*%
X84800000Y-47810000D03*
%TO.P,R2,2*%
%TO.N,HBRIDGE-IMODE*%
X84800000Y-46790000D03*
%TD*%
D21*
%TO.P,C8,1*%
%TO.N,+3.3V*%
X66500000Y-36670000D03*
%TO.P,C8,2*%
%TO.N,GND*%
X66500000Y-37630000D03*
%TD*%
D27*
%TO.P,R9,1*%
%TO.N,+3.3V*%
X74200000Y-32600000D03*
%TO.P,R9,2*%
%TO.N,I2C-SCL-1*%
X73180000Y-32600000D03*
%TD*%
D17*
%TO.P,C7,1*%
%TO.N,+3.3V*%
X69500000Y-33700000D03*
%TO.P,C7,2*%
%TO.N,GND*%
X70460000Y-33700000D03*
%TD*%
D28*
%TO.P,R5,1*%
%TO.N,Net-(LED1-Pad6)*%
X63790000Y-46500000D03*
%TO.P,R5,2*%
%TO.N,RGB-LED-BLUE*%
X64810000Y-46500000D03*
%TD*%
D11*
%TO.P,C9,1*%
%TO.N,+3.3V*%
X75130000Y-45050000D03*
%TO.P,C9,2*%
%TO.N,GND*%
X74170000Y-45050000D03*
%TD*%
D33*
%TO.P,C11,1*%
%TO.N,+3.3V*%
X69725000Y-32400000D03*
%TO.P,C11,2*%
%TO.N,GND*%
X71275000Y-32400000D03*
%TD*%
D17*
%TO.P,C5,1*%
%TO.N,HSE-IN*%
X63620000Y-35500000D03*
%TO.P,C5,2*%
%TO.N,GND*%
X64580000Y-35500000D03*
%TD*%
%TO.P,C1,1*%
%TO.N,CPL*%
X80320000Y-37400000D03*
%TO.P,C1,2*%
%TO.N,CPH*%
X81280000Y-37400000D03*
%TD*%
D34*
%TO.P,IC1,1,EN/IN1*%
%TO.N,HBRIDGE-IN1*%
X79325000Y-44938000D03*
%TO.P,IC1,2,PH/IN2*%
%TO.N,HBRIDGE-IN2*%
X79975000Y-44938000D03*
%TO.P,IC1,3,NSLEEP*%
%TO.N,HBRIDGE-SLEEP*%
X80625000Y-44938000D03*
%TO.P,IC1,4,NFAULT*%
%TO.N,HBRIDGE-FAULT*%
X81275000Y-44938000D03*
%TO.P,IC1,5,VREF*%
%TO.N,HBRIDGE-VREF*%
X81925000Y-44938000D03*
%TO.P,IC1,6,IPROPI*%
%TO.N,HBRIDGE-IPROPI*%
X82575000Y-44938000D03*
%TO.P,IC1,7,IMODE*%
%TO.N,HBRIDGE-IMODE*%
X83225000Y-44938000D03*
%TO.P,IC1,8,OUT1*%
%TO.N,HBRIDGE+*%
X83875000Y-44938000D03*
%TO.P,IC1,9,PGND*%
%TO.N,GND*%
X83875000Y-39062000D03*
%TO.P,IC1,10,OUT2*%
%TO.N,HBRIDGE-*%
X83225000Y-39062000D03*
%TO.P,IC1,11,VM*%
%TO.N,+7V*%
X82575000Y-39062000D03*
%TO.P,IC1,12,VCP*%
%TO.N,VCP*%
X81925000Y-39062000D03*
%TO.P,IC1,13,CPH*%
%TO.N,CPH*%
X81275000Y-39062000D03*
%TO.P,IC1,14,CPL*%
%TO.N,CPL*%
X80625000Y-39062000D03*
%TO.P,IC1,15,GND*%
%TO.N,GND*%
X79975000Y-39062000D03*
%TO.P,IC1,16,PMODE*%
%TO.N,+3.3V*%
X79325000Y-39062000D03*
D35*
%TO.P,IC1,17,EP*%
%TO.N,GND*%
X81600000Y-42000000D03*
%TD*%
D36*
%TO.N,GND*%
X56400000Y-48600000D03*
X55700000Y-48600000D03*
X55000000Y-48600000D03*
X54300000Y-48600000D03*
X53600000Y-48600000D03*
X56400000Y-47900000D03*
X56400000Y-47200000D03*
X56400000Y-46500000D03*
X55700000Y-47900000D03*
X55000000Y-47900000D03*
X54300000Y-47900000D03*
X53600000Y-47900000D03*
X55700000Y-47200000D03*
X55000000Y-47200000D03*
X54300000Y-47200000D03*
X53600000Y-47200000D03*
X55700000Y-46500000D03*
X55000000Y-46500000D03*
X54300000Y-46500000D03*
X53600000Y-46500000D03*
X78100000Y-33900000D03*
X77500000Y-33900000D03*
X76800000Y-33900000D03*
X78100000Y-33200000D03*
X77500000Y-33200000D03*
X76800000Y-33200000D03*
X78200000Y-32500000D03*
X77500000Y-32500000D03*
X76800000Y-32500000D03*
X78200000Y-31800000D03*
X77500000Y-31800000D03*
X76800000Y-31800000D03*
%TO.N,+3.3V*%
X68100000Y-33500000D03*
%TO.N,TMP102-INT*%
X70000000Y-40100000D03*
X61600000Y-41000000D03*
X61000000Y-39600000D03*
%TO.N,HBRIDGE-FAULT*%
X74124265Y-46524265D03*
%TO.N,HBRIDGE-VREF*%
X72800000Y-46700000D03*
%TO.N,HBRIDGE-IPROPI*%
X72800000Y-44900000D03*
%TO.N,MAG-MISO*%
X71950000Y-41501000D03*
%TO.N,MAG-MOSI*%
X73500000Y-41501000D03*
%TO.N,MAG-SCLK*%
X71600000Y-40300000D03*
%TO.N,+3.3V*%
X75200000Y-45900000D03*
X78000000Y-35900000D03*
X62600000Y-41200000D03*
%TO.N,RGB-LED-RED*%
X69500000Y-41500000D03*
%TO.N,+3.3V*%
X61100000Y-34500000D03*
%TO.N,I2C-SCL-1*%
X73400000Y-38200000D03*
%TO.N,I2C-SDA-1*%
X73400000Y-37000000D03*
%TO.N,I2C-SCL-1*%
X57700000Y-37600000D03*
%TO.N,RGB-LED-RED*%
X66400000Y-48900000D03*
%TO.N,SWCLK*%
X74900000Y-36400000D03*
%TO.N,SWDIO*%
X75100000Y-37500000D03*
%TO.N,I2C-SCL-2*%
X74700000Y-39800003D03*
%TO.N,I2C-SDA-2*%
X74700000Y-39000000D03*
%TO.N,+3.3V*%
X84800000Y-48600000D03*
%TO.N,HBRIDGE-VREF*%
X82100000Y-46800000D03*
%TO.N,HBRIDGE-IPROPI*%
X83900000Y-47100000D03*
%TO.N,+3.3V*%
X75400000Y-33500000D03*
X75400000Y-32600000D03*
X79300000Y-37500000D03*
%TO.N,HBRIDGE-FAULT*%
X80100000Y-47700000D03*
%TO.N,+3.3V*%
X57700000Y-41500000D03*
X59100000Y-41500000D03*
X58400000Y-41500000D03*
X59100000Y-40800000D03*
X58400000Y-40800000D03*
X57700000Y-40800000D03*
X57000000Y-40800000D03*
X56200000Y-40800000D03*
X59100000Y-40100000D03*
X58400000Y-40100000D03*
X57700000Y-40100000D03*
X57000000Y-40100000D03*
X56250000Y-40100000D03*
%TO.N,GND*%
X58100000Y-39200000D03*
%TO.N,+7V*%
X54900000Y-41300000D03*
X54200000Y-41300000D03*
X53500000Y-41300000D03*
X54900000Y-40600000D03*
X54200000Y-40600000D03*
X53500000Y-40600000D03*
X54900000Y-39900000D03*
X54200000Y-39900000D03*
X53500000Y-39900000D03*
%TO.N,GND*%
X57500000Y-36700000D03*
%TO.N,I2C-SDA-1*%
X60200000Y-35700000D03*
%TO.N,INA236-INT*%
X59000000Y-35200000D03*
%TD*%
D37*
%TO.N,HSE-IN*%
X64251000Y-38201000D02*
X63250000Y-37200000D01*
X65786160Y-38650000D02*
X65337160Y-38201000D01*
X65337160Y-38201000D02*
X64251000Y-38201000D01*
X68037500Y-38650000D02*
X65786160Y-38650000D01*
%TO.N,MAG-SCLK*%
X74700054Y-40650000D02*
X76362500Y-40650000D01*
X74150054Y-40100000D02*
X74700054Y-40650000D01*
X71800000Y-40100000D02*
X74150054Y-40100000D01*
X71600000Y-40300000D02*
X71800000Y-40100000D01*
%TO.N,Net-(LED1-Pad4)*%
X63680000Y-48900000D02*
X62200000Y-48900000D01*
%TO.N,Net-(LED1-Pad6)*%
X62400000Y-46500000D02*
X62200000Y-46700000D01*
X63790000Y-46500000D02*
X62400000Y-46500000D01*
%TO.N,RGB-LED-BLUE*%
X68037500Y-43272500D02*
X68037500Y-42150000D01*
X64810000Y-46500000D02*
X68037500Y-43272500D01*
D38*
%TO.N,Net-(LED1-Pad5)*%
X62300000Y-47700000D02*
X62200000Y-47800000D01*
X63680000Y-47700000D02*
X62300000Y-47700000D01*
%TO.N,+3.3V*%
X69400000Y-33800000D02*
X69500000Y-33700000D01*
X68400000Y-33800000D02*
X69400000Y-33800000D01*
X68100000Y-33500000D02*
X68400000Y-33800000D01*
%TO.N,HBRIDGE-*%
X85800000Y-38100000D02*
X85800000Y-39400000D01*
X85100000Y-37400000D02*
X85800000Y-38100000D01*
X83700000Y-37400000D02*
X85100000Y-37400000D01*
D39*
X83225000Y-37875000D02*
X83700000Y-37400000D01*
X83225000Y-39062000D02*
X83225000Y-37875000D01*
D37*
%TO.N,TMP102-INT*%
X70450000Y-39650000D02*
X70000000Y-40100000D01*
X70450000Y-35237500D02*
X70450000Y-39650000D01*
X61000000Y-40400000D02*
X61600000Y-41000000D01*
X61000000Y-39600000D02*
X61000000Y-40400000D01*
X61500000Y-39100000D02*
X61000000Y-39600000D01*
X61500000Y-38012500D02*
X61500000Y-39100000D01*
%TO.N,+3.3V*%
X62600000Y-42000000D02*
X63200000Y-42600000D01*
X62600000Y-41200000D02*
X62600000Y-42000000D01*
%TO.N,MAG-MOSI*%
X74450000Y-41650000D02*
X76362500Y-41650000D01*
X74301000Y-41501000D02*
X74450000Y-41650000D01*
X73500000Y-41501000D02*
X74301000Y-41501000D01*
%TO.N,MAG-MISO*%
X74517100Y-41150000D02*
X76362500Y-41150000D01*
X74067100Y-40700000D02*
X74517100Y-41150000D01*
X72751000Y-40700000D02*
X74067100Y-40700000D01*
X71950000Y-41501000D02*
X72751000Y-40700000D01*
%TO.N,I2C-SCL-1*%
X73400000Y-38200000D02*
X72450000Y-37250000D01*
X72450000Y-37250000D02*
X72450000Y-35237500D01*
%TO.N,+3.3V*%
X84800000Y-48600000D02*
X84800000Y-47810000D01*
%TO.N,HBRIDGE-FAULT*%
X73557165Y-46524265D02*
X74124265Y-46524265D01*
X71450000Y-44417100D02*
X73557165Y-46524265D01*
X71450000Y-43562500D02*
X71450000Y-44417100D01*
%TO.N,HBRIDGE-VREF*%
X69950000Y-45550000D02*
X69950000Y-43562500D01*
X71100000Y-46700000D02*
X69950000Y-45550000D01*
X72800000Y-46700000D02*
X71100000Y-46700000D01*
%TO.N,HBRIDGE-FAULT*%
X80100000Y-47350000D02*
X80660000Y-46790000D01*
X80100000Y-47700000D02*
X80100000Y-47350000D01*
X80660000Y-46790000D02*
X81200000Y-46790000D01*
%TO.N,HBRIDGE-IPROPI*%
X72500000Y-44900000D02*
X72800000Y-44900000D01*
X71950000Y-44350000D02*
X72500000Y-44900000D01*
X71950000Y-43562500D02*
X71950000Y-44350000D01*
%TO.N,RGB-LED-RED*%
X70450000Y-42550000D02*
X70450000Y-43562500D01*
X69500000Y-41600000D02*
X70450000Y-42550000D01*
X69500000Y-41500000D02*
X69500000Y-41600000D01*
%TO.N,HBRIDGE-IN2*%
X79975000Y-45852500D02*
X79975000Y-44938000D01*
X79427500Y-46400000D02*
X79975000Y-45852500D01*
X77133824Y-40150000D02*
X77600000Y-40616176D01*
X77600000Y-45500000D02*
X78500000Y-46400000D01*
X78500000Y-46400000D02*
X79427500Y-46400000D01*
X76362500Y-40150000D02*
X77133824Y-40150000D01*
X77600000Y-40616176D02*
X77600000Y-45500000D01*
%TO.N,HBRIDGE-IPROPI*%
X83310000Y-47100000D02*
X83000000Y-46790000D01*
X83900000Y-47100000D02*
X83310000Y-47100000D01*
X82575000Y-46365000D02*
X83000000Y-46790000D01*
X82575000Y-44938000D02*
X82575000Y-46365000D01*
%TO.N,HBRIDGE-IMODE*%
X84310000Y-46300000D02*
X84800000Y-46790000D01*
X83649500Y-46300000D02*
X84310000Y-46300000D01*
X83225000Y-45875500D02*
X83649500Y-46300000D01*
X83225000Y-44938000D02*
X83225000Y-45875500D01*
%TO.N,+3.3V*%
X75200000Y-45120000D02*
X75130000Y-45050000D01*
X75200000Y-45900000D02*
X75200000Y-45120000D01*
%TO.N,HBRIDGE-SLEEP*%
X79400000Y-47100000D02*
X78132900Y-47100000D01*
X79500000Y-47000000D02*
X79400000Y-47100000D01*
X79500500Y-47000000D02*
X79500000Y-47000000D01*
X76362500Y-45329600D02*
X76362500Y-42150000D01*
X80625000Y-45875500D02*
X79500500Y-47000000D01*
X80625000Y-44938000D02*
X80625000Y-45875500D01*
X78132900Y-47100000D02*
X76362500Y-45329600D01*
%TO.N,+3.3V*%
X78000000Y-36700000D02*
X78000000Y-35900000D01*
X61100000Y-35480000D02*
X61120000Y-35500000D01*
X61100000Y-34500000D02*
X61100000Y-35480000D01*
%TO.N,I2C-SDA-1*%
X72950000Y-36550000D02*
X73400000Y-37000000D01*
X72950000Y-35237500D02*
X72950000Y-36550000D01*
%TO.N,I2C-SCL-1*%
X57975000Y-37875000D02*
X58925000Y-37875000D01*
X57700000Y-37600000D02*
X57975000Y-37875000D01*
%TO.N,GND*%
X57500000Y-36700000D02*
X56975000Y-37225000D01*
X58223000Y-36575000D02*
X58925000Y-36575000D01*
X57500000Y-36700000D02*
X58098000Y-36700000D01*
X58098000Y-36700000D02*
X58223000Y-36575000D01*
X56975000Y-37225000D02*
X56275000Y-37225000D01*
%TO.N,RGB-LED-RED*%
X66400000Y-48900000D02*
X64700000Y-48900000D01*
%TO.N,SWDIO*%
X75250000Y-37650000D02*
X76362500Y-37650000D01*
X75100000Y-37500000D02*
X75250000Y-37650000D01*
%TO.N,SWCLK*%
X74900000Y-35287500D02*
X74950000Y-35237500D01*
X74900000Y-36400000D02*
X74900000Y-35287500D01*
%TO.N,I2C-SCL-2*%
X76362500Y-39650000D02*
X74850003Y-39650000D01*
X74850003Y-39650000D02*
X74700000Y-39800003D01*
%TO.N,I2C-SDA-2*%
X74850000Y-39150000D02*
X74700000Y-39000000D01*
X76362500Y-39150000D02*
X74850000Y-39150000D01*
%TO.N,+3.3V*%
X74950000Y-43562500D02*
X74950000Y-44870000D01*
X74950000Y-44870000D02*
X75130000Y-45050000D01*
%TO.N,GND*%
X74450000Y-44770000D02*
X74170000Y-45050000D01*
X74450000Y-43562500D02*
X74450000Y-44770000D01*
%TO.N,HBRIDGE-VREF*%
X81925000Y-46625000D02*
X82100000Y-46800000D01*
X81925000Y-44938000D02*
X81925000Y-46625000D01*
%TO.N,+3.3V*%
X75300000Y-33600000D02*
X75400000Y-33500000D01*
X74200000Y-33600000D02*
X75300000Y-33600000D01*
X74200000Y-32600000D02*
X75400000Y-32600000D01*
%TO.N,I2C-SCL-1*%
X72450000Y-33330000D02*
X73180000Y-32600000D01*
X72450000Y-35237500D02*
X72450000Y-33330000D01*
%TO.N,I2C-SDA-1*%
X72950000Y-33830000D02*
X73180000Y-33600000D01*
X72950000Y-35237500D02*
X72950000Y-33830000D01*
%TO.N,HBRIDGE-IN1*%
X78400000Y-39800000D02*
X78400000Y-44013000D01*
X78400000Y-44013000D02*
X79325000Y-44938000D01*
X77250000Y-38650000D02*
X78400000Y-39800000D01*
X76362500Y-38650000D02*
X77250000Y-38650000D01*
%TO.N,+3.3V*%
X79300000Y-39037000D02*
X79325000Y-39062000D01*
X79300000Y-37500000D02*
X79300000Y-39037000D01*
%TO.N,CPH*%
X81275000Y-37405000D02*
X81280000Y-37400000D01*
X81275000Y-39062000D02*
X81275000Y-37405000D01*
%TO.N,CPL*%
X80625000Y-37705000D02*
X80625000Y-39062000D01*
X80320000Y-37400000D02*
X80625000Y-37705000D01*
%TO.N,HBRIDGE-FAULT*%
X81275000Y-46715000D02*
X81200000Y-46790000D01*
X81275000Y-44938000D02*
X81275000Y-46715000D01*
%TO.N,HSE-OUT*%
X65200000Y-39150000D02*
X68037500Y-39150000D01*
X64950000Y-39400000D02*
X65200000Y-39150000D01*
%TO.N,HBRIDGE-VREF*%
X70000000Y-43512500D02*
X69950000Y-43562500D01*
%TO.N,+3.3VA*%
X66725000Y-40650000D02*
X64775000Y-42600000D01*
X68037500Y-40650000D02*
X66725000Y-40650000D01*
%TO.N,+3.3V*%
X69450000Y-36150000D02*
X69450000Y-35237500D01*
X68950000Y-36650000D02*
X69450000Y-36150000D01*
X68037500Y-36650000D02*
X68950000Y-36650000D01*
X68017500Y-36670000D02*
X68037500Y-36650000D01*
X66500000Y-36670000D02*
X68017500Y-36670000D01*
%TO.N,GND*%
X64950000Y-35870000D02*
X64580000Y-35500000D01*
X64950000Y-37200000D02*
X64950000Y-35870000D01*
X63250000Y-40730000D02*
X63620000Y-41100000D01*
X63250000Y-39400000D02*
X63250000Y-40730000D01*
X57230000Y-39200000D02*
X58100000Y-39200000D01*
%TO.N,+3.3V*%
X56270000Y-37880000D02*
X56275000Y-37875000D01*
X56270000Y-39200000D02*
X56270000Y-37880000D01*
%TO.N,+3.3VA*%
X63467500Y-43900000D02*
X64557500Y-43900000D01*
X64557500Y-42817500D02*
X64775000Y-42600000D01*
X64557500Y-43900000D02*
X64557500Y-42817500D01*
%TO.N,GND*%
X77420000Y-37150000D02*
X77900000Y-37630000D01*
X76362500Y-37150000D02*
X77420000Y-37150000D01*
%TO.N,+3.3V*%
X77880000Y-36650000D02*
X77900000Y-36670000D01*
X76362500Y-36650000D02*
X77880000Y-36650000D01*
%TO.N,GND*%
X70460000Y-33215000D02*
X71275000Y-32400000D01*
X70460000Y-33700000D02*
X70460000Y-33215000D01*
X69950000Y-35237500D02*
X69950000Y-34210000D01*
X69950000Y-34210000D02*
X70460000Y-33700000D01*
%TO.N,+3.3V*%
X69500000Y-33700000D02*
X69500000Y-35187500D01*
X69500000Y-35187500D02*
X69450000Y-35237500D01*
%TO.N,GND*%
X61500000Y-36080000D02*
X62080000Y-35500000D01*
X61500000Y-36587500D02*
X61500000Y-36080000D01*
%TO.N,+3.3V*%
X61000000Y-35620000D02*
X61000000Y-36587500D01*
X61120000Y-35500000D02*
X61000000Y-35620000D01*
%TO.N,I2C-SDA-1*%
X60500000Y-36000000D02*
X60200000Y-35700000D01*
X60500000Y-36587500D02*
X60500000Y-36000000D01*
%TO.N,INA236-INT*%
X59000000Y-35850000D02*
X58925000Y-35925000D01*
X59000000Y-35200000D02*
X59000000Y-35850000D01*
%TO.N,+3.3V*%
X59170000Y-42650000D02*
X59200000Y-42620000D01*
X57800000Y-42650000D02*
X59170000Y-42650000D01*
%TO.N,GND*%
X55200000Y-43600000D02*
X53820000Y-43600000D01*
X53820000Y-43600000D02*
X53800000Y-43580000D01*
%TO.N,+7V*%
X56400000Y-44262500D02*
X56112500Y-44550000D01*
X56400000Y-43000000D02*
X56400000Y-44262500D01*
X56050000Y-42650000D02*
X56400000Y-43000000D01*
X56112500Y-44550000D02*
X55200000Y-44550000D01*
X55200000Y-42650000D02*
X56050000Y-42650000D01*
%TO.N,HSE-OUT*%
X64950000Y-40730000D02*
X64580000Y-41100000D01*
X64950000Y-39400000D02*
X64950000Y-40730000D01*
%TO.N,HSE-IN*%
X63250000Y-37200000D02*
X63250000Y-35870000D01*
X63250000Y-35870000D02*
X63620000Y-35500000D01*
%TO.N,I2C-SDA-1*%
X59862500Y-37225000D02*
X60500000Y-36587500D01*
X58925000Y-37225000D02*
X59862500Y-37225000D01*
%TO.N,I2C-SCL-1*%
X60362500Y-37875000D02*
X60500000Y-38012500D01*
X58925000Y-37875000D02*
X60362500Y-37875000D01*
%TO.N,+SV*%
X54587500Y-35925000D02*
X54200000Y-35537500D01*
X56275000Y-35925000D02*
X54587500Y-35925000D01*
%TO.N,+7V*%
X54200000Y-37925000D02*
X54200000Y-38462500D01*
X56275000Y-36575000D02*
X55550000Y-36575000D01*
X55550000Y-36575000D02*
X54200000Y-37925000D01*
%TO.N,RGB-LED-GREEN*%
X69450000Y-43562500D02*
X69450000Y-44450000D01*
X69450000Y-44450000D02*
X66200000Y-47700000D01*
X66200000Y-47700000D02*
X64700000Y-47700000D01*
%TO.N,GND*%
X61500000Y-37100000D02*
X61500000Y-36587500D01*
X61000000Y-38012500D02*
X61000000Y-37600000D01*
X61000000Y-37600000D02*
X61500000Y-37100000D01*
D38*
%TO.N,+7V*%
X82575000Y-37325000D02*
X82575000Y-39062000D01*
X83280000Y-36620000D02*
X82575000Y-37325000D01*
D37*
%TO.N,VCP*%
X81925000Y-36895000D02*
X82320000Y-36500000D01*
X81925000Y-39062000D02*
X81925000Y-36895000D01*
D38*
%TO.N,+7V*%
X83320000Y-35400000D02*
X83280000Y-35440000D01*
X83280000Y-35440000D02*
X83280000Y-36620000D01*
X83320000Y-35620000D02*
X81522600Y-33822600D01*
X83320000Y-35700000D02*
X83320000Y-35620000D01*
X81522600Y-33822600D02*
X81522600Y-33600000D01*
X83280000Y-35740000D02*
X83320000Y-35700000D01*
X81522600Y-33600000D02*
X81522600Y-34200000D01*
D37*
%TO.N,+3.3V*%
X69725000Y-32400000D02*
X69725000Y-33475000D01*
X69725000Y-33475000D02*
X69500000Y-33700000D01*
%TD*%
%TA.AperFunction,Conductor*%
%TO.N,HBRIDGE+*%
G36*
X87243039Y-43419685D02*
G01*
X87288794Y-43472489D01*
X87300000Y-43524000D01*
X87300000Y-45776000D01*
X87280315Y-45843039D01*
X87227511Y-45888794D01*
X87176000Y-45900000D01*
X84810598Y-45900000D01*
X84743559Y-45880315D01*
X84738142Y-45876628D01*
X84730005Y-45870769D01*
X84678716Y-45819480D01*
X84583485Y-45764499D01*
X84578092Y-45761385D01*
X84578089Y-45761383D01*
X84541783Y-45740422D01*
X84478151Y-45723372D01*
X84389057Y-45699499D01*
X84230943Y-45699499D01*
X84223347Y-45699499D01*
X84223331Y-45699500D01*
X84074500Y-45699500D01*
X84007461Y-45679815D01*
X83961706Y-45627011D01*
X83950500Y-45575500D01*
X83950499Y-44152629D01*
X83950498Y-44152612D01*
X83948847Y-44137256D01*
X83961252Y-44068496D01*
X84008862Y-44017359D01*
X84072136Y-44000000D01*
X84700000Y-44000000D01*
X84700000Y-43524000D01*
X84719685Y-43456961D01*
X84772489Y-43411206D01*
X84824000Y-43400000D01*
X87176000Y-43400000D01*
X87243039Y-43419685D01*
G37*
%TD.AperFunction*%
%TD*%
%TA.AperFunction,Conductor*%
%TO.N,+3.3V*%
G36*
X56395406Y-38819685D02*
G01*
X56441161Y-38872489D01*
X56451985Y-38933727D01*
X56449500Y-38965299D01*
X56449500Y-39434697D01*
X56452356Y-39470991D01*
X56452357Y-39470997D01*
X56497504Y-39626390D01*
X56497505Y-39626393D01*
X56579881Y-39765684D01*
X56579887Y-39765692D01*
X56694307Y-39880112D01*
X56694311Y-39880115D01*
X56694313Y-39880117D01*
X56833605Y-39962494D01*
X56858532Y-39969736D01*
X56989002Y-40007642D01*
X56989005Y-40007642D01*
X56989007Y-40007643D01*
X57025310Y-40010500D01*
X57025318Y-40010500D01*
X57434682Y-40010500D01*
X57434690Y-40010500D01*
X57470993Y-40007643D01*
X57470995Y-40007642D01*
X57470997Y-40007642D01*
X57511975Y-39995736D01*
X57626395Y-39962494D01*
X57664762Y-39939803D01*
X57732483Y-39922620D01*
X57775332Y-39931973D01*
X57866503Y-39969737D01*
X58021153Y-40000499D01*
X58021156Y-40000500D01*
X58021158Y-40000500D01*
X58178844Y-40000500D01*
X58178845Y-40000499D01*
X58333497Y-39969737D01*
X58479179Y-39909394D01*
X58610289Y-39821789D01*
X58610292Y-39821786D01*
X58695760Y-39736319D01*
X58757083Y-39702834D01*
X58783441Y-39700000D01*
X59576000Y-39700000D01*
X59643039Y-39719685D01*
X59688794Y-39772489D01*
X59700000Y-39824000D01*
X59700000Y-42703737D01*
X59680315Y-42770776D01*
X59627511Y-42816531D01*
X59558353Y-42826475D01*
X59541405Y-42822813D01*
X59470997Y-42802357D01*
X59470991Y-42802356D01*
X59434697Y-42799500D01*
X59434690Y-42799500D01*
X58965310Y-42799500D01*
X58965302Y-42799500D01*
X58929008Y-42802356D01*
X58929002Y-42802357D01*
X58773609Y-42847504D01*
X58773606Y-42847505D01*
X58634315Y-42929881D01*
X58634307Y-42929887D01*
X58519887Y-43044307D01*
X58515103Y-43050476D01*
X58512750Y-43048651D01*
X58471868Y-43086813D01*
X58416221Y-43100000D01*
X57124501Y-43100000D01*
X57057462Y-43080315D01*
X57011707Y-43027511D01*
X57000501Y-42976000D01*
X57000501Y-42920944D01*
X56980823Y-42847506D01*
X56959577Y-42768216D01*
X56959575Y-42768213D01*
X56959574Y-42768208D01*
X56959438Y-42767879D01*
X56959299Y-42767181D01*
X56957473Y-42760366D01*
X56957919Y-42760246D01*
X56950000Y-42720430D01*
X56950000Y-41750000D01*
X55974000Y-41750000D01*
X55906961Y-41730315D01*
X55861206Y-41677511D01*
X55850000Y-41626000D01*
X55850000Y-38924000D01*
X55869685Y-38856961D01*
X55922489Y-38811206D01*
X55974000Y-38800000D01*
X56328367Y-38800000D01*
X56395406Y-38819685D01*
G37*
%TD.AperFunction*%
%TD*%
%TA.AperFunction,Conductor*%
%TO.N,+7V*%
G36*
X55192539Y-37819685D02*
G01*
X55238294Y-37872489D01*
X55249500Y-37923999D01*
X55249500Y-38147869D01*
X55249501Y-38147876D01*
X55255908Y-38207483D01*
X55306202Y-38342328D01*
X55306206Y-38342335D01*
X55375358Y-38434709D01*
X55392454Y-38457546D01*
X55394119Y-38458792D01*
X55395365Y-38460457D01*
X55398725Y-38463817D01*
X55398241Y-38464300D01*
X55435989Y-38514725D01*
X55440973Y-38584417D01*
X55432601Y-38609570D01*
X55384664Y-38714534D01*
X55367319Y-38773605D01*
X55364977Y-38781580D01*
X55364976Y-38781584D01*
X55344500Y-38924000D01*
X55344500Y-41626000D01*
X55344501Y-41626009D01*
X55356052Y-41733450D01*
X55356054Y-41733462D01*
X55367260Y-41784972D01*
X55401383Y-41887497D01*
X55401386Y-41887503D01*
X55479171Y-42008537D01*
X55479179Y-42008548D01*
X55524923Y-42061340D01*
X55524926Y-42061343D01*
X55524930Y-42061347D01*
X55633664Y-42155567D01*
X55764541Y-42215338D01*
X55824075Y-42232819D01*
X55831583Y-42235024D01*
X55840289Y-42236275D01*
X55893647Y-42243947D01*
X55957201Y-42272970D01*
X55994976Y-42331747D01*
X56000000Y-42366684D01*
X56000000Y-42680497D01*
X55980315Y-42747536D01*
X55927511Y-42793291D01*
X55862747Y-42803787D01*
X55858655Y-42803347D01*
X55822873Y-42799500D01*
X55822867Y-42799500D01*
X54577129Y-42799500D01*
X54577123Y-42799501D01*
X54517516Y-42805908D01*
X54382671Y-42856202D01*
X54374886Y-42860454D01*
X54373637Y-42858167D01*
X54320932Y-42877817D01*
X54252661Y-42862955D01*
X54248985Y-42860865D01*
X54226395Y-42847506D01*
X54226390Y-42847504D01*
X54070997Y-42802357D01*
X54070991Y-42802356D01*
X54034697Y-42799500D01*
X54034690Y-42799500D01*
X53565310Y-42799500D01*
X53565302Y-42799500D01*
X53529008Y-42802356D01*
X53529002Y-42802357D01*
X53373609Y-42847504D01*
X53373606Y-42847505D01*
X53287121Y-42898652D01*
X53219396Y-42915835D01*
X53153134Y-42893675D01*
X53109371Y-42839208D01*
X53100000Y-42791920D01*
X53100000Y-38122695D01*
X53100013Y-38122647D01*
X53100000Y-38122600D01*
X53109936Y-38088854D01*
X53119685Y-38055656D01*
X53119721Y-38055624D01*
X53119736Y-38055576D01*
X53146639Y-38032299D01*
X53172489Y-38009901D01*
X53172549Y-38009883D01*
X53172575Y-38009861D01*
X53173817Y-38009511D01*
X53206447Y-37999944D01*
X53250469Y-37993648D01*
X53250580Y-37994557D01*
X53274017Y-37991711D01*
X53274082Y-37991703D01*
X53285334Y-37988663D01*
X53292812Y-37987594D01*
X53292900Y-37987606D01*
X53293295Y-37987526D01*
X53301987Y-37986318D01*
X53327574Y-37979061D01*
X53327573Y-37979059D01*
X53369457Y-37967181D01*
X53379242Y-37963302D01*
X53412986Y-37954190D01*
X53421331Y-37950597D01*
X53453742Y-37933738D01*
X53463288Y-37929278D01*
X53467553Y-37927501D01*
X53479097Y-37923677D01*
X53519860Y-37908188D01*
X53524797Y-37906064D01*
X53529965Y-37903806D01*
X53532452Y-37902703D01*
X53537565Y-37900402D01*
X53546648Y-37894562D01*
X53550403Y-37892999D01*
X53578972Y-37877169D01*
X53578973Y-37877170D01*
X53600128Y-37865448D01*
X53664365Y-37821590D01*
X53730830Y-37800048D01*
X53734282Y-37800000D01*
X55125500Y-37800000D01*
X55192539Y-37819685D01*
G37*
%TD.AperFunction*%
%TD*%
%TA.AperFunction,Conductor*%
%TO.N,GND*%
G36*
X50205703Y-36982692D02*
G01*
X50234985Y-37020111D01*
X50258766Y-37066786D01*
X50288583Y-37107825D01*
X50360586Y-37206928D01*
X50483072Y-37329414D01*
X50623212Y-37431232D01*
X50777555Y-37509873D01*
X50942299Y-37563402D01*
X51113389Y-37590500D01*
X51113390Y-37590500D01*
X51286610Y-37590500D01*
X51286611Y-37590500D01*
X51457701Y-37563402D01*
X51622445Y-37509873D01*
X51622464Y-37509862D01*
X51624808Y-37508893D01*
X51625783Y-37508788D01*
X51627079Y-37508367D01*
X51627167Y-37508639D01*
X51694276Y-37501417D01*
X51756759Y-37532685D01*
X51791249Y-37588512D01*
X51805635Y-37637504D01*
X51818049Y-37656820D01*
X51883419Y-37758537D01*
X51883427Y-37758548D01*
X51929171Y-37811340D01*
X51929174Y-37811343D01*
X51929178Y-37811347D01*
X52037912Y-37905567D01*
X52037915Y-37905568D01*
X52037916Y-37905569D01*
X52158195Y-37960500D01*
X52168789Y-37965338D01*
X52235828Y-37985023D01*
X52235832Y-37985024D01*
X52378248Y-38005500D01*
X52470500Y-38005500D01*
X52537539Y-38025185D01*
X52583294Y-38077989D01*
X52594500Y-38129500D01*
X52594500Y-42791918D01*
X52604141Y-42890173D01*
X52604142Y-42890176D01*
X52604143Y-42890183D01*
X52612958Y-42934664D01*
X52613516Y-42937480D01*
X52642070Y-43031977D01*
X52642071Y-43031979D01*
X52642072Y-43031981D01*
X52649223Y-43044073D01*
X52715313Y-43155831D01*
X52759059Y-43210277D01*
X52759070Y-43210289D01*
X52759073Y-43210291D01*
X52759074Y-43210293D01*
X52759075Y-43210294D01*
X52864239Y-43308488D01*
X52864241Y-43308489D01*
X52864241Y-43308490D01*
X52989350Y-43371339D01*
X52992808Y-43373076D01*
X53059070Y-43395236D01*
X53059076Y-43395238D01*
X53200634Y-43420987D01*
X53343711Y-43405810D01*
X53411436Y-43388627D01*
X53544441Y-43333757D01*
X53562482Y-43323087D01*
X53591023Y-43310739D01*
X53593856Y-43309917D01*
X53628427Y-43305000D01*
X53971570Y-43305000D01*
X54006165Y-43309924D01*
X54024036Y-43315116D01*
X54060980Y-43325849D01*
X54069708Y-43328741D01*
X54145136Y-43356887D01*
X54211617Y-43371359D01*
X54213020Y-43371687D01*
X54213410Y-43371750D01*
X54213411Y-43371750D01*
X54213415Y-43371751D01*
X54356927Y-43382034D01*
X54497523Y-43351468D01*
X54509518Y-43346995D01*
X54511023Y-43346446D01*
X54559097Y-43329226D01*
X54559323Y-43329831D01*
X54605674Y-43312543D01*
X54606456Y-43312263D01*
X54608758Y-43312128D01*
X54648270Y-43305000D01*
X55789133Y-43305000D01*
X55802381Y-43305710D01*
X55805233Y-43306016D01*
X55808718Y-43306391D01*
X55808728Y-43306390D01*
X55808735Y-43306391D01*
X55861554Y-43304975D01*
X55922178Y-43303350D01*
X55989720Y-43321230D01*
X56036873Y-43372789D01*
X56049500Y-43427305D01*
X56049500Y-43901671D01*
X56029815Y-43968710D01*
X55977011Y-44014465D01*
X55907853Y-44024409D01*
X55878046Y-44016232D01*
X55872735Y-44014032D01*
X55799677Y-43999500D01*
X55799674Y-43999500D01*
X54600326Y-43999500D01*
X54600323Y-43999500D01*
X54527264Y-44014032D01*
X54527260Y-44014033D01*
X54444399Y-44069399D01*
X54389033Y-44152260D01*
X54389032Y-44152264D01*
X54374500Y-44225321D01*
X54374500Y-44874678D01*
X54389032Y-44947735D01*
X54389033Y-44947739D01*
X54389034Y-44947740D01*
X54444399Y-45030601D01*
X54527260Y-45085966D01*
X54527264Y-45085967D01*
X54600321Y-45100499D01*
X54600324Y-45100500D01*
X54600326Y-45100500D01*
X55799676Y-45100500D01*
X55799677Y-45100499D01*
X55872740Y-45085966D01*
X55955601Y-45030601D01*
X55987282Y-44983186D01*
X56005709Y-44955609D01*
X56059321Y-44910804D01*
X56083594Y-44903091D01*
X56096069Y-44900500D01*
X56158644Y-44900500D01*
X56247788Y-44876614D01*
X56251148Y-44874674D01*
X56327712Y-44830470D01*
X56680469Y-44477712D01*
X56726614Y-44397788D01*
X56730725Y-44382442D01*
X56767090Y-44322783D01*
X56829937Y-44292254D01*
X56899312Y-44300549D01*
X56953190Y-44345034D01*
X56974465Y-44411586D01*
X56974500Y-44414537D01*
X56974500Y-44874678D01*
X56989032Y-44947735D01*
X56989033Y-44947739D01*
X56989034Y-44947740D01*
X57044399Y-45030601D01*
X57127260Y-45085966D01*
X57127264Y-45085967D01*
X57200321Y-45100499D01*
X57200324Y-45100500D01*
X57200326Y-45100500D01*
X58399676Y-45100500D01*
X58399677Y-45100499D01*
X58472740Y-45085966D01*
X58555601Y-45030601D01*
X58610966Y-44947740D01*
X58625500Y-44874674D01*
X58625500Y-44225326D01*
X58625500Y-44225323D01*
X58625499Y-44225321D01*
X58610967Y-44152264D01*
X58610966Y-44152260D01*
X58591673Y-44123386D01*
X58555601Y-44069399D01*
X58476030Y-44016232D01*
X58472739Y-44014033D01*
X58472735Y-44014032D01*
X58399677Y-43999500D01*
X58399674Y-43999500D01*
X57200326Y-43999500D01*
X57200323Y-43999500D01*
X57127264Y-44014032D01*
X57127260Y-44014033D01*
X57044399Y-44069399D01*
X56982249Y-44162415D01*
X56981322Y-44161796D01*
X56945219Y-44206598D01*
X56878924Y-44228662D01*
X56811225Y-44211382D01*
X56763615Y-44160244D01*
X56750500Y-44104741D01*
X56750500Y-43682560D01*
X56770185Y-43615521D01*
X56822989Y-43569766D01*
X56892147Y-43559822D01*
X56910658Y-43564552D01*
X56910794Y-43564090D01*
X56915038Y-43565336D01*
X56915042Y-43565338D01*
X56982081Y-43585023D01*
X56982085Y-43585024D01*
X57124501Y-43605500D01*
X57124504Y-43605500D01*
X58416221Y-43605500D01*
X58532784Y-43591877D01*
X58588431Y-43578690D01*
X58698727Y-43538549D01*
X58816806Y-43456337D01*
X58857688Y-43418175D01*
X58857496Y-43417970D01*
X58875944Y-43400364D01*
X58877329Y-43401749D01*
X58936522Y-43342554D01*
X58937592Y-43341534D01*
X58939192Y-43340707D01*
X58960052Y-43324524D01*
X58962455Y-43323102D01*
X58991029Y-43310737D01*
X58993869Y-43309912D01*
X59028427Y-43305000D01*
X59372122Y-43305000D01*
X59402537Y-43308788D01*
X59406999Y-43309917D01*
X59434644Y-43316911D01*
X59451592Y-43320573D01*
X59486417Y-43326830D01*
X59630297Y-43326829D01*
X59699455Y-43316885D01*
X59837504Y-43276350D01*
X59958543Y-43198562D01*
X60011347Y-43152807D01*
X60105567Y-43044073D01*
X60165338Y-42913196D01*
X60185023Y-42846157D01*
X60185024Y-42846153D01*
X60205500Y-42703737D01*
X60205500Y-39824000D01*
X60193947Y-39716544D01*
X60182741Y-39665033D01*
X60180895Y-39659488D01*
X60148616Y-39562502D01*
X60148613Y-39562496D01*
X60127411Y-39529505D01*
X60070825Y-39441457D01*
X60067917Y-39438101D01*
X60025076Y-39388659D01*
X60025072Y-39388656D01*
X60025070Y-39388653D01*
X59916336Y-39294433D01*
X59916333Y-39294431D01*
X59916331Y-39294430D01*
X59785465Y-39234664D01*
X59785460Y-39234662D01*
X59785459Y-39234662D01*
X59718420Y-39214977D01*
X59718422Y-39214977D01*
X59718417Y-39214976D01*
X59651986Y-39205425D01*
X59576000Y-39194500D01*
X58783441Y-39194500D01*
X58783439Y-39194500D01*
X58729390Y-39197397D01*
X58729389Y-39197397D01*
X58703056Y-39200229D01*
X58703029Y-39200232D01*
X58649633Y-39208885D01*
X58649631Y-39208885D01*
X58514826Y-39259166D01*
X58453502Y-39292651D01*
X58338319Y-39378874D01*
X58338309Y-39378882D01*
X58296688Y-39420504D01*
X58277898Y-39435925D01*
X58249887Y-39454641D01*
X58228450Y-39466099D01*
X58197331Y-39478989D01*
X58174071Y-39486045D01*
X58157340Y-39489373D01*
X58141031Y-39492617D01*
X58116841Y-39495000D01*
X58083161Y-39495000D01*
X58058968Y-39492617D01*
X58034818Y-39487813D01*
X58025926Y-39486044D01*
X58002670Y-39478989D01*
X57968783Y-39464953D01*
X57968764Y-39464946D01*
X57883135Y-39438101D01*
X57840280Y-39428747D01*
X57840269Y-39428745D01*
X57751241Y-39417468D01*
X57751234Y-39417467D01*
X57608163Y-39432645D01*
X57608151Y-39432647D01*
X57540447Y-39449827D01*
X57540443Y-39449828D01*
X57540440Y-39449829D01*
X57540437Y-39449829D01*
X57540428Y-39449833D01*
X57454595Y-39485244D01*
X57441903Y-39489691D01*
X57406165Y-39500075D01*
X57371567Y-39505000D01*
X57088434Y-39505000D01*
X57053827Y-39500073D01*
X57050985Y-39499247D01*
X57022468Y-39486904D01*
X57020075Y-39485488D01*
X56995522Y-39466442D01*
X56993559Y-39464479D01*
X56974513Y-39439927D01*
X56973094Y-39437528D01*
X56960736Y-39408964D01*
X56959913Y-39406130D01*
X56955000Y-39371570D01*
X56955000Y-38990032D01*
X56955382Y-38980305D01*
X56955492Y-38978899D01*
X56955926Y-38973392D01*
X56949769Y-38845742D01*
X56938945Y-38784504D01*
X56900980Y-38662496D01*
X56823192Y-38541457D01*
X56821956Y-38540031D01*
X56821693Y-38539456D01*
X56820541Y-38537916D01*
X56820876Y-38537665D01*
X56792932Y-38476477D01*
X56802875Y-38407318D01*
X56848630Y-38354514D01*
X56891478Y-38337211D01*
X56897740Y-38335966D01*
X56980601Y-38280601D01*
X57035966Y-38197740D01*
X57050500Y-38124674D01*
X57050500Y-38028386D01*
X57070185Y-37961347D01*
X57122989Y-37915592D01*
X57192147Y-37905648D01*
X57255703Y-37934673D01*
X57262181Y-37940705D01*
X57361985Y-38040509D01*
X57361986Y-38040510D01*
X57361988Y-38040511D01*
X57487511Y-38112982D01*
X57487512Y-38112982D01*
X57487515Y-38112984D01*
X57627525Y-38150500D01*
X57717954Y-38150500D01*
X57733441Y-38154649D01*
X57747188Y-38153995D01*
X57779954Y-38167113D01*
X57820611Y-38190586D01*
X57833002Y-38197740D01*
X57839712Y-38201614D01*
X57928856Y-38225500D01*
X57928857Y-38225500D01*
X58021144Y-38225500D01*
X58116303Y-38225500D01*
X58183342Y-38245185D01*
X58210686Y-38272046D01*
X58210766Y-38271967D01*
X58219396Y-38280597D01*
X58219399Y-38280601D01*
X58302260Y-38335966D01*
X58302263Y-38335966D01*
X58302264Y-38335967D01*
X58375321Y-38350499D01*
X58375324Y-38350500D01*
X58375326Y-38350500D01*
X59474676Y-38350500D01*
X59474677Y-38350499D01*
X59547740Y-38335966D01*
X59630601Y-38280601D01*
X59630605Y-38280594D01*
X59637529Y-38273671D01*
X59639984Y-38268297D01*
X59663109Y-38253434D01*
X59684204Y-38235805D01*
X59693580Y-38233852D01*
X59698762Y-38230523D01*
X59733697Y-38225500D01*
X59955671Y-38225500D01*
X60022710Y-38245185D01*
X60068465Y-38297989D01*
X60078609Y-38333311D01*
X60080981Y-38351330D01*
X60080982Y-38351332D01*
X60080982Y-38351333D01*
X60126759Y-38449500D01*
X60131356Y-38459359D01*
X60215641Y-38543644D01*
X60323670Y-38594019D01*
X60372897Y-38600500D01*
X60627102Y-38600499D01*
X60627104Y-38600499D01*
X60641167Y-38598647D01*
X60676330Y-38594019D01*
X60784359Y-38543644D01*
X60868644Y-38459359D01*
X60887618Y-38418668D01*
X60898359Y-38406468D01*
X60904848Y-38391560D01*
X60920972Y-38380784D01*
X60933787Y-38366230D01*
X60949422Y-38361773D01*
X60962940Y-38352740D01*
X60982330Y-38352393D01*
X61000980Y-38347077D01*
X61016543Y-38351780D01*
X61032799Y-38351490D01*
X61049297Y-38361680D01*
X61067862Y-38367291D01*
X61079018Y-38380037D01*
X61092244Y-38388206D01*
X61110995Y-38416571D01*
X61111853Y-38417551D01*
X61112147Y-38418167D01*
X61131356Y-38459359D01*
X61132318Y-38460321D01*
X61137354Y-38470845D01*
X61141371Y-38495631D01*
X61149402Y-38519428D01*
X61149500Y-38524367D01*
X61149500Y-38903456D01*
X61129815Y-38970495D01*
X61113181Y-38991137D01*
X61091137Y-39013181D01*
X61029814Y-39046666D01*
X61003456Y-39049500D01*
X60927525Y-39049500D01*
X60798993Y-39083940D01*
X60787511Y-39087017D01*
X60661988Y-39159488D01*
X60661982Y-39159493D01*
X60559493Y-39261982D01*
X60559488Y-39261988D01*
X60487017Y-39387511D01*
X60487016Y-39387515D01*
X60449500Y-39527525D01*
X60449500Y-39672475D01*
X60486497Y-39810548D01*
X60487017Y-39812488D01*
X60559488Y-39938011D01*
X60559493Y-39938017D01*
X60613181Y-39991705D01*
X60646666Y-40053028D01*
X60649500Y-40079386D01*
X60649500Y-40446144D01*
X60664065Y-40500501D01*
X60664065Y-40500502D01*
X60673384Y-40535284D01*
X60673385Y-40535286D01*
X60673386Y-40535288D01*
X60679453Y-40545796D01*
X60719527Y-40615208D01*
X60719531Y-40615213D01*
X61013181Y-40908863D01*
X61046666Y-40970186D01*
X61049500Y-40996544D01*
X61049500Y-41072475D01*
X61085163Y-41205569D01*
X61087017Y-41212488D01*
X61159488Y-41338011D01*
X61159490Y-41338013D01*
X61159491Y-41338015D01*
X61261985Y-41440509D01*
X61261986Y-41440510D01*
X61261988Y-41440511D01*
X61387511Y-41512982D01*
X61387512Y-41512982D01*
X61387515Y-41512984D01*
X61527525Y-41550500D01*
X61527528Y-41550500D01*
X61672472Y-41550500D01*
X61672475Y-41550500D01*
X61812485Y-41512984D01*
X61938015Y-41440509D01*
X61938020Y-41440503D01*
X61940304Y-41438752D01*
X61942587Y-41437869D01*
X61945054Y-41436445D01*
X61945276Y-41436829D01*
X61948609Y-41435540D01*
X61954816Y-41429154D01*
X61980691Y-41423136D01*
X62005472Y-41413555D01*
X62014196Y-41415344D01*
X62022870Y-41413327D01*
X62047891Y-41422253D01*
X62073917Y-41427591D01*
X62082023Y-41434431D01*
X62088677Y-41436805D01*
X62100821Y-41450292D01*
X62113988Y-41461402D01*
X62119042Y-41467956D01*
X62159491Y-41538015D01*
X62218824Y-41597348D01*
X62223694Y-41603663D01*
X62233593Y-41629087D01*
X62246666Y-41653028D01*
X62248096Y-41666335D01*
X62249045Y-41668771D01*
X62248596Y-41670984D01*
X62249500Y-41679386D01*
X62249500Y-42046144D01*
X62263797Y-42099500D01*
X62263797Y-42099501D01*
X62273385Y-42135286D01*
X62319527Y-42215208D01*
X62319531Y-42215213D01*
X62475681Y-42371363D01*
X62509166Y-42432686D01*
X62512000Y-42459044D01*
X62512000Y-42901144D01*
X62518009Y-42957024D01*
X62565162Y-43083447D01*
X62565164Y-43083450D01*
X62646028Y-43191472D01*
X62749615Y-43269016D01*
X62754049Y-43272335D01*
X62754052Y-43272337D01*
X62880472Y-43319489D01*
X62880478Y-43319491D01*
X62908150Y-43322466D01*
X62972699Y-43349204D01*
X63012547Y-43406596D01*
X63015041Y-43476421D01*
X63005378Y-43502050D01*
X62951481Y-43607827D01*
X62951481Y-43607828D01*
X62937000Y-43699264D01*
X62937000Y-44100739D01*
X62951481Y-44192170D01*
X62951481Y-44192171D01*
X62951482Y-44192174D01*
X62951483Y-44192175D01*
X63006702Y-44300549D01*
X63007642Y-44302392D01*
X63007645Y-44302396D01*
X63095103Y-44389854D01*
X63095105Y-44389855D01*
X63095109Y-44389859D01*
X63205325Y-44446017D01*
X63205326Y-44446017D01*
X63205328Y-44446018D01*
X63240447Y-44451579D01*
X63296765Y-44460500D01*
X63638234Y-44460499D01*
X63638239Y-44460499D01*
X63638239Y-44460498D01*
X63683954Y-44453258D01*
X63729670Y-44446018D01*
X63729671Y-44446018D01*
X63729672Y-44446017D01*
X63729675Y-44446017D01*
X63839891Y-44389859D01*
X63877186Y-44352564D01*
X63924819Y-44304932D01*
X63986142Y-44271447D01*
X64055834Y-44276431D01*
X64100181Y-44304932D01*
X64185103Y-44389854D01*
X64185105Y-44389855D01*
X64185109Y-44389859D01*
X64295325Y-44446017D01*
X64295326Y-44446017D01*
X64295328Y-44446018D01*
X64330447Y-44451579D01*
X64386765Y-44460500D01*
X64728234Y-44460499D01*
X64728239Y-44460499D01*
X64728239Y-44460498D01*
X64773954Y-44453258D01*
X64819670Y-44446018D01*
X64819671Y-44446018D01*
X64819672Y-44446017D01*
X64819675Y-44446017D01*
X64929891Y-44389859D01*
X65017359Y-44302391D01*
X65073517Y-44192175D01*
X65073517Y-44192173D01*
X65073518Y-44192172D01*
X65073518Y-44192171D01*
X65078574Y-44160244D01*
X65088000Y-44100735D01*
X65087999Y-43699266D01*
X65087999Y-43699264D01*
X65087999Y-43699260D01*
X65073518Y-43607829D01*
X65073518Y-43607828D01*
X65073517Y-43607826D01*
X65073517Y-43607825D01*
X65017359Y-43497609D01*
X65017356Y-43497606D01*
X65016320Y-43495572D01*
X65003424Y-43426903D01*
X65029700Y-43362162D01*
X65086806Y-43321905D01*
X65092248Y-43320339D01*
X65096793Y-43318644D01*
X65220950Y-43272336D01*
X65328972Y-43191472D01*
X65409836Y-43083450D01*
X65456991Y-42957022D01*
X65461511Y-42914977D01*
X65462999Y-42901144D01*
X65463000Y-42901129D01*
X65463000Y-42459044D01*
X65482685Y-42392005D01*
X65499319Y-42371363D01*
X66833863Y-41036819D01*
X66860790Y-41022115D01*
X66886609Y-41005523D01*
X66892809Y-41004631D01*
X66895186Y-41003334D01*
X66921544Y-41000500D01*
X66925500Y-41000500D01*
X66992539Y-41020185D01*
X67038294Y-41072989D01*
X67049500Y-41124499D01*
X67049500Y-41263131D01*
X67049501Y-41263138D01*
X67055741Y-41310545D01*
X67073018Y-41347596D01*
X67083509Y-41416673D01*
X67073018Y-41452402D01*
X67055742Y-41489451D01*
X67055740Y-41489458D01*
X67049500Y-41536859D01*
X67049500Y-41763131D01*
X67049501Y-41763138D01*
X67055741Y-41810545D01*
X67073018Y-41847596D01*
X67083509Y-41916673D01*
X67073018Y-41952402D01*
X67055742Y-41989451D01*
X67055740Y-41989458D01*
X67049500Y-42036859D01*
X67049500Y-42263132D01*
X67049501Y-42263138D01*
X67055741Y-42310545D01*
X67055742Y-42310547D01*
X67055742Y-42310548D01*
X67104253Y-42414579D01*
X67185421Y-42495747D01*
X67289455Y-42544259D01*
X67336861Y-42550500D01*
X67563000Y-42550499D01*
X67630039Y-42570183D01*
X67675794Y-42622987D01*
X67687000Y-42674499D01*
X67687000Y-43075956D01*
X67667315Y-43142995D01*
X67650681Y-43163637D01*
X64921137Y-45893181D01*
X64859814Y-45926666D01*
X64833456Y-45929500D01*
X64638418Y-45929500D01*
X64563482Y-45940418D01*
X64563480Y-45940418D01*
X64563478Y-45940419D01*
X64447900Y-45996921D01*
X64447897Y-45996923D01*
X64387681Y-46057140D01*
X64326358Y-46090625D01*
X64256666Y-46085641D01*
X64212319Y-46057140D01*
X64152102Y-45996923D01*
X64152099Y-45996921D01*
X64036521Y-45940419D01*
X64036519Y-45940418D01*
X64036518Y-45940418D01*
X63961582Y-45929500D01*
X63618418Y-45929500D01*
X63543482Y-45940418D01*
X63543480Y-45940418D01*
X63543478Y-45940419D01*
X63427900Y-45996921D01*
X63427897Y-45996923D01*
X63336926Y-46087895D01*
X63330956Y-46096257D01*
X63327908Y-46094081D01*
X63293650Y-46131559D01*
X63229404Y-46149500D01*
X61650105Y-46149500D01*
X61634386Y-46151569D01*
X61600513Y-46156028D01*
X61600511Y-46156029D01*
X61600509Y-46156029D01*
X61491683Y-46206776D01*
X61406776Y-46291683D01*
X61356027Y-46400514D01*
X61349500Y-46450098D01*
X61349500Y-46949894D01*
X61349501Y-46949900D01*
X61356028Y-46999487D01*
X61356029Y-46999489D01*
X61356029Y-46999490D01*
X61406776Y-47108316D01*
X61460779Y-47162319D01*
X61494264Y-47223642D01*
X61489280Y-47293334D01*
X61460779Y-47337681D01*
X61406776Y-47391683D01*
X61356027Y-47500514D01*
X61349500Y-47550098D01*
X61349500Y-48049894D01*
X61350772Y-48059560D01*
X61356028Y-48099487D01*
X61356029Y-48099489D01*
X61356029Y-48099490D01*
X61406776Y-48208316D01*
X61460779Y-48262319D01*
X61494264Y-48323642D01*
X61489280Y-48393334D01*
X61460779Y-48437681D01*
X61406776Y-48491683D01*
X61356027Y-48600514D01*
X61349500Y-48650098D01*
X61349500Y-49149894D01*
X61349501Y-49149900D01*
X61356028Y-49199487D01*
X61356029Y-49199489D01*
X61356029Y-49199490D01*
X61411361Y-49318148D01*
X61409028Y-49319235D01*
X61426345Y-49370581D01*
X61409336Y-49438349D01*
X61358388Y-49486162D01*
X61302443Y-49499500D01*
X52558189Y-49499500D01*
X52491150Y-49479815D01*
X52445395Y-49427011D01*
X52435451Y-49357853D01*
X52464476Y-49294297D01*
X52485303Y-49275182D01*
X52492181Y-49270185D01*
X52527510Y-49244517D01*
X52694517Y-49077510D01*
X52833343Y-48886433D01*
X52940568Y-48675992D01*
X53013553Y-48451368D01*
X53025406Y-48376531D01*
X53050500Y-48218097D01*
X53050500Y-47981902D01*
X53013553Y-47748631D01*
X52977776Y-47638522D01*
X52940568Y-47524008D01*
X52940566Y-47524005D01*
X52940566Y-47524003D01*
X52879157Y-47403482D01*
X52833343Y-47313567D01*
X52694517Y-47122490D01*
X52527510Y-46955483D01*
X52336433Y-46816657D01*
X52296908Y-46796518D01*
X52125996Y-46709433D01*
X51901368Y-46636446D01*
X51668097Y-46599500D01*
X51668092Y-46599500D01*
X51431908Y-46599500D01*
X51431903Y-46599500D01*
X51198631Y-46636446D01*
X50974003Y-46709433D01*
X50763566Y-46816657D01*
X50667960Y-46886120D01*
X50572490Y-46955483D01*
X50572488Y-46955485D01*
X50572487Y-46955485D01*
X50405485Y-47122487D01*
X50405485Y-47122488D01*
X50405483Y-47122490D01*
X50375087Y-47164326D01*
X50266655Y-47313568D01*
X50234984Y-47375727D01*
X50187010Y-47426522D01*
X50119189Y-47443317D01*
X50053054Y-47420779D01*
X50009603Y-47366064D01*
X50000500Y-47319431D01*
X50000500Y-42156405D01*
X50020185Y-42089366D01*
X50072989Y-42043611D01*
X50142147Y-42033667D01*
X50205703Y-42062692D01*
X50234985Y-42100111D01*
X50258766Y-42146786D01*
X50265755Y-42156405D01*
X50360586Y-42286928D01*
X50483072Y-42409414D01*
X50623212Y-42511232D01*
X50777555Y-42589873D01*
X50942299Y-42643402D01*
X51113389Y-42670500D01*
X51113390Y-42670500D01*
X51286610Y-42670500D01*
X51286611Y-42670500D01*
X51457701Y-42643402D01*
X51622445Y-42589873D01*
X51776788Y-42511232D01*
X51916928Y-42409414D01*
X52039414Y-42286928D01*
X52141232Y-42146788D01*
X52219873Y-41992445D01*
X52273402Y-41827701D01*
X52300500Y-41656611D01*
X52300500Y-41483389D01*
X52273402Y-41312299D01*
X52219873Y-41147555D01*
X52141232Y-40993212D01*
X52039414Y-40853072D01*
X51916928Y-40730586D01*
X51776788Y-40628768D01*
X51622445Y-40550127D01*
X51457701Y-40496598D01*
X51457699Y-40496597D01*
X51457698Y-40496597D01*
X51326271Y-40475781D01*
X51286611Y-40469500D01*
X51113389Y-40469500D01*
X51073728Y-40475781D01*
X50942302Y-40496597D01*
X50777552Y-40550128D01*
X50623211Y-40628768D01*
X50543256Y-40686859D01*
X50483072Y-40730586D01*
X50483070Y-40730588D01*
X50483069Y-40730588D01*
X50360588Y-40853069D01*
X50360588Y-40853070D01*
X50360586Y-40853072D01*
X50327025Y-40899265D01*
X50258768Y-40993211D01*
X50234985Y-41039889D01*
X50187010Y-41090685D01*
X50119189Y-41107480D01*
X50053055Y-41084943D01*
X50009603Y-41030228D01*
X50000500Y-40983594D01*
X50000500Y-39616405D01*
X50020185Y-39549366D01*
X50072989Y-39503611D01*
X50142147Y-39493667D01*
X50205703Y-39522692D01*
X50234985Y-39560111D01*
X50258766Y-39606786D01*
X50289357Y-39648890D01*
X50360586Y-39746928D01*
X50483072Y-39869414D01*
X50623212Y-39971232D01*
X50777555Y-40049873D01*
X50942299Y-40103402D01*
X51113389Y-40130500D01*
X51113390Y-40130500D01*
X51286610Y-40130500D01*
X51286611Y-40130500D01*
X51457701Y-40103402D01*
X51622445Y-40049873D01*
X51776788Y-39971232D01*
X51916928Y-39869414D01*
X52039414Y-39746928D01*
X52141232Y-39606788D01*
X52219873Y-39452445D01*
X52273402Y-39287701D01*
X52300500Y-39116611D01*
X52300500Y-38943389D01*
X52273402Y-38772299D01*
X52219873Y-38607555D01*
X52141232Y-38453212D01*
X52039414Y-38313072D01*
X51916928Y-38190586D01*
X51776788Y-38088768D01*
X51694880Y-38047034D01*
X51622447Y-38010128D01*
X51622446Y-38010127D01*
X51622445Y-38010127D01*
X51457701Y-37956598D01*
X51457699Y-37956597D01*
X51457698Y-37956597D01*
X51319272Y-37934673D01*
X51286611Y-37929500D01*
X51113389Y-37929500D01*
X51080728Y-37934673D01*
X50942302Y-37956597D01*
X50942299Y-37956598D01*
X50785499Y-38007546D01*
X50777552Y-38010128D01*
X50623211Y-38088768D01*
X50552488Y-38140152D01*
X50483072Y-38190586D01*
X50483070Y-38190588D01*
X50483069Y-38190588D01*
X50360588Y-38313069D01*
X50258768Y-38453211D01*
X50234985Y-38499889D01*
X50187010Y-38550685D01*
X50119189Y-38567480D01*
X50053055Y-38544943D01*
X50009603Y-38490228D01*
X50000500Y-38443594D01*
X50000500Y-37076405D01*
X50020185Y-37009366D01*
X50072989Y-36963611D01*
X50142147Y-36953667D01*
X50205703Y-36982692D01*
G37*
%TD.AperFunction*%
%TA.AperFunction,Conductor*%
G36*
X70017862Y-35948410D02*
G01*
X70062380Y-35999785D01*
X70087881Y-36054470D01*
X70099500Y-36106876D01*
X70099500Y-39425500D01*
X70079815Y-39492539D01*
X70027011Y-39538294D01*
X69975500Y-39549500D01*
X69927525Y-39549500D01*
X69824171Y-39577194D01*
X69787511Y-39587017D01*
X69661988Y-39659488D01*
X69661982Y-39659493D01*
X69559493Y-39761982D01*
X69559488Y-39761988D01*
X69487017Y-39887511D01*
X69484410Y-39897239D01*
X69449500Y-40027525D01*
X69449500Y-40172475D01*
X69482009Y-40293797D01*
X69487017Y-40312488D01*
X69559488Y-40438011D01*
X69559490Y-40438013D01*
X69559491Y-40438015D01*
X69661985Y-40540509D01*
X69661986Y-40540510D01*
X69661988Y-40540511D01*
X69787511Y-40612982D01*
X69787512Y-40612982D01*
X69787515Y-40612984D01*
X69927525Y-40650500D01*
X69927528Y-40650500D01*
X70072472Y-40650500D01*
X70072475Y-40650500D01*
X70212485Y-40612984D01*
X70338015Y-40540509D01*
X70440509Y-40438015D01*
X70512984Y-40312485D01*
X70550500Y-40172475D01*
X70550500Y-40096544D01*
X70570185Y-40029505D01*
X70586819Y-40008863D01*
X70657671Y-39938011D01*
X70730470Y-39865212D01*
X70776614Y-39785288D01*
X70777897Y-39780500D01*
X70800500Y-39696144D01*
X70800500Y-36349499D01*
X70820185Y-36282460D01*
X70872989Y-36236705D01*
X70924497Y-36225499D01*
X71063138Y-36225499D01*
X71110545Y-36219259D01*
X71147595Y-36201981D01*
X71216672Y-36191490D01*
X71252404Y-36201981D01*
X71289455Y-36219259D01*
X71336861Y-36225500D01*
X71563138Y-36225499D01*
X71610545Y-36219259D01*
X71647595Y-36201981D01*
X71716672Y-36191490D01*
X71752404Y-36201981D01*
X71789455Y-36219259D01*
X71836861Y-36225500D01*
X71975500Y-36225499D01*
X72042539Y-36245183D01*
X72088294Y-36297987D01*
X72099500Y-36349499D01*
X72099500Y-37296143D01*
X72117351Y-37362766D01*
X72117873Y-37364712D01*
X72121368Y-37377758D01*
X72123386Y-37385289D01*
X72169527Y-37465208D01*
X72169531Y-37465213D01*
X72813181Y-38108863D01*
X72846666Y-38170186D01*
X72849500Y-38196544D01*
X72849500Y-38272475D01*
X72886836Y-38411812D01*
X72887017Y-38412488D01*
X72959488Y-38538011D01*
X72959490Y-38538013D01*
X72959491Y-38538015D01*
X73061985Y-38640509D01*
X73061986Y-38640510D01*
X73061988Y-38640511D01*
X73187511Y-38712982D01*
X73187512Y-38712982D01*
X73187515Y-38712984D01*
X73327525Y-38750500D01*
X73327528Y-38750500D01*
X73472472Y-38750500D01*
X73472475Y-38750500D01*
X73612485Y-38712984D01*
X73738015Y-38640509D01*
X73840509Y-38538015D01*
X73912984Y-38412485D01*
X73950500Y-38272475D01*
X73950500Y-38127525D01*
X73912984Y-37987515D01*
X73911545Y-37985023D01*
X73840511Y-37861988D01*
X73840506Y-37861982D01*
X73738017Y-37759493D01*
X73738015Y-37759491D01*
X73656604Y-37712488D01*
X73647769Y-37707387D01*
X73599553Y-37656820D01*
X73586331Y-37588213D01*
X73612299Y-37523348D01*
X73647769Y-37492613D01*
X73671771Y-37478755D01*
X73738015Y-37440509D01*
X73840509Y-37338015D01*
X73912984Y-37212485D01*
X73950500Y-37072475D01*
X73950500Y-36927525D01*
X73912984Y-36787515D01*
X73889997Y-36747701D01*
X73840511Y-36661988D01*
X73840506Y-36661982D01*
X73738017Y-36559493D01*
X73738011Y-36559488D01*
X73612488Y-36487017D01*
X73612489Y-36487017D01*
X73603388Y-36484578D01*
X73543928Y-36468646D01*
X73541848Y-36467378D01*
X73539412Y-36467344D01*
X73512173Y-36449290D01*
X73484270Y-36432282D01*
X73483205Y-36430089D01*
X73481173Y-36428743D01*
X73468015Y-36398819D01*
X73453741Y-36369434D01*
X73454030Y-36367014D01*
X73453049Y-36364783D01*
X73458156Y-36332505D01*
X73462036Y-36300059D01*
X73463588Y-36298179D01*
X73463969Y-36295772D01*
X73485709Y-36271387D01*
X73506521Y-36246181D01*
X73509347Y-36244873D01*
X73510465Y-36243620D01*
X73517527Y-36241090D01*
X73542773Y-36229413D01*
X73556834Y-36225499D01*
X73563138Y-36225499D01*
X73610545Y-36219259D01*
X73656882Y-36197651D01*
X73666749Y-36194905D01*
X73691853Y-36195259D01*
X73716672Y-36191490D01*
X73731413Y-36195818D01*
X73736612Y-36195892D01*
X73740547Y-36198500D01*
X73752404Y-36201981D01*
X73789455Y-36219259D01*
X73836861Y-36225500D01*
X74063138Y-36225499D01*
X74110545Y-36219259D01*
X74147595Y-36201981D01*
X74148605Y-36201828D01*
X74149382Y-36201166D01*
X74183071Y-36196593D01*
X74216672Y-36191490D01*
X74217936Y-36191861D01*
X74218617Y-36191769D01*
X74252397Y-36201978D01*
X74277906Y-36213873D01*
X74330342Y-36260041D01*
X74349500Y-36326254D01*
X74349500Y-36327525D01*
X74349500Y-36472475D01*
X74382178Y-36594430D01*
X74387017Y-36612488D01*
X74459488Y-36738011D01*
X74459490Y-36738013D01*
X74459491Y-36738015D01*
X74561985Y-36840509D01*
X74687515Y-36912984D01*
X74687659Y-36913067D01*
X74735875Y-36963634D01*
X74749098Y-37032241D01*
X74723130Y-37097106D01*
X74713341Y-37108135D01*
X74659488Y-37161988D01*
X74587017Y-37287511D01*
X74587016Y-37287515D01*
X74549500Y-37427525D01*
X74549500Y-37572475D01*
X74587016Y-37712485D01*
X74587017Y-37712488D01*
X74659488Y-37838011D01*
X74659490Y-37838013D01*
X74659491Y-37838015D01*
X74761985Y-37940509D01*
X74761986Y-37940510D01*
X74761988Y-37940511D01*
X74887511Y-38012982D01*
X74887512Y-38012982D01*
X74887515Y-38012984D01*
X75027525Y-38050500D01*
X75027528Y-38050500D01*
X75172473Y-38050500D01*
X75172475Y-38050500D01*
X75218408Y-38038192D01*
X75288254Y-38039853D01*
X75346117Y-38079014D01*
X75373214Y-38140152D01*
X75374500Y-38149014D01*
X75374501Y-38263138D01*
X75380741Y-38310545D01*
X75405728Y-38364130D01*
X75408349Y-38382185D01*
X75405891Y-38399440D01*
X75408509Y-38416673D01*
X75398662Y-38450205D01*
X75398499Y-38451357D01*
X75398235Y-38451662D01*
X75398018Y-38452402D01*
X75380742Y-38489451D01*
X75380740Y-38489458D01*
X75374500Y-38536860D01*
X75374500Y-38604495D01*
X75354815Y-38671534D01*
X75302011Y-38717289D01*
X75232853Y-38727233D01*
X75169297Y-38698208D01*
X75143114Y-38666496D01*
X75140513Y-38661991D01*
X75140510Y-38661988D01*
X75140509Y-38661985D01*
X75038015Y-38559491D01*
X75038013Y-38559490D01*
X75038011Y-38559488D01*
X74912488Y-38487017D01*
X74912489Y-38487017D01*
X74873153Y-38476477D01*
X74772475Y-38449500D01*
X74627525Y-38449500D01*
X74526847Y-38476477D01*
X74487511Y-38487017D01*
X74361988Y-38559488D01*
X74361982Y-38559493D01*
X74259493Y-38661982D01*
X74259488Y-38661988D01*
X74187017Y-38787511D01*
X74187016Y-38787515D01*
X74149500Y-38927525D01*
X74149500Y-39072475D01*
X74186052Y-39208886D01*
X74187017Y-39212488D01*
X74259482Y-39338001D01*
X74260948Y-39344047D01*
X74265011Y-39348758D01*
X74269087Y-39377593D01*
X74275955Y-39405901D01*
X74274140Y-39413340D01*
X74274791Y-39417940D01*
X74268848Y-39435043D01*
X74264767Y-39451780D01*
X74260573Y-39460905D01*
X74259491Y-39461988D01*
X74187016Y-39587518D01*
X74165519Y-39667742D01*
X74161137Y-39677279D01*
X74144813Y-39696026D01*
X74131875Y-39717254D01*
X74122267Y-39721920D01*
X74115256Y-39729974D01*
X74091389Y-39736920D01*
X74069028Y-39747783D01*
X74048465Y-39749500D01*
X71753851Y-39749500D01*
X71745250Y-39751805D01*
X71681078Y-39751805D01*
X71677421Y-39750825D01*
X71672475Y-39749500D01*
X71527525Y-39749500D01*
X71411844Y-39780497D01*
X71387511Y-39787017D01*
X71261988Y-39859488D01*
X71261982Y-39859493D01*
X71159493Y-39961982D01*
X71159488Y-39961988D01*
X71087017Y-40087511D01*
X71085724Y-40092335D01*
X71049500Y-40227525D01*
X71049500Y-40372475D01*
X71067823Y-40440855D01*
X71087017Y-40512488D01*
X71159488Y-40638011D01*
X71159490Y-40638013D01*
X71159491Y-40638015D01*
X71261985Y-40740509D01*
X71261986Y-40740510D01*
X71261988Y-40740511D01*
X71387511Y-40812982D01*
X71387512Y-40812982D01*
X71387515Y-40812984D01*
X71527525Y-40850500D01*
X71527528Y-40850500D01*
X71535585Y-40851561D01*
X71535236Y-40854206D01*
X71589653Y-40870185D01*
X71635408Y-40922989D01*
X71645352Y-40992147D01*
X71616327Y-41055703D01*
X71610295Y-41062181D01*
X71509493Y-41162982D01*
X71509488Y-41162988D01*
X71437017Y-41288511D01*
X71437016Y-41288515D01*
X71399500Y-41428525D01*
X71399500Y-41573475D01*
X71425628Y-41670984D01*
X71437017Y-41713488D01*
X71509488Y-41839011D01*
X71509490Y-41839013D01*
X71509491Y-41839015D01*
X71611985Y-41941509D01*
X71611986Y-41941510D01*
X71611988Y-41941511D01*
X71737511Y-42013982D01*
X71737512Y-42013982D01*
X71737515Y-42013984D01*
X71877525Y-42051500D01*
X71877528Y-42051500D01*
X72022472Y-42051500D01*
X72022475Y-42051500D01*
X72162485Y-42013984D01*
X72288015Y-41941509D01*
X72390509Y-41839015D01*
X72462984Y-41713485D01*
X72500500Y-41573475D01*
X72500500Y-41497544D01*
X72520185Y-41430505D01*
X72536819Y-41409863D01*
X72658171Y-41288511D01*
X72780155Y-41166526D01*
X72841476Y-41133043D01*
X72911167Y-41138027D01*
X72967101Y-41179898D01*
X72991518Y-41245363D01*
X72987609Y-41286303D01*
X72987016Y-41288514D01*
X72987016Y-41288515D01*
X72949500Y-41428525D01*
X72949500Y-41573475D01*
X72975628Y-41670984D01*
X72987017Y-41713488D01*
X73059488Y-41839011D01*
X73059490Y-41839013D01*
X73059491Y-41839015D01*
X73161985Y-41941509D01*
X73161986Y-41941510D01*
X73161988Y-41941511D01*
X73287511Y-42013982D01*
X73287512Y-42013982D01*
X73287515Y-42013984D01*
X73427525Y-42051500D01*
X73427528Y-42051500D01*
X73572472Y-42051500D01*
X73572475Y-42051500D01*
X73712485Y-42013984D01*
X73838015Y-41941509D01*
X73891705Y-41887819D01*
X73918632Y-41873115D01*
X73944451Y-41856523D01*
X73950651Y-41855631D01*
X73953028Y-41854334D01*
X73979386Y-41851500D01*
X74104456Y-41851500D01*
X74171495Y-41871185D01*
X74192137Y-41887819D01*
X74234788Y-41930470D01*
X74234789Y-41930471D01*
X74234791Y-41930472D01*
X74272775Y-41952402D01*
X74314712Y-41976614D01*
X74403856Y-42000500D01*
X74496144Y-42000500D01*
X75250500Y-42000500D01*
X75317539Y-42020185D01*
X75363294Y-42072989D01*
X75374500Y-42124499D01*
X75374500Y-42263132D01*
X75374501Y-42263138D01*
X75380741Y-42310545D01*
X75380742Y-42310547D01*
X75380742Y-42310548D01*
X75429253Y-42414579D01*
X75510421Y-42495747D01*
X75614455Y-42544259D01*
X75661861Y-42550500D01*
X75888000Y-42550499D01*
X75955039Y-42570183D01*
X76000794Y-42622987D01*
X76012000Y-42674499D01*
X76012000Y-45375743D01*
X76032929Y-45453854D01*
X76035884Y-45464883D01*
X76035887Y-45464890D01*
X76082027Y-45544808D01*
X76082029Y-45544811D01*
X76082030Y-45544812D01*
X77917688Y-47380470D01*
X77985344Y-47419531D01*
X77997612Y-47426614D01*
X78086756Y-47450500D01*
X78086757Y-47450500D01*
X78086758Y-47450500D01*
X79435334Y-47450500D01*
X79502373Y-47470185D01*
X79548128Y-47522989D01*
X79558072Y-47592147D01*
X79555109Y-47606589D01*
X79549500Y-47627525D01*
X79549500Y-47772475D01*
X79586042Y-47908850D01*
X79587017Y-47912488D01*
X79659488Y-48038011D01*
X79659490Y-48038013D01*
X79659491Y-48038015D01*
X79761985Y-48140509D01*
X79761986Y-48140510D01*
X79761988Y-48140511D01*
X79887511Y-48212982D01*
X79887512Y-48212982D01*
X79887515Y-48212984D01*
X80027525Y-48250500D01*
X80027528Y-48250500D01*
X80172472Y-48250500D01*
X80172475Y-48250500D01*
X80312485Y-48212984D01*
X80438015Y-48140509D01*
X80540509Y-48038015D01*
X80612984Y-47912485D01*
X80650500Y-47772475D01*
X80650500Y-47627525D01*
X80612984Y-47487515D01*
X80603890Y-47471765D01*
X80597325Y-47444703D01*
X80587593Y-47418611D01*
X80589201Y-47411219D01*
X80587417Y-47403866D01*
X80596525Y-47377547D01*
X80602445Y-47350338D01*
X80608951Y-47341647D01*
X80610269Y-47337839D01*
X80623588Y-47322092D01*
X80668010Y-47277671D01*
X80729330Y-47244188D01*
X80799022Y-47249172D01*
X80810149Y-47253954D01*
X80903479Y-47299581D01*
X80903480Y-47299581D01*
X80903482Y-47299582D01*
X80978418Y-47310500D01*
X80978423Y-47310500D01*
X81421577Y-47310500D01*
X81421582Y-47310500D01*
X81496518Y-47299582D01*
X81541333Y-47277673D01*
X81612098Y-47243079D01*
X81616759Y-47239751D01*
X81682756Y-47216812D01*
X81750678Y-47233196D01*
X81759403Y-47239018D01*
X81761984Y-47240508D01*
X81761985Y-47240509D01*
X81788865Y-47256028D01*
X81887511Y-47312982D01*
X81887512Y-47312982D01*
X81887515Y-47312984D01*
X82027525Y-47350500D01*
X82027528Y-47350500D01*
X82172472Y-47350500D01*
X82172475Y-47350500D01*
X82312485Y-47312984D01*
X82438015Y-47240509D01*
X82438015Y-47240508D01*
X82445054Y-47236445D01*
X82446106Y-47238267D01*
X82500840Y-47217096D01*
X82569288Y-47231121D01*
X82583236Y-47239748D01*
X82587900Y-47243078D01*
X82698656Y-47297222D01*
X82703482Y-47299582D01*
X82778418Y-47310500D01*
X82973456Y-47310500D01*
X83040495Y-47330185D01*
X83046422Y-47334240D01*
X83054268Y-47339950D01*
X83094788Y-47380470D01*
X83162444Y-47419531D01*
X83174712Y-47426614D01*
X83263856Y-47450500D01*
X83420614Y-47450500D01*
X83487653Y-47470185D01*
X83508295Y-47486819D01*
X83561985Y-47540509D01*
X83561986Y-47540510D01*
X83561988Y-47540511D01*
X83687511Y-47612982D01*
X83687512Y-47612982D01*
X83687515Y-47612984D01*
X83827525Y-47650500D01*
X83827528Y-47650500D01*
X83972471Y-47650500D01*
X83972475Y-47650500D01*
X84073410Y-47623454D01*
X84143255Y-47625117D01*
X84201118Y-47664279D01*
X84228623Y-47728507D01*
X84229500Y-47743229D01*
X84229500Y-47981582D01*
X84240418Y-48056518D01*
X84240418Y-48056519D01*
X84240419Y-48056521D01*
X84296921Y-48172099D01*
X84296923Y-48172102D01*
X84302208Y-48177387D01*
X84335693Y-48238710D01*
X84330709Y-48308402D01*
X84321914Y-48327067D01*
X84287018Y-48387507D01*
X84287017Y-48387510D01*
X84284495Y-48396924D01*
X84249500Y-48527525D01*
X84249500Y-48672475D01*
X84287016Y-48812485D01*
X84287017Y-48812488D01*
X84359488Y-48938011D01*
X84359490Y-48938013D01*
X84359491Y-48938015D01*
X84461985Y-49040509D01*
X84461986Y-49040510D01*
X84461988Y-49040511D01*
X84587511Y-49112982D01*
X84587512Y-49112982D01*
X84587515Y-49112984D01*
X84727525Y-49150500D01*
X84727528Y-49150500D01*
X84872472Y-49150500D01*
X84872475Y-49150500D01*
X85012485Y-49112984D01*
X85138015Y-49040509D01*
X85240509Y-48938015D01*
X85312984Y-48812485D01*
X85350500Y-48672475D01*
X85350500Y-48527525D01*
X85312984Y-48387515D01*
X85312979Y-48387507D01*
X85294805Y-48356028D01*
X85278084Y-48327067D01*
X85261612Y-48259169D01*
X85281772Y-48197081D01*
X85288768Y-48186409D01*
X85303076Y-48172102D01*
X85317522Y-48142551D01*
X85321800Y-48136027D01*
X85342708Y-48118240D01*
X85361227Y-48097972D01*
X85368940Y-48095925D01*
X85375019Y-48090755D01*
X85402227Y-48087095D01*
X85428761Y-48080057D01*
X85436355Y-48082505D01*
X85444265Y-48081442D01*
X85469131Y-48093072D01*
X85495259Y-48101497D01*
X85500324Y-48107663D01*
X85507554Y-48111045D01*
X85522185Y-48134274D01*
X85539610Y-48155486D01*
X85541554Y-48165026D01*
X85544791Y-48170165D01*
X85544697Y-48180447D01*
X85549500Y-48204014D01*
X85549500Y-48218097D01*
X85585874Y-48447759D01*
X85585877Y-48447771D01*
X85586447Y-48451368D01*
X85588696Y-48458292D01*
X85588700Y-48458304D01*
X85659433Y-48675996D01*
X85763669Y-48880568D01*
X85766657Y-48886433D01*
X85905483Y-49077510D01*
X86072490Y-49244517D01*
X86107819Y-49270185D01*
X86114697Y-49275182D01*
X86157362Y-49330513D01*
X86163341Y-49400126D01*
X86130735Y-49461921D01*
X86069896Y-49496278D01*
X86041811Y-49499500D01*
X66878386Y-49499500D01*
X66811347Y-49479815D01*
X66765592Y-49427011D01*
X66755648Y-49357853D01*
X66784673Y-49294297D01*
X66790705Y-49287819D01*
X66810073Y-49268451D01*
X66840509Y-49238015D01*
X66912984Y-49112485D01*
X66950500Y-48972475D01*
X66950500Y-48827525D01*
X66912984Y-48687515D01*
X66906333Y-48675996D01*
X66840511Y-48561988D01*
X66840506Y-48561982D01*
X66738017Y-48459493D01*
X66738011Y-48459488D01*
X66612488Y-48387017D01*
X66612489Y-48387017D01*
X66573362Y-48376533D01*
X66472475Y-48349500D01*
X66327525Y-48349500D01*
X66226638Y-48376533D01*
X66187511Y-48387017D01*
X66061988Y-48459488D01*
X66061982Y-48459493D01*
X66008295Y-48513181D01*
X65946972Y-48546666D01*
X65920614Y-48549500D01*
X65260596Y-48549500D01*
X65193557Y-48529815D01*
X65171275Y-48511510D01*
X65157755Y-48497470D01*
X65153076Y-48487898D01*
X65062102Y-48396924D01*
X65059901Y-48395848D01*
X65050428Y-48386010D01*
X65039353Y-48364784D01*
X65024574Y-48345943D01*
X65023483Y-48334369D01*
X65018107Y-48324065D01*
X65020265Y-48300220D01*
X65018019Y-48276381D01*
X65023358Y-48266056D01*
X65024406Y-48254480D01*
X65039115Y-48235584D01*
X65050113Y-48214318D01*
X65055716Y-48209462D01*
X65153074Y-48112105D01*
X65159044Y-48103743D01*
X65162091Y-48105918D01*
X65196350Y-48068441D01*
X65260596Y-48050500D01*
X66246142Y-48050500D01*
X66246144Y-48050500D01*
X66335288Y-48026614D01*
X66345912Y-48020480D01*
X66415212Y-47980470D01*
X66535361Y-47860321D01*
X67924500Y-47860321D01*
X67924500Y-48759678D01*
X67939032Y-48832735D01*
X67939033Y-48832739D01*
X67940338Y-48834692D01*
X67994399Y-48915601D01*
X68060161Y-48959541D01*
X68077260Y-48970966D01*
X68077264Y-48970967D01*
X68150321Y-48985499D01*
X68150324Y-48985500D01*
X68150326Y-48985500D01*
X69049676Y-48985500D01*
X69049677Y-48985499D01*
X69122740Y-48970966D01*
X69205601Y-48915601D01*
X69260966Y-48832740D01*
X69275500Y-48759674D01*
X69275500Y-48376533D01*
X69924499Y-48376533D01*
X69950458Y-48507030D01*
X69950461Y-48507040D01*
X70001376Y-48629961D01*
X70001386Y-48629979D01*
X70075301Y-48740601D01*
X70075307Y-48740609D01*
X70169390Y-48834692D01*
X70169398Y-48834698D01*
X70280020Y-48908613D01*
X70280023Y-48908614D01*
X70280031Y-48908620D01*
X70280037Y-48908622D01*
X70280038Y-48908623D01*
X70351002Y-48938017D01*
X70402964Y-48959540D01*
X70402968Y-48959540D01*
X70402969Y-48959541D01*
X70533466Y-48985500D01*
X70533469Y-48985500D01*
X70666533Y-48985500D01*
X70754325Y-48968035D01*
X70797036Y-48959540D01*
X70919969Y-48908620D01*
X70961952Y-48880568D01*
X71031110Y-48834359D01*
X71097787Y-48813481D01*
X71165167Y-48831966D01*
X71168890Y-48834359D01*
X71280020Y-48908613D01*
X71280023Y-48908614D01*
X71280031Y-48908620D01*
X71280037Y-48908622D01*
X71280038Y-48908623D01*
X71351002Y-48938017D01*
X71402964Y-48959540D01*
X71402968Y-48959540D01*
X71402969Y-48959541D01*
X71533466Y-48985500D01*
X71533469Y-48985500D01*
X71666533Y-48985500D01*
X71754325Y-48968035D01*
X71797036Y-48959540D01*
X71919969Y-48908620D01*
X71961952Y-48880568D01*
X72031110Y-48834359D01*
X72097787Y-48813481D01*
X72165167Y-48831966D01*
X72168890Y-48834359D01*
X72280020Y-48908613D01*
X72280023Y-48908614D01*
X72280031Y-48908620D01*
X72280037Y-48908622D01*
X72280038Y-48908623D01*
X72351002Y-48938017D01*
X72402964Y-48959540D01*
X72402968Y-48959540D01*
X72402969Y-48959541D01*
X72533466Y-48985500D01*
X72533469Y-48985500D01*
X72666533Y-48985500D01*
X72754325Y-48968035D01*
X72797036Y-48959540D01*
X72919969Y-48908620D01*
X73030606Y-48834695D01*
X73124695Y-48740606D01*
X73198620Y-48629969D01*
X73249540Y-48507036D01*
X73259234Y-48458304D01*
X73275500Y-48376533D01*
X73275500Y-48243466D01*
X73249541Y-48112969D01*
X73249540Y-48112968D01*
X73249540Y-48112964D01*
X73247344Y-48107663D01*
X73198623Y-47990038D01*
X73198622Y-47990037D01*
X73198620Y-47990031D01*
X73193192Y-47981908D01*
X73124698Y-47879398D01*
X73124692Y-47879390D01*
X73030609Y-47785307D01*
X73030601Y-47785301D01*
X72919979Y-47711386D01*
X72919972Y-47711382D01*
X72919969Y-47711380D01*
X72919965Y-47711378D01*
X72919961Y-47711376D01*
X72797040Y-47660461D01*
X72797030Y-47660458D01*
X72666533Y-47634500D01*
X72666531Y-47634500D01*
X72533469Y-47634500D01*
X72533467Y-47634500D01*
X72402969Y-47660458D01*
X72402959Y-47660461D01*
X72280038Y-47711376D01*
X72280027Y-47711382D01*
X72168890Y-47785641D01*
X72102212Y-47806518D01*
X72034832Y-47788033D01*
X72031110Y-47785641D01*
X71919972Y-47711382D01*
X71919971Y-47711381D01*
X71919969Y-47711380D01*
X71919966Y-47711378D01*
X71919961Y-47711376D01*
X71797040Y-47660461D01*
X71797030Y-47660458D01*
X71666533Y-47634500D01*
X71666531Y-47634500D01*
X71533469Y-47634500D01*
X71533467Y-47634500D01*
X71402969Y-47660458D01*
X71402959Y-47660461D01*
X71280038Y-47711376D01*
X71280027Y-47711382D01*
X71168890Y-47785641D01*
X71102212Y-47806518D01*
X71034832Y-47788033D01*
X71031110Y-47785641D01*
X70919972Y-47711382D01*
X70919971Y-47711381D01*
X70919969Y-47711380D01*
X70919966Y-47711378D01*
X70919961Y-47711376D01*
X70797040Y-47660461D01*
X70797030Y-47660458D01*
X70666533Y-47634500D01*
X70666531Y-47634500D01*
X70533469Y-47634500D01*
X70533467Y-47634500D01*
X70402969Y-47660458D01*
X70402959Y-47660461D01*
X70280038Y-47711376D01*
X70280020Y-47711386D01*
X70169398Y-47785301D01*
X70169390Y-47785307D01*
X70075307Y-47879390D01*
X70075301Y-47879398D01*
X70001386Y-47990020D01*
X70001376Y-47990038D01*
X69950461Y-48112959D01*
X69950458Y-48112969D01*
X69924500Y-48243466D01*
X69924500Y-48243469D01*
X69924500Y-48376531D01*
X69924500Y-48376533D01*
X69924499Y-48376533D01*
X69275500Y-48376533D01*
X69275500Y-47860326D01*
X69275500Y-47860323D01*
X69275499Y-47860321D01*
X69260967Y-47787264D01*
X69260966Y-47787260D01*
X69235155Y-47748631D01*
X69205601Y-47704399D01*
X69139838Y-47660458D01*
X69122739Y-47649033D01*
X69122735Y-47649032D01*
X69049677Y-47634500D01*
X69049674Y-47634500D01*
X68150326Y-47634500D01*
X68150323Y-47634500D01*
X68077264Y-47649032D01*
X68077260Y-47649033D01*
X67994399Y-47704399D01*
X67939033Y-47787260D01*
X67939032Y-47787264D01*
X67924500Y-47860321D01*
X66535361Y-47860321D01*
X69387819Y-45007863D01*
X69449142Y-44974378D01*
X69518834Y-44979362D01*
X69574767Y-45021234D01*
X69599184Y-45086698D01*
X69599500Y-45095544D01*
X69599500Y-45596143D01*
X69621996Y-45680101D01*
X69621996Y-45680102D01*
X69623385Y-45685286D01*
X69623386Y-45685288D01*
X69624672Y-45687515D01*
X69669527Y-45765208D01*
X69669529Y-45765211D01*
X69669530Y-45765212D01*
X70884788Y-46980470D01*
X70954085Y-47020478D01*
X70954087Y-47020480D01*
X70961342Y-47024668D01*
X70964712Y-47026614D01*
X71053856Y-47050500D01*
X71053857Y-47050500D01*
X71146144Y-47050500D01*
X72320614Y-47050500D01*
X72387653Y-47070185D01*
X72408295Y-47086819D01*
X72461985Y-47140509D01*
X72461986Y-47140510D01*
X72461988Y-47140511D01*
X72587511Y-47212982D01*
X72587512Y-47212982D01*
X72587515Y-47212984D01*
X72727525Y-47250500D01*
X72727528Y-47250500D01*
X72872472Y-47250500D01*
X72872475Y-47250500D01*
X73012485Y-47212984D01*
X73138015Y-47140509D01*
X73240509Y-47038015D01*
X73310802Y-46916263D01*
X73361367Y-46868049D01*
X73429356Y-46854768D01*
X73439975Y-46855728D01*
X73511021Y-46874765D01*
X73650474Y-46874765D01*
X73656047Y-46875269D01*
X73683551Y-46886120D01*
X73711918Y-46894450D01*
X73718877Y-46900057D01*
X73721042Y-46900912D01*
X73722567Y-46903031D01*
X73732560Y-46911084D01*
X73786250Y-46964774D01*
X73786251Y-46964775D01*
X73786253Y-46964776D01*
X73911776Y-47037247D01*
X73911777Y-47037247D01*
X73911780Y-47037249D01*
X74051790Y-47074765D01*
X74051793Y-47074765D01*
X74196737Y-47074765D01*
X74196740Y-47074765D01*
X74336750Y-47037249D01*
X74462280Y-46964774D01*
X74564774Y-46862280D01*
X74637249Y-46736750D01*
X74674765Y-46596740D01*
X74674765Y-46451790D01*
X74674765Y-46447191D01*
X74694450Y-46380152D01*
X74747254Y-46334397D01*
X74816412Y-46324453D01*
X74860766Y-46339804D01*
X74861982Y-46340506D01*
X74861985Y-46340509D01*
X74987515Y-46412984D01*
X75127525Y-46450500D01*
X75127528Y-46450500D01*
X75272472Y-46450500D01*
X75272475Y-46450500D01*
X75412485Y-46412984D01*
X75538015Y-46340509D01*
X75640509Y-46238015D01*
X75712984Y-46112485D01*
X75750500Y-45972475D01*
X75750500Y-45827525D01*
X75712984Y-45687515D01*
X75711698Y-45685288D01*
X75640511Y-45561988D01*
X75640506Y-45561982D01*
X75633667Y-45555143D01*
X75600182Y-45493820D01*
X75605166Y-45424128D01*
X75610858Y-45411177D01*
X75646017Y-45342175D01*
X75646282Y-45340506D01*
X75649901Y-45317650D01*
X75660500Y-45250735D01*
X75660499Y-44849266D01*
X75660499Y-44849265D01*
X75660499Y-44849260D01*
X75646018Y-44757829D01*
X75646018Y-44757828D01*
X75646017Y-44757826D01*
X75646017Y-44757825D01*
X75589859Y-44647609D01*
X75589857Y-44647607D01*
X75589854Y-44647603D01*
X75502396Y-44560145D01*
X75502393Y-44560143D01*
X75502391Y-44560141D01*
X75392175Y-44503983D01*
X75392174Y-44503982D01*
X75387266Y-44501482D01*
X75336470Y-44453507D01*
X75319675Y-44385686D01*
X75331178Y-44338597D01*
X75344259Y-44310545D01*
X75350500Y-44263139D01*
X75350499Y-42861862D01*
X75344259Y-42814455D01*
X75295747Y-42710421D01*
X75214579Y-42629253D01*
X75110545Y-42580741D01*
X75110543Y-42580740D01*
X75110544Y-42580740D01*
X75063140Y-42574500D01*
X74836867Y-42574500D01*
X74821839Y-42576478D01*
X74789455Y-42580741D01*
X74789453Y-42580742D01*
X74789451Y-42580742D01*
X74685420Y-42629253D01*
X74604253Y-42710420D01*
X74562382Y-42800213D01*
X74516209Y-42852652D01*
X74449016Y-42871804D01*
X74382135Y-42851588D01*
X74337618Y-42800213D01*
X74327319Y-42778128D01*
X74295747Y-42710421D01*
X74214579Y-42629253D01*
X74110545Y-42580741D01*
X74110543Y-42580740D01*
X74110544Y-42580740D01*
X74063140Y-42574500D01*
X73836868Y-42574500D01*
X73826341Y-42575885D01*
X73789455Y-42580741D01*
X73789453Y-42580742D01*
X73789451Y-42580742D01*
X73752403Y-42598018D01*
X73683325Y-42608509D01*
X73647596Y-42598018D01*
X73610545Y-42580741D01*
X73610541Y-42580740D01*
X73563140Y-42574500D01*
X73336868Y-42574500D01*
X73326341Y-42575885D01*
X73289455Y-42580741D01*
X73289453Y-42580742D01*
X73289451Y-42580742D01*
X73252403Y-42598018D01*
X73183325Y-42608509D01*
X73147596Y-42598018D01*
X73110545Y-42580741D01*
X73110541Y-42580740D01*
X73063140Y-42574500D01*
X72836868Y-42574500D01*
X72826341Y-42575885D01*
X72789455Y-42580741D01*
X72789453Y-42580742D01*
X72789451Y-42580742D01*
X72752403Y-42598018D01*
X72683325Y-42608509D01*
X72647596Y-42598018D01*
X72610545Y-42580741D01*
X72610541Y-42580740D01*
X72563140Y-42574500D01*
X72336868Y-42574500D01*
X72326341Y-42575885D01*
X72289455Y-42580741D01*
X72289453Y-42580742D01*
X72289451Y-42580742D01*
X72252403Y-42598018D01*
X72183325Y-42608509D01*
X72147596Y-42598018D01*
X72110545Y-42580741D01*
X72110541Y-42580740D01*
X72063140Y-42574500D01*
X71836868Y-42574500D01*
X71826341Y-42575885D01*
X71789455Y-42580741D01*
X71789453Y-42580742D01*
X71789451Y-42580742D01*
X71752403Y-42598018D01*
X71683325Y-42608509D01*
X71647596Y-42598018D01*
X71610545Y-42580741D01*
X71610541Y-42580740D01*
X71563140Y-42574500D01*
X71336868Y-42574500D01*
X71326341Y-42575885D01*
X71289455Y-42580741D01*
X71289453Y-42580742D01*
X71289451Y-42580742D01*
X71252403Y-42598018D01*
X71183325Y-42608509D01*
X71147596Y-42598018D01*
X71110545Y-42580741D01*
X71110541Y-42580740D01*
X71063140Y-42574500D01*
X70914577Y-42574500D01*
X70847538Y-42554815D01*
X70801783Y-42502011D01*
X70794804Y-42482599D01*
X70776614Y-42414712D01*
X70759337Y-42384788D01*
X70759336Y-42384786D01*
X70759336Y-42384785D01*
X70730472Y-42334791D01*
X70730468Y-42334786D01*
X70083721Y-41688039D01*
X70050236Y-41626716D01*
X70051336Y-41580783D01*
X70049439Y-41580534D01*
X70050500Y-41572475D01*
X70050500Y-41427527D01*
X70050500Y-41427525D01*
X70012984Y-41287515D01*
X70012284Y-41286303D01*
X69940511Y-41161988D01*
X69940506Y-41161982D01*
X69838017Y-41059493D01*
X69838011Y-41059488D01*
X69712488Y-40987017D01*
X69712489Y-40987017D01*
X69699714Y-40983594D01*
X69572475Y-40949500D01*
X69427525Y-40949500D01*
X69300286Y-40983594D01*
X69287511Y-40987017D01*
X69192457Y-41041897D01*
X69178421Y-41045302D01*
X69166335Y-41053206D01*
X69145148Y-41053374D01*
X69124557Y-41058370D01*
X69110909Y-41053646D01*
X69096468Y-41053761D01*
X69078552Y-41042446D01*
X69058530Y-41035517D01*
X69048502Y-41023470D01*
X69037392Y-41016454D01*
X69018075Y-40986915D01*
X69001982Y-40952404D01*
X68991490Y-40883327D01*
X69001980Y-40847599D01*
X69019259Y-40810545D01*
X69025500Y-40763139D01*
X69025499Y-40536862D01*
X69019259Y-40489455D01*
X68970747Y-40385421D01*
X68889579Y-40304253D01*
X68799785Y-40262381D01*
X68747347Y-40216210D01*
X68728195Y-40149016D01*
X68748411Y-40082135D01*
X68799785Y-40037618D01*
X68889579Y-39995747D01*
X68970747Y-39914579D01*
X69019259Y-39810545D01*
X69025500Y-39763139D01*
X69025499Y-39536862D01*
X69019259Y-39489455D01*
X69008368Y-39466099D01*
X69001982Y-39452404D01*
X68991490Y-39383326D01*
X69001980Y-39347599D01*
X69019259Y-39310545D01*
X69025500Y-39263139D01*
X69025499Y-39036862D01*
X69019259Y-38989455D01*
X69010418Y-38970495D01*
X69001982Y-38952404D01*
X68991490Y-38883326D01*
X69001980Y-38847599D01*
X69019259Y-38810545D01*
X69025500Y-38763139D01*
X69025499Y-38536862D01*
X69019259Y-38489455D01*
X69002493Y-38453500D01*
X69001982Y-38452404D01*
X68991490Y-38383326D01*
X69001980Y-38347599D01*
X69019259Y-38310545D01*
X69025500Y-38263139D01*
X69025499Y-38036862D01*
X69019259Y-37989455D01*
X69005757Y-37960500D01*
X69001982Y-37952404D01*
X68991490Y-37883326D01*
X69001980Y-37847599D01*
X69019259Y-37810545D01*
X69025500Y-37763139D01*
X69025499Y-37536862D01*
X69019259Y-37489455D01*
X69001982Y-37452404D01*
X68991490Y-37383326D01*
X69001980Y-37347599D01*
X69019259Y-37310545D01*
X69025500Y-37263139D01*
X69025499Y-37082724D01*
X69045183Y-37015685D01*
X69087500Y-36975336D01*
X69110297Y-36962175D01*
X69165212Y-36930470D01*
X69730470Y-36365212D01*
X69776614Y-36285288D01*
X69800500Y-36196144D01*
X69800500Y-36106876D01*
X69812117Y-36054473D01*
X69837618Y-35999784D01*
X69883788Y-35947348D01*
X69950981Y-35928195D01*
X70017862Y-35948410D01*
G37*
%TD.AperFunction*%
%TA.AperFunction,Conductor*%
G36*
X56702292Y-31120185D02*
G01*
X56748047Y-31172989D01*
X56757991Y-31242147D01*
X56728966Y-31305703D01*
X56673571Y-31342430D01*
X56590572Y-31369399D01*
X56557552Y-31380128D01*
X56403211Y-31458768D01*
X56323256Y-31516859D01*
X56263072Y-31560586D01*
X56263070Y-31560588D01*
X56263069Y-31560588D01*
X56140588Y-31683069D01*
X56140588Y-31683070D01*
X56140586Y-31683072D01*
X56107674Y-31728372D01*
X56038768Y-31823211D01*
X55960128Y-31977552D01*
X55906597Y-32142302D01*
X55887641Y-32261988D01*
X55879500Y-32313389D01*
X55879500Y-32486611D01*
X55906598Y-32657701D01*
X55960127Y-32822445D01*
X56038768Y-32976788D01*
X56140586Y-33116928D01*
X56263072Y-33239414D01*
X56403212Y-33341232D01*
X56557555Y-33419873D01*
X56722299Y-33473402D01*
X56893389Y-33500500D01*
X56893390Y-33500500D01*
X57066610Y-33500500D01*
X57066611Y-33500500D01*
X57237701Y-33473402D01*
X57402445Y-33419873D01*
X57556788Y-33341232D01*
X57696928Y-33239414D01*
X57819414Y-33116928D01*
X57921232Y-32976788D01*
X57999873Y-32822445D01*
X58053402Y-32657701D01*
X58080500Y-32486611D01*
X58080500Y-32313389D01*
X58053402Y-32142299D01*
X57999873Y-31977555D01*
X57921232Y-31823212D01*
X57819414Y-31683072D01*
X57696928Y-31560586D01*
X57556788Y-31458768D01*
X57402445Y-31380127D01*
X57286428Y-31342430D01*
X57228753Y-31302993D01*
X57201555Y-31238635D01*
X57213470Y-31169788D01*
X57260714Y-31118313D01*
X57324747Y-31100500D01*
X61715253Y-31100500D01*
X61782292Y-31120185D01*
X61828047Y-31172989D01*
X61837991Y-31242147D01*
X61808966Y-31305703D01*
X61753571Y-31342430D01*
X61670572Y-31369399D01*
X61637552Y-31380128D01*
X61483211Y-31458768D01*
X61403256Y-31516859D01*
X61343072Y-31560586D01*
X61343070Y-31560588D01*
X61343069Y-31560588D01*
X61220588Y-31683069D01*
X61220588Y-31683070D01*
X61220586Y-31683072D01*
X61187674Y-31728372D01*
X61118768Y-31823211D01*
X61040128Y-31977552D01*
X60986597Y-32142302D01*
X60967641Y-32261988D01*
X60959500Y-32313389D01*
X60959500Y-32486611D01*
X60986598Y-32657701D01*
X61040127Y-32822445D01*
X61118768Y-32976788D01*
X61220586Y-33116928D01*
X61343072Y-33239414D01*
X61483212Y-33341232D01*
X61637555Y-33419873D01*
X61802299Y-33473402D01*
X61973389Y-33500500D01*
X61973390Y-33500500D01*
X62146610Y-33500500D01*
X62146611Y-33500500D01*
X62317701Y-33473402D01*
X62482445Y-33419873D01*
X62636788Y-33341232D01*
X62776928Y-33239414D01*
X62899414Y-33116928D01*
X63001232Y-32976788D01*
X63079873Y-32822445D01*
X63133402Y-32657701D01*
X63160500Y-32486611D01*
X63160500Y-32313389D01*
X63133402Y-32142299D01*
X63079873Y-31977555D01*
X63001232Y-31823212D01*
X62899414Y-31683072D01*
X62776928Y-31560586D01*
X62636788Y-31458768D01*
X62482445Y-31380127D01*
X62366428Y-31342430D01*
X62308753Y-31302993D01*
X62281555Y-31238635D01*
X62293470Y-31169788D01*
X62340714Y-31118313D01*
X62404747Y-31100500D01*
X63563063Y-31100500D01*
X63630102Y-31120185D01*
X63675857Y-31172989D01*
X63685801Y-31242147D01*
X63656776Y-31305703D01*
X63631955Y-31327600D01*
X63569399Y-31369399D01*
X63514033Y-31452260D01*
X63514032Y-31452264D01*
X63499500Y-31525321D01*
X63499500Y-33274678D01*
X63514032Y-33347735D01*
X63514033Y-33347739D01*
X63514034Y-33347740D01*
X63569399Y-33430601D01*
X63652260Y-33485966D01*
X63652264Y-33485967D01*
X63725321Y-33500499D01*
X63725324Y-33500500D01*
X63725326Y-33500500D01*
X65474676Y-33500500D01*
X65474677Y-33500499D01*
X65547740Y-33485966D01*
X65630601Y-33430601D01*
X65685966Y-33347740D01*
X65700500Y-33274674D01*
X65700500Y-31525326D01*
X65700500Y-31525323D01*
X65700499Y-31525321D01*
X65685967Y-31452264D01*
X65685966Y-31452260D01*
X65630601Y-31369399D01*
X65568045Y-31327601D01*
X65523241Y-31273991D01*
X65514534Y-31204666D01*
X65544688Y-31141638D01*
X65604131Y-31104918D01*
X65636937Y-31100500D01*
X86179449Y-31100500D01*
X86246488Y-31120185D01*
X86292243Y-31172989D01*
X86302187Y-31242147D01*
X86273162Y-31305703D01*
X86252337Y-31324815D01*
X86072490Y-31455483D01*
X86072488Y-31455485D01*
X86072487Y-31455485D01*
X85905485Y-31622487D01*
X85905485Y-31622488D01*
X85905483Y-31622490D01*
X85845862Y-31704550D01*
X85766657Y-31813566D01*
X85659433Y-32024003D01*
X85586446Y-32248631D01*
X85549500Y-32481902D01*
X85549500Y-32718097D01*
X85586446Y-32951368D01*
X85659433Y-33175996D01*
X85743625Y-33341231D01*
X85766657Y-33386433D01*
X85905483Y-33577510D01*
X86072490Y-33744517D01*
X86263567Y-33883343D01*
X86297701Y-33900735D01*
X86474003Y-33990566D01*
X86474005Y-33990566D01*
X86474008Y-33990568D01*
X86594412Y-34029689D01*
X86698631Y-34063553D01*
X86931903Y-34100500D01*
X86931908Y-34100500D01*
X87168097Y-34100500D01*
X87401368Y-34063553D01*
X87413863Y-34059493D01*
X87625992Y-33990568D01*
X87628487Y-33989297D01*
X87633719Y-33986630D01*
X87836433Y-33883343D01*
X88027510Y-33744517D01*
X88187819Y-33584208D01*
X88249142Y-33550723D01*
X88318834Y-33555707D01*
X88374767Y-33597579D01*
X88399184Y-33663043D01*
X88399500Y-33671889D01*
X88399500Y-47028111D01*
X88379815Y-47095150D01*
X88327011Y-47140905D01*
X88257853Y-47150849D01*
X88194297Y-47121824D01*
X88187819Y-47115792D01*
X88027512Y-46955485D01*
X88027510Y-46955483D01*
X87836433Y-46816657D01*
X87796908Y-46796518D01*
X87625996Y-46709433D01*
X87401369Y-46636447D01*
X87340191Y-46626757D01*
X87277057Y-46596827D01*
X87240126Y-46537515D01*
X87241124Y-46467653D01*
X87279734Y-46409420D01*
X87331821Y-46383814D01*
X87331768Y-46383619D01*
X87332790Y-46383338D01*
X87333242Y-46383116D01*
X87334967Y-46382741D01*
X87369300Y-46371313D01*
X87437497Y-46348616D01*
X87437501Y-46348613D01*
X87437504Y-46348613D01*
X87558543Y-46270825D01*
X87611347Y-46225070D01*
X87705567Y-46116336D01*
X87765338Y-45985459D01*
X87785023Y-45918420D01*
X87785024Y-45918416D01*
X87805500Y-45776000D01*
X87805500Y-43524000D01*
X87793947Y-43416544D01*
X87782741Y-43365033D01*
X87778226Y-43351468D01*
X87748616Y-43262502D01*
X87748613Y-43262496D01*
X87707530Y-43198571D01*
X87670825Y-43141457D01*
X87669296Y-43139692D01*
X87625076Y-43088659D01*
X87625072Y-43088656D01*
X87625070Y-43088653D01*
X87516336Y-42994433D01*
X87516333Y-42994431D01*
X87516331Y-42994430D01*
X87385465Y-42934664D01*
X87385460Y-42934662D01*
X87385459Y-42934662D01*
X87318420Y-42914977D01*
X87318422Y-42914977D01*
X87318417Y-42914976D01*
X87251026Y-42905287D01*
X87176000Y-42894500D01*
X84824000Y-42894500D01*
X84823991Y-42894500D01*
X84823990Y-42894501D01*
X84716549Y-42906052D01*
X84716537Y-42906054D01*
X84665027Y-42917260D01*
X84562502Y-42951383D01*
X84562496Y-42951386D01*
X84441462Y-43029171D01*
X84441451Y-43029179D01*
X84388659Y-43074923D01*
X84294433Y-43183664D01*
X84294430Y-43183668D01*
X84234664Y-43314534D01*
X84214975Y-43381584D01*
X84214031Y-43388153D01*
X84185003Y-43451707D01*
X84126223Y-43489479D01*
X84091294Y-43494500D01*
X84072124Y-43494500D01*
X83938396Y-43512512D01*
X83938390Y-43512513D01*
X83875131Y-43529869D01*
X83875113Y-43529875D01*
X83750919Y-43582621D01*
X83638888Y-43672902D01*
X83638888Y-43672903D01*
X83591773Y-43723507D01*
X83591770Y-43723510D01*
X83591278Y-43724040D01*
X83591276Y-43724043D01*
X83509219Y-43842230D01*
X83497129Y-43878553D01*
X83489772Y-43890607D01*
X83473936Y-43904983D01*
X83461739Y-43922552D01*
X83448584Y-43928000D01*
X83438042Y-43937572D01*
X83416949Y-43941104D01*
X83397188Y-43949290D01*
X83383933Y-43950000D01*
X82975326Y-43950000D01*
X82924190Y-43960171D01*
X82875810Y-43960171D01*
X82824674Y-43950000D01*
X82325326Y-43950000D01*
X82274190Y-43960171D01*
X82225810Y-43960171D01*
X82174674Y-43950000D01*
X81675326Y-43950000D01*
X81624190Y-43960171D01*
X81575810Y-43960171D01*
X81524674Y-43950000D01*
X81025326Y-43950000D01*
X80974190Y-43960171D01*
X80925810Y-43960171D01*
X80874674Y-43950000D01*
X80375326Y-43950000D01*
X80324190Y-43960171D01*
X80275810Y-43960171D01*
X80224674Y-43950000D01*
X79725326Y-43950000D01*
X79674190Y-43960171D01*
X79625810Y-43960171D01*
X79574674Y-43950000D01*
X79075326Y-43950000D01*
X79075323Y-43950000D01*
X79002264Y-43964532D01*
X79002259Y-43964534D01*
X78993926Y-43970102D01*
X78963625Y-43979587D01*
X78933886Y-43990680D01*
X78930526Y-43989949D01*
X78927247Y-43990976D01*
X78896635Y-43982576D01*
X78865613Y-43975828D01*
X78861893Y-43973043D01*
X78859868Y-43972488D01*
X78837359Y-43954677D01*
X78786819Y-43904137D01*
X78753334Y-43842814D01*
X78750500Y-43816456D01*
X78750500Y-40099233D01*
X78770185Y-40032194D01*
X78822989Y-39986439D01*
X78892147Y-39976495D01*
X78943388Y-39996130D01*
X79002260Y-40035466D01*
X79002262Y-40035466D01*
X79002264Y-40035467D01*
X79069087Y-40048759D01*
X79074677Y-40049871D01*
X79075321Y-40049999D01*
X79075324Y-40050000D01*
X79075326Y-40050000D01*
X79574676Y-40050000D01*
X79574677Y-40049999D01*
X79647740Y-40035466D01*
X79730601Y-39980101D01*
X79785966Y-39897240D01*
X79800500Y-39824174D01*
X79800500Y-38299826D01*
X79800500Y-38299823D01*
X79800499Y-38299821D01*
X79785967Y-38226764D01*
X79785966Y-38226760D01*
X79769164Y-38201614D01*
X79730601Y-38143899D01*
X79724993Y-38140152D01*
X79705609Y-38127200D01*
X79700518Y-38121108D01*
X79693297Y-38117811D01*
X79678433Y-38094683D01*
X79660804Y-38073588D01*
X79658852Y-38064213D01*
X79655523Y-38059033D01*
X79650500Y-38024098D01*
X79650500Y-37979386D01*
X79670185Y-37912347D01*
X79686818Y-37891706D01*
X79705318Y-37873206D01*
X79730456Y-37848067D01*
X79791777Y-37814583D01*
X79861468Y-37819567D01*
X79905817Y-37848068D01*
X79947603Y-37889854D01*
X79947605Y-37889855D01*
X79947609Y-37889859D01*
X80057825Y-37946017D01*
X80057826Y-37946017D01*
X80057828Y-37946018D01*
X80132179Y-37957794D01*
X80195314Y-37987723D01*
X80232246Y-38047034D01*
X80231248Y-38116897D01*
X80215885Y-38149156D01*
X80164035Y-38226757D01*
X80164032Y-38226764D01*
X80149500Y-38299821D01*
X80149500Y-39824178D01*
X80164032Y-39897235D01*
X80164033Y-39897239D01*
X80171800Y-39908863D01*
X80219399Y-39980101D01*
X80290375Y-40027525D01*
X80302260Y-40035466D01*
X80302264Y-40035467D01*
X80369087Y-40048759D01*
X80374677Y-40049871D01*
X80375321Y-40049999D01*
X80375324Y-40050000D01*
X80375326Y-40050000D01*
X80874674Y-40050000D01*
X80925811Y-40039828D01*
X80974189Y-40039828D01*
X81025326Y-40050000D01*
X81524674Y-40050000D01*
X81575811Y-40039828D01*
X81624189Y-40039828D01*
X81675326Y-40050000D01*
X82174674Y-40050000D01*
X82225811Y-40039828D01*
X82274189Y-40039828D01*
X82325326Y-40050000D01*
X82824674Y-40050000D01*
X82875811Y-40039828D01*
X82924189Y-40039828D01*
X82975326Y-40050000D01*
X83474676Y-40050000D01*
X83474677Y-40049999D01*
X83547740Y-40035466D01*
X83630601Y-39980101D01*
X83685966Y-39897240D01*
X83700500Y-39824174D01*
X83700500Y-39237518D01*
X83704725Y-39205425D01*
X83725500Y-39127892D01*
X83725500Y-38453500D01*
X83728050Y-38444814D01*
X83726762Y-38435853D01*
X83737740Y-38411812D01*
X83745185Y-38386461D01*
X83752025Y-38380533D01*
X83755787Y-38372297D01*
X83778021Y-38358007D01*
X83797989Y-38340706D01*
X83808503Y-38338418D01*
X83814565Y-38334523D01*
X83849500Y-38329500D01*
X83970999Y-38329500D01*
X84038038Y-38349185D01*
X84083793Y-38401989D01*
X84094999Y-38453500D01*
X84094999Y-39773055D01*
X84083793Y-39824568D01*
X84034663Y-39932143D01*
X84014976Y-39999188D01*
X84002813Y-40083789D01*
X83994500Y-40141606D01*
X83994500Y-40676000D01*
X83994501Y-40676009D01*
X84006052Y-40783450D01*
X84006054Y-40783462D01*
X84017260Y-40834972D01*
X84051383Y-40937497D01*
X84051386Y-40937503D01*
X84129171Y-41058537D01*
X84129179Y-41058548D01*
X84174923Y-41111340D01*
X84174926Y-41111343D01*
X84174930Y-41111347D01*
X84283664Y-41205567D01*
X84283667Y-41205568D01*
X84283668Y-41205569D01*
X84409723Y-41263138D01*
X84414541Y-41265338D01*
X84481580Y-41285023D01*
X84481584Y-41285024D01*
X84624000Y-41305500D01*
X84624003Y-41305500D01*
X87075990Y-41305500D01*
X87076000Y-41305500D01*
X87183456Y-41293947D01*
X87234967Y-41282741D01*
X87269197Y-41271347D01*
X87337497Y-41248616D01*
X87337501Y-41248613D01*
X87337504Y-41248613D01*
X87458543Y-41170825D01*
X87511347Y-41125070D01*
X87605567Y-41016336D01*
X87665338Y-40885459D01*
X87685023Y-40818420D01*
X87685024Y-40818416D01*
X87705500Y-40676000D01*
X87705500Y-37124000D01*
X87693947Y-37016544D01*
X87682741Y-36965033D01*
X87671805Y-36932175D01*
X87648616Y-36862502D01*
X87648613Y-36862496D01*
X87625026Y-36825794D01*
X87570825Y-36741457D01*
X87567844Y-36738017D01*
X87525076Y-36688659D01*
X87525072Y-36688656D01*
X87525070Y-36688653D01*
X87416336Y-36594433D01*
X87416333Y-36594431D01*
X87416331Y-36594430D01*
X87285465Y-36534664D01*
X87285460Y-36534662D01*
X87285459Y-36534662D01*
X87218420Y-36514977D01*
X87218422Y-36514977D01*
X87218417Y-36514976D01*
X87167559Y-36507664D01*
X87076000Y-36494500D01*
X84039693Y-36494500D01*
X84039687Y-36494500D01*
X83948897Y-36505114D01*
X83880025Y-36493347D01*
X83828448Y-36446213D01*
X83810499Y-36381953D01*
X83810499Y-36299260D01*
X83796018Y-36207829D01*
X83796018Y-36207828D01*
X83796017Y-36207826D01*
X83796017Y-36207825D01*
X83739859Y-36097609D01*
X83739857Y-36097607D01*
X83739854Y-36097603D01*
X83716819Y-36074568D01*
X83702115Y-36047640D01*
X83685523Y-36021822D01*
X83684631Y-36015621D01*
X83683334Y-36013245D01*
X83680500Y-35986887D01*
X83680500Y-35909822D01*
X83692990Y-35863302D01*
X83690094Y-35862103D01*
X83693202Y-35854594D01*
X83693207Y-35854587D01*
X83698378Y-35835288D01*
X83720501Y-35752727D01*
X83720501Y-35647273D01*
X83720501Y-35639678D01*
X83720500Y-35639660D01*
X83720500Y-35613112D01*
X83740185Y-35546073D01*
X83756819Y-35525431D01*
X83763170Y-35519079D01*
X83779859Y-35502391D01*
X83836017Y-35392175D01*
X83836017Y-35392173D01*
X83836018Y-35392172D01*
X83836018Y-35392171D01*
X83842776Y-35349500D01*
X83850500Y-35300735D01*
X83850499Y-34899266D01*
X83850499Y-34899260D01*
X83836018Y-34807829D01*
X83836018Y-34807828D01*
X83836017Y-34807826D01*
X83836017Y-34807825D01*
X83779859Y-34697609D01*
X83779857Y-34697607D01*
X83779854Y-34697603D01*
X83692396Y-34610145D01*
X83692393Y-34610143D01*
X83692391Y-34610141D01*
X83582175Y-34553983D01*
X83582174Y-34553982D01*
X83582171Y-34553981D01*
X83490735Y-34539500D01*
X83149260Y-34539500D01*
X83149260Y-34539501D01*
X83057829Y-34553981D01*
X83057825Y-34553982D01*
X82980795Y-34593231D01*
X82912125Y-34606127D01*
X82847385Y-34579850D01*
X82836820Y-34570427D01*
X82404484Y-34138091D01*
X82370999Y-34076768D01*
X82368876Y-34037157D01*
X82373100Y-33997873D01*
X82373099Y-33202128D01*
X82366691Y-33142517D01*
X82364887Y-33137681D01*
X82316397Y-33007671D01*
X82316393Y-33007664D01*
X82230147Y-32892455D01*
X82230144Y-32892452D01*
X82114935Y-32806206D01*
X82114928Y-32806202D01*
X81980082Y-32755908D01*
X81980083Y-32755908D01*
X81920483Y-32749501D01*
X81920481Y-32749500D01*
X81920473Y-32749500D01*
X81920464Y-32749500D01*
X81124729Y-32749500D01*
X81124723Y-32749501D01*
X81065116Y-32755908D01*
X80930271Y-32806202D01*
X80930264Y-32806206D01*
X80815055Y-32892452D01*
X80815052Y-32892455D01*
X80728806Y-33007664D01*
X80728802Y-33007671D01*
X80678508Y-33142517D01*
X80672101Y-33202116D01*
X80672101Y-33202123D01*
X80672100Y-33202135D01*
X80672100Y-33997870D01*
X80672101Y-33997876D01*
X80678508Y-34057483D01*
X80728802Y-34192328D01*
X80728806Y-34192335D01*
X80815052Y-34307544D01*
X80815055Y-34307547D01*
X80930264Y-34393793D01*
X80930271Y-34393797D01*
X81065116Y-34444091D01*
X81091019Y-34446875D01*
X81124727Y-34450500D01*
X81155342Y-34450499D01*
X81222380Y-34470182D01*
X81243025Y-34486818D01*
X81276687Y-34520480D01*
X81368013Y-34573207D01*
X81469873Y-34600500D01*
X81469875Y-34600500D01*
X81575323Y-34600500D01*
X81575327Y-34600500D01*
X81631404Y-34585474D01*
X81701249Y-34587137D01*
X81751175Y-34617568D01*
X82843181Y-35709574D01*
X82857884Y-35736501D01*
X82874477Y-35762320D01*
X82875368Y-35768520D01*
X82876666Y-35770897D01*
X82879500Y-35797255D01*
X82879500Y-35903128D01*
X82859815Y-35970167D01*
X82807011Y-36015922D01*
X82737853Y-36025866D01*
X82699205Y-36013613D01*
X82652581Y-35989857D01*
X82582175Y-35953983D01*
X82582174Y-35953982D01*
X82582171Y-35953981D01*
X82490735Y-35939500D01*
X82149260Y-35939500D01*
X82149260Y-35939501D01*
X82057829Y-35953981D01*
X82057828Y-35953981D01*
X81947607Y-36010142D01*
X81947603Y-36010145D01*
X81860145Y-36097603D01*
X81860143Y-36097607D01*
X81860141Y-36097609D01*
X81850134Y-36117249D01*
X81803981Y-36207827D01*
X81803981Y-36207828D01*
X81789500Y-36299264D01*
X81789500Y-36483454D01*
X81769815Y-36550493D01*
X81753182Y-36571135D01*
X81644527Y-36679790D01*
X81606983Y-36744819D01*
X81606969Y-36744846D01*
X81605321Y-36747701D01*
X81598386Y-36759712D01*
X81597239Y-36763992D01*
X81591671Y-36774949D01*
X81570872Y-36797015D01*
X81551844Y-36820627D01*
X81547145Y-36822190D01*
X81543749Y-36825794D01*
X81514318Y-36833114D01*
X81485548Y-36842689D01*
X81477736Y-36842214D01*
X81475945Y-36842660D01*
X81473956Y-36841984D01*
X81461735Y-36841242D01*
X81456691Y-36840443D01*
X81450735Y-36839500D01*
X81450733Y-36839500D01*
X81109260Y-36839500D01*
X81109260Y-36839501D01*
X81017829Y-36853981D01*
X81017828Y-36853981D01*
X80907607Y-36910142D01*
X80907603Y-36910145D01*
X80887681Y-36930068D01*
X80826358Y-36963553D01*
X80756666Y-36958569D01*
X80712319Y-36930068D01*
X80692396Y-36910145D01*
X80692393Y-36910143D01*
X80692391Y-36910141D01*
X80582175Y-36853983D01*
X80582174Y-36853982D01*
X80582171Y-36853981D01*
X80490735Y-36839500D01*
X80149260Y-36839500D01*
X80149260Y-36839501D01*
X80057829Y-36853981D01*
X80057828Y-36853981D01*
X79947607Y-36910142D01*
X79947603Y-36910145D01*
X79860145Y-36997603D01*
X79860140Y-36997610D01*
X79841759Y-37033685D01*
X79793784Y-37084480D01*
X79725963Y-37101275D01*
X79659829Y-37078737D01*
X79643594Y-37065070D01*
X79638017Y-37059493D01*
X79638011Y-37059488D01*
X79512488Y-36987017D01*
X79512489Y-36987017D01*
X79488540Y-36980600D01*
X79372475Y-36949500D01*
X79227525Y-36949500D01*
X79111460Y-36980600D01*
X79087511Y-36987017D01*
X78961988Y-37059488D01*
X78961982Y-37059493D01*
X78859493Y-37161982D01*
X78859488Y-37161988D01*
X78787017Y-37287511D01*
X78787016Y-37287515D01*
X78749500Y-37427525D01*
X78749500Y-37572475D01*
X78787016Y-37712485D01*
X78787017Y-37712488D01*
X78859488Y-37838011D01*
X78859493Y-37838017D01*
X78913181Y-37891705D01*
X78927884Y-37918632D01*
X78944477Y-37944451D01*
X78945368Y-37950651D01*
X78946666Y-37953028D01*
X78949500Y-37979386D01*
X78949500Y-38062435D01*
X78929815Y-38129474D01*
X78925261Y-38135124D01*
X78864034Y-38226760D01*
X78864032Y-38226764D01*
X78849500Y-38299821D01*
X78849500Y-39454456D01*
X78829815Y-39521495D01*
X78777011Y-39567250D01*
X78707853Y-39577194D01*
X78644297Y-39548169D01*
X78637819Y-39542137D01*
X77465213Y-38369531D01*
X77465208Y-38369527D01*
X77412499Y-38339096D01*
X77364284Y-38288529D01*
X77350499Y-38231712D01*
X77350499Y-38036862D01*
X77344259Y-37989455D01*
X77330757Y-37960500D01*
X77326982Y-37952404D01*
X77316490Y-37883326D01*
X77326980Y-37847599D01*
X77344259Y-37810545D01*
X77350500Y-37763139D01*
X77350499Y-37536862D01*
X77344259Y-37489455D01*
X77295747Y-37385421D01*
X77214579Y-37304253D01*
X77124785Y-37262381D01*
X77112128Y-37251237D01*
X77096734Y-37244354D01*
X77086450Y-37228627D01*
X77072347Y-37216210D01*
X77067724Y-37199991D01*
X77058495Y-37185878D01*
X77058345Y-37167087D01*
X77053195Y-37149016D01*
X77058073Y-37132874D01*
X77057940Y-37116010D01*
X77067974Y-37100119D01*
X77073411Y-37082135D01*
X77086488Y-37070803D01*
X77095247Y-37056934D01*
X77124784Y-37037618D01*
X77179471Y-37012117D01*
X77231876Y-37000500D01*
X77397524Y-37000500D01*
X77464563Y-37020185D01*
X77508009Y-37068207D01*
X77510141Y-37072391D01*
X77510143Y-37072393D01*
X77510145Y-37072396D01*
X77597603Y-37159854D01*
X77597605Y-37159855D01*
X77597609Y-37159859D01*
X77707825Y-37216017D01*
X77707826Y-37216017D01*
X77707828Y-37216018D01*
X77742947Y-37221579D01*
X77799265Y-37230500D01*
X78200734Y-37230499D01*
X78200739Y-37230499D01*
X78200739Y-37230498D01*
X78271465Y-37219297D01*
X78292170Y-37216018D01*
X78292171Y-37216018D01*
X78292172Y-37216017D01*
X78292175Y-37216017D01*
X78402391Y-37159859D01*
X78489859Y-37072391D01*
X78546017Y-36962175D01*
X78546017Y-36962173D01*
X78546018Y-36962172D01*
X78546018Y-36962171D01*
X78551695Y-36926328D01*
X78560500Y-36870735D01*
X78560499Y-36529266D01*
X78560499Y-36529260D01*
X78546018Y-36437829D01*
X78546018Y-36437828D01*
X78546017Y-36437826D01*
X78546017Y-36437825D01*
X78489859Y-36327609D01*
X78489857Y-36327607D01*
X78484120Y-36319710D01*
X78486181Y-36318212D01*
X78459574Y-36269485D01*
X78464558Y-36199793D01*
X78473354Y-36181126D01*
X78489026Y-36153981D01*
X78512984Y-36112485D01*
X78550500Y-35972475D01*
X78550500Y-35827525D01*
X78512984Y-35687515D01*
X78485365Y-35639678D01*
X78440511Y-35561988D01*
X78440506Y-35561982D01*
X78338017Y-35459493D01*
X78338011Y-35459488D01*
X78212488Y-35387017D01*
X78212489Y-35387017D01*
X78201006Y-35383940D01*
X78072475Y-35349500D01*
X77927525Y-35349500D01*
X77798993Y-35383940D01*
X77787511Y-35387017D01*
X77661988Y-35459488D01*
X77661982Y-35459493D01*
X77559493Y-35561982D01*
X77559488Y-35561988D01*
X77487017Y-35687511D01*
X77487016Y-35687515D01*
X77449500Y-35827525D01*
X77449500Y-35972475D01*
X77479513Y-36084482D01*
X77487017Y-36112489D01*
X77487018Y-36112492D01*
X77487603Y-36113504D01*
X77487836Y-36114465D01*
X77490128Y-36119999D01*
X77489703Y-36120174D01*
X77493008Y-36123989D01*
X77497173Y-36152962D01*
X77504073Y-36181405D01*
X77502088Y-36187139D01*
X77502952Y-36193147D01*
X77490792Y-36219772D01*
X77481219Y-36247431D01*
X77476448Y-36251182D01*
X77473927Y-36256703D01*
X77449302Y-36272527D01*
X77426296Y-36290619D01*
X77418948Y-36292034D01*
X77415149Y-36294477D01*
X77380214Y-36299500D01*
X77231876Y-36299500D01*
X77179471Y-36287882D01*
X77110545Y-36255741D01*
X77110543Y-36255740D01*
X77110544Y-36255740D01*
X77063139Y-36249500D01*
X75661867Y-36249500D01*
X75649091Y-36251182D01*
X75614455Y-36255741D01*
X75614453Y-36255742D01*
X75614450Y-36255742D01*
X75585541Y-36269223D01*
X75516463Y-36279714D01*
X75452680Y-36251193D01*
X75423900Y-36215518D01*
X75417090Y-36202841D01*
X75412984Y-36187515D01*
X75353715Y-36084859D01*
X75352821Y-36083194D01*
X75346008Y-36050807D01*
X75338199Y-36018617D01*
X75338658Y-36015866D01*
X75338439Y-36014821D01*
X75339142Y-36012974D01*
X75343015Y-35989808D01*
X75344254Y-35985554D01*
X75344259Y-35985545D01*
X75350500Y-35938139D01*
X75350499Y-34536862D01*
X75344259Y-34489455D01*
X75295747Y-34385421D01*
X75214579Y-34304253D01*
X75110545Y-34255741D01*
X75110543Y-34255740D01*
X75110544Y-34255740D01*
X75063140Y-34249500D01*
X74836868Y-34249500D01*
X74826341Y-34250885D01*
X74789455Y-34255741D01*
X74789453Y-34255742D01*
X74789451Y-34255742D01*
X74752403Y-34273018D01*
X74751394Y-34273171D01*
X74750620Y-34273832D01*
X74716945Y-34278403D01*
X74683325Y-34283509D01*
X74682061Y-34283138D01*
X74681385Y-34283230D01*
X74647600Y-34273020D01*
X74647534Y-34272989D01*
X74633892Y-34266628D01*
X74581454Y-34220459D01*
X74562299Y-34153267D01*
X74582512Y-34086385D01*
X74598609Y-34066568D01*
X74653076Y-34012102D01*
X74653077Y-34012098D01*
X74659044Y-34003743D01*
X74662091Y-34005918D01*
X74696350Y-33968441D01*
X74760596Y-33950500D01*
X75046064Y-33950500D01*
X75108063Y-33967112D01*
X75187515Y-34012984D01*
X75327525Y-34050500D01*
X75327528Y-34050500D01*
X75472472Y-34050500D01*
X75472475Y-34050500D01*
X75612485Y-34012984D01*
X75738015Y-33940509D01*
X75840509Y-33838015D01*
X75912984Y-33712485D01*
X75950500Y-33572475D01*
X75950500Y-33427525D01*
X75912984Y-33287515D01*
X75910871Y-33283856D01*
X75840511Y-33161988D01*
X75840510Y-33161986D01*
X75840509Y-33161985D01*
X75816205Y-33137681D01*
X75782720Y-33076358D01*
X75787704Y-33006666D01*
X75816205Y-32962319D01*
X75828024Y-32950500D01*
X75840509Y-32938015D01*
X75912984Y-32812485D01*
X75950500Y-32672475D01*
X75950500Y-32527525D01*
X75912984Y-32387515D01*
X75866123Y-32306350D01*
X75840511Y-32261988D01*
X75840506Y-32261982D01*
X75738017Y-32159493D01*
X75738011Y-32159488D01*
X75612488Y-32087017D01*
X75612489Y-32087017D01*
X75601006Y-32083940D01*
X75472475Y-32049500D01*
X75327525Y-32049500D01*
X75198993Y-32083940D01*
X75187511Y-32087017D01*
X75061988Y-32159488D01*
X75061982Y-32159493D01*
X75008295Y-32213181D01*
X74981367Y-32227884D01*
X74955549Y-32244477D01*
X74949348Y-32245368D01*
X74946972Y-32246666D01*
X74920614Y-32249500D01*
X74760596Y-32249500D01*
X74693557Y-32229815D01*
X74661884Y-32194229D01*
X74659044Y-32196257D01*
X74653074Y-32187895D01*
X74562102Y-32096923D01*
X74562099Y-32096921D01*
X74446521Y-32040419D01*
X74446519Y-32040418D01*
X74446518Y-32040418D01*
X74371582Y-32029500D01*
X74028418Y-32029500D01*
X73953482Y-32040418D01*
X73953480Y-32040418D01*
X73953478Y-32040419D01*
X73837900Y-32096921D01*
X73837897Y-32096923D01*
X73777681Y-32157140D01*
X73716358Y-32190625D01*
X73646666Y-32185641D01*
X73602319Y-32157140D01*
X73542102Y-32096923D01*
X73542099Y-32096921D01*
X73426521Y-32040419D01*
X73426519Y-32040418D01*
X73426518Y-32040418D01*
X73351582Y-32029500D01*
X73008418Y-32029500D01*
X72933482Y-32040418D01*
X72933480Y-32040418D01*
X72933478Y-32040419D01*
X72817900Y-32096921D01*
X72817897Y-32096923D01*
X72726923Y-32187897D01*
X72726921Y-32187900D01*
X72670419Y-32303478D01*
X72670418Y-32303480D01*
X72670418Y-32303482D01*
X72659500Y-32378418D01*
X72659500Y-32378423D01*
X72659500Y-32573456D01*
X72639815Y-32640495D01*
X72623181Y-32661137D01*
X72169531Y-33114786D01*
X72169529Y-33114789D01*
X72142282Y-33161984D01*
X72142280Y-33161986D01*
X72123388Y-33194706D01*
X72123387Y-33194709D01*
X72123386Y-33194711D01*
X72123386Y-33194712D01*
X72119252Y-33210141D01*
X72099500Y-33283856D01*
X72099500Y-34125500D01*
X72079815Y-34192539D01*
X72027011Y-34238294D01*
X71975501Y-34249500D01*
X71836868Y-34249500D01*
X71826341Y-34250885D01*
X71789455Y-34255741D01*
X71789453Y-34255742D01*
X71789451Y-34255742D01*
X71752403Y-34273018D01*
X71683325Y-34283509D01*
X71647596Y-34273018D01*
X71626354Y-34263113D01*
X71610545Y-34255741D01*
X71610541Y-34255740D01*
X71563140Y-34249500D01*
X71336868Y-34249500D01*
X71326341Y-34250885D01*
X71289455Y-34255741D01*
X71289453Y-34255742D01*
X71289451Y-34255742D01*
X71252403Y-34273018D01*
X71183325Y-34283509D01*
X71147596Y-34273018D01*
X71126354Y-34263113D01*
X71110545Y-34255741D01*
X71110541Y-34255740D01*
X71063140Y-34249500D01*
X70836868Y-34249500D01*
X70826341Y-34250885D01*
X70789455Y-34255741D01*
X70789453Y-34255742D01*
X70789451Y-34255742D01*
X70752403Y-34273018D01*
X70683325Y-34283509D01*
X70647596Y-34273018D01*
X70626354Y-34263113D01*
X70610545Y-34255741D01*
X70610541Y-34255740D01*
X70563140Y-34249500D01*
X70336867Y-34249500D01*
X70321839Y-34251478D01*
X70289455Y-34255741D01*
X70289453Y-34255742D01*
X70289451Y-34255742D01*
X70185420Y-34304253D01*
X70104253Y-34385420D01*
X70086882Y-34422673D01*
X70081225Y-34429096D01*
X70078815Y-34437307D01*
X70058487Y-34454921D01*
X70040709Y-34475112D01*
X70032478Y-34477457D01*
X70026011Y-34483062D01*
X69999384Y-34486890D01*
X69973515Y-34494264D01*
X69965323Y-34491788D01*
X69956853Y-34493006D01*
X69932384Y-34481831D01*
X69906634Y-34474048D01*
X69901081Y-34467535D01*
X69893297Y-34463981D01*
X69878753Y-34441351D01*
X69861300Y-34420882D01*
X69859163Y-34410867D01*
X69855523Y-34405203D01*
X69850500Y-34370268D01*
X69850500Y-34263113D01*
X69870185Y-34196074D01*
X69886819Y-34175432D01*
X69959854Y-34102396D01*
X69959859Y-34102391D01*
X70016017Y-33992175D01*
X70016017Y-33992173D01*
X70016018Y-33992172D01*
X70016018Y-33992171D01*
X70024200Y-33940509D01*
X70030500Y-33900735D01*
X70030499Y-33680085D01*
X70047114Y-33618082D01*
X70051613Y-33610289D01*
X70051614Y-33610288D01*
X70075500Y-33521144D01*
X70075500Y-33196783D01*
X70095185Y-33129744D01*
X70147989Y-33083989D01*
X70156142Y-33080610D01*
X70180226Y-33071628D01*
X70289687Y-32989687D01*
X70371628Y-32880226D01*
X70419412Y-32752114D01*
X70423070Y-32718092D01*
X70425499Y-32695501D01*
X70425499Y-32695490D01*
X70425500Y-32695485D01*
X70425499Y-32104516D01*
X70421254Y-32065025D01*
X70419412Y-32047885D01*
X70401588Y-32000101D01*
X70371628Y-31919774D01*
X70289687Y-31810313D01*
X70223911Y-31761074D01*
X70180228Y-31728373D01*
X70180226Y-31728372D01*
X70052114Y-31680588D01*
X70052112Y-31680587D01*
X70052110Y-31680587D01*
X69995493Y-31674500D01*
X69454518Y-31674500D01*
X69454509Y-31674501D01*
X69397885Y-31680587D01*
X69269773Y-31728372D01*
X69160313Y-31810313D01*
X69078373Y-31919771D01*
X69078372Y-31919774D01*
X69033374Y-32040418D01*
X69030587Y-32047889D01*
X69024500Y-32104498D01*
X69024500Y-32695481D01*
X69024501Y-32695490D01*
X69030587Y-32752114D01*
X69056820Y-32822445D01*
X69078372Y-32880226D01*
X69160313Y-32989687D01*
X69162871Y-32991602D01*
X69164787Y-32994161D01*
X69166584Y-32995958D01*
X69166325Y-32996216D01*
X69204741Y-33047533D01*
X69209726Y-33117225D01*
X69176242Y-33178548D01*
X69144860Y-33201350D01*
X69127612Y-33210139D01*
X69127603Y-33210145D01*
X69040145Y-33297603D01*
X69040142Y-33297608D01*
X69040141Y-33297609D01*
X69022721Y-33331796D01*
X69012273Y-33342859D01*
X69005951Y-33356703D01*
X68988770Y-33367744D01*
X68974748Y-33382591D01*
X68959068Y-33386832D01*
X68947173Y-33394477D01*
X68912238Y-33399500D01*
X68738139Y-33399500D01*
X68671100Y-33379815D01*
X68625345Y-33327011D01*
X68618364Y-33307594D01*
X68612983Y-33287512D01*
X68612982Y-33287511D01*
X68540511Y-33161988D01*
X68540510Y-33161986D01*
X68540509Y-33161985D01*
X68438015Y-33059491D01*
X68438013Y-33059490D01*
X68438011Y-33059488D01*
X68312488Y-32987017D01*
X68312489Y-32987017D01*
X68301006Y-32983940D01*
X68172475Y-32949500D01*
X68027525Y-32949500D01*
X67898993Y-32983940D01*
X67887511Y-32987017D01*
X67761988Y-33059488D01*
X67761982Y-33059493D01*
X67659493Y-33161982D01*
X67659488Y-33161988D01*
X67587017Y-33287511D01*
X67587016Y-33287515D01*
X67549500Y-33427525D01*
X67549500Y-33572475D01*
X67578335Y-33680086D01*
X67587017Y-33712488D01*
X67659488Y-33838011D01*
X67659490Y-33838013D01*
X67659491Y-33838015D01*
X67761985Y-33940509D01*
X67761986Y-33940510D01*
X67761988Y-33940511D01*
X67887511Y-34012982D01*
X67887512Y-34012982D01*
X67887515Y-34012984D01*
X68027525Y-34050500D01*
X68032745Y-34050500D01*
X68099784Y-34070185D01*
X68120426Y-34086819D01*
X68154087Y-34120480D01*
X68245412Y-34173207D01*
X68347273Y-34200500D01*
X68452727Y-34200500D01*
X68995842Y-34200500D01*
X69062881Y-34220185D01*
X69108636Y-34272989D01*
X69118580Y-34342147D01*
X69108224Y-34376904D01*
X69055740Y-34489454D01*
X69055740Y-34489455D01*
X69049500Y-34536860D01*
X69049500Y-35938134D01*
X69055093Y-35980620D01*
X69054505Y-35984385D01*
X69055837Y-35987955D01*
X69049164Y-36018626D01*
X69044325Y-36049655D01*
X69041559Y-36053587D01*
X69040985Y-36056228D01*
X69019834Y-36084482D01*
X68884483Y-36219833D01*
X68823160Y-36253318D01*
X68780620Y-36255092D01*
X68757583Y-36252059D01*
X68738139Y-36249500D01*
X68738135Y-36249500D01*
X67336867Y-36249500D01*
X67324091Y-36251182D01*
X67289455Y-36255741D01*
X67289453Y-36255742D01*
X67289451Y-36255742D01*
X67199682Y-36297603D01*
X67196129Y-36299260D01*
X67177639Y-36307882D01*
X67166635Y-36310321D01*
X67160169Y-36314477D01*
X67125234Y-36319500D01*
X67063113Y-36319500D01*
X66996074Y-36299815D01*
X66975432Y-36283181D01*
X66902396Y-36210145D01*
X66902393Y-36210143D01*
X66902391Y-36210141D01*
X66792175Y-36153983D01*
X66792174Y-36153982D01*
X66792171Y-36153981D01*
X66700735Y-36139500D01*
X66299260Y-36139500D01*
X66299260Y-36139501D01*
X66207829Y-36153981D01*
X66207828Y-36153981D01*
X66097607Y-36210142D01*
X66097603Y-36210145D01*
X66010145Y-36297603D01*
X66010142Y-36297608D01*
X66010141Y-36297609D01*
X65995546Y-36326254D01*
X65953981Y-36407827D01*
X65953981Y-36407828D01*
X65939500Y-36499264D01*
X65939500Y-36840739D01*
X65953981Y-36932170D01*
X65953981Y-36932171D01*
X65953982Y-36932174D01*
X65953983Y-36932175D01*
X66007323Y-37036861D01*
X66010142Y-37042392D01*
X66010145Y-37042396D01*
X66097603Y-37129854D01*
X66097605Y-37129855D01*
X66097609Y-37129859D01*
X66207825Y-37186017D01*
X66207826Y-37186017D01*
X66207828Y-37186018D01*
X66242947Y-37191579D01*
X66299265Y-37200500D01*
X66700734Y-37200499D01*
X66700739Y-37200499D01*
X66700739Y-37200498D01*
X66747869Y-37193034D01*
X66792170Y-37186018D01*
X66792171Y-37186017D01*
X66792175Y-37186017D01*
X66869209Y-37146766D01*
X66937873Y-37133870D01*
X67002614Y-37160145D01*
X67042871Y-37217251D01*
X67045906Y-37227615D01*
X67049500Y-37242220D01*
X67049501Y-37263138D01*
X67055741Y-37310545D01*
X67078141Y-37358584D01*
X67081041Y-37370363D01*
X67080010Y-37393636D01*
X67083509Y-37416673D01*
X67078187Y-37434795D01*
X67077950Y-37440164D01*
X67075660Y-37443401D01*
X67073018Y-37452402D01*
X67055742Y-37489451D01*
X67055740Y-37489458D01*
X67049500Y-37536859D01*
X67049500Y-37763131D01*
X67049501Y-37763138D01*
X67055741Y-37810545D01*
X67073018Y-37847596D01*
X67083509Y-37916673D01*
X67073018Y-37952402D01*
X67055742Y-37989451D01*
X67055740Y-37989458D01*
X67049500Y-38036859D01*
X67049500Y-38036861D01*
X67049500Y-38149156D01*
X67049501Y-38175499D01*
X67029817Y-38242539D01*
X66977013Y-38288294D01*
X66925501Y-38299500D01*
X65982704Y-38299500D01*
X65915665Y-38279815D01*
X65895023Y-38263181D01*
X65552373Y-37920531D01*
X65552368Y-37920527D01*
X65472450Y-37874387D01*
X65472449Y-37874386D01*
X65472448Y-37874386D01*
X65472445Y-37874385D01*
X65472442Y-37874384D01*
X65468049Y-37873206D01*
X65468049Y-37873207D01*
X65425676Y-37861853D01*
X65383304Y-37850500D01*
X65383303Y-37850500D01*
X64447544Y-37850500D01*
X64380505Y-37830815D01*
X64359863Y-37814181D01*
X64136818Y-37591136D01*
X64103333Y-37529813D01*
X64100499Y-37503455D01*
X64100499Y-36702129D01*
X64100498Y-36702123D01*
X64100497Y-36702116D01*
X64095299Y-36653757D01*
X64094091Y-36642516D01*
X64043797Y-36507671D01*
X64043793Y-36507664D01*
X63957547Y-36392455D01*
X63957544Y-36392452D01*
X63842335Y-36306206D01*
X63842329Y-36306203D01*
X63806550Y-36292858D01*
X63750616Y-36250986D01*
X63726200Y-36185521D01*
X63741052Y-36117249D01*
X63790458Y-36067843D01*
X63830484Y-36054203D01*
X63882175Y-36046017D01*
X63992391Y-35989859D01*
X64079859Y-35902391D01*
X64136017Y-35792175D01*
X64136017Y-35792173D01*
X64136018Y-35792172D01*
X64136018Y-35792171D01*
X64142265Y-35752726D01*
X64150500Y-35700735D01*
X64150499Y-35299266D01*
X64150499Y-35299264D01*
X64150499Y-35299260D01*
X64136018Y-35207829D01*
X64136018Y-35207828D01*
X64136017Y-35207826D01*
X64136017Y-35207825D01*
X64079859Y-35097609D01*
X64079857Y-35097607D01*
X64079854Y-35097603D01*
X63992396Y-35010145D01*
X63992393Y-35010143D01*
X63992391Y-35010141D01*
X63882175Y-34953983D01*
X63882174Y-34953982D01*
X63882171Y-34953981D01*
X63790735Y-34939500D01*
X63449260Y-34939500D01*
X63449260Y-34939501D01*
X63357829Y-34953981D01*
X63357828Y-34953981D01*
X63247607Y-35010142D01*
X63247603Y-35010145D01*
X63160145Y-35097603D01*
X63160143Y-35097607D01*
X63160141Y-35097609D01*
X63144898Y-35127525D01*
X63103981Y-35207827D01*
X63103981Y-35207828D01*
X63089500Y-35299264D01*
X63089500Y-35483454D01*
X63082631Y-35506846D01*
X63079986Y-35531088D01*
X63072016Y-35542994D01*
X63069815Y-35550493D01*
X63061928Y-35561413D01*
X63057807Y-35566510D01*
X62969530Y-35654788D01*
X62932151Y-35719531D01*
X62923386Y-35734712D01*
X62923385Y-35734714D01*
X62899500Y-35823856D01*
X62899500Y-36133023D01*
X62879815Y-36200062D01*
X62827011Y-36245817D01*
X62799865Y-36253266D01*
X62800068Y-36254124D01*
X62792520Y-36255907D01*
X62657671Y-36306202D01*
X62657664Y-36306206D01*
X62542455Y-36392452D01*
X62542452Y-36392455D01*
X62456206Y-36507664D01*
X62456202Y-36507671D01*
X62405908Y-36642517D01*
X62400948Y-36688659D01*
X62399501Y-36702123D01*
X62399500Y-36702135D01*
X62399500Y-37697870D01*
X62399501Y-37697876D01*
X62405908Y-37757483D01*
X62456202Y-37892328D01*
X62456206Y-37892335D01*
X62542452Y-38007544D01*
X62542455Y-38007547D01*
X62657664Y-38093793D01*
X62657671Y-38093797D01*
X62792517Y-38144091D01*
X62792516Y-38144091D01*
X62799444Y-38144835D01*
X62852127Y-38150500D01*
X63647872Y-38150499D01*
X63651193Y-38150499D01*
X63651193Y-38151636D01*
X63714650Y-38166601D01*
X63741020Y-38186702D01*
X64035788Y-38481470D01*
X64093365Y-38514712D01*
X64115712Y-38527614D01*
X64115714Y-38527614D01*
X64117104Y-38528417D01*
X64165320Y-38578984D01*
X64178544Y-38647591D01*
X64158698Y-38698927D01*
X64160454Y-38699886D01*
X64156202Y-38707671D01*
X64105908Y-38842517D01*
X64099501Y-38902116D01*
X64099500Y-38902135D01*
X64099500Y-39897870D01*
X64099501Y-39897876D01*
X64105908Y-39957483D01*
X64156202Y-40092328D01*
X64156206Y-40092335D01*
X64242452Y-40207544D01*
X64242455Y-40207547D01*
X64357664Y-40293793D01*
X64357671Y-40293797D01*
X64393448Y-40307141D01*
X64449382Y-40349012D01*
X64473799Y-40414476D01*
X64458948Y-40482749D01*
X64409543Y-40532155D01*
X64369513Y-40545796D01*
X64317828Y-40553981D01*
X64207607Y-40610142D01*
X64207603Y-40610145D01*
X64120145Y-40697603D01*
X64120142Y-40697608D01*
X64063981Y-40807827D01*
X64063981Y-40807828D01*
X64049500Y-40899264D01*
X64049500Y-41300739D01*
X64063981Y-41392170D01*
X64063981Y-41392171D01*
X64063982Y-41392174D01*
X64063983Y-41392175D01*
X64117671Y-41497544D01*
X64120142Y-41502392D01*
X64120145Y-41502396D01*
X64207603Y-41589854D01*
X64207605Y-41589855D01*
X64207609Y-41589859D01*
X64317825Y-41646017D01*
X64389811Y-41657418D01*
X64452944Y-41687346D01*
X64489875Y-41746657D01*
X64488879Y-41816520D01*
X64450269Y-41874753D01*
X64413747Y-41896072D01*
X64329054Y-41927661D01*
X64329049Y-41927664D01*
X64221028Y-42008528D01*
X64140164Y-42116549D01*
X64140162Y-42116552D01*
X64103682Y-42214361D01*
X64061811Y-42270295D01*
X63996346Y-42294712D01*
X63928073Y-42279860D01*
X63878668Y-42230455D01*
X63871318Y-42214361D01*
X63834837Y-42116552D01*
X63834835Y-42116549D01*
X63822073Y-42099501D01*
X63753972Y-42008528D01*
X63645950Y-41927664D01*
X63645947Y-41927662D01*
X63519524Y-41880509D01*
X63463644Y-41874500D01*
X63463630Y-41874500D01*
X63074500Y-41874500D01*
X63065814Y-41871949D01*
X63056853Y-41873238D01*
X63032812Y-41862259D01*
X63007461Y-41854815D01*
X63001533Y-41847974D01*
X62993297Y-41844213D01*
X62979007Y-41821978D01*
X62961706Y-41802011D01*
X62959418Y-41791496D01*
X62955523Y-41785435D01*
X62950500Y-41750500D01*
X62950500Y-41679386D01*
X62970185Y-41612347D01*
X62986819Y-41591705D01*
X63006049Y-41572475D01*
X63040509Y-41538015D01*
X63112984Y-41412485D01*
X63150500Y-41272475D01*
X63150500Y-41127525D01*
X63112984Y-40987515D01*
X63112696Y-40987017D01*
X63040511Y-40861988D01*
X63040506Y-40861982D01*
X62938017Y-40759493D01*
X62938011Y-40759488D01*
X62812488Y-40687017D01*
X62812489Y-40687017D01*
X62801006Y-40683940D01*
X62672475Y-40649500D01*
X62527525Y-40649500D01*
X62398993Y-40683940D01*
X62387511Y-40687017D01*
X62261979Y-40759494D01*
X62259683Y-40761256D01*
X62257398Y-40762138D01*
X62254946Y-40763555D01*
X62254725Y-40763172D01*
X62194512Y-40786445D01*
X62126068Y-40772401D01*
X62076818Y-40724874D01*
X62040509Y-40661985D01*
X61938015Y-40559491D01*
X61938013Y-40559490D01*
X61938011Y-40559488D01*
X61812488Y-40487017D01*
X61812489Y-40487017D01*
X61801006Y-40483940D01*
X61672475Y-40449500D01*
X61672472Y-40449500D01*
X61596544Y-40449500D01*
X61567103Y-40440855D01*
X61537117Y-40434332D01*
X61532101Y-40430577D01*
X61529505Y-40429815D01*
X61508863Y-40413181D01*
X61386819Y-40291137D01*
X61353334Y-40229814D01*
X61350500Y-40203456D01*
X61350500Y-40079386D01*
X61370185Y-40012347D01*
X61386819Y-39991705D01*
X61408338Y-39970186D01*
X61440509Y-39938015D01*
X61512984Y-39812485D01*
X61550500Y-39672475D01*
X61550500Y-39596544D01*
X61570185Y-39529505D01*
X61586819Y-39508863D01*
X61682342Y-39413340D01*
X61780470Y-39315212D01*
X61826614Y-39235288D01*
X61850500Y-39146144D01*
X61850500Y-39053856D01*
X61850500Y-38524367D01*
X61866383Y-38470274D01*
X61864059Y-38469191D01*
X61872375Y-38451357D01*
X61919019Y-38351330D01*
X61925500Y-38302103D01*
X61925499Y-37722898D01*
X61924128Y-37712485D01*
X61922205Y-37697872D01*
X61919019Y-37673670D01*
X61868644Y-37565641D01*
X61784359Y-37481356D01*
X61676330Y-37430981D01*
X61676328Y-37430980D01*
X61627113Y-37424501D01*
X61627108Y-37424500D01*
X61627103Y-37424500D01*
X61627096Y-37424500D01*
X61372895Y-37424500D01*
X61323674Y-37430980D01*
X61323666Y-37430982D01*
X61215640Y-37481356D01*
X61131356Y-37565640D01*
X61112382Y-37606331D01*
X61066209Y-37658770D01*
X60999016Y-37677922D01*
X60932135Y-37657706D01*
X60887618Y-37606331D01*
X60868644Y-37565641D01*
X60784359Y-37481356D01*
X60676330Y-37430981D01*
X60676328Y-37430980D01*
X60627113Y-37424501D01*
X60627108Y-37424500D01*
X60627103Y-37424500D01*
X60627096Y-37424500D01*
X60458042Y-37424500D01*
X60436766Y-37418252D01*
X60414650Y-37416660D01*
X60403895Y-37408600D01*
X60391003Y-37404815D01*
X60376484Y-37388059D01*
X60358738Y-37374761D01*
X60354047Y-37362166D01*
X60345248Y-37352011D01*
X60342092Y-37330062D01*
X60334354Y-37309284D01*
X60337216Y-37296155D01*
X60335304Y-37282853D01*
X60344515Y-37262683D01*
X60349239Y-37241019D01*
X60362474Y-37223357D01*
X60364329Y-37219297D01*
X60370389Y-37212791D01*
X60371407Y-37211773D01*
X60432746Y-37178320D01*
X60459044Y-37175499D01*
X60627104Y-37175499D01*
X60641167Y-37173647D01*
X60676330Y-37169019D01*
X60697595Y-37159102D01*
X60766668Y-37148609D01*
X60802405Y-37159102D01*
X60823670Y-37169019D01*
X60872897Y-37175500D01*
X61127102Y-37175499D01*
X61127104Y-37175499D01*
X61141167Y-37173647D01*
X61176330Y-37169019D01*
X61284359Y-37118644D01*
X61368644Y-37034359D01*
X61419019Y-36926330D01*
X61425500Y-36877103D01*
X61425499Y-36297898D01*
X61425460Y-36297603D01*
X61421724Y-36269223D01*
X61419019Y-36248670D01*
X61386194Y-36178278D01*
X61375703Y-36109203D01*
X61404222Y-36045419D01*
X61442278Y-36015392D01*
X61492391Y-35989859D01*
X61579859Y-35902391D01*
X61636017Y-35792175D01*
X61636017Y-35792173D01*
X61636018Y-35792172D01*
X61636018Y-35792171D01*
X61642265Y-35752726D01*
X61650500Y-35700735D01*
X61650499Y-35299266D01*
X61650499Y-35299264D01*
X61650499Y-35299260D01*
X61636018Y-35207829D01*
X61636018Y-35207828D01*
X61636017Y-35207826D01*
X61636017Y-35207825D01*
X61579859Y-35097609D01*
X61579857Y-35097607D01*
X61579854Y-35097603D01*
X61518068Y-35035817D01*
X61484583Y-34974494D01*
X61489567Y-34904802D01*
X61518065Y-34860458D01*
X61540509Y-34838015D01*
X61612984Y-34712485D01*
X61650500Y-34572475D01*
X61650500Y-34427525D01*
X61612984Y-34287515D01*
X61604702Y-34273171D01*
X61540511Y-34161988D01*
X61540506Y-34161982D01*
X61438017Y-34059493D01*
X61438011Y-34059488D01*
X61312488Y-33987017D01*
X61312489Y-33987017D01*
X61301006Y-33983940D01*
X61172475Y-33949500D01*
X61027525Y-33949500D01*
X60898993Y-33983940D01*
X60887511Y-33987017D01*
X60761988Y-34059488D01*
X60761982Y-34059493D01*
X60659493Y-34161982D01*
X60659488Y-34161988D01*
X60587017Y-34287511D01*
X60587016Y-34287515D01*
X60549500Y-34427525D01*
X60549500Y-34572475D01*
X60583030Y-34697609D01*
X60587017Y-34712488D01*
X60659488Y-34838011D01*
X60659493Y-34838017D01*
X60701931Y-34880455D01*
X60735416Y-34941778D01*
X60730432Y-35011470D01*
X60715364Y-35039913D01*
X60709313Y-35048436D01*
X60660141Y-35097609D01*
X60623852Y-35168828D01*
X60618598Y-35176231D01*
X60598003Y-35192476D01*
X60579993Y-35211546D01*
X60571008Y-35213770D01*
X60563742Y-35219503D01*
X60537633Y-35222035D01*
X60512172Y-35228340D01*
X60502288Y-35225463D01*
X60494198Y-35226248D01*
X60480095Y-35219004D01*
X60455484Y-35211841D01*
X60412488Y-35187017D01*
X60412489Y-35187017D01*
X60375590Y-35177130D01*
X60272475Y-35149500D01*
X60127525Y-35149500D01*
X60024410Y-35177130D01*
X59987511Y-35187017D01*
X59861988Y-35259488D01*
X59861982Y-35259493D01*
X59762181Y-35359295D01*
X59700858Y-35392780D01*
X59631166Y-35387796D01*
X59575233Y-35345924D01*
X59550816Y-35280460D01*
X59550500Y-35271614D01*
X59550500Y-35127527D01*
X59550500Y-35127525D01*
X59512984Y-34987515D01*
X59510187Y-34982671D01*
X59440511Y-34861988D01*
X59440506Y-34861982D01*
X59338017Y-34759493D01*
X59338011Y-34759488D01*
X59212488Y-34687017D01*
X59212489Y-34687017D01*
X59201006Y-34683940D01*
X59072475Y-34649500D01*
X58927525Y-34649500D01*
X58798993Y-34683940D01*
X58787511Y-34687017D01*
X58661988Y-34759488D01*
X58661982Y-34759493D01*
X58559493Y-34861982D01*
X58559488Y-34861988D01*
X58487017Y-34987511D01*
X58487016Y-34987515D01*
X58449500Y-35127525D01*
X58449500Y-35127527D01*
X58449500Y-35272476D01*
X58456514Y-35298653D01*
X58454851Y-35368503D01*
X58415687Y-35426365D01*
X58360932Y-35452362D01*
X58302263Y-35464032D01*
X58302260Y-35464033D01*
X58219399Y-35519399D01*
X58164033Y-35602260D01*
X58164032Y-35602264D01*
X58149500Y-35675321D01*
X58149500Y-36174678D01*
X58164032Y-36247735D01*
X58164033Y-36247739D01*
X58169491Y-36255907D01*
X58219399Y-36330601D01*
X58273896Y-36367014D01*
X58302260Y-36385966D01*
X58302264Y-36385967D01*
X58375321Y-36400499D01*
X58375324Y-36400500D01*
X58375326Y-36400500D01*
X59474676Y-36400500D01*
X59474677Y-36400499D01*
X59547740Y-36385966D01*
X59630601Y-36330601D01*
X59685966Y-36247740D01*
X59689471Y-36230115D01*
X59702368Y-36205460D01*
X59712236Y-36179447D01*
X59718337Y-36174931D01*
X59721856Y-36168206D01*
X59746031Y-36154438D01*
X59768401Y-36137886D01*
X59775976Y-36137386D01*
X59782571Y-36133631D01*
X59810352Y-36135119D01*
X59838119Y-36133289D01*
X59847990Y-36137136D01*
X59852340Y-36137370D01*
X59871119Y-36145806D01*
X59872093Y-36146345D01*
X59987515Y-36212984D01*
X59997256Y-36215594D01*
X60010530Y-36222938D01*
X60024846Y-36237414D01*
X60042232Y-36248005D01*
X60048913Y-36261750D01*
X60059660Y-36272617D01*
X60063876Y-36292532D01*
X60072778Y-36310844D01*
X60074500Y-36331439D01*
X60074500Y-36465955D01*
X60054815Y-36532994D01*
X60038181Y-36553636D01*
X59787573Y-36804244D01*
X59726250Y-36837729D01*
X59656558Y-36832745D01*
X59631003Y-36819666D01*
X59547742Y-36764035D01*
X59547735Y-36764032D01*
X59474677Y-36749500D01*
X59474674Y-36749500D01*
X58375326Y-36749500D01*
X58375323Y-36749500D01*
X58302264Y-36764032D01*
X58302260Y-36764033D01*
X58219399Y-36819399D01*
X58164033Y-36902260D01*
X58164032Y-36902264D01*
X58149500Y-36975321D01*
X58149500Y-37009082D01*
X58129815Y-37076121D01*
X58077011Y-37121876D01*
X58007853Y-37131820D01*
X57963500Y-37116469D01*
X57912488Y-37087017D01*
X57912489Y-37087017D01*
X57894269Y-37082135D01*
X57772475Y-37049500D01*
X57627525Y-37049500D01*
X57505731Y-37082135D01*
X57487511Y-37087017D01*
X57361988Y-37159488D01*
X57361982Y-37159493D01*
X57259493Y-37261982D01*
X57259488Y-37261988D01*
X57187017Y-37387511D01*
X57187015Y-37387516D01*
X57181678Y-37407435D01*
X57145313Y-37467095D01*
X57082466Y-37497623D01*
X57013090Y-37489328D01*
X56991664Y-37474825D01*
X56990756Y-37476185D01*
X56980601Y-37469400D01*
X56980601Y-37469399D01*
X56913404Y-37424500D01*
X56897739Y-37414033D01*
X56897735Y-37414032D01*
X56824677Y-37399500D01*
X56824674Y-37399500D01*
X55725326Y-37399500D01*
X55725323Y-37399500D01*
X55652264Y-37414032D01*
X55652260Y-37414033D01*
X55638400Y-37423295D01*
X55616987Y-37429999D01*
X55597435Y-37441007D01*
X55584287Y-37440237D01*
X55571722Y-37444172D01*
X55550084Y-37438235D01*
X55527685Y-37436925D01*
X55512104Y-37427816D01*
X55504342Y-37425687D01*
X55496492Y-37420413D01*
X55492258Y-37417328D01*
X55465836Y-37394433D01*
X55452429Y-37388310D01*
X55442308Y-37380936D01*
X55428335Y-37362766D01*
X55411010Y-37347754D01*
X55407439Y-37335595D01*
X55399715Y-37325550D01*
X55397783Y-37302708D01*
X55391326Y-37280714D01*
X55394896Y-37268554D01*
X55393829Y-37255928D01*
X55404552Y-37235669D01*
X55411011Y-37213675D01*
X55426118Y-37194928D01*
X55426516Y-37194177D01*
X55426896Y-37193962D01*
X55427640Y-37193039D01*
X55549055Y-37071624D01*
X55610376Y-37038141D01*
X55660926Y-37037690D01*
X55725323Y-37050500D01*
X55725326Y-37050500D01*
X56824676Y-37050500D01*
X56824677Y-37050499D01*
X56897740Y-37035966D01*
X56980601Y-36980601D01*
X57035966Y-36897740D01*
X57050500Y-36824674D01*
X57050500Y-36325326D01*
X57040328Y-36274188D01*
X57040328Y-36225811D01*
X57050500Y-36174674D01*
X57050500Y-35675326D01*
X57050500Y-35675323D01*
X57050499Y-35675321D01*
X57035967Y-35602264D01*
X57035966Y-35602260D01*
X56980601Y-35519399D01*
X56897740Y-35464034D01*
X56897739Y-35464033D01*
X56897735Y-35464032D01*
X56824677Y-35449500D01*
X56824674Y-35449500D01*
X55725326Y-35449500D01*
X55725323Y-35449500D01*
X55652264Y-35464032D01*
X55652260Y-35464034D01*
X55569401Y-35519397D01*
X55562470Y-35526328D01*
X55560016Y-35531703D01*
X55536890Y-35546565D01*
X55515796Y-35564195D01*
X55506419Y-35566147D01*
X55501238Y-35569477D01*
X55466303Y-35574500D01*
X55449500Y-35574500D01*
X55382461Y-35554815D01*
X55336706Y-35502011D01*
X55325500Y-35450500D01*
X55325499Y-35177130D01*
X55325498Y-35177123D01*
X55325402Y-35176231D01*
X55319091Y-35117517D01*
X55311665Y-35097608D01*
X55268797Y-34982671D01*
X55268793Y-34982664D01*
X55182547Y-34867455D01*
X55182544Y-34867452D01*
X55067335Y-34781206D01*
X55067328Y-34781202D01*
X54932482Y-34730908D01*
X54932483Y-34730908D01*
X54872883Y-34724501D01*
X54872881Y-34724500D01*
X54872873Y-34724500D01*
X54872864Y-34724500D01*
X53527129Y-34724500D01*
X53527113Y-34724501D01*
X53522078Y-34725043D01*
X53453319Y-34712634D01*
X53402184Y-34665021D01*
X53389852Y-34636689D01*
X53368067Y-34562496D01*
X53290279Y-34441457D01*
X53258865Y-34405203D01*
X53244530Y-34388659D01*
X53244526Y-34388656D01*
X53244524Y-34388653D01*
X53135790Y-34294433D01*
X53135787Y-34294431D01*
X53135785Y-34294430D01*
X53004919Y-34234664D01*
X53004914Y-34234662D01*
X53004913Y-34234662D01*
X52960220Y-34221538D01*
X52937871Y-34214976D01*
X52875808Y-34206053D01*
X52795454Y-34194500D01*
X52242251Y-34194500D01*
X52175212Y-34174815D01*
X52129457Y-34122011D01*
X52119513Y-34052853D01*
X52148538Y-33989297D01*
X52185956Y-33960015D01*
X52224244Y-33940506D01*
X52336433Y-33883343D01*
X52527510Y-33744517D01*
X52694517Y-33577510D01*
X52833343Y-33386433D01*
X52940568Y-33175992D01*
X53013553Y-32951368D01*
X53021043Y-32904076D01*
X53050500Y-32718097D01*
X53050500Y-32481902D01*
X53013553Y-32248631D01*
X52964260Y-32096924D01*
X52940568Y-32024008D01*
X52940566Y-32024005D01*
X52940566Y-32024003D01*
X52865015Y-31875727D01*
X52833343Y-31813567D01*
X52694517Y-31622490D01*
X52527510Y-31455483D01*
X52347664Y-31324816D01*
X52305000Y-31269488D01*
X52299021Y-31199874D01*
X52331627Y-31138080D01*
X52392466Y-31103722D01*
X52420551Y-31100500D01*
X56635253Y-31100500D01*
X56702292Y-31120185D01*
G37*
%TD.AperFunction*%
%TA.AperFunction,Conductor*%
G36*
X74517863Y-44273410D02*
G01*
X74562380Y-44324785D01*
X74587881Y-44379470D01*
X74599500Y-44431876D01*
X74599500Y-45250739D01*
X74613981Y-45342170D01*
X74613981Y-45342171D01*
X74613982Y-45342174D01*
X74613983Y-45342175D01*
X74657698Y-45427971D01*
X74670142Y-45452392D01*
X74670144Y-45452395D01*
X74699619Y-45481869D01*
X74733105Y-45543191D01*
X74728121Y-45612883D01*
X74719326Y-45631551D01*
X74687017Y-45687511D01*
X74687016Y-45687515D01*
X74649500Y-45827525D01*
X74649500Y-45827527D01*
X74649500Y-45977073D01*
X74629815Y-46044112D01*
X74577011Y-46089867D01*
X74507853Y-46099811D01*
X74463500Y-46084460D01*
X74336753Y-46011282D01*
X74336754Y-46011282D01*
X74319665Y-46006703D01*
X74196740Y-45973765D01*
X74051790Y-45973765D01*
X73911780Y-46011281D01*
X73911778Y-46011281D01*
X73911778Y-46011282D01*
X73786243Y-46083760D01*
X73779800Y-46088705D01*
X73778852Y-46087469D01*
X73725639Y-46116519D01*
X73655948Y-46111527D01*
X73611612Y-46083031D01*
X73081791Y-45553210D01*
X73048306Y-45491887D01*
X73053290Y-45422195D01*
X73095162Y-45366262D01*
X73107462Y-45358148D01*
X73138015Y-45340509D01*
X73240509Y-45238015D01*
X73312984Y-45112485D01*
X73350500Y-44972475D01*
X73350500Y-44827525D01*
X73318095Y-44706589D01*
X73319758Y-44636743D01*
X73358920Y-44578881D01*
X73423148Y-44551376D01*
X73437860Y-44550499D01*
X73563138Y-44550499D01*
X73610545Y-44544259D01*
X73647595Y-44526981D01*
X73716672Y-44516490D01*
X73752404Y-44526981D01*
X73789455Y-44544259D01*
X73836861Y-44550500D01*
X74063138Y-44550499D01*
X74110545Y-44544259D01*
X74214579Y-44495747D01*
X74295747Y-44414579D01*
X74337619Y-44324782D01*
X74383788Y-44272347D01*
X74450982Y-44253195D01*
X74517863Y-44273410D01*
G37*
%TD.AperFunction*%
%TA.AperFunction,Conductor*%
G36*
X66934185Y-39503050D02*
G01*
X66943146Y-39501762D01*
X66967187Y-39512740D01*
X66992539Y-39520185D01*
X66998465Y-39527024D01*
X67006702Y-39530786D01*
X67020992Y-39553021D01*
X67038294Y-39572989D01*
X67040581Y-39583501D01*
X67044477Y-39589564D01*
X67049500Y-39624499D01*
X67049500Y-39763132D01*
X67049501Y-39763138D01*
X67055741Y-39810545D01*
X67055742Y-39810547D01*
X67055742Y-39810548D01*
X67098241Y-39901686D01*
X67104253Y-39914579D01*
X67185421Y-39995747D01*
X67275212Y-40037617D01*
X67287867Y-40048759D01*
X67303263Y-40055643D01*
X67313548Y-40071371D01*
X67327652Y-40083789D01*
X67332274Y-40100007D01*
X67341503Y-40114119D01*
X67341652Y-40132908D01*
X67346804Y-40150982D01*
X67341924Y-40167124D01*
X67342059Y-40183986D01*
X67332026Y-40199873D01*
X67326589Y-40217864D01*
X67313509Y-40229197D01*
X67304754Y-40243063D01*
X67275215Y-40262380D01*
X67220531Y-40287881D01*
X67168124Y-40299500D01*
X66678856Y-40299500D01*
X66589711Y-40323386D01*
X66509787Y-40369531D01*
X66509784Y-40369533D01*
X65243294Y-41636023D01*
X65181971Y-41669508D01*
X65112279Y-41664524D01*
X65056346Y-41622652D01*
X65031929Y-41557188D01*
X65045128Y-41492049D01*
X65096017Y-41392175D01*
X65110500Y-41300735D01*
X65110499Y-41116545D01*
X65130183Y-41049506D01*
X65146818Y-41028863D01*
X65170158Y-41005523D01*
X65230470Y-40945212D01*
X65276614Y-40865288D01*
X65280844Y-40849500D01*
X65300500Y-40776144D01*
X65300500Y-40466976D01*
X65320185Y-40399937D01*
X65372989Y-40354182D01*
X65400135Y-40346736D01*
X65399932Y-40345876D01*
X65407479Y-40344092D01*
X65407481Y-40344091D01*
X65407483Y-40344091D01*
X65542331Y-40293796D01*
X65657546Y-40207546D01*
X65743796Y-40092331D01*
X65794091Y-39957483D01*
X65800500Y-39897873D01*
X65800500Y-39624499D01*
X65820185Y-39557461D01*
X65872989Y-39511706D01*
X65924500Y-39500500D01*
X66925500Y-39500500D01*
X66934185Y-39503050D01*
G37*
%TD.AperFunction*%
%TD*%
%TA.AperFunction,Conductor*%
%TO.N,+SV*%
G36*
X52862493Y-34719685D02*
G01*
X52908248Y-34772489D01*
X52918192Y-34841647D01*
X52900993Y-34889096D01*
X52890645Y-34905871D01*
X52890641Y-34905880D01*
X52835494Y-35072302D01*
X52835493Y-35072309D01*
X52825000Y-35175013D01*
X52825000Y-35287500D01*
X54076000Y-35287500D01*
X54143039Y-35307185D01*
X54188794Y-35359989D01*
X54200000Y-35411500D01*
X54200000Y-35663500D01*
X54180315Y-35730539D01*
X54127511Y-35776294D01*
X54076000Y-35787500D01*
X52825001Y-35787500D01*
X52825001Y-35899986D01*
X52835494Y-36002697D01*
X52890641Y-36169119D01*
X52890643Y-36169124D01*
X52982684Y-36318345D01*
X53106654Y-36442315D01*
X53255875Y-36534356D01*
X53255880Y-36534358D01*
X53315004Y-36553950D01*
X53372449Y-36593723D01*
X53399272Y-36658238D01*
X53400000Y-36671656D01*
X53400000Y-37327817D01*
X53394602Y-37346199D01*
X53394182Y-37365354D01*
X53384961Y-37379031D01*
X53380315Y-37394856D01*
X53365837Y-37407400D01*
X53355127Y-37423289D01*
X53333972Y-37435011D01*
X53327511Y-37440611D01*
X53325024Y-37441714D01*
X53320087Y-37443838D01*
X53255666Y-37465186D01*
X53221426Y-37486304D01*
X53213081Y-37489897D01*
X53189644Y-37492743D01*
X53164057Y-37500000D01*
X52378248Y-37500000D01*
X52311209Y-37480315D01*
X52265454Y-37427511D01*
X52255510Y-37358353D01*
X52277930Y-37303115D01*
X52354620Y-37197557D01*
X52451095Y-37008217D01*
X52516757Y-36806130D01*
X52516757Y-36806127D01*
X52550000Y-36596246D01*
X52550000Y-36383753D01*
X52516757Y-36173872D01*
X52516757Y-36173869D01*
X52451095Y-35971782D01*
X52354624Y-35782449D01*
X52315270Y-35728282D01*
X52315269Y-35728282D01*
X51682962Y-36360589D01*
X51665925Y-36297007D01*
X51600099Y-36182993D01*
X51507007Y-36089901D01*
X51392993Y-36024075D01*
X51329409Y-36007037D01*
X51961716Y-35374728D01*
X51907550Y-35335375D01*
X51718217Y-35238904D01*
X51516129Y-35173242D01*
X51306246Y-35140000D01*
X51093754Y-35140000D01*
X50883872Y-35173242D01*
X50883869Y-35173242D01*
X50681782Y-35238904D01*
X50492439Y-35335380D01*
X50438282Y-35374727D01*
X50438282Y-35374728D01*
X51070591Y-36007037D01*
X51007007Y-36024075D01*
X50892993Y-36089901D01*
X50799901Y-36182993D01*
X50734075Y-36297007D01*
X50717037Y-36360591D01*
X50066630Y-35710184D01*
X50065848Y-35710020D01*
X50055945Y-35700257D01*
X50043297Y-35694481D01*
X50031556Y-35676212D01*
X50016093Y-35660967D01*
X50012267Y-35646197D01*
X50005523Y-35635703D01*
X50000500Y-35600768D01*
X50000500Y-34824000D01*
X50020185Y-34756961D01*
X50072989Y-34711206D01*
X50124500Y-34700000D01*
X52795454Y-34700000D01*
X52862493Y-34719685D01*
G37*
%TD.AperFunction*%
%TD*%
%TA.AperFunction,Conductor*%
%TO.N,HBRIDGE-*%
G36*
X87143039Y-37019685D02*
G01*
X87188794Y-37072489D01*
X87200000Y-37124000D01*
X87200000Y-40676000D01*
X87180315Y-40743039D01*
X87127511Y-40788794D01*
X87076000Y-40800000D01*
X84624000Y-40800000D01*
X84556961Y-40780315D01*
X84511206Y-40727511D01*
X84500000Y-40676000D01*
X84500000Y-40141606D01*
X84519685Y-40074567D01*
X84524734Y-40067294D01*
X84525000Y-40066939D01*
X84543796Y-40041831D01*
X84594091Y-39906983D01*
X84600500Y-39847373D01*
X84600499Y-38276628D01*
X84594091Y-38217017D01*
X84543796Y-38082169D01*
X84500000Y-38023665D01*
X84500000Y-38000000D01*
X84482284Y-38000000D01*
X84457546Y-37966954D01*
X84342331Y-37880704D01*
X84342329Y-37880703D01*
X84342328Y-37880702D01*
X84207486Y-37830410D01*
X84207485Y-37830409D01*
X84207483Y-37830409D01*
X84147873Y-37824000D01*
X84147863Y-37824000D01*
X83602129Y-37824000D01*
X83602123Y-37824001D01*
X83542516Y-37830408D01*
X83402614Y-37882588D01*
X83401011Y-37883978D01*
X83370637Y-37888345D01*
X83340647Y-37894868D01*
X83336370Y-37893272D01*
X83331853Y-37893922D01*
X83303938Y-37881173D01*
X83275184Y-37870447D01*
X83272449Y-37866793D01*
X83268297Y-37864897D01*
X83251703Y-37839077D01*
X83233316Y-37814511D01*
X83232301Y-37808886D01*
X83230523Y-37806119D01*
X83225500Y-37771184D01*
X83225500Y-37645807D01*
X83245185Y-37578768D01*
X83261815Y-37558130D01*
X83486232Y-37333712D01*
X83539312Y-37302320D01*
X83676395Y-37262494D01*
X83815687Y-37180117D01*
X83930117Y-37065687D01*
X83932962Y-37060877D01*
X83984032Y-37013194D01*
X84039693Y-37000000D01*
X87076000Y-37000000D01*
X87143039Y-37019685D01*
G37*
%TD.AperFunction*%
%TD*%
M02*
