M48
; DRILL file {KiCad 9.0.4} date 2026-03-22T19:39:30-0400
; FORMAT={-:-/ absolute / metric / decimal}
; #@! TF.CreationDate,2026-03-22T19:39:30-04:00
; #@! TF.GenerationSoftware,Kicad,Pcbnew,9.0.4
; #@! TF.FileFunction,Plated,1,4,PTH
FMAT,2
METRIC
; #@! TA.AperFunction,Plated,PTH,ViaDrill
T1C0.300
; #@! TA.AperFunction,Plated,PTH,ComponentDrill
T2C0.600
; #@! TA.AperFunction,Plated,PTH,ComponentDrill
T3C1.000
%
G90
G05
T1
X53.5Y-39.9
X53.5Y-40.6
X53.5Y-41.3
X53.6Y-46.5
X53.6Y-47.2
X53.6Y-47.9
X53.6Y-48.6
X54.2Y-39.9
X54.2Y-40.6
X54.3Y-46.5
X54.3Y-47.2
X54.3Y-47.9
X54.3Y-48.6
X54.9Y-39.9
X54.9Y-40.6
X54.9Y-41.3
X55.0Y-46.5
X55.0Y-47.2
X55.0Y-47.9
X55.0Y-48.6
X55.7Y-46.5
X55.7Y-47.2
X55.7Y-47.9
X55.7Y-48.6
X56.2Y-40.8
X56.25Y-40.1
X56.4Y-46.5
X56.4Y-47.2
X56.4Y-47.9
X56.4Y-48.6
X57.0Y-40.1
X57.0Y-40.8
X57.5Y-36.7
X57.7Y-35.9
X57.7Y-37.6
X57.7Y-40.1
X57.7Y-40.8
X57.7Y-41.5
X58.1Y-39.2
X58.4Y-40.1
X58.4Y-40.8
X58.4Y-41.5
X59.1Y-40.1
X59.1Y-40.8
X59.1Y-41.5
X60.2Y-35.7
X61.1Y-34.6
X61.75Y-41.5
X62.2Y-34.6
X62.677Y-40.907
X63.5Y-42.25
X63.5Y-44.75
X66.0Y-34.75
X66.4Y-40.1
X66.6Y-48.4
X68.6Y-34.9
X69.275Y-42.25
X69.675Y-40.425
X71.05Y-36.798
X71.525Y-45.475
X71.75Y-41.0
X71.8Y-33.0
X71.85Y-36.6
X72.1Y-37.65
X73.25Y-39.5
X73.389Y-44.8
X73.5Y-40.75
X74.25Y-46.0
X74.5Y-42.25
X74.7Y-39.0
X74.9Y-36.4
X75.1Y-37.5
X75.4Y-32.6
X75.4Y-33.5
X75.75Y-45.75
X78.25Y-38.5
X78.5Y-47.75
X78.5Y-48.5
X78.9Y-36.7
X79.25Y-48.5
X79.3Y-37.5
X80.0Y-48.5
X80.1Y-47.35
X81.25Y-48.5
X82.1Y-46.8
X82.1Y-47.9
X83.9Y-47.1
X83.9Y-47.9
X84.8Y-48.6
X84.9Y-41.7
X84.9Y-42.5
X85.6Y-41.7
X85.6Y-42.5
X86.3Y-41.7
X86.3Y-42.5
X87.0Y-41.7
X87.0Y-42.5
T2
X80.023Y-33.8
X81.523Y-33.8
X85.8Y-39.4
X85.9Y-44.7
T3
X51.4Y-36.49
X51.4Y-39.03
X51.4Y-41.57
X51.4Y-44.11
X56.98Y-32.625
X59.52Y-32.625
X62.06Y-32.625
X64.6Y-32.625
X68.88Y-48.0
X71.42Y-48.0
X73.96Y-48.0
X76.5Y-48.0
M30
