%TF.GenerationSoftware,KiCad,Pcbnew,9.0.4*%
%TF.CreationDate,2026-03-07T22:54:14-05:00*%
%TF.ProjectId,SERVO-ESC,53455256-4f2d-4455-9343-2e6b69636164,rev?*%
%TF.SameCoordinates,Original*%
%TF.FileFunction,Legend,Top*%
%TF.FilePolarity,Positive*%
%FSLAX46Y46*%
G04 Gerber Fmt 4.6, Leading zero omitted, Abs format (unit mm)*
G04 Created by KiCad (PCBNEW 9.0.4) date 2026-03-07 22:54:14*
%MOMM*%
%LPD*%
G01*
G04 APERTURE LIST*
%ADD10C,0.120000*%
%ADD11C,0.100000*%
G04 APERTURE END LIST*
D10*
%TO.C,C16*%
X115390000Y-38242164D02*
X115390000Y-38457836D01*
X116110000Y-38242164D02*
X116110000Y-38457836D01*
%TO.C,R14*%
X123770000Y-38196359D02*
X123770000Y-38503641D01*
X124530000Y-38196359D02*
X124530000Y-38503641D01*
%TO.C,R15*%
X123770000Y-40513641D02*
X123770000Y-40206359D01*
X124530000Y-40513641D02*
X124530000Y-40206359D01*
%TO.C,J3*%
X115740000Y-41940000D02*
X116800000Y-41940000D01*
X115740000Y-43000000D02*
X115740000Y-41940000D01*
X117800000Y-41940000D02*
X123860000Y-41940000D01*
X117800000Y-44060000D02*
X117800000Y-41940000D01*
X117800000Y-44060000D02*
X123860000Y-44060000D01*
X123860000Y-44060000D02*
X123860000Y-41940000D01*
%TO.C,U2*%
X119950000Y-37040000D02*
X118000000Y-37040000D01*
X119950000Y-37040000D02*
X121900000Y-37040000D01*
X119950000Y-42160000D02*
X118000000Y-42160000D01*
X119950000Y-42160000D02*
X121900000Y-42160000D01*
X117250000Y-37135000D02*
X117010000Y-36805000D01*
X117490000Y-36805000D01*
X117250000Y-37135000D01*
G36*
X117250000Y-37135000D02*
G01*
X117010000Y-36805000D01*
X117490000Y-36805000D01*
X117250000Y-37135000D01*
G37*
D11*
%TO.C,D2*%
X115800000Y-39510000D02*
G75*
G02*
X115700000Y-39510000I-50000J0D01*
G01*
X115700000Y-39510000D02*
G75*
G02*
X115800000Y-39510000I50000J0D01*
G01*
%TD*%
M02*
