%TF.GenerationSoftware,KiCad,Pcbnew,9.0.4*%
%TF.CreationDate,2026-03-07T22:54:14-05:00*%
%TF.ProjectId,SERVO-ESC,53455256-4f2d-4455-9343-2e6b69636164,rev?*%
%TF.SameCoordinates,Original*%
%TF.FileFunction,Copper,L1,Top*%
%TF.FilePolarity,Positive*%
%FSLAX46Y46*%
G04 Gerber Fmt 4.6, Leading zero omitted, Abs format (unit mm)*
G04 Created by KiCad (PCBNEW 9.0.4) date 2026-03-07 22:54:14*
%MOMM*%
%LPD*%
G01*
G04 APERTURE LIST*
G04 Aperture macros list*
%AMRoundRect*
0 Rectangle with rounded corners*
0 $1 Rounding radius*
0 $2 $3 $4 $5 $6 $7 $8 $9 X,Y pos of 4 corners*
0 Add a 4 corners polygon primitive as box body*
4,1,4,$2,$3,$4,$5,$6,$7,$8,$9,$2,$3,0*
0 Add four circle primitives for the rounded corners*
1,1,$1+$1,$2,$3*
1,1,$1+$1,$4,$5*
1,1,$1+$1,$6,$7*
1,1,$1+$1,$8,$9*
0 Add four rect primitives between the rounded corners*
20,1,$1+$1,$2,$3,$4,$5,0*
20,1,$1+$1,$4,$5,$6,$7,0*
20,1,$1+$1,$6,$7,$8,$9,0*
20,1,$1+$1,$8,$9,$2,$3,0*%
G04 Aperture macros list end*
%TA.AperFunction,SMDPad,CuDef*%
%ADD10RoundRect,0.140000X-0.170000X0.140000X-0.170000X-0.140000X0.170000X-0.140000X0.170000X0.140000X0*%
%TD*%
%TA.AperFunction,SMDPad,CuDef*%
%ADD11RoundRect,0.135000X-0.185000X0.135000X-0.185000X-0.135000X0.185000X-0.135000X0.185000X0.135000X0*%
%TD*%
%TA.AperFunction,SMDPad,CuDef*%
%ADD12RoundRect,0.135000X0.185000X-0.135000X0.185000X0.135000X-0.185000X0.135000X-0.185000X-0.135000X0*%
%TD*%
%TA.AperFunction,ComponentPad*%
%ADD13R,1.350000X1.350000*%
%TD*%
%TA.AperFunction,ComponentPad*%
%ADD14C,1.350000*%
%TD*%
%TA.AperFunction,SMDPad,CuDef*%
%ADD15RoundRect,0.150000X-0.725000X-0.150000X0.725000X-0.150000X0.725000X0.150000X-0.725000X0.150000X0*%
%TD*%
%TA.AperFunction,SMDPad,CuDef*%
%ADD16RoundRect,0.147500X-0.172500X0.147500X-0.172500X-0.147500X0.172500X-0.147500X0.172500X0.147500X0*%
%TD*%
%TA.AperFunction,ViaPad*%
%ADD17C,0.600000*%
%TD*%
%TA.AperFunction,Conductor*%
%ADD18C,0.500000*%
%TD*%
%TA.AperFunction,Conductor*%
%ADD19C,0.200000*%
%TD*%
G04 APERTURE END LIST*
D10*
%TO.P,C16,1*%
%TO.N,+3.3V*%
X115750000Y-37870000D03*
%TO.P,C16,2*%
%TO.N,GND*%
X115750000Y-38830000D03*
%TD*%
D11*
%TO.P,R14,1*%
%TO.N,+3.3V*%
X124150000Y-37840000D03*
%TO.P,R14,2*%
%TO.N,I2C-SCL-3*%
X124150000Y-38860000D03*
%TD*%
D12*
%TO.P,R15,1*%
%TO.N,+3.3V*%
X124150000Y-40870000D03*
%TO.P,R15,2*%
%TO.N,I2C-SDA-3*%
X124150000Y-39850000D03*
%TD*%
D13*
%TO.P,J3,1,Pin_1*%
%TO.N,GND*%
X116800000Y-43000000D03*
D14*
%TO.P,J3,2,Pin_2*%
%TO.N,I2C-SCL-3*%
X118800000Y-43000000D03*
%TO.P,J3,3,Pin_3*%
%TO.N,I2C-SDA-3*%
X120800000Y-43000000D03*
%TO.P,J3,4,Pin_4*%
%TO.N,+3.3V*%
X122800000Y-43000000D03*
%TD*%
D15*
%TO.P,U2,1,VDD*%
%TO.N,+3.3V*%
X117375000Y-37695000D03*
%TO.P,U2,2,MODE*%
X117375000Y-38965000D03*
%TO.P,U2,3,OUT*%
%TO.N,unconnected-(U2-OUT-Pad3)*%
X117375000Y-40235000D03*
%TO.P,U2,4,GND*%
%TO.N,GND*%
X117375000Y-41505000D03*
%TO.P,U2,5,PUSH*%
%TO.N,unconnected-(U2-PUSH-Pad5)*%
X122525000Y-41505000D03*
%TO.P,U2,6,A*%
%TO.N,I2C-SDA-3*%
X122525000Y-40235000D03*
%TO.P,U2,7,B*%
%TO.N,I2C-SCL-3*%
X122525000Y-38965000D03*
%TO.P,U2,8,Z*%
%TO.N,+3.3V*%
X122525000Y-37695000D03*
%TD*%
D16*
%TO.P,D2,1,A1*%
%TO.N,+3.3V*%
X115750000Y-40115000D03*
%TO.P,D2,2,A2*%
%TO.N,GND*%
X115750000Y-41085000D03*
%TD*%
D17*
%TO.N,+3.3V*%
X119000000Y-37700000D03*
X120950000Y-37700000D03*
%TD*%
D18*
%TO.N,GND*%
X116955000Y-41085000D02*
X117375000Y-41505000D01*
X116800000Y-43000000D02*
X116800000Y-42080000D01*
X116800000Y-42080000D02*
X117375000Y-41505000D01*
X115750000Y-41085000D02*
X116955000Y-41085000D01*
D19*
%TO.N,+3.3V*%
X117375000Y-38965000D02*
X117375000Y-37695000D01*
X122800000Y-43000000D02*
X124150000Y-41650000D01*
X124005000Y-37695000D02*
X124150000Y-37840000D01*
X117375000Y-37695000D02*
X118995000Y-37695000D01*
X122520000Y-37700000D02*
X122525000Y-37695000D01*
X117200000Y-37870000D02*
X117375000Y-37695000D01*
X124150000Y-41650000D02*
X124150000Y-40870000D01*
X118995000Y-37695000D02*
X119000000Y-37700000D01*
X116900000Y-38965000D02*
X115750000Y-40115000D01*
X117375000Y-38965000D02*
X116900000Y-38965000D01*
X115750000Y-37870000D02*
X117200000Y-37870000D01*
X120950000Y-37700000D02*
X122520000Y-37700000D01*
X122525000Y-37695000D02*
X124005000Y-37695000D01*
%TO.N,I2C-SCL-3*%
X122525000Y-38965000D02*
X121431968Y-38965000D01*
X122525000Y-38965000D02*
X124045000Y-38965000D01*
X118800000Y-41596968D02*
X118800000Y-43000000D01*
X121431968Y-38965000D02*
X118800000Y-41596968D01*
X124045000Y-38965000D02*
X124150000Y-38860000D01*
%TO.N,I2C-SDA-3*%
X120800000Y-43000000D02*
X120800000Y-41085001D01*
X120800000Y-41085001D02*
X121650001Y-40235000D01*
X123765000Y-40235000D02*
X124150000Y-39850000D01*
X121650001Y-40235000D02*
X122525000Y-40235000D01*
X122525000Y-40235000D02*
X123765000Y-40235000D01*
%TD*%
%TA.AperFunction,Conductor*%
%TO.N,GND*%
G36*
X122693811Y-35220185D02*
G01*
X122739566Y-35272989D01*
X122749510Y-35342147D01*
X122744703Y-35362819D01*
X122730290Y-35407173D01*
X122699500Y-35601577D01*
X122699500Y-35798422D01*
X122730290Y-35992826D01*
X122791117Y-36180029D01*
X122880476Y-36355405D01*
X122996172Y-36514646D01*
X123135354Y-36653828D01*
X123294595Y-36769524D01*
X123377455Y-36811743D01*
X123469970Y-36858882D01*
X123469972Y-36858882D01*
X123469975Y-36858884D01*
X123570317Y-36891487D01*
X123657173Y-36919709D01*
X123851578Y-36950500D01*
X123851583Y-36950500D01*
X124048422Y-36950500D01*
X124242826Y-36919709D01*
X124287181Y-36905297D01*
X124315305Y-36904493D01*
X124343147Y-36900490D01*
X124349756Y-36903508D01*
X124357022Y-36903301D01*
X124381115Y-36917829D01*
X124406703Y-36929515D01*
X124410631Y-36935628D01*
X124416855Y-36939381D01*
X124429268Y-36964627D01*
X124444477Y-36988293D01*
X124445953Y-36998562D01*
X124447684Y-37002082D01*
X124449500Y-37023228D01*
X124449500Y-37195500D01*
X124429815Y-37262539D01*
X124377011Y-37308294D01*
X124325500Y-37319500D01*
X123928418Y-37319500D01*
X123881583Y-37326323D01*
X123853479Y-37330418D01*
X123850450Y-37331900D01*
X123838362Y-37334696D01*
X123830924Y-37339477D01*
X123795989Y-37344500D01*
X123667255Y-37344500D01*
X123600216Y-37324815D01*
X123579574Y-37308181D01*
X123488347Y-37216954D01*
X123488344Y-37216952D01*
X123488342Y-37216950D01*
X123411517Y-37177805D01*
X123375301Y-37159352D01*
X123281524Y-37144500D01*
X121768482Y-37144500D01*
X121687519Y-37157323D01*
X121674696Y-37159354D01*
X121561658Y-37216950D01*
X121561657Y-37216951D01*
X121561656Y-37216951D01*
X121491246Y-37287361D01*
X121429922Y-37320845D01*
X121360231Y-37315860D01*
X121315884Y-37287360D01*
X121288017Y-37259493D01*
X121288011Y-37259488D01*
X121162488Y-37187017D01*
X121162489Y-37187017D01*
X121151006Y-37183940D01*
X121022475Y-37149500D01*
X120877525Y-37149500D01*
X120748993Y-37183940D01*
X120737511Y-37187017D01*
X120611988Y-37259488D01*
X120611982Y-37259493D01*
X120509493Y-37361982D01*
X120509488Y-37361988D01*
X120437017Y-37487511D01*
X120437016Y-37487515D01*
X120399500Y-37627525D01*
X120399500Y-37772475D01*
X120437016Y-37912485D01*
X120437017Y-37912488D01*
X120509488Y-38038011D01*
X120509490Y-38038013D01*
X120509491Y-38038015D01*
X120611985Y-38140509D01*
X120611986Y-38140510D01*
X120611988Y-38140511D01*
X120737511Y-38212982D01*
X120737512Y-38212982D01*
X120737515Y-38212984D01*
X120877525Y-38250500D01*
X120877528Y-38250500D01*
X121022472Y-38250500D01*
X121022475Y-38250500D01*
X121162485Y-38212984D01*
X121288015Y-38140509D01*
X121320885Y-38107638D01*
X121382205Y-38074154D01*
X121451897Y-38079138D01*
X121480781Y-38094519D01*
X121489053Y-38100445D01*
X121561658Y-38173050D01*
X121661176Y-38223757D01*
X121668772Y-38229199D01*
X121684767Y-38249658D01*
X121703647Y-38267490D01*
X121705936Y-38276737D01*
X121711805Y-38284243D01*
X121714200Y-38310104D01*
X121720442Y-38335311D01*
X121717369Y-38344327D01*
X121718248Y-38353815D01*
X121706280Y-38376866D01*
X121697904Y-38401446D01*
X121689934Y-38408351D01*
X121686054Y-38415826D01*
X121672018Y-38423875D01*
X121652852Y-38440484D01*
X121561658Y-38486950D01*
X121561657Y-38486951D01*
X121561652Y-38486954D01*
X121470426Y-38578181D01*
X121409103Y-38611666D01*
X121393866Y-38613304D01*
X121393884Y-38613439D01*
X121385824Y-38614500D01*
X121296680Y-38638386D01*
X121296677Y-38638387D01*
X121216759Y-38684527D01*
X121216754Y-38684531D01*
X118519532Y-41381753D01*
X118519530Y-41381755D01*
X118519530Y-41381756D01*
X118488912Y-41434788D01*
X118488911Y-41434788D01*
X118473387Y-41461677D01*
X118473386Y-41461680D01*
X118449500Y-41550824D01*
X118449500Y-42060573D01*
X118429815Y-42127612D01*
X118377011Y-42173367D01*
X118372957Y-42175132D01*
X118361614Y-42179830D01*
X118361608Y-42179833D01*
X118210032Y-42281113D01*
X118210024Y-42281119D01*
X118081119Y-42410024D01*
X118081113Y-42410032D01*
X117979833Y-42561608D01*
X117979831Y-42561612D01*
X117910068Y-42730037D01*
X117910065Y-42730047D01*
X117874500Y-42908843D01*
X117874500Y-42908846D01*
X117874500Y-43091154D01*
X117874500Y-43091156D01*
X117874499Y-43091156D01*
X117910065Y-43269952D01*
X117910068Y-43269962D01*
X117979831Y-43438387D01*
X117979833Y-43438391D01*
X118081113Y-43589967D01*
X118081119Y-43589975D01*
X118210024Y-43718880D01*
X118210032Y-43718886D01*
X118361608Y-43820166D01*
X118361612Y-43820168D01*
X118530037Y-43889931D01*
X118530042Y-43889933D01*
X118530046Y-43889933D01*
X118530047Y-43889934D01*
X118708843Y-43925500D01*
X118708846Y-43925500D01*
X118891156Y-43925500D01*
X119011445Y-43901572D01*
X119069958Y-43889933D01*
X119238389Y-43820167D01*
X119238391Y-43820166D01*
X119365324Y-43735352D01*
X119389972Y-43718883D01*
X119518883Y-43589972D01*
X119612776Y-43449451D01*
X119620166Y-43438391D01*
X119620168Y-43438387D01*
X119685439Y-43280808D01*
X119729280Y-43226404D01*
X119795574Y-43204339D01*
X119863273Y-43221618D01*
X119910884Y-43272755D01*
X119914561Y-43280808D01*
X119979831Y-43438387D01*
X119979833Y-43438391D01*
X120081113Y-43589967D01*
X120081119Y-43589975D01*
X120210024Y-43718880D01*
X120210032Y-43718886D01*
X120361608Y-43820166D01*
X120361612Y-43820168D01*
X120530037Y-43889931D01*
X120530042Y-43889933D01*
X120530046Y-43889933D01*
X120530047Y-43889934D01*
X120708843Y-43925500D01*
X120708846Y-43925500D01*
X120891156Y-43925500D01*
X121011445Y-43901572D01*
X121069958Y-43889933D01*
X121238389Y-43820167D01*
X121238391Y-43820166D01*
X121365324Y-43735352D01*
X121389972Y-43718883D01*
X121518883Y-43589972D01*
X121612776Y-43449451D01*
X121620166Y-43438391D01*
X121620168Y-43438387D01*
X121685439Y-43280808D01*
X121729280Y-43226404D01*
X121795574Y-43204339D01*
X121863273Y-43221618D01*
X121910884Y-43272755D01*
X121914561Y-43280808D01*
X121979831Y-43438387D01*
X121979833Y-43438391D01*
X122081113Y-43589967D01*
X122081119Y-43589975D01*
X122210024Y-43718880D01*
X122210032Y-43718886D01*
X122361608Y-43820166D01*
X122361612Y-43820168D01*
X122491002Y-43873762D01*
X122545406Y-43917602D01*
X122567471Y-43983896D01*
X122554037Y-44044614D01*
X122541118Y-44069970D01*
X122541116Y-44069974D01*
X122480290Y-44257173D01*
X122449500Y-44451577D01*
X122449500Y-44648422D01*
X122480290Y-44842826D01*
X122541117Y-45030029D01*
X122586555Y-45119205D01*
X122599451Y-45187875D01*
X122573174Y-45252615D01*
X122516068Y-45292872D01*
X122476070Y-45299500D01*
X117423930Y-45299500D01*
X117356891Y-45279815D01*
X117311136Y-45227011D01*
X117301192Y-45157853D01*
X117313445Y-45119205D01*
X117358882Y-45030029D01*
X117358882Y-45030028D01*
X117358884Y-45030025D01*
X117419709Y-44842826D01*
X117450500Y-44648422D01*
X117450500Y-44451577D01*
X117419709Y-44257173D01*
X117358882Y-44069970D01*
X117311743Y-43977455D01*
X117269524Y-43894595D01*
X117153828Y-43735354D01*
X117014646Y-43596172D01*
X116855405Y-43480476D01*
X116793253Y-43448808D01*
X116680029Y-43391117D01*
X116492826Y-43330290D01*
X116298422Y-43299500D01*
X116298417Y-43299500D01*
X116101583Y-43299500D01*
X116101578Y-43299500D01*
X115907173Y-43330290D01*
X115719970Y-43391117D01*
X115630795Y-43436555D01*
X115562125Y-43449451D01*
X115497385Y-43423174D01*
X115457128Y-43366068D01*
X115450500Y-43326070D01*
X115450500Y-40784499D01*
X115470185Y-40717460D01*
X115522989Y-40671705D01*
X115574495Y-40660499D01*
X115953822Y-40660499D01*
X116047022Y-40645739D01*
X116159355Y-40588502D01*
X116159357Y-40588499D01*
X116165182Y-40585532D01*
X116233852Y-40572635D01*
X116298592Y-40598911D01*
X116321797Y-40623131D01*
X116321953Y-40623346D01*
X116411652Y-40713045D01*
X116411654Y-40713046D01*
X116411658Y-40713050D01*
X116524694Y-40770645D01*
X116524698Y-40770647D01*
X116618475Y-40785499D01*
X116618481Y-40785500D01*
X118131518Y-40785499D01*
X118225304Y-40770646D01*
X118338342Y-40713050D01*
X118428050Y-40623342D01*
X118485646Y-40510304D01*
X118485646Y-40510302D01*
X118485647Y-40510301D01*
X118500499Y-40416524D01*
X118500500Y-40416519D01*
X118500499Y-40053482D01*
X118485646Y-39959696D01*
X118428050Y-39846658D01*
X118428046Y-39846654D01*
X118428045Y-39846652D01*
X118338347Y-39756954D01*
X118338343Y-39756951D01*
X118338342Y-39756950D01*
X118335599Y-39755552D01*
X118247147Y-39710483D01*
X118196352Y-39662509D01*
X118179557Y-39594687D01*
X118202095Y-39528553D01*
X118247145Y-39489517D01*
X118338342Y-39443050D01*
X118428050Y-39353342D01*
X118485646Y-39240304D01*
X118485646Y-39240302D01*
X118485647Y-39240301D01*
X118500499Y-39146524D01*
X118500500Y-39146519D01*
X118500499Y-38783482D01*
X118485646Y-38689696D01*
X118428050Y-38576658D01*
X118428046Y-38576654D01*
X118428045Y-38576652D01*
X118338347Y-38486954D01*
X118338343Y-38486951D01*
X118338342Y-38486950D01*
X118335599Y-38485552D01*
X118247147Y-38440483D01*
X118196352Y-38392509D01*
X118179557Y-38324687D01*
X118202095Y-38258553D01*
X118247145Y-38219517D01*
X118338342Y-38173050D01*
X118428050Y-38083342D01*
X118428051Y-38083339D01*
X118428752Y-38082639D01*
X118490075Y-38049154D01*
X118559767Y-38054138D01*
X118604115Y-38082639D01*
X118661985Y-38140509D01*
X118661986Y-38140510D01*
X118661988Y-38140511D01*
X118787511Y-38212982D01*
X118787512Y-38212982D01*
X118787515Y-38212984D01*
X118927525Y-38250500D01*
X118927528Y-38250500D01*
X119072472Y-38250500D01*
X119072475Y-38250500D01*
X119212485Y-38212984D01*
X119338015Y-38140509D01*
X119440509Y-38038015D01*
X119512984Y-37912485D01*
X119550500Y-37772475D01*
X119550500Y-37627525D01*
X119512984Y-37487515D01*
X119440509Y-37361985D01*
X119338015Y-37259491D01*
X119338013Y-37259490D01*
X119338011Y-37259488D01*
X119212488Y-37187017D01*
X119212489Y-37187017D01*
X119201006Y-37183940D01*
X119072475Y-37149500D01*
X118927525Y-37149500D01*
X118798993Y-37183940D01*
X118787511Y-37187017D01*
X118661988Y-37259488D01*
X118661982Y-37259493D01*
X118613295Y-37308181D01*
X118586367Y-37322884D01*
X118560549Y-37339477D01*
X118554348Y-37340368D01*
X118551972Y-37341666D01*
X118525614Y-37344500D01*
X118517255Y-37344500D01*
X118450216Y-37324815D01*
X118429574Y-37308181D01*
X118338347Y-37216954D01*
X118338344Y-37216952D01*
X118338342Y-37216950D01*
X118261517Y-37177805D01*
X118225301Y-37159352D01*
X118131524Y-37144500D01*
X116618482Y-37144500D01*
X116537519Y-37157323D01*
X116524696Y-37159354D01*
X116411658Y-37216950D01*
X116411657Y-37216951D01*
X116411652Y-37216954D01*
X116321954Y-37306652D01*
X116321950Y-37306657D01*
X116301436Y-37346918D01*
X116253460Y-37397713D01*
X116185639Y-37414507D01*
X116134657Y-37401105D01*
X116042177Y-37353983D01*
X116042171Y-37353981D01*
X115950735Y-37339500D01*
X115574500Y-37339500D01*
X115565814Y-37336949D01*
X115556853Y-37338238D01*
X115532812Y-37327259D01*
X115507461Y-37319815D01*
X115501533Y-37312974D01*
X115493297Y-37309213D01*
X115479007Y-37286978D01*
X115461706Y-37267011D01*
X115459418Y-37256496D01*
X115455523Y-37250435D01*
X115450500Y-37215500D01*
X115450500Y-37023228D01*
X115470185Y-36956189D01*
X115522989Y-36910434D01*
X115592147Y-36900490D01*
X115612819Y-36905297D01*
X115657173Y-36919709D01*
X115851578Y-36950500D01*
X115851583Y-36950500D01*
X116048422Y-36950500D01*
X116242826Y-36919709D01*
X116287181Y-36905297D01*
X116430025Y-36858884D01*
X116605405Y-36769524D01*
X116764646Y-36653828D01*
X116903828Y-36514646D01*
X117019524Y-36355405D01*
X117108884Y-36180025D01*
X117169709Y-35992826D01*
X117200500Y-35798422D01*
X117200500Y-35601577D01*
X117169709Y-35407173D01*
X117155297Y-35362819D01*
X117153301Y-35292978D01*
X117189381Y-35233145D01*
X117252082Y-35202316D01*
X117273228Y-35200500D01*
X122626772Y-35200500D01*
X122693811Y-35220185D01*
G37*
%TD.AperFunction*%
%TA.AperFunction,Conductor*%
G36*
X116485138Y-38240185D02*
G01*
X116530893Y-38292989D01*
X116540837Y-38362147D01*
X116511812Y-38425703D01*
X116474396Y-38454982D01*
X116411658Y-38486950D01*
X116411657Y-38486951D01*
X116411652Y-38486954D01*
X116321954Y-38576652D01*
X116321951Y-38576657D01*
X116264352Y-38689698D01*
X116249500Y-38783475D01*
X116249500Y-39068455D01*
X116229815Y-39135494D01*
X116213181Y-39156136D01*
X115836135Y-39533181D01*
X115809207Y-39547884D01*
X115783389Y-39564477D01*
X115777188Y-39565368D01*
X115774812Y-39566666D01*
X115748454Y-39569500D01*
X115574500Y-39569500D01*
X115507461Y-39549815D01*
X115461706Y-39497011D01*
X115450500Y-39445500D01*
X115450500Y-38524499D01*
X115470185Y-38457460D01*
X115522989Y-38411705D01*
X115574495Y-38400499D01*
X115950734Y-38400499D01*
X115950739Y-38400499D01*
X115950739Y-38400498D01*
X116001184Y-38392509D01*
X116042170Y-38386018D01*
X116042171Y-38386018D01*
X116042172Y-38386017D01*
X116042175Y-38386017D01*
X116152391Y-38329859D01*
X116172146Y-38310104D01*
X116225432Y-38256819D01*
X116252359Y-38242115D01*
X116278178Y-38225523D01*
X116284378Y-38224631D01*
X116286755Y-38223334D01*
X116313113Y-38220500D01*
X116418099Y-38220500D01*
X116485138Y-38240185D01*
G37*
%TD.AperFunction*%
%TD*%
M02*
