%TF.GenerationSoftware,KiCad,Pcbnew,9.0.4*%
%TF.CreationDate,2026-03-22T19:39:32-04:00*%
%TF.ProjectId,SERVO-ESC,53455256-4f2d-4455-9343-2e6b69636164,rev?*%
%TF.SameCoordinates,Original*%
%TF.FileFunction,Copper,L2,Inr*%
%TF.FilePolarity,Positive*%
%FSLAX46Y46*%
G04 Gerber Fmt 4.6, Leading zero omitted, Abs format (unit mm)*
G04 Created by KiCad (PCBNEW 9.0.4) date 2026-03-22 19:39:32*
%MOMM*%
%LPD*%
G01*
G04 APERTURE LIST*
G04 Aperture macros list*
%AMRoundRect*
0 Rectangle with rounded corners*
0 $1 Rounding radius*
0 $2 $3 $4 $5 $6 $7 $8 $9 X,Y pos of 4 corners*
0 Add a 4 corners polygon primitive as box body*
4,1,4,$2,$3,$4,$5,$6,$7,$8,$9,$2,$3,0*
0 Add four circle primitives for the rounded corners*
1,1,$1+$1,$2,$3*
1,1,$1+$1,$4,$5*
1,1,$1+$1,$6,$7*
1,1,$1+$1,$8,$9*
0 Add four rect primitives between the rounded corners*
20,1,$1+$1,$2,$3,$4,$5,0*
20,1,$1+$1,$4,$5,$6,$7,0*
20,1,$1+$1,$6,$7,$8,$9,0*
20,1,$1+$1,$8,$9,$2,$3,0*%
G04 Aperture macros list end*
%TA.AperFunction,ComponentPad*%
%ADD10RoundRect,0.250000X-0.550000X-0.550000X0.550000X-0.550000X0.550000X0.550000X-0.550000X0.550000X0*%
%TD*%
%TA.AperFunction,ComponentPad*%
%ADD11R,1.700000X1.700000*%
%TD*%
%TA.AperFunction,ComponentPad*%
%ADD12C,1.700000*%
%TD*%
%TA.AperFunction,ComponentPad*%
%ADD13RoundRect,0.250000X0.350000X0.350000X-0.350000X0.350000X-0.350000X-0.350000X0.350000X-0.350000X0*%
%TD*%
%TA.AperFunction,ComponentPad*%
%ADD14C,1.200000*%
%TD*%
%TA.AperFunction,ViaPad*%
%ADD15C,0.600000*%
%TD*%
G04 APERTURE END LIST*
D10*
%TO.N,HBRIDGE+*%
%TO.C,J6*%
X85900000Y-44700000D03*
%TD*%
D11*
%TO.N,GND*%
%TO.C,J1*%
X51400000Y-44110000D03*
D12*
%TO.N,UART-TX*%
X51400000Y-41570000D03*
%TO.N,UART-RX*%
X51400000Y-39030000D03*
%TO.N,+SV*%
X51400000Y-36490000D03*
%TD*%
D13*
%TO.N,+7V*%
%TO.C,C11*%
X81522600Y-33800000D03*
D14*
%TO.N,GND*%
X80022600Y-33800000D03*
%TD*%
D10*
%TO.N,HBRIDGE-*%
%TO.C,J5*%
X85800000Y-39400000D03*
%TD*%
D11*
%TO.N,I2C-SDA-3*%
%TO.C,J4*%
X68880000Y-48000000D03*
D12*
%TO.N,I2C-SCL-3*%
X71420000Y-48000000D03*
%TO.N,GND*%
X73960000Y-48000000D03*
%TO.N,+3.3V*%
X76500000Y-48000000D03*
%TD*%
D11*
%TO.N,SWCLK*%
%TO.C,J2*%
X64600000Y-32625000D03*
D12*
%TO.N,SWDIO*%
X62060000Y-32625000D03*
%TO.N,GND*%
X59520000Y-32625000D03*
%TO.N,+3.3V*%
X56980000Y-32625000D03*
%TD*%
D15*
%TO.N,TMP102-INT*%
X69675000Y-40425000D03*
X62676758Y-40907184D03*
%TO.N,GND*%
X53600000Y-47900000D03*
X82100000Y-47900000D03*
X79250000Y-48500000D03*
X87000000Y-41700000D03*
X78500000Y-48500000D03*
X54300000Y-47200000D03*
X66000000Y-34750000D03*
X84900000Y-41700000D03*
X86300000Y-42500000D03*
X55700000Y-47200000D03*
X85600000Y-41700000D03*
X71800000Y-33000000D03*
X55700000Y-48600000D03*
X61750000Y-41500000D03*
X55700000Y-46500000D03*
X85600000Y-42500000D03*
X78250000Y-38500000D03*
X54300000Y-46500000D03*
X74500000Y-42250000D03*
X53600000Y-48600000D03*
X56400000Y-48600000D03*
X58100000Y-39200000D03*
X55000000Y-47200000D03*
X55000000Y-48600000D03*
X55700000Y-47900000D03*
X56400000Y-46500000D03*
X57500000Y-36700000D03*
X66400000Y-40100000D03*
X54300000Y-47900000D03*
X55000000Y-47900000D03*
X84900000Y-42500000D03*
X86300000Y-41700000D03*
X62200000Y-34600000D03*
X55000000Y-46500000D03*
X78500000Y-47750000D03*
X83900000Y-47900000D03*
X87000000Y-42500000D03*
X54300000Y-48600000D03*
X53600000Y-46500000D03*
X63500000Y-44750000D03*
X56400000Y-47900000D03*
X56400000Y-47200000D03*
X80000000Y-48500000D03*
X53600000Y-47200000D03*
%TO.N,I2C-SCL-1*%
X57700000Y-37600000D03*
X72100000Y-37650000D03*
%TO.N,I2C-SDA-1*%
X60200000Y-35700000D03*
X71850000Y-36600000D03*
%TO.N,+3.3V*%
X79300000Y-37500000D03*
X57700000Y-41500000D03*
X75400000Y-32600000D03*
X58400000Y-40100000D03*
X68600000Y-34900000D03*
X63500000Y-42250000D03*
X61100000Y-34600000D03*
X57000000Y-40100000D03*
X59100000Y-40100000D03*
X58400000Y-41500000D03*
X56250000Y-40100000D03*
X75750000Y-45750000D03*
X75400000Y-33500000D03*
X58400000Y-40800000D03*
X59100000Y-40800000D03*
X81250000Y-48500000D03*
X57000000Y-40800000D03*
X56200000Y-40800000D03*
X57700000Y-40800000D03*
X59100000Y-41500000D03*
X57700000Y-40100000D03*
X84800000Y-48600000D03*
X78900000Y-36700000D03*
%TO.N,RGB-LED-RED*%
X69274690Y-42250001D03*
X66600000Y-48400000D03*
%TO.N,HBRIDGE-FAULT*%
X74250000Y-46000000D03*
X80100000Y-47350000D03*
%TO.N,HBRIDGE-VREF*%
X82100000Y-46800000D03*
X71525000Y-45475000D03*
%TO.N,+7V*%
X54900000Y-41300000D03*
X54900000Y-40600000D03*
X54900000Y-39900000D03*
X54200000Y-40600000D03*
X54200000Y-39900000D03*
X53500000Y-39900000D03*
X53500000Y-40600000D03*
X53500000Y-41300000D03*
%TO.N,HBRIDGE-IPROPI*%
X73389028Y-44800000D03*
X83900000Y-47100000D03*
%TO.N,SWDIO*%
X75100000Y-37500000D03*
%TO.N,SWCLK*%
X74900000Y-36400000D03*
%TO.N,INA236-INT*%
X71050000Y-36797914D03*
X57700000Y-35900000D03*
%TO.N,UART-RX*%
X74700000Y-39000000D03*
%TO.N,UART-TX*%
X73250000Y-39500000D03*
%TO.N,I2C-SCL-3*%
X73500000Y-40750000D03*
%TO.N,I2C-SDA-3*%
X71750000Y-41000000D03*
%TD*%
%TA.AperFunction,Conductor*%
%TO.N,GND*%
G36*
X56215836Y-31620184D02*
G01*
X56261591Y-31672988D01*
X56271535Y-31742146D01*
X56242510Y-31805702D01*
X56236478Y-31812180D01*
X56140588Y-31908069D01*
X56140588Y-31908070D01*
X56140586Y-31908072D01*
X56100267Y-31963566D01*
X56038768Y-32048211D01*
X55960128Y-32202552D01*
X55906597Y-32367302D01*
X55879500Y-32538389D01*
X55879500Y-32711610D01*
X55895906Y-32815198D01*
X55906598Y-32882701D01*
X55960127Y-33047445D01*
X56038768Y-33201788D01*
X56140586Y-33341928D01*
X56263072Y-33464414D01*
X56403212Y-33566232D01*
X56557555Y-33644873D01*
X56722299Y-33698402D01*
X56893389Y-33725500D01*
X56893390Y-33725500D01*
X57066610Y-33725500D01*
X57066611Y-33725500D01*
X57237701Y-33698402D01*
X57402445Y-33644873D01*
X57556788Y-33566232D01*
X57696928Y-33464414D01*
X57819414Y-33341928D01*
X57921232Y-33201788D01*
X57999873Y-33047445D01*
X58053402Y-32882701D01*
X58080500Y-32711611D01*
X58080500Y-32538389D01*
X58053402Y-32367299D01*
X57999873Y-32202555D01*
X57921232Y-32048212D01*
X57819414Y-31908072D01*
X57723522Y-31812180D01*
X57690037Y-31750857D01*
X57695021Y-31681165D01*
X57736893Y-31625232D01*
X57802357Y-31600815D01*
X57811203Y-31600499D01*
X61228797Y-31600499D01*
X61295836Y-31620184D01*
X61341591Y-31672988D01*
X61351535Y-31742146D01*
X61322510Y-31805702D01*
X61316478Y-31812180D01*
X61220588Y-31908069D01*
X61220588Y-31908070D01*
X61220586Y-31908072D01*
X61180267Y-31963566D01*
X61118768Y-32048211D01*
X61040128Y-32202552D01*
X60986597Y-32367302D01*
X60959500Y-32538389D01*
X60959500Y-32711610D01*
X60975906Y-32815198D01*
X60986598Y-32882701D01*
X61040127Y-33047445D01*
X61118768Y-33201788D01*
X61220586Y-33341928D01*
X61343072Y-33464414D01*
X61483212Y-33566232D01*
X61637555Y-33644873D01*
X61802299Y-33698402D01*
X61973389Y-33725500D01*
X61973390Y-33725500D01*
X62146610Y-33725500D01*
X62146611Y-33725500D01*
X62317701Y-33698402D01*
X62482445Y-33644873D01*
X62636788Y-33566232D01*
X62776928Y-33464414D01*
X62899414Y-33341928D01*
X63001232Y-33201788D01*
X63079873Y-33047445D01*
X63133402Y-32882701D01*
X63160500Y-32711611D01*
X63160500Y-32538389D01*
X63133402Y-32367299D01*
X63079873Y-32202555D01*
X63001232Y-32048212D01*
X62899414Y-31908072D01*
X62803522Y-31812180D01*
X62770037Y-31750857D01*
X62775021Y-31681165D01*
X62816893Y-31625232D01*
X62882357Y-31600815D01*
X62891203Y-31600499D01*
X63378208Y-31600499D01*
X63445247Y-31620184D01*
X63491002Y-31672988D01*
X63500946Y-31742146D01*
X63499825Y-31748694D01*
X63499500Y-31750327D01*
X63499500Y-33499678D01*
X63514032Y-33572735D01*
X63514033Y-33572739D01*
X63514034Y-33572740D01*
X63569399Y-33655601D01*
X63652260Y-33710966D01*
X63652264Y-33710967D01*
X63725321Y-33725499D01*
X63725324Y-33725500D01*
X63725326Y-33725500D01*
X65474676Y-33725500D01*
X65474677Y-33725499D01*
X65547740Y-33710966D01*
X65630601Y-33655601D01*
X65685966Y-33572740D01*
X65700500Y-33499674D01*
X65700500Y-32527525D01*
X74849500Y-32527525D01*
X74849500Y-32672475D01*
X74859987Y-32711611D01*
X74887017Y-32812488D01*
X74959488Y-32938011D01*
X74959489Y-32938012D01*
X74959491Y-32938015D01*
X74977384Y-32955908D01*
X74983796Y-32962320D01*
X75017280Y-33023644D01*
X75012294Y-33093335D01*
X74983796Y-33137680D01*
X74959488Y-33161988D01*
X74887017Y-33287511D01*
X74887016Y-33287515D01*
X74849500Y-33427525D01*
X74849500Y-33572475D01*
X74886609Y-33710966D01*
X74887017Y-33712488D01*
X74959488Y-33838011D01*
X74959490Y-33838013D01*
X74959491Y-33838015D01*
X75061985Y-33940509D01*
X75061986Y-33940510D01*
X75061988Y-33940511D01*
X75187511Y-34012982D01*
X75187512Y-34012982D01*
X75187515Y-34012984D01*
X75327525Y-34050500D01*
X75327528Y-34050500D01*
X75472472Y-34050500D01*
X75472475Y-34050500D01*
X75612485Y-34012984D01*
X75738015Y-33940509D01*
X75840509Y-33838015D01*
X75912984Y-33712485D01*
X75950500Y-33572475D01*
X75950500Y-33427525D01*
X75943697Y-33402135D01*
X80672100Y-33402135D01*
X80672100Y-34197870D01*
X80672101Y-34197876D01*
X80678508Y-34257483D01*
X80728802Y-34392328D01*
X80728806Y-34392335D01*
X80815052Y-34507544D01*
X80815055Y-34507547D01*
X80930264Y-34593793D01*
X80930271Y-34593797D01*
X81065117Y-34644091D01*
X81065116Y-34644091D01*
X81072044Y-34644835D01*
X81124727Y-34650500D01*
X81920472Y-34650499D01*
X81980083Y-34644091D01*
X82114931Y-34593796D01*
X82230146Y-34507546D01*
X82316396Y-34392331D01*
X82366691Y-34257483D01*
X82373100Y-34197873D01*
X82373099Y-33402128D01*
X82366691Y-33342517D01*
X82366471Y-33341928D01*
X82316397Y-33207671D01*
X82316393Y-33207664D01*
X82230147Y-33092455D01*
X82230144Y-33092452D01*
X82114935Y-33006206D01*
X82114928Y-33006202D01*
X81980082Y-32955908D01*
X81980083Y-32955908D01*
X81920483Y-32949501D01*
X81920481Y-32949500D01*
X81920473Y-32949500D01*
X81920464Y-32949500D01*
X81124729Y-32949500D01*
X81124723Y-32949501D01*
X81065116Y-32955908D01*
X80930271Y-33006202D01*
X80930264Y-33006206D01*
X80815055Y-33092452D01*
X80815052Y-33092455D01*
X80728806Y-33207664D01*
X80728802Y-33207671D01*
X80678508Y-33342517D01*
X80672101Y-33402116D01*
X80672101Y-33402123D01*
X80672100Y-33402135D01*
X75943697Y-33402135D01*
X75912984Y-33287515D01*
X75863489Y-33201788D01*
X75840511Y-33161988D01*
X75840506Y-33161982D01*
X75816205Y-33137681D01*
X75782720Y-33076358D01*
X75787704Y-33006666D01*
X75816205Y-32962319D01*
X75822616Y-32955908D01*
X75840509Y-32938015D01*
X75912984Y-32812485D01*
X75950500Y-32672475D01*
X75950500Y-32527525D01*
X75912984Y-32387515D01*
X75901312Y-32367299D01*
X75840511Y-32261988D01*
X75840506Y-32261982D01*
X75738017Y-32159493D01*
X75738011Y-32159488D01*
X75612488Y-32087017D01*
X75612489Y-32087017D01*
X75601006Y-32083940D01*
X75472475Y-32049500D01*
X75327525Y-32049500D01*
X75198993Y-32083940D01*
X75187511Y-32087017D01*
X75061988Y-32159488D01*
X75061982Y-32159493D01*
X74959493Y-32261982D01*
X74959488Y-32261988D01*
X74887017Y-32387511D01*
X74887016Y-32387515D01*
X74849500Y-32527525D01*
X65700500Y-32527525D01*
X65700500Y-31750326D01*
X65700175Y-31748692D01*
X65700253Y-31747818D01*
X65699903Y-31744261D01*
X65700577Y-31744194D01*
X65706401Y-31679103D01*
X65749262Y-31623924D01*
X65815151Y-31600677D01*
X65821792Y-31600499D01*
X85837078Y-31600499D01*
X85904117Y-31620184D01*
X85949872Y-31672988D01*
X85959816Y-31742146D01*
X85937396Y-31797383D01*
X85899473Y-31849580D01*
X85816657Y-31963566D01*
X85709433Y-32174003D01*
X85636446Y-32398631D01*
X85599500Y-32631902D01*
X85599500Y-32868097D01*
X85636446Y-33101368D01*
X85709433Y-33325996D01*
X85797927Y-33499674D01*
X85816657Y-33536433D01*
X85955483Y-33727510D01*
X86122490Y-33894517D01*
X86313567Y-34033343D01*
X86412991Y-34084002D01*
X86524003Y-34140566D01*
X86524005Y-34140566D01*
X86524008Y-34140568D01*
X86644412Y-34179689D01*
X86748631Y-34213553D01*
X86981903Y-34250500D01*
X86981908Y-34250500D01*
X87218097Y-34250500D01*
X87451368Y-34213553D01*
X87675992Y-34140568D01*
X87719205Y-34118549D01*
X87787872Y-34105653D01*
X87852613Y-34131928D01*
X87892871Y-34189034D01*
X87899500Y-34229034D01*
X87899500Y-46520964D01*
X87879815Y-46588003D01*
X87827011Y-46633758D01*
X87757853Y-46643702D01*
X87719207Y-46631450D01*
X87675996Y-46609434D01*
X87675995Y-46609433D01*
X87675992Y-46609432D01*
X87583477Y-46579372D01*
X87451368Y-46536446D01*
X87218097Y-46499500D01*
X87218092Y-46499500D01*
X86981908Y-46499500D01*
X86981903Y-46499500D01*
X86748631Y-46536446D01*
X86524003Y-46609433D01*
X86313566Y-46716657D01*
X86251174Y-46761988D01*
X86122490Y-46855483D01*
X86122488Y-46855485D01*
X86122487Y-46855485D01*
X85955485Y-47022487D01*
X85955485Y-47022488D01*
X85955483Y-47022490D01*
X85895862Y-47104550D01*
X85816657Y-47213566D01*
X85709433Y-47424003D01*
X85636446Y-47648631D01*
X85599500Y-47881902D01*
X85599500Y-48118097D01*
X85636446Y-48351368D01*
X85709433Y-48575996D01*
X85816656Y-48786432D01*
X85828414Y-48802615D01*
X85851893Y-48868422D01*
X85836067Y-48936476D01*
X85785961Y-48985170D01*
X85728095Y-48999500D01*
X85419786Y-48999500D01*
X85352747Y-48979815D01*
X85306992Y-48927011D01*
X85297048Y-48857853D01*
X85310114Y-48820099D01*
X85309872Y-48819999D01*
X85311557Y-48815928D01*
X85312397Y-48813504D01*
X85312981Y-48812492D01*
X85312982Y-48812489D01*
X85312982Y-48812487D01*
X85312984Y-48812485D01*
X85350500Y-48672475D01*
X85350500Y-48527525D01*
X85312984Y-48387515D01*
X85292114Y-48351368D01*
X85240511Y-48261988D01*
X85240506Y-48261982D01*
X85138017Y-48159493D01*
X85138011Y-48159488D01*
X85012488Y-48087017D01*
X85012489Y-48087017D01*
X85001006Y-48083940D01*
X84872475Y-48049500D01*
X84727525Y-48049500D01*
X84598993Y-48083940D01*
X84587511Y-48087017D01*
X84461988Y-48159488D01*
X84461982Y-48159493D01*
X84359493Y-48261982D01*
X84359488Y-48261988D01*
X84287017Y-48387511D01*
X84287016Y-48387515D01*
X84249500Y-48527525D01*
X84249500Y-48672475D01*
X84283940Y-48801006D01*
X84287017Y-48812489D01*
X84287018Y-48812492D01*
X84287603Y-48813504D01*
X84287836Y-48814465D01*
X84290128Y-48819999D01*
X84289265Y-48820356D01*
X84304073Y-48881405D01*
X84281219Y-48947431D01*
X84226296Y-48990619D01*
X84180214Y-48999500D01*
X81812050Y-48999500D01*
X81745011Y-48979815D01*
X81699256Y-48927011D01*
X81689312Y-48857853D01*
X81704663Y-48813500D01*
X81748244Y-48738015D01*
X81762984Y-48712485D01*
X81800500Y-48572475D01*
X81800500Y-48427525D01*
X81762984Y-48287515D01*
X81748244Y-48261985D01*
X81690511Y-48161988D01*
X81690506Y-48161982D01*
X81588017Y-48059493D01*
X81588011Y-48059488D01*
X81462488Y-47987017D01*
X81462489Y-47987017D01*
X81451006Y-47983940D01*
X81322475Y-47949500D01*
X81177525Y-47949500D01*
X81048993Y-47983940D01*
X81037511Y-47987017D01*
X80911988Y-48059488D01*
X80911982Y-48059493D01*
X80809493Y-48161982D01*
X80809488Y-48161988D01*
X80737017Y-48287511D01*
X80737016Y-48287515D01*
X80699500Y-48427525D01*
X80699500Y-48572475D01*
X80737016Y-48712485D01*
X80737017Y-48712488D01*
X80795337Y-48813500D01*
X80811810Y-48881400D01*
X80788958Y-48947427D01*
X80734037Y-48990617D01*
X80687950Y-48999500D01*
X77356204Y-48999500D01*
X77289165Y-48979815D01*
X77243410Y-48927011D01*
X77233466Y-48857853D01*
X77262491Y-48794297D01*
X77268523Y-48787819D01*
X77269910Y-48786432D01*
X77339414Y-48716928D01*
X77441232Y-48576788D01*
X77519873Y-48422445D01*
X77573402Y-48257701D01*
X77600500Y-48086611D01*
X77600500Y-47913389D01*
X77573402Y-47742299D01*
X77519873Y-47577555D01*
X77441232Y-47423212D01*
X77339414Y-47283072D01*
X77333867Y-47277525D01*
X79549500Y-47277525D01*
X79549500Y-47422475D01*
X79581128Y-47540511D01*
X79587017Y-47562488D01*
X79659488Y-47688011D01*
X79659490Y-47688013D01*
X79659491Y-47688015D01*
X79761985Y-47790509D01*
X79761986Y-47790510D01*
X79761988Y-47790511D01*
X79887511Y-47862982D01*
X79887512Y-47862982D01*
X79887515Y-47862984D01*
X80027525Y-47900500D01*
X80027528Y-47900500D01*
X80172472Y-47900500D01*
X80172475Y-47900500D01*
X80312485Y-47862984D01*
X80438015Y-47790509D01*
X80540509Y-47688015D01*
X80612984Y-47562485D01*
X80650500Y-47422475D01*
X80650500Y-47277525D01*
X80612984Y-47137515D01*
X80567519Y-47058768D01*
X80540511Y-47011988D01*
X80540506Y-47011982D01*
X80438017Y-46909493D01*
X80438011Y-46909488D01*
X80312490Y-46837018D01*
X80312487Y-46837017D01*
X80312485Y-46837016D01*
X80172475Y-46799500D01*
X80027525Y-46799500D01*
X79898993Y-46833940D01*
X79887511Y-46837017D01*
X79761988Y-46909488D01*
X79761982Y-46909493D01*
X79659493Y-47011982D01*
X79659488Y-47011988D01*
X79587017Y-47137511D01*
X79587016Y-47137515D01*
X79549500Y-47277525D01*
X77333867Y-47277525D01*
X77216928Y-47160586D01*
X77076788Y-47058768D01*
X76922445Y-46980127D01*
X76757701Y-46926598D01*
X76757699Y-46926597D01*
X76757698Y-46926597D01*
X76626271Y-46905781D01*
X76586611Y-46899500D01*
X76413389Y-46899500D01*
X76373728Y-46905781D01*
X76242302Y-46926597D01*
X76077552Y-46980128D01*
X75923211Y-47058768D01*
X75843256Y-47116859D01*
X75783072Y-47160586D01*
X75783070Y-47160588D01*
X75783069Y-47160588D01*
X75660588Y-47283069D01*
X75660588Y-47283070D01*
X75660586Y-47283072D01*
X75639216Y-47312485D01*
X75558768Y-47423211D01*
X75480128Y-47577552D01*
X75480127Y-47577554D01*
X75480127Y-47577555D01*
X75456426Y-47650500D01*
X75426597Y-47742302D01*
X75399500Y-47913389D01*
X75399500Y-48086610D01*
X75415481Y-48187515D01*
X75426598Y-48257701D01*
X75480127Y-48422445D01*
X75558768Y-48576788D01*
X75660586Y-48716928D01*
X75660588Y-48716930D01*
X75731477Y-48787819D01*
X75764962Y-48849142D01*
X75759978Y-48918834D01*
X75718106Y-48974767D01*
X75652642Y-48999184D01*
X75643796Y-48999500D01*
X72276204Y-48999500D01*
X72209165Y-48979815D01*
X72163410Y-48927011D01*
X72153466Y-48857853D01*
X72182491Y-48794297D01*
X72188523Y-48787819D01*
X72189910Y-48786432D01*
X72259414Y-48716928D01*
X72361232Y-48576788D01*
X72439873Y-48422445D01*
X72493402Y-48257701D01*
X72520500Y-48086611D01*
X72520500Y-47913389D01*
X72493402Y-47742299D01*
X72439873Y-47577555D01*
X72361232Y-47423212D01*
X72259414Y-47283072D01*
X72136928Y-47160586D01*
X71996788Y-47058768D01*
X71842445Y-46980127D01*
X71677701Y-46926598D01*
X71677699Y-46926597D01*
X71677698Y-46926597D01*
X71546271Y-46905781D01*
X71506611Y-46899500D01*
X71333389Y-46899500D01*
X71293728Y-46905781D01*
X71162302Y-46926597D01*
X70997552Y-46980128D01*
X70843211Y-47058768D01*
X70763256Y-47116859D01*
X70703072Y-47160586D01*
X70703070Y-47160588D01*
X70703069Y-47160588D01*
X70580588Y-47283069D01*
X70580588Y-47283070D01*
X70580586Y-47283072D01*
X70559216Y-47312485D01*
X70478768Y-47423211D01*
X70400128Y-47577552D01*
X70400127Y-47577554D01*
X70400127Y-47577555D01*
X70376426Y-47650500D01*
X70346597Y-47742302D01*
X70319500Y-47913389D01*
X70319500Y-48086610D01*
X70335481Y-48187515D01*
X70346598Y-48257701D01*
X70400127Y-48422445D01*
X70478768Y-48576788D01*
X70580586Y-48716928D01*
X70580588Y-48716930D01*
X70651477Y-48787819D01*
X70684962Y-48849142D01*
X70679978Y-48918834D01*
X70638106Y-48974767D01*
X70572642Y-48999184D01*
X70563796Y-48999500D01*
X70104500Y-48999500D01*
X70037461Y-48979815D01*
X69991706Y-48927011D01*
X69980500Y-48875500D01*
X69980500Y-47125323D01*
X69980499Y-47125321D01*
X69965967Y-47052264D01*
X69965966Y-47052260D01*
X69949439Y-47027525D01*
X69910601Y-46969399D01*
X69827740Y-46914034D01*
X69827739Y-46914033D01*
X69827735Y-46914032D01*
X69754677Y-46899500D01*
X69754674Y-46899500D01*
X68005326Y-46899500D01*
X68005323Y-46899500D01*
X67932264Y-46914032D01*
X67932260Y-46914033D01*
X67849399Y-46969399D01*
X67794033Y-47052260D01*
X67794032Y-47052264D01*
X67779500Y-47125321D01*
X67779500Y-48875500D01*
X67759815Y-48942539D01*
X67707011Y-48988294D01*
X67655500Y-48999500D01*
X67078386Y-48999500D01*
X67011347Y-48979815D01*
X66965592Y-48927011D01*
X66955648Y-48857853D01*
X66984673Y-48794297D01*
X66990705Y-48787819D01*
X66992092Y-48786432D01*
X67040509Y-48738015D01*
X67112984Y-48612485D01*
X67150500Y-48472475D01*
X67150500Y-48327525D01*
X67112984Y-48187515D01*
X67098244Y-48161985D01*
X67040511Y-48061988D01*
X67040506Y-48061982D01*
X66938017Y-47959493D01*
X66938011Y-47959488D01*
X66812488Y-47887017D01*
X66812489Y-47887017D01*
X66793422Y-47881908D01*
X66672475Y-47849500D01*
X66527525Y-47849500D01*
X66406578Y-47881908D01*
X66387511Y-47887017D01*
X66261988Y-47959488D01*
X66261982Y-47959493D01*
X66159493Y-48061982D01*
X66159488Y-48061988D01*
X66087017Y-48187511D01*
X66087016Y-48187515D01*
X66049500Y-48327525D01*
X66049500Y-48472475D01*
X66077238Y-48575992D01*
X66087017Y-48612488D01*
X66159488Y-48738011D01*
X66159493Y-48738017D01*
X66209295Y-48787819D01*
X66242780Y-48849142D01*
X66237796Y-48918834D01*
X66195924Y-48974767D01*
X66130460Y-48999184D01*
X66121614Y-48999500D01*
X52871905Y-48999500D01*
X52804866Y-48979815D01*
X52759111Y-48927011D01*
X52749167Y-48857853D01*
X52771586Y-48802615D01*
X52777629Y-48794297D01*
X52783343Y-48786433D01*
X52890568Y-48575992D01*
X52963553Y-48351368D01*
X52973667Y-48287511D01*
X53000500Y-48118097D01*
X53000500Y-47881902D01*
X52963553Y-47648631D01*
X52916810Y-47504773D01*
X52890568Y-47424008D01*
X52890566Y-47424005D01*
X52890566Y-47424003D01*
X52833744Y-47312485D01*
X52783343Y-47213567D01*
X52644517Y-47022490D01*
X52477510Y-46855483D01*
X52301391Y-46727525D01*
X81549500Y-46727525D01*
X81549500Y-46872475D01*
X81587016Y-47012485D01*
X81587017Y-47012488D01*
X81659488Y-47138011D01*
X81659490Y-47138013D01*
X81659491Y-47138015D01*
X81761985Y-47240509D01*
X81761986Y-47240510D01*
X81761988Y-47240511D01*
X81887511Y-47312982D01*
X81887512Y-47312982D01*
X81887515Y-47312984D01*
X82027525Y-47350500D01*
X82027528Y-47350500D01*
X82172472Y-47350500D01*
X82172475Y-47350500D01*
X82312485Y-47312984D01*
X82438015Y-47240509D01*
X82540509Y-47138015D01*
X82604301Y-47027525D01*
X83349500Y-47027525D01*
X83349500Y-47172475D01*
X83379135Y-47283072D01*
X83387017Y-47312488D01*
X83459488Y-47438011D01*
X83459490Y-47438013D01*
X83459491Y-47438015D01*
X83561985Y-47540509D01*
X83561986Y-47540510D01*
X83561988Y-47540511D01*
X83687511Y-47612982D01*
X83687512Y-47612982D01*
X83687515Y-47612984D01*
X83827525Y-47650500D01*
X83827528Y-47650500D01*
X83972472Y-47650500D01*
X83972475Y-47650500D01*
X84112485Y-47612984D01*
X84238015Y-47540509D01*
X84340509Y-47438015D01*
X84412984Y-47312485D01*
X84450500Y-47172475D01*
X84450500Y-47027525D01*
X84412984Y-46887515D01*
X84407186Y-46877473D01*
X84340511Y-46761988D01*
X84340506Y-46761982D01*
X84238017Y-46659493D01*
X84238011Y-46659488D01*
X84112488Y-46587017D01*
X84112489Y-46587017D01*
X84101006Y-46583940D01*
X83972475Y-46549500D01*
X83827525Y-46549500D01*
X83698993Y-46583940D01*
X83687511Y-46587017D01*
X83561988Y-46659488D01*
X83561982Y-46659493D01*
X83459493Y-46761982D01*
X83459488Y-46761988D01*
X83387017Y-46887511D01*
X83387016Y-46887515D01*
X83349500Y-47027525D01*
X82604301Y-47027525D01*
X82612984Y-47012485D01*
X82650500Y-46872475D01*
X82650500Y-46727525D01*
X82612984Y-46587515D01*
X82612696Y-46587017D01*
X82540511Y-46461988D01*
X82540506Y-46461982D01*
X82438017Y-46359493D01*
X82438011Y-46359488D01*
X82312488Y-46287017D01*
X82312489Y-46287017D01*
X82301006Y-46283940D01*
X82172475Y-46249500D01*
X82027525Y-46249500D01*
X81898993Y-46283940D01*
X81887511Y-46287017D01*
X81761988Y-46359488D01*
X81761982Y-46359493D01*
X81659493Y-46461982D01*
X81659488Y-46461988D01*
X81587017Y-46587511D01*
X81587016Y-46587515D01*
X81549500Y-46727525D01*
X52301391Y-46727525D01*
X52286433Y-46716657D01*
X52226189Y-46685961D01*
X52075996Y-46609433D01*
X51851368Y-46536446D01*
X51618097Y-46499500D01*
X51618092Y-46499500D01*
X51381908Y-46499500D01*
X51381903Y-46499500D01*
X51148631Y-46536446D01*
X50924003Y-46609433D01*
X50713567Y-46716656D01*
X50697385Y-46728414D01*
X50631578Y-46751893D01*
X50563524Y-46736067D01*
X50514830Y-46685961D01*
X50500500Y-46628095D01*
X50500500Y-45402525D01*
X70974500Y-45402525D01*
X70974500Y-45547475D01*
X71005184Y-45661988D01*
X71012017Y-45687488D01*
X71084488Y-45813011D01*
X71084490Y-45813013D01*
X71084491Y-45813015D01*
X71186985Y-45915509D01*
X71186986Y-45915510D01*
X71186988Y-45915511D01*
X71312511Y-45987982D01*
X71312512Y-45987982D01*
X71312515Y-45987984D01*
X71452525Y-46025500D01*
X71452528Y-46025500D01*
X71597472Y-46025500D01*
X71597475Y-46025500D01*
X71737485Y-45987984D01*
X71842203Y-45927525D01*
X73699500Y-45927525D01*
X73699500Y-46072475D01*
X73731128Y-46190511D01*
X73737017Y-46212488D01*
X73809488Y-46338011D01*
X73809490Y-46338013D01*
X73809491Y-46338015D01*
X73911985Y-46440509D01*
X73911986Y-46440510D01*
X73911988Y-46440511D01*
X74037511Y-46512982D01*
X74037512Y-46512982D01*
X74037515Y-46512984D01*
X74177525Y-46550500D01*
X74177528Y-46550500D01*
X74322472Y-46550500D01*
X74322475Y-46550500D01*
X74462485Y-46512984D01*
X74588015Y-46440509D01*
X74690509Y-46338015D01*
X74762984Y-46212485D01*
X74800500Y-46072475D01*
X74800500Y-45927525D01*
X74762984Y-45787515D01*
X74705233Y-45687488D01*
X74699481Y-45677525D01*
X75199500Y-45677525D01*
X75199500Y-45822475D01*
X75227649Y-45927527D01*
X75237017Y-45962488D01*
X75309488Y-46088011D01*
X75309490Y-46088013D01*
X75309491Y-46088015D01*
X75411985Y-46190509D01*
X75411986Y-46190510D01*
X75411988Y-46190511D01*
X75537511Y-46262982D01*
X75537512Y-46262982D01*
X75537515Y-46262984D01*
X75677525Y-46300500D01*
X75677528Y-46300500D01*
X75822472Y-46300500D01*
X75822475Y-46300500D01*
X75962485Y-46262984D01*
X76088015Y-46190509D01*
X76190509Y-46088015D01*
X76262984Y-45962485D01*
X76300500Y-45822475D01*
X76300500Y-45677525D01*
X76262984Y-45537515D01*
X76236899Y-45492335D01*
X76190511Y-45411988D01*
X76190506Y-45411982D01*
X76088017Y-45309493D01*
X76088011Y-45309488D01*
X75962488Y-45237017D01*
X75962489Y-45237017D01*
X75951006Y-45233940D01*
X75822475Y-45199500D01*
X75677525Y-45199500D01*
X75548993Y-45233940D01*
X75537511Y-45237017D01*
X75411988Y-45309488D01*
X75411982Y-45309493D01*
X75309493Y-45411982D01*
X75309488Y-45411988D01*
X75237017Y-45537511D01*
X75237016Y-45537515D01*
X75199500Y-45677525D01*
X74699481Y-45677525D01*
X74690511Y-45661988D01*
X74690506Y-45661982D01*
X74588017Y-45559493D01*
X74588011Y-45559488D01*
X74462488Y-45487017D01*
X74462489Y-45487017D01*
X74451006Y-45483940D01*
X74322475Y-45449500D01*
X74177525Y-45449500D01*
X74048993Y-45483940D01*
X74037511Y-45487017D01*
X73911988Y-45559488D01*
X73911982Y-45559493D01*
X73809493Y-45661982D01*
X73809488Y-45661988D01*
X73737017Y-45787511D01*
X73737016Y-45787515D01*
X73699500Y-45927525D01*
X71842203Y-45927525D01*
X71863015Y-45915509D01*
X71965509Y-45813015D01*
X72037984Y-45687485D01*
X72075500Y-45547475D01*
X72075500Y-45402525D01*
X72037984Y-45262515D01*
X71966101Y-45138011D01*
X71965511Y-45136988D01*
X71965506Y-45136982D01*
X71863017Y-45034493D01*
X71863011Y-45034488D01*
X71737488Y-44962017D01*
X71737489Y-44962017D01*
X71726006Y-44958940D01*
X71597475Y-44924500D01*
X71452525Y-44924500D01*
X71323993Y-44958940D01*
X71312511Y-44962017D01*
X71186988Y-45034488D01*
X71186982Y-45034493D01*
X71084493Y-45136982D01*
X71084488Y-45136988D01*
X71012017Y-45262511D01*
X71012016Y-45262515D01*
X70974500Y-45402525D01*
X50500500Y-45402525D01*
X50500500Y-44727525D01*
X72838528Y-44727525D01*
X72838528Y-44872475D01*
X72862521Y-44962016D01*
X72876045Y-45012488D01*
X72948516Y-45138011D01*
X72948518Y-45138013D01*
X72948519Y-45138015D01*
X73051013Y-45240509D01*
X73051014Y-45240510D01*
X73051016Y-45240511D01*
X73176539Y-45312982D01*
X73176540Y-45312982D01*
X73176543Y-45312984D01*
X73316553Y-45350500D01*
X73316556Y-45350500D01*
X73461500Y-45350500D01*
X73461503Y-45350500D01*
X73601513Y-45312984D01*
X73727043Y-45240509D01*
X73829537Y-45138015D01*
X73902012Y-45012485D01*
X73939528Y-44872475D01*
X73939528Y-44727525D01*
X73902012Y-44587515D01*
X73829537Y-44461985D01*
X73727043Y-44359491D01*
X73727041Y-44359490D01*
X73727039Y-44359488D01*
X73601516Y-44287017D01*
X73601517Y-44287017D01*
X73590034Y-44283940D01*
X73461503Y-44249500D01*
X73316553Y-44249500D01*
X73188021Y-44283940D01*
X73176539Y-44287017D01*
X73051016Y-44359488D01*
X73051010Y-44359493D01*
X72948521Y-44461982D01*
X72948516Y-44461988D01*
X72876045Y-44587511D01*
X72876044Y-44587515D01*
X72838528Y-44727525D01*
X50500500Y-44727525D01*
X50500500Y-44102135D01*
X84849500Y-44102135D01*
X84849500Y-45297870D01*
X84849501Y-45297876D01*
X84855908Y-45357483D01*
X84906202Y-45492328D01*
X84906206Y-45492335D01*
X84992452Y-45607544D01*
X84992455Y-45607547D01*
X85107664Y-45693793D01*
X85107671Y-45693797D01*
X85242517Y-45744091D01*
X85242516Y-45744091D01*
X85249444Y-45744835D01*
X85302127Y-45750500D01*
X86497872Y-45750499D01*
X86557483Y-45744091D01*
X86692331Y-45693796D01*
X86807546Y-45607546D01*
X86893796Y-45492331D01*
X86944091Y-45357483D01*
X86950500Y-45297873D01*
X86950499Y-44102128D01*
X86944091Y-44042517D01*
X86893796Y-43907669D01*
X86893795Y-43907668D01*
X86893793Y-43907664D01*
X86807547Y-43792455D01*
X86807544Y-43792452D01*
X86692335Y-43706206D01*
X86692328Y-43706202D01*
X86557482Y-43655908D01*
X86557483Y-43655908D01*
X86497883Y-43649501D01*
X86497881Y-43649500D01*
X86497873Y-43649500D01*
X86497864Y-43649500D01*
X85302129Y-43649500D01*
X85302123Y-43649501D01*
X85242516Y-43655908D01*
X85107671Y-43706202D01*
X85107664Y-43706206D01*
X84992455Y-43792452D01*
X84992452Y-43792455D01*
X84906206Y-43907664D01*
X84906202Y-43907671D01*
X84855908Y-44042517D01*
X84849501Y-44102116D01*
X84849501Y-44102123D01*
X84849500Y-44102135D01*
X50500500Y-44102135D01*
X50500500Y-42520131D01*
X50520185Y-42453092D01*
X50572989Y-42407337D01*
X50642147Y-42397393D01*
X50697383Y-42419812D01*
X50823212Y-42511232D01*
X50977555Y-42589873D01*
X51142299Y-42643402D01*
X51313389Y-42670500D01*
X51313390Y-42670500D01*
X51486610Y-42670500D01*
X51486611Y-42670500D01*
X51657701Y-42643402D01*
X51822445Y-42589873D01*
X51976788Y-42511232D01*
X52116928Y-42409414D01*
X52239414Y-42286928D01*
X52318900Y-42177525D01*
X62949500Y-42177525D01*
X62949500Y-42322475D01*
X62972239Y-42407337D01*
X62987017Y-42462488D01*
X63059488Y-42588011D01*
X63059489Y-42588012D01*
X63059491Y-42588015D01*
X63161985Y-42690509D01*
X63161986Y-42690510D01*
X63161988Y-42690511D01*
X63287511Y-42762982D01*
X63287512Y-42762982D01*
X63287515Y-42762984D01*
X63427525Y-42800500D01*
X63427528Y-42800500D01*
X63572472Y-42800500D01*
X63572475Y-42800500D01*
X63712485Y-42762984D01*
X63838015Y-42690509D01*
X63940509Y-42588015D01*
X64012984Y-42462485D01*
X64050500Y-42322475D01*
X64050500Y-42177526D01*
X68724190Y-42177526D01*
X68724190Y-42322476D01*
X68750272Y-42419813D01*
X68761707Y-42462489D01*
X68834178Y-42588012D01*
X68834180Y-42588014D01*
X68834181Y-42588016D01*
X68936675Y-42690510D01*
X68936676Y-42690511D01*
X68936678Y-42690512D01*
X69062201Y-42762983D01*
X69062202Y-42762983D01*
X69062205Y-42762985D01*
X69202215Y-42800501D01*
X69202218Y-42800501D01*
X69347162Y-42800501D01*
X69347165Y-42800501D01*
X69487175Y-42762985D01*
X69612705Y-42690510D01*
X69715199Y-42588016D01*
X69787674Y-42462486D01*
X69825190Y-42322476D01*
X69825190Y-42177526D01*
X69787674Y-42037516D01*
X69773510Y-42012984D01*
X69715201Y-41911989D01*
X69715196Y-41911983D01*
X69612707Y-41809494D01*
X69612701Y-41809489D01*
X69487178Y-41737018D01*
X69487179Y-41737018D01*
X69475696Y-41733941D01*
X69347165Y-41699501D01*
X69202215Y-41699501D01*
X69073683Y-41733941D01*
X69062201Y-41737018D01*
X68936678Y-41809489D01*
X68936672Y-41809494D01*
X68834183Y-41911983D01*
X68834178Y-41911989D01*
X68761707Y-42037512D01*
X68761706Y-42037516D01*
X68724190Y-42177526D01*
X64050500Y-42177526D01*
X64050500Y-42177525D01*
X64012984Y-42037515D01*
X63964138Y-41952912D01*
X63940511Y-41911988D01*
X63940510Y-41911986D01*
X63940509Y-41911985D01*
X63838015Y-41809491D01*
X63838012Y-41809489D01*
X63838011Y-41809488D01*
X63712488Y-41737017D01*
X63712489Y-41737017D01*
X63701006Y-41733940D01*
X63572475Y-41699500D01*
X63427525Y-41699500D01*
X63298993Y-41733940D01*
X63287511Y-41737017D01*
X63161988Y-41809488D01*
X63161982Y-41809493D01*
X63059493Y-41911982D01*
X63059488Y-41911988D01*
X62987017Y-42037511D01*
X62987016Y-42037515D01*
X62949500Y-42177525D01*
X52318900Y-42177525D01*
X52341232Y-42146788D01*
X52419873Y-41992445D01*
X52473402Y-41827701D01*
X52500500Y-41656611D01*
X52500500Y-41483389D01*
X52473402Y-41312299D01*
X52419873Y-41147555D01*
X52341232Y-40993212D01*
X52239414Y-40853072D01*
X52116928Y-40730586D01*
X51976788Y-40628768D01*
X51859811Y-40569166D01*
X51822447Y-40550128D01*
X51822446Y-40550127D01*
X51822445Y-40550127D01*
X51657701Y-40496598D01*
X51657699Y-40496597D01*
X51657698Y-40496597D01*
X51526271Y-40475781D01*
X51486611Y-40469500D01*
X51313389Y-40469500D01*
X51273728Y-40475781D01*
X51142302Y-40496597D01*
X50977552Y-40550128D01*
X50823208Y-40628770D01*
X50697385Y-40720186D01*
X50631579Y-40743666D01*
X50563525Y-40727841D01*
X50514830Y-40677735D01*
X50500500Y-40619868D01*
X50500500Y-39980131D01*
X50520185Y-39913092D01*
X50572989Y-39867337D01*
X50642147Y-39857393D01*
X50697383Y-39879812D01*
X50823212Y-39971232D01*
X50977555Y-40049873D01*
X51142299Y-40103402D01*
X51313389Y-40130500D01*
X51313390Y-40130500D01*
X51486610Y-40130500D01*
X51486611Y-40130500D01*
X51657701Y-40103402D01*
X51822445Y-40049873D01*
X51976788Y-39971232D01*
X52116928Y-39869414D01*
X52158817Y-39827525D01*
X52949500Y-39827525D01*
X52949500Y-39972475D01*
X52980184Y-40086988D01*
X52987017Y-40112488D01*
X53030614Y-40188000D01*
X53047087Y-40255900D01*
X53030614Y-40312000D01*
X52987017Y-40387511D01*
X52987016Y-40387515D01*
X52949500Y-40527525D01*
X52949500Y-40672475D01*
X52980815Y-40789342D01*
X52987017Y-40812488D01*
X53030614Y-40888000D01*
X53047087Y-40955900D01*
X53030614Y-41012000D01*
X52987017Y-41087511D01*
X52987016Y-41087515D01*
X52949500Y-41227525D01*
X52949500Y-41372475D01*
X52972332Y-41457684D01*
X52987017Y-41512488D01*
X53059488Y-41638011D01*
X53059490Y-41638013D01*
X53059491Y-41638015D01*
X53161985Y-41740509D01*
X53161986Y-41740510D01*
X53161988Y-41740511D01*
X53287511Y-41812982D01*
X53287512Y-41812982D01*
X53287515Y-41812984D01*
X53427525Y-41850500D01*
X53427528Y-41850500D01*
X53572472Y-41850500D01*
X53572475Y-41850500D01*
X53712485Y-41812984D01*
X53838015Y-41740509D01*
X53940509Y-41638015D01*
X54012984Y-41512485D01*
X54050500Y-41372475D01*
X54050500Y-41274500D01*
X54053050Y-41265814D01*
X54051762Y-41256853D01*
X54062740Y-41232812D01*
X54070185Y-41207461D01*
X54077025Y-41201533D01*
X54080787Y-41193297D01*
X54103021Y-41179007D01*
X54122989Y-41161706D01*
X54133503Y-41159418D01*
X54139565Y-41155523D01*
X54174500Y-41150500D01*
X54225500Y-41150500D01*
X54292539Y-41170185D01*
X54338294Y-41222989D01*
X54349500Y-41274500D01*
X54349500Y-41372475D01*
X54372332Y-41457684D01*
X54387017Y-41512488D01*
X54459488Y-41638011D01*
X54459490Y-41638013D01*
X54459491Y-41638015D01*
X54561985Y-41740509D01*
X54561986Y-41740510D01*
X54561988Y-41740511D01*
X54687511Y-41812982D01*
X54687512Y-41812982D01*
X54687515Y-41812984D01*
X54827525Y-41850500D01*
X54827528Y-41850500D01*
X54972472Y-41850500D01*
X54972475Y-41850500D01*
X55112485Y-41812984D01*
X55238015Y-41740509D01*
X55340509Y-41638015D01*
X55412984Y-41512485D01*
X55450500Y-41372475D01*
X55450500Y-41227525D01*
X55412984Y-41087515D01*
X55369384Y-41011998D01*
X55366608Y-41000555D01*
X55359743Y-40990990D01*
X55358522Y-40967228D01*
X55352912Y-40944101D01*
X55356673Y-40931203D01*
X55356160Y-40921212D01*
X55368964Y-40889056D01*
X55369156Y-40888398D01*
X55369216Y-40888291D01*
X55412984Y-40812485D01*
X55413312Y-40811259D01*
X55417884Y-40803273D01*
X55437607Y-40784326D01*
X55454768Y-40763027D01*
X55462440Y-40760472D01*
X55468273Y-40754870D01*
X55495110Y-40749594D01*
X55521059Y-40740955D01*
X55528894Y-40742953D01*
X55536830Y-40741394D01*
X55562259Y-40751465D01*
X55588761Y-40758226D01*
X55594272Y-40764144D01*
X55601791Y-40767122D01*
X55617738Y-40789342D01*
X55636377Y-40809357D01*
X55638476Y-40818238D01*
X55642529Y-40823885D01*
X55643283Y-40838574D01*
X55649500Y-40864875D01*
X55649500Y-40872475D01*
X55687016Y-41012485D01*
X55687017Y-41012488D01*
X55759488Y-41138011D01*
X55759490Y-41138013D01*
X55759491Y-41138015D01*
X55861985Y-41240509D01*
X55861986Y-41240510D01*
X55861988Y-41240511D01*
X55987511Y-41312982D01*
X55987512Y-41312982D01*
X55987515Y-41312984D01*
X56127525Y-41350500D01*
X56127528Y-41350500D01*
X56272472Y-41350500D01*
X56272475Y-41350500D01*
X56412485Y-41312984D01*
X56538002Y-41240516D01*
X56605899Y-41224044D01*
X56661996Y-41240515D01*
X56787515Y-41312984D01*
X56927525Y-41350500D01*
X56927528Y-41350500D01*
X57025500Y-41350500D01*
X57092539Y-41370185D01*
X57138294Y-41422989D01*
X57149500Y-41474500D01*
X57149500Y-41572475D01*
X57183537Y-41699500D01*
X57187017Y-41712488D01*
X57259488Y-41838011D01*
X57259490Y-41838013D01*
X57259491Y-41838015D01*
X57361985Y-41940509D01*
X57361986Y-41940510D01*
X57361988Y-41940511D01*
X57487511Y-42012982D01*
X57487512Y-42012982D01*
X57487515Y-42012984D01*
X57627525Y-42050500D01*
X57627528Y-42050500D01*
X57772472Y-42050500D01*
X57772475Y-42050500D01*
X57912485Y-42012984D01*
X57988001Y-41969384D01*
X58055899Y-41952912D01*
X58111998Y-41969384D01*
X58187515Y-42012984D01*
X58327525Y-42050500D01*
X58327528Y-42050500D01*
X58472472Y-42050500D01*
X58472475Y-42050500D01*
X58612485Y-42012984D01*
X58688001Y-41969384D01*
X58755899Y-41952912D01*
X58811998Y-41969384D01*
X58887515Y-42012984D01*
X59027525Y-42050500D01*
X59027528Y-42050500D01*
X59172473Y-42050500D01*
X59172475Y-42050500D01*
X59312485Y-42012984D01*
X59438015Y-41940509D01*
X59540509Y-41838015D01*
X59612984Y-41712485D01*
X59650500Y-41572475D01*
X59650500Y-41427525D01*
X59612984Y-41287515D01*
X59569384Y-41211998D01*
X59552912Y-41144101D01*
X59569384Y-41088001D01*
X59612984Y-41012485D01*
X59650500Y-40872475D01*
X59650500Y-40834709D01*
X62126258Y-40834709D01*
X62126258Y-40979659D01*
X62155293Y-41088017D01*
X62163775Y-41119672D01*
X62236246Y-41245195D01*
X62236248Y-41245197D01*
X62236249Y-41245199D01*
X62338743Y-41347693D01*
X62338744Y-41347694D01*
X62338746Y-41347695D01*
X62464269Y-41420166D01*
X62464270Y-41420166D01*
X62464273Y-41420168D01*
X62604283Y-41457684D01*
X62604286Y-41457684D01*
X62749230Y-41457684D01*
X62749233Y-41457684D01*
X62889243Y-41420168D01*
X63014773Y-41347693D01*
X63117267Y-41245199D01*
X63189742Y-41119669D01*
X63227258Y-40979659D01*
X63227258Y-40834709D01*
X63189742Y-40694699D01*
X63170856Y-40661988D01*
X63117269Y-40569172D01*
X63117264Y-40569166D01*
X63014775Y-40466677D01*
X63014773Y-40466675D01*
X62889243Y-40394200D01*
X62749233Y-40356684D01*
X62604283Y-40356684D01*
X62487415Y-40387999D01*
X62464269Y-40394201D01*
X62338746Y-40466672D01*
X62338740Y-40466677D01*
X62236251Y-40569166D01*
X62236246Y-40569172D01*
X62163775Y-40694695D01*
X62163774Y-40694699D01*
X62126258Y-40834709D01*
X59650500Y-40834709D01*
X59650500Y-40727525D01*
X59612984Y-40587515D01*
X59569384Y-40511998D01*
X59552912Y-40444101D01*
X59569384Y-40388001D01*
X59589866Y-40352525D01*
X69124500Y-40352525D01*
X69124500Y-40497475D01*
X69159680Y-40628768D01*
X69162017Y-40637488D01*
X69234488Y-40763011D01*
X69234490Y-40763013D01*
X69234491Y-40763015D01*
X69336985Y-40865509D01*
X69336986Y-40865510D01*
X69336988Y-40865511D01*
X69462511Y-40937982D01*
X69462512Y-40937982D01*
X69462515Y-40937984D01*
X69602525Y-40975500D01*
X69602528Y-40975500D01*
X69747472Y-40975500D01*
X69747475Y-40975500D01*
X69887485Y-40937984D01*
X69905600Y-40927525D01*
X71199500Y-40927525D01*
X71199500Y-41072475D01*
X71237016Y-41212485D01*
X71237017Y-41212488D01*
X71309488Y-41338011D01*
X71309490Y-41338013D01*
X71309491Y-41338015D01*
X71411985Y-41440509D01*
X71411986Y-41440510D01*
X71411988Y-41440511D01*
X71537511Y-41512982D01*
X71537512Y-41512982D01*
X71537515Y-41512984D01*
X71677525Y-41550500D01*
X71677528Y-41550500D01*
X71822472Y-41550500D01*
X71822475Y-41550500D01*
X71962485Y-41512984D01*
X72088015Y-41440509D01*
X72190509Y-41338015D01*
X72262984Y-41212485D01*
X72300500Y-41072475D01*
X72300500Y-40927525D01*
X72262984Y-40787515D01*
X72244136Y-40754870D01*
X72190511Y-40661988D01*
X72190506Y-40661982D01*
X72088017Y-40559493D01*
X72088011Y-40559488D01*
X71962488Y-40487017D01*
X71962489Y-40487017D01*
X71951006Y-40483940D01*
X71822475Y-40449500D01*
X71677525Y-40449500D01*
X71548993Y-40483940D01*
X71537511Y-40487017D01*
X71411988Y-40559488D01*
X71411982Y-40559493D01*
X71309493Y-40661982D01*
X71309488Y-40661988D01*
X71237017Y-40787511D01*
X71237016Y-40787515D01*
X71199500Y-40927525D01*
X69905600Y-40927525D01*
X70013015Y-40865509D01*
X70115509Y-40763015D01*
X70187984Y-40637485D01*
X70225500Y-40497475D01*
X70225500Y-40352525D01*
X70187984Y-40212515D01*
X70173830Y-40188000D01*
X70115511Y-40086988D01*
X70115506Y-40086982D01*
X70013017Y-39984493D01*
X70013011Y-39984488D01*
X69887488Y-39912017D01*
X69887489Y-39912017D01*
X69876006Y-39908940D01*
X69747475Y-39874500D01*
X69602525Y-39874500D01*
X69473993Y-39908940D01*
X69462511Y-39912017D01*
X69336988Y-39984488D01*
X69336982Y-39984493D01*
X69234493Y-40086982D01*
X69234488Y-40086988D01*
X69162017Y-40212511D01*
X69162016Y-40212515D01*
X69124500Y-40352525D01*
X59589866Y-40352525D01*
X59612984Y-40312485D01*
X59650500Y-40172475D01*
X59650500Y-40027525D01*
X59612984Y-39887515D01*
X59608537Y-39879813D01*
X59540511Y-39761988D01*
X59540506Y-39761982D01*
X59438017Y-39659493D01*
X59438011Y-39659488D01*
X59312488Y-39587017D01*
X59312489Y-39587017D01*
X59301006Y-39583940D01*
X59172475Y-39549500D01*
X59027525Y-39549500D01*
X58898993Y-39583940D01*
X58887511Y-39587017D01*
X58812000Y-39630614D01*
X58744100Y-39647087D01*
X58688000Y-39630614D01*
X58612488Y-39587017D01*
X58612489Y-39587017D01*
X58601006Y-39583940D01*
X58472475Y-39549500D01*
X58327525Y-39549500D01*
X58198993Y-39583940D01*
X58187511Y-39587017D01*
X58112000Y-39630614D01*
X58044100Y-39647087D01*
X57988000Y-39630614D01*
X57912488Y-39587017D01*
X57912489Y-39587017D01*
X57901006Y-39583940D01*
X57772475Y-39549500D01*
X57627525Y-39549500D01*
X57498993Y-39583940D01*
X57487511Y-39587017D01*
X57412000Y-39630614D01*
X57344100Y-39647087D01*
X57288000Y-39630614D01*
X57212488Y-39587017D01*
X57212489Y-39587017D01*
X57201006Y-39583940D01*
X57072475Y-39549500D01*
X56927525Y-39549500D01*
X56798993Y-39583940D01*
X56787511Y-39587017D01*
X56687000Y-39645048D01*
X56619100Y-39661521D01*
X56563000Y-39645048D01*
X56462488Y-39587017D01*
X56462489Y-39587017D01*
X56451006Y-39583940D01*
X56322475Y-39549500D01*
X56177525Y-39549500D01*
X56048993Y-39583940D01*
X56037511Y-39587017D01*
X55911988Y-39659488D01*
X55911982Y-39659493D01*
X55809493Y-39761982D01*
X55809488Y-39761988D01*
X55737017Y-39887511D01*
X55737016Y-39887515D01*
X55699500Y-40027525D01*
X55699500Y-40172475D01*
X55737016Y-40312485D01*
X55737017Y-40312486D01*
X55755614Y-40344697D01*
X55758408Y-40356217D01*
X55765307Y-40365854D01*
X55766493Y-40389542D01*
X55772087Y-40412597D01*
X55768298Y-40425559D01*
X55768803Y-40435636D01*
X55755893Y-40467996D01*
X55755766Y-40468434D01*
X55755475Y-40468940D01*
X55687016Y-40587515D01*
X55686676Y-40588781D01*
X55682039Y-40596860D01*
X55662340Y-40615735D01*
X55645218Y-40636982D01*
X55637478Y-40639557D01*
X55631590Y-40645200D01*
X55604813Y-40650428D01*
X55578924Y-40659045D01*
X55571021Y-40657027D01*
X55563016Y-40658591D01*
X55537663Y-40648513D01*
X55511225Y-40641765D01*
X55505666Y-40635794D01*
X55498088Y-40632782D01*
X55482207Y-40610596D01*
X55463615Y-40590626D01*
X55461497Y-40581664D01*
X55457420Y-40575968D01*
X55456685Y-40561299D01*
X55450500Y-40535124D01*
X55450500Y-40527527D01*
X55450500Y-40527525D01*
X55412984Y-40387515D01*
X55369384Y-40311998D01*
X55352912Y-40244101D01*
X55369385Y-40188000D01*
X55412984Y-40112485D01*
X55450500Y-39972475D01*
X55450500Y-39827525D01*
X55412984Y-39687515D01*
X55397976Y-39661521D01*
X55340511Y-39561988D01*
X55340506Y-39561982D01*
X55238017Y-39459493D01*
X55238011Y-39459488D01*
X55182650Y-39427525D01*
X72699500Y-39427525D01*
X72699500Y-39572475D01*
X72737016Y-39712485D01*
X72737017Y-39712488D01*
X72809488Y-39838011D01*
X72809490Y-39838013D01*
X72809491Y-39838015D01*
X72911985Y-39940509D01*
X73037515Y-40012984D01*
X73177525Y-40050500D01*
X73177529Y-40050500D01*
X73184138Y-40052271D01*
X73243799Y-40088636D01*
X73274328Y-40151483D01*
X73266033Y-40220859D01*
X73221548Y-40274736D01*
X73214047Y-40279432D01*
X73161988Y-40309489D01*
X73161982Y-40309493D01*
X73059493Y-40411982D01*
X73059488Y-40411988D01*
X72987017Y-40537511D01*
X72987016Y-40537515D01*
X72949500Y-40677525D01*
X72949500Y-40822475D01*
X72982090Y-40944101D01*
X72987017Y-40962488D01*
X73059488Y-41088011D01*
X73059490Y-41088013D01*
X73059491Y-41088015D01*
X73161985Y-41190509D01*
X73161986Y-41190510D01*
X73161988Y-41190511D01*
X73287511Y-41262982D01*
X73287512Y-41262982D01*
X73287515Y-41262984D01*
X73427525Y-41300500D01*
X73427528Y-41300500D01*
X73572472Y-41300500D01*
X73572475Y-41300500D01*
X73712485Y-41262984D01*
X73838015Y-41190509D01*
X73940509Y-41088015D01*
X74012984Y-40962485D01*
X74050500Y-40822475D01*
X74050500Y-40677525D01*
X74012984Y-40537515D01*
X74007217Y-40527527D01*
X73940511Y-40411988D01*
X73940506Y-40411982D01*
X73838017Y-40309493D01*
X73838011Y-40309488D01*
X73712488Y-40237017D01*
X73712489Y-40237017D01*
X73694215Y-40232120D01*
X73572475Y-40199500D01*
X73572473Y-40199500D01*
X73565860Y-40197728D01*
X73506200Y-40161363D01*
X73475671Y-40098516D01*
X73483966Y-40029140D01*
X73528451Y-39975262D01*
X73535955Y-39970566D01*
X73538496Y-39969098D01*
X73588015Y-39940509D01*
X73690509Y-39838015D01*
X73762984Y-39712485D01*
X73800500Y-39572475D01*
X73800500Y-39427525D01*
X73762984Y-39287515D01*
X73719665Y-39212485D01*
X73690511Y-39161988D01*
X73690506Y-39161982D01*
X73588017Y-39059493D01*
X73588015Y-39059491D01*
X73462485Y-38987016D01*
X73322475Y-38949500D01*
X73177525Y-38949500D01*
X73048993Y-38983940D01*
X73037511Y-38987017D01*
X72911988Y-39059488D01*
X72911982Y-39059493D01*
X72809493Y-39161982D01*
X72809488Y-39161988D01*
X72737017Y-39287511D01*
X72737016Y-39287515D01*
X72699500Y-39427525D01*
X55182650Y-39427525D01*
X55112488Y-39387017D01*
X55112489Y-39387017D01*
X55101006Y-39383940D01*
X54972475Y-39349500D01*
X54827525Y-39349500D01*
X54698993Y-39383940D01*
X54687511Y-39387017D01*
X54612000Y-39430614D01*
X54544100Y-39447087D01*
X54488000Y-39430614D01*
X54412488Y-39387017D01*
X54412489Y-39387017D01*
X54401006Y-39383940D01*
X54272475Y-39349500D01*
X54127525Y-39349500D01*
X53998993Y-39383940D01*
X53987511Y-39387017D01*
X53912000Y-39430614D01*
X53844100Y-39447087D01*
X53788000Y-39430614D01*
X53712488Y-39387017D01*
X53712489Y-39387017D01*
X53701006Y-39383940D01*
X53572475Y-39349500D01*
X53427525Y-39349500D01*
X53298993Y-39383940D01*
X53287511Y-39387017D01*
X53161988Y-39459488D01*
X53161982Y-39459493D01*
X53059493Y-39561982D01*
X53059488Y-39561988D01*
X52987017Y-39687511D01*
X52987016Y-39687515D01*
X52949500Y-39827525D01*
X52158817Y-39827525D01*
X52239414Y-39746928D01*
X52341232Y-39606788D01*
X52419873Y-39452445D01*
X52473402Y-39287701D01*
X52500500Y-39116611D01*
X52500500Y-38943389D01*
X52497987Y-38927525D01*
X74149500Y-38927525D01*
X74149500Y-39072475D01*
X74187016Y-39212485D01*
X74187017Y-39212488D01*
X74259488Y-39338011D01*
X74259490Y-39338013D01*
X74259491Y-39338015D01*
X74361985Y-39440509D01*
X74361986Y-39440510D01*
X74361988Y-39440511D01*
X74487511Y-39512982D01*
X74487512Y-39512982D01*
X74487515Y-39512984D01*
X74627525Y-39550500D01*
X74627528Y-39550500D01*
X74772472Y-39550500D01*
X74772475Y-39550500D01*
X74912485Y-39512984D01*
X75038015Y-39440509D01*
X75140509Y-39338015D01*
X75212984Y-39212485D01*
X75250500Y-39072475D01*
X75250500Y-38927525D01*
X75216901Y-38802135D01*
X84749500Y-38802135D01*
X84749500Y-39997870D01*
X84749501Y-39997876D01*
X84755908Y-40057483D01*
X84806202Y-40192328D01*
X84806206Y-40192335D01*
X84892452Y-40307544D01*
X84892455Y-40307547D01*
X85007664Y-40393793D01*
X85007671Y-40393797D01*
X85142517Y-40444091D01*
X85142516Y-40444091D01*
X85149444Y-40444835D01*
X85202127Y-40450500D01*
X86397872Y-40450499D01*
X86457483Y-40444091D01*
X86592331Y-40393796D01*
X86707546Y-40307546D01*
X86793796Y-40192331D01*
X86844091Y-40057483D01*
X86850500Y-39997873D01*
X86850499Y-38802128D01*
X86844091Y-38742517D01*
X86814053Y-38661982D01*
X86793797Y-38607671D01*
X86793793Y-38607664D01*
X86707547Y-38492455D01*
X86707544Y-38492452D01*
X86592335Y-38406206D01*
X86592328Y-38406202D01*
X86457482Y-38355908D01*
X86457483Y-38355908D01*
X86397883Y-38349501D01*
X86397881Y-38349500D01*
X86397873Y-38349500D01*
X86397864Y-38349500D01*
X85202129Y-38349500D01*
X85202123Y-38349501D01*
X85142516Y-38355908D01*
X85007671Y-38406202D01*
X85007664Y-38406206D01*
X84892455Y-38492452D01*
X84892452Y-38492455D01*
X84806206Y-38607664D01*
X84806202Y-38607671D01*
X84755908Y-38742517D01*
X84751071Y-38787511D01*
X84749501Y-38802123D01*
X84749500Y-38802135D01*
X75216901Y-38802135D01*
X75212984Y-38787515D01*
X75187004Y-38742517D01*
X75140511Y-38661988D01*
X75140506Y-38661982D01*
X75038017Y-38559493D01*
X75038011Y-38559488D01*
X74912488Y-38487017D01*
X74912489Y-38487017D01*
X74901006Y-38483940D01*
X74772475Y-38449500D01*
X74627525Y-38449500D01*
X74498993Y-38483940D01*
X74487511Y-38487017D01*
X74361988Y-38559488D01*
X74361982Y-38559493D01*
X74259493Y-38661982D01*
X74259488Y-38661988D01*
X74187017Y-38787511D01*
X74187016Y-38787515D01*
X74149500Y-38927525D01*
X52497987Y-38927525D01*
X52473402Y-38772299D01*
X52419873Y-38607555D01*
X52341232Y-38453212D01*
X52239414Y-38313072D01*
X52116928Y-38190586D01*
X51976788Y-38088768D01*
X51901682Y-38050500D01*
X51822447Y-38010128D01*
X51822446Y-38010127D01*
X51822445Y-38010127D01*
X51657701Y-37956598D01*
X51657699Y-37956597D01*
X51657698Y-37956597D01*
X51526271Y-37935781D01*
X51486611Y-37929500D01*
X51313389Y-37929500D01*
X51273728Y-37935781D01*
X51142302Y-37956597D01*
X50977552Y-38010128D01*
X50823208Y-38088770D01*
X50697385Y-38180186D01*
X50631579Y-38203666D01*
X50563525Y-38187841D01*
X50514830Y-38137735D01*
X50500500Y-38079868D01*
X50500500Y-37440131D01*
X50520185Y-37373092D01*
X50572989Y-37327337D01*
X50642147Y-37317393D01*
X50697383Y-37339812D01*
X50823212Y-37431232D01*
X50977555Y-37509873D01*
X51142299Y-37563402D01*
X51313389Y-37590500D01*
X51313390Y-37590500D01*
X51486610Y-37590500D01*
X51486611Y-37590500D01*
X51657701Y-37563402D01*
X51768118Y-37527525D01*
X57149500Y-37527525D01*
X57149500Y-37672475D01*
X57160221Y-37712485D01*
X57187017Y-37812488D01*
X57259488Y-37938011D01*
X57259490Y-37938013D01*
X57259491Y-37938015D01*
X57361985Y-38040509D01*
X57361986Y-38040510D01*
X57361988Y-38040511D01*
X57487511Y-38112982D01*
X57487512Y-38112982D01*
X57487515Y-38112984D01*
X57627525Y-38150500D01*
X57627528Y-38150500D01*
X57772472Y-38150500D01*
X57772475Y-38150500D01*
X57912485Y-38112984D01*
X58038015Y-38040509D01*
X58140509Y-37938015D01*
X58212984Y-37812485D01*
X58250500Y-37672475D01*
X58250500Y-37527525D01*
X58212984Y-37387515D01*
X58179439Y-37329414D01*
X58140511Y-37261988D01*
X58140506Y-37261982D01*
X58038017Y-37159493D01*
X58038011Y-37159488D01*
X57912488Y-37087017D01*
X57912489Y-37087017D01*
X57901006Y-37083940D01*
X57772475Y-37049500D01*
X57627525Y-37049500D01*
X57498993Y-37083940D01*
X57487511Y-37087017D01*
X57361988Y-37159488D01*
X57361982Y-37159493D01*
X57259493Y-37261982D01*
X57259488Y-37261988D01*
X57187017Y-37387511D01*
X57187016Y-37387515D01*
X57149500Y-37527525D01*
X51768118Y-37527525D01*
X51822445Y-37509873D01*
X51976788Y-37431232D01*
X52116928Y-37329414D01*
X52239414Y-37206928D01*
X52341232Y-37066788D01*
X52419873Y-36912445D01*
X52473402Y-36747701D01*
X52476928Y-36725439D01*
X70499500Y-36725439D01*
X70499500Y-36870389D01*
X70537016Y-37010399D01*
X70537017Y-37010402D01*
X70609488Y-37135925D01*
X70609490Y-37135927D01*
X70609491Y-37135929D01*
X70711985Y-37238423D01*
X70711986Y-37238424D01*
X70711988Y-37238425D01*
X70837511Y-37310896D01*
X70837512Y-37310896D01*
X70837515Y-37310898D01*
X70977525Y-37348414D01*
X70977528Y-37348414D01*
X71122472Y-37348414D01*
X71122475Y-37348414D01*
X71262485Y-37310898D01*
X71388015Y-37238423D01*
X71464820Y-37161617D01*
X71526139Y-37128135D01*
X71595831Y-37133119D01*
X71651765Y-37174990D01*
X71676182Y-37240454D01*
X71661331Y-37308727D01*
X71659885Y-37311301D01*
X71587017Y-37437511D01*
X71587016Y-37437515D01*
X71549500Y-37577525D01*
X71549500Y-37722475D01*
X71580460Y-37838017D01*
X71587017Y-37862488D01*
X71659488Y-37988011D01*
X71659490Y-37988013D01*
X71659491Y-37988015D01*
X71761985Y-38090509D01*
X71761986Y-38090510D01*
X71761988Y-38090511D01*
X71887511Y-38162982D01*
X71887512Y-38162982D01*
X71887515Y-38162984D01*
X72027525Y-38200500D01*
X72027528Y-38200500D01*
X72172472Y-38200500D01*
X72172475Y-38200500D01*
X72312485Y-38162984D01*
X72438015Y-38090509D01*
X72540509Y-37988015D01*
X72612984Y-37862485D01*
X72650500Y-37722475D01*
X72650500Y-37577525D01*
X72612984Y-37437515D01*
X72609356Y-37431232D01*
X72540511Y-37311988D01*
X72540506Y-37311982D01*
X72438017Y-37209493D01*
X72438015Y-37209491D01*
X72355738Y-37161988D01*
X72312340Y-37136932D01*
X72264124Y-37086365D01*
X72250902Y-37017758D01*
X72276870Y-36952893D01*
X72286647Y-36941876D01*
X72290509Y-36938015D01*
X72362984Y-36812485D01*
X72400500Y-36672475D01*
X72400500Y-36527525D01*
X72362984Y-36387515D01*
X72362982Y-36387511D01*
X72359454Y-36381400D01*
X72359453Y-36381399D01*
X72335843Y-36340506D01*
X72328348Y-36327525D01*
X74349500Y-36327525D01*
X74349500Y-36472475D01*
X74387016Y-36612485D01*
X74387017Y-36612488D01*
X74459488Y-36738011D01*
X74459490Y-36738013D01*
X74459491Y-36738015D01*
X74561985Y-36840509D01*
X74686585Y-36912447D01*
X74687659Y-36913067D01*
X74735875Y-36963634D01*
X74749098Y-37032241D01*
X74723130Y-37097106D01*
X74713341Y-37108135D01*
X74659488Y-37161988D01*
X74587017Y-37287511D01*
X74587016Y-37287515D01*
X74549500Y-37427525D01*
X74549500Y-37572475D01*
X74587016Y-37712485D01*
X74587017Y-37712488D01*
X74659488Y-37838011D01*
X74659490Y-37838013D01*
X74659491Y-37838015D01*
X74761985Y-37940509D01*
X74761986Y-37940510D01*
X74761988Y-37940511D01*
X74887511Y-38012982D01*
X74887512Y-38012982D01*
X74887515Y-38012984D01*
X75027525Y-38050500D01*
X75027528Y-38050500D01*
X75172472Y-38050500D01*
X75172475Y-38050500D01*
X75312485Y-38012984D01*
X75438015Y-37940509D01*
X75540509Y-37838015D01*
X75612984Y-37712485D01*
X75650500Y-37572475D01*
X75650500Y-37427525D01*
X75612984Y-37287515D01*
X75598244Y-37261985D01*
X75540511Y-37161988D01*
X75540506Y-37161982D01*
X75438017Y-37059493D01*
X75438015Y-37059491D01*
X75352991Y-37010402D01*
X75312340Y-36986932D01*
X75264124Y-36936365D01*
X75250902Y-36867758D01*
X75276870Y-36802893D01*
X75286643Y-36791880D01*
X75340509Y-36738015D01*
X75404301Y-36627525D01*
X78349500Y-36627525D01*
X78349500Y-36772475D01*
X78376693Y-36873959D01*
X78387017Y-36912488D01*
X78459488Y-37038011D01*
X78459490Y-37038013D01*
X78459491Y-37038015D01*
X78561985Y-37140509D01*
X78561986Y-37140510D01*
X78561988Y-37140511D01*
X78687509Y-37212981D01*
X78687511Y-37212982D01*
X78687515Y-37212984D01*
X78687518Y-37212984D01*
X78694574Y-37215907D01*
X78748981Y-37259744D01*
X78771052Y-37326036D01*
X78766906Y-37362565D01*
X78749500Y-37427525D01*
X78749500Y-37572475D01*
X78787016Y-37712485D01*
X78787017Y-37712488D01*
X78859488Y-37838011D01*
X78859490Y-37838013D01*
X78859491Y-37838015D01*
X78961985Y-37940509D01*
X78961986Y-37940510D01*
X78961988Y-37940511D01*
X79087511Y-38012982D01*
X79087512Y-38012982D01*
X79087515Y-38012984D01*
X79227525Y-38050500D01*
X79227528Y-38050500D01*
X79372472Y-38050500D01*
X79372475Y-38050500D01*
X79512485Y-38012984D01*
X79638015Y-37940509D01*
X79740509Y-37838015D01*
X79812984Y-37712485D01*
X79850500Y-37572475D01*
X79850500Y-37427525D01*
X79812984Y-37287515D01*
X79798244Y-37261985D01*
X79740511Y-37161988D01*
X79740506Y-37161982D01*
X79638017Y-37059493D01*
X79638011Y-37059488D01*
X79512486Y-36987016D01*
X79505421Y-36984090D01*
X79451015Y-36940252D01*
X79428947Y-36873959D01*
X79433093Y-36837436D01*
X79450500Y-36772475D01*
X79450500Y-36627525D01*
X79412984Y-36487515D01*
X79391613Y-36450500D01*
X79340511Y-36361988D01*
X79340506Y-36361982D01*
X79238017Y-36259493D01*
X79238011Y-36259488D01*
X79112488Y-36187017D01*
X79112489Y-36187017D01*
X79101006Y-36183940D01*
X78972475Y-36149500D01*
X78827525Y-36149500D01*
X78698993Y-36183940D01*
X78687511Y-36187017D01*
X78561988Y-36259488D01*
X78561982Y-36259493D01*
X78459493Y-36361982D01*
X78459488Y-36361988D01*
X78387017Y-36487511D01*
X78387016Y-36487515D01*
X78349500Y-36627525D01*
X75404301Y-36627525D01*
X75412984Y-36612485D01*
X75450500Y-36472475D01*
X75450500Y-36327525D01*
X75412984Y-36187515D01*
X75412696Y-36187017D01*
X75340511Y-36061988D01*
X75340506Y-36061982D01*
X75238017Y-35959493D01*
X75238011Y-35959488D01*
X75112488Y-35887017D01*
X75112489Y-35887017D01*
X75101006Y-35883940D01*
X74972475Y-35849500D01*
X74827525Y-35849500D01*
X74698993Y-35883940D01*
X74687511Y-35887017D01*
X74561988Y-35959488D01*
X74561982Y-35959493D01*
X74459493Y-36061982D01*
X74459488Y-36061988D01*
X74387017Y-36187511D01*
X74387016Y-36187515D01*
X74349500Y-36327525D01*
X72328348Y-36327525D01*
X72290509Y-36261985D01*
X72188015Y-36159491D01*
X72188013Y-36159490D01*
X72188011Y-36159488D01*
X72062488Y-36087017D01*
X72062489Y-36087017D01*
X72051006Y-36083940D01*
X71922475Y-36049500D01*
X71777525Y-36049500D01*
X71648993Y-36083940D01*
X71637511Y-36087017D01*
X71511988Y-36159488D01*
X71511981Y-36159494D01*
X71408415Y-36263059D01*
X71347092Y-36296543D01*
X71277400Y-36291558D01*
X71269480Y-36287827D01*
X71262489Y-36284931D01*
X71251006Y-36281854D01*
X71122475Y-36247414D01*
X70977525Y-36247414D01*
X70848993Y-36281854D01*
X70837511Y-36284931D01*
X70711988Y-36357402D01*
X70711982Y-36357407D01*
X70609493Y-36459896D01*
X70609488Y-36459902D01*
X70537017Y-36585425D01*
X70537016Y-36585429D01*
X70499500Y-36725439D01*
X52476928Y-36725439D01*
X52500500Y-36576611D01*
X52500500Y-36403389D01*
X52473402Y-36232299D01*
X52419873Y-36067555D01*
X52341232Y-35913212D01*
X52341230Y-35913209D01*
X52341229Y-35913207D01*
X52326029Y-35892286D01*
X52326027Y-35892284D01*
X52278978Y-35827527D01*
X52278977Y-35827525D01*
X57149500Y-35827525D01*
X57149500Y-35972475D01*
X57174976Y-36067552D01*
X57187017Y-36112488D01*
X57259488Y-36238011D01*
X57259490Y-36238013D01*
X57259491Y-36238015D01*
X57361985Y-36340509D01*
X57361986Y-36340510D01*
X57361988Y-36340511D01*
X57487511Y-36412982D01*
X57487512Y-36412982D01*
X57487515Y-36412984D01*
X57627525Y-36450500D01*
X57627528Y-36450500D01*
X57772472Y-36450500D01*
X57772475Y-36450500D01*
X57912485Y-36412984D01*
X58038015Y-36340509D01*
X58140509Y-36238015D01*
X58212984Y-36112485D01*
X58250500Y-35972475D01*
X58250500Y-35827525D01*
X58212984Y-35687515D01*
X58212982Y-35687511D01*
X58209454Y-35681400D01*
X58209453Y-35681399D01*
X58190078Y-35647841D01*
X58178349Y-35627525D01*
X59649500Y-35627525D01*
X59649500Y-35772475D01*
X59670139Y-35849500D01*
X59687017Y-35912488D01*
X59759488Y-36038011D01*
X59759490Y-36038013D01*
X59759491Y-36038015D01*
X59861985Y-36140509D01*
X59861986Y-36140510D01*
X59861988Y-36140511D01*
X59987511Y-36212982D01*
X59987512Y-36212982D01*
X59987515Y-36212984D01*
X60127525Y-36250500D01*
X60127528Y-36250500D01*
X60272472Y-36250500D01*
X60272475Y-36250500D01*
X60412485Y-36212984D01*
X60538015Y-36140509D01*
X60640509Y-36038015D01*
X60712984Y-35912485D01*
X60750500Y-35772475D01*
X60750500Y-35627525D01*
X60712984Y-35487515D01*
X60696805Y-35459493D01*
X60640511Y-35361988D01*
X60640506Y-35361982D01*
X60538017Y-35259493D01*
X60538011Y-35259488D01*
X60412488Y-35187017D01*
X60412489Y-35187017D01*
X60401006Y-35183940D01*
X60272475Y-35149500D01*
X60127525Y-35149500D01*
X59998993Y-35183940D01*
X59987511Y-35187017D01*
X59861988Y-35259488D01*
X59861982Y-35259493D01*
X59759493Y-35361982D01*
X59759488Y-35361988D01*
X59687017Y-35487511D01*
X59687016Y-35487515D01*
X59649500Y-35627525D01*
X58178349Y-35627525D01*
X58140509Y-35561985D01*
X58038015Y-35459491D01*
X58038013Y-35459490D01*
X58038011Y-35459488D01*
X57912488Y-35387017D01*
X57912489Y-35387017D01*
X57901006Y-35383940D01*
X57772475Y-35349500D01*
X57627525Y-35349500D01*
X57498993Y-35383940D01*
X57487511Y-35387017D01*
X57361988Y-35459488D01*
X57361982Y-35459493D01*
X57259493Y-35561982D01*
X57259488Y-35561988D01*
X57187017Y-35687511D01*
X57187016Y-35687515D01*
X57149500Y-35827525D01*
X52278977Y-35827525D01*
X52239414Y-35773072D01*
X52116928Y-35650586D01*
X51976788Y-35548768D01*
X51822445Y-35470127D01*
X51657701Y-35416598D01*
X51657699Y-35416597D01*
X51657698Y-35416597D01*
X51526271Y-35395781D01*
X51486611Y-35389500D01*
X51313389Y-35389500D01*
X51273728Y-35395781D01*
X51142302Y-35416597D01*
X50977552Y-35470128D01*
X50823208Y-35548770D01*
X50697385Y-35640186D01*
X50631579Y-35663666D01*
X50563525Y-35647841D01*
X50514830Y-35597735D01*
X50500500Y-35539868D01*
X50500500Y-34527525D01*
X60549500Y-34527525D01*
X60549500Y-34672475D01*
X60587016Y-34812485D01*
X60587017Y-34812488D01*
X60659488Y-34938011D01*
X60659490Y-34938013D01*
X60659491Y-34938015D01*
X60761985Y-35040509D01*
X60761986Y-35040510D01*
X60761988Y-35040511D01*
X60887511Y-35112982D01*
X60887512Y-35112982D01*
X60887515Y-35112984D01*
X61027525Y-35150500D01*
X61027528Y-35150500D01*
X61172472Y-35150500D01*
X61172475Y-35150500D01*
X61312485Y-35112984D01*
X61438015Y-35040509D01*
X61540509Y-34938015D01*
X61604301Y-34827525D01*
X68049500Y-34827525D01*
X68049500Y-34972475D01*
X68087016Y-35112485D01*
X68087017Y-35112488D01*
X68159488Y-35238011D01*
X68159490Y-35238013D01*
X68159491Y-35238015D01*
X68261985Y-35340509D01*
X68261986Y-35340510D01*
X68261988Y-35340511D01*
X68387511Y-35412982D01*
X68387512Y-35412982D01*
X68387515Y-35412984D01*
X68527525Y-35450500D01*
X68527528Y-35450500D01*
X68672472Y-35450500D01*
X68672475Y-35450500D01*
X68812485Y-35412984D01*
X68938015Y-35340509D01*
X69040509Y-35238015D01*
X69112984Y-35112485D01*
X69150500Y-34972475D01*
X69150500Y-34827525D01*
X69112984Y-34687515D01*
X69091613Y-34650500D01*
X69040511Y-34561988D01*
X69040506Y-34561982D01*
X68938017Y-34459493D01*
X68938011Y-34459488D01*
X68812488Y-34387017D01*
X68812489Y-34387017D01*
X68801006Y-34383940D01*
X68672475Y-34349500D01*
X68527525Y-34349500D01*
X68398993Y-34383940D01*
X68387511Y-34387017D01*
X68261988Y-34459488D01*
X68261982Y-34459493D01*
X68159493Y-34561982D01*
X68159488Y-34561988D01*
X68087017Y-34687511D01*
X68087016Y-34687515D01*
X68049500Y-34827525D01*
X61604301Y-34827525D01*
X61612984Y-34812485D01*
X61650500Y-34672475D01*
X61650500Y-34527525D01*
X61612984Y-34387515D01*
X61612696Y-34387017D01*
X61540511Y-34261988D01*
X61540506Y-34261982D01*
X61438017Y-34159493D01*
X61438011Y-34159488D01*
X61312488Y-34087017D01*
X61312489Y-34087017D01*
X61301006Y-34083940D01*
X61172475Y-34049500D01*
X61027525Y-34049500D01*
X60898993Y-34083940D01*
X60887511Y-34087017D01*
X60761988Y-34159488D01*
X60761982Y-34159493D01*
X60659493Y-34261982D01*
X60659488Y-34261988D01*
X60587017Y-34387511D01*
X60585724Y-34392335D01*
X60549500Y-34527525D01*
X50500500Y-34527525D01*
X50500500Y-34121904D01*
X50520185Y-34054865D01*
X50572989Y-34009110D01*
X50642147Y-33999166D01*
X50697387Y-34021587D01*
X50713567Y-34033343D01*
X50810915Y-34082944D01*
X50924003Y-34140566D01*
X50924005Y-34140566D01*
X50924008Y-34140568D01*
X51044412Y-34179689D01*
X51148631Y-34213553D01*
X51381903Y-34250500D01*
X51381908Y-34250500D01*
X51618097Y-34250500D01*
X51851368Y-34213553D01*
X51899595Y-34197883D01*
X52075992Y-34140568D01*
X52286433Y-34033343D01*
X52477510Y-33894517D01*
X52644517Y-33727510D01*
X52783343Y-33536433D01*
X52890568Y-33325992D01*
X52963553Y-33101368D01*
X52972093Y-33047447D01*
X53000500Y-32868097D01*
X53000500Y-32631902D01*
X52963553Y-32398631D01*
X52927776Y-32288522D01*
X52890568Y-32174008D01*
X52890566Y-32174005D01*
X52890566Y-32174003D01*
X52783342Y-31963566D01*
X52743021Y-31908069D01*
X52662603Y-31797384D01*
X52639124Y-31731578D01*
X52654949Y-31663524D01*
X52705055Y-31614829D01*
X52762922Y-31600499D01*
X56148797Y-31600499D01*
X56215836Y-31620184D01*
G37*
%TD.AperFunction*%
%TD*%
M02*
