%TF.GenerationSoftware,KiCad,Pcbnew,9.0.4*%
%TF.CreationDate,2026-03-07T22:54:14-05:00*%
%TF.ProjectId,SERVO-ESC,53455256-4f2d-4455-9343-2e6b69636164,rev?*%
%TF.SameCoordinates,Original*%
%TF.FileFunction,Copper,L4,Bot*%
%TF.FilePolarity,Positive*%
%FSLAX46Y46*%
G04 Gerber Fmt 4.6, Leading zero omitted, Abs format (unit mm)*
G04 Created by KiCad (PCBNEW 9.0.4) date 2026-03-07 22:54:14*
%MOMM*%
%LPD*%
G01*
G04 APERTURE LIST*
%TA.AperFunction,ComponentPad*%
%ADD10R,1.350000X1.350000*%
%TD*%
%TA.AperFunction,ComponentPad*%
%ADD11C,1.350000*%
%TD*%
%TA.AperFunction,ViaPad*%
%ADD12C,0.600000*%
%TD*%
G04 APERTURE END LIST*
D10*
%TO.P,J3,1,Pin_1*%
%TO.N,GND*%
X116800000Y-43000000D03*
D11*
%TO.P,J3,2,Pin_2*%
%TO.N,I2C-SCL-3*%
X118800000Y-43000000D03*
%TO.P,J3,3,Pin_3*%
%TO.N,I2C-SDA-3*%
X120800000Y-43000000D03*
%TO.P,J3,4,Pin_4*%
%TO.N,+3.3V*%
X122800000Y-43000000D03*
%TD*%
D12*
%TO.N,+3.3V*%
X119000000Y-37700000D03*
X120950000Y-37700000D03*
%TD*%
%TA.AperFunction,Conductor*%
%TO.N,GND*%
G36*
X122693811Y-35220185D02*
G01*
X122739566Y-35272989D01*
X122749510Y-35342147D01*
X122744703Y-35362819D01*
X122730290Y-35407173D01*
X122699500Y-35601577D01*
X122699500Y-35798422D01*
X122730290Y-35992826D01*
X122791117Y-36180029D01*
X122880476Y-36355405D01*
X122996172Y-36514646D01*
X123135354Y-36653828D01*
X123294595Y-36769524D01*
X123377455Y-36811743D01*
X123469970Y-36858882D01*
X123469972Y-36858882D01*
X123469975Y-36858884D01*
X123570317Y-36891487D01*
X123657173Y-36919709D01*
X123851578Y-36950500D01*
X123851583Y-36950500D01*
X124048422Y-36950500D01*
X124242826Y-36919709D01*
X124287181Y-36905297D01*
X124357022Y-36903301D01*
X124416855Y-36939381D01*
X124447684Y-37002082D01*
X124449500Y-37023228D01*
X124449500Y-43326070D01*
X124429815Y-43393109D01*
X124377011Y-43438864D01*
X124307853Y-43448808D01*
X124269205Y-43436555D01*
X124180029Y-43391117D01*
X123992826Y-43330290D01*
X123814929Y-43302114D01*
X123751794Y-43272185D01*
X123714863Y-43212873D01*
X123712710Y-43155451D01*
X123725500Y-43091154D01*
X123725500Y-42908846D01*
X123725500Y-42908843D01*
X123689934Y-42730047D01*
X123689933Y-42730046D01*
X123689933Y-42730042D01*
X123685439Y-42719192D01*
X123620168Y-42561612D01*
X123620166Y-42561608D01*
X123518886Y-42410032D01*
X123518880Y-42410024D01*
X123389975Y-42281119D01*
X123389967Y-42281113D01*
X123238391Y-42179833D01*
X123238387Y-42179831D01*
X123069962Y-42110068D01*
X123069952Y-42110065D01*
X122891156Y-42074500D01*
X122891154Y-42074500D01*
X122708846Y-42074500D01*
X122708844Y-42074500D01*
X122530047Y-42110065D01*
X122530037Y-42110068D01*
X122361612Y-42179831D01*
X122361608Y-42179833D01*
X122210032Y-42281113D01*
X122210024Y-42281119D01*
X122081119Y-42410024D01*
X122081113Y-42410032D01*
X121979833Y-42561608D01*
X121914561Y-42719192D01*
X121870720Y-42773595D01*
X121804426Y-42795660D01*
X121736727Y-42778381D01*
X121689116Y-42727244D01*
X121685439Y-42719192D01*
X121620166Y-42561608D01*
X121518886Y-42410032D01*
X121518880Y-42410024D01*
X121389975Y-42281119D01*
X121389967Y-42281113D01*
X121238391Y-42179833D01*
X121238387Y-42179831D01*
X121069962Y-42110068D01*
X121069952Y-42110065D01*
X120891156Y-42074500D01*
X120891154Y-42074500D01*
X120708846Y-42074500D01*
X120708844Y-42074500D01*
X120530047Y-42110065D01*
X120530037Y-42110068D01*
X120361612Y-42179831D01*
X120361608Y-42179833D01*
X120210032Y-42281113D01*
X120210024Y-42281119D01*
X120081119Y-42410024D01*
X120081113Y-42410032D01*
X119979833Y-42561608D01*
X119914561Y-42719192D01*
X119870720Y-42773595D01*
X119804426Y-42795660D01*
X119736727Y-42778381D01*
X119689116Y-42727244D01*
X119685439Y-42719192D01*
X119620166Y-42561608D01*
X119518886Y-42410032D01*
X119518880Y-42410024D01*
X119389975Y-42281119D01*
X119389967Y-42281113D01*
X119238391Y-42179833D01*
X119238387Y-42179831D01*
X119069962Y-42110068D01*
X119069952Y-42110065D01*
X118891156Y-42074500D01*
X118891154Y-42074500D01*
X118708846Y-42074500D01*
X118708844Y-42074500D01*
X118530047Y-42110065D01*
X118530037Y-42110068D01*
X118361612Y-42179831D01*
X118361608Y-42179833D01*
X118210032Y-42281113D01*
X118210024Y-42281119D01*
X118081119Y-42410024D01*
X118081113Y-42410032D01*
X117979833Y-42561608D01*
X117979831Y-42561612D01*
X117910068Y-42730037D01*
X117910065Y-42730047D01*
X117874500Y-42908843D01*
X117874500Y-42908846D01*
X117874500Y-43091154D01*
X117874500Y-43091156D01*
X117874499Y-43091156D01*
X117910065Y-43269952D01*
X117910068Y-43269962D01*
X117979831Y-43438387D01*
X117979833Y-43438391D01*
X118081113Y-43589967D01*
X118081119Y-43589975D01*
X118210024Y-43718880D01*
X118210032Y-43718886D01*
X118361608Y-43820166D01*
X118361612Y-43820168D01*
X118530037Y-43889931D01*
X118530042Y-43889933D01*
X118530046Y-43889933D01*
X118530047Y-43889934D01*
X118708843Y-43925500D01*
X118708846Y-43925500D01*
X118891156Y-43925500D01*
X119011445Y-43901572D01*
X119069958Y-43889933D01*
X119238389Y-43820167D01*
X119238391Y-43820166D01*
X119365324Y-43735352D01*
X119389972Y-43718883D01*
X119518883Y-43589972D01*
X119612776Y-43449451D01*
X119620166Y-43438391D01*
X119620168Y-43438387D01*
X119685439Y-43280808D01*
X119729280Y-43226404D01*
X119795574Y-43204339D01*
X119863273Y-43221618D01*
X119910884Y-43272755D01*
X119914561Y-43280808D01*
X119979831Y-43438387D01*
X119979833Y-43438391D01*
X120081113Y-43589967D01*
X120081119Y-43589975D01*
X120210024Y-43718880D01*
X120210032Y-43718886D01*
X120361608Y-43820166D01*
X120361612Y-43820168D01*
X120530037Y-43889931D01*
X120530042Y-43889933D01*
X120530046Y-43889933D01*
X120530047Y-43889934D01*
X120708843Y-43925500D01*
X120708846Y-43925500D01*
X120891156Y-43925500D01*
X121011445Y-43901572D01*
X121069958Y-43889933D01*
X121238389Y-43820167D01*
X121238391Y-43820166D01*
X121365324Y-43735352D01*
X121389972Y-43718883D01*
X121518883Y-43589972D01*
X121612776Y-43449451D01*
X121620166Y-43438391D01*
X121620168Y-43438387D01*
X121685439Y-43280808D01*
X121729280Y-43226404D01*
X121795574Y-43204339D01*
X121863273Y-43221618D01*
X121910884Y-43272755D01*
X121914561Y-43280808D01*
X121979831Y-43438387D01*
X121979833Y-43438391D01*
X122081113Y-43589967D01*
X122081119Y-43589975D01*
X122210024Y-43718880D01*
X122210032Y-43718886D01*
X122361608Y-43820166D01*
X122361612Y-43820168D01*
X122491002Y-43873762D01*
X122545406Y-43917602D01*
X122567471Y-43983896D01*
X122554037Y-44044614D01*
X122541118Y-44069970D01*
X122541116Y-44069974D01*
X122480290Y-44257173D01*
X122449500Y-44451577D01*
X122449500Y-44648422D01*
X122480290Y-44842826D01*
X122541117Y-45030029D01*
X122586555Y-45119205D01*
X122599451Y-45187875D01*
X122573174Y-45252615D01*
X122516068Y-45292872D01*
X122476070Y-45299500D01*
X117423930Y-45299500D01*
X117356891Y-45279815D01*
X117311136Y-45227011D01*
X117301192Y-45157853D01*
X117313445Y-45119205D01*
X117358882Y-45030029D01*
X117358882Y-45030028D01*
X117358884Y-45030025D01*
X117419709Y-44842826D01*
X117450500Y-44648422D01*
X117450500Y-44451577D01*
X117419709Y-44257173D01*
X117358882Y-44069970D01*
X117311743Y-43977455D01*
X117269524Y-43894595D01*
X117153828Y-43735354D01*
X117014646Y-43596172D01*
X116855405Y-43480476D01*
X116793253Y-43448808D01*
X116680029Y-43391117D01*
X116492826Y-43330290D01*
X116298422Y-43299500D01*
X116298417Y-43299500D01*
X116101583Y-43299500D01*
X116101578Y-43299500D01*
X115907173Y-43330290D01*
X115719970Y-43391117D01*
X115630795Y-43436555D01*
X115562125Y-43449451D01*
X115497385Y-43423174D01*
X115457128Y-43366068D01*
X115450500Y-43326070D01*
X115450500Y-37627525D01*
X118449500Y-37627525D01*
X118449500Y-37772475D01*
X118487016Y-37912485D01*
X118487017Y-37912488D01*
X118559488Y-38038011D01*
X118559490Y-38038013D01*
X118559491Y-38038015D01*
X118661985Y-38140509D01*
X118661986Y-38140510D01*
X118661988Y-38140511D01*
X118787511Y-38212982D01*
X118787512Y-38212982D01*
X118787515Y-38212984D01*
X118927525Y-38250500D01*
X118927528Y-38250500D01*
X119072472Y-38250500D01*
X119072475Y-38250500D01*
X119212485Y-38212984D01*
X119338015Y-38140509D01*
X119440509Y-38038015D01*
X119512984Y-37912485D01*
X119550500Y-37772475D01*
X119550500Y-37627525D01*
X120399500Y-37627525D01*
X120399500Y-37772475D01*
X120437016Y-37912485D01*
X120437017Y-37912488D01*
X120509488Y-38038011D01*
X120509490Y-38038013D01*
X120509491Y-38038015D01*
X120611985Y-38140509D01*
X120611986Y-38140510D01*
X120611988Y-38140511D01*
X120737511Y-38212982D01*
X120737512Y-38212982D01*
X120737515Y-38212984D01*
X120877525Y-38250500D01*
X120877528Y-38250500D01*
X121022472Y-38250500D01*
X121022475Y-38250500D01*
X121162485Y-38212984D01*
X121288015Y-38140509D01*
X121390509Y-38038015D01*
X121462984Y-37912485D01*
X121500500Y-37772475D01*
X121500500Y-37627525D01*
X121462984Y-37487515D01*
X121390509Y-37361985D01*
X121288015Y-37259491D01*
X121288013Y-37259490D01*
X121288011Y-37259488D01*
X121162488Y-37187017D01*
X121162489Y-37187017D01*
X121151006Y-37183940D01*
X121022475Y-37149500D01*
X120877525Y-37149500D01*
X120748993Y-37183940D01*
X120737511Y-37187017D01*
X120611988Y-37259488D01*
X120611982Y-37259493D01*
X120509493Y-37361982D01*
X120509488Y-37361988D01*
X120437017Y-37487511D01*
X120437016Y-37487515D01*
X120399500Y-37627525D01*
X119550500Y-37627525D01*
X119512984Y-37487515D01*
X119440509Y-37361985D01*
X119338015Y-37259491D01*
X119338013Y-37259490D01*
X119338011Y-37259488D01*
X119212488Y-37187017D01*
X119212489Y-37187017D01*
X119201006Y-37183940D01*
X119072475Y-37149500D01*
X118927525Y-37149500D01*
X118798993Y-37183940D01*
X118787511Y-37187017D01*
X118661988Y-37259488D01*
X118661982Y-37259493D01*
X118559493Y-37361982D01*
X118559488Y-37361988D01*
X118487017Y-37487511D01*
X118487016Y-37487515D01*
X118449500Y-37627525D01*
X115450500Y-37627525D01*
X115450500Y-37023228D01*
X115470185Y-36956189D01*
X115522989Y-36910434D01*
X115592147Y-36900490D01*
X115612819Y-36905297D01*
X115657173Y-36919709D01*
X115851578Y-36950500D01*
X115851583Y-36950500D01*
X116048422Y-36950500D01*
X116242826Y-36919709D01*
X116293324Y-36903301D01*
X116430025Y-36858884D01*
X116605405Y-36769524D01*
X116764646Y-36653828D01*
X116903828Y-36514646D01*
X117019524Y-36355405D01*
X117108884Y-36180025D01*
X117169709Y-35992826D01*
X117200500Y-35798422D01*
X117200500Y-35601577D01*
X117169709Y-35407173D01*
X117155297Y-35362819D01*
X117153301Y-35292978D01*
X117189381Y-35233145D01*
X117252082Y-35202316D01*
X117273228Y-35200500D01*
X122626772Y-35200500D01*
X122693811Y-35220185D01*
G37*
%TD.AperFunction*%
%TD*%
M02*
