%TF.GenerationSoftware,KiCad,Pcbnew,9.0.4*%
%TF.CreationDate,2026-03-22T20:42:34-04:00*%
%TF.ProjectId,SERVO-ESC,53455256-4f2d-4455-9343-2e6b69636164,rev?*%
%TF.SameCoordinates,Original*%
%TF.FileFunction,Copper,L4,Bot*%
%TF.FilePolarity,Positive*%
%FSLAX46Y46*%
G04 Gerber Fmt 4.6, Leading zero omitted, Abs format (unit mm)*
G04 Created by KiCad (PCBNEW 9.0.4) date 2026-03-22 20:42:34*
%MOMM*%
%LPD*%
G01*
G04 APERTURE LIST*
G04 Aperture macros list*
%AMRoundRect*
0 Rectangle with rounded corners*
0 $1 Rounding radius*
0 $2 $3 $4 $5 $6 $7 $8 $9 X,Y pos of 4 corners*
0 Add a 4 corners polygon primitive as box body*
4,1,4,$2,$3,$4,$5,$6,$7,$8,$9,$2,$3,0*
0 Add four circle primitives for the rounded corners*
1,1,$1+$1,$2,$3*
1,1,$1+$1,$4,$5*
1,1,$1+$1,$6,$7*
1,1,$1+$1,$8,$9*
0 Add four rect primitives between the rounded corners*
20,1,$1+$1,$2,$3,$4,$5,0*
20,1,$1+$1,$4,$5,$6,$7,0*
20,1,$1+$1,$6,$7,$8,$9,0*
20,1,$1+$1,$8,$9,$2,$3,0*%
G04 Aperture macros list end*
%TA.AperFunction,ComponentPad*%
%ADD10RoundRect,0.250000X-0.550000X-0.550000X0.550000X-0.550000X0.550000X0.550000X-0.550000X0.550000X0*%
%TD*%
%TA.AperFunction,ComponentPad*%
%ADD11R,1.700000X1.700000*%
%TD*%
%TA.AperFunction,ComponentPad*%
%ADD12C,1.700000*%
%TD*%
%TA.AperFunction,ComponentPad*%
%ADD13RoundRect,0.250000X0.350000X0.350000X-0.350000X0.350000X-0.350000X-0.350000X0.350000X-0.350000X0*%
%TD*%
%TA.AperFunction,ComponentPad*%
%ADD14C,1.200000*%
%TD*%
%TA.AperFunction,ViaPad*%
%ADD15C,0.600000*%
%TD*%
%TA.AperFunction,Conductor*%
%ADD16C,0.200000*%
%TD*%
G04 APERTURE END LIST*
D10*
%TO.P,J6,1,Pin_1*%
%TO.N,HBRIDGE+*%
X85900000Y-44700000D03*
%TD*%
D11*
%TO.P,J1,1,Pin_1*%
%TO.N,GND*%
X51400000Y-44110000D03*
D12*
%TO.P,J1,2,Pin_2*%
%TO.N,UART-TX*%
X51400000Y-41570000D03*
%TO.P,J1,3,Pin_3*%
%TO.N,UART-RX*%
X51400000Y-39030000D03*
%TO.P,J1,4,Pin_4*%
%TO.N,+SV*%
X51400000Y-36490000D03*
%TD*%
D13*
%TO.P,C11,1*%
%TO.N,+7V*%
X81522600Y-33800000D03*
D14*
%TO.P,C11,2*%
%TO.N,GND*%
X80022600Y-33800000D03*
%TD*%
D10*
%TO.P,J5,1,Pin_1*%
%TO.N,HBRIDGE-*%
X85800000Y-39400000D03*
%TD*%
D11*
%TO.P,J4,1,Pin_1*%
%TO.N,I2C-SDA-3*%
X68880000Y-48000000D03*
D12*
%TO.P,J4,2,Pin_2*%
%TO.N,I2C-SCL-3*%
X71420000Y-48000000D03*
%TO.P,J4,3,Pin_3*%
%TO.N,GND*%
X73960000Y-48000000D03*
%TO.P,J4,4,Pin_4*%
%TO.N,+3.3V*%
X76500000Y-48000000D03*
%TD*%
D11*
%TO.P,J2,1,Pin_1*%
%TO.N,SWCLK*%
X64600000Y-32625000D03*
D12*
%TO.P,J2,2,Pin_2*%
%TO.N,SWDIO*%
X62060000Y-32625000D03*
%TO.P,J2,3,Pin_3*%
%TO.N,GND*%
X59520000Y-32625000D03*
%TO.P,J2,4,Pin_4*%
%TO.N,+3.3V*%
X56980000Y-32625000D03*
%TD*%
D15*
%TO.N,TMP102-INT*%
X69675000Y-40425000D03*
X62676758Y-40907184D03*
%TO.N,GND*%
X53600000Y-47900000D03*
X82100000Y-47900000D03*
X79250000Y-48500000D03*
X87000000Y-41700000D03*
X78500000Y-48500000D03*
X54300000Y-47200000D03*
X66000000Y-34750000D03*
X84900000Y-41700000D03*
X86300000Y-42500000D03*
X55700000Y-47200000D03*
X85600000Y-41700000D03*
X71800000Y-33000000D03*
X55700000Y-48600000D03*
X61750000Y-41500000D03*
X55700000Y-46500000D03*
X85600000Y-42500000D03*
X78250000Y-38500000D03*
X54300000Y-46500000D03*
X74500000Y-42250000D03*
X53600000Y-48600000D03*
X56400000Y-48600000D03*
X58100000Y-39200000D03*
X55000000Y-47200000D03*
X55000000Y-48600000D03*
X55700000Y-47900000D03*
X56400000Y-46500000D03*
X57500000Y-36700000D03*
X66400000Y-40100000D03*
X54300000Y-47900000D03*
X55000000Y-47900000D03*
X84900000Y-42500000D03*
X86300000Y-41700000D03*
X62200000Y-34600000D03*
X55000000Y-46500000D03*
X78500000Y-47750000D03*
X83900000Y-47900000D03*
X87000000Y-42500000D03*
X54300000Y-48600000D03*
X53600000Y-46500000D03*
X56400000Y-47900000D03*
X56400000Y-47200000D03*
X80000000Y-48500000D03*
X53600000Y-47200000D03*
%TO.N,I2C-SCL-1*%
X57700000Y-37600000D03*
X72100000Y-37650000D03*
%TO.N,I2C-SDA-1*%
X60200000Y-35700000D03*
X71850000Y-36600000D03*
%TO.N,+3.3V*%
X79300000Y-37500000D03*
X57700000Y-41500000D03*
X75400000Y-32600000D03*
X58400000Y-40100000D03*
X68600000Y-34900000D03*
X63500000Y-42250000D03*
X61100000Y-34600000D03*
X57000000Y-40100000D03*
X59100000Y-40100000D03*
X58400000Y-41500000D03*
X56250000Y-40100000D03*
X75750000Y-45750000D03*
X75400000Y-33500000D03*
X58400000Y-40800000D03*
X59100000Y-40800000D03*
X81250000Y-48500000D03*
X57000000Y-40800000D03*
X56200000Y-40800000D03*
X57700000Y-40800000D03*
X59100000Y-41500000D03*
X57700000Y-40100000D03*
X84800000Y-48600000D03*
X78900000Y-36700000D03*
%TO.N,RGB-LED-RED*%
X69274690Y-42250001D03*
X66600000Y-48400000D03*
%TO.N,HBRIDGE-FAULT*%
X74250000Y-46000000D03*
X80100000Y-47350000D03*
%TO.N,HBRIDGE-VREF*%
X82100000Y-46800000D03*
X71525000Y-45475000D03*
%TO.N,+7V*%
X54900000Y-41300000D03*
X54900000Y-40600000D03*
X54900000Y-39900000D03*
X54200000Y-40600000D03*
X54200000Y-39900000D03*
X53500000Y-39900000D03*
X53500000Y-40600000D03*
X53500000Y-41300000D03*
%TO.N,HBRIDGE-IPROPI*%
X73389028Y-44800000D03*
X83900000Y-47100000D03*
%TO.N,SWDIO*%
X75100000Y-37500000D03*
%TO.N,SWCLK*%
X74900000Y-36400000D03*
%TO.N,INA236-INT*%
X71050000Y-36797914D03*
X57700000Y-35900000D03*
%TO.N,UART-RX*%
X74700000Y-39000000D03*
%TO.N,UART-TX*%
X73250000Y-39500000D03*
%TO.N,I2C-SCL-3*%
X73500000Y-40750000D03*
%TO.N,I2C-SDA-3*%
X71750000Y-41000000D03*
%TO.N,GND*%
X63500000Y-44750000D03*
%TD*%
D16*
%TO.N,HBRIDGE-VREF*%
X79400000Y-44100000D02*
X82100000Y-46800000D01*
X75000000Y-44100000D02*
X79400000Y-44100000D01*
X73400000Y-45700000D02*
X75000000Y-44100000D01*
X71525000Y-45475000D02*
X71750000Y-45700000D01*
X71750000Y-45700000D02*
X73400000Y-45700000D01*
%TO.N,TMP102-INT*%
X69675000Y-40425000D02*
X69200000Y-40900000D01*
X62683942Y-40900000D02*
X62676758Y-40907184D01*
X69200000Y-40900000D02*
X62683942Y-40900000D01*
%TO.N,I2C-SCL-1*%
X72050000Y-37700000D02*
X57800000Y-37700000D01*
X57800000Y-37700000D02*
X57700000Y-37600000D01*
X72100000Y-37650000D02*
X72050000Y-37700000D01*
%TO.N,I2C-SDA-1*%
X71450000Y-36200000D02*
X71100000Y-36200000D01*
X70600000Y-35700000D02*
X60200000Y-35700000D01*
X71100000Y-36200000D02*
X70600000Y-35700000D01*
X71850000Y-36600000D02*
X71450000Y-36200000D01*
%TO.N,RGB-LED-RED*%
X67750000Y-43250000D02*
X67750000Y-45950000D01*
X69274690Y-42250001D02*
X68749999Y-42250001D01*
X68749999Y-42250001D02*
X67750000Y-43250000D01*
X66600000Y-47100000D02*
X66600000Y-48400000D01*
X67750000Y-45950000D02*
X66600000Y-47100000D01*
%TO.N,HBRIDGE-FAULT*%
X79750000Y-47350000D02*
X79150000Y-46750000D01*
X79150000Y-46750000D02*
X75000000Y-46750000D01*
X80100000Y-47350000D02*
X79750000Y-47350000D01*
X75000000Y-46750000D02*
X74250000Y-46000000D01*
%TO.N,HBRIDGE-VREF*%
X82000000Y-46800000D02*
X82100000Y-46800000D01*
%TO.N,HBRIDGE-IPROPI*%
X74500000Y-43200000D02*
X80000000Y-43200000D01*
X80000000Y-43200000D02*
X83900000Y-47100000D01*
X73389028Y-44800000D02*
X73389028Y-44310972D01*
X73389028Y-44310972D02*
X74500000Y-43200000D01*
%TO.N,SWDIO*%
X62060000Y-32400000D02*
X62060000Y-32730000D01*
X71600000Y-34100000D02*
X75000000Y-37500000D01*
X63430000Y-34100000D02*
X71600000Y-34100000D01*
X62060000Y-32730000D02*
X63430000Y-34100000D01*
X75000000Y-37500000D02*
X75100000Y-37500000D01*
%TO.N,SWCLK*%
X64600000Y-32400000D02*
X72600000Y-32400000D01*
X74900000Y-34700000D02*
X74900000Y-36400000D01*
X72600000Y-32400000D02*
X74900000Y-34700000D01*
%TO.N,INA236-INT*%
X59500000Y-36800000D02*
X71047914Y-36800000D01*
X58100000Y-36300000D02*
X59000000Y-36300000D01*
X57700000Y-35900000D02*
X58100000Y-36300000D01*
X71047914Y-36800000D02*
X71050000Y-36797914D01*
X59000000Y-36300000D02*
X59500000Y-36800000D01*
%TO.N,UART-RX*%
X57650057Y-38800000D02*
X51430000Y-38800000D01*
X74450000Y-38750000D02*
X58499943Y-38750000D01*
X58348943Y-38599000D02*
X57851057Y-38599000D01*
X57851057Y-38599000D02*
X57650057Y-38800000D01*
X58499943Y-38750000D02*
X58348943Y-38599000D01*
X74700000Y-39000000D02*
X74450000Y-38750000D01*
X51430000Y-38800000D02*
X51200000Y-39030000D01*
%TO.N,UART-TX*%
X59280000Y-42420000D02*
X52250000Y-42420000D01*
X62200000Y-39500000D02*
X59280000Y-42420000D01*
X73250000Y-39500000D02*
X62200000Y-39500000D01*
X52250000Y-42420000D02*
X51400000Y-41570000D01*
%TO.N,I2C-SCL-3*%
X70750000Y-47330000D02*
X71420000Y-48000000D01*
X73500000Y-40750000D02*
X70750000Y-43500000D01*
X70750000Y-43500000D02*
X70750000Y-47330000D01*
%TO.N,I2C-SDA-3*%
X71750000Y-41000000D02*
X69000000Y-43750000D01*
X69000000Y-47880000D02*
X68880000Y-48000000D01*
X69000000Y-43750000D02*
X69000000Y-47880000D01*
%TD*%
%TA.AperFunction,Conductor*%
%TO.N,GND*%
G36*
X69238653Y-39870185D02*
G01*
X69284408Y-39922989D01*
X69294352Y-39992147D01*
X69265327Y-40055703D01*
X69259295Y-40062181D01*
X69234493Y-40086982D01*
X69234488Y-40086988D01*
X69162017Y-40212511D01*
X69162016Y-40212515D01*
X69124500Y-40352525D01*
X69124500Y-40352527D01*
X69124500Y-40425500D01*
X69104815Y-40492539D01*
X69052011Y-40538294D01*
X69000500Y-40549500D01*
X63148960Y-40549500D01*
X63081921Y-40529815D01*
X63061279Y-40513181D01*
X63014775Y-40466677D01*
X63014769Y-40466672D01*
X62889246Y-40394201D01*
X62889247Y-40394201D01*
X62866101Y-40387999D01*
X62749233Y-40356684D01*
X62604283Y-40356684D01*
X62487415Y-40387999D01*
X62464269Y-40394201D01*
X62338746Y-40466672D01*
X62338740Y-40466677D01*
X62236251Y-40569166D01*
X62236246Y-40569172D01*
X62163775Y-40694695D01*
X62163774Y-40694699D01*
X62126258Y-40834709D01*
X62126258Y-40979659D01*
X62155293Y-41088017D01*
X62163775Y-41119672D01*
X62236246Y-41245195D01*
X62236248Y-41245197D01*
X62236249Y-41245199D01*
X62338743Y-41347693D01*
X62338744Y-41347694D01*
X62338746Y-41347695D01*
X62464269Y-41420166D01*
X62464270Y-41420166D01*
X62464273Y-41420168D01*
X62604283Y-41457684D01*
X62604286Y-41457684D01*
X62749230Y-41457684D01*
X62749233Y-41457684D01*
X62889243Y-41420168D01*
X63014773Y-41347693D01*
X63075647Y-41286819D01*
X63136970Y-41253334D01*
X63163328Y-41250500D01*
X69246142Y-41250500D01*
X69246144Y-41250500D01*
X69335288Y-41226614D01*
X69347608Y-41219501D01*
X69415212Y-41180470D01*
X69583863Y-41011819D01*
X69645186Y-40978334D01*
X69671544Y-40975500D01*
X69747472Y-40975500D01*
X69747475Y-40975500D01*
X69887485Y-40937984D01*
X70013015Y-40865509D01*
X70115509Y-40763015D01*
X70187984Y-40637485D01*
X70225500Y-40497475D01*
X70225500Y-40352525D01*
X70187984Y-40212515D01*
X70173830Y-40188000D01*
X70115511Y-40086988D01*
X70115506Y-40086982D01*
X70090705Y-40062181D01*
X70057220Y-40000858D01*
X70062204Y-39931166D01*
X70104076Y-39875233D01*
X70169540Y-39850816D01*
X70178386Y-39850500D01*
X72770614Y-39850500D01*
X72837653Y-39870185D01*
X72858295Y-39886819D01*
X72911985Y-39940509D01*
X73037515Y-40012984D01*
X73177525Y-40050500D01*
X73177529Y-40050500D01*
X73184138Y-40052271D01*
X73243799Y-40088636D01*
X73274328Y-40151483D01*
X73266033Y-40220859D01*
X73221548Y-40274736D01*
X73214047Y-40279432D01*
X73161988Y-40309489D01*
X73161982Y-40309493D01*
X73059493Y-40411982D01*
X73059488Y-40411988D01*
X72987017Y-40537511D01*
X72987016Y-40537515D01*
X72949500Y-40677525D01*
X72949500Y-40677527D01*
X72949500Y-40753455D01*
X72929815Y-40820494D01*
X72913181Y-40841136D01*
X72488148Y-41266169D01*
X72426825Y-41299654D01*
X72357133Y-41294670D01*
X72301200Y-41252798D01*
X72276783Y-41187334D01*
X72280691Y-41146401D01*
X72300500Y-41072475D01*
X72300500Y-40927525D01*
X72262984Y-40787515D01*
X72244136Y-40754870D01*
X72190511Y-40661988D01*
X72190506Y-40661982D01*
X72088017Y-40559493D01*
X72088011Y-40559488D01*
X71962488Y-40487017D01*
X71962489Y-40487017D01*
X71935622Y-40479818D01*
X71822475Y-40449500D01*
X71677525Y-40449500D01*
X71564378Y-40479818D01*
X71537511Y-40487017D01*
X71411988Y-40559488D01*
X71411982Y-40559493D01*
X71309493Y-40661982D01*
X71309488Y-40661988D01*
X71237017Y-40787511D01*
X71237016Y-40787515D01*
X71199500Y-40927525D01*
X71199500Y-40927527D01*
X71199500Y-41003455D01*
X71179815Y-41070494D01*
X71163181Y-41091136D01*
X70030227Y-42224089D01*
X69968904Y-42257574D01*
X69899212Y-42252590D01*
X69843279Y-42210718D01*
X69822773Y-42168506D01*
X69787674Y-42037516D01*
X69773510Y-42012984D01*
X69715201Y-41911989D01*
X69715196Y-41911983D01*
X69612707Y-41809494D01*
X69612701Y-41809489D01*
X69487178Y-41737018D01*
X69487179Y-41737018D01*
X69475696Y-41733941D01*
X69347165Y-41699501D01*
X69202215Y-41699501D01*
X69073683Y-41733941D01*
X69062201Y-41737018D01*
X68936678Y-41809489D01*
X68936672Y-41809494D01*
X68882985Y-41863182D01*
X68821662Y-41896667D01*
X68795304Y-41899501D01*
X68703855Y-41899501D01*
X68614711Y-41923387D01*
X68614708Y-41923388D01*
X68534790Y-41969528D01*
X68534785Y-41969532D01*
X67469531Y-43034786D01*
X67469527Y-43034791D01*
X67423387Y-43114709D01*
X67423386Y-43114712D01*
X67399500Y-43203856D01*
X67399500Y-45753456D01*
X67379815Y-45820495D01*
X67363181Y-45841137D01*
X66319531Y-46884786D01*
X66319529Y-46884789D01*
X66290375Y-46935287D01*
X66290373Y-46935289D01*
X66273388Y-46964706D01*
X66273387Y-46964709D01*
X66273386Y-46964711D01*
X66273386Y-46964712D01*
X66256555Y-47027525D01*
X66249500Y-47053856D01*
X66249500Y-47920614D01*
X66229815Y-47987653D01*
X66213181Y-48008295D01*
X66159493Y-48061982D01*
X66159488Y-48061988D01*
X66087017Y-48187511D01*
X66087016Y-48187515D01*
X66049500Y-48327525D01*
X66049500Y-48472475D01*
X66077238Y-48575992D01*
X66087017Y-48612488D01*
X66159488Y-48738011D01*
X66159493Y-48738017D01*
X66209295Y-48787819D01*
X66242780Y-48849142D01*
X66237796Y-48918834D01*
X66195924Y-48974767D01*
X66130460Y-48999184D01*
X66121614Y-48999500D01*
X52871905Y-48999500D01*
X52804866Y-48979815D01*
X52759111Y-48927011D01*
X52749167Y-48857853D01*
X52771586Y-48802615D01*
X52777629Y-48794297D01*
X52783343Y-48786433D01*
X52890568Y-48575992D01*
X52963553Y-48351368D01*
X52973667Y-48287511D01*
X53000500Y-48118097D01*
X53000500Y-47881902D01*
X52963553Y-47648631D01*
X52914128Y-47496518D01*
X52890568Y-47424008D01*
X52890566Y-47424005D01*
X52890566Y-47424003D01*
X52825622Y-47296544D01*
X52783343Y-47213567D01*
X52644517Y-47022490D01*
X52477510Y-46855483D01*
X52286433Y-46716657D01*
X52286431Y-46716656D01*
X52075996Y-46609433D01*
X51851368Y-46536446D01*
X51618097Y-46499500D01*
X51618092Y-46499500D01*
X51381908Y-46499500D01*
X51381903Y-46499500D01*
X51148631Y-46536446D01*
X50924003Y-46609433D01*
X50713567Y-46716656D01*
X50697385Y-46728414D01*
X50631578Y-46751893D01*
X50563524Y-46736067D01*
X50514830Y-46685961D01*
X50500500Y-46628095D01*
X50500500Y-42520131D01*
X50520185Y-42453092D01*
X50572989Y-42407337D01*
X50642147Y-42397393D01*
X50697383Y-42419812D01*
X50823212Y-42511232D01*
X50977555Y-42589873D01*
X51142299Y-42643402D01*
X51313389Y-42670500D01*
X51313390Y-42670500D01*
X51486610Y-42670500D01*
X51486611Y-42670500D01*
X51657701Y-42643402D01*
X51822445Y-42589873D01*
X51822447Y-42589871D01*
X51826971Y-42588402D01*
X51896812Y-42586407D01*
X51952970Y-42618652D01*
X52034788Y-42700470D01*
X52034789Y-42700471D01*
X52034791Y-42700472D01*
X52074750Y-42723542D01*
X52114712Y-42746614D01*
X52203856Y-42770500D01*
X52203857Y-42770500D01*
X52203858Y-42770500D01*
X59326142Y-42770500D01*
X59326144Y-42770500D01*
X59415288Y-42746614D01*
X59495212Y-42700470D01*
X60018157Y-42177525D01*
X62949500Y-42177525D01*
X62949500Y-42322475D01*
X62972239Y-42407337D01*
X62987017Y-42462488D01*
X63059488Y-42588011D01*
X63059490Y-42588013D01*
X63059491Y-42588015D01*
X63161985Y-42690509D01*
X63161986Y-42690510D01*
X63161988Y-42690511D01*
X63287511Y-42762982D01*
X63287512Y-42762982D01*
X63287515Y-42762984D01*
X63427525Y-42800500D01*
X63427528Y-42800500D01*
X63572472Y-42800500D01*
X63572475Y-42800500D01*
X63712485Y-42762984D01*
X63838015Y-42690509D01*
X63940509Y-42588015D01*
X64012984Y-42462485D01*
X64050500Y-42322475D01*
X64050500Y-42177525D01*
X64012984Y-42037515D01*
X63988041Y-41994313D01*
X63940511Y-41911988D01*
X63940510Y-41911986D01*
X63940509Y-41911985D01*
X63838015Y-41809491D01*
X63838012Y-41809489D01*
X63838011Y-41809488D01*
X63712488Y-41737017D01*
X63712489Y-41737017D01*
X63701006Y-41733940D01*
X63572475Y-41699500D01*
X63427525Y-41699500D01*
X63298993Y-41733940D01*
X63287511Y-41737017D01*
X63161988Y-41809488D01*
X63161982Y-41809493D01*
X63059493Y-41911982D01*
X63059488Y-41911988D01*
X62987017Y-42037511D01*
X62987016Y-42037515D01*
X62949500Y-42177525D01*
X60018157Y-42177525D01*
X62308863Y-39886819D01*
X62370186Y-39853334D01*
X62396544Y-39850500D01*
X69171614Y-39850500D01*
X69238653Y-39870185D01*
G37*
%TD.AperFunction*%
%TA.AperFunction,Conductor*%
G36*
X71286500Y-45972964D02*
G01*
X71312515Y-45987984D01*
X71452525Y-46025500D01*
X71452528Y-46025500D01*
X71594230Y-46025500D01*
X71626321Y-46029724D01*
X71703856Y-46050500D01*
X71703858Y-46050500D01*
X73446142Y-46050500D01*
X73446144Y-46050500D01*
X73535288Y-46026614D01*
X73535298Y-46026608D01*
X73541401Y-46024081D01*
X73610870Y-46016612D01*
X73673350Y-46047886D01*
X73708629Y-46106547D01*
X73732142Y-46194297D01*
X73737017Y-46212488D01*
X73809488Y-46338011D01*
X73809490Y-46338013D01*
X73809491Y-46338015D01*
X73911985Y-46440509D01*
X73911986Y-46440510D01*
X73911988Y-46440511D01*
X74037511Y-46512982D01*
X74037512Y-46512982D01*
X74037515Y-46512984D01*
X74177525Y-46550500D01*
X74253456Y-46550500D01*
X74320495Y-46570185D01*
X74341137Y-46586819D01*
X74784788Y-47030470D01*
X74833802Y-47058768D01*
X74833804Y-47058769D01*
X74864709Y-47076613D01*
X74864711Y-47076613D01*
X74864712Y-47076614D01*
X74953856Y-47100500D01*
X75549869Y-47100500D01*
X75616908Y-47120185D01*
X75662663Y-47172989D01*
X75672607Y-47242147D01*
X75650187Y-47297383D01*
X75638854Y-47312984D01*
X75558768Y-47423211D01*
X75480128Y-47577552D01*
X75480127Y-47577554D01*
X75480127Y-47577555D01*
X75456426Y-47650500D01*
X75426597Y-47742302D01*
X75399500Y-47913389D01*
X75399500Y-48086610D01*
X75415481Y-48187515D01*
X75426598Y-48257701D01*
X75480127Y-48422445D01*
X75558768Y-48576788D01*
X75660586Y-48716928D01*
X75660588Y-48716930D01*
X75731477Y-48787819D01*
X75764962Y-48849142D01*
X75759978Y-48918834D01*
X75718106Y-48974767D01*
X75652642Y-48999184D01*
X75643796Y-48999500D01*
X72276204Y-48999500D01*
X72209165Y-48979815D01*
X72163410Y-48927011D01*
X72153466Y-48857853D01*
X72182491Y-48794297D01*
X72188523Y-48787819D01*
X72189910Y-48786432D01*
X72259414Y-48716928D01*
X72361232Y-48576788D01*
X72439873Y-48422445D01*
X72493402Y-48257701D01*
X72520500Y-48086611D01*
X72520500Y-47913389D01*
X72493402Y-47742299D01*
X72439873Y-47577555D01*
X72361232Y-47423212D01*
X72259414Y-47283072D01*
X72136928Y-47160586D01*
X71996788Y-47058768D01*
X71842445Y-46980127D01*
X71677701Y-46926598D01*
X71677699Y-46926597D01*
X71677698Y-46926597D01*
X71539556Y-46904718D01*
X71506611Y-46899500D01*
X71333389Y-46899500D01*
X71270327Y-46909488D01*
X71243896Y-46913674D01*
X71174603Y-46904718D01*
X71121152Y-46859721D01*
X71100513Y-46792969D01*
X71100500Y-46791200D01*
X71100500Y-46080351D01*
X71120185Y-46013312D01*
X71172989Y-45967557D01*
X71242147Y-45957613D01*
X71286500Y-45972964D01*
G37*
%TD.AperFunction*%
%TA.AperFunction,Conductor*%
G36*
X85849159Y-31604046D02*
G01*
X85861704Y-31602969D01*
X85882048Y-31613703D01*
X85904117Y-31620184D01*
X85912361Y-31629698D01*
X85923498Y-31635575D01*
X85934809Y-31655605D01*
X85949872Y-31672988D01*
X85951663Y-31685449D01*
X85957856Y-31696414D01*
X85956542Y-31719380D01*
X85959816Y-31742146D01*
X85954490Y-31755267D01*
X85953867Y-31766169D01*
X85937396Y-31797383D01*
X85899473Y-31849580D01*
X85816657Y-31963566D01*
X85709433Y-32174003D01*
X85636446Y-32398631D01*
X85599500Y-32631902D01*
X85599500Y-32868097D01*
X85636446Y-33101368D01*
X85709433Y-33325996D01*
X85791597Y-33487250D01*
X85816657Y-33536433D01*
X85955483Y-33727510D01*
X86122490Y-33894517D01*
X86313567Y-34033343D01*
X86412991Y-34084002D01*
X86524003Y-34140566D01*
X86524005Y-34140566D01*
X86524008Y-34140568D01*
X86644412Y-34179689D01*
X86748631Y-34213553D01*
X86981903Y-34250500D01*
X86981908Y-34250500D01*
X87218097Y-34250500D01*
X87451368Y-34213553D01*
X87675992Y-34140568D01*
X87719205Y-34118549D01*
X87787872Y-34105653D01*
X87852613Y-34131928D01*
X87892871Y-34189034D01*
X87899500Y-34229034D01*
X87899500Y-46520964D01*
X87879815Y-46588003D01*
X87827011Y-46633758D01*
X87757853Y-46643702D01*
X87719207Y-46631450D01*
X87675996Y-46609434D01*
X87675995Y-46609433D01*
X87675992Y-46609432D01*
X87555203Y-46570185D01*
X87451368Y-46536446D01*
X87218097Y-46499500D01*
X87218092Y-46499500D01*
X86981908Y-46499500D01*
X86981903Y-46499500D01*
X86748631Y-46536446D01*
X86524003Y-46609433D01*
X86313566Y-46716657D01*
X86251174Y-46761988D01*
X86122490Y-46855483D01*
X86122488Y-46855485D01*
X86122487Y-46855485D01*
X85955485Y-47022487D01*
X85955485Y-47022488D01*
X85955483Y-47022490D01*
X85898806Y-47100499D01*
X85816657Y-47213566D01*
X85709433Y-47424003D01*
X85636446Y-47648631D01*
X85599500Y-47881902D01*
X85599500Y-48118097D01*
X85636446Y-48351368D01*
X85709433Y-48575996D01*
X85816656Y-48786432D01*
X85828414Y-48802615D01*
X85851893Y-48868422D01*
X85836067Y-48936476D01*
X85785961Y-48985170D01*
X85728095Y-48999500D01*
X85419786Y-48999500D01*
X85352747Y-48979815D01*
X85306992Y-48927011D01*
X85297048Y-48857853D01*
X85310114Y-48820099D01*
X85309872Y-48819999D01*
X85311557Y-48815928D01*
X85312397Y-48813504D01*
X85312981Y-48812492D01*
X85312982Y-48812489D01*
X85312982Y-48812487D01*
X85312984Y-48812485D01*
X85350500Y-48672475D01*
X85350500Y-48527525D01*
X85312984Y-48387515D01*
X85292114Y-48351368D01*
X85240511Y-48261988D01*
X85240506Y-48261982D01*
X85138017Y-48159493D01*
X85138011Y-48159488D01*
X85012488Y-48087017D01*
X85012489Y-48087017D01*
X85001006Y-48083940D01*
X84872475Y-48049500D01*
X84727525Y-48049500D01*
X84598993Y-48083940D01*
X84587511Y-48087017D01*
X84461988Y-48159488D01*
X84461982Y-48159493D01*
X84359493Y-48261982D01*
X84359488Y-48261988D01*
X84287017Y-48387511D01*
X84287016Y-48387515D01*
X84249500Y-48527525D01*
X84249500Y-48672475D01*
X84283940Y-48801006D01*
X84287017Y-48812489D01*
X84287018Y-48812492D01*
X84287603Y-48813504D01*
X84287836Y-48814465D01*
X84290128Y-48819999D01*
X84289265Y-48820356D01*
X84304073Y-48881405D01*
X84281219Y-48947431D01*
X84226296Y-48990619D01*
X84180214Y-48999500D01*
X81812050Y-48999500D01*
X81745011Y-48979815D01*
X81699256Y-48927011D01*
X81689312Y-48857853D01*
X81704663Y-48813500D01*
X81748244Y-48738015D01*
X81762984Y-48712485D01*
X81800500Y-48572475D01*
X81800500Y-48427525D01*
X81762984Y-48287515D01*
X81748244Y-48261985D01*
X81690511Y-48161988D01*
X81690506Y-48161982D01*
X81588017Y-48059493D01*
X81588011Y-48059488D01*
X81462488Y-47987017D01*
X81462489Y-47987017D01*
X81451006Y-47983940D01*
X81322475Y-47949500D01*
X81177525Y-47949500D01*
X81048993Y-47983940D01*
X81037511Y-47987017D01*
X80911988Y-48059488D01*
X80911982Y-48059493D01*
X80809493Y-48161982D01*
X80809488Y-48161988D01*
X80737017Y-48287511D01*
X80737016Y-48287515D01*
X80699500Y-48427525D01*
X80699500Y-48572475D01*
X80737016Y-48712485D01*
X80737017Y-48712488D01*
X80795337Y-48813500D01*
X80811810Y-48881400D01*
X80788958Y-48947427D01*
X80734037Y-48990617D01*
X80687950Y-48999500D01*
X77356204Y-48999500D01*
X77289165Y-48979815D01*
X77243410Y-48927011D01*
X77233466Y-48857853D01*
X77262491Y-48794297D01*
X77268523Y-48787819D01*
X77269910Y-48786432D01*
X77339414Y-48716928D01*
X77441232Y-48576788D01*
X77519873Y-48422445D01*
X77573402Y-48257701D01*
X77600500Y-48086611D01*
X77600500Y-47913389D01*
X77573402Y-47742299D01*
X77519873Y-47577555D01*
X77441232Y-47423212D01*
X77349812Y-47297383D01*
X77326333Y-47231580D01*
X77342158Y-47163526D01*
X77392264Y-47114831D01*
X77450131Y-47100500D01*
X78953456Y-47100500D01*
X79020495Y-47120185D01*
X79041137Y-47136819D01*
X79534788Y-47630470D01*
X79594229Y-47664788D01*
X79614712Y-47676614D01*
X79637156Y-47682627D01*
X79645641Y-47686324D01*
X79660976Y-47699147D01*
X79683801Y-47712325D01*
X79761985Y-47790509D01*
X79761986Y-47790510D01*
X79761988Y-47790511D01*
X79887511Y-47862982D01*
X79887512Y-47862982D01*
X79887515Y-47862984D01*
X80027525Y-47900500D01*
X80027528Y-47900500D01*
X80172472Y-47900500D01*
X80172475Y-47900500D01*
X80312485Y-47862984D01*
X80438015Y-47790509D01*
X80540509Y-47688015D01*
X80612984Y-47562485D01*
X80650500Y-47422475D01*
X80650500Y-47277525D01*
X80612984Y-47137515D01*
X80602978Y-47120185D01*
X80540511Y-47011988D01*
X80540506Y-47011982D01*
X80438017Y-46909493D01*
X80438011Y-46909488D01*
X80312488Y-46837017D01*
X80312489Y-46837017D01*
X80272873Y-46826402D01*
X80172475Y-46799500D01*
X80027525Y-46799500D01*
X79929108Y-46825870D01*
X79887510Y-46837017D01*
X79887509Y-46837018D01*
X79871763Y-46846109D01*
X79803862Y-46862580D01*
X79737836Y-46839727D01*
X79722084Y-46826402D01*
X79365213Y-46469531D01*
X79365208Y-46469527D01*
X79285290Y-46423387D01*
X79285289Y-46423386D01*
X79285288Y-46423386D01*
X79196144Y-46399500D01*
X79196143Y-46399500D01*
X76178386Y-46399500D01*
X76111347Y-46379815D01*
X76065592Y-46327011D01*
X76055648Y-46257853D01*
X76084673Y-46194297D01*
X76090705Y-46187819D01*
X76113316Y-46165208D01*
X76190509Y-46088015D01*
X76262984Y-45962485D01*
X76300500Y-45822475D01*
X76300500Y-45677525D01*
X76262984Y-45537515D01*
X76236899Y-45492335D01*
X76190511Y-45411988D01*
X76190506Y-45411982D01*
X76088017Y-45309493D01*
X76088011Y-45309488D01*
X75962488Y-45237017D01*
X75962489Y-45237017D01*
X75951006Y-45233940D01*
X75822475Y-45199500D01*
X75677525Y-45199500D01*
X75548993Y-45233940D01*
X75537511Y-45237017D01*
X75411988Y-45309488D01*
X75411982Y-45309493D01*
X75309493Y-45411982D01*
X75309488Y-45411988D01*
X75237017Y-45537511D01*
X75237016Y-45537515D01*
X75199500Y-45677525D01*
X75199500Y-45822475D01*
X75227649Y-45927527D01*
X75237017Y-45962488D01*
X75309488Y-46088011D01*
X75309493Y-46088017D01*
X75409295Y-46187819D01*
X75419907Y-46207255D01*
X75434408Y-46223989D01*
X75436324Y-46237320D01*
X75442780Y-46249142D01*
X75441200Y-46271228D01*
X75444352Y-46293147D01*
X75438756Y-46305398D01*
X75437796Y-46318834D01*
X75424525Y-46336560D01*
X75415327Y-46356703D01*
X75403995Y-46363985D01*
X75395924Y-46374767D01*
X75375178Y-46382504D01*
X75356549Y-46394477D01*
X75334630Y-46397628D01*
X75330460Y-46399184D01*
X75321614Y-46399500D01*
X75196544Y-46399500D01*
X75129505Y-46379815D01*
X75108863Y-46363181D01*
X74836819Y-46091137D01*
X74803334Y-46029814D01*
X74800500Y-46003456D01*
X74800500Y-45927527D01*
X74800500Y-45927525D01*
X74762984Y-45787515D01*
X74741613Y-45750500D01*
X74690511Y-45661988D01*
X74690506Y-45661982D01*
X74588017Y-45559493D01*
X74588011Y-45559488D01*
X74462488Y-45487017D01*
X74462483Y-45487015D01*
X74390890Y-45467831D01*
X74331230Y-45431466D01*
X74300702Y-45368618D01*
X74308997Y-45299243D01*
X74335301Y-45260379D01*
X75108863Y-44486819D01*
X75170186Y-44453334D01*
X75196544Y-44450500D01*
X79203456Y-44450500D01*
X79270495Y-44470185D01*
X79291137Y-44486819D01*
X81513181Y-46708863D01*
X81546666Y-46770186D01*
X81549500Y-46796544D01*
X81549500Y-46872475D01*
X81586881Y-47011982D01*
X81587017Y-47012488D01*
X81659488Y-47138011D01*
X81659490Y-47138013D01*
X81659491Y-47138015D01*
X81761985Y-47240509D01*
X81761986Y-47240510D01*
X81761988Y-47240511D01*
X81887511Y-47312982D01*
X81887512Y-47312982D01*
X81887515Y-47312984D01*
X82027525Y-47350500D01*
X82027528Y-47350500D01*
X82172472Y-47350500D01*
X82172475Y-47350500D01*
X82312485Y-47312984D01*
X82438015Y-47240509D01*
X82540509Y-47138015D01*
X82612984Y-47012485D01*
X82650500Y-46872475D01*
X82650500Y-46727525D01*
X82630692Y-46653601D01*
X82632355Y-46583755D01*
X82671517Y-46525893D01*
X82735745Y-46498388D01*
X82804647Y-46509974D01*
X82838148Y-46533830D01*
X83313181Y-47008863D01*
X83346666Y-47070186D01*
X83349500Y-47096544D01*
X83349500Y-47172475D01*
X83379135Y-47283072D01*
X83387017Y-47312488D01*
X83459488Y-47438011D01*
X83459490Y-47438013D01*
X83459491Y-47438015D01*
X83561985Y-47540509D01*
X83561986Y-47540510D01*
X83561988Y-47540511D01*
X83687511Y-47612982D01*
X83687512Y-47612982D01*
X83687515Y-47612984D01*
X83827525Y-47650500D01*
X83827528Y-47650500D01*
X83972472Y-47650500D01*
X83972475Y-47650500D01*
X84112485Y-47612984D01*
X84238015Y-47540509D01*
X84340509Y-47438015D01*
X84412984Y-47312485D01*
X84450500Y-47172475D01*
X84450500Y-47027525D01*
X84412984Y-46887515D01*
X84411408Y-46884786D01*
X84340511Y-46761988D01*
X84340506Y-46761982D01*
X84238017Y-46659493D01*
X84238011Y-46659488D01*
X84112488Y-46587017D01*
X84112489Y-46587017D01*
X84100315Y-46583755D01*
X83972475Y-46549500D01*
X83972472Y-46549500D01*
X83896544Y-46549500D01*
X83829505Y-46529815D01*
X83808863Y-46513181D01*
X81397817Y-44102135D01*
X84849500Y-44102135D01*
X84849500Y-45297870D01*
X84849501Y-45297876D01*
X84855908Y-45357483D01*
X84906202Y-45492328D01*
X84906206Y-45492335D01*
X84992452Y-45607544D01*
X84992455Y-45607547D01*
X85107664Y-45693793D01*
X85107671Y-45693797D01*
X85242517Y-45744091D01*
X85242516Y-45744091D01*
X85249444Y-45744835D01*
X85302127Y-45750500D01*
X86497872Y-45750499D01*
X86557483Y-45744091D01*
X86692331Y-45693796D01*
X86807546Y-45607546D01*
X86893796Y-45492331D01*
X86944091Y-45357483D01*
X86950500Y-45297873D01*
X86950499Y-44102128D01*
X86944091Y-44042517D01*
X86893796Y-43907669D01*
X86893795Y-43907668D01*
X86893793Y-43907664D01*
X86807547Y-43792455D01*
X86807544Y-43792452D01*
X86692335Y-43706206D01*
X86692328Y-43706202D01*
X86557482Y-43655908D01*
X86557483Y-43655908D01*
X86497883Y-43649501D01*
X86497881Y-43649500D01*
X86497873Y-43649500D01*
X86497864Y-43649500D01*
X85302129Y-43649500D01*
X85302123Y-43649501D01*
X85242516Y-43655908D01*
X85107671Y-43706202D01*
X85107664Y-43706206D01*
X84992455Y-43792452D01*
X84992452Y-43792455D01*
X84906206Y-43907664D01*
X84906202Y-43907671D01*
X84855908Y-44042517D01*
X84850184Y-44095763D01*
X84849501Y-44102123D01*
X84849500Y-44102135D01*
X81397817Y-44102135D01*
X80215213Y-42919531D01*
X80215208Y-42919527D01*
X80135290Y-42873387D01*
X80135289Y-42873386D01*
X80135288Y-42873386D01*
X80046144Y-42849500D01*
X74453856Y-42849500D01*
X74364712Y-42873386D01*
X74364709Y-42873387D01*
X74284791Y-42919527D01*
X74284786Y-42919531D01*
X73108559Y-44095758D01*
X73108555Y-44095763D01*
X73062415Y-44175681D01*
X73062414Y-44175684D01*
X73038528Y-44264828D01*
X73038528Y-44320614D01*
X73018843Y-44387653D01*
X73002209Y-44408295D01*
X72948521Y-44461982D01*
X72948516Y-44461988D01*
X72876045Y-44587511D01*
X72876044Y-44587515D01*
X72838528Y-44727525D01*
X72838528Y-44872475D01*
X72862521Y-44962016D01*
X72876045Y-45012488D01*
X72948516Y-45138011D01*
X72953466Y-45144461D01*
X72952397Y-45145280D01*
X72981808Y-45199142D01*
X72976824Y-45268834D01*
X72934952Y-45324767D01*
X72869488Y-45349184D01*
X72860642Y-45349500D01*
X72156440Y-45349500D01*
X72089401Y-45329815D01*
X72043646Y-45277011D01*
X72041126Y-45270004D01*
X72041092Y-45270019D01*
X72037982Y-45262511D01*
X71965511Y-45136988D01*
X71965506Y-45136982D01*
X71863017Y-45034493D01*
X71863011Y-45034488D01*
X71737488Y-44962017D01*
X71737489Y-44962017D01*
X71726006Y-44958940D01*
X71597475Y-44924500D01*
X71452525Y-44924500D01*
X71323993Y-44958940D01*
X71312511Y-44962017D01*
X71286500Y-44977035D01*
X71218599Y-44993508D01*
X71152573Y-44970655D01*
X71109382Y-44915734D01*
X71100500Y-44869648D01*
X71100500Y-43696543D01*
X71120185Y-43629504D01*
X71136819Y-43608862D01*
X73408862Y-41336819D01*
X73470185Y-41303334D01*
X73496543Y-41300500D01*
X73572472Y-41300500D01*
X73572475Y-41300500D01*
X73712485Y-41262984D01*
X73838015Y-41190509D01*
X73940509Y-41088015D01*
X74012984Y-40962485D01*
X74050500Y-40822475D01*
X74050500Y-40677525D01*
X74012984Y-40537515D01*
X74008538Y-40529815D01*
X73940511Y-40411988D01*
X73940506Y-40411982D01*
X73838017Y-40309493D01*
X73838011Y-40309488D01*
X73712488Y-40237017D01*
X73712489Y-40237017D01*
X73694215Y-40232120D01*
X73572475Y-40199500D01*
X73572473Y-40199500D01*
X73565860Y-40197728D01*
X73506200Y-40161363D01*
X73475671Y-40098516D01*
X73483966Y-40029140D01*
X73528451Y-39975262D01*
X73535955Y-39970566D01*
X73538496Y-39969098D01*
X73588015Y-39940509D01*
X73690509Y-39838015D01*
X73762984Y-39712485D01*
X73800500Y-39572475D01*
X73800500Y-39427525D01*
X73762984Y-39287515D01*
X73762982Y-39287512D01*
X73762982Y-39287510D01*
X73762981Y-39287507D01*
X73762397Y-39286496D01*
X73762163Y-39285534D01*
X73759872Y-39280001D01*
X73760296Y-39279825D01*
X73756992Y-39276011D01*
X73752826Y-39247037D01*
X73745927Y-39218595D01*
X73747911Y-39212860D01*
X73747048Y-39206853D01*
X73759207Y-39180227D01*
X73768781Y-39152569D01*
X73773551Y-39148817D01*
X73776073Y-39143297D01*
X73800697Y-39127472D01*
X73823704Y-39109381D01*
X73831051Y-39107965D01*
X73834851Y-39105523D01*
X73869786Y-39100500D01*
X74061861Y-39100500D01*
X74128900Y-39120185D01*
X74174655Y-39172989D01*
X74181636Y-39192406D01*
X74187016Y-39212487D01*
X74187017Y-39212488D01*
X74259488Y-39338011D01*
X74259490Y-39338013D01*
X74259491Y-39338015D01*
X74361985Y-39440509D01*
X74361986Y-39440510D01*
X74361988Y-39440511D01*
X74487511Y-39512982D01*
X74487512Y-39512982D01*
X74487515Y-39512984D01*
X74627525Y-39550500D01*
X74627528Y-39550500D01*
X74772472Y-39550500D01*
X74772475Y-39550500D01*
X74912485Y-39512984D01*
X75038015Y-39440509D01*
X75140509Y-39338015D01*
X75212984Y-39212485D01*
X75250500Y-39072475D01*
X75250500Y-38927525D01*
X75216901Y-38802135D01*
X84749500Y-38802135D01*
X84749500Y-39997870D01*
X84749501Y-39997876D01*
X84755908Y-40057483D01*
X84806202Y-40192328D01*
X84806206Y-40192335D01*
X84892452Y-40307544D01*
X84892455Y-40307547D01*
X85007664Y-40393793D01*
X85007671Y-40393797D01*
X85142517Y-40444091D01*
X85142516Y-40444091D01*
X85149444Y-40444835D01*
X85202127Y-40450500D01*
X86397872Y-40450499D01*
X86457483Y-40444091D01*
X86592331Y-40393796D01*
X86707546Y-40307546D01*
X86793796Y-40192331D01*
X86844091Y-40057483D01*
X86850500Y-39997873D01*
X86850499Y-38802128D01*
X86844091Y-38742517D01*
X86814053Y-38661982D01*
X86793797Y-38607671D01*
X86793793Y-38607664D01*
X86707547Y-38492455D01*
X86707544Y-38492452D01*
X86592335Y-38406206D01*
X86592328Y-38406202D01*
X86457482Y-38355908D01*
X86457483Y-38355908D01*
X86397883Y-38349501D01*
X86397881Y-38349500D01*
X86397873Y-38349500D01*
X86397864Y-38349500D01*
X85202129Y-38349500D01*
X85202123Y-38349501D01*
X85142516Y-38355908D01*
X85007671Y-38406202D01*
X85007664Y-38406206D01*
X84892455Y-38492452D01*
X84892452Y-38492455D01*
X84806206Y-38607664D01*
X84806202Y-38607671D01*
X84755908Y-38742517D01*
X84751071Y-38787511D01*
X84749501Y-38802123D01*
X84749500Y-38802135D01*
X75216901Y-38802135D01*
X75212984Y-38787515D01*
X75187004Y-38742517D01*
X75140511Y-38661988D01*
X75140506Y-38661982D01*
X75038017Y-38559493D01*
X75038011Y-38559488D01*
X74912488Y-38487017D01*
X74912489Y-38487017D01*
X74901006Y-38483940D01*
X74772475Y-38449500D01*
X74772472Y-38449500D01*
X74663744Y-38449500D01*
X74601745Y-38432887D01*
X74585288Y-38423386D01*
X74496144Y-38399500D01*
X74496143Y-38399500D01*
X72364876Y-38399500D01*
X72297837Y-38379815D01*
X72252082Y-38327011D01*
X72242138Y-38257853D01*
X72271163Y-38194297D01*
X72306476Y-38168831D01*
X72305447Y-38167048D01*
X72399091Y-38112982D01*
X72438015Y-38090509D01*
X72540509Y-37988015D01*
X72612984Y-37862485D01*
X72650500Y-37722475D01*
X72650500Y-37577525D01*
X72612984Y-37437515D01*
X72609356Y-37431232D01*
X72540511Y-37311988D01*
X72540506Y-37311982D01*
X72438017Y-37209493D01*
X72438015Y-37209491D01*
X72355738Y-37161988D01*
X72312340Y-37136932D01*
X72264124Y-37086365D01*
X72250902Y-37017758D01*
X72276870Y-36952893D01*
X72286647Y-36941876D01*
X72290509Y-36938015D01*
X72362984Y-36812485D01*
X72400500Y-36672475D01*
X72400500Y-36527525D01*
X72362984Y-36387515D01*
X72356919Y-36377011D01*
X72290511Y-36261988D01*
X72290506Y-36261982D01*
X72188017Y-36159493D01*
X72188011Y-36159488D01*
X72062488Y-36087017D01*
X72062489Y-36087017D01*
X72051006Y-36083940D01*
X71922475Y-36049500D01*
X71922472Y-36049500D01*
X71846544Y-36049500D01*
X71779505Y-36029815D01*
X71758863Y-36013181D01*
X71665213Y-35919531D01*
X71665208Y-35919527D01*
X71585290Y-35873387D01*
X71585289Y-35873386D01*
X71585288Y-35873386D01*
X71496144Y-35849500D01*
X71496143Y-35849500D01*
X71296544Y-35849500D01*
X71229505Y-35829815D01*
X71208863Y-35813181D01*
X70815213Y-35419531D01*
X70815208Y-35419527D01*
X70735290Y-35373387D01*
X70735289Y-35373386D01*
X70735288Y-35373386D01*
X70646144Y-35349500D01*
X70646143Y-35349500D01*
X69190918Y-35349500D01*
X69123879Y-35329815D01*
X69078124Y-35277011D01*
X69068180Y-35207853D01*
X69083531Y-35163500D01*
X69109411Y-35118674D01*
X69112984Y-35112485D01*
X69150500Y-34972475D01*
X69150500Y-34827525D01*
X69112984Y-34687515D01*
X69104299Y-34672472D01*
X69083531Y-34636500D01*
X69067058Y-34568600D01*
X69089911Y-34502573D01*
X69144832Y-34459382D01*
X69190918Y-34450500D01*
X71403456Y-34450500D01*
X71470495Y-34470185D01*
X71491137Y-34486819D01*
X74516016Y-37511698D01*
X74548110Y-37567285D01*
X74549500Y-37572472D01*
X74549500Y-37572475D01*
X74587016Y-37712485D01*
X74587017Y-37712488D01*
X74659488Y-37838011D01*
X74659490Y-37838013D01*
X74659491Y-37838015D01*
X74761985Y-37940509D01*
X74761986Y-37940510D01*
X74761988Y-37940511D01*
X74887511Y-38012982D01*
X74887512Y-38012982D01*
X74887515Y-38012984D01*
X75027525Y-38050500D01*
X75027528Y-38050500D01*
X75172472Y-38050500D01*
X75172475Y-38050500D01*
X75312485Y-38012984D01*
X75438015Y-37940509D01*
X75540509Y-37838015D01*
X75612984Y-37712485D01*
X75650500Y-37572475D01*
X75650500Y-37427525D01*
X75612984Y-37287515D01*
X75612975Y-37287500D01*
X75540511Y-37161988D01*
X75540506Y-37161982D01*
X75438017Y-37059493D01*
X75438015Y-37059491D01*
X75312485Y-36987016D01*
X75312340Y-36986932D01*
X75264124Y-36936365D01*
X75250902Y-36867758D01*
X75276870Y-36802893D01*
X75286643Y-36791880D01*
X75340509Y-36738015D01*
X75404301Y-36627525D01*
X78349500Y-36627525D01*
X78349500Y-36772475D01*
X78376693Y-36873959D01*
X78387017Y-36912488D01*
X78459488Y-37038011D01*
X78459490Y-37038013D01*
X78459491Y-37038015D01*
X78561985Y-37140509D01*
X78561986Y-37140510D01*
X78561988Y-37140511D01*
X78687509Y-37212981D01*
X78687511Y-37212982D01*
X78687515Y-37212984D01*
X78687518Y-37212984D01*
X78694574Y-37215907D01*
X78748981Y-37259744D01*
X78771052Y-37326036D01*
X78766906Y-37362565D01*
X78749500Y-37427525D01*
X78749500Y-37572475D01*
X78787016Y-37712485D01*
X78787017Y-37712488D01*
X78859488Y-37838011D01*
X78859490Y-37838013D01*
X78859491Y-37838015D01*
X78961985Y-37940509D01*
X78961986Y-37940510D01*
X78961988Y-37940511D01*
X79087511Y-38012982D01*
X79087512Y-38012982D01*
X79087515Y-38012984D01*
X79227525Y-38050500D01*
X79227528Y-38050500D01*
X79372472Y-38050500D01*
X79372475Y-38050500D01*
X79512485Y-38012984D01*
X79638015Y-37940509D01*
X79740509Y-37838015D01*
X79812984Y-37712485D01*
X79850500Y-37572475D01*
X79850500Y-37427525D01*
X79812984Y-37287515D01*
X79812975Y-37287500D01*
X79740511Y-37161988D01*
X79740506Y-37161982D01*
X79638017Y-37059493D01*
X79638011Y-37059488D01*
X79512486Y-36987016D01*
X79505421Y-36984090D01*
X79451015Y-36940252D01*
X79428947Y-36873959D01*
X79433093Y-36837436D01*
X79450500Y-36772475D01*
X79450500Y-36627525D01*
X79412984Y-36487515D01*
X79402978Y-36470185D01*
X79340511Y-36361988D01*
X79340506Y-36361982D01*
X79238017Y-36259493D01*
X79238011Y-36259488D01*
X79112488Y-36187017D01*
X79112489Y-36187017D01*
X79101006Y-36183940D01*
X78972475Y-36149500D01*
X78827525Y-36149500D01*
X78698993Y-36183940D01*
X78687511Y-36187017D01*
X78561988Y-36259488D01*
X78561982Y-36259493D01*
X78459493Y-36361982D01*
X78459488Y-36361988D01*
X78387017Y-36487511D01*
X78387016Y-36487515D01*
X78349500Y-36627525D01*
X75404301Y-36627525D01*
X75412984Y-36612485D01*
X75450500Y-36472475D01*
X75450500Y-36327525D01*
X75412984Y-36187515D01*
X75412696Y-36187017D01*
X75340511Y-36061988D01*
X75340506Y-36061982D01*
X75286819Y-36008295D01*
X75253334Y-35946972D01*
X75250500Y-35920614D01*
X75250500Y-34653858D01*
X75250500Y-34653856D01*
X75226614Y-34564712D01*
X75226613Y-34564710D01*
X75226612Y-34564707D01*
X75225044Y-34561991D01*
X75225044Y-34561992D01*
X75225040Y-34561985D01*
X75180470Y-34484788D01*
X73223207Y-32527525D01*
X74849500Y-32527525D01*
X74849500Y-32672475D01*
X74859987Y-32711611D01*
X74887017Y-32812488D01*
X74959488Y-32938011D01*
X74959489Y-32938012D01*
X74959491Y-32938015D01*
X74977384Y-32955908D01*
X74983796Y-32962320D01*
X75017280Y-33023644D01*
X75012294Y-33093335D01*
X74983796Y-33137680D01*
X74959488Y-33161988D01*
X74887017Y-33287511D01*
X74887016Y-33287515D01*
X74849500Y-33427525D01*
X74849500Y-33572475D01*
X74886609Y-33710966D01*
X74887017Y-33712488D01*
X74959488Y-33838011D01*
X74959490Y-33838013D01*
X74959491Y-33838015D01*
X75061985Y-33940509D01*
X75061986Y-33940510D01*
X75061988Y-33940511D01*
X75187511Y-34012982D01*
X75187512Y-34012982D01*
X75187515Y-34012984D01*
X75327525Y-34050500D01*
X75327528Y-34050500D01*
X75472472Y-34050500D01*
X75472475Y-34050500D01*
X75612485Y-34012984D01*
X75738015Y-33940509D01*
X75840509Y-33838015D01*
X75912984Y-33712485D01*
X75950500Y-33572475D01*
X75950500Y-33427525D01*
X75943697Y-33402135D01*
X80672100Y-33402135D01*
X80672100Y-34197870D01*
X80672101Y-34197876D01*
X80678508Y-34257483D01*
X80728802Y-34392328D01*
X80728806Y-34392335D01*
X80815052Y-34507544D01*
X80815055Y-34507547D01*
X80930264Y-34593793D01*
X80930271Y-34593797D01*
X81065117Y-34644091D01*
X81065116Y-34644091D01*
X81072044Y-34644835D01*
X81124727Y-34650500D01*
X81920472Y-34650499D01*
X81980083Y-34644091D01*
X82114931Y-34593796D01*
X82230146Y-34507546D01*
X82316396Y-34392331D01*
X82366691Y-34257483D01*
X82373100Y-34197873D01*
X82373099Y-33402128D01*
X82366691Y-33342517D01*
X82366471Y-33341928D01*
X82316397Y-33207671D01*
X82316393Y-33207664D01*
X82230147Y-33092455D01*
X82230144Y-33092452D01*
X82114935Y-33006206D01*
X82114928Y-33006202D01*
X81980082Y-32955908D01*
X81980083Y-32955908D01*
X81920483Y-32949501D01*
X81920481Y-32949500D01*
X81920473Y-32949500D01*
X81920464Y-32949500D01*
X81124729Y-32949500D01*
X81124723Y-32949501D01*
X81065116Y-32955908D01*
X80930271Y-33006202D01*
X80930264Y-33006206D01*
X80815055Y-33092452D01*
X80815052Y-33092455D01*
X80728806Y-33207664D01*
X80728802Y-33207671D01*
X80678508Y-33342517D01*
X80672101Y-33402116D01*
X80672101Y-33402123D01*
X80672100Y-33402135D01*
X75943697Y-33402135D01*
X75912984Y-33287515D01*
X75890233Y-33248110D01*
X75840511Y-33161988D01*
X75840506Y-33161982D01*
X75816205Y-33137681D01*
X75782720Y-33076358D01*
X75787704Y-33006666D01*
X75816205Y-32962319D01*
X75822616Y-32955908D01*
X75840509Y-32938015D01*
X75912984Y-32812485D01*
X75950500Y-32672475D01*
X75950500Y-32527525D01*
X75912984Y-32387515D01*
X75901312Y-32367299D01*
X75840511Y-32261988D01*
X75840506Y-32261982D01*
X75738017Y-32159493D01*
X75738011Y-32159488D01*
X75612488Y-32087017D01*
X75612489Y-32087017D01*
X75561621Y-32073387D01*
X75472475Y-32049500D01*
X75327525Y-32049500D01*
X75238379Y-32073387D01*
X75187511Y-32087017D01*
X75061988Y-32159488D01*
X75061982Y-32159493D01*
X74959493Y-32261982D01*
X74959488Y-32261988D01*
X74887017Y-32387511D01*
X74887016Y-32387515D01*
X74849500Y-32527525D01*
X73223207Y-32527525D01*
X72815212Y-32119530D01*
X72815211Y-32119529D01*
X72815208Y-32119527D01*
X72735290Y-32073387D01*
X72735289Y-32073386D01*
X72735288Y-32073386D01*
X72646144Y-32049500D01*
X72646143Y-32049500D01*
X65824500Y-32049500D01*
X65757461Y-32029815D01*
X65711706Y-31977011D01*
X65700500Y-31925500D01*
X65700500Y-31750327D01*
X65700175Y-31748694D01*
X65700253Y-31747818D01*
X65699903Y-31744261D01*
X65700577Y-31744194D01*
X65706401Y-31679103D01*
X65749262Y-31623924D01*
X65815151Y-31600677D01*
X65821792Y-31600499D01*
X85837078Y-31600499D01*
X85849159Y-31604046D01*
G37*
%TD.AperFunction*%
%TA.AperFunction,Conductor*%
G36*
X58219439Y-38969185D02*
G01*
X58240081Y-38985819D01*
X58284731Y-39030469D01*
X58284734Y-39030470D01*
X58284737Y-39030473D01*
X58364649Y-39076611D01*
X58364650Y-39076611D01*
X58364655Y-39076614D01*
X58453799Y-39100500D01*
X61804456Y-39100500D01*
X61871495Y-39120185D01*
X61917250Y-39172989D01*
X61927194Y-39242147D01*
X61898169Y-39305703D01*
X61892137Y-39312181D01*
X59829056Y-41375261D01*
X59767733Y-41408746D01*
X59698041Y-41403762D01*
X59642108Y-41361890D01*
X59629133Y-41340285D01*
X59624453Y-41330319D01*
X59612984Y-41287515D01*
X59566757Y-41207448D01*
X59564530Y-41202705D01*
X59559961Y-41173159D01*
X59552912Y-41144101D01*
X59554586Y-41138396D01*
X59553854Y-41133656D01*
X59560130Y-41119517D01*
X59569384Y-41088001D01*
X59612984Y-41012485D01*
X59650500Y-40872475D01*
X59650500Y-40727525D01*
X59612984Y-40587515D01*
X59569384Y-40511998D01*
X59552912Y-40444101D01*
X59569384Y-40388001D01*
X59612984Y-40312485D01*
X59650500Y-40172475D01*
X59650500Y-40027525D01*
X59612984Y-39887515D01*
X59608537Y-39879813D01*
X59540511Y-39761988D01*
X59540506Y-39761982D01*
X59438017Y-39659493D01*
X59438011Y-39659488D01*
X59312488Y-39587017D01*
X59312489Y-39587017D01*
X59301006Y-39583940D01*
X59172475Y-39549500D01*
X59027525Y-39549500D01*
X58898993Y-39583940D01*
X58887511Y-39587017D01*
X58812000Y-39630614D01*
X58744100Y-39647087D01*
X58688000Y-39630614D01*
X58612488Y-39587017D01*
X58612489Y-39587017D01*
X58601006Y-39583940D01*
X58472475Y-39549500D01*
X58327525Y-39549500D01*
X58198993Y-39583940D01*
X58187511Y-39587017D01*
X58112000Y-39630614D01*
X58044100Y-39647087D01*
X57988000Y-39630614D01*
X57912488Y-39587017D01*
X57912489Y-39587017D01*
X57901006Y-39583940D01*
X57772475Y-39549500D01*
X57627525Y-39549500D01*
X57498993Y-39583940D01*
X57487511Y-39587017D01*
X57412000Y-39630614D01*
X57344100Y-39647087D01*
X57288000Y-39630614D01*
X57212488Y-39587017D01*
X57212489Y-39587017D01*
X57201006Y-39583940D01*
X57072475Y-39549500D01*
X56927525Y-39549500D01*
X56798993Y-39583940D01*
X56787511Y-39587017D01*
X56687000Y-39645048D01*
X56619100Y-39661521D01*
X56563000Y-39645048D01*
X56462488Y-39587017D01*
X56462489Y-39587017D01*
X56451006Y-39583940D01*
X56322475Y-39549500D01*
X56177525Y-39549500D01*
X56048993Y-39583940D01*
X56037511Y-39587017D01*
X55911988Y-39659488D01*
X55911982Y-39659493D01*
X55809493Y-39761982D01*
X55809488Y-39761988D01*
X55737017Y-39887511D01*
X55737016Y-39887515D01*
X55699500Y-40027525D01*
X55699500Y-40172475D01*
X55737016Y-40312485D01*
X55737017Y-40312486D01*
X55755614Y-40344697D01*
X55758408Y-40356217D01*
X55765307Y-40365854D01*
X55766493Y-40389542D01*
X55772087Y-40412597D01*
X55768298Y-40425559D01*
X55768803Y-40435636D01*
X55755893Y-40467996D01*
X55755766Y-40468434D01*
X55755475Y-40468940D01*
X55687016Y-40587515D01*
X55686676Y-40588781D01*
X55682039Y-40596860D01*
X55662340Y-40615735D01*
X55645218Y-40636982D01*
X55637478Y-40639557D01*
X55631590Y-40645200D01*
X55604813Y-40650428D01*
X55578924Y-40659045D01*
X55571021Y-40657027D01*
X55563016Y-40658591D01*
X55537663Y-40648513D01*
X55511225Y-40641765D01*
X55505666Y-40635794D01*
X55498088Y-40632782D01*
X55482207Y-40610596D01*
X55463615Y-40590626D01*
X55461497Y-40581664D01*
X55457420Y-40575968D01*
X55456685Y-40561299D01*
X55450500Y-40535124D01*
X55450500Y-40527527D01*
X55450500Y-40527525D01*
X55412984Y-40387515D01*
X55369384Y-40311998D01*
X55352912Y-40244101D01*
X55369385Y-40188000D01*
X55412984Y-40112485D01*
X55450500Y-39972475D01*
X55450500Y-39827525D01*
X55412984Y-39687515D01*
X55397976Y-39661521D01*
X55340511Y-39561988D01*
X55340506Y-39561982D01*
X55238017Y-39459493D01*
X55238011Y-39459488D01*
X55105447Y-39382952D01*
X55106842Y-39380535D01*
X55063018Y-39345218D01*
X55040955Y-39278924D01*
X55058235Y-39211225D01*
X55109374Y-39163615D01*
X55164876Y-39150500D01*
X57696199Y-39150500D01*
X57696201Y-39150500D01*
X57785345Y-39126614D01*
X57865269Y-39080470D01*
X57959920Y-38985819D01*
X57986847Y-38971115D01*
X58012666Y-38954523D01*
X58018866Y-38953631D01*
X58021243Y-38952334D01*
X58047601Y-38949500D01*
X58152400Y-38949500D01*
X58219439Y-38969185D01*
G37*
%TD.AperFunction*%
%TA.AperFunction,Conductor*%
G36*
X56215836Y-31620184D02*
G01*
X56261591Y-31672988D01*
X56271535Y-31742146D01*
X56242510Y-31805702D01*
X56236478Y-31812180D01*
X56140588Y-31908069D01*
X56140588Y-31908070D01*
X56140586Y-31908072D01*
X56127924Y-31925500D01*
X56038768Y-32048211D01*
X55960128Y-32202552D01*
X55906597Y-32367302D01*
X55879500Y-32538389D01*
X55879500Y-32711610D01*
X55895906Y-32815198D01*
X55906598Y-32882701D01*
X55960127Y-33047445D01*
X56038768Y-33201788D01*
X56140586Y-33341928D01*
X56263072Y-33464414D01*
X56403212Y-33566232D01*
X56557555Y-33644873D01*
X56722299Y-33698402D01*
X56893389Y-33725500D01*
X56893390Y-33725500D01*
X57066610Y-33725500D01*
X57066611Y-33725500D01*
X57237701Y-33698402D01*
X57402445Y-33644873D01*
X57556788Y-33566232D01*
X57696928Y-33464414D01*
X57819414Y-33341928D01*
X57921232Y-33201788D01*
X57999873Y-33047445D01*
X58053402Y-32882701D01*
X58080500Y-32711611D01*
X58080500Y-32538389D01*
X58053402Y-32367299D01*
X57999873Y-32202555D01*
X57921232Y-32048212D01*
X57819414Y-31908072D01*
X57723522Y-31812180D01*
X57690037Y-31750857D01*
X57695021Y-31681165D01*
X57736893Y-31625232D01*
X57802357Y-31600815D01*
X57811203Y-31600499D01*
X61228797Y-31600499D01*
X61295836Y-31620184D01*
X61341591Y-31672988D01*
X61351535Y-31742146D01*
X61322510Y-31805702D01*
X61316478Y-31812180D01*
X61220588Y-31908069D01*
X61220588Y-31908070D01*
X61220586Y-31908072D01*
X61207924Y-31925500D01*
X61118768Y-32048211D01*
X61040128Y-32202552D01*
X60986597Y-32367302D01*
X60959500Y-32538389D01*
X60959500Y-32711610D01*
X60975906Y-32815198D01*
X60986598Y-32882701D01*
X61040127Y-33047445D01*
X61118768Y-33201788D01*
X61220586Y-33341928D01*
X61343072Y-33464414D01*
X61483212Y-33566232D01*
X61637555Y-33644873D01*
X61802299Y-33698402D01*
X61973389Y-33725500D01*
X61973390Y-33725500D01*
X62146610Y-33725500D01*
X62146611Y-33725500D01*
X62317701Y-33698402D01*
X62407722Y-33669151D01*
X62477562Y-33667157D01*
X62533720Y-33699402D01*
X63214788Y-34380470D01*
X63282444Y-34419531D01*
X63294712Y-34426614D01*
X63383856Y-34450500D01*
X63383857Y-34450500D01*
X63476144Y-34450500D01*
X68009082Y-34450500D01*
X68076121Y-34470185D01*
X68121876Y-34522989D01*
X68131820Y-34592147D01*
X68116469Y-34636500D01*
X68087017Y-34687511D01*
X68087016Y-34687515D01*
X68049500Y-34827525D01*
X68049500Y-34972475D01*
X68087016Y-35112485D01*
X68087017Y-35112488D01*
X68116469Y-35163500D01*
X68132942Y-35231400D01*
X68110089Y-35297427D01*
X68055168Y-35340618D01*
X68009082Y-35349500D01*
X61364876Y-35349500D01*
X61297837Y-35329815D01*
X61252082Y-35277011D01*
X61242138Y-35207853D01*
X61271163Y-35144297D01*
X61306476Y-35118831D01*
X61305447Y-35117048D01*
X61392731Y-35066653D01*
X61438015Y-35040509D01*
X61540509Y-34938015D01*
X61612984Y-34812485D01*
X61650500Y-34672475D01*
X61650500Y-34527525D01*
X61612984Y-34387515D01*
X61608915Y-34380468D01*
X61540511Y-34261988D01*
X61540506Y-34261982D01*
X61438017Y-34159493D01*
X61438011Y-34159488D01*
X61312488Y-34087017D01*
X61312489Y-34087017D01*
X61301006Y-34083940D01*
X61172475Y-34049500D01*
X61027525Y-34049500D01*
X60898993Y-34083940D01*
X60887511Y-34087017D01*
X60761988Y-34159488D01*
X60761982Y-34159493D01*
X60659493Y-34261982D01*
X60659488Y-34261988D01*
X60587017Y-34387511D01*
X60585724Y-34392335D01*
X60549500Y-34527525D01*
X60549500Y-34672475D01*
X60587016Y-34812485D01*
X60587017Y-34812488D01*
X60659488Y-34938011D01*
X60659490Y-34938013D01*
X60659491Y-34938015D01*
X60761985Y-35040509D01*
X60761986Y-35040510D01*
X60761988Y-35040511D01*
X60894553Y-35117048D01*
X60893613Y-35118674D01*
X60902163Y-35121185D01*
X60918066Y-35139538D01*
X60936982Y-35154782D01*
X60940540Y-35165475D01*
X60947918Y-35173989D01*
X60951374Y-35198027D01*
X60959045Y-35221076D01*
X60956258Y-35231993D01*
X60957862Y-35243147D01*
X60947771Y-35265241D01*
X60941765Y-35288775D01*
X60933518Y-35296452D01*
X60928837Y-35306703D01*
X60908402Y-35319835D01*
X60890626Y-35336385D01*
X60878012Y-35339365D01*
X60870059Y-35344477D01*
X60835124Y-35349500D01*
X60679386Y-35349500D01*
X60612347Y-35329815D01*
X60591705Y-35313181D01*
X60538017Y-35259493D01*
X60538011Y-35259488D01*
X60412488Y-35187017D01*
X60412489Y-35187017D01*
X60401006Y-35183940D01*
X60272475Y-35149500D01*
X60127525Y-35149500D01*
X59998993Y-35183940D01*
X59987511Y-35187017D01*
X59861988Y-35259488D01*
X59861982Y-35259493D01*
X59759493Y-35361982D01*
X59759488Y-35361988D01*
X59687017Y-35487511D01*
X59687016Y-35487515D01*
X59649500Y-35627525D01*
X59649500Y-35772475D01*
X59676540Y-35873387D01*
X59687017Y-35912488D01*
X59759488Y-36038011D01*
X59759490Y-36038013D01*
X59759491Y-36038015D01*
X59861985Y-36140509D01*
X59861986Y-36140510D01*
X59861988Y-36140511D01*
X59994553Y-36217048D01*
X59993157Y-36219464D01*
X60036982Y-36254782D01*
X60059045Y-36321076D01*
X60041765Y-36388775D01*
X59990626Y-36436385D01*
X59935124Y-36449500D01*
X59696544Y-36449500D01*
X59629505Y-36429815D01*
X59608863Y-36413181D01*
X59215213Y-36019531D01*
X59215208Y-36019527D01*
X59135286Y-35973385D01*
X59135288Y-35973385D01*
X59131892Y-35972476D01*
X59131889Y-35972474D01*
X59131889Y-35972475D01*
X59089016Y-35960987D01*
X59046144Y-35949500D01*
X59046143Y-35949500D01*
X58374500Y-35949500D01*
X58307461Y-35929815D01*
X58261706Y-35877011D01*
X58252662Y-35835439D01*
X58251561Y-35835585D01*
X58250500Y-35827528D01*
X58250500Y-35827527D01*
X58250500Y-35827525D01*
X58212984Y-35687515D01*
X58161149Y-35597735D01*
X58140511Y-35561988D01*
X58140506Y-35561982D01*
X58038017Y-35459493D01*
X58038011Y-35459488D01*
X57912488Y-35387017D01*
X57912489Y-35387017D01*
X57861621Y-35373387D01*
X57772475Y-35349500D01*
X57627525Y-35349500D01*
X57538379Y-35373387D01*
X57487511Y-35387017D01*
X57361988Y-35459488D01*
X57361982Y-35459493D01*
X57259493Y-35561982D01*
X57259488Y-35561988D01*
X57187017Y-35687511D01*
X57187016Y-35687515D01*
X57149500Y-35827525D01*
X57149500Y-35972475D01*
X57174976Y-36067552D01*
X57187017Y-36112488D01*
X57259488Y-36238011D01*
X57259490Y-36238013D01*
X57259491Y-36238015D01*
X57361985Y-36340509D01*
X57361986Y-36340510D01*
X57361988Y-36340511D01*
X57487511Y-36412982D01*
X57487512Y-36412982D01*
X57487515Y-36412984D01*
X57627525Y-36450500D01*
X57703457Y-36450500D01*
X57770496Y-36470185D01*
X57791138Y-36486819D01*
X57819531Y-36515212D01*
X57884788Y-36580469D01*
X57884791Y-36580470D01*
X57884794Y-36580473D01*
X57964706Y-36626611D01*
X57964707Y-36626611D01*
X57964712Y-36626614D01*
X58053856Y-36650500D01*
X58803456Y-36650500D01*
X58870495Y-36670185D01*
X58891137Y-36686819D01*
X59284788Y-37080470D01*
X59349988Y-37118113D01*
X59398203Y-37168679D01*
X59411427Y-37237286D01*
X59385459Y-37302151D01*
X59328545Y-37342680D01*
X59287988Y-37349500D01*
X58262627Y-37349500D01*
X58195588Y-37329815D01*
X58155240Y-37287500D01*
X58140509Y-37261985D01*
X58038015Y-37159491D01*
X58038013Y-37159490D01*
X58038011Y-37159488D01*
X57912488Y-37087017D01*
X57912489Y-37087017D01*
X57888048Y-37080468D01*
X57772475Y-37049500D01*
X57627525Y-37049500D01*
X57511952Y-37080468D01*
X57487511Y-37087017D01*
X57361988Y-37159488D01*
X57361982Y-37159493D01*
X57259493Y-37261982D01*
X57259488Y-37261988D01*
X57187017Y-37387511D01*
X57187016Y-37387515D01*
X57149500Y-37527525D01*
X57149500Y-37672475D01*
X57160221Y-37712485D01*
X57187017Y-37812488D01*
X57259488Y-37938011D01*
X57259490Y-37938013D01*
X57259491Y-37938015D01*
X57361985Y-38040509D01*
X57361986Y-38040510D01*
X57361988Y-38040511D01*
X57487511Y-38112982D01*
X57487512Y-38112982D01*
X57487515Y-38112984D01*
X57559155Y-38132180D01*
X57564336Y-38135337D01*
X57570392Y-38135771D01*
X57593821Y-38153309D01*
X57618812Y-38168542D01*
X57621464Y-38174003D01*
X57626326Y-38177642D01*
X57636554Y-38205065D01*
X57649342Y-38231389D01*
X57648621Y-38237417D01*
X57650743Y-38243106D01*
X57644522Y-38271703D01*
X57641048Y-38300765D01*
X57636852Y-38306964D01*
X57635892Y-38311379D01*
X57614741Y-38339634D01*
X57541192Y-38413182D01*
X57479872Y-38446666D01*
X57453513Y-38449500D01*
X52401716Y-38449500D01*
X52334677Y-38429815D01*
X52301398Y-38398386D01*
X52292679Y-38386385D01*
X52239414Y-38313072D01*
X52116928Y-38190586D01*
X51976788Y-38088768D01*
X51901682Y-38050500D01*
X51822447Y-38010128D01*
X51822446Y-38010127D01*
X51822445Y-38010127D01*
X51657701Y-37956598D01*
X51657699Y-37956597D01*
X51657698Y-37956597D01*
X51526271Y-37935781D01*
X51486611Y-37929500D01*
X51313389Y-37929500D01*
X51273728Y-37935781D01*
X51142302Y-37956597D01*
X50977552Y-38010128D01*
X50823208Y-38088770D01*
X50697385Y-38180186D01*
X50631579Y-38203666D01*
X50563525Y-38187841D01*
X50514830Y-38137735D01*
X50500500Y-38079868D01*
X50500500Y-37440131D01*
X50520185Y-37373092D01*
X50572989Y-37327337D01*
X50642147Y-37317393D01*
X50697383Y-37339812D01*
X50823212Y-37431232D01*
X50977555Y-37509873D01*
X51142299Y-37563402D01*
X51313389Y-37590500D01*
X51313390Y-37590500D01*
X51486610Y-37590500D01*
X51486611Y-37590500D01*
X51657701Y-37563402D01*
X51822445Y-37509873D01*
X51976788Y-37431232D01*
X52116928Y-37329414D01*
X52239414Y-37206928D01*
X52341232Y-37066788D01*
X52419873Y-36912445D01*
X52473402Y-36747701D01*
X52500500Y-36576611D01*
X52500500Y-36403389D01*
X52473402Y-36232299D01*
X52419873Y-36067555D01*
X52341232Y-35913212D01*
X52239414Y-35773072D01*
X52116928Y-35650586D01*
X51976788Y-35548768D01*
X51822445Y-35470127D01*
X51657701Y-35416598D01*
X51657699Y-35416597D01*
X51657698Y-35416597D01*
X51526271Y-35395781D01*
X51486611Y-35389500D01*
X51313389Y-35389500D01*
X51273728Y-35395781D01*
X51142302Y-35416597D01*
X50977552Y-35470128D01*
X50823208Y-35548770D01*
X50697385Y-35640186D01*
X50631579Y-35663666D01*
X50563525Y-35647841D01*
X50514830Y-35597735D01*
X50500500Y-35539868D01*
X50500500Y-34121904D01*
X50520185Y-34054865D01*
X50572989Y-34009110D01*
X50642147Y-33999166D01*
X50697387Y-34021587D01*
X50713567Y-34033343D01*
X50810915Y-34082944D01*
X50924003Y-34140566D01*
X50924005Y-34140566D01*
X50924008Y-34140568D01*
X51044412Y-34179689D01*
X51148631Y-34213553D01*
X51381903Y-34250500D01*
X51381908Y-34250500D01*
X51618097Y-34250500D01*
X51851368Y-34213553D01*
X51899595Y-34197883D01*
X52075992Y-34140568D01*
X52286433Y-34033343D01*
X52477510Y-33894517D01*
X52644517Y-33727510D01*
X52783343Y-33536433D01*
X52890568Y-33325992D01*
X52963553Y-33101368D01*
X52972093Y-33047447D01*
X53000500Y-32868097D01*
X53000500Y-32631902D01*
X52963553Y-32398631D01*
X52927776Y-32288522D01*
X52890568Y-32174008D01*
X52890566Y-32174005D01*
X52890566Y-32174003D01*
X52783342Y-31963566D01*
X52662603Y-31797384D01*
X52639124Y-31731578D01*
X52654949Y-31663524D01*
X52705055Y-31614829D01*
X52762922Y-31600499D01*
X56148797Y-31600499D01*
X56215836Y-31620184D01*
G37*
%TD.AperFunction*%
%TA.AperFunction,Conductor*%
G36*
X72470495Y-32770185D02*
G01*
X72491137Y-32786819D01*
X74513181Y-34808863D01*
X74546666Y-34870186D01*
X74549500Y-34896544D01*
X74549500Y-35920614D01*
X74529815Y-35987653D01*
X74526161Y-35993025D01*
X74520291Y-36001184D01*
X74459491Y-36061985D01*
X74390115Y-36182146D01*
X74386486Y-36187192D01*
X74363621Y-36204996D01*
X74342644Y-36224997D01*
X74336385Y-36226203D01*
X74331358Y-36230118D01*
X74302495Y-36232734D01*
X74274037Y-36238219D01*
X74268121Y-36235850D01*
X74261774Y-36236426D01*
X74236079Y-36223022D01*
X74209172Y-36212251D01*
X74200256Y-36204336D01*
X74199825Y-36204112D01*
X74199642Y-36203791D01*
X74198144Y-36202462D01*
X71815213Y-33819531D01*
X71815208Y-33819527D01*
X71735290Y-33773387D01*
X71735289Y-33773386D01*
X71735288Y-33773386D01*
X71646144Y-33749500D01*
X71646143Y-33749500D01*
X65798329Y-33749500D01*
X65731290Y-33729815D01*
X65685535Y-33677011D01*
X65675591Y-33607853D01*
X65683768Y-33578046D01*
X65685963Y-33572744D01*
X65685966Y-33572740D01*
X65700500Y-33499674D01*
X65700500Y-32874500D01*
X65720185Y-32807461D01*
X65772989Y-32761706D01*
X65824500Y-32750500D01*
X72403456Y-32750500D01*
X72470495Y-32770185D01*
G37*
%TD.AperFunction*%
%TD*%
M02*
