%TF.GenerationSoftware,KiCad,Pcbnew,9.0.4*%
%TF.CreationDate,2026-03-07T21:10:18-05:00*%
%TF.ProjectId,SERVO-ESC,53455256-4f2d-4455-9343-2e6b69636164,rev?*%
%TF.SameCoordinates,Original*%
%TF.FileFunction,Copper,L1,Top*%
%TF.FilePolarity,Positive*%
%FSLAX46Y46*%
G04 Gerber Fmt 4.6, Leading zero omitted, Abs format (unit mm)*
G04 Created by KiCad (PCBNEW 9.0.4) date 2026-03-07 21:10:18*
%MOMM*%
%LPD*%
G01*
G04 APERTURE LIST*
G04 Aperture macros list*
%AMRoundRect*
0 Rectangle with rounded corners*
0 $1 Rounding radius*
0 $2 $3 $4 $5 $6 $7 $8 $9 X,Y pos of 4 corners*
0 Add a 4 corners polygon primitive as box body*
4,1,4,$2,$3,$4,$5,$6,$7,$8,$9,$2,$3,0*
0 Add four circle primitives for the rounded corners*
1,1,$1+$1,$2,$3*
1,1,$1+$1,$4,$5*
1,1,$1+$1,$6,$7*
1,1,$1+$1,$8,$9*
0 Add four rect primitives between the rounded corners*
20,1,$1+$1,$2,$3,$4,$5,0*
20,1,$1+$1,$4,$5,$6,$7,0*
20,1,$1+$1,$6,$7,$8,$9,0*
20,1,$1+$1,$8,$9,$2,$3,0*%
G04 Aperture macros list end*
%TA.AperFunction,SMDPad,CuDef*%
%ADD10RoundRect,0.135000X-0.185000X0.135000X-0.185000X-0.135000X0.185000X-0.135000X0.185000X0.135000X0*%
%TD*%
%TA.AperFunction,SMDPad,CuDef*%
%ADD11RoundRect,0.140000X-0.170000X0.140000X-0.170000X-0.140000X0.170000X-0.140000X0.170000X0.140000X0*%
%TD*%
%TA.AperFunction,SMDPad,CuDef*%
%ADD12RoundRect,0.087500X0.087500X-0.250000X0.087500X0.250000X-0.087500X0.250000X-0.087500X-0.250000X0*%
%TD*%
%TA.AperFunction,SMDPad,CuDef*%
%ADD13RoundRect,0.250000X-0.625000X0.312500X-0.625000X-0.312500X0.625000X-0.312500X0.625000X0.312500X0*%
%TD*%
%TA.AperFunction,SMDPad,CuDef*%
%ADD14RoundRect,0.140000X0.140000X0.170000X-0.140000X0.170000X-0.140000X-0.170000X0.140000X-0.170000X0*%
%TD*%
%TA.AperFunction,SMDPad,CuDef*%
%ADD15RoundRect,0.135000X0.135000X0.185000X-0.135000X0.185000X-0.135000X-0.185000X0.135000X-0.185000X0*%
%TD*%
%TA.AperFunction,ComponentPad*%
%ADD16RoundRect,0.250000X-0.550000X-0.550000X0.550000X-0.550000X0.550000X0.550000X-0.550000X0.550000X0*%
%TD*%
%TA.AperFunction,ComponentPad*%
%ADD17R,1.700000X1.700000*%
%TD*%
%TA.AperFunction,ComponentPad*%
%ADD18C,1.700000*%
%TD*%
%TA.AperFunction,SMDPad,CuDef*%
%ADD19RoundRect,0.140000X-0.140000X-0.170000X0.140000X-0.170000X0.140000X0.170000X-0.140000X0.170000X0*%
%TD*%
%TA.AperFunction,SMDPad,CuDef*%
%ADD20RoundRect,0.135000X-0.135000X-0.185000X0.135000X-0.185000X0.135000X0.185000X-0.135000X0.185000X0*%
%TD*%
%TA.AperFunction,ComponentPad*%
%ADD21RoundRect,0.250000X0.350000X0.350000X-0.350000X0.350000X-0.350000X-0.350000X0.350000X-0.350000X0*%
%TD*%
%TA.AperFunction,ComponentPad*%
%ADD22C,1.200000*%
%TD*%
%TA.AperFunction,SMDPad,CuDef*%
%ADD23RoundRect,0.090000X0.510000X0.210000X-0.510000X0.210000X-0.510000X-0.210000X0.510000X-0.210000X0*%
%TD*%
%TA.AperFunction,SMDPad,CuDef*%
%ADD24RoundRect,0.250000X-0.350000X0.450000X-0.350000X-0.450000X0.350000X-0.450000X0.350000X0.450000X0*%
%TD*%
%TA.AperFunction,SMDPad,CuDef*%
%ADD25RoundRect,0.075000X-0.662500X-0.075000X0.662500X-0.075000X0.662500X0.075000X-0.662500X0.075000X0*%
%TD*%
%TA.AperFunction,SMDPad,CuDef*%
%ADD26RoundRect,0.075000X-0.075000X-0.662500X0.075000X-0.662500X0.075000X0.662500X-0.075000X0.662500X0*%
%TD*%
%TA.AperFunction,SMDPad,CuDef*%
%ADD27RoundRect,0.135000X0.185000X-0.135000X0.185000X0.135000X-0.185000X0.135000X-0.185000X-0.135000X0*%
%TD*%
%TA.AperFunction,SMDPad,CuDef*%
%ADD28RoundRect,0.218750X0.218750X0.256250X-0.218750X0.256250X-0.218750X-0.256250X0.218750X-0.256250X0*%
%TD*%
%TA.AperFunction,SMDPad,CuDef*%
%ADD29RoundRect,0.218750X-0.256250X0.218750X-0.256250X-0.218750X0.256250X-0.218750X0.256250X0.218750X0*%
%TD*%
%TA.AperFunction,SMDPad,CuDef*%
%ADD30RoundRect,0.140000X0.170000X-0.140000X0.170000X0.140000X-0.170000X0.140000X-0.170000X-0.140000X0*%
%TD*%
%TA.AperFunction,SMDPad,CuDef*%
%ADD31R,1.150000X0.600000*%
%TD*%
%TA.AperFunction,SMDPad,CuDef*%
%ADD32R,1.050000X0.450000*%
%TD*%
%TA.AperFunction,SMDPad,CuDef*%
%ADD33RoundRect,0.225000X-0.225000X-0.250000X0.225000X-0.250000X0.225000X0.250000X-0.225000X0.250000X0*%
%TD*%
%TA.AperFunction,SMDPad,CuDef*%
%ADD34R,0.450000X1.475000*%
%TD*%
%TA.AperFunction,SMDPad,CuDef*%
%ADD35R,2.310000X2.460000*%
%TD*%
%TA.AperFunction,ViaPad*%
%ADD36C,0.600000*%
%TD*%
%TA.AperFunction,Conductor*%
%ADD37C,0.200000*%
%TD*%
%TA.AperFunction,Conductor*%
%ADD38C,0.500000*%
%TD*%
%TA.AperFunction,Conductor*%
%ADD39C,0.300000*%
%TD*%
%TA.AperFunction,Conductor*%
%ADD40C,1.000000*%
%TD*%
G04 APERTURE END LIST*
D10*
%TO.P,R9,1*%
%TO.N,HBRIDGE-IPROPI*%
X83000000Y-46790000D03*
%TO.P,R9,2*%
%TO.N,GND*%
X83000000Y-47810000D03*
%TD*%
D11*
%TO.P,C4,1*%
%TO.N,+3.3V*%
X78000000Y-36700000D03*
%TO.P,C4,2*%
%TO.N,GND*%
X78000000Y-37660000D03*
%TD*%
D12*
%TO.P,IC4,1,SCL*%
%TO.N,I2C-SCL-1*%
X60500000Y-38200000D03*
%TO.P,IC4,2,GND*%
%TO.N,GND*%
X61000000Y-38200000D03*
%TO.P,IC4,3,ALERT*%
%TO.N,TMP102-INT*%
X61500000Y-38200000D03*
%TO.P,IC4,4,ADD0*%
%TO.N,GND*%
X61500000Y-36775000D03*
%TO.P,IC4,5,V+*%
%TO.N,+3.3V*%
X61000000Y-36775000D03*
%TO.P,IC4,6,SDA*%
%TO.N,I2C-SDA-1*%
X60500000Y-36775000D03*
%TD*%
D13*
%TO.P,R11,1*%
%TO.N,+SV*%
X54200000Y-35537500D03*
%TO.P,R11,2*%
%TO.N,+7V*%
X54200000Y-38462500D03*
%TD*%
D14*
%TO.P,C14,1*%
%TO.N,HSE-OUT*%
X64580000Y-41100000D03*
%TO.P,C14,2*%
%TO.N,GND*%
X63620000Y-41100000D03*
%TD*%
D15*
%TO.P,R7,1*%
%TO.N,Net-(D1-K)*%
X61910000Y-44500000D03*
%TO.P,R7,2*%
%TO.N,GND*%
X60890000Y-44500000D03*
%TD*%
D16*
%TO.P,-,1,Pin_1*%
%TO.N,HBRIDGE+*%
X85900000Y-44700000D03*
%TD*%
D17*
%TO.P,J1,1,Pin_1*%
%TO.N,GND*%
X51400000Y-44110000D03*
D18*
%TO.P,J1,2,Pin_2*%
%TO.N,UART-TX*%
X51400000Y-41570000D03*
%TO.P,J1,3,Pin_3*%
%TO.N,UART-RX*%
X51400000Y-39030000D03*
%TO.P,J1,4,Pin_4*%
%TO.N,+SV*%
X51400000Y-36490000D03*
%TD*%
D14*
%TO.P,C10,1*%
%TO.N,+7V*%
X83280000Y-36400000D03*
%TO.P,C10,2*%
%TO.N,VCP*%
X82320000Y-36400000D03*
%TD*%
D15*
%TO.P,R12,1*%
%TO.N,+3.3V*%
X59110000Y-34600000D03*
%TO.P,R12,2*%
%TO.N,INA236-INT*%
X58090000Y-34600000D03*
%TD*%
D19*
%TO.P,C9,1*%
%TO.N,+7V*%
X83320000Y-35100000D03*
%TO.P,C9,2*%
%TO.N,GND*%
X84280000Y-35100000D03*
%TD*%
D15*
%TO.P,R5,1*%
%TO.N,+3.3V*%
X74200000Y-33600000D03*
%TO.P,R5,2*%
%TO.N,I2C-SCL-1*%
X73180000Y-33600000D03*
%TD*%
D19*
%TO.P,C15,1*%
%TO.N,+3.3V*%
X56270000Y-39200000D03*
%TO.P,C15,2*%
%TO.N,GND*%
X57230000Y-39200000D03*
%TD*%
D20*
%TO.P,R2,1*%
%TO.N,Net-(LED1-Pad4)*%
X63790000Y-48500000D03*
%TO.P,R2,2*%
%TO.N,RGB-LED-RED*%
X64810000Y-48500000D03*
%TD*%
D11*
%TO.P,C12,1*%
%TO.N,+3.3V*%
X66400000Y-41120000D03*
%TO.P,C12,2*%
%TO.N,GND*%
X66400000Y-42080000D03*
%TD*%
D21*
%TO.P,C11,1*%
%TO.N,+7V*%
X81522600Y-33800000D03*
D22*
%TO.P,C11,2*%
%TO.N,GND*%
X80022600Y-33800000D03*
%TD*%
D11*
%TO.P,C6,1*%
%TO.N,+7V*%
X53800000Y-42620000D03*
%TO.P,C6,2*%
%TO.N,GND*%
X53800000Y-43580000D03*
%TD*%
D23*
%TO.P,LED1,1*%
%TO.N,GND*%
X59100000Y-48275000D03*
%TO.P,LED1,2*%
X59100000Y-47175000D03*
%TO.P,LED1,3*%
X59100000Y-46075000D03*
%TO.P,LED1,4*%
%TO.N,Net-(LED1-Pad4)*%
X62100000Y-48275000D03*
%TO.P,LED1,5*%
%TO.N,Net-(LED1-Pad5)*%
X62100000Y-47175000D03*
%TO.P,LED1,6*%
%TO.N,Net-(LED1-Pad6)*%
X62100000Y-46075000D03*
%TD*%
D24*
%TO.P,Y1,1,1*%
%TO.N,HSE-IN*%
X63250000Y-37200000D03*
%TO.P,Y1,2,2*%
%TO.N,GND*%
X63250000Y-39400000D03*
%TO.P,Y1,3,3*%
%TO.N,HSE-OUT*%
X64950000Y-39400000D03*
%TO.P,Y1,4,4*%
%TO.N,GND*%
X64950000Y-37200000D03*
%TD*%
D10*
%TO.P,R8,1*%
%TO.N,HBRIDGE-FAULT*%
X81200000Y-46790000D03*
%TO.P,R8,2*%
%TO.N,+3.3V*%
X81200000Y-47810000D03*
%TD*%
D20*
%TO.P,R3,1*%
%TO.N,Net-(LED1-Pad5)*%
X63790000Y-47200000D03*
%TO.P,R3,2*%
%TO.N,RGB-LED-GREEN*%
X64810000Y-47200000D03*
%TD*%
D25*
%TO.P,U1,1,VBAT*%
%TO.N,+3.3V*%
X68037500Y-36650000D03*
%TO.P,U1,2,PC13*%
%TO.N,unconnected-(U1-PC13-Pad2)*%
X68037500Y-37150000D03*
%TO.P,U1,3,PC14*%
%TO.N,unconnected-(U1-PC14-Pad3)*%
X68037500Y-37650000D03*
%TO.P,U1,4,PC15*%
%TO.N,unconnected-(U1-PC15-Pad4)*%
X68037500Y-38150000D03*
%TO.P,U1,5,PF0*%
%TO.N,HSE-IN*%
X68037500Y-38650000D03*
%TO.P,U1,6,PF1*%
%TO.N,HSE-OUT*%
X68037500Y-39150000D03*
%TO.P,U1,7,NRST*%
%TO.N,unconnected-(U1-NRST-Pad7)*%
X68037500Y-39650000D03*
%TO.P,U1,8,VSSA*%
%TO.N,GND*%
X68037500Y-40150000D03*
%TO.P,U1,9,VDDA*%
%TO.N,+3.3V*%
X68037500Y-40650000D03*
%TO.P,U1,10,PA0*%
%TO.N,unconnected-(U1-PA0-Pad10)*%
X68037500Y-41150000D03*
%TO.P,U1,11,PA1*%
%TO.N,unconnected-(U1-PA1-Pad11)*%
X68037500Y-41650000D03*
%TO.P,U1,12,PA2*%
%TO.N,RGB-LED-BLUE*%
X68037500Y-42150000D03*
D26*
%TO.P,U1,13,PA3*%
%TO.N,RGB-LED-GREEN*%
X69450000Y-43562500D03*
%TO.P,U1,14,PA4*%
%TO.N,HBRIDGE-VREF*%
X69950000Y-43562500D03*
%TO.P,U1,15,PA5*%
%TO.N,RGB-LED-RED*%
X70450000Y-43562500D03*
%TO.P,U1,16,PA6*%
%TO.N,unconnected-(U1-PA6-Pad16)*%
X70950000Y-43562500D03*
%TO.P,U1,17,PA7*%
%TO.N,HBRIDGE-FAULT*%
X71450000Y-43562500D03*
%TO.P,U1,18,PB0*%
%TO.N,HBRIDGE-IPROPI*%
X71950000Y-43562500D03*
%TO.P,U1,19,PB1*%
%TO.N,unconnected-(U1-PB1-Pad19)*%
X72450000Y-43562500D03*
%TO.P,U1,20,PB2*%
%TO.N,unconnected-(U1-PB2-Pad20)*%
X72950000Y-43562500D03*
%TO.P,U1,21,PB10*%
%TO.N,unconnected-(U1-PB10-Pad21)*%
X73450000Y-43562500D03*
%TO.P,U1,22,PB11*%
%TO.N,unconnected-(U1-PB11-Pad22)*%
X73950000Y-43562500D03*
%TO.P,U1,23,VSS*%
%TO.N,GND*%
X74450000Y-43562500D03*
%TO.P,U1,24,VDD*%
%TO.N,+3.3V*%
X74950000Y-43562500D03*
D25*
%TO.P,U1,25,PB12*%
%TO.N,HBRIDGE-SLEEP*%
X76362500Y-42150000D03*
%TO.P,U1,26,PB13*%
%TO.N,unconnected-(U1-PB13-Pad26)*%
X76362500Y-41650000D03*
%TO.P,U1,27,PB14*%
%TO.N,HBRIDGE-IN2*%
X76362500Y-41150000D03*
%TO.P,U1,28,PB15*%
%TO.N,HBRIDGE-IN1*%
X76362500Y-40650000D03*
%TO.P,U1,29,PA8*%
%TO.N,I2C-SCL-3*%
X76362500Y-40150000D03*
%TO.P,U1,30,PA9*%
%TO.N,UART-TX*%
X76362500Y-39650000D03*
%TO.P,U1,31,PA10*%
%TO.N,UART-RX*%
X76362500Y-39150000D03*
%TO.P,U1,32,PA11*%
%TO.N,unconnected-(U1-PA11-Pad32)*%
X76362500Y-38650000D03*
%TO.P,U1,33,PA12*%
%TO.N,unconnected-(U1-PA12-Pad33)*%
X76362500Y-38150000D03*
%TO.P,U1,34,PA13*%
%TO.N,SWDIO*%
X76362500Y-37650000D03*
%TO.P,U1,35,VSS*%
%TO.N,GND*%
X76362500Y-37150000D03*
%TO.P,U1,36,VDD*%
%TO.N,+3.3V*%
X76362500Y-36650000D03*
D26*
%TO.P,U1,37,PA14*%
%TO.N,SWCLK*%
X74950000Y-35237500D03*
%TO.P,U1,38,PA15*%
%TO.N,unconnected-(U1-PA15-Pad38)*%
X74450000Y-35237500D03*
%TO.P,U1,39,PB3*%
%TO.N,unconnected-(U1-PB3-Pad39)*%
X73950000Y-35237500D03*
%TO.P,U1,40,PB4*%
%TO.N,unconnected-(U1-PB4-Pad40)*%
X73450000Y-35237500D03*
%TO.P,U1,41,PB5*%
%TO.N,I2C-SDA-3*%
X72950000Y-35237500D03*
%TO.P,U1,42,PB6*%
%TO.N,I2C-SCL-1*%
X72450000Y-35237500D03*
%TO.P,U1,43,PB7*%
%TO.N,I2C-SDA-1*%
X71950000Y-35237500D03*
%TO.P,U1,44,BOOT0*%
%TO.N,Net-(U1-BOOT0)*%
X71450000Y-35237500D03*
%TO.P,U1,45,PB8*%
%TO.N,INA236-INT*%
X70950000Y-35237500D03*
%TO.P,U1,46,PB9*%
%TO.N,TMP102-INT*%
X70450000Y-35237500D03*
%TO.P,U1,47,VSS*%
%TO.N,GND*%
X69950000Y-35237500D03*
%TO.P,U1,48,VDD*%
%TO.N,+3.3V*%
X69450000Y-35237500D03*
%TD*%
D16*
%TO.P,+,1,Pin_1*%
%TO.N,HBRIDGE-*%
X85800000Y-39400000D03*
%TD*%
D10*
%TO.P,R1,1*%
%TO.N,GND*%
X70900000Y-32680000D03*
%TO.P,R1,2*%
%TO.N,Net-(U1-BOOT0)*%
X70900000Y-33700000D03*
%TD*%
D27*
%TO.P,R10,1*%
%TO.N,+3.3V*%
X84800000Y-47810000D03*
%TO.P,R10,2*%
%TO.N,HBRIDGE-IMODE*%
X84800000Y-46790000D03*
%TD*%
D28*
%TO.P,D1,1,K*%
%TO.N,Net-(D1-K)*%
X62087500Y-42700000D03*
%TO.P,D1,2,A*%
%TO.N,+3.3V*%
X60512500Y-42700000D03*
%TD*%
D29*
%TO.P,REF\u002A\u002A,1*%
%TO.N,+3.3V*%
X65000000Y-42462500D03*
%TO.P,REF\u002A\u002A,2*%
%TO.N,GND*%
X65000000Y-44037500D03*
%TD*%
D19*
%TO.P,C16,1*%
%TO.N,+3.3V*%
X61220000Y-35700000D03*
%TO.P,C16,2*%
%TO.N,GND*%
X62180000Y-35700000D03*
%TD*%
D11*
%TO.P,C8,1*%
%TO.N,+3.3V*%
X59200000Y-42620000D03*
%TO.P,C8,2*%
%TO.N,GND*%
X59200000Y-43580000D03*
%TD*%
D30*
%TO.P,C2,1*%
%TO.N,+3.3V*%
X66500000Y-36600000D03*
%TO.P,C2,2*%
%TO.N,GND*%
X66500000Y-35640000D03*
%TD*%
D17*
%TO.P,J4,1,Pin_1*%
%TO.N,I2C-SDA-3*%
X68880000Y-48000000D03*
D18*
%TO.P,J4,2,Pin_2*%
%TO.N,I2C-SCL-3*%
X71420000Y-48000000D03*
%TO.P,J4,3,Pin_3*%
%TO.N,GND*%
X73960000Y-48000000D03*
%TO.P,J4,4,Pin_4*%
%TO.N,+3.3V*%
X76500000Y-48000000D03*
%TD*%
D31*
%TO.P,IC1,1,VIN*%
%TO.N,+7V*%
X55200000Y-42650000D03*
%TO.P,IC1,2,GND*%
%TO.N,GND*%
X55200000Y-43600000D03*
%TO.P,IC1,3,EN*%
%TO.N,+7V*%
X55200000Y-44550000D03*
%TO.P,IC1,4,NC*%
%TO.N,unconnected-(IC1-NC-Pad4)*%
X57800000Y-44550000D03*
%TO.P,IC1,5,VOUT*%
%TO.N,+3.3V*%
X57800000Y-42650000D03*
%TD*%
D20*
%TO.P,R13,1*%
%TO.N,+3.3V*%
X60480000Y-40400000D03*
%TO.P,R13,2*%
%TO.N,TMP102-INT*%
X61500000Y-40400000D03*
%TD*%
D15*
%TO.P,R6,1*%
%TO.N,+3.3V*%
X74200000Y-32600000D03*
%TO.P,R6,2*%
%TO.N,I2C-SDA-1*%
X73180000Y-32600000D03*
%TD*%
D19*
%TO.P,C1,1*%
%TO.N,+3.3V*%
X68820000Y-33700000D03*
%TO.P,C1,2*%
%TO.N,GND*%
X69780000Y-33700000D03*
%TD*%
D20*
%TO.P,R4,1*%
%TO.N,Net-(LED1-Pad6)*%
X63790000Y-46000000D03*
%TO.P,R4,2*%
%TO.N,RGB-LED-BLUE*%
X64810000Y-46000000D03*
%TD*%
D14*
%TO.P,C3,1*%
%TO.N,+3.3V*%
X75130000Y-45050000D03*
%TO.P,C3,2*%
%TO.N,GND*%
X74170000Y-45050000D03*
%TD*%
D32*
%TO.P,IC5,1,IN+*%
%TO.N,+SV*%
X56275000Y-35925000D03*
%TO.P,IC5,2,IN-*%
%TO.N,+7V*%
X56275000Y-36575000D03*
%TO.P,IC5,3,GND*%
%TO.N,GND*%
X56275000Y-37225000D03*
%TO.P,IC5,4,VS*%
%TO.N,+3.3V*%
X56275000Y-37875000D03*
%TO.P,IC5,5,SCL*%
%TO.N,I2C-SCL-1*%
X58925000Y-37875000D03*
%TO.P,IC5,6,SDA*%
%TO.N,I2C-SDA-1*%
X58925000Y-37225000D03*
%TO.P,IC5,7,A0*%
%TO.N,GND*%
X58925000Y-36575000D03*
%TO.P,IC5,8,~{ALERT}*%
%TO.N,INA236-INT*%
X58925000Y-35925000D03*
%TD*%
D17*
%TO.P,J2,1,Pin_1*%
%TO.N,SWCLK*%
X64600000Y-32625000D03*
D18*
%TO.P,J2,2,Pin_2*%
%TO.N,SWDIO*%
X62060000Y-32625000D03*
%TO.P,J2,3,Pin_3*%
%TO.N,GND*%
X59520000Y-32625000D03*
%TO.P,J2,4,Pin_4*%
%TO.N,+3.3V*%
X56980000Y-32625000D03*
%TD*%
D33*
%TO.P,C5,1*%
%TO.N,+3.3V*%
X68050000Y-32400000D03*
%TO.P,C5,2*%
%TO.N,GND*%
X69600000Y-32400000D03*
%TD*%
D19*
%TO.P,C13,1*%
%TO.N,HSE-IN*%
X63620000Y-35500000D03*
%TO.P,C13,2*%
%TO.N,GND*%
X64580000Y-35500000D03*
%TD*%
%TO.P,C7,1*%
%TO.N,CPL*%
X80320000Y-37400000D03*
%TO.P,C7,2*%
%TO.N,CPH*%
X81280000Y-37400000D03*
%TD*%
D34*
%TO.P,IC2,1,EN/IN1*%
%TO.N,HBRIDGE-IN1*%
X79325000Y-44938000D03*
%TO.P,IC2,2,PH/IN2*%
%TO.N,HBRIDGE-IN2*%
X79975000Y-44938000D03*
%TO.P,IC2,3,NSLEEP*%
%TO.N,HBRIDGE-SLEEP*%
X80625000Y-44938000D03*
%TO.P,IC2,4,NFAULT*%
%TO.N,HBRIDGE-FAULT*%
X81275000Y-44938000D03*
%TO.P,IC2,5,VREF*%
%TO.N,HBRIDGE-VREF*%
X81925000Y-44938000D03*
%TO.P,IC2,6,IPROPI*%
%TO.N,HBRIDGE-IPROPI*%
X82575000Y-44938000D03*
%TO.P,IC2,7,IMODE*%
%TO.N,HBRIDGE-IMODE*%
X83225000Y-44938000D03*
%TO.P,IC2,8,OUT1*%
%TO.N,HBRIDGE+*%
X83875000Y-44938000D03*
%TO.P,IC2,9,PGND*%
%TO.N,GND*%
X83875000Y-39062000D03*
%TO.P,IC2,10,OUT2*%
%TO.N,HBRIDGE-*%
X83225000Y-39062000D03*
%TO.P,IC2,11,VM*%
%TO.N,+7V*%
X82575000Y-39062000D03*
%TO.P,IC2,12,VCP*%
%TO.N,VCP*%
X81925000Y-39062000D03*
%TO.P,IC2,13,CPH*%
%TO.N,CPH*%
X81275000Y-39062000D03*
%TO.P,IC2,14,CPL*%
%TO.N,CPL*%
X80625000Y-39062000D03*
%TO.P,IC2,15,GND*%
%TO.N,GND*%
X79975000Y-39062000D03*
%TO.P,IC2,16,PMODE*%
%TO.N,+3.3V*%
X79325000Y-39062000D03*
D35*
%TO.P,IC2,17,EP*%
%TO.N,GND*%
X81600000Y-42000000D03*
%TD*%
D36*
%TO.N,+3.3V*%
X81250000Y-48500000D03*
%TO.N,TMP102-INT*%
X69675000Y-40425000D03*
X62676758Y-40907184D03*
%TO.N,GND*%
X53600000Y-47900000D03*
X82100000Y-47900000D03*
X79250000Y-48500000D03*
X87000000Y-41700000D03*
X78500000Y-48500000D03*
X54300000Y-47200000D03*
X66000000Y-34750000D03*
X66250000Y-43500000D03*
X84900000Y-41700000D03*
X86300000Y-42500000D03*
X55700000Y-47200000D03*
X85600000Y-41700000D03*
X63500000Y-44000000D03*
X71800000Y-33000000D03*
X55700000Y-48600000D03*
X61750000Y-41500000D03*
X55700000Y-46500000D03*
X85600000Y-42500000D03*
X78250000Y-38500000D03*
X54300000Y-46500000D03*
X74500000Y-42250000D03*
X63500000Y-43250000D03*
X53600000Y-48600000D03*
X56400000Y-48600000D03*
X58100000Y-39200000D03*
X55000000Y-47200000D03*
X55000000Y-48600000D03*
X55700000Y-47900000D03*
X56400000Y-46500000D03*
X57500000Y-36700000D03*
X66400000Y-40100000D03*
X54300000Y-47900000D03*
X55000000Y-47900000D03*
X84900000Y-42500000D03*
X86300000Y-41700000D03*
X62200000Y-34600000D03*
X55000000Y-46500000D03*
X78500000Y-47750000D03*
X67000000Y-43000000D03*
X83900000Y-47900000D03*
X87000000Y-42500000D03*
X54300000Y-48600000D03*
X53600000Y-46500000D03*
X63500000Y-44750000D03*
X56400000Y-47900000D03*
X56400000Y-47200000D03*
X80000000Y-48500000D03*
X53600000Y-47200000D03*
%TO.N,I2C-SCL-1*%
X57700000Y-37600000D03*
X72100000Y-37650000D03*
%TO.N,I2C-SDA-1*%
X60200000Y-35700000D03*
X71850000Y-36600000D03*
%TO.N,+3.3V*%
X79300000Y-37500000D03*
X57700000Y-41500000D03*
X75400000Y-32600000D03*
X58400000Y-40100000D03*
X68600000Y-34900000D03*
X63500000Y-42250000D03*
X61100000Y-34600000D03*
X57000000Y-40100000D03*
X59100000Y-40100000D03*
X58400000Y-41500000D03*
X56250000Y-40100000D03*
X75750000Y-45750000D03*
X75400000Y-33500000D03*
X58400000Y-40800000D03*
X59100000Y-40800000D03*
X57000000Y-40800000D03*
X56200000Y-40800000D03*
X57700000Y-40800000D03*
X59100000Y-41500000D03*
X57700000Y-40100000D03*
X84800000Y-48600000D03*
X78900000Y-36700000D03*
%TO.N,RGB-LED-RED*%
X69274690Y-42250001D03*
X66600000Y-48400000D03*
%TO.N,HBRIDGE-FAULT*%
X74250000Y-46000000D03*
X80100000Y-47350000D03*
%TO.N,HBRIDGE-VREF*%
X82100000Y-46800000D03*
X71750000Y-45700000D03*
%TO.N,+7V*%
X54900000Y-41300000D03*
X54900000Y-40600000D03*
X54900000Y-39900000D03*
X54200000Y-40600000D03*
X54200000Y-39900000D03*
X53500000Y-39900000D03*
X53500000Y-40600000D03*
X53500000Y-41300000D03*
%TO.N,HBRIDGE-IPROPI*%
X73389028Y-44800000D03*
X83900000Y-47100000D03*
%TO.N,SWDIO*%
X75100000Y-37500000D03*
%TO.N,SWCLK*%
X74900000Y-36400000D03*
%TO.N,INA236-INT*%
X71050000Y-36797914D03*
X57700000Y-35900000D03*
%TO.N,UART-RX*%
X74700000Y-39000000D03*
%TO.N,UART-TX*%
X73250000Y-39500000D03*
%TO.N,I2C-SCL-3*%
X73500000Y-40750000D03*
%TO.N,I2C-SDA-3*%
X71750000Y-41000000D03*
%TD*%
D37*
%TO.N,RGB-LED-RED*%
X70450000Y-42550000D02*
X70450000Y-43562500D01*
X70150001Y-42250001D02*
X70450000Y-42550000D01*
X69274690Y-42250001D02*
X70150001Y-42250001D01*
%TO.N,TMP102-INT*%
X70450000Y-39650000D02*
X70450000Y-35237500D01*
X69675000Y-40425000D02*
X70450000Y-39650000D01*
%TO.N,+3.3V*%
X81200000Y-47810000D02*
X81200000Y-48450000D01*
X81200000Y-48450000D02*
X81250000Y-48500000D01*
%TO.N,HBRIDGE-FAULT*%
X80660000Y-46790000D02*
X81200000Y-46790000D01*
X80100000Y-47350000D02*
X80660000Y-46790000D01*
%TO.N,TMP102-INT*%
X61500000Y-40400000D02*
X62169574Y-40400000D01*
X61500000Y-40400000D02*
X61500000Y-38200000D01*
X62169574Y-40400000D02*
X62676758Y-40907184D01*
%TO.N,GND*%
X61758184Y-41508184D02*
X63211816Y-41508184D01*
X74450000Y-43562500D02*
X74450000Y-42300000D01*
X55200000Y-43600000D02*
X53820000Y-43600000D01*
X65000000Y-44037500D02*
X65712500Y-44037500D01*
X61000000Y-37413500D02*
X61000000Y-38200000D01*
X76362500Y-37150000D02*
X77420000Y-37150000D01*
X71800000Y-33000000D02*
X71480000Y-32680000D01*
X64950000Y-35870000D02*
X64580000Y-35500000D01*
X66400000Y-40100000D02*
X67987500Y-40100000D01*
X64580000Y-35500000D02*
X65250000Y-35500000D01*
X74450000Y-44770000D02*
X74170000Y-45050000D01*
X58098000Y-36700000D02*
X58223000Y-36575000D01*
X61500000Y-36775000D02*
X61476000Y-36799000D01*
X57500000Y-36700000D02*
X56975000Y-37225000D01*
X65712500Y-44037500D02*
X66250000Y-43500000D01*
X63250000Y-40730000D02*
X63620000Y-41100000D01*
X69950000Y-33870000D02*
X69950000Y-35237500D01*
X61725000Y-36775000D02*
X62000000Y-36500000D01*
X62200000Y-34600000D02*
X62200000Y-35680000D01*
X61476000Y-36799000D02*
X61476000Y-37413500D01*
X74450000Y-42300000D02*
X74500000Y-42250000D01*
X66250000Y-42230000D02*
X66400000Y-42080000D01*
X61500000Y-36775000D02*
X61725000Y-36775000D01*
X56975000Y-37225000D02*
X56275000Y-37225000D01*
X53820000Y-43600000D02*
X53800000Y-43580000D01*
X64950000Y-37200000D02*
X64950000Y-35870000D01*
X66250000Y-43500000D02*
X66250000Y-42230000D01*
X69500000Y-33420000D02*
X69780000Y-33700000D01*
X58223000Y-36575000D02*
X58925000Y-36575000D01*
X61476000Y-37413500D02*
X61000000Y-37413500D01*
X74450000Y-43562500D02*
X74450000Y-44770000D01*
X62000000Y-35780000D02*
X62080000Y-35700000D01*
X71480000Y-32680000D02*
X70900000Y-32680000D01*
X67987500Y-40100000D02*
X68037500Y-40150000D01*
X57500000Y-36700000D02*
X58098000Y-36700000D01*
X63211816Y-41508184D02*
X63620000Y-41100000D01*
X69500000Y-32400000D02*
X69500000Y-33420000D01*
X69780000Y-33700000D02*
X69950000Y-33870000D01*
X65250000Y-35500000D02*
X66000000Y-34750000D01*
X57230000Y-39200000D02*
X58100000Y-39200000D01*
X77420000Y-37150000D02*
X77900000Y-37630000D01*
X63250000Y-39400000D02*
X63250000Y-40730000D01*
X62000000Y-36500000D02*
X62000000Y-35780000D01*
X62200000Y-35680000D02*
X62180000Y-35700000D01*
X61750000Y-41500000D02*
X61758184Y-41508184D01*
%TO.N,RGB-LED-GREEN*%
X69450000Y-43562500D02*
X69450000Y-44450000D01*
X69450000Y-44450000D02*
X66700000Y-47200000D01*
X66700000Y-47200000D02*
X64810000Y-47200000D01*
%TO.N,I2C-SCL-1*%
X72450000Y-35237500D02*
X72450000Y-34330000D01*
X72450000Y-34330000D02*
X73180000Y-33600000D01*
X57700000Y-37600000D02*
X57975000Y-37875000D01*
X72466437Y-37283563D02*
X72466437Y-36666437D01*
X57975000Y-37875000D02*
X58925000Y-37875000D01*
X72100000Y-37650000D02*
X72466437Y-37283563D01*
X72466437Y-36666437D02*
X72450000Y-36650000D01*
X58925000Y-37875000D02*
X60362500Y-37875000D01*
X60362500Y-37875000D02*
X60500000Y-38012500D01*
X72450000Y-36650000D02*
X72450000Y-35237500D01*
%TO.N,I2C-SDA-1*%
X71950000Y-35237500D02*
X71950000Y-33830000D01*
X60375000Y-37225000D02*
X60500000Y-37100000D01*
X60500000Y-36000000D02*
X60200000Y-35700000D01*
X71950000Y-36500000D02*
X71950000Y-35237500D01*
X58925000Y-37225000D02*
X60375000Y-37225000D01*
X60500000Y-36775000D02*
X60500000Y-36000000D01*
X60500000Y-37100000D02*
X60500000Y-36775000D01*
X71850000Y-36600000D02*
X71950000Y-36500000D01*
X71950000Y-33830000D02*
X73180000Y-32600000D01*
%TO.N,+3.3V*%
X66380000Y-41100000D02*
X66400000Y-41120000D01*
X68037500Y-36650000D02*
X68950000Y-36650000D01*
X75300000Y-33600000D02*
X75400000Y-33500000D01*
X74200000Y-32600000D02*
X75400000Y-32600000D01*
X60480000Y-40400000D02*
X59400000Y-40400000D01*
X61120000Y-34620000D02*
X61100000Y-34600000D01*
X66500000Y-36670000D02*
X68017500Y-36670000D01*
X78000000Y-36700000D02*
X78900000Y-36700000D01*
X68037500Y-40650000D02*
X66870000Y-40650000D01*
X59220000Y-34600000D02*
X59120000Y-34700000D01*
X67950000Y-32830000D02*
X68820000Y-33700000D01*
X63500000Y-42250000D02*
X64787500Y-42250000D01*
X68950000Y-36650000D02*
X69450000Y-36150000D01*
X61000000Y-36775000D02*
X61000000Y-35920000D01*
X79300000Y-39037000D02*
X79325000Y-39062000D01*
X77880000Y-36650000D02*
X77900000Y-36670000D01*
X64787500Y-42250000D02*
X65000000Y-42462500D01*
X75750000Y-45750000D02*
X75130000Y-45130000D01*
X84800000Y-48600000D02*
X84800000Y-47810000D01*
X74950000Y-44870000D02*
X75130000Y-45050000D01*
X56270000Y-37880000D02*
X56275000Y-37875000D01*
X76362500Y-36650000D02*
X77880000Y-36650000D01*
X61220000Y-35600000D02*
X61220000Y-35700000D01*
X66870000Y-40650000D02*
X66400000Y-41120000D01*
X74950000Y-43562500D02*
X74950000Y-44870000D01*
D38*
X60512500Y-42700000D02*
X59280000Y-42700000D01*
D37*
X59100000Y-41500000D02*
X59285000Y-41500000D01*
X63500000Y-42250000D02*
X64850000Y-42250000D01*
X61100000Y-34600000D02*
X59220000Y-34600000D01*
X68820000Y-33700000D02*
X69400000Y-34280000D01*
X61120000Y-35600000D02*
X61120000Y-34620000D01*
X74200000Y-33600000D02*
X75300000Y-33600000D01*
X61220000Y-35700000D02*
X61120000Y-35600000D01*
X66000000Y-41100000D02*
X66380000Y-41100000D01*
X59170000Y-42650000D02*
X59200000Y-42620000D01*
X68820000Y-33700000D02*
X68820000Y-34680000D01*
X57800000Y-42650000D02*
X59170000Y-42650000D01*
X64850000Y-42250000D02*
X66000000Y-41100000D01*
X61100000Y-35480000D02*
X61220000Y-35600000D01*
X75130000Y-45130000D02*
X75130000Y-45050000D01*
X69400000Y-34280000D02*
X69400000Y-35187500D01*
X61000000Y-35920000D02*
X61220000Y-35700000D01*
X59400000Y-40400000D02*
X59100000Y-40100000D01*
X69450000Y-36150000D02*
X69450000Y-35237500D01*
X68820000Y-34680000D02*
X68600000Y-34900000D01*
X68017500Y-36670000D02*
X68037500Y-36650000D01*
X56270000Y-39200000D02*
X56270000Y-37880000D01*
X69500000Y-35187500D02*
X69450000Y-35237500D01*
D38*
X59280000Y-42700000D02*
X59200000Y-42620000D01*
D37*
X67950000Y-32400000D02*
X67950000Y-32830000D01*
X69400000Y-35187500D02*
X69450000Y-35237500D01*
X79300000Y-37500000D02*
X79300000Y-39037000D01*
%TO.N,HSE-OUT*%
X64950000Y-39400000D02*
X64950000Y-40730000D01*
X65200000Y-39150000D02*
X68037500Y-39150000D01*
X64950000Y-39400000D02*
X65200000Y-39150000D01*
X64950000Y-40730000D02*
X64580000Y-41100000D01*
%TO.N,RGB-LED-BLUE*%
X64810000Y-46000000D02*
X65310000Y-46000000D01*
X68037500Y-43272500D02*
X68037500Y-42150000D01*
X65310000Y-46000000D02*
X68037500Y-43272500D01*
%TO.N,HSE-IN*%
X63250000Y-37200000D02*
X63250000Y-35870000D01*
X68037500Y-38650000D02*
X65786160Y-38650000D01*
X63250000Y-35870000D02*
X63620000Y-35500000D01*
X65786160Y-38650000D02*
X65337160Y-38201000D01*
X64251000Y-38201000D02*
X63250000Y-37200000D01*
X65337160Y-38201000D02*
X64251000Y-38201000D01*
%TO.N,RGB-LED-RED*%
X66500000Y-48500000D02*
X64810000Y-48500000D01*
X66600000Y-48400000D02*
X66500000Y-48500000D01*
D39*
%TO.N,HBRIDGE-*%
X83700000Y-37400000D02*
X85100000Y-37400000D01*
X83700000Y-37400000D02*
X83225000Y-37875000D01*
X85800000Y-38100000D02*
X85800000Y-39400000D01*
X85100000Y-37400000D02*
X85800000Y-38100000D01*
X83225000Y-37875000D02*
X83225000Y-39062000D01*
D37*
%TO.N,CPL*%
X80625000Y-37705000D02*
X80625000Y-39062000D01*
X80320000Y-37400000D02*
X80625000Y-37705000D01*
%TO.N,CPH*%
X81275000Y-39062000D02*
X81275000Y-37405000D01*
X81275000Y-37405000D02*
X81280000Y-37400000D01*
%TO.N,HBRIDGE-FAULT*%
X72932900Y-45900000D02*
X71450000Y-44417100D01*
X74150000Y-45900000D02*
X72932900Y-45900000D01*
X74250000Y-46000000D02*
X74150000Y-45900000D01*
X81275000Y-44938000D02*
X81275000Y-46715000D01*
X71450000Y-44417100D02*
X71450000Y-43562500D01*
X81275000Y-46715000D02*
X81200000Y-46790000D01*
%TO.N,HBRIDGE-IN2*%
X76411500Y-41199000D02*
X77182824Y-41199000D01*
X77500000Y-41250000D02*
X77750000Y-41500000D01*
X79975000Y-45852500D02*
X79975000Y-44938000D01*
X77233824Y-41250000D02*
X77500000Y-41250000D01*
X76362500Y-41150000D02*
X76411500Y-41199000D01*
X78350000Y-46250000D02*
X79577500Y-46250000D01*
X77750000Y-45650000D02*
X78350000Y-46250000D01*
X79577500Y-46250000D02*
X79975000Y-45852500D01*
X77182824Y-41199000D02*
X77233824Y-41250000D01*
X77750000Y-41500000D02*
X77750000Y-45650000D01*
%TO.N,HBRIDGE-IMODE*%
X84310000Y-46300000D02*
X84800000Y-46790000D01*
X83225000Y-44938000D02*
X83225000Y-45875500D01*
X83649500Y-46300000D02*
X84310000Y-46300000D01*
X83225000Y-45875500D02*
X83649500Y-46300000D01*
%TO.N,HBRIDGE-IN1*%
X78150000Y-40650000D02*
X78400000Y-40900000D01*
X76362500Y-40650000D02*
X78150000Y-40650000D01*
X78400000Y-44013000D02*
X79325000Y-44938000D01*
X78400000Y-40900000D02*
X78400000Y-44013000D01*
%TO.N,VCP*%
X81925000Y-39062000D02*
X81925000Y-36895000D01*
X81925000Y-36895000D02*
X82320000Y-36500000D01*
%TO.N,HBRIDGE-SLEEP*%
X78032900Y-47000000D02*
X76362500Y-45329600D01*
X80625000Y-44938000D02*
X80625000Y-45875500D01*
X76362500Y-45329600D02*
X76362500Y-42150000D01*
X79500500Y-47000000D02*
X78032900Y-47000000D01*
X80625000Y-45875500D02*
X79500500Y-47000000D01*
%TO.N,HBRIDGE-VREF*%
X69950000Y-44575000D02*
X69950000Y-43562500D01*
X81925000Y-44938000D02*
X81925000Y-46625000D01*
X71050000Y-45000000D02*
X70375000Y-45000000D01*
X81925000Y-46625000D02*
X82100000Y-46800000D01*
X70375000Y-45000000D02*
X69950000Y-44575000D01*
X71750000Y-45700000D02*
X71050000Y-45000000D01*
X70000000Y-43512500D02*
X69950000Y-43562500D01*
D39*
%TO.N,+7V*%
X83320000Y-35100000D02*
X83280000Y-35140000D01*
X83280000Y-36620000D02*
X82575000Y-37325000D01*
D37*
X56275000Y-36575000D02*
X55550000Y-36575000D01*
X55200000Y-42650000D02*
X56050000Y-42650000D01*
X56112500Y-44550000D02*
X55200000Y-44550000D01*
D39*
X81820000Y-33600000D02*
X81522600Y-33600000D01*
X83280000Y-35140000D02*
X83280000Y-36620000D01*
D37*
X56400000Y-43000000D02*
X56400000Y-44262500D01*
X56050000Y-42650000D02*
X56400000Y-43000000D01*
D39*
X82575000Y-37325000D02*
X82575000Y-39062000D01*
D37*
X54200000Y-37925000D02*
X54200000Y-38462500D01*
X56400000Y-44262500D02*
X56112500Y-44550000D01*
D39*
X55170000Y-42620000D02*
X55200000Y-42650000D01*
D37*
X55550000Y-36575000D02*
X54200000Y-37925000D01*
D39*
X53800000Y-42620000D02*
X55170000Y-42620000D01*
D37*
%TO.N,HBRIDGE-IPROPI*%
X71950000Y-44350000D02*
X71950000Y-43562500D01*
X83310000Y-47100000D02*
X83000000Y-46790000D01*
X83900000Y-47100000D02*
X83310000Y-47100000D01*
X82575000Y-44938000D02*
X82575000Y-46365000D01*
X73289028Y-44900000D02*
X72500000Y-44900000D01*
X73389028Y-44800000D02*
X73289028Y-44900000D01*
X82575000Y-46365000D02*
X83000000Y-46790000D01*
X72500000Y-44900000D02*
X71950000Y-44350000D01*
D40*
%TO.N,+SV*%
X53247500Y-36490000D02*
X54200000Y-35537500D01*
X51200000Y-36490000D02*
X53247500Y-36490000D01*
D37*
X54587500Y-35925000D02*
X54200000Y-35537500D01*
X56275000Y-35925000D02*
X54587500Y-35925000D01*
%TO.N,Net-(LED1-Pad4)*%
X63790000Y-48500000D02*
X63565000Y-48275000D01*
X63565000Y-48275000D02*
X62300000Y-48275000D01*
X62300000Y-48275000D02*
X62100000Y-48475000D01*
D39*
%TO.N,Net-(LED1-Pad5)*%
X62275000Y-47200000D02*
X62250000Y-47175000D01*
X63790000Y-47200000D02*
X62275000Y-47200000D01*
X62250000Y-47175000D02*
X62100000Y-47175000D01*
D37*
%TO.N,Net-(LED1-Pad6)*%
X63790000Y-46000000D02*
X63790000Y-46100000D01*
X62275000Y-46100000D02*
X62100000Y-46275000D01*
X63790000Y-46100000D02*
X62275000Y-46100000D01*
%TO.N,SWDIO*%
X75100000Y-37500000D02*
X75250000Y-37650000D01*
X75250000Y-37650000D02*
X76362500Y-37650000D01*
%TO.N,SWCLK*%
X74900000Y-36400000D02*
X74900000Y-35287500D01*
X74900000Y-35287500D02*
X74950000Y-35237500D01*
%TO.N,INA236-INT*%
X57700000Y-35100000D02*
X58100000Y-34700000D01*
X57725000Y-35925000D02*
X58925000Y-35925000D01*
X70950000Y-35237500D02*
X70950000Y-36697914D01*
X57700000Y-35900000D02*
X57725000Y-35925000D01*
X70950000Y-36697914D02*
X71050000Y-36797914D01*
X57700000Y-35900000D02*
X57700000Y-35100000D01*
%TO.N,Net-(U1-BOOT0)*%
X70900000Y-33700000D02*
X71450000Y-34250000D01*
X71450000Y-34250000D02*
X71450000Y-35237500D01*
D38*
%TO.N,Net-(D1-K)*%
X62187500Y-44222500D02*
X61910000Y-44500000D01*
X62187500Y-42700000D02*
X62187500Y-44222500D01*
D37*
%TO.N,UART-RX*%
X74850000Y-39150000D02*
X74700000Y-39000000D01*
X76362500Y-39150000D02*
X74850000Y-39150000D01*
%TO.N,UART-TX*%
X73250000Y-39500000D02*
X73500000Y-39750000D01*
X73500000Y-39750000D02*
X74750003Y-39750000D01*
X74850003Y-39650000D02*
X76362500Y-39650000D01*
X74750003Y-39750000D02*
X74850003Y-39650000D01*
%TO.N,I2C-SCL-3*%
X74750000Y-40750000D02*
X75350000Y-40150000D01*
X75350000Y-40150000D02*
X76362500Y-40150000D01*
X73500000Y-40750000D02*
X74750000Y-40750000D01*
%TO.N,I2C-SDA-3*%
X72950000Y-38300000D02*
X72950000Y-35237500D01*
X71750000Y-39500000D02*
X72950000Y-38300000D01*
X71750000Y-41000000D02*
X71750000Y-39500000D01*
%TD*%
%TA.AperFunction,Conductor*%
%TO.N,+7V*%
G36*
X55192539Y-37819685D02*
G01*
X55238294Y-37872489D01*
X55249500Y-37923999D01*
X55249500Y-38147869D01*
X55249501Y-38147876D01*
X55255908Y-38207483D01*
X55306202Y-38342328D01*
X55306206Y-38342335D01*
X55375358Y-38434709D01*
X55392454Y-38457546D01*
X55394119Y-38458792D01*
X55395365Y-38460457D01*
X55398725Y-38463817D01*
X55398241Y-38464300D01*
X55435989Y-38514725D01*
X55440973Y-38584417D01*
X55432601Y-38609570D01*
X55384664Y-38714534D01*
X55367319Y-38773605D01*
X55364977Y-38781580D01*
X55364976Y-38781584D01*
X55344500Y-38924000D01*
X55344500Y-41626000D01*
X55344501Y-41626009D01*
X55356052Y-41733450D01*
X55356054Y-41733462D01*
X55367260Y-41784972D01*
X55401383Y-41887497D01*
X55401386Y-41887503D01*
X55479171Y-42008537D01*
X55479179Y-42008548D01*
X55524923Y-42061340D01*
X55524926Y-42061343D01*
X55524930Y-42061347D01*
X55633664Y-42155567D01*
X55764541Y-42215338D01*
X55824075Y-42232819D01*
X55831583Y-42235024D01*
X55840289Y-42236275D01*
X55893647Y-42243947D01*
X55957201Y-42272970D01*
X55994976Y-42331747D01*
X56000000Y-42366684D01*
X56000000Y-42680497D01*
X55980315Y-42747536D01*
X55927511Y-42793291D01*
X55862747Y-42803787D01*
X55858655Y-42803347D01*
X55822873Y-42799500D01*
X55822867Y-42799500D01*
X54577129Y-42799500D01*
X54577123Y-42799501D01*
X54517516Y-42805908D01*
X54382671Y-42856202D01*
X54374886Y-42860454D01*
X54373637Y-42858167D01*
X54320932Y-42877817D01*
X54252661Y-42862955D01*
X54248985Y-42860865D01*
X54226395Y-42847506D01*
X54226390Y-42847504D01*
X54070997Y-42802357D01*
X54070991Y-42802356D01*
X54034697Y-42799500D01*
X54034690Y-42799500D01*
X53565310Y-42799500D01*
X53565302Y-42799500D01*
X53529008Y-42802356D01*
X53529002Y-42802357D01*
X53373609Y-42847504D01*
X53373606Y-42847505D01*
X53287121Y-42898652D01*
X53219396Y-42915835D01*
X53153134Y-42893675D01*
X53109371Y-42839208D01*
X53100000Y-42791920D01*
X53100000Y-38122695D01*
X53100013Y-38122647D01*
X53100000Y-38122600D01*
X53109936Y-38088854D01*
X53119685Y-38055656D01*
X53119721Y-38055624D01*
X53119736Y-38055576D01*
X53146639Y-38032299D01*
X53172489Y-38009901D01*
X53172549Y-38009883D01*
X53172575Y-38009861D01*
X53173817Y-38009511D01*
X53206447Y-37999944D01*
X53250469Y-37993648D01*
X53250580Y-37994557D01*
X53274017Y-37991711D01*
X53274082Y-37991703D01*
X53285334Y-37988663D01*
X53292812Y-37987594D01*
X53292900Y-37987606D01*
X53293295Y-37987526D01*
X53301987Y-37986318D01*
X53327574Y-37979061D01*
X53327573Y-37979059D01*
X53369457Y-37967181D01*
X53379242Y-37963302D01*
X53412986Y-37954190D01*
X53421331Y-37950597D01*
X53453742Y-37933738D01*
X53463288Y-37929278D01*
X53467553Y-37927501D01*
X53479097Y-37923677D01*
X53519860Y-37908188D01*
X53524797Y-37906064D01*
X53529965Y-37903806D01*
X53532452Y-37902703D01*
X53537565Y-37900402D01*
X53546648Y-37894562D01*
X53550403Y-37892999D01*
X53578972Y-37877169D01*
X53578973Y-37877170D01*
X53600128Y-37865448D01*
X53664365Y-37821590D01*
X53730830Y-37800048D01*
X53734282Y-37800000D01*
X55125500Y-37800000D01*
X55192539Y-37819685D01*
G37*
%TD.AperFunction*%
%TD*%
%TA.AperFunction,Conductor*%
%TO.N,HBRIDGE-*%
G36*
X87143039Y-37019685D02*
G01*
X87188794Y-37072489D01*
X87200000Y-37124000D01*
X87200000Y-40676000D01*
X87180315Y-40743039D01*
X87127511Y-40788794D01*
X87076000Y-40800000D01*
X84624000Y-40800000D01*
X84556961Y-40780315D01*
X84511206Y-40727511D01*
X84500000Y-40676000D01*
X84500000Y-40141606D01*
X84519685Y-40074567D01*
X84524734Y-40067294D01*
X84525000Y-40066939D01*
X84543796Y-40041831D01*
X84594091Y-39906983D01*
X84600500Y-39847373D01*
X84600499Y-38276628D01*
X84594091Y-38217017D01*
X84543796Y-38082169D01*
X84500000Y-38023665D01*
X84500000Y-38000000D01*
X84482284Y-38000000D01*
X84457546Y-37966954D01*
X84342331Y-37880704D01*
X84342329Y-37880703D01*
X84342328Y-37880702D01*
X84207486Y-37830410D01*
X84207485Y-37830409D01*
X84207483Y-37830409D01*
X84147873Y-37824000D01*
X84147863Y-37824000D01*
X83602129Y-37824000D01*
X83602123Y-37824001D01*
X83542516Y-37830408D01*
X83402614Y-37882588D01*
X83401011Y-37883978D01*
X83370637Y-37888345D01*
X83340647Y-37894868D01*
X83336370Y-37893272D01*
X83331853Y-37893922D01*
X83303938Y-37881173D01*
X83275184Y-37870447D01*
X83272449Y-37866793D01*
X83268297Y-37864897D01*
X83251703Y-37839077D01*
X83233316Y-37814511D01*
X83232301Y-37808886D01*
X83230523Y-37806119D01*
X83225500Y-37771184D01*
X83225500Y-37645807D01*
X83245185Y-37578768D01*
X83261815Y-37558130D01*
X83627182Y-37192762D01*
X83670028Y-37167426D01*
X83669235Y-37165592D01*
X83676387Y-37162496D01*
X83676395Y-37162494D01*
X83815687Y-37080117D01*
X83859484Y-37036320D01*
X83920807Y-37002834D01*
X83947166Y-37000000D01*
X87076000Y-37000000D01*
X87143039Y-37019685D01*
G37*
%TD.AperFunction*%
%TD*%
%TA.AperFunction,Conductor*%
%TO.N,+SV*%
G36*
X55243039Y-34719685D02*
G01*
X55288794Y-34772489D01*
X55300000Y-34824000D01*
X55300000Y-35954348D01*
X55280315Y-36021387D01*
X55238000Y-36061735D01*
X55181287Y-36094477D01*
X55181282Y-36094481D01*
X55012083Y-36263681D01*
X54950760Y-36297166D01*
X54924402Y-36300000D01*
X53400000Y-36300000D01*
X53400000Y-37327817D01*
X53394602Y-37346199D01*
X53394182Y-37365354D01*
X53384961Y-37379031D01*
X53380315Y-37394856D01*
X53365837Y-37407400D01*
X53355127Y-37423289D01*
X53333972Y-37435011D01*
X53327511Y-37440611D01*
X53325024Y-37441714D01*
X53320087Y-37443838D01*
X53255666Y-37465186D01*
X53221426Y-37486304D01*
X53213081Y-37489897D01*
X53189644Y-37492743D01*
X53164057Y-37500000D01*
X50624500Y-37500000D01*
X50557461Y-37480315D01*
X50511706Y-37427511D01*
X50500500Y-37376000D01*
X50500500Y-34824000D01*
X50520185Y-34756961D01*
X50572989Y-34711206D01*
X50624500Y-34700000D01*
X55176000Y-34700000D01*
X55243039Y-34719685D01*
G37*
%TD.AperFunction*%
%TD*%
%TA.AperFunction,Conductor*%
%TO.N,+3.3V*%
G36*
X56395406Y-38819685D02*
G01*
X56441161Y-38872489D01*
X56451985Y-38933727D01*
X56449500Y-38965299D01*
X56449500Y-39434697D01*
X56452356Y-39470991D01*
X56452357Y-39470997D01*
X56497504Y-39626390D01*
X56497505Y-39626393D01*
X56579881Y-39765684D01*
X56579887Y-39765692D01*
X56694307Y-39880112D01*
X56694311Y-39880115D01*
X56694313Y-39880117D01*
X56833605Y-39962494D01*
X56858532Y-39969736D01*
X56989002Y-40007642D01*
X56989005Y-40007642D01*
X56989007Y-40007643D01*
X57025310Y-40010500D01*
X57025318Y-40010500D01*
X57434682Y-40010500D01*
X57434690Y-40010500D01*
X57470993Y-40007643D01*
X57470995Y-40007642D01*
X57470997Y-40007642D01*
X57511975Y-39995736D01*
X57626395Y-39962494D01*
X57664762Y-39939803D01*
X57732483Y-39922620D01*
X57775332Y-39931973D01*
X57866503Y-39969737D01*
X58021153Y-40000499D01*
X58021156Y-40000500D01*
X58021158Y-40000500D01*
X58178844Y-40000500D01*
X58178845Y-40000499D01*
X58333497Y-39969737D01*
X58479179Y-39909394D01*
X58610289Y-39821789D01*
X58610292Y-39821786D01*
X58695760Y-39736319D01*
X58757083Y-39702834D01*
X58783441Y-39700000D01*
X59576000Y-39700000D01*
X59643039Y-39719685D01*
X59688794Y-39772489D01*
X59700000Y-39824000D01*
X59700000Y-42703737D01*
X59680315Y-42770776D01*
X59627511Y-42816531D01*
X59558353Y-42826475D01*
X59541405Y-42822813D01*
X59470997Y-42802357D01*
X59470991Y-42802356D01*
X59434697Y-42799500D01*
X59434690Y-42799500D01*
X58965310Y-42799500D01*
X58965302Y-42799500D01*
X58929008Y-42802356D01*
X58929002Y-42802357D01*
X58773609Y-42847504D01*
X58773606Y-42847505D01*
X58634315Y-42929881D01*
X58634307Y-42929887D01*
X58519887Y-43044307D01*
X58515103Y-43050476D01*
X58512750Y-43048651D01*
X58471868Y-43086813D01*
X58416221Y-43100000D01*
X57124501Y-43100000D01*
X57057462Y-43080315D01*
X57011707Y-43027511D01*
X57000501Y-42976000D01*
X57000501Y-42920944D01*
X56980823Y-42847506D01*
X56959577Y-42768216D01*
X56959575Y-42768213D01*
X56959574Y-42768208D01*
X56959438Y-42767879D01*
X56959299Y-42767181D01*
X56957473Y-42760366D01*
X56957919Y-42760246D01*
X56950000Y-42720430D01*
X56950000Y-41750000D01*
X55974000Y-41750000D01*
X55906961Y-41730315D01*
X55861206Y-41677511D01*
X55850000Y-41626000D01*
X55850000Y-38924000D01*
X55869685Y-38856961D01*
X55922489Y-38811206D01*
X55974000Y-38800000D01*
X56328367Y-38800000D01*
X56395406Y-38819685D01*
G37*
%TD.AperFunction*%
%TD*%
%TA.AperFunction,Conductor*%
%TO.N,+7V*%
G36*
X83646259Y-33119685D02*
G01*
X83692014Y-33172489D01*
X83703177Y-33220738D01*
X83749457Y-34979373D01*
X83749500Y-34982635D01*
X83749500Y-35300735D01*
X83758320Y-35356425D01*
X83759803Y-35372558D01*
X83787607Y-36429117D01*
X83769693Y-36496651D01*
X83718111Y-36543779D01*
X83706989Y-36548559D01*
X83678536Y-36559172D01*
X83678534Y-36559173D01*
X83617215Y-36592657D01*
X83510964Y-36672197D01*
X83499775Y-36679662D01*
X83422327Y-36725465D01*
X83416452Y-36728727D01*
X83406050Y-36734139D01*
X83404622Y-36734883D01*
X83404616Y-36734887D01*
X83403004Y-36736228D01*
X83386859Y-36747604D01*
X83369887Y-36757641D01*
X83369882Y-36757644D01*
X83269738Y-36835320D01*
X83241378Y-36863681D01*
X83214450Y-36878384D01*
X83188632Y-36894977D01*
X83182431Y-36895868D01*
X83180055Y-36897166D01*
X83153697Y-36900000D01*
X83024000Y-36900000D01*
X82956961Y-36880315D01*
X82911206Y-36827511D01*
X82900000Y-36776000D01*
X82900000Y-35500000D01*
X80996600Y-35500000D01*
X80929561Y-35480315D01*
X80883806Y-35427511D01*
X80872600Y-35376000D01*
X80872600Y-33886280D01*
X80873100Y-33883767D01*
X80873100Y-33716233D01*
X80872600Y-33713719D01*
X80872600Y-33224000D01*
X80892285Y-33156961D01*
X80945089Y-33111206D01*
X80996600Y-33100000D01*
X83579220Y-33100000D01*
X83646259Y-33119685D01*
G37*
%TD.AperFunction*%
%TD*%
%TA.AperFunction,Conductor*%
%TO.N,HBRIDGE+*%
G36*
X87243039Y-43419685D02*
G01*
X87288794Y-43472489D01*
X87300000Y-43524000D01*
X87300000Y-45776000D01*
X87280315Y-45843039D01*
X87227511Y-45888794D01*
X87176000Y-45900000D01*
X84810598Y-45900000D01*
X84743559Y-45880315D01*
X84738142Y-45876628D01*
X84730005Y-45870769D01*
X84678716Y-45819480D01*
X84583485Y-45764499D01*
X84578092Y-45761385D01*
X84578089Y-45761383D01*
X84541783Y-45740422D01*
X84478151Y-45723372D01*
X84389057Y-45699499D01*
X84230943Y-45699499D01*
X84223347Y-45699499D01*
X84223331Y-45699500D01*
X84074500Y-45699500D01*
X84007461Y-45679815D01*
X83961706Y-45627011D01*
X83950500Y-45575500D01*
X83950499Y-44152629D01*
X83950498Y-44152612D01*
X83948847Y-44137256D01*
X83961252Y-44068496D01*
X84008862Y-44017359D01*
X84072136Y-44000000D01*
X84700000Y-44000000D01*
X84700000Y-43524000D01*
X84719685Y-43456961D01*
X84772489Y-43411206D01*
X84824000Y-43400000D01*
X87176000Y-43400000D01*
X87243039Y-43419685D01*
G37*
%TD.AperFunction*%
%TD*%
%TA.AperFunction,Conductor*%
%TO.N,GND*%
G36*
X66968832Y-41515930D02*
G01*
X67024766Y-41557800D01*
X67049184Y-41623264D01*
X67049500Y-41632111D01*
X67049500Y-41763131D01*
X67049501Y-41763138D01*
X67055741Y-41810545D01*
X67073018Y-41847596D01*
X67083509Y-41916673D01*
X67073018Y-41952402D01*
X67055742Y-41989451D01*
X67055740Y-41989458D01*
X67049500Y-42036859D01*
X67049500Y-42263132D01*
X67049501Y-42263138D01*
X67055741Y-42310545D01*
X67055742Y-42310547D01*
X67055742Y-42310548D01*
X67104253Y-42414579D01*
X67185421Y-42495747D01*
X67289455Y-42544259D01*
X67336861Y-42550500D01*
X67563000Y-42550499D01*
X67630039Y-42570183D01*
X67675794Y-42622987D01*
X67687000Y-42674499D01*
X67687000Y-43075956D01*
X67667315Y-43142995D01*
X67650681Y-43163637D01*
X65331133Y-45483184D01*
X65269810Y-45516669D01*
X65200118Y-45511685D01*
X65175090Y-45498383D01*
X65056521Y-45440419D01*
X65056519Y-45440418D01*
X65056518Y-45440418D01*
X64981582Y-45429500D01*
X64638418Y-45429500D01*
X64563482Y-45440418D01*
X64563480Y-45440418D01*
X64563478Y-45440419D01*
X64447900Y-45496921D01*
X64447897Y-45496923D01*
X64387681Y-45557140D01*
X64326358Y-45590625D01*
X64256666Y-45585641D01*
X64212319Y-45557140D01*
X64152102Y-45496923D01*
X64152099Y-45496921D01*
X64036521Y-45440419D01*
X64036519Y-45440418D01*
X64036518Y-45440418D01*
X63961582Y-45429500D01*
X63618418Y-45429500D01*
X63543482Y-45440418D01*
X63543480Y-45440418D01*
X63543478Y-45440419D01*
X63427900Y-45496921D01*
X63427897Y-45496923D01*
X63336923Y-45587897D01*
X63336923Y-45587898D01*
X63291916Y-45679961D01*
X63280970Y-45691940D01*
X63274229Y-45706703D01*
X63257888Y-45717204D01*
X63244788Y-45731543D01*
X63228492Y-45736095D01*
X63215451Y-45744477D01*
X63180516Y-45749500D01*
X63010838Y-45749500D01*
X62943799Y-45729815D01*
X62898457Y-45677906D01*
X62893224Y-45666684D01*
X62808316Y-45581776D01*
X62699487Y-45531028D01*
X62699485Y-45531027D01*
X62699486Y-45531027D01*
X62649901Y-45524500D01*
X61550105Y-45524500D01*
X61534386Y-45526569D01*
X61500513Y-45531028D01*
X61500511Y-45531029D01*
X61500509Y-45531029D01*
X61391683Y-45581776D01*
X61306776Y-45666683D01*
X61256027Y-45775514D01*
X61249500Y-45825098D01*
X61249500Y-46324894D01*
X61250772Y-46334560D01*
X61256028Y-46374487D01*
X61256029Y-46374489D01*
X61256029Y-46374490D01*
X61306776Y-46483316D01*
X61360779Y-46537319D01*
X61394264Y-46598642D01*
X61389280Y-46668334D01*
X61360779Y-46712681D01*
X61306776Y-46766683D01*
X61256027Y-46875514D01*
X61249500Y-46925098D01*
X61249500Y-47424894D01*
X61250772Y-47434560D01*
X61256028Y-47474487D01*
X61256029Y-47474489D01*
X61256029Y-47474490D01*
X61306776Y-47583316D01*
X61360779Y-47637319D01*
X61394264Y-47698642D01*
X61389280Y-47768334D01*
X61360779Y-47812681D01*
X61306776Y-47866683D01*
X61256027Y-47975514D01*
X61249500Y-48025098D01*
X61249500Y-48524894D01*
X61249847Y-48527527D01*
X61256028Y-48574487D01*
X61256029Y-48574489D01*
X61256029Y-48574490D01*
X61306776Y-48683316D01*
X61391684Y-48768224D01*
X61399827Y-48773926D01*
X61443452Y-48828503D01*
X61450644Y-48898001D01*
X61419121Y-48960356D01*
X61358891Y-48995769D01*
X61328703Y-48999500D01*
X52871905Y-48999500D01*
X52804866Y-48979815D01*
X52759111Y-48927011D01*
X52749167Y-48857853D01*
X52771586Y-48802615D01*
X52783343Y-48786433D01*
X52890568Y-48575992D01*
X52963553Y-48351368D01*
X52978156Y-48259169D01*
X53000500Y-48118097D01*
X53000500Y-47881902D01*
X52963553Y-47648631D01*
X52913196Y-47493649D01*
X52890568Y-47424008D01*
X52890566Y-47424005D01*
X52890566Y-47424003D01*
X52829455Y-47304067D01*
X52783343Y-47213567D01*
X52644517Y-47022490D01*
X52477510Y-46855483D01*
X52286433Y-46716657D01*
X52247705Y-46696924D01*
X52075996Y-46609433D01*
X51851368Y-46536446D01*
X51618097Y-46499500D01*
X51618092Y-46499500D01*
X51381908Y-46499500D01*
X51381903Y-46499500D01*
X51148631Y-46536446D01*
X50924003Y-46609433D01*
X50713567Y-46716656D01*
X50697385Y-46728414D01*
X50631578Y-46751893D01*
X50563524Y-46736067D01*
X50514830Y-46685961D01*
X50500500Y-46628095D01*
X50500500Y-42520131D01*
X50520185Y-42453092D01*
X50572989Y-42407337D01*
X50642147Y-42397393D01*
X50697383Y-42419812D01*
X50823212Y-42511232D01*
X50977555Y-42589873D01*
X51142299Y-42643402D01*
X51313389Y-42670500D01*
X51313390Y-42670500D01*
X51486610Y-42670500D01*
X51486611Y-42670500D01*
X51657701Y-42643402D01*
X51822445Y-42589873D01*
X51976788Y-42511232D01*
X52116928Y-42409414D01*
X52239414Y-42286928D01*
X52341232Y-42146788D01*
X52360015Y-42109924D01*
X52407988Y-42059128D01*
X52475809Y-42042332D01*
X52541944Y-42064869D01*
X52585396Y-42119583D01*
X52594500Y-42166218D01*
X52594500Y-42791920D01*
X52595314Y-42800213D01*
X52604141Y-42890173D01*
X52604142Y-42890176D01*
X52604143Y-42890183D01*
X52612958Y-42934664D01*
X52613516Y-42937480D01*
X52642070Y-43031977D01*
X52642073Y-43031982D01*
X52715313Y-43155831D01*
X52759059Y-43210277D01*
X52759070Y-43210289D01*
X52759073Y-43210291D01*
X52759074Y-43210293D01*
X52759075Y-43210294D01*
X52864239Y-43308488D01*
X52864241Y-43308489D01*
X52864241Y-43308490D01*
X52985017Y-43369162D01*
X52992808Y-43373076D01*
X53059070Y-43395236D01*
X53059076Y-43395238D01*
X53200634Y-43420987D01*
X53343711Y-43405810D01*
X53411436Y-43388627D01*
X53544441Y-43333757D01*
X53562482Y-43323087D01*
X53591023Y-43310739D01*
X53593856Y-43309917D01*
X53628427Y-43305000D01*
X53971570Y-43305000D01*
X54006165Y-43309924D01*
X54024036Y-43315116D01*
X54060980Y-43325849D01*
X54069708Y-43328741D01*
X54145136Y-43356887D01*
X54211617Y-43371359D01*
X54213020Y-43371687D01*
X54213410Y-43371750D01*
X54213411Y-43371750D01*
X54213415Y-43371751D01*
X54356927Y-43382034D01*
X54497523Y-43351468D01*
X54509518Y-43346995D01*
X54511023Y-43346446D01*
X54559097Y-43329226D01*
X54559323Y-43329831D01*
X54605674Y-43312543D01*
X54606456Y-43312263D01*
X54608758Y-43312128D01*
X54648270Y-43305000D01*
X55789133Y-43305000D01*
X55802381Y-43305710D01*
X55805233Y-43306016D01*
X55808718Y-43306391D01*
X55808728Y-43306390D01*
X55808735Y-43306391D01*
X55861554Y-43304975D01*
X55922178Y-43303350D01*
X55989720Y-43321230D01*
X56036873Y-43372789D01*
X56049500Y-43427305D01*
X56049500Y-43901671D01*
X56029815Y-43968710D01*
X55977011Y-44014465D01*
X55907853Y-44024409D01*
X55878046Y-44016232D01*
X55872735Y-44014032D01*
X55799677Y-43999500D01*
X55799674Y-43999500D01*
X54600326Y-43999500D01*
X54600323Y-43999500D01*
X54527264Y-44014032D01*
X54527260Y-44014033D01*
X54444399Y-44069399D01*
X54389033Y-44152260D01*
X54389032Y-44152264D01*
X54374500Y-44225321D01*
X54374500Y-44874678D01*
X54389032Y-44947735D01*
X54389033Y-44947739D01*
X54389034Y-44947740D01*
X54444399Y-45030601D01*
X54527260Y-45085966D01*
X54527264Y-45085967D01*
X54600321Y-45100499D01*
X54600324Y-45100500D01*
X54600326Y-45100500D01*
X55799676Y-45100500D01*
X55799677Y-45100499D01*
X55872740Y-45085966D01*
X55955601Y-45030601D01*
X55987282Y-44983186D01*
X56005709Y-44955609D01*
X56059321Y-44910804D01*
X56108811Y-44900500D01*
X56158642Y-44900500D01*
X56158644Y-44900500D01*
X56247788Y-44876614D01*
X56254957Y-44872475D01*
X56327712Y-44830470D01*
X56680469Y-44477712D01*
X56726614Y-44397788D01*
X56730725Y-44382442D01*
X56767090Y-44322783D01*
X56829937Y-44292254D01*
X56899312Y-44300549D01*
X56953190Y-44345034D01*
X56974465Y-44411586D01*
X56974500Y-44414537D01*
X56974500Y-44874678D01*
X56989032Y-44947735D01*
X56989033Y-44947739D01*
X56989034Y-44947740D01*
X57044399Y-45030601D01*
X57127260Y-45085966D01*
X57127264Y-45085967D01*
X57200321Y-45100499D01*
X57200324Y-45100500D01*
X57200326Y-45100500D01*
X58399676Y-45100500D01*
X58399677Y-45100499D01*
X58472740Y-45085966D01*
X58555601Y-45030601D01*
X58610966Y-44947740D01*
X58625500Y-44874674D01*
X58625500Y-44225326D01*
X58625500Y-44225323D01*
X58625499Y-44225321D01*
X58610967Y-44152264D01*
X58610966Y-44152260D01*
X58555601Y-44069399D01*
X58476030Y-44016232D01*
X58472739Y-44014033D01*
X58472735Y-44014032D01*
X58399677Y-43999500D01*
X58399674Y-43999500D01*
X57200326Y-43999500D01*
X57200323Y-43999500D01*
X57127264Y-44014032D01*
X57127260Y-44014033D01*
X57044399Y-44069399D01*
X56982249Y-44162415D01*
X56981322Y-44161796D01*
X56945219Y-44206598D01*
X56878924Y-44228662D01*
X56811225Y-44211382D01*
X56763615Y-44160244D01*
X56750500Y-44104741D01*
X56750500Y-43682560D01*
X56770185Y-43615521D01*
X56822989Y-43569766D01*
X56892147Y-43559822D01*
X56910658Y-43564552D01*
X56910794Y-43564090D01*
X56915038Y-43565336D01*
X56915042Y-43565338D01*
X56982081Y-43585023D01*
X56982085Y-43585024D01*
X57124501Y-43605500D01*
X57124504Y-43605500D01*
X58416221Y-43605500D01*
X58532784Y-43591877D01*
X58588431Y-43578690D01*
X58698727Y-43538549D01*
X58816806Y-43456337D01*
X58857688Y-43418175D01*
X58857496Y-43417970D01*
X58875944Y-43400364D01*
X58877329Y-43401749D01*
X58936522Y-43342554D01*
X58937592Y-43341534D01*
X58939192Y-43340707D01*
X58960052Y-43324524D01*
X58962455Y-43323102D01*
X58991029Y-43310737D01*
X58993869Y-43309912D01*
X59028427Y-43305000D01*
X59372122Y-43305000D01*
X59402537Y-43308788D01*
X59406999Y-43309917D01*
X59434644Y-43316911D01*
X59451592Y-43320573D01*
X59486417Y-43326830D01*
X59630297Y-43326829D01*
X59699455Y-43316885D01*
X59837504Y-43276350D01*
X59837504Y-43276349D01*
X59846014Y-43273851D01*
X59846753Y-43276368D01*
X59902346Y-43268369D01*
X59959021Y-43291841D01*
X60065769Y-43371751D01*
X60066549Y-43372335D01*
X60066552Y-43372337D01*
X60192975Y-43419490D01*
X60192978Y-43419491D01*
X60222318Y-43422645D01*
X60248855Y-43425499D01*
X60248870Y-43425500D01*
X60776130Y-43425500D01*
X60776144Y-43425499D01*
X60798023Y-43423146D01*
X60832022Y-43419491D01*
X60958450Y-43372336D01*
X61066472Y-43291472D01*
X61147336Y-43183450D01*
X61183818Y-43085638D01*
X61225689Y-43029704D01*
X61291153Y-43005287D01*
X61359426Y-43020139D01*
X61408832Y-43069544D01*
X61416182Y-43085638D01*
X61452662Y-43183447D01*
X61452664Y-43183450D01*
X61533527Y-43291471D01*
X61533529Y-43291473D01*
X61637310Y-43369162D01*
X61679182Y-43425095D01*
X61687000Y-43468429D01*
X61687000Y-43851515D01*
X61667315Y-43918554D01*
X61617461Y-43962915D01*
X61547898Y-43996922D01*
X61456923Y-44087897D01*
X61456921Y-44087900D01*
X61400419Y-44203478D01*
X61400418Y-44203480D01*
X61400418Y-44203482D01*
X61389500Y-44278418D01*
X61389500Y-44721582D01*
X61400418Y-44796518D01*
X61400418Y-44796519D01*
X61400419Y-44796521D01*
X61456921Y-44912099D01*
X61456923Y-44912102D01*
X61547897Y-45003076D01*
X61547900Y-45003078D01*
X61658656Y-45057222D01*
X61663482Y-45059582D01*
X61738418Y-45070500D01*
X61738423Y-45070500D01*
X62081577Y-45070500D01*
X62081582Y-45070500D01*
X62156518Y-45059582D01*
X62258872Y-45009544D01*
X62272099Y-45003078D01*
X62272102Y-45003076D01*
X62363076Y-44912102D01*
X62363078Y-44912099D01*
X62411829Y-44812377D01*
X62419582Y-44796518D01*
X62430413Y-44722176D01*
X62439601Y-44702158D01*
X62444284Y-44680631D01*
X62457715Y-44662688D01*
X62459555Y-44658681D01*
X62465421Y-44652391D01*
X62494812Y-44623001D01*
X62494814Y-44623000D01*
X62588000Y-44529814D01*
X62653892Y-44415686D01*
X62674275Y-44339614D01*
X62688000Y-44288393D01*
X62688000Y-44156608D01*
X62688000Y-43270588D01*
X62707685Y-43203549D01*
X62712735Y-43196275D01*
X62719102Y-43187770D01*
X62722336Y-43183450D01*
X62769491Y-43057022D01*
X62775053Y-43005287D01*
X62775499Y-43001144D01*
X62775500Y-43001129D01*
X62775500Y-42558903D01*
X62795185Y-42491864D01*
X62847989Y-42446109D01*
X62917147Y-42436165D01*
X62980703Y-42465190D01*
X63006887Y-42496903D01*
X63015160Y-42511232D01*
X63059491Y-42588015D01*
X63161985Y-42690509D01*
X63161986Y-42690510D01*
X63161988Y-42690511D01*
X63287511Y-42762982D01*
X63287512Y-42762982D01*
X63287515Y-42762984D01*
X63427525Y-42800500D01*
X63427528Y-42800500D01*
X63572472Y-42800500D01*
X63572475Y-42800500D01*
X63712485Y-42762984D01*
X63838015Y-42690509D01*
X63891705Y-42636819D01*
X63918632Y-42622115D01*
X63944451Y-42605523D01*
X63950651Y-42604631D01*
X63953028Y-42603334D01*
X63979386Y-42600500D01*
X64150500Y-42600500D01*
X64217539Y-42620185D01*
X64263294Y-42672989D01*
X64274136Y-42722826D01*
X64274144Y-42722826D01*
X64274144Y-42722832D01*
X64274323Y-42722823D01*
X64274384Y-42723968D01*
X64274500Y-42724500D01*
X64274500Y-42726144D01*
X64280509Y-42782024D01*
X64327662Y-42908447D01*
X64327664Y-42908450D01*
X64408528Y-43016472D01*
X64504951Y-43088653D01*
X64516549Y-43097335D01*
X64516552Y-43097337D01*
X64636350Y-43142019D01*
X64642978Y-43144491D01*
X64672318Y-43147645D01*
X64698855Y-43150499D01*
X64698870Y-43150500D01*
X65301130Y-43150500D01*
X65301144Y-43150499D01*
X65323023Y-43148146D01*
X65357022Y-43144491D01*
X65483450Y-43097336D01*
X65591472Y-43016472D01*
X65672336Y-42908450D01*
X65719491Y-42782022D01*
X65724621Y-42734306D01*
X65725499Y-42726144D01*
X65725500Y-42726129D01*
X65725500Y-42198870D01*
X65725499Y-42198855D01*
X65723053Y-42176110D01*
X65719491Y-42142978D01*
X65674863Y-42023327D01*
X65669880Y-41953639D01*
X65703361Y-41892319D01*
X65945972Y-41649708D01*
X66007293Y-41616225D01*
X66076985Y-41621209D01*
X66089941Y-41626904D01*
X66107825Y-41636017D01*
X66107826Y-41636017D01*
X66107828Y-41636018D01*
X66142947Y-41641579D01*
X66199265Y-41650500D01*
X66600734Y-41650499D01*
X66600739Y-41650499D01*
X66600739Y-41650498D01*
X66646454Y-41643258D01*
X66692170Y-41636018D01*
X66692171Y-41636018D01*
X66692172Y-41636017D01*
X66692175Y-41636017D01*
X66802391Y-41579859D01*
X66837818Y-41544432D01*
X66899140Y-41510946D01*
X66968832Y-41515930D01*
G37*
%TD.AperFunction*%
%TA.AperFunction,Conductor*%
G36*
X69680833Y-44817361D02*
G01*
X69725180Y-44845862D01*
X70159788Y-45280470D01*
X70239712Y-45326614D01*
X70328856Y-45350500D01*
X70421144Y-45350500D01*
X70853456Y-45350500D01*
X70920495Y-45370185D01*
X70941137Y-45386819D01*
X71163181Y-45608863D01*
X71196666Y-45670186D01*
X71199500Y-45696544D01*
X71199500Y-45772475D01*
X71231014Y-45890084D01*
X71237017Y-45912488D01*
X71309488Y-46038011D01*
X71309490Y-46038013D01*
X71309491Y-46038015D01*
X71411985Y-46140509D01*
X71411986Y-46140510D01*
X71411988Y-46140511D01*
X71537511Y-46212982D01*
X71537512Y-46212982D01*
X71537515Y-46212984D01*
X71677525Y-46250500D01*
X71677528Y-46250500D01*
X71822472Y-46250500D01*
X71822475Y-46250500D01*
X71962485Y-46212984D01*
X72088015Y-46140509D01*
X72190509Y-46038015D01*
X72250529Y-45934056D01*
X72301094Y-45885843D01*
X72369701Y-45872619D01*
X72434566Y-45898587D01*
X72445596Y-45908377D01*
X72652431Y-46115212D01*
X72717688Y-46180469D01*
X72717691Y-46180470D01*
X72717694Y-46180473D01*
X72797606Y-46226611D01*
X72797607Y-46226611D01*
X72797612Y-46226614D01*
X72886756Y-46250500D01*
X73687373Y-46250500D01*
X73754412Y-46270185D01*
X73794759Y-46312499D01*
X73809491Y-46338015D01*
X73911985Y-46440509D01*
X73911986Y-46440510D01*
X73911988Y-46440511D01*
X74037511Y-46512982D01*
X74037512Y-46512982D01*
X74037515Y-46512984D01*
X74177525Y-46550500D01*
X74177528Y-46550500D01*
X74322472Y-46550500D01*
X74322475Y-46550500D01*
X74462485Y-46512984D01*
X74588015Y-46440509D01*
X74690509Y-46338015D01*
X74762984Y-46212485D01*
X74800500Y-46072475D01*
X74800500Y-45927525D01*
X74762984Y-45787515D01*
X74760730Y-45783612D01*
X74758327Y-45773707D01*
X74752175Y-45765582D01*
X74750228Y-45740328D01*
X74744256Y-45715713D01*
X74747589Y-45706081D01*
X74746806Y-45695919D01*
X74758822Y-45673621D01*
X74767106Y-45649685D01*
X74775117Y-45643384D01*
X74779953Y-45634412D01*
X74802116Y-45622151D01*
X74822026Y-45606493D01*
X74833799Y-45604623D01*
X74841091Y-45600590D01*
X74863651Y-45599883D01*
X74876281Y-45597878D01*
X74881926Y-45598250D01*
X74959265Y-45610500D01*
X75067547Y-45610499D01*
X75071619Y-45610768D01*
X75100737Y-45621446D01*
X75130493Y-45630183D01*
X75135446Y-45634174D01*
X75137217Y-45634824D01*
X75138726Y-45636817D01*
X75151132Y-45646814D01*
X75163178Y-45658859D01*
X75196665Y-45720181D01*
X75199500Y-45746544D01*
X75199500Y-45822475D01*
X75227649Y-45927527D01*
X75237017Y-45962488D01*
X75309488Y-46088011D01*
X75309490Y-46088013D01*
X75309491Y-46088015D01*
X75411985Y-46190509D01*
X75411986Y-46190510D01*
X75411988Y-46190511D01*
X75537511Y-46262982D01*
X75537512Y-46262982D01*
X75537515Y-46262984D01*
X75677525Y-46300500D01*
X75677528Y-46300500D01*
X75822472Y-46300500D01*
X75822475Y-46300500D01*
X75962485Y-46262984D01*
X76088015Y-46190509D01*
X76190509Y-46088015D01*
X76249720Y-45985459D01*
X76267048Y-45955447D01*
X76269238Y-45956711D01*
X76305101Y-45912174D01*
X76371386Y-45890084D01*
X76439092Y-45907337D01*
X76463541Y-45926322D01*
X77752431Y-47215212D01*
X77817688Y-47280469D01*
X77817691Y-47280470D01*
X77817694Y-47280473D01*
X77897606Y-47326611D01*
X77897607Y-47326611D01*
X77897612Y-47326614D01*
X77986756Y-47350500D01*
X77986758Y-47350500D01*
X79435066Y-47350500D01*
X79502105Y-47370185D01*
X79547860Y-47422989D01*
X79554839Y-47442401D01*
X79583805Y-47550500D01*
X79587017Y-47562488D01*
X79659488Y-47688011D01*
X79659490Y-47688013D01*
X79659491Y-47688015D01*
X79761985Y-47790509D01*
X79761986Y-47790510D01*
X79761988Y-47790511D01*
X79887511Y-47862982D01*
X79887512Y-47862982D01*
X79887515Y-47862984D01*
X80027525Y-47900500D01*
X80027528Y-47900500D01*
X80172472Y-47900500D01*
X80172475Y-47900500D01*
X80312485Y-47862984D01*
X80438015Y-47790509D01*
X80438016Y-47790507D01*
X80443499Y-47787342D01*
X80511399Y-47770869D01*
X80577426Y-47793721D01*
X80620617Y-47848642D01*
X80629500Y-47894729D01*
X80629500Y-47981582D01*
X80640418Y-48056518D01*
X80640418Y-48056519D01*
X80640419Y-48056521D01*
X80696921Y-48172099D01*
X80696923Y-48172102D01*
X80702310Y-48177489D01*
X80735795Y-48238812D01*
X80734404Y-48297262D01*
X80699500Y-48427525D01*
X80699500Y-48572475D01*
X80733132Y-48697989D01*
X80737017Y-48712488D01*
X80795337Y-48813500D01*
X80811810Y-48881400D01*
X80788958Y-48947427D01*
X80734037Y-48990617D01*
X80687950Y-48999500D01*
X77356204Y-48999500D01*
X77289165Y-48979815D01*
X77243410Y-48927011D01*
X77233466Y-48857853D01*
X77262491Y-48794297D01*
X77268523Y-48787819D01*
X77288118Y-48768224D01*
X77339414Y-48716928D01*
X77441232Y-48576788D01*
X77519873Y-48422445D01*
X77573402Y-48257701D01*
X77600500Y-48086611D01*
X77600500Y-47913389D01*
X77573402Y-47742299D01*
X77519873Y-47577555D01*
X77441232Y-47423212D01*
X77339414Y-47283072D01*
X77216928Y-47160586D01*
X77076788Y-47058768D01*
X76922445Y-46980127D01*
X76757701Y-46926598D01*
X76757699Y-46926597D01*
X76757698Y-46926597D01*
X76611752Y-46903482D01*
X76586611Y-46899500D01*
X76413389Y-46899500D01*
X76388248Y-46903482D01*
X76242302Y-46926597D01*
X76077552Y-46980128D01*
X75923211Y-47058768D01*
X75843256Y-47116859D01*
X75783072Y-47160586D01*
X75783070Y-47160588D01*
X75783069Y-47160588D01*
X75660588Y-47283069D01*
X75660588Y-47283070D01*
X75660586Y-47283072D01*
X75639216Y-47312485D01*
X75558768Y-47423211D01*
X75480128Y-47577552D01*
X75480127Y-47577554D01*
X75480127Y-47577555D01*
X75456426Y-47650500D01*
X75426597Y-47742302D01*
X75406897Y-47866684D01*
X75399500Y-47913389D01*
X75399500Y-48086611D01*
X75404486Y-48118092D01*
X75418010Y-48203482D01*
X75426598Y-48257701D01*
X75480127Y-48422445D01*
X75558768Y-48576788D01*
X75660586Y-48716928D01*
X75660588Y-48716930D01*
X75731477Y-48787819D01*
X75764962Y-48849142D01*
X75759978Y-48918834D01*
X75718106Y-48974767D01*
X75652642Y-48999184D01*
X75643796Y-48999500D01*
X72276204Y-48999500D01*
X72209165Y-48979815D01*
X72163410Y-48927011D01*
X72153466Y-48857853D01*
X72182491Y-48794297D01*
X72188523Y-48787819D01*
X72208118Y-48768224D01*
X72259414Y-48716928D01*
X72361232Y-48576788D01*
X72439873Y-48422445D01*
X72493402Y-48257701D01*
X72520500Y-48086611D01*
X72520500Y-47913389D01*
X72493402Y-47742299D01*
X72439873Y-47577555D01*
X72361232Y-47423212D01*
X72259414Y-47283072D01*
X72136928Y-47160586D01*
X71996788Y-47058768D01*
X71842445Y-46980127D01*
X71677701Y-46926598D01*
X71677699Y-46926597D01*
X71677698Y-46926597D01*
X71531752Y-46903482D01*
X71506611Y-46899500D01*
X71333389Y-46899500D01*
X71308248Y-46903482D01*
X71162302Y-46926597D01*
X70997552Y-46980128D01*
X70843211Y-47058768D01*
X70763256Y-47116859D01*
X70703072Y-47160586D01*
X70703070Y-47160588D01*
X70703069Y-47160588D01*
X70580588Y-47283069D01*
X70580588Y-47283070D01*
X70580586Y-47283072D01*
X70559216Y-47312485D01*
X70478768Y-47423211D01*
X70400128Y-47577552D01*
X70400127Y-47577554D01*
X70400127Y-47577555D01*
X70376426Y-47650500D01*
X70346597Y-47742302D01*
X70326897Y-47866684D01*
X70319500Y-47913389D01*
X70319500Y-48086611D01*
X70324486Y-48118092D01*
X70338010Y-48203482D01*
X70346598Y-48257701D01*
X70400127Y-48422445D01*
X70478768Y-48576788D01*
X70580586Y-48716928D01*
X70580588Y-48716930D01*
X70651477Y-48787819D01*
X70684962Y-48849142D01*
X70679978Y-48918834D01*
X70638106Y-48974767D01*
X70572642Y-48999184D01*
X70563796Y-48999500D01*
X70104500Y-48999500D01*
X70037461Y-48979815D01*
X69991706Y-48927011D01*
X69980500Y-48875500D01*
X69980500Y-47125323D01*
X69980499Y-47125321D01*
X69965967Y-47052264D01*
X69965966Y-47052260D01*
X69955448Y-47036518D01*
X69910601Y-46969399D01*
X69827740Y-46914034D01*
X69827739Y-46914033D01*
X69827735Y-46914032D01*
X69754677Y-46899500D01*
X69754674Y-46899500D01*
X68005326Y-46899500D01*
X68005323Y-46899500D01*
X67932264Y-46914032D01*
X67932260Y-46914033D01*
X67849399Y-46969399D01*
X67794033Y-47052260D01*
X67794032Y-47052264D01*
X67779500Y-47125321D01*
X67779500Y-48875500D01*
X67759815Y-48942539D01*
X67707011Y-48988294D01*
X67655500Y-48999500D01*
X67078386Y-48999500D01*
X67011347Y-48979815D01*
X66965592Y-48927011D01*
X66955648Y-48857853D01*
X66984673Y-48794297D01*
X66990705Y-48787819D01*
X67010300Y-48768224D01*
X67040509Y-48738015D01*
X67112984Y-48612485D01*
X67150500Y-48472475D01*
X67150500Y-48327525D01*
X67112984Y-48187515D01*
X67107195Y-48177489D01*
X67040511Y-48061988D01*
X67040506Y-48061982D01*
X66938017Y-47959493D01*
X66938011Y-47959488D01*
X66812488Y-47887017D01*
X66812489Y-47887017D01*
X66793422Y-47881908D01*
X66672475Y-47849500D01*
X66527525Y-47849500D01*
X66406578Y-47881908D01*
X66387511Y-47887017D01*
X66261988Y-47959488D01*
X66261982Y-47959493D01*
X66159493Y-48061982D01*
X66159489Y-48061988D01*
X66144760Y-48087500D01*
X66094193Y-48135716D01*
X66037373Y-48149500D01*
X65370596Y-48149500D01*
X65303557Y-48129815D01*
X65271884Y-48094229D01*
X65269044Y-48096257D01*
X65263074Y-48087895D01*
X65172102Y-47996923D01*
X65172099Y-47996921D01*
X65099439Y-47961400D01*
X65047856Y-47914273D01*
X65029942Y-47846739D01*
X65051383Y-47780240D01*
X65099439Y-47738600D01*
X65172099Y-47703078D01*
X65172102Y-47703076D01*
X65263074Y-47612105D01*
X65269044Y-47603743D01*
X65272091Y-47605918D01*
X65306350Y-47568441D01*
X65370596Y-47550500D01*
X66746142Y-47550500D01*
X66746144Y-47550500D01*
X66835288Y-47526614D01*
X66845912Y-47520480D01*
X66915212Y-47480470D01*
X69549818Y-44845861D01*
X69611141Y-44812377D01*
X69680833Y-44817361D01*
G37*
%TD.AperFunction*%
%TA.AperFunction,Conductor*%
G36*
X82526113Y-47222274D02*
G01*
X82551886Y-47223535D01*
X82564760Y-47230193D01*
X82569288Y-47231121D01*
X82583236Y-47239748D01*
X82587900Y-47243078D01*
X82694482Y-47295182D01*
X82703482Y-47299582D01*
X82778418Y-47310500D01*
X82973456Y-47310500D01*
X83040495Y-47330185D01*
X83046766Y-47334492D01*
X83054422Y-47340104D01*
X83094788Y-47380470D01*
X83158145Y-47417049D01*
X83174712Y-47426614D01*
X83263856Y-47450500D01*
X83420614Y-47450500D01*
X83487653Y-47470185D01*
X83508295Y-47486819D01*
X83561985Y-47540509D01*
X83561986Y-47540510D01*
X83561988Y-47540511D01*
X83687511Y-47612982D01*
X83687512Y-47612982D01*
X83687515Y-47612984D01*
X83827525Y-47650500D01*
X83827528Y-47650500D01*
X83972471Y-47650500D01*
X83972475Y-47650500D01*
X84073410Y-47623454D01*
X84143255Y-47625117D01*
X84201118Y-47664279D01*
X84228623Y-47728507D01*
X84229500Y-47743229D01*
X84229500Y-47981582D01*
X84240418Y-48056518D01*
X84240418Y-48056519D01*
X84240419Y-48056521D01*
X84296921Y-48172099D01*
X84296923Y-48172102D01*
X84302208Y-48177387D01*
X84335693Y-48238710D01*
X84330709Y-48308402D01*
X84321914Y-48327067D01*
X84287018Y-48387507D01*
X84287017Y-48387510D01*
X84287016Y-48387515D01*
X84249500Y-48527525D01*
X84249500Y-48672475D01*
X84282738Y-48796518D01*
X84287017Y-48812489D01*
X84287018Y-48812492D01*
X84287603Y-48813504D01*
X84287836Y-48814465D01*
X84290128Y-48819999D01*
X84289265Y-48820356D01*
X84304073Y-48881405D01*
X84281219Y-48947431D01*
X84226296Y-48990619D01*
X84180214Y-48999500D01*
X81812050Y-48999500D01*
X81745011Y-48979815D01*
X81699256Y-48927011D01*
X81689312Y-48857853D01*
X81704663Y-48813500D01*
X81748244Y-48738015D01*
X81762984Y-48712485D01*
X81800500Y-48572475D01*
X81800500Y-48427525D01*
X81762984Y-48287515D01*
X81732994Y-48235572D01*
X81716521Y-48167674D01*
X81728979Y-48119116D01*
X81759582Y-48056518D01*
X81770500Y-47981582D01*
X81770500Y-47638418D01*
X81759582Y-47563482D01*
X81759580Y-47563478D01*
X81717081Y-47476545D01*
X81705321Y-47407672D01*
X81732664Y-47343375D01*
X81790429Y-47304067D01*
X81860274Y-47302229D01*
X81879824Y-47310298D01*
X81880001Y-47309872D01*
X81887510Y-47312982D01*
X81887512Y-47312982D01*
X81887515Y-47312984D01*
X82027525Y-47350500D01*
X82027528Y-47350500D01*
X82172472Y-47350500D01*
X82172475Y-47350500D01*
X82312485Y-47312984D01*
X82438015Y-47240509D01*
X82438015Y-47240508D01*
X82445054Y-47236445D01*
X82446106Y-47238267D01*
X82459739Y-47232993D01*
X82482100Y-47220122D01*
X82491791Y-47220595D01*
X82500840Y-47217096D01*
X82526113Y-47222274D01*
G37*
%TD.AperFunction*%
%TA.AperFunction,Conductor*%
G36*
X74517863Y-44273410D02*
G01*
X74562380Y-44324785D01*
X74587881Y-44379470D01*
X74599500Y-44431876D01*
X74599500Y-45250739D01*
X74614784Y-45347236D01*
X74605829Y-45416529D01*
X74560833Y-45469981D01*
X74494081Y-45490620D01*
X74460218Y-45486408D01*
X74367478Y-45461558D01*
X74322475Y-45449500D01*
X74177525Y-45449500D01*
X74037515Y-45487016D01*
X73958063Y-45532887D01*
X73942575Y-45537037D01*
X73930999Y-45544477D01*
X73896064Y-45549500D01*
X73653904Y-45549500D01*
X73586865Y-45529815D01*
X73541110Y-45477011D01*
X73531166Y-45407853D01*
X73560191Y-45344297D01*
X73595504Y-45318831D01*
X73594475Y-45317048D01*
X73709738Y-45250500D01*
X73727043Y-45240509D01*
X73829537Y-45138015D01*
X73902012Y-45012485D01*
X73939528Y-44872475D01*
X73939528Y-44727525D01*
X73933919Y-44706591D01*
X73935582Y-44636741D01*
X73974746Y-44578879D01*
X74038974Y-44551376D01*
X74053694Y-44550499D01*
X74063133Y-44550499D01*
X74063138Y-44550499D01*
X74110545Y-44544259D01*
X74214579Y-44495747D01*
X74295747Y-44414579D01*
X74337619Y-44324782D01*
X74383788Y-44272347D01*
X74450982Y-44253195D01*
X74517863Y-44273410D01*
G37*
%TD.AperFunction*%
%TA.AperFunction,Conductor*%
G36*
X71595831Y-37133119D02*
G01*
X71651765Y-37174990D01*
X71676182Y-37240454D01*
X71661331Y-37308727D01*
X71659885Y-37311301D01*
X71587017Y-37437511D01*
X71587016Y-37437515D01*
X71549500Y-37577525D01*
X71549500Y-37722475D01*
X71580460Y-37838017D01*
X71587017Y-37862488D01*
X71659488Y-37988011D01*
X71659490Y-37988013D01*
X71659491Y-37988015D01*
X71761985Y-38090509D01*
X71761986Y-38090510D01*
X71761988Y-38090511D01*
X71887511Y-38162982D01*
X71887512Y-38162982D01*
X71887515Y-38162984D01*
X72027525Y-38200500D01*
X72027528Y-38200500D01*
X72172471Y-38200500D01*
X72172475Y-38200500D01*
X72246398Y-38180692D01*
X72316243Y-38182355D01*
X72374106Y-38221517D01*
X72401611Y-38285745D01*
X72390025Y-38354647D01*
X72366169Y-38388148D01*
X71469531Y-39284786D01*
X71469529Y-39284789D01*
X71436229Y-39342468D01*
X71436228Y-39342469D01*
X71423387Y-39364709D01*
X71423386Y-39364712D01*
X71399500Y-39453856D01*
X71399500Y-40520614D01*
X71379815Y-40587653D01*
X71363181Y-40608295D01*
X71309493Y-40661982D01*
X71309488Y-40661988D01*
X71237017Y-40787511D01*
X71237016Y-40787515D01*
X71199500Y-40927525D01*
X71199500Y-41072475D01*
X71235163Y-41205569D01*
X71237017Y-41212488D01*
X71309488Y-41338011D01*
X71309490Y-41338013D01*
X71309491Y-41338015D01*
X71411985Y-41440509D01*
X71411986Y-41440510D01*
X71411988Y-41440511D01*
X71537511Y-41512982D01*
X71537512Y-41512982D01*
X71537515Y-41512984D01*
X71677525Y-41550500D01*
X71677528Y-41550500D01*
X71822472Y-41550500D01*
X71822475Y-41550500D01*
X71962485Y-41512984D01*
X72088015Y-41440509D01*
X72190509Y-41338015D01*
X72262984Y-41212485D01*
X72300500Y-41072475D01*
X72300500Y-40927525D01*
X72262984Y-40787515D01*
X72256418Y-40776143D01*
X72190511Y-40661988D01*
X72190506Y-40661982D01*
X72136819Y-40608295D01*
X72103334Y-40546972D01*
X72100500Y-40520614D01*
X72100500Y-39696543D01*
X72120185Y-39629504D01*
X72136819Y-39608862D01*
X72321645Y-39424036D01*
X72511853Y-39233827D01*
X72573174Y-39200344D01*
X72642865Y-39205328D01*
X72698799Y-39247199D01*
X72723216Y-39312664D01*
X72719307Y-39353603D01*
X72712536Y-39378874D01*
X72699500Y-39427525D01*
X72699500Y-39572475D01*
X72737016Y-39712485D01*
X72737017Y-39712488D01*
X72809488Y-39838011D01*
X72809490Y-39838013D01*
X72809491Y-39838015D01*
X72911985Y-39940509D01*
X72911986Y-39940510D01*
X72911988Y-39940511D01*
X72965197Y-39971231D01*
X73037515Y-40012984D01*
X73177525Y-40050500D01*
X73177529Y-40050500D01*
X73184138Y-40052271D01*
X73243799Y-40088636D01*
X73274328Y-40151483D01*
X73266033Y-40220859D01*
X73221548Y-40274736D01*
X73214047Y-40279432D01*
X73161988Y-40309489D01*
X73161982Y-40309493D01*
X73059493Y-40411982D01*
X73059488Y-40411988D01*
X72987017Y-40537511D01*
X72987016Y-40537515D01*
X72949500Y-40677525D01*
X72949500Y-40822475D01*
X72982573Y-40945902D01*
X72987017Y-40962488D01*
X73059488Y-41088011D01*
X73059490Y-41088013D01*
X73059491Y-41088015D01*
X73161985Y-41190509D01*
X73161986Y-41190510D01*
X73161988Y-41190511D01*
X73287511Y-41262982D01*
X73287512Y-41262982D01*
X73287515Y-41262984D01*
X73427525Y-41300500D01*
X73427528Y-41300500D01*
X73572472Y-41300500D01*
X73572475Y-41300500D01*
X73712485Y-41262984D01*
X73838015Y-41190509D01*
X73891705Y-41136819D01*
X73953028Y-41103334D01*
X73979386Y-41100500D01*
X74796142Y-41100500D01*
X74796144Y-41100500D01*
X74885288Y-41076614D01*
X74907635Y-41063712D01*
X74965212Y-41030470D01*
X75193314Y-40802366D01*
X75219827Y-40787889D01*
X75245120Y-40771351D01*
X75250188Y-40771310D01*
X75254637Y-40768882D01*
X75284772Y-40771037D01*
X75314987Y-40770798D01*
X75319272Y-40773504D01*
X75324328Y-40773866D01*
X75348517Y-40791973D01*
X75374062Y-40808106D01*
X75377891Y-40813962D01*
X75380262Y-40815737D01*
X75393378Y-40837645D01*
X75398018Y-40847596D01*
X75408509Y-40916674D01*
X75398018Y-40952402D01*
X75380742Y-40989451D01*
X75380740Y-40989458D01*
X75374500Y-41036859D01*
X75374500Y-41263131D01*
X75374501Y-41263138D01*
X75380741Y-41310545D01*
X75398018Y-41347596D01*
X75408509Y-41416673D01*
X75398018Y-41452402D01*
X75380742Y-41489451D01*
X75380740Y-41489458D01*
X75374500Y-41536859D01*
X75374500Y-41763131D01*
X75374501Y-41763138D01*
X75380741Y-41810545D01*
X75398018Y-41847596D01*
X75408509Y-41916673D01*
X75398018Y-41952402D01*
X75380742Y-41989451D01*
X75380740Y-41989458D01*
X75374500Y-42036859D01*
X75374500Y-42263132D01*
X75374501Y-42263138D01*
X75380741Y-42310545D01*
X75380742Y-42310547D01*
X75380742Y-42310548D01*
X75429253Y-42414579D01*
X75510421Y-42495747D01*
X75614455Y-42544259D01*
X75661861Y-42550500D01*
X75888000Y-42550499D01*
X75955039Y-42570183D01*
X76000794Y-42622987D01*
X76012000Y-42674499D01*
X76012000Y-45088683D01*
X76007253Y-45104847D01*
X76007525Y-45121697D01*
X75997612Y-45137681D01*
X75992315Y-45155722D01*
X75979583Y-45166753D01*
X75970702Y-45181076D01*
X75953720Y-45189164D01*
X75939511Y-45201477D01*
X75922412Y-45204076D01*
X75907622Y-45211121D01*
X75884053Y-45209907D01*
X75872333Y-45211689D01*
X75864006Y-45210628D01*
X75822475Y-45199500D01*
X75776636Y-45199500D01*
X75768832Y-45198506D01*
X75743738Y-45187531D01*
X75717460Y-45179815D01*
X75712190Y-45173733D01*
X75704817Y-45170509D01*
X75689638Y-45147707D01*
X75671705Y-45127011D01*
X75669687Y-45117735D01*
X75666100Y-45112347D01*
X75665906Y-45100358D01*
X75660499Y-45075500D01*
X75660499Y-44849260D01*
X75646018Y-44757829D01*
X75646018Y-44757828D01*
X75646017Y-44757826D01*
X75646017Y-44757825D01*
X75589859Y-44647609D01*
X75589857Y-44647607D01*
X75589854Y-44647603D01*
X75502396Y-44560145D01*
X75502393Y-44560143D01*
X75502391Y-44560141D01*
X75392175Y-44503983D01*
X75392174Y-44503982D01*
X75387266Y-44501482D01*
X75336470Y-44453507D01*
X75319675Y-44385686D01*
X75331178Y-44338597D01*
X75344259Y-44310545D01*
X75350500Y-44263139D01*
X75350499Y-42861862D01*
X75344259Y-42814455D01*
X75295747Y-42710421D01*
X75214579Y-42629253D01*
X75110545Y-42580741D01*
X75110543Y-42580740D01*
X75110544Y-42580740D01*
X75063140Y-42574500D01*
X74836867Y-42574500D01*
X74821839Y-42576478D01*
X74789455Y-42580741D01*
X74789453Y-42580742D01*
X74789451Y-42580742D01*
X74685420Y-42629253D01*
X74604253Y-42710420D01*
X74562382Y-42800213D01*
X74516209Y-42852652D01*
X74449016Y-42871804D01*
X74382135Y-42851588D01*
X74337618Y-42800213D01*
X74320258Y-42762985D01*
X74295747Y-42710421D01*
X74214579Y-42629253D01*
X74110545Y-42580741D01*
X74110543Y-42580740D01*
X74110544Y-42580740D01*
X74063140Y-42574500D01*
X73836868Y-42574500D01*
X73826341Y-42575885D01*
X73789455Y-42580741D01*
X73789453Y-42580742D01*
X73789451Y-42580742D01*
X73752403Y-42598018D01*
X73683325Y-42608509D01*
X73647596Y-42598018D01*
X73610545Y-42580741D01*
X73610541Y-42580740D01*
X73563140Y-42574500D01*
X73336868Y-42574500D01*
X73326341Y-42575885D01*
X73289455Y-42580741D01*
X73289453Y-42580742D01*
X73289451Y-42580742D01*
X73252403Y-42598018D01*
X73183325Y-42608509D01*
X73147596Y-42598018D01*
X73110545Y-42580741D01*
X73110541Y-42580740D01*
X73063140Y-42574500D01*
X72836868Y-42574500D01*
X72826341Y-42575885D01*
X72789455Y-42580741D01*
X72789453Y-42580742D01*
X72789451Y-42580742D01*
X72752403Y-42598018D01*
X72683325Y-42608509D01*
X72647596Y-42598018D01*
X72610545Y-42580741D01*
X72610541Y-42580740D01*
X72563140Y-42574500D01*
X72336868Y-42574500D01*
X72326341Y-42575885D01*
X72289455Y-42580741D01*
X72289453Y-42580742D01*
X72289451Y-42580742D01*
X72252403Y-42598018D01*
X72183325Y-42608509D01*
X72147596Y-42598018D01*
X72110545Y-42580741D01*
X72110541Y-42580740D01*
X72063140Y-42574500D01*
X71836868Y-42574500D01*
X71826341Y-42575885D01*
X71789455Y-42580741D01*
X71789453Y-42580742D01*
X71789451Y-42580742D01*
X71752403Y-42598018D01*
X71683325Y-42608509D01*
X71647596Y-42598018D01*
X71610545Y-42580741D01*
X71610541Y-42580740D01*
X71563140Y-42574500D01*
X71336868Y-42574500D01*
X71326341Y-42575885D01*
X71289455Y-42580741D01*
X71289453Y-42580742D01*
X71289451Y-42580742D01*
X71252403Y-42598018D01*
X71183325Y-42608509D01*
X71147596Y-42598018D01*
X71110545Y-42580741D01*
X71110541Y-42580740D01*
X71063140Y-42574500D01*
X70914577Y-42574500D01*
X70847538Y-42554815D01*
X70801783Y-42502011D01*
X70794804Y-42482599D01*
X70776614Y-42414712D01*
X70776612Y-42414708D01*
X70770481Y-42404088D01*
X70770481Y-42404089D01*
X70770480Y-42404087D01*
X70730470Y-42334788D01*
X70365213Y-41969531D01*
X70365212Y-41969530D01*
X70365209Y-41969528D01*
X70285290Y-41923387D01*
X70285225Y-41923360D01*
X70284288Y-41923118D01*
X70196146Y-41899501D01*
X70196145Y-41899501D01*
X69754076Y-41899501D01*
X69687037Y-41879816D01*
X69666395Y-41863182D01*
X69612707Y-41809494D01*
X69612701Y-41809489D01*
X69487178Y-41737018D01*
X69487179Y-41737018D01*
X69475696Y-41733941D01*
X69347165Y-41699501D01*
X69202215Y-41699501D01*
X69202213Y-41699501D01*
X69181591Y-41705027D01*
X69111741Y-41703364D01*
X69053879Y-41664201D01*
X69027671Y-41608358D01*
X69025499Y-41596905D01*
X69025499Y-41536862D01*
X69019259Y-41489455D01*
X68995426Y-41438347D01*
X68992536Y-41423105D01*
X68994501Y-41403151D01*
X68991490Y-41383326D01*
X68998958Y-41357889D01*
X68999384Y-41353572D01*
X69000723Y-41351878D01*
X69001980Y-41347599D01*
X69019259Y-41310545D01*
X69025500Y-41263139D01*
X69025499Y-41036862D01*
X69019259Y-40989455D01*
X69001982Y-40952404D01*
X68996866Y-40918726D01*
X68991264Y-40885084D01*
X68991585Y-40883957D01*
X68991490Y-40883326D01*
X69000453Y-40851007D01*
X69001188Y-40849296D01*
X69019259Y-40810545D01*
X69019878Y-40805841D01*
X69025215Y-40793433D01*
X69042843Y-40772151D01*
X69057735Y-40748876D01*
X69064814Y-40745625D01*
X69069785Y-40739625D01*
X69096120Y-40731252D01*
X69121232Y-40719723D01*
X69128946Y-40720816D01*
X69136370Y-40718456D01*
X69163049Y-40725649D01*
X69190410Y-40729527D01*
X69197078Y-40734824D01*
X69203831Y-40736645D01*
X69215292Y-40749292D01*
X69227233Y-40758778D01*
X69228744Y-40757268D01*
X69234491Y-40763015D01*
X69336985Y-40865509D01*
X69336986Y-40865510D01*
X69336988Y-40865511D01*
X69462511Y-40937982D01*
X69462512Y-40937982D01*
X69462515Y-40937984D01*
X69602525Y-40975500D01*
X69602528Y-40975500D01*
X69747472Y-40975500D01*
X69747475Y-40975500D01*
X69887485Y-40937984D01*
X70013015Y-40865509D01*
X70115509Y-40763015D01*
X70187984Y-40637485D01*
X70225500Y-40497475D01*
X70225500Y-40421544D01*
X70245185Y-40354505D01*
X70261819Y-40333863D01*
X70495675Y-40100007D01*
X70730470Y-39865212D01*
X70776614Y-39785288D01*
X70786203Y-39749500D01*
X70800500Y-39696144D01*
X70800500Y-37462579D01*
X70820185Y-37395540D01*
X70872989Y-37349785D01*
X70942147Y-37339841D01*
X70956576Y-37342800D01*
X70977525Y-37348414D01*
X70977528Y-37348414D01*
X71122472Y-37348414D01*
X71122475Y-37348414D01*
X71262485Y-37310898D01*
X71388015Y-37238423D01*
X71464820Y-37161617D01*
X71526139Y-37128135D01*
X71595831Y-37133119D01*
G37*
%TD.AperFunction*%
%TA.AperFunction,Conductor*%
G36*
X77412126Y-37004787D02*
G01*
X77427333Y-37004136D01*
X77444971Y-37014432D01*
X77464563Y-37020185D01*
X77475459Y-37032228D01*
X77487674Y-37039359D01*
X77508009Y-37068207D01*
X77510141Y-37072391D01*
X77510143Y-37072393D01*
X77510145Y-37072396D01*
X77597603Y-37159854D01*
X77597605Y-37159855D01*
X77597609Y-37159859D01*
X77707825Y-37216017D01*
X77707826Y-37216017D01*
X77707828Y-37216018D01*
X77742947Y-37221579D01*
X77799265Y-37230500D01*
X78200734Y-37230499D01*
X78200739Y-37230499D01*
X78200739Y-37230498D01*
X78255288Y-37221859D01*
X78292170Y-37216018D01*
X78292171Y-37216018D01*
X78292172Y-37216017D01*
X78292175Y-37216017D01*
X78402391Y-37159859D01*
X78405790Y-37156460D01*
X78429620Y-37143446D01*
X78451552Y-37127439D01*
X78459831Y-37126947D01*
X78467111Y-37122972D01*
X78494195Y-37124907D01*
X78521299Y-37123299D01*
X78532307Y-37127631D01*
X78536803Y-37127953D01*
X78554216Y-37136033D01*
X78561732Y-37140256D01*
X78561985Y-37140509D01*
X78687515Y-37212984D01*
X78694503Y-37214856D01*
X78707872Y-37222368D01*
X78727311Y-37242284D01*
X78748981Y-37259744D01*
X78751376Y-37266939D01*
X78756675Y-37272368D01*
X78762260Y-37299630D01*
X78771052Y-37326036D01*
X78769846Y-37336655D01*
X78770699Y-37340816D01*
X78768824Y-37345661D01*
X78766906Y-37362565D01*
X78759728Y-37389353D01*
X78749500Y-37427525D01*
X78749500Y-37572475D01*
X78787016Y-37712485D01*
X78787017Y-37712488D01*
X78859488Y-37838011D01*
X78859493Y-37838017D01*
X78913181Y-37891705D01*
X78927884Y-37918632D01*
X78944477Y-37944451D01*
X78945368Y-37950651D01*
X78946666Y-37953028D01*
X78949500Y-37979386D01*
X78949500Y-38062435D01*
X78929815Y-38129474D01*
X78925261Y-38135124D01*
X78864034Y-38226760D01*
X78864032Y-38226764D01*
X78849500Y-38299821D01*
X78849500Y-39824178D01*
X78864032Y-39897235D01*
X78864033Y-39897239D01*
X78874626Y-39913092D01*
X78919399Y-39980101D01*
X78968610Y-40012982D01*
X79002260Y-40035466D01*
X79002264Y-40035467D01*
X79069087Y-40048759D01*
X79074677Y-40049871D01*
X79075321Y-40049999D01*
X79075324Y-40050000D01*
X79075326Y-40050000D01*
X79574676Y-40050000D01*
X79574677Y-40049999D01*
X79647740Y-40035466D01*
X79730601Y-39980101D01*
X79785966Y-39897240D01*
X79800500Y-39824174D01*
X79800500Y-38299826D01*
X79800500Y-38299823D01*
X79800499Y-38299821D01*
X79785967Y-38226764D01*
X79785966Y-38226760D01*
X79769164Y-38201614D01*
X79730601Y-38143899D01*
X79724993Y-38140152D01*
X79705609Y-38127200D01*
X79700518Y-38121108D01*
X79693297Y-38117811D01*
X79678433Y-38094683D01*
X79660804Y-38073588D01*
X79658852Y-38064213D01*
X79655523Y-38059033D01*
X79650500Y-38024098D01*
X79650500Y-37979386D01*
X79670185Y-37912347D01*
X79686818Y-37891706D01*
X79695198Y-37883326D01*
X79730456Y-37848067D01*
X79791777Y-37814583D01*
X79861468Y-37819567D01*
X79905817Y-37848068D01*
X79947603Y-37889854D01*
X79947605Y-37889855D01*
X79947609Y-37889859D01*
X80057825Y-37946017D01*
X80057826Y-37946017D01*
X80057828Y-37946018D01*
X80132179Y-37957794D01*
X80195314Y-37987723D01*
X80232246Y-38047034D01*
X80231248Y-38116897D01*
X80215885Y-38149156D01*
X80164035Y-38226757D01*
X80164032Y-38226764D01*
X80149500Y-38299821D01*
X80149500Y-39824178D01*
X80164032Y-39897235D01*
X80164033Y-39897239D01*
X80174626Y-39913092D01*
X80219399Y-39980101D01*
X80268610Y-40012982D01*
X80302260Y-40035466D01*
X80302264Y-40035467D01*
X80369087Y-40048759D01*
X80374677Y-40049871D01*
X80375321Y-40049999D01*
X80375324Y-40050000D01*
X80375326Y-40050000D01*
X80874674Y-40050000D01*
X80925811Y-40039828D01*
X80974189Y-40039828D01*
X81025326Y-40050000D01*
X81524674Y-40050000D01*
X81575811Y-40039828D01*
X81624189Y-40039828D01*
X81675326Y-40050000D01*
X82174674Y-40050000D01*
X82225811Y-40039828D01*
X82274189Y-40039828D01*
X82325326Y-40050000D01*
X82824674Y-40050000D01*
X82875811Y-40039828D01*
X82924189Y-40039828D01*
X82975326Y-40050000D01*
X83474676Y-40050000D01*
X83474677Y-40049999D01*
X83547740Y-40035466D01*
X83630601Y-39980101D01*
X83685966Y-39897240D01*
X83700500Y-39824174D01*
X83700500Y-38453500D01*
X83703050Y-38444814D01*
X83701762Y-38435853D01*
X83712740Y-38411812D01*
X83720185Y-38386461D01*
X83727025Y-38380533D01*
X83730787Y-38372297D01*
X83753021Y-38358007D01*
X83772989Y-38340706D01*
X83783503Y-38338418D01*
X83789565Y-38334523D01*
X83824500Y-38329500D01*
X83970999Y-38329500D01*
X84038038Y-38349185D01*
X84083793Y-38401989D01*
X84094999Y-38453500D01*
X84094999Y-39773055D01*
X84083793Y-39824567D01*
X84077652Y-39838015D01*
X84034663Y-39932143D01*
X84014976Y-39999188D01*
X84002813Y-40083789D01*
X83994500Y-40141606D01*
X83994500Y-40676000D01*
X83994501Y-40676009D01*
X84006052Y-40783450D01*
X84006054Y-40783462D01*
X84017260Y-40834972D01*
X84051383Y-40937497D01*
X84051386Y-40937503D01*
X84129171Y-41058537D01*
X84129179Y-41058548D01*
X84174923Y-41111340D01*
X84174926Y-41111343D01*
X84174930Y-41111347D01*
X84283664Y-41205567D01*
X84283667Y-41205568D01*
X84283668Y-41205569D01*
X84409723Y-41263138D01*
X84414541Y-41265338D01*
X84481580Y-41285023D01*
X84481584Y-41285024D01*
X84624000Y-41305500D01*
X84624003Y-41305500D01*
X87075990Y-41305500D01*
X87076000Y-41305500D01*
X87183456Y-41293947D01*
X87234967Y-41282741D01*
X87269197Y-41271347D01*
X87337497Y-41248616D01*
X87337501Y-41248613D01*
X87337504Y-41248613D01*
X87458543Y-41170825D01*
X87511347Y-41125070D01*
X87605567Y-41016336D01*
X87631487Y-40959580D01*
X87662706Y-40891223D01*
X87708461Y-40838419D01*
X87775501Y-40818735D01*
X87842540Y-40838420D01*
X87888295Y-40891224D01*
X87899500Y-40942735D01*
X87899500Y-43074976D01*
X87879815Y-43142015D01*
X87827011Y-43187770D01*
X87757853Y-43197714D01*
X87694297Y-43168689D01*
X87673659Y-43144872D01*
X87673482Y-43145006D01*
X87671618Y-43142517D01*
X87671187Y-43142019D01*
X87670830Y-43141464D01*
X87670820Y-43141451D01*
X87625076Y-43088659D01*
X87625072Y-43088656D01*
X87625070Y-43088653D01*
X87516336Y-42994433D01*
X87516333Y-42994431D01*
X87516331Y-42994430D01*
X87385465Y-42934664D01*
X87385460Y-42934662D01*
X87385459Y-42934662D01*
X87318420Y-42914977D01*
X87318422Y-42914977D01*
X87318417Y-42914976D01*
X87256347Y-42906052D01*
X87176000Y-42894500D01*
X84824000Y-42894500D01*
X84823991Y-42894500D01*
X84823990Y-42894501D01*
X84716549Y-42906052D01*
X84716537Y-42906054D01*
X84665027Y-42917260D01*
X84562502Y-42951383D01*
X84562496Y-42951386D01*
X84441462Y-43029171D01*
X84441451Y-43029179D01*
X84388659Y-43074923D01*
X84294433Y-43183664D01*
X84294430Y-43183668D01*
X84234664Y-43314534D01*
X84214975Y-43381584D01*
X84214031Y-43388153D01*
X84185003Y-43451707D01*
X84126223Y-43489479D01*
X84091294Y-43494500D01*
X84072124Y-43494500D01*
X83938396Y-43512512D01*
X83938390Y-43512513D01*
X83875131Y-43529869D01*
X83875113Y-43529875D01*
X83750919Y-43582621D01*
X83638888Y-43672902D01*
X83638888Y-43672903D01*
X83591773Y-43723507D01*
X83591770Y-43723510D01*
X83591278Y-43724040D01*
X83591276Y-43724043D01*
X83509219Y-43842230D01*
X83497129Y-43878553D01*
X83489772Y-43890607D01*
X83473936Y-43904983D01*
X83461739Y-43922552D01*
X83448584Y-43928000D01*
X83438042Y-43937572D01*
X83416949Y-43941104D01*
X83397188Y-43949290D01*
X83383933Y-43950000D01*
X82975326Y-43950000D01*
X82924190Y-43960171D01*
X82875810Y-43960171D01*
X82824674Y-43950000D01*
X82325326Y-43950000D01*
X82274190Y-43960171D01*
X82225810Y-43960171D01*
X82174674Y-43950000D01*
X81675326Y-43950000D01*
X81624190Y-43960171D01*
X81575810Y-43960171D01*
X81524674Y-43950000D01*
X81025326Y-43950000D01*
X80974190Y-43960171D01*
X80925810Y-43960171D01*
X80874674Y-43950000D01*
X80375326Y-43950000D01*
X80324190Y-43960171D01*
X80275810Y-43960171D01*
X80224674Y-43950000D01*
X79725326Y-43950000D01*
X79674190Y-43960171D01*
X79625810Y-43960171D01*
X79574674Y-43950000D01*
X79075326Y-43950000D01*
X79075323Y-43950000D01*
X79002264Y-43964532D01*
X79002259Y-43964534D01*
X78993926Y-43970102D01*
X78963625Y-43979587D01*
X78933886Y-43990680D01*
X78930526Y-43989949D01*
X78927247Y-43990976D01*
X78896635Y-43982576D01*
X78865613Y-43975828D01*
X78861893Y-43973043D01*
X78859868Y-43972488D01*
X78837359Y-43954677D01*
X78786819Y-43904137D01*
X78753334Y-43842814D01*
X78750500Y-43816456D01*
X78750500Y-40853858D01*
X78750500Y-40853856D01*
X78726614Y-40764712D01*
X78725706Y-40763139D01*
X78680473Y-40684794D01*
X78680470Y-40684791D01*
X78680469Y-40684788D01*
X78615212Y-40619531D01*
X78365212Y-40369530D01*
X78303435Y-40333863D01*
X78285290Y-40323387D01*
X78285289Y-40323386D01*
X78285288Y-40323386D01*
X78196144Y-40299500D01*
X78196143Y-40299500D01*
X77474500Y-40299500D01*
X77407461Y-40279815D01*
X77361706Y-40227011D01*
X77350500Y-40175501D01*
X77350499Y-40036867D01*
X77350499Y-40036862D01*
X77344259Y-39989455D01*
X77326982Y-39952404D01*
X77316490Y-39883326D01*
X77326980Y-39847599D01*
X77344259Y-39810545D01*
X77350500Y-39763139D01*
X77350499Y-39536862D01*
X77344259Y-39489455D01*
X77333368Y-39466099D01*
X77326982Y-39452404D01*
X77316490Y-39383326D01*
X77326980Y-39347599D01*
X77344259Y-39310545D01*
X77350500Y-39263139D01*
X77350499Y-39036862D01*
X77344259Y-38989455D01*
X77326982Y-38952404D01*
X77316490Y-38883326D01*
X77326980Y-38847599D01*
X77344259Y-38810545D01*
X77350500Y-38763139D01*
X77350499Y-38536862D01*
X77344259Y-38489455D01*
X77327493Y-38453500D01*
X77326982Y-38452404D01*
X77316490Y-38383326D01*
X77326980Y-38347599D01*
X77344259Y-38310545D01*
X77350500Y-38263139D01*
X77350499Y-38036862D01*
X77344259Y-37989455D01*
X77330757Y-37960500D01*
X77326982Y-37952404D01*
X77316490Y-37883326D01*
X77326980Y-37847599D01*
X77344259Y-37810545D01*
X77350500Y-37763139D01*
X77350499Y-37536862D01*
X77344259Y-37489455D01*
X77295747Y-37385421D01*
X77214579Y-37304253D01*
X77124785Y-37262381D01*
X77072347Y-37216210D01*
X77053195Y-37149016D01*
X77073411Y-37082135D01*
X77124785Y-37037618D01*
X77179471Y-37012117D01*
X77231876Y-37000500D01*
X77397524Y-37000500D01*
X77412126Y-37004787D01*
G37*
%TD.AperFunction*%
%TA.AperFunction,Conductor*%
G36*
X61033334Y-40814359D02*
G01*
X61077681Y-40842860D01*
X61137897Y-40903076D01*
X61137900Y-40903078D01*
X61225499Y-40945902D01*
X61253482Y-40959582D01*
X61328418Y-40970500D01*
X61328423Y-40970500D01*
X61671577Y-40970500D01*
X61671582Y-40970500D01*
X61746518Y-40959582D01*
X61830090Y-40918726D01*
X61862099Y-40903078D01*
X61862102Y-40903076D01*
X61914577Y-40850602D01*
X61975900Y-40817117D01*
X62045592Y-40822101D01*
X62101525Y-40863973D01*
X62125942Y-40929437D01*
X62126258Y-40938283D01*
X62126258Y-40979659D01*
X62158638Y-41100500D01*
X62163775Y-41119672D01*
X62236246Y-41245195D01*
X62236248Y-41245197D01*
X62236249Y-41245199D01*
X62338743Y-41347693D01*
X62338744Y-41347694D01*
X62338746Y-41347695D01*
X62464269Y-41420166D01*
X62464270Y-41420166D01*
X62464273Y-41420168D01*
X62604283Y-41457684D01*
X62604286Y-41457684D01*
X62749230Y-41457684D01*
X62749233Y-41457684D01*
X62843909Y-41432315D01*
X62913755Y-41433978D01*
X62971618Y-41473140D01*
X62999123Y-41537368D01*
X63000000Y-41552090D01*
X63000000Y-41750000D01*
X63029726Y-41779726D01*
X63063211Y-41841049D01*
X63058227Y-41910741D01*
X63049432Y-41929407D01*
X62987017Y-42037511D01*
X62987016Y-42037515D01*
X62958758Y-42142977D01*
X62947874Y-42183595D01*
X62911509Y-42243255D01*
X62848661Y-42273784D01*
X62779286Y-42265489D01*
X62728155Y-42223272D01*
X62727651Y-42223650D01*
X62726094Y-42221570D01*
X62725408Y-42221004D01*
X62724258Y-42219117D01*
X62684658Y-42166218D01*
X62641472Y-42108528D01*
X62533450Y-42027664D01*
X62533447Y-42027662D01*
X62407024Y-41980509D01*
X62351144Y-41974500D01*
X62351130Y-41974500D01*
X61823870Y-41974500D01*
X61823855Y-41974500D01*
X61767975Y-41980509D01*
X61641552Y-42027662D01*
X61641549Y-42027664D01*
X61533528Y-42108528D01*
X61452664Y-42216549D01*
X61452662Y-42216552D01*
X61416182Y-42314361D01*
X61374311Y-42370295D01*
X61308846Y-42394712D01*
X61240573Y-42379860D01*
X61191168Y-42330455D01*
X61183818Y-42314361D01*
X61147337Y-42216552D01*
X61147335Y-42216549D01*
X61134101Y-42198870D01*
X61066472Y-42108528D01*
X60958450Y-42027664D01*
X60958447Y-42027662D01*
X60832024Y-41980509D01*
X60776144Y-41974500D01*
X60776130Y-41974500D01*
X60329500Y-41974500D01*
X60262461Y-41954815D01*
X60216706Y-41902011D01*
X60205500Y-41850500D01*
X60205500Y-41094500D01*
X60225185Y-41027461D01*
X60277989Y-40981706D01*
X60329500Y-40970500D01*
X60651577Y-40970500D01*
X60651582Y-40970500D01*
X60726518Y-40959582D01*
X60810090Y-40918726D01*
X60842099Y-40903078D01*
X60842102Y-40903076D01*
X60902319Y-40842860D01*
X60963642Y-40809375D01*
X61033334Y-40814359D01*
G37*
%TD.AperFunction*%
%TA.AperFunction,Conductor*%
G36*
X66992539Y-39520185D02*
G01*
X67038294Y-39572989D01*
X67049500Y-39624499D01*
X67049500Y-39763132D01*
X67049501Y-39763138D01*
X67055741Y-39810545D01*
X67055742Y-39810547D01*
X67055742Y-39810548D01*
X67083191Y-39869411D01*
X67104253Y-39914579D01*
X67185421Y-39995747D01*
X67275212Y-40037617D01*
X67287867Y-40048759D01*
X67303263Y-40055643D01*
X67313548Y-40071371D01*
X67327652Y-40083789D01*
X67332274Y-40100007D01*
X67341503Y-40114119D01*
X67341652Y-40132908D01*
X67346804Y-40150982D01*
X67341924Y-40167124D01*
X67342059Y-40183986D01*
X67332026Y-40199873D01*
X67326589Y-40217864D01*
X67313509Y-40229197D01*
X67304754Y-40243063D01*
X67275215Y-40262380D01*
X67220531Y-40287881D01*
X67168124Y-40299500D01*
X66823856Y-40299500D01*
X66734712Y-40323386D01*
X66734711Y-40323386D01*
X66734709Y-40323387D01*
X66734706Y-40323388D01*
X66654794Y-40369526D01*
X66654789Y-40369530D01*
X66471136Y-40553182D01*
X66409812Y-40586666D01*
X66383456Y-40589500D01*
X66199265Y-40589500D01*
X66143396Y-40598349D01*
X66074103Y-40589393D01*
X66020651Y-40544396D01*
X66000013Y-40477644D01*
X66000000Y-40475875D01*
X66000000Y-39624500D01*
X66019685Y-39557461D01*
X66072489Y-39511706D01*
X66124000Y-39500500D01*
X66925500Y-39500500D01*
X66992539Y-39520185D01*
G37*
%TD.AperFunction*%
%TA.AperFunction,Conductor*%
G36*
X70017862Y-35948410D02*
G01*
X70062380Y-35999785D01*
X70087881Y-36054470D01*
X70099500Y-36106876D01*
X70099500Y-39453456D01*
X70079815Y-39520495D01*
X70063181Y-39541137D01*
X69766137Y-39838181D01*
X69704814Y-39871666D01*
X69678456Y-39874500D01*
X69602525Y-39874500D01*
X69473993Y-39908940D01*
X69462511Y-39912017D01*
X69336988Y-39984488D01*
X69336982Y-39984493D01*
X69234493Y-40086982D01*
X69234488Y-40086988D01*
X69162017Y-40212511D01*
X69162015Y-40212516D01*
X69140643Y-40292276D01*
X69104278Y-40351936D01*
X69041431Y-40382464D01*
X68972055Y-40374169D01*
X68953057Y-40363996D01*
X68942287Y-40356961D01*
X68889579Y-40304253D01*
X68791775Y-40258646D01*
X68784379Y-40253815D01*
X68767202Y-40233692D01*
X68747347Y-40216210D01*
X68744874Y-40207535D01*
X68739017Y-40200673D01*
X68735446Y-40174457D01*
X68728195Y-40149016D01*
X68730805Y-40140380D01*
X68729588Y-40131442D01*
X68740755Y-40107461D01*
X68748411Y-40082135D01*
X68755349Y-40076122D01*
X68759084Y-40068104D01*
X68779497Y-40055198D01*
X68799785Y-40037618D01*
X68889579Y-39995747D01*
X68970747Y-39914579D01*
X69019259Y-39810545D01*
X69025500Y-39763139D01*
X69025499Y-39536862D01*
X69019259Y-39489455D01*
X69008368Y-39466099D01*
X69001982Y-39452404D01*
X68991490Y-39383326D01*
X69001980Y-39347599D01*
X69019259Y-39310545D01*
X69025500Y-39263139D01*
X69025499Y-39036862D01*
X69019259Y-38989455D01*
X69001982Y-38952404D01*
X68991490Y-38883326D01*
X69001980Y-38847599D01*
X69019259Y-38810545D01*
X69025500Y-38763139D01*
X69025499Y-38536862D01*
X69019259Y-38489455D01*
X69002493Y-38453500D01*
X69001982Y-38452404D01*
X68991490Y-38383326D01*
X69001980Y-38347599D01*
X69019259Y-38310545D01*
X69025500Y-38263139D01*
X69025499Y-38036862D01*
X69019259Y-37989455D01*
X69005757Y-37960500D01*
X69001982Y-37952404D01*
X68991490Y-37883326D01*
X69001980Y-37847599D01*
X69019259Y-37810545D01*
X69025500Y-37763139D01*
X69025499Y-37536862D01*
X69019259Y-37489455D01*
X69008832Y-37467095D01*
X69001982Y-37452404D01*
X68991490Y-37383326D01*
X69001980Y-37347599D01*
X69019259Y-37310545D01*
X69025500Y-37263139D01*
X69025499Y-37082724D01*
X69045183Y-37015685D01*
X69087500Y-36975336D01*
X69092602Y-36972391D01*
X69165212Y-36930470D01*
X69730470Y-36365212D01*
X69776614Y-36285288D01*
X69800500Y-36196144D01*
X69800500Y-36106876D01*
X69812117Y-36054473D01*
X69837618Y-35999784D01*
X69883788Y-35947348D01*
X69950981Y-35928195D01*
X70017862Y-35948410D01*
G37*
%TD.AperFunction*%
%TA.AperFunction,Conductor*%
G36*
X56215836Y-31620184D02*
G01*
X56261591Y-31672988D01*
X56271535Y-31742146D01*
X56242510Y-31805702D01*
X56236478Y-31812180D01*
X56140588Y-31908069D01*
X56140588Y-31908070D01*
X56140586Y-31908072D01*
X56132085Y-31919773D01*
X56038768Y-32048211D01*
X55960128Y-32202552D01*
X55906597Y-32367302D01*
X55879500Y-32538389D01*
X55879500Y-32711610D01*
X55905304Y-32874535D01*
X55906598Y-32882701D01*
X55960127Y-33047445D01*
X56038768Y-33201788D01*
X56140586Y-33341928D01*
X56263072Y-33464414D01*
X56403212Y-33566232D01*
X56557555Y-33644873D01*
X56722299Y-33698402D01*
X56893389Y-33725500D01*
X56893390Y-33725500D01*
X57066610Y-33725500D01*
X57066611Y-33725500D01*
X57237701Y-33698402D01*
X57402445Y-33644873D01*
X57556788Y-33566232D01*
X57696928Y-33464414D01*
X57819414Y-33341928D01*
X57921232Y-33201788D01*
X57999873Y-33047445D01*
X58053402Y-32882701D01*
X58080500Y-32711611D01*
X58080500Y-32538389D01*
X58053402Y-32367299D01*
X57999873Y-32202555D01*
X57921232Y-32048212D01*
X57819414Y-31908072D01*
X57723522Y-31812180D01*
X57690037Y-31750857D01*
X57695021Y-31681165D01*
X57736893Y-31625232D01*
X57802357Y-31600815D01*
X57811203Y-31600499D01*
X61228797Y-31600499D01*
X61295836Y-31620184D01*
X61341591Y-31672988D01*
X61351535Y-31742146D01*
X61322510Y-31805702D01*
X61316478Y-31812180D01*
X61220588Y-31908069D01*
X61220588Y-31908070D01*
X61220586Y-31908072D01*
X61212085Y-31919773D01*
X61118768Y-32048211D01*
X61040128Y-32202552D01*
X60986597Y-32367302D01*
X60959500Y-32538389D01*
X60959500Y-32711610D01*
X60985304Y-32874535D01*
X60986598Y-32882701D01*
X61040127Y-33047445D01*
X61118768Y-33201788D01*
X61220586Y-33341928D01*
X61343072Y-33464414D01*
X61483212Y-33566232D01*
X61637555Y-33644873D01*
X61802299Y-33698402D01*
X61973389Y-33725500D01*
X61973390Y-33725500D01*
X62146610Y-33725500D01*
X62146611Y-33725500D01*
X62317701Y-33698402D01*
X62482445Y-33644873D01*
X62636788Y-33566232D01*
X62776928Y-33464414D01*
X62899414Y-33341928D01*
X63001232Y-33201788D01*
X63079873Y-33047445D01*
X63133402Y-32882701D01*
X63160500Y-32711611D01*
X63160500Y-32538389D01*
X63133402Y-32367299D01*
X63079873Y-32202555D01*
X63001232Y-32048212D01*
X62899414Y-31908072D01*
X62803522Y-31812180D01*
X62770037Y-31750857D01*
X62775021Y-31681165D01*
X62816893Y-31625232D01*
X62882357Y-31600815D01*
X62891203Y-31600499D01*
X63378208Y-31600499D01*
X63445247Y-31620184D01*
X63491002Y-31672988D01*
X63500946Y-31742146D01*
X63499825Y-31748694D01*
X63499500Y-31750327D01*
X63499500Y-33499678D01*
X63514032Y-33572735D01*
X63514033Y-33572739D01*
X63514034Y-33572740D01*
X63569399Y-33655601D01*
X63650534Y-33709813D01*
X63652260Y-33710966D01*
X63652264Y-33710967D01*
X63725321Y-33725499D01*
X63725324Y-33725500D01*
X63725326Y-33725500D01*
X65474676Y-33725500D01*
X65474677Y-33725499D01*
X65547740Y-33710966D01*
X65630601Y-33655601D01*
X65685966Y-33572740D01*
X65700500Y-33499674D01*
X65700500Y-31750326D01*
X65700175Y-31748692D01*
X65700253Y-31747818D01*
X65699903Y-31744261D01*
X65700577Y-31744194D01*
X65706401Y-31679103D01*
X65749262Y-31623924D01*
X65815151Y-31600677D01*
X65821792Y-31600499D01*
X67395765Y-31600499D01*
X67462804Y-31620184D01*
X67508559Y-31672988D01*
X67518503Y-31742146D01*
X67490617Y-31803206D01*
X67490628Y-31803214D01*
X67490592Y-31803261D01*
X67489478Y-31805702D01*
X67485843Y-31809604D01*
X67403373Y-31919771D01*
X67403372Y-31919774D01*
X67358374Y-32040418D01*
X67355587Y-32047889D01*
X67349500Y-32104498D01*
X67349500Y-32695481D01*
X67349501Y-32695490D01*
X67355587Y-32752114D01*
X67398846Y-32868092D01*
X67403372Y-32880226D01*
X67485313Y-32989687D01*
X67594774Y-33071628D01*
X67648862Y-33091802D01*
X67730156Y-33122124D01*
X67729047Y-33125094D01*
X67775078Y-33150760D01*
X68253181Y-33628863D01*
X68286666Y-33690186D01*
X68289500Y-33716543D01*
X68289500Y-33900739D01*
X68303981Y-33992170D01*
X68303981Y-33992171D01*
X68303982Y-33992174D01*
X68303983Y-33992175D01*
X68357355Y-34096924D01*
X68360142Y-34102392D01*
X68360145Y-34102396D01*
X68433181Y-34175432D01*
X68447884Y-34202359D01*
X68464477Y-34228178D01*
X68465368Y-34234378D01*
X68466666Y-34236755D01*
X68469500Y-34263113D01*
X68469500Y-34270202D01*
X68449815Y-34337241D01*
X68397011Y-34382996D01*
X68392954Y-34384763D01*
X68387511Y-34387017D01*
X68261988Y-34459488D01*
X68261982Y-34459493D01*
X68159493Y-34561982D01*
X68159488Y-34561988D01*
X68087017Y-34687511D01*
X68087016Y-34687515D01*
X68049500Y-34827525D01*
X68049500Y-34972475D01*
X68087016Y-35112485D01*
X68087017Y-35112488D01*
X68159488Y-35238011D01*
X68159490Y-35238013D01*
X68159491Y-35238015D01*
X68261985Y-35340509D01*
X68261986Y-35340510D01*
X68261988Y-35340511D01*
X68387511Y-35412982D01*
X68387512Y-35412982D01*
X68387515Y-35412984D01*
X68527525Y-35450500D01*
X68527528Y-35450500D01*
X68672472Y-35450500D01*
X68672475Y-35450500D01*
X68812485Y-35412984D01*
X68863499Y-35383530D01*
X68931398Y-35367057D01*
X68997426Y-35389909D01*
X69040617Y-35444829D01*
X69049500Y-35490917D01*
X69049500Y-35938134D01*
X69055093Y-35980620D01*
X69054505Y-35984385D01*
X69055837Y-35987955D01*
X69049164Y-36018626D01*
X69044325Y-36049655D01*
X69041559Y-36053587D01*
X69040985Y-36056228D01*
X69019834Y-36084482D01*
X68884483Y-36219833D01*
X68823160Y-36253318D01*
X68780620Y-36255092D01*
X68757583Y-36252059D01*
X68738139Y-36249500D01*
X68738135Y-36249500D01*
X67336867Y-36249500D01*
X67324007Y-36251193D01*
X67289455Y-36255741D01*
X67289453Y-36255742D01*
X67289451Y-36255742D01*
X67201691Y-36296666D01*
X67185874Y-36304042D01*
X67177639Y-36307882D01*
X67166635Y-36310321D01*
X67160169Y-36314477D01*
X67125234Y-36319500D01*
X67112667Y-36319500D01*
X67045628Y-36299815D01*
X67002183Y-36251796D01*
X66995161Y-36238015D01*
X66989859Y-36227609D01*
X66989856Y-36227606D01*
X66989854Y-36227603D01*
X66902396Y-36140145D01*
X66902393Y-36140143D01*
X66902391Y-36140141D01*
X66792175Y-36083983D01*
X66792174Y-36083982D01*
X66792171Y-36083981D01*
X66700735Y-36069500D01*
X66299260Y-36069500D01*
X66299260Y-36069501D01*
X66207829Y-36083981D01*
X66207828Y-36083981D01*
X66197012Y-36089492D01*
X66180292Y-36098011D01*
X66111625Y-36110907D01*
X66046885Y-36084631D01*
X66006628Y-36027524D01*
X66000000Y-35987526D01*
X66000000Y-35000000D01*
X64002258Y-35000000D01*
X63945963Y-34986485D01*
X63931879Y-34979309D01*
X63882175Y-34953983D01*
X63882174Y-34953982D01*
X63882171Y-34953981D01*
X63790735Y-34939500D01*
X63449260Y-34939500D01*
X63449260Y-34939501D01*
X63357829Y-34953981D01*
X63357825Y-34953982D01*
X63294036Y-34986485D01*
X63237742Y-35000000D01*
X63000000Y-35000000D01*
X63000000Y-35572986D01*
X62995448Y-35589279D01*
X62995857Y-35604772D01*
X62984884Y-35627093D01*
X62982047Y-35637252D01*
X62974326Y-35649991D01*
X62969530Y-35654788D01*
X62932151Y-35719531D01*
X62931494Y-35720669D01*
X62923385Y-35734714D01*
X62899500Y-35823856D01*
X62899500Y-35876000D01*
X62879815Y-35943039D01*
X62827011Y-35988794D01*
X62775500Y-36000000D01*
X62250000Y-36000000D01*
X62250000Y-39925500D01*
X62247449Y-39934185D01*
X62248738Y-39943147D01*
X62237759Y-39967187D01*
X62230315Y-39992539D01*
X62223474Y-39998466D01*
X62219713Y-40006703D01*
X62197478Y-40020992D01*
X62177511Y-40038294D01*
X62166996Y-40040581D01*
X62160935Y-40044477D01*
X62126000Y-40049500D01*
X62060596Y-40049500D01*
X61993557Y-40029815D01*
X61961884Y-39994229D01*
X61959044Y-39996257D01*
X61953074Y-39987895D01*
X61886819Y-39921640D01*
X61853334Y-39860317D01*
X61850500Y-39833959D01*
X61850500Y-38711867D01*
X61866383Y-38657774D01*
X61864059Y-38656691D01*
X61868644Y-38646859D01*
X61919019Y-38538830D01*
X61925500Y-38489603D01*
X61925499Y-37910398D01*
X61919019Y-37861170D01*
X61868644Y-37753141D01*
X61784359Y-37668856D01*
X61676330Y-37618481D01*
X61676328Y-37618480D01*
X61627113Y-37612001D01*
X61627108Y-37612000D01*
X61627103Y-37612000D01*
X61627096Y-37612000D01*
X61372895Y-37612000D01*
X61323674Y-37618480D01*
X61323666Y-37618482D01*
X61215640Y-37668856D01*
X61131356Y-37753140D01*
X61112382Y-37793831D01*
X61066209Y-37846270D01*
X60999016Y-37865422D01*
X60932135Y-37845206D01*
X60887618Y-37793831D01*
X60868644Y-37753141D01*
X60784359Y-37668856D01*
X60701024Y-37629996D01*
X60678350Y-37610031D01*
X60654163Y-37591926D01*
X60652390Y-37587173D01*
X60648585Y-37583823D01*
X60640304Y-37554772D01*
X60629745Y-37526462D01*
X60630822Y-37521506D01*
X60629433Y-37516630D01*
X60638173Y-37487712D01*
X60644596Y-37458188D01*
X60648792Y-37452581D01*
X60649649Y-37449749D01*
X60665744Y-37429937D01*
X60706329Y-37389351D01*
X60767649Y-37355867D01*
X60813974Y-37357478D01*
X60814264Y-37355281D01*
X60837040Y-37358279D01*
X60872897Y-37363000D01*
X61127102Y-37362999D01*
X61127104Y-37362999D01*
X61141167Y-37361147D01*
X61176330Y-37356519D01*
X61284359Y-37306144D01*
X61368644Y-37221859D01*
X61419019Y-37113830D01*
X61425500Y-37064603D01*
X61425499Y-36485398D01*
X61425497Y-36485386D01*
X61420905Y-36450500D01*
X61419019Y-36436170D01*
X61409558Y-36415882D01*
X61399066Y-36346807D01*
X61427584Y-36283022D01*
X61474194Y-36251852D01*
X61473479Y-36250447D01*
X61482172Y-36246017D01*
X61482175Y-36246017D01*
X61592391Y-36189859D01*
X61679859Y-36102391D01*
X61736017Y-35992175D01*
X61736017Y-35992173D01*
X61736018Y-35992172D01*
X61736018Y-35992171D01*
X61743117Y-35947348D01*
X61750500Y-35900735D01*
X61750499Y-35499266D01*
X61750499Y-35499260D01*
X61736018Y-35407829D01*
X61736018Y-35407828D01*
X61736017Y-35407826D01*
X61736017Y-35407825D01*
X61679859Y-35297609D01*
X61679857Y-35297607D01*
X61679854Y-35297603D01*
X61592396Y-35210145D01*
X61592392Y-35210142D01*
X61592391Y-35210141D01*
X61539030Y-35182952D01*
X61538204Y-35182531D01*
X61527140Y-35172082D01*
X61513297Y-35165760D01*
X61502255Y-35148579D01*
X61487409Y-35134557D01*
X61483167Y-35118877D01*
X61475523Y-35106982D01*
X61470500Y-35072047D01*
X61470500Y-35059386D01*
X61490185Y-34992347D01*
X61506819Y-34971705D01*
X61513815Y-34964709D01*
X61540509Y-34938015D01*
X61612984Y-34812485D01*
X61650500Y-34672475D01*
X61650500Y-34527525D01*
X61612984Y-34387515D01*
X61612696Y-34387017D01*
X61540511Y-34261988D01*
X61540506Y-34261982D01*
X61438017Y-34159493D01*
X61438011Y-34159488D01*
X61312488Y-34087017D01*
X61312489Y-34087017D01*
X61301006Y-34083940D01*
X61172475Y-34049500D01*
X61027525Y-34049500D01*
X60898993Y-34083940D01*
X60887511Y-34087017D01*
X60761988Y-34159488D01*
X60761982Y-34159493D01*
X60708295Y-34213181D01*
X60646972Y-34246666D01*
X60620614Y-34249500D01*
X59670596Y-34249500D01*
X59603557Y-34229815D01*
X59571884Y-34194229D01*
X59569044Y-34196257D01*
X59563074Y-34187895D01*
X59472102Y-34096923D01*
X59472099Y-34096921D01*
X59356521Y-34040419D01*
X59356519Y-34040418D01*
X59356518Y-34040418D01*
X59281582Y-34029500D01*
X58938418Y-34029500D01*
X58863482Y-34040418D01*
X58863480Y-34040418D01*
X58863478Y-34040419D01*
X58747900Y-34096921D01*
X58747897Y-34096923D01*
X58687681Y-34157140D01*
X58626358Y-34190625D01*
X58556666Y-34185641D01*
X58512319Y-34157140D01*
X58452102Y-34096923D01*
X58452099Y-34096921D01*
X58336521Y-34040419D01*
X58336519Y-34040418D01*
X58336518Y-34040418D01*
X58261582Y-34029500D01*
X57918418Y-34029500D01*
X57843482Y-34040418D01*
X57843480Y-34040418D01*
X57843478Y-34040419D01*
X57727900Y-34096921D01*
X57727897Y-34096923D01*
X57636923Y-34187897D01*
X57636921Y-34187900D01*
X57580419Y-34303478D01*
X57580418Y-34303480D01*
X57580418Y-34303482D01*
X57569500Y-34378418D01*
X57569500Y-34378423D01*
X57569500Y-34683456D01*
X57549815Y-34750495D01*
X57533181Y-34771137D01*
X57419531Y-34884786D01*
X57419525Y-34884794D01*
X57379253Y-34954549D01*
X57379251Y-34954553D01*
X57373386Y-34964709D01*
X57349500Y-35053856D01*
X57349500Y-35420614D01*
X57342380Y-35444859D01*
X57339268Y-35469938D01*
X57331786Y-35480938D01*
X57329815Y-35487653D01*
X57320763Y-35499992D01*
X57317160Y-35504315D01*
X57259491Y-35561985D01*
X57237794Y-35599565D01*
X57230984Y-35607738D01*
X57210439Y-35621509D01*
X57192539Y-35638576D01*
X57181926Y-35640621D01*
X57172947Y-35646640D01*
X57148216Y-35647117D01*
X57123932Y-35651798D01*
X57113898Y-35647781D01*
X57103090Y-35647990D01*
X57082026Y-35635020D01*
X57059068Y-35625829D01*
X57048429Y-35614334D01*
X57043594Y-35611357D01*
X57041350Y-35606685D01*
X57032618Y-35597250D01*
X57031000Y-35594828D01*
X56980601Y-35519399D01*
X56910625Y-35472643D01*
X56897739Y-35464033D01*
X56897735Y-35464032D01*
X56824677Y-35449500D01*
X56824674Y-35449500D01*
X55929500Y-35449500D01*
X55862461Y-35429815D01*
X55816706Y-35377011D01*
X55805500Y-35325500D01*
X55805500Y-34824010D01*
X55805500Y-34824000D01*
X55793947Y-34716544D01*
X55782741Y-34665033D01*
X55782637Y-34664722D01*
X55748616Y-34562502D01*
X55748613Y-34562496D01*
X55726220Y-34527652D01*
X55670825Y-34441457D01*
X55670820Y-34441451D01*
X55625076Y-34388659D01*
X55625072Y-34388656D01*
X55625070Y-34388653D01*
X55516336Y-34294433D01*
X55516333Y-34294431D01*
X55516331Y-34294430D01*
X55385465Y-34234664D01*
X55385460Y-34234662D01*
X55385459Y-34234662D01*
X55337229Y-34220500D01*
X55318417Y-34214976D01*
X55230661Y-34202359D01*
X55176000Y-34194500D01*
X55175998Y-34194500D01*
X52446252Y-34194500D01*
X52379213Y-34174815D01*
X52333458Y-34122011D01*
X52323514Y-34052853D01*
X52352539Y-33989297D01*
X52373366Y-33970182D01*
X52477510Y-33894517D01*
X52644517Y-33727510D01*
X52783343Y-33536433D01*
X52890568Y-33325992D01*
X52963553Y-33101368D01*
X52968263Y-33071628D01*
X53000500Y-32868097D01*
X53000500Y-32631902D01*
X52963553Y-32398631D01*
X52927776Y-32288522D01*
X52890568Y-32174008D01*
X52890566Y-32174005D01*
X52890566Y-32174003D01*
X52822501Y-32040419D01*
X52783343Y-31963567D01*
X52662603Y-31797384D01*
X52639124Y-31731578D01*
X52654949Y-31663524D01*
X52705055Y-31614829D01*
X52762922Y-31600499D01*
X56148797Y-31600499D01*
X56215836Y-31620184D01*
G37*
%TD.AperFunction*%
%TA.AperFunction,Conductor*%
G36*
X57255703Y-37934673D02*
G01*
X57262181Y-37940705D01*
X57361985Y-38040509D01*
X57361986Y-38040510D01*
X57361988Y-38040511D01*
X57487511Y-38112982D01*
X57487512Y-38112982D01*
X57487515Y-38112984D01*
X57627525Y-38150500D01*
X57717954Y-38150500D01*
X57779954Y-38167113D01*
X57839712Y-38201614D01*
X57928856Y-38225500D01*
X57928857Y-38225500D01*
X58021144Y-38225500D01*
X58116303Y-38225500D01*
X58183342Y-38245185D01*
X58210686Y-38272046D01*
X58210766Y-38271967D01*
X58219396Y-38280597D01*
X58219399Y-38280601D01*
X58302260Y-38335966D01*
X58302263Y-38335966D01*
X58302264Y-38335967D01*
X58375321Y-38350499D01*
X58375324Y-38350500D01*
X58375326Y-38350500D01*
X59474676Y-38350500D01*
X59474677Y-38350499D01*
X59547740Y-38335966D01*
X59630601Y-38280601D01*
X59630605Y-38280594D01*
X59637529Y-38273671D01*
X59639984Y-38268297D01*
X59663109Y-38253434D01*
X59684204Y-38235805D01*
X59693580Y-38233852D01*
X59698762Y-38230523D01*
X59733697Y-38225500D01*
X59950501Y-38225500D01*
X60017540Y-38245185D01*
X60063295Y-38297989D01*
X60074501Y-38349500D01*
X60074501Y-38489604D01*
X60080980Y-38538825D01*
X60080982Y-38538833D01*
X60112383Y-38606171D01*
X60131356Y-38646859D01*
X60215641Y-38731144D01*
X60323670Y-38781519D01*
X60372897Y-38788000D01*
X60627102Y-38787999D01*
X60627104Y-38787999D01*
X60641167Y-38786147D01*
X60676330Y-38781519D01*
X60784359Y-38731144D01*
X60868644Y-38646859D01*
X60887618Y-38606168D01*
X60898359Y-38593968D01*
X60904848Y-38579060D01*
X60920972Y-38568284D01*
X60933787Y-38553730D01*
X60949422Y-38549273D01*
X60962940Y-38540240D01*
X60982330Y-38539893D01*
X61000980Y-38534577D01*
X61016543Y-38539280D01*
X61032799Y-38538990D01*
X61049297Y-38549180D01*
X61067862Y-38554791D01*
X61079018Y-38567537D01*
X61092244Y-38575706D01*
X61110995Y-38604071D01*
X61111853Y-38605051D01*
X61112147Y-38605667D01*
X61131356Y-38646859D01*
X61132318Y-38647821D01*
X61137354Y-38658345D01*
X61141371Y-38683131D01*
X61149402Y-38706928D01*
X61149500Y-38711867D01*
X61149500Y-39833959D01*
X61129815Y-39900998D01*
X61113181Y-39921640D01*
X61077681Y-39957140D01*
X61016358Y-39990625D01*
X60946666Y-39985641D01*
X60902319Y-39957140D01*
X60842102Y-39896923D01*
X60842099Y-39896921D01*
X60726521Y-39840419D01*
X60726519Y-39840418D01*
X60726518Y-39840418D01*
X60651582Y-39829500D01*
X60317474Y-39829500D01*
X60250435Y-39809815D01*
X60204680Y-39757011D01*
X60194185Y-39718761D01*
X60193947Y-39716544D01*
X60182741Y-39665033D01*
X60169822Y-39626218D01*
X60148616Y-39562502D01*
X60148613Y-39562496D01*
X60101672Y-39489455D01*
X60070825Y-39441457D01*
X60067917Y-39438101D01*
X60025076Y-39388659D01*
X60025072Y-39388656D01*
X60025070Y-39388653D01*
X59916336Y-39294433D01*
X59916333Y-39294431D01*
X59916331Y-39294430D01*
X59785465Y-39234664D01*
X59785460Y-39234662D01*
X59785459Y-39234662D01*
X59718420Y-39214977D01*
X59718422Y-39214977D01*
X59718417Y-39214976D01*
X59670944Y-39208150D01*
X59576000Y-39194500D01*
X58783441Y-39194500D01*
X58783439Y-39194500D01*
X58729390Y-39197397D01*
X58729389Y-39197397D01*
X58703056Y-39200229D01*
X58703029Y-39200232D01*
X58649633Y-39208885D01*
X58649631Y-39208885D01*
X58514826Y-39259166D01*
X58453502Y-39292651D01*
X58338319Y-39378874D01*
X58338309Y-39378882D01*
X58296688Y-39420504D01*
X58277898Y-39435925D01*
X58249887Y-39454641D01*
X58228450Y-39466099D01*
X58197331Y-39478989D01*
X58174071Y-39486045D01*
X58157340Y-39489373D01*
X58141031Y-39492617D01*
X58116841Y-39495000D01*
X58083161Y-39495000D01*
X58058968Y-39492617D01*
X58034818Y-39487813D01*
X58025926Y-39486044D01*
X58002670Y-39478989D01*
X57968783Y-39464953D01*
X57968764Y-39464946D01*
X57883135Y-39438101D01*
X57840280Y-39428747D01*
X57840269Y-39428745D01*
X57751241Y-39417468D01*
X57751234Y-39417467D01*
X57608163Y-39432645D01*
X57608151Y-39432647D01*
X57540447Y-39449827D01*
X57540443Y-39449828D01*
X57540440Y-39449829D01*
X57540437Y-39449829D01*
X57540428Y-39449833D01*
X57454595Y-39485244D01*
X57441903Y-39489691D01*
X57406165Y-39500075D01*
X57371567Y-39505000D01*
X57088434Y-39505000D01*
X57053827Y-39500073D01*
X57050985Y-39499247D01*
X57022468Y-39486904D01*
X57020075Y-39485488D01*
X56995522Y-39466442D01*
X56993559Y-39464479D01*
X56974513Y-39439927D01*
X56973094Y-39437528D01*
X56960736Y-39408964D01*
X56959913Y-39406130D01*
X56955000Y-39371570D01*
X56955000Y-38990032D01*
X56955382Y-38980305D01*
X56955492Y-38978899D01*
X56955926Y-38973392D01*
X56949769Y-38845742D01*
X56938945Y-38784504D01*
X56900980Y-38662496D01*
X56823192Y-38541457D01*
X56821956Y-38540031D01*
X56821693Y-38539456D01*
X56820541Y-38537916D01*
X56820876Y-38537665D01*
X56792932Y-38476477D01*
X56802875Y-38407318D01*
X56848630Y-38354514D01*
X56891478Y-38337211D01*
X56897740Y-38335966D01*
X56980601Y-38280601D01*
X57035966Y-38197740D01*
X57050500Y-38124674D01*
X57050500Y-38028386D01*
X57070185Y-37961347D01*
X57122989Y-37915592D01*
X57192147Y-37905648D01*
X57255703Y-37934673D01*
G37*
%TD.AperFunction*%
%TA.AperFunction,Conductor*%
G36*
X59847604Y-36137116D02*
G01*
X59852340Y-36137370D01*
X59861908Y-36141774D01*
X59865870Y-36143064D01*
X59869544Y-36144873D01*
X59987515Y-36212984D01*
X60032136Y-36224940D01*
X60043059Y-36230319D01*
X60094505Y-36277595D01*
X60112225Y-36345180D01*
X60100661Y-36393965D01*
X60080980Y-36436171D01*
X60074501Y-36485386D01*
X60074500Y-36485397D01*
X60074500Y-36679790D01*
X60074501Y-36750500D01*
X60071950Y-36759186D01*
X60073239Y-36768147D01*
X60062261Y-36792183D01*
X60054817Y-36817539D01*
X60047974Y-36823467D01*
X60044214Y-36831703D01*
X60021982Y-36845989D01*
X60002013Y-36863294D01*
X59991497Y-36865581D01*
X59985436Y-36869477D01*
X59950501Y-36874500D01*
X59733697Y-36874500D01*
X59666658Y-36854815D01*
X59639313Y-36827953D01*
X59639234Y-36828033D01*
X59630603Y-36819402D01*
X59630601Y-36819399D01*
X59547740Y-36764034D01*
X59547738Y-36764033D01*
X59547735Y-36764032D01*
X59474677Y-36749500D01*
X59474674Y-36749500D01*
X58375326Y-36749500D01*
X58375323Y-36749500D01*
X58302264Y-36764032D01*
X58302260Y-36764033D01*
X58219399Y-36819399D01*
X58164033Y-36902260D01*
X58164032Y-36902264D01*
X58149500Y-36975321D01*
X58149500Y-37009082D01*
X58129815Y-37076121D01*
X58077011Y-37121876D01*
X58007853Y-37131820D01*
X57963500Y-37116469D01*
X57912488Y-37087017D01*
X57912489Y-37087017D01*
X57892123Y-37081560D01*
X57772475Y-37049500D01*
X57627525Y-37049500D01*
X57507877Y-37081560D01*
X57487511Y-37087017D01*
X57361988Y-37159488D01*
X57361982Y-37159493D01*
X57259493Y-37261982D01*
X57259488Y-37261988D01*
X57187017Y-37387511D01*
X57187015Y-37387516D01*
X57181678Y-37407435D01*
X57145313Y-37467095D01*
X57082466Y-37497623D01*
X57013090Y-37489328D01*
X56991664Y-37474825D01*
X56990756Y-37476185D01*
X56980601Y-37469400D01*
X56980601Y-37469399D01*
X56921634Y-37429999D01*
X56897739Y-37414033D01*
X56897735Y-37414032D01*
X56824677Y-37399500D01*
X56824674Y-37399500D01*
X55725326Y-37399500D01*
X55725323Y-37399500D01*
X55652264Y-37414032D01*
X55652260Y-37414033D01*
X55638400Y-37423295D01*
X55616987Y-37429999D01*
X55597435Y-37441007D01*
X55584287Y-37440237D01*
X55571722Y-37444172D01*
X55550084Y-37438235D01*
X55527685Y-37436925D01*
X55512104Y-37427816D01*
X55504342Y-37425687D01*
X55496492Y-37420413D01*
X55492258Y-37417328D01*
X55465836Y-37394433D01*
X55452429Y-37388310D01*
X55442308Y-37380936D01*
X55428335Y-37362766D01*
X55411010Y-37347754D01*
X55407439Y-37335595D01*
X55399715Y-37325550D01*
X55397783Y-37302708D01*
X55391326Y-37280714D01*
X55394896Y-37268554D01*
X55393829Y-37255928D01*
X55404552Y-37235669D01*
X55411011Y-37213675D01*
X55426118Y-37194928D01*
X55426516Y-37194177D01*
X55426896Y-37193962D01*
X55427640Y-37193039D01*
X55549055Y-37071624D01*
X55610376Y-37038141D01*
X55660926Y-37037690D01*
X55725323Y-37050500D01*
X55725326Y-37050500D01*
X56824676Y-37050500D01*
X56824677Y-37050499D01*
X56897740Y-37035966D01*
X56980601Y-36980601D01*
X57035966Y-36897740D01*
X57050500Y-36824674D01*
X57050500Y-36328386D01*
X57070185Y-36261347D01*
X57122989Y-36215592D01*
X57192147Y-36205648D01*
X57255703Y-36234673D01*
X57262181Y-36240705D01*
X57361985Y-36340509D01*
X57361986Y-36340510D01*
X57361988Y-36340511D01*
X57487511Y-36412982D01*
X57487512Y-36412982D01*
X57487515Y-36412984D01*
X57627525Y-36450500D01*
X57627528Y-36450500D01*
X57772472Y-36450500D01*
X57772475Y-36450500D01*
X57912485Y-36412984D01*
X58038015Y-36340509D01*
X58045978Y-36332545D01*
X58107297Y-36299060D01*
X58176989Y-36304042D01*
X58208798Y-36324483D01*
X58209244Y-36323816D01*
X58219399Y-36330601D01*
X58302260Y-36385966D01*
X58302263Y-36385966D01*
X58302264Y-36385967D01*
X58375321Y-36400499D01*
X58375324Y-36400500D01*
X58375326Y-36400500D01*
X59474676Y-36400500D01*
X59474677Y-36400499D01*
X59547740Y-36385966D01*
X59630601Y-36330601D01*
X59685966Y-36247740D01*
X59689471Y-36230115D01*
X59701043Y-36207992D01*
X59708774Y-36184252D01*
X59716958Y-36177567D01*
X59721856Y-36168206D01*
X59743552Y-36155850D01*
X59762891Y-36140058D01*
X59773388Y-36138860D01*
X59782571Y-36133631D01*
X59807501Y-36134967D01*
X59832310Y-36132136D01*
X59847604Y-36137116D01*
G37*
%TD.AperFunction*%
%TA.AperFunction,Conductor*%
G36*
X85904117Y-31620184D02*
G01*
X85949872Y-31672988D01*
X85959816Y-31742146D01*
X85937396Y-31797383D01*
X85899473Y-31849580D01*
X85816657Y-31963566D01*
X85709433Y-32174003D01*
X85636446Y-32398631D01*
X85599500Y-32631902D01*
X85599500Y-32868097D01*
X85636446Y-33101368D01*
X85709433Y-33325996D01*
X85797716Y-33499260D01*
X85816657Y-33536433D01*
X85955483Y-33727510D01*
X86122490Y-33894517D01*
X86313567Y-34033343D01*
X86412991Y-34084002D01*
X86524003Y-34140566D01*
X86524005Y-34140566D01*
X86524008Y-34140568D01*
X86582527Y-34159582D01*
X86748631Y-34213553D01*
X86981903Y-34250500D01*
X86981908Y-34250500D01*
X87218097Y-34250500D01*
X87451368Y-34213553D01*
X87463589Y-34209582D01*
X87675992Y-34140568D01*
X87719205Y-34118549D01*
X87787872Y-34105653D01*
X87852613Y-34131928D01*
X87892871Y-34189034D01*
X87899500Y-34229034D01*
X87899500Y-36851074D01*
X87879815Y-36918113D01*
X87827011Y-36963868D01*
X87757853Y-36973812D01*
X87694297Y-36944787D01*
X87657846Y-36890234D01*
X87648615Y-36862500D01*
X87648613Y-36862496D01*
X87624634Y-36825185D01*
X87570825Y-36741457D01*
X87567844Y-36738017D01*
X87525076Y-36688659D01*
X87525072Y-36688656D01*
X87525070Y-36688653D01*
X87416336Y-36594433D01*
X87416333Y-36594431D01*
X87416331Y-36594430D01*
X87285465Y-36534664D01*
X87285460Y-36534662D01*
X87285459Y-36534662D01*
X87218420Y-36514977D01*
X87218422Y-36514977D01*
X87218417Y-36514976D01*
X87170944Y-36508150D01*
X87076000Y-36494500D01*
X87075998Y-36494500D01*
X84165697Y-36494500D01*
X84098658Y-36474815D01*
X84052903Y-36422011D01*
X84041740Y-36373762D01*
X84015215Y-35365838D01*
X84014230Y-35349166D01*
X84012748Y-35333051D01*
X84012747Y-35333037D01*
X84010675Y-35316458D01*
X84007690Y-35297609D01*
X84006526Y-35290259D01*
X84005000Y-35270864D01*
X84005000Y-34982565D01*
X84004978Y-34979309D01*
X84004978Y-34979267D01*
X84004935Y-34976005D01*
X84004869Y-34972652D01*
X83958589Y-33214017D01*
X83952102Y-33163146D01*
X83940939Y-33114897D01*
X83934439Y-33091802D01*
X83930552Y-33084976D01*
X83885111Y-33005177D01*
X83885110Y-33005176D01*
X83885108Y-33005172D01*
X83849317Y-32963867D01*
X83839356Y-32952371D01*
X83824478Y-32938015D01*
X83806579Y-32920743D01*
X83718244Y-32874535D01*
X83718243Y-32874534D01*
X83718242Y-32874534D01*
X83718242Y-32874533D01*
X83651210Y-32854851D01*
X83651198Y-32854848D01*
X83579221Y-32844500D01*
X83579220Y-32844500D01*
X80996600Y-32844500D01*
X80996597Y-32844500D01*
X80942287Y-32850338D01*
X80890781Y-32861543D01*
X80890772Y-32861546D01*
X80864407Y-32868779D01*
X80864396Y-32868783D01*
X80777781Y-32918105D01*
X80777773Y-32918111D01*
X80724971Y-32963863D01*
X80693343Y-32996640D01*
X80647134Y-33084977D01*
X80647133Y-33084977D01*
X80627451Y-33152009D01*
X80627448Y-33152021D01*
X80617100Y-33223998D01*
X80617100Y-33713722D01*
X80617249Y-33716752D01*
X80617200Y-33716754D01*
X80617600Y-33724884D01*
X80617600Y-33875112D01*
X80617201Y-33883240D01*
X80617249Y-33883243D01*
X80617100Y-33886273D01*
X80617100Y-35376002D01*
X80622938Y-35430312D01*
X80634143Y-35481818D01*
X80634146Y-35481827D01*
X80641379Y-35508192D01*
X80641383Y-35508203D01*
X80690705Y-35594818D01*
X80690710Y-35594825D01*
X80690712Y-35594828D01*
X80707614Y-35614334D01*
X80736463Y-35647628D01*
X80736466Y-35647631D01*
X80736467Y-35647632D01*
X80769241Y-35679257D01*
X80857576Y-35725465D01*
X80857577Y-35725465D01*
X80857577Y-35725466D01*
X80907705Y-35740184D01*
X80924615Y-35745150D01*
X80924619Y-35745150D01*
X80924621Y-35745151D01*
X80936252Y-35746823D01*
X80996600Y-35755500D01*
X81802887Y-35755500D01*
X81869926Y-35775185D01*
X81915681Y-35827989D01*
X81925625Y-35897147D01*
X81896600Y-35960703D01*
X81890568Y-35967181D01*
X81860145Y-35997603D01*
X81860142Y-35997608D01*
X81860141Y-35997609D01*
X81859031Y-35999788D01*
X81803981Y-36107827D01*
X81803981Y-36107828D01*
X81789500Y-36199264D01*
X81789500Y-36483454D01*
X81769815Y-36550493D01*
X81753182Y-36571135D01*
X81644527Y-36679790D01*
X81606983Y-36744819D01*
X81606969Y-36744846D01*
X81605321Y-36747701D01*
X81598386Y-36759712D01*
X81597239Y-36763992D01*
X81591671Y-36774949D01*
X81570872Y-36797015D01*
X81551844Y-36820627D01*
X81547145Y-36822190D01*
X81543749Y-36825794D01*
X81514318Y-36833114D01*
X81485548Y-36842689D01*
X81477736Y-36842214D01*
X81475945Y-36842660D01*
X81473956Y-36841984D01*
X81461735Y-36841242D01*
X81456691Y-36840443D01*
X81450735Y-36839500D01*
X81450733Y-36839500D01*
X81109260Y-36839500D01*
X81109260Y-36839501D01*
X81017829Y-36853981D01*
X81017828Y-36853981D01*
X80907607Y-36910142D01*
X80907603Y-36910145D01*
X80887681Y-36930068D01*
X80826358Y-36963553D01*
X80756666Y-36958569D01*
X80712319Y-36930068D01*
X80692396Y-36910145D01*
X80692393Y-36910143D01*
X80692391Y-36910141D01*
X80582175Y-36853983D01*
X80582174Y-36853982D01*
X80582171Y-36853981D01*
X80490735Y-36839500D01*
X80149260Y-36839500D01*
X80149260Y-36839501D01*
X80057829Y-36853981D01*
X80057828Y-36853981D01*
X79947607Y-36910142D01*
X79947603Y-36910145D01*
X79860145Y-36997603D01*
X79860140Y-36997610D01*
X79841759Y-37033685D01*
X79793784Y-37084480D01*
X79725963Y-37101275D01*
X79667120Y-37083503D01*
X79654239Y-37075715D01*
X79638015Y-37059491D01*
X79512485Y-36987016D01*
X79503581Y-36984630D01*
X79488713Y-36975641D01*
X79471203Y-36956518D01*
X79451015Y-36940252D01*
X79447991Y-36931169D01*
X79441528Y-36924111D01*
X79437136Y-36898561D01*
X79428947Y-36873959D01*
X79430522Y-36860079D01*
X79429693Y-36855251D01*
X79431574Y-36850811D01*
X79433093Y-36837436D01*
X79450500Y-36772475D01*
X79450500Y-36627525D01*
X79412984Y-36487515D01*
X79410639Y-36483454D01*
X79340511Y-36361988D01*
X79340506Y-36361982D01*
X79238017Y-36259493D01*
X79238011Y-36259488D01*
X79112488Y-36187017D01*
X79112489Y-36187017D01*
X79077139Y-36177545D01*
X78972475Y-36149500D01*
X78827525Y-36149500D01*
X78722861Y-36177545D01*
X78687511Y-36187017D01*
X78555475Y-36263249D01*
X78487575Y-36279722D01*
X78421548Y-36256870D01*
X78405794Y-36243543D01*
X78402396Y-36240145D01*
X78402393Y-36240143D01*
X78402391Y-36240141D01*
X78292175Y-36183983D01*
X78292174Y-36183982D01*
X78292171Y-36183981D01*
X78200735Y-36169500D01*
X77799260Y-36169500D01*
X77799260Y-36169501D01*
X77707829Y-36183981D01*
X77707828Y-36183981D01*
X77597607Y-36240142D01*
X77597603Y-36240145D01*
X77574568Y-36263181D01*
X77513245Y-36296666D01*
X77486887Y-36299500D01*
X77231876Y-36299500D01*
X77179471Y-36287882D01*
X77110545Y-36255741D01*
X77110543Y-36255740D01*
X77110544Y-36255740D01*
X77063139Y-36249500D01*
X75661867Y-36249500D01*
X75649007Y-36251193D01*
X75614455Y-36255741D01*
X75614453Y-36255742D01*
X75614450Y-36255742D01*
X75585541Y-36269223D01*
X75516463Y-36279714D01*
X75452680Y-36251193D01*
X75423900Y-36215518D01*
X75417090Y-36202841D01*
X75412984Y-36187515D01*
X75353715Y-36084859D01*
X75352821Y-36083194D01*
X75346008Y-36050807D01*
X75338199Y-36018617D01*
X75338658Y-36015866D01*
X75338439Y-36014821D01*
X75339142Y-36012974D01*
X75343015Y-35989808D01*
X75344254Y-35985554D01*
X75344259Y-35985545D01*
X75350500Y-35938139D01*
X75350499Y-34536862D01*
X75344259Y-34489455D01*
X75295747Y-34385421D01*
X75214579Y-34304253D01*
X75110545Y-34255741D01*
X75110543Y-34255740D01*
X75110544Y-34255740D01*
X75063140Y-34249500D01*
X74836868Y-34249500D01*
X74829272Y-34250500D01*
X74789455Y-34255741D01*
X74789453Y-34255742D01*
X74789451Y-34255742D01*
X74752403Y-34273018D01*
X74751394Y-34273171D01*
X74750620Y-34273832D01*
X74716945Y-34278403D01*
X74683325Y-34283509D01*
X74682061Y-34283138D01*
X74681385Y-34283230D01*
X74647600Y-34273020D01*
X74647596Y-34273018D01*
X74633892Y-34266628D01*
X74581454Y-34220459D01*
X74562299Y-34153267D01*
X74582512Y-34086385D01*
X74598609Y-34066568D01*
X74653076Y-34012102D01*
X74653077Y-34012098D01*
X74659044Y-34003743D01*
X74662091Y-34005918D01*
X74696350Y-33968441D01*
X74760596Y-33950500D01*
X75046064Y-33950500D01*
X75108063Y-33967112D01*
X75187515Y-34012984D01*
X75327525Y-34050500D01*
X75327528Y-34050500D01*
X75472472Y-34050500D01*
X75472475Y-34050500D01*
X75612485Y-34012984D01*
X75738015Y-33940509D01*
X75840509Y-33838015D01*
X75912984Y-33712485D01*
X75950500Y-33572475D01*
X75950500Y-33427525D01*
X75912984Y-33287515D01*
X75876313Y-33224000D01*
X75840511Y-33161988D01*
X75840506Y-33161982D01*
X75816205Y-33137681D01*
X75782720Y-33076358D01*
X75787704Y-33006666D01*
X75816205Y-32962319D01*
X75828024Y-32950500D01*
X75840509Y-32938015D01*
X75912984Y-32812485D01*
X75950500Y-32672475D01*
X75950500Y-32527525D01*
X75912984Y-32387515D01*
X75901312Y-32367299D01*
X75840511Y-32261988D01*
X75840506Y-32261982D01*
X75738017Y-32159493D01*
X75738011Y-32159488D01*
X75612488Y-32087017D01*
X75612489Y-32087017D01*
X75601006Y-32083940D01*
X75472475Y-32049500D01*
X75327525Y-32049500D01*
X75198993Y-32083940D01*
X75187511Y-32087017D01*
X75061988Y-32159488D01*
X75061982Y-32159493D01*
X75008295Y-32213181D01*
X74981367Y-32227884D01*
X74955549Y-32244477D01*
X74949348Y-32245368D01*
X74946972Y-32246666D01*
X74920614Y-32249500D01*
X74760596Y-32249500D01*
X74693557Y-32229815D01*
X74661884Y-32194229D01*
X74659044Y-32196257D01*
X74653074Y-32187895D01*
X74562102Y-32096923D01*
X74562099Y-32096921D01*
X74446521Y-32040419D01*
X74446519Y-32040418D01*
X74446518Y-32040418D01*
X74371582Y-32029500D01*
X74028418Y-32029500D01*
X73953482Y-32040418D01*
X73953480Y-32040418D01*
X73953478Y-32040419D01*
X73837900Y-32096921D01*
X73837897Y-32096923D01*
X73777681Y-32157140D01*
X73716358Y-32190625D01*
X73646666Y-32185641D01*
X73602319Y-32157140D01*
X73542102Y-32096923D01*
X73542099Y-32096921D01*
X73426521Y-32040419D01*
X73426519Y-32040418D01*
X73426518Y-32040418D01*
X73351582Y-32029500D01*
X73008418Y-32029500D01*
X72933482Y-32040418D01*
X72933480Y-32040418D01*
X72933478Y-32040419D01*
X72817900Y-32096921D01*
X72817897Y-32096923D01*
X72726923Y-32187897D01*
X72726921Y-32187900D01*
X72670419Y-32303478D01*
X72670418Y-32303480D01*
X72670418Y-32303482D01*
X72659500Y-32378418D01*
X72659500Y-32378423D01*
X72659500Y-32573456D01*
X72639815Y-32640495D01*
X72623181Y-32661137D01*
X71681540Y-33602777D01*
X71620217Y-33636262D01*
X71550525Y-33631278D01*
X71494592Y-33589406D01*
X71473378Y-33532531D01*
X71471146Y-33532857D01*
X71470500Y-33528423D01*
X71470500Y-33528418D01*
X71459582Y-33453482D01*
X71446892Y-33427525D01*
X71403078Y-33337900D01*
X71403076Y-33337897D01*
X71312102Y-33246923D01*
X71312099Y-33246921D01*
X71196521Y-33190419D01*
X71196519Y-33190418D01*
X71196518Y-33190418D01*
X71121582Y-33179500D01*
X70678418Y-33179500D01*
X70603482Y-33190418D01*
X70603480Y-33190418D01*
X70603478Y-33190419D01*
X70487900Y-33246921D01*
X70487897Y-33246923D01*
X70396923Y-33337897D01*
X70396921Y-33337900D01*
X70340419Y-33453478D01*
X70340418Y-33453480D01*
X70340418Y-33453482D01*
X70329500Y-33528418D01*
X70329500Y-33871582D01*
X70340418Y-33946518D01*
X70340418Y-33946519D01*
X70340419Y-33946521D01*
X70401436Y-34071334D01*
X70399076Y-34072487D01*
X70417021Y-34124126D01*
X70400634Y-34192047D01*
X70350128Y-34240326D01*
X70309355Y-34253121D01*
X70289457Y-34255740D01*
X70289451Y-34255742D01*
X70185420Y-34304253D01*
X70104253Y-34385420D01*
X70062382Y-34475213D01*
X70054344Y-34484341D01*
X70050247Y-34495790D01*
X70031686Y-34510073D01*
X70016209Y-34527652D01*
X70004514Y-34530985D01*
X69994876Y-34538403D01*
X69971538Y-34540384D01*
X69949016Y-34546804D01*
X69937374Y-34543285D01*
X69925257Y-34544314D01*
X69904553Y-34533364D01*
X69882135Y-34526588D01*
X69872716Y-34516526D01*
X69863494Y-34511649D01*
X69848853Y-34491033D01*
X69841968Y-34483678D01*
X69839631Y-34479530D01*
X69795747Y-34385421D01*
X69774805Y-34364479D01*
X69766468Y-34349682D01*
X69762264Y-34331524D01*
X69753334Y-34315170D01*
X69750500Y-34288812D01*
X69750500Y-34233858D01*
X69750500Y-34233856D01*
X69726614Y-34144712D01*
X69709337Y-34114788D01*
X69709336Y-34114786D01*
X69709336Y-34114785D01*
X69680472Y-34064791D01*
X69680468Y-34064786D01*
X69386818Y-33771136D01*
X69353333Y-33709813D01*
X69350499Y-33683455D01*
X69350499Y-33499260D01*
X69336018Y-33407829D01*
X69336018Y-33407828D01*
X69336017Y-33407826D01*
X69336017Y-33407825D01*
X69279859Y-33297609D01*
X69279857Y-33297607D01*
X69279854Y-33297603D01*
X69192396Y-33210145D01*
X69192393Y-33210143D01*
X69192391Y-33210141D01*
X69082175Y-33153983D01*
X69082174Y-33153982D01*
X69082171Y-33153981D01*
X68990735Y-33139500D01*
X68806544Y-33139500D01*
X68777103Y-33130855D01*
X68747117Y-33124332D01*
X68742101Y-33120577D01*
X68739505Y-33119815D01*
X68718863Y-33103181D01*
X68686674Y-33070992D01*
X68653189Y-33009669D01*
X68658173Y-32939977D01*
X68675088Y-32909000D01*
X68684432Y-32896518D01*
X68696628Y-32880226D01*
X68744412Y-32752114D01*
X68746687Y-32730944D01*
X68750499Y-32695501D01*
X68750499Y-32695490D01*
X68750500Y-32695485D01*
X68750499Y-32104516D01*
X68746254Y-32065025D01*
X68744412Y-32047885D01*
X68712962Y-31963566D01*
X68696628Y-31919774D01*
X68614687Y-31810313D01*
X68614685Y-31810311D01*
X68609372Y-31803214D01*
X68610994Y-31801999D01*
X68583069Y-31750857D01*
X68588053Y-31681165D01*
X68629925Y-31625232D01*
X68695389Y-31600815D01*
X68704235Y-31600499D01*
X85837078Y-31600499D01*
X85904117Y-31620184D01*
G37*
%TD.AperFunction*%
%TD*%
M02*
