%TF.GenerationSoftware,KiCad,Pcbnew,9.0.4*%
%TF.CreationDate,2026-03-07T21:10:18-05:00*%
%TF.ProjectId,SERVO-ESC,53455256-4f2d-4455-9343-2e6b69636164,rev?*%
%TF.SameCoordinates,Original*%
%TF.FileFunction,Copper,L3,Inr*%
%TF.FilePolarity,Positive*%
%FSLAX46Y46*%
G04 Gerber Fmt 4.6, Leading zero omitted, Abs format (unit mm)*
G04 Created by KiCad (PCBNEW 9.0.4) date 2026-03-07 21:10:18*
%MOMM*%
%LPD*%
G01*
G04 APERTURE LIST*
G04 Aperture macros list*
%AMRoundRect*
0 Rectangle with rounded corners*
0 $1 Rounding radius*
0 $2 $3 $4 $5 $6 $7 $8 $9 X,Y pos of 4 corners*
0 Add a 4 corners polygon primitive as box body*
4,1,4,$2,$3,$4,$5,$6,$7,$8,$9,$2,$3,0*
0 Add four circle primitives for the rounded corners*
1,1,$1+$1,$2,$3*
1,1,$1+$1,$4,$5*
1,1,$1+$1,$6,$7*
1,1,$1+$1,$8,$9*
0 Add four rect primitives between the rounded corners*
20,1,$1+$1,$2,$3,$4,$5,0*
20,1,$1+$1,$4,$5,$6,$7,0*
20,1,$1+$1,$6,$7,$8,$9,0*
20,1,$1+$1,$8,$9,$2,$3,0*%
G04 Aperture macros list end*
%TA.AperFunction,ComponentPad*%
%ADD10RoundRect,0.250000X-0.550000X-0.550000X0.550000X-0.550000X0.550000X0.550000X-0.550000X0.550000X0*%
%TD*%
%TA.AperFunction,ComponentPad*%
%ADD11R,1.700000X1.700000*%
%TD*%
%TA.AperFunction,ComponentPad*%
%ADD12C,1.700000*%
%TD*%
%TA.AperFunction,ComponentPad*%
%ADD13RoundRect,0.250000X0.350000X0.350000X-0.350000X0.350000X-0.350000X-0.350000X0.350000X-0.350000X0*%
%TD*%
%TA.AperFunction,ComponentPad*%
%ADD14C,1.200000*%
%TD*%
%TA.AperFunction,ViaPad*%
%ADD15C,0.600000*%
%TD*%
%TA.AperFunction,Conductor*%
%ADD16C,1.000000*%
%TD*%
G04 APERTURE END LIST*
D10*
%TO.N,HBRIDGE+*%
%TO.C,-*%
X85900000Y-44700000D03*
%TD*%
D11*
%TO.N,GND*%
%TO.C,J1*%
X51400000Y-44110000D03*
D12*
%TO.N,UART-TX*%
X51400000Y-41570000D03*
%TO.N,UART-RX*%
X51400000Y-39030000D03*
%TO.N,+SV*%
X51400000Y-36490000D03*
%TD*%
D13*
%TO.N,+7V*%
%TO.C,C11*%
X81522600Y-33800000D03*
D14*
%TO.N,GND*%
X80022600Y-33800000D03*
%TD*%
D10*
%TO.N,HBRIDGE-*%
%TO.C,+*%
X85800000Y-39400000D03*
%TD*%
D11*
%TO.N,I2C-SDA-3*%
%TO.C,J4*%
X68880000Y-48000000D03*
D12*
%TO.N,I2C-SCL-3*%
X71420000Y-48000000D03*
%TO.N,GND*%
X73960000Y-48000000D03*
%TO.N,+3.3V*%
X76500000Y-48000000D03*
%TD*%
D11*
%TO.N,SWCLK*%
%TO.C,J2*%
X64600000Y-32625000D03*
D12*
%TO.N,SWDIO*%
X62060000Y-32625000D03*
%TO.N,GND*%
X59520000Y-32625000D03*
%TO.N,+3.3V*%
X56980000Y-32625000D03*
%TD*%
D15*
%TO.N,+3.3V*%
X81250000Y-48500000D03*
%TO.N,TMP102-INT*%
X69675000Y-40425000D03*
X62676758Y-40907184D03*
%TO.N,GND*%
X53600000Y-47900000D03*
X82100000Y-47900000D03*
X79250000Y-48500000D03*
X87000000Y-41700000D03*
X78500000Y-48500000D03*
X54300000Y-47200000D03*
X66000000Y-34750000D03*
X66250000Y-43500000D03*
X84900000Y-41700000D03*
X86300000Y-42500000D03*
X55700000Y-47200000D03*
X85600000Y-41700000D03*
X63500000Y-44000000D03*
X71800000Y-33000000D03*
X55700000Y-48600000D03*
X61750000Y-41500000D03*
X55700000Y-46500000D03*
X85600000Y-42500000D03*
X78250000Y-38500000D03*
X54300000Y-46500000D03*
X74500000Y-42250000D03*
X63500000Y-43250000D03*
X53600000Y-48600000D03*
X56400000Y-48600000D03*
X58100000Y-39200000D03*
X55000000Y-47200000D03*
X55000000Y-48600000D03*
X55700000Y-47900000D03*
X56400000Y-46500000D03*
X57500000Y-36700000D03*
X66400000Y-40100000D03*
X54300000Y-47900000D03*
X55000000Y-47900000D03*
X84900000Y-42500000D03*
X86300000Y-41700000D03*
X62200000Y-34600000D03*
X55000000Y-46500000D03*
X78500000Y-47750000D03*
X67000000Y-43000000D03*
X83900000Y-47900000D03*
X87000000Y-42500000D03*
X54300000Y-48600000D03*
X53600000Y-46500000D03*
X63500000Y-44750000D03*
X56400000Y-47900000D03*
X56400000Y-47200000D03*
X80000000Y-48500000D03*
X53600000Y-47200000D03*
%TO.N,I2C-SCL-1*%
X57700000Y-37600000D03*
X72100000Y-37650000D03*
%TO.N,I2C-SDA-1*%
X60200000Y-35700000D03*
X71850000Y-36600000D03*
%TO.N,+3.3V*%
X79300000Y-37500000D03*
X57700000Y-41500000D03*
X75400000Y-32600000D03*
X58400000Y-40100000D03*
X68600000Y-34900000D03*
X63500000Y-42250000D03*
X61100000Y-34600000D03*
X57000000Y-40100000D03*
X59100000Y-40100000D03*
X58400000Y-41500000D03*
X56250000Y-40100000D03*
X75750000Y-45750000D03*
X75400000Y-33500000D03*
X58400000Y-40800000D03*
X59100000Y-40800000D03*
X57000000Y-40800000D03*
X56200000Y-40800000D03*
X57700000Y-40800000D03*
X59100000Y-41500000D03*
X57700000Y-40100000D03*
X84800000Y-48600000D03*
X78900000Y-36700000D03*
%TO.N,RGB-LED-RED*%
X69274690Y-42250001D03*
X66600000Y-48400000D03*
%TO.N,HBRIDGE-FAULT*%
X74250000Y-46000000D03*
X80100000Y-47350000D03*
%TO.N,HBRIDGE-VREF*%
X82100000Y-46800000D03*
X71750000Y-45700000D03*
%TO.N,+7V*%
X54900000Y-41300000D03*
X54900000Y-40600000D03*
X54900000Y-39900000D03*
X54200000Y-40600000D03*
X54200000Y-39900000D03*
X53500000Y-39900000D03*
X53500000Y-40600000D03*
X53500000Y-41300000D03*
%TO.N,HBRIDGE-IPROPI*%
X73389028Y-44800000D03*
X83900000Y-47100000D03*
%TO.N,SWDIO*%
X75100000Y-37500000D03*
%TO.N,SWCLK*%
X74900000Y-36400000D03*
%TO.N,INA236-INT*%
X71050000Y-36797914D03*
X57700000Y-35900000D03*
%TO.N,UART-RX*%
X74700000Y-39000000D03*
%TO.N,UART-TX*%
X73250000Y-39500000D03*
%TO.N,I2C-SCL-3*%
X73500000Y-40750000D03*
%TO.N,I2C-SDA-3*%
X71750000Y-41000000D03*
%TD*%
D16*
%TO.N,+7V*%
X56850000Y-43250000D02*
X76150000Y-43250000D01*
X76150000Y-43250000D02*
X81522600Y-37877400D01*
X81522600Y-37877400D02*
X81522600Y-33800000D01*
X54200000Y-39900000D02*
X54200000Y-41300000D01*
X54200000Y-40600000D02*
X56850000Y-43250000D01*
X54900000Y-39900000D02*
X54900000Y-41300000D01*
X53500000Y-39900000D02*
X53500000Y-41300000D01*
%TD*%
%TA.AperFunction,Conductor*%
%TO.N,+3.3V*%
G36*
X58755836Y-31620184D02*
G01*
X58801591Y-31672988D01*
X58811535Y-31742146D01*
X58782510Y-31805702D01*
X58776478Y-31812180D01*
X58680588Y-31908069D01*
X58680588Y-31908070D01*
X58680586Y-31908072D01*
X58640267Y-31963566D01*
X58578768Y-32048211D01*
X58500128Y-32202552D01*
X58446597Y-32367302D01*
X58419500Y-32538389D01*
X58419500Y-32711610D01*
X58435906Y-32815198D01*
X58446598Y-32882701D01*
X58500127Y-33047445D01*
X58578768Y-33201788D01*
X58680586Y-33341928D01*
X58803072Y-33464414D01*
X58943212Y-33566232D01*
X59097555Y-33644873D01*
X59262299Y-33698402D01*
X59433389Y-33725500D01*
X59433390Y-33725500D01*
X59606610Y-33725500D01*
X59606611Y-33725500D01*
X59777701Y-33698402D01*
X59942445Y-33644873D01*
X60096788Y-33566232D01*
X60236928Y-33464414D01*
X60359414Y-33341928D01*
X60461232Y-33201788D01*
X60539873Y-33047445D01*
X60593402Y-32882701D01*
X60620500Y-32711611D01*
X60620500Y-32538389D01*
X60593402Y-32367299D01*
X60539873Y-32202555D01*
X60461232Y-32048212D01*
X60359414Y-31908072D01*
X60263522Y-31812180D01*
X60230037Y-31750857D01*
X60235021Y-31681165D01*
X60276893Y-31625232D01*
X60342357Y-31600815D01*
X60351203Y-31600499D01*
X61228797Y-31600499D01*
X61295836Y-31620184D01*
X61341591Y-31672988D01*
X61351535Y-31742146D01*
X61322510Y-31805702D01*
X61316478Y-31812180D01*
X61220588Y-31908069D01*
X61220588Y-31908070D01*
X61220586Y-31908072D01*
X61180267Y-31963566D01*
X61118768Y-32048211D01*
X61040128Y-32202552D01*
X60986597Y-32367302D01*
X60959500Y-32538389D01*
X60959500Y-32711610D01*
X60975906Y-32815198D01*
X60986598Y-32882701D01*
X61040127Y-33047445D01*
X61118768Y-33201788D01*
X61220586Y-33341928D01*
X61343072Y-33464414D01*
X61483212Y-33566232D01*
X61637555Y-33644873D01*
X61802299Y-33698402D01*
X61973389Y-33725500D01*
X61973390Y-33725500D01*
X62146610Y-33725500D01*
X62146611Y-33725500D01*
X62317701Y-33698402D01*
X62482445Y-33644873D01*
X62636788Y-33566232D01*
X62776928Y-33464414D01*
X62899414Y-33341928D01*
X63001232Y-33201788D01*
X63079873Y-33047445D01*
X63133402Y-32882701D01*
X63160500Y-32711611D01*
X63160500Y-32538389D01*
X63133402Y-32367299D01*
X63079873Y-32202555D01*
X63001232Y-32048212D01*
X62899414Y-31908072D01*
X62803522Y-31812180D01*
X62770037Y-31750857D01*
X62775021Y-31681165D01*
X62816893Y-31625232D01*
X62882357Y-31600815D01*
X62891203Y-31600499D01*
X63378208Y-31600499D01*
X63445247Y-31620184D01*
X63491002Y-31672988D01*
X63500946Y-31742146D01*
X63499825Y-31748694D01*
X63499500Y-31750327D01*
X63499500Y-33499678D01*
X63514032Y-33572735D01*
X63514033Y-33572739D01*
X63514034Y-33572740D01*
X63569399Y-33655601D01*
X63652260Y-33710966D01*
X63652264Y-33710967D01*
X63725321Y-33725499D01*
X63725324Y-33725500D01*
X63725326Y-33725500D01*
X65474676Y-33725500D01*
X65474677Y-33725499D01*
X65547740Y-33710966D01*
X65630601Y-33655601D01*
X65685966Y-33572740D01*
X65700500Y-33499674D01*
X65700500Y-32927525D01*
X71249500Y-32927525D01*
X71249500Y-33072475D01*
X71273284Y-33161236D01*
X71287017Y-33212488D01*
X71359488Y-33338011D01*
X71359490Y-33338013D01*
X71359491Y-33338015D01*
X71461985Y-33440509D01*
X71461986Y-33440510D01*
X71461988Y-33440511D01*
X71587511Y-33512982D01*
X71587512Y-33512982D01*
X71587515Y-33512984D01*
X71727525Y-33550500D01*
X71727528Y-33550500D01*
X71872472Y-33550500D01*
X71872475Y-33550500D01*
X72012485Y-33512984D01*
X72138015Y-33440509D01*
X72240509Y-33338015D01*
X72312984Y-33212485D01*
X72350500Y-33072475D01*
X72350500Y-32927525D01*
X72312984Y-32787515D01*
X72253682Y-32684802D01*
X72240511Y-32661988D01*
X72240506Y-32661982D01*
X72138017Y-32559493D01*
X72138011Y-32559488D01*
X72012488Y-32487017D01*
X72012489Y-32487017D01*
X72001006Y-32483940D01*
X71872475Y-32449500D01*
X71727525Y-32449500D01*
X71598993Y-32483940D01*
X71587511Y-32487017D01*
X71461988Y-32559488D01*
X71461982Y-32559493D01*
X71359493Y-32661982D01*
X71359488Y-32661988D01*
X71287017Y-32787511D01*
X71287016Y-32787515D01*
X71249500Y-32927525D01*
X65700500Y-32927525D01*
X65700500Y-31750326D01*
X65700175Y-31748692D01*
X65700253Y-31747818D01*
X65699903Y-31744261D01*
X65700577Y-31744194D01*
X65706401Y-31679103D01*
X65749262Y-31623924D01*
X65815151Y-31600677D01*
X65821792Y-31600499D01*
X85837078Y-31600499D01*
X85904117Y-31620184D01*
X85949872Y-31672988D01*
X85959816Y-31742146D01*
X85937396Y-31797383D01*
X85899473Y-31849580D01*
X85816657Y-31963566D01*
X85709433Y-32174003D01*
X85636446Y-32398631D01*
X85599500Y-32631902D01*
X85599500Y-32868097D01*
X85636446Y-33101368D01*
X85709433Y-33325996D01*
X85797927Y-33499674D01*
X85816657Y-33536433D01*
X85955483Y-33727510D01*
X86122490Y-33894517D01*
X86313567Y-34033343D01*
X86412991Y-34084002D01*
X86524003Y-34140566D01*
X86524005Y-34140566D01*
X86524008Y-34140568D01*
X86644412Y-34179689D01*
X86748631Y-34213553D01*
X86981903Y-34250500D01*
X86981908Y-34250500D01*
X87218097Y-34250500D01*
X87451368Y-34213553D01*
X87484268Y-34202863D01*
X87675992Y-34140568D01*
X87719205Y-34118549D01*
X87787872Y-34105653D01*
X87852613Y-34131928D01*
X87892871Y-34189034D01*
X87899500Y-34229034D01*
X87899500Y-46520964D01*
X87879815Y-46588003D01*
X87827011Y-46633758D01*
X87757853Y-46643702D01*
X87719207Y-46631450D01*
X87675996Y-46609434D01*
X87675995Y-46609433D01*
X87675992Y-46609432D01*
X87583477Y-46579372D01*
X87451368Y-46536446D01*
X87218097Y-46499500D01*
X87218092Y-46499500D01*
X86981908Y-46499500D01*
X86981903Y-46499500D01*
X86748631Y-46536446D01*
X86524003Y-46609433D01*
X86313566Y-46716657D01*
X86251174Y-46761988D01*
X86122490Y-46855483D01*
X86122488Y-46855485D01*
X86122487Y-46855485D01*
X85955485Y-47022487D01*
X85955485Y-47022488D01*
X85955483Y-47022490D01*
X85895862Y-47104550D01*
X85816657Y-47213566D01*
X85709433Y-47424003D01*
X85636446Y-47648631D01*
X85599500Y-47881902D01*
X85599500Y-48118097D01*
X85636446Y-48351368D01*
X85709433Y-48575996D01*
X85816656Y-48786432D01*
X85828414Y-48802615D01*
X85851893Y-48868422D01*
X85836067Y-48936476D01*
X85785961Y-48985170D01*
X85728095Y-48999500D01*
X80562050Y-48999500D01*
X80495011Y-48979815D01*
X80449256Y-48927011D01*
X80439312Y-48857853D01*
X80454663Y-48813500D01*
X80498244Y-48738015D01*
X80512984Y-48712485D01*
X80550500Y-48572475D01*
X80550500Y-48427525D01*
X80512984Y-48287515D01*
X80498244Y-48261985D01*
X80440511Y-48161988D01*
X80440506Y-48161982D01*
X80338017Y-48059493D01*
X80338015Y-48059491D01*
X80338012Y-48059489D01*
X80331566Y-48054543D01*
X80332948Y-48052741D01*
X80292845Y-48010670D01*
X80279633Y-47942061D01*
X80305611Y-47877200D01*
X80341068Y-47846481D01*
X80438015Y-47790509D01*
X80540509Y-47688015D01*
X80612984Y-47562485D01*
X80650500Y-47422475D01*
X80650500Y-47277525D01*
X80612984Y-47137515D01*
X80607217Y-47127527D01*
X80540511Y-47011988D01*
X80540506Y-47011982D01*
X80438017Y-46909493D01*
X80438011Y-46909488D01*
X80312490Y-46837018D01*
X80312487Y-46837017D01*
X80312485Y-46837016D01*
X80172475Y-46799500D01*
X80027525Y-46799500D01*
X79898993Y-46833940D01*
X79887511Y-46837017D01*
X79761988Y-46909488D01*
X79761982Y-46909493D01*
X79659493Y-47011982D01*
X79659488Y-47011988D01*
X79587017Y-47137511D01*
X79587016Y-47137515D01*
X79549500Y-47277525D01*
X79549500Y-47422475D01*
X79587016Y-47562485D01*
X79587017Y-47562488D01*
X79659488Y-47688011D01*
X79659490Y-47688013D01*
X79659491Y-47688015D01*
X79761985Y-47790509D01*
X79761987Y-47790510D01*
X79767297Y-47794584D01*
X79768855Y-47795124D01*
X79786951Y-47818135D01*
X79807149Y-47839321D01*
X79808296Y-47845277D01*
X79812046Y-47850045D01*
X79814828Y-47879180D01*
X79820367Y-47907929D01*
X79818111Y-47913561D01*
X79818688Y-47919598D01*
X79805277Y-47945611D01*
X79794394Y-47972791D01*
X79788741Y-47977688D01*
X79786673Y-47981701D01*
X79758930Y-48003519D01*
X79687001Y-48045048D01*
X79619101Y-48061521D01*
X79563000Y-48045048D01*
X79462488Y-47987017D01*
X79462489Y-47987017D01*
X79442649Y-47981701D01*
X79322475Y-47949500D01*
X79177525Y-47949500D01*
X79174500Y-47949500D01*
X79107461Y-47929815D01*
X79061706Y-47877011D01*
X79050500Y-47825500D01*
X79050500Y-47677527D01*
X79050500Y-47677525D01*
X79012984Y-47537515D01*
X78994080Y-47504773D01*
X78940511Y-47411988D01*
X78940506Y-47411982D01*
X78838017Y-47309493D01*
X78838011Y-47309488D01*
X78712488Y-47237017D01*
X78712489Y-47237017D01*
X78701006Y-47233940D01*
X78572475Y-47199500D01*
X78427525Y-47199500D01*
X78298993Y-47233940D01*
X78287511Y-47237017D01*
X78161988Y-47309488D01*
X78161982Y-47309493D01*
X78059493Y-47411982D01*
X78059488Y-47411988D01*
X77987017Y-47537511D01*
X77987016Y-47537515D01*
X77949500Y-47677525D01*
X77949500Y-47822475D01*
X77982495Y-47945611D01*
X77987017Y-47962488D01*
X78045048Y-48063000D01*
X78061521Y-48130900D01*
X78045048Y-48187000D01*
X77987017Y-48287511D01*
X77987016Y-48287515D01*
X77949500Y-48427525D01*
X77949500Y-48572475D01*
X77987016Y-48712485D01*
X77987017Y-48712488D01*
X78045337Y-48813500D01*
X78061810Y-48881400D01*
X78038958Y-48947427D01*
X77984037Y-48990617D01*
X77937950Y-48999500D01*
X74816204Y-48999500D01*
X74749165Y-48979815D01*
X74703410Y-48927011D01*
X74693466Y-48857853D01*
X74722491Y-48794297D01*
X74728523Y-48787819D01*
X74729910Y-48786432D01*
X74799414Y-48716928D01*
X74901232Y-48576788D01*
X74979873Y-48422445D01*
X75033402Y-48257701D01*
X75060500Y-48086611D01*
X75060500Y-47913389D01*
X75033402Y-47742299D01*
X74979873Y-47577555D01*
X74901232Y-47423212D01*
X74799414Y-47283072D01*
X74676928Y-47160586D01*
X74536788Y-47058768D01*
X74382445Y-46980127D01*
X74217701Y-46926598D01*
X74217699Y-46926597D01*
X74217698Y-46926597D01*
X74086271Y-46905781D01*
X74046611Y-46899500D01*
X73873389Y-46899500D01*
X73833728Y-46905781D01*
X73702302Y-46926597D01*
X73537552Y-46980128D01*
X73383211Y-47058768D01*
X73303256Y-47116859D01*
X73243072Y-47160586D01*
X73243070Y-47160588D01*
X73243069Y-47160588D01*
X73120588Y-47283069D01*
X73120588Y-47283070D01*
X73120586Y-47283072D01*
X73084874Y-47332225D01*
X73018768Y-47423211D01*
X72940128Y-47577552D01*
X72940127Y-47577554D01*
X72940127Y-47577555D01*
X72913362Y-47659927D01*
X72886597Y-47742302D01*
X72873099Y-47827527D01*
X72859500Y-47913389D01*
X72859500Y-48086611D01*
X72863598Y-48112485D01*
X72875481Y-48187515D01*
X72886598Y-48257701D01*
X72940127Y-48422445D01*
X73018768Y-48576788D01*
X73120586Y-48716928D01*
X73120588Y-48716930D01*
X73191477Y-48787819D01*
X73224962Y-48849142D01*
X73219978Y-48918834D01*
X73178106Y-48974767D01*
X73112642Y-48999184D01*
X73103796Y-48999500D01*
X72276204Y-48999500D01*
X72209165Y-48979815D01*
X72163410Y-48927011D01*
X72153466Y-48857853D01*
X72182491Y-48794297D01*
X72188523Y-48787819D01*
X72189910Y-48786432D01*
X72259414Y-48716928D01*
X72361232Y-48576788D01*
X72439873Y-48422445D01*
X72493402Y-48257701D01*
X72520500Y-48086611D01*
X72520500Y-47913389D01*
X72493402Y-47742299D01*
X72439873Y-47577555D01*
X72361232Y-47423212D01*
X72259414Y-47283072D01*
X72136928Y-47160586D01*
X71996788Y-47058768D01*
X71842445Y-46980127D01*
X71677701Y-46926598D01*
X71677699Y-46926597D01*
X71677698Y-46926597D01*
X71546271Y-46905781D01*
X71506611Y-46899500D01*
X71333389Y-46899500D01*
X71293728Y-46905781D01*
X71162302Y-46926597D01*
X70997552Y-46980128D01*
X70843211Y-47058768D01*
X70763256Y-47116859D01*
X70703072Y-47160586D01*
X70703070Y-47160588D01*
X70703069Y-47160588D01*
X70580588Y-47283069D01*
X70580588Y-47283070D01*
X70580586Y-47283072D01*
X70544874Y-47332225D01*
X70478768Y-47423211D01*
X70400128Y-47577552D01*
X70400127Y-47577554D01*
X70400127Y-47577555D01*
X70373362Y-47659927D01*
X70346597Y-47742302D01*
X70333099Y-47827527D01*
X70319500Y-47913389D01*
X70319500Y-48086611D01*
X70323598Y-48112485D01*
X70335481Y-48187515D01*
X70346598Y-48257701D01*
X70400127Y-48422445D01*
X70478768Y-48576788D01*
X70580586Y-48716928D01*
X70580588Y-48716930D01*
X70651477Y-48787819D01*
X70684962Y-48849142D01*
X70679978Y-48918834D01*
X70638106Y-48974767D01*
X70572642Y-48999184D01*
X70563796Y-48999500D01*
X70104500Y-48999500D01*
X70037461Y-48979815D01*
X69991706Y-48927011D01*
X69980500Y-48875500D01*
X69980500Y-47125323D01*
X69980499Y-47125321D01*
X69965967Y-47052264D01*
X69965966Y-47052260D01*
X69949439Y-47027525D01*
X69910601Y-46969399D01*
X69827740Y-46914034D01*
X69827739Y-46914033D01*
X69827735Y-46914032D01*
X69754677Y-46899500D01*
X69754674Y-46899500D01*
X68005326Y-46899500D01*
X68005323Y-46899500D01*
X67932264Y-46914032D01*
X67932260Y-46914033D01*
X67849399Y-46969399D01*
X67794033Y-47052260D01*
X67794032Y-47052264D01*
X67779500Y-47125321D01*
X67779500Y-48875500D01*
X67759815Y-48942539D01*
X67707011Y-48988294D01*
X67655500Y-48999500D01*
X67078386Y-48999500D01*
X67011347Y-48979815D01*
X66965592Y-48927011D01*
X66955648Y-48857853D01*
X66984673Y-48794297D01*
X66990705Y-48787819D01*
X66992092Y-48786432D01*
X67040509Y-48738015D01*
X67112984Y-48612485D01*
X67150500Y-48472475D01*
X67150500Y-48327525D01*
X67112984Y-48187515D01*
X67098244Y-48161985D01*
X67040511Y-48061988D01*
X67040506Y-48061982D01*
X66938017Y-47959493D01*
X66938011Y-47959488D01*
X66812488Y-47887017D01*
X66812489Y-47887017D01*
X66793422Y-47881908D01*
X66672475Y-47849500D01*
X66527525Y-47849500D01*
X66406578Y-47881908D01*
X66387511Y-47887017D01*
X66261988Y-47959488D01*
X66261982Y-47959493D01*
X66159493Y-48061982D01*
X66159488Y-48061988D01*
X66087017Y-48187511D01*
X66087016Y-48187515D01*
X66049500Y-48327525D01*
X66049500Y-48472475D01*
X66077238Y-48575992D01*
X66087017Y-48612488D01*
X66159488Y-48738011D01*
X66159493Y-48738017D01*
X66209295Y-48787819D01*
X66242780Y-48849142D01*
X66237796Y-48918834D01*
X66195924Y-48974767D01*
X66130460Y-48999184D01*
X66121614Y-48999500D01*
X57019786Y-48999500D01*
X56952747Y-48979815D01*
X56906992Y-48927011D01*
X56897048Y-48857853D01*
X56910114Y-48820099D01*
X56909872Y-48819999D01*
X56911557Y-48815928D01*
X56912397Y-48813504D01*
X56912981Y-48812492D01*
X56912982Y-48812489D01*
X56912982Y-48812487D01*
X56912984Y-48812485D01*
X56950500Y-48672475D01*
X56950500Y-48527525D01*
X56912984Y-48387515D01*
X56869384Y-48311998D01*
X56852912Y-48244101D01*
X56869384Y-48188001D01*
X56912984Y-48112485D01*
X56950500Y-47972475D01*
X56950500Y-47827525D01*
X56912984Y-47687515D01*
X56869384Y-47611998D01*
X56852912Y-47544101D01*
X56869384Y-47488001D01*
X56912984Y-47412485D01*
X56950500Y-47272475D01*
X56950500Y-47127525D01*
X56912984Y-46987515D01*
X56869384Y-46911998D01*
X56852912Y-46844101D01*
X56869385Y-46788000D01*
X56904301Y-46727525D01*
X81549500Y-46727525D01*
X81549500Y-46872475D01*
X81587016Y-47012485D01*
X81587017Y-47012488D01*
X81659488Y-47138011D01*
X81659490Y-47138013D01*
X81659491Y-47138015D01*
X81761985Y-47240509D01*
X81761988Y-47240510D01*
X81761991Y-47240513D01*
X81765630Y-47242614D01*
X81768086Y-47245190D01*
X81768434Y-47245457D01*
X81768392Y-47245511D01*
X81813845Y-47293181D01*
X81827067Y-47361788D01*
X81801099Y-47426653D01*
X81765630Y-47457386D01*
X81761991Y-47459486D01*
X81761982Y-47459493D01*
X81659493Y-47561982D01*
X81659488Y-47561988D01*
X81587017Y-47687511D01*
X81587016Y-47687515D01*
X81549500Y-47827525D01*
X81549500Y-47972475D01*
X81587016Y-48112485D01*
X81587017Y-48112488D01*
X81659488Y-48238011D01*
X81659490Y-48238013D01*
X81659491Y-48238015D01*
X81761985Y-48340509D01*
X81761986Y-48340510D01*
X81761988Y-48340511D01*
X81887511Y-48412982D01*
X81887512Y-48412982D01*
X81887515Y-48412984D01*
X82027525Y-48450500D01*
X82027528Y-48450500D01*
X82172472Y-48450500D01*
X82172475Y-48450500D01*
X82312485Y-48412984D01*
X82438015Y-48340509D01*
X82540509Y-48238015D01*
X82612984Y-48112485D01*
X82650500Y-47972475D01*
X82650500Y-47827525D01*
X82612984Y-47687515D01*
X82607217Y-47677527D01*
X82540511Y-47561988D01*
X82540506Y-47561982D01*
X82438017Y-47459493D01*
X82438015Y-47459491D01*
X82434371Y-47457387D01*
X82431913Y-47454809D01*
X82431566Y-47454543D01*
X82431607Y-47454488D01*
X82386156Y-47406823D01*
X82372931Y-47338217D01*
X82398897Y-47273351D01*
X82434370Y-47242613D01*
X82438015Y-47240509D01*
X82540509Y-47138015D01*
X82604301Y-47027525D01*
X83349500Y-47027525D01*
X83349500Y-47172475D01*
X83386213Y-47309488D01*
X83387017Y-47312488D01*
X83459482Y-47438000D01*
X83475955Y-47505900D01*
X83459482Y-47562000D01*
X83387017Y-47687511D01*
X83387016Y-47687515D01*
X83349500Y-47827525D01*
X83349500Y-47972475D01*
X83387016Y-48112485D01*
X83387017Y-48112488D01*
X83459488Y-48238011D01*
X83459490Y-48238013D01*
X83459491Y-48238015D01*
X83561985Y-48340509D01*
X83561986Y-48340510D01*
X83561988Y-48340511D01*
X83687511Y-48412982D01*
X83687512Y-48412982D01*
X83687515Y-48412984D01*
X83827525Y-48450500D01*
X83827528Y-48450500D01*
X83972472Y-48450500D01*
X83972475Y-48450500D01*
X84112485Y-48412984D01*
X84238015Y-48340509D01*
X84340509Y-48238015D01*
X84412984Y-48112485D01*
X84450500Y-47972475D01*
X84450500Y-47827525D01*
X84412984Y-47687515D01*
X84340516Y-47561997D01*
X84324044Y-47494101D01*
X84340515Y-47438003D01*
X84412984Y-47312485D01*
X84450500Y-47172475D01*
X84450500Y-47027525D01*
X84412984Y-46887515D01*
X84407186Y-46877473D01*
X84340511Y-46761988D01*
X84340506Y-46761982D01*
X84238017Y-46659493D01*
X84238011Y-46659488D01*
X84112488Y-46587017D01*
X84112489Y-46587017D01*
X84101006Y-46583940D01*
X83972475Y-46549500D01*
X83827525Y-46549500D01*
X83698993Y-46583940D01*
X83687511Y-46587017D01*
X83561988Y-46659488D01*
X83561982Y-46659493D01*
X83459493Y-46761982D01*
X83459488Y-46761988D01*
X83387017Y-46887511D01*
X83387016Y-46887515D01*
X83349500Y-47027525D01*
X82604301Y-47027525D01*
X82612984Y-47012485D01*
X82650500Y-46872475D01*
X82650500Y-46727525D01*
X82612984Y-46587515D01*
X82612696Y-46587017D01*
X82540511Y-46461988D01*
X82540506Y-46461982D01*
X82438017Y-46359493D01*
X82438011Y-46359488D01*
X82312488Y-46287017D01*
X82312489Y-46287017D01*
X82301006Y-46283940D01*
X82172475Y-46249500D01*
X82027525Y-46249500D01*
X81898993Y-46283940D01*
X81887511Y-46287017D01*
X81761988Y-46359488D01*
X81761982Y-46359493D01*
X81659493Y-46461982D01*
X81659488Y-46461988D01*
X81587017Y-46587511D01*
X81587016Y-46587515D01*
X81549500Y-46727525D01*
X56904301Y-46727525D01*
X56912984Y-46712485D01*
X56950500Y-46572475D01*
X56950500Y-46427525D01*
X56912984Y-46287515D01*
X56912696Y-46287017D01*
X56840511Y-46161988D01*
X56840506Y-46161982D01*
X56738017Y-46059493D01*
X56738011Y-46059488D01*
X56612488Y-45987017D01*
X56612489Y-45987017D01*
X56601006Y-45983940D01*
X56472475Y-45949500D01*
X56327525Y-45949500D01*
X56198993Y-45983940D01*
X56187511Y-45987017D01*
X56112000Y-46030614D01*
X56044100Y-46047087D01*
X55988000Y-46030614D01*
X55912488Y-45987017D01*
X55912489Y-45987017D01*
X55901006Y-45983940D01*
X55772475Y-45949500D01*
X55627525Y-45949500D01*
X55498993Y-45983940D01*
X55487511Y-45987017D01*
X55412000Y-46030614D01*
X55344100Y-46047087D01*
X55288000Y-46030614D01*
X55212488Y-45987017D01*
X55212489Y-45987017D01*
X55201006Y-45983940D01*
X55072475Y-45949500D01*
X54927525Y-45949500D01*
X54798993Y-45983940D01*
X54787511Y-45987017D01*
X54712000Y-46030614D01*
X54644100Y-46047087D01*
X54588000Y-46030614D01*
X54512488Y-45987017D01*
X54512489Y-45987017D01*
X54501006Y-45983940D01*
X54372475Y-45949500D01*
X54227525Y-45949500D01*
X54098993Y-45983940D01*
X54087511Y-45987017D01*
X54012000Y-46030614D01*
X53944100Y-46047087D01*
X53888000Y-46030614D01*
X53812488Y-45987017D01*
X53812489Y-45987017D01*
X53801006Y-45983940D01*
X53672475Y-45949500D01*
X53527525Y-45949500D01*
X53398993Y-45983940D01*
X53387511Y-45987017D01*
X53261988Y-46059488D01*
X53261982Y-46059493D01*
X53159493Y-46161982D01*
X53159488Y-46161988D01*
X53087017Y-46287511D01*
X53087016Y-46287515D01*
X53049500Y-46427525D01*
X53049500Y-46572475D01*
X53072817Y-46659493D01*
X53087017Y-46712488D01*
X53130614Y-46788000D01*
X53147087Y-46855900D01*
X53130614Y-46912000D01*
X53087017Y-46987511D01*
X53087016Y-46987515D01*
X53049500Y-47127525D01*
X53049500Y-47127527D01*
X53049500Y-47219431D01*
X53029815Y-47286470D01*
X52977011Y-47332225D01*
X52907853Y-47342169D01*
X52844297Y-47313144D01*
X52815016Y-47275727D01*
X52783344Y-47213568D01*
X52744850Y-47160586D01*
X52644517Y-47022490D01*
X52477510Y-46855483D01*
X52286433Y-46716657D01*
X52226189Y-46685961D01*
X52075996Y-46609433D01*
X51851368Y-46536446D01*
X51618097Y-46499500D01*
X51618092Y-46499500D01*
X51381908Y-46499500D01*
X51381903Y-46499500D01*
X51148631Y-46536446D01*
X50924003Y-46609433D01*
X50713567Y-46716656D01*
X50697385Y-46728414D01*
X50631578Y-46751893D01*
X50563524Y-46736067D01*
X50514830Y-46685961D01*
X50500500Y-46628095D01*
X50500500Y-45627525D01*
X71199500Y-45627525D01*
X71199500Y-45772475D01*
X71237016Y-45912485D01*
X71237017Y-45912488D01*
X71309488Y-46038011D01*
X71309490Y-46038013D01*
X71309491Y-46038015D01*
X71411985Y-46140509D01*
X71411986Y-46140510D01*
X71411988Y-46140511D01*
X71537511Y-46212982D01*
X71537512Y-46212982D01*
X71537515Y-46212984D01*
X71677525Y-46250500D01*
X71677528Y-46250500D01*
X71822472Y-46250500D01*
X71822475Y-46250500D01*
X71962485Y-46212984D01*
X72088015Y-46140509D01*
X72190509Y-46038015D01*
X72254301Y-45927525D01*
X73699500Y-45927525D01*
X73699500Y-46072475D01*
X73737016Y-46212485D01*
X73737017Y-46212488D01*
X73809488Y-46338011D01*
X73809490Y-46338013D01*
X73809491Y-46338015D01*
X73911985Y-46440509D01*
X73911986Y-46440510D01*
X73911988Y-46440511D01*
X74037511Y-46512982D01*
X74037512Y-46512982D01*
X74037515Y-46512984D01*
X74177525Y-46550500D01*
X74177528Y-46550500D01*
X74322472Y-46550500D01*
X74322475Y-46550500D01*
X74462485Y-46512984D01*
X74588015Y-46440509D01*
X74690509Y-46338015D01*
X74762984Y-46212485D01*
X74800500Y-46072475D01*
X74800500Y-45927525D01*
X74762984Y-45787515D01*
X74741613Y-45750500D01*
X74690511Y-45661988D01*
X74690506Y-45661982D01*
X74588017Y-45559493D01*
X74588011Y-45559488D01*
X74462488Y-45487017D01*
X74462489Y-45487017D01*
X74451006Y-45483940D01*
X74322475Y-45449500D01*
X74177525Y-45449500D01*
X74048993Y-45483940D01*
X74037511Y-45487017D01*
X73911988Y-45559488D01*
X73911982Y-45559493D01*
X73809493Y-45661982D01*
X73809488Y-45661988D01*
X73737017Y-45787511D01*
X73737016Y-45787515D01*
X73699500Y-45927525D01*
X72254301Y-45927525D01*
X72262984Y-45912485D01*
X72300500Y-45772475D01*
X72300500Y-45627525D01*
X72262984Y-45487515D01*
X72262696Y-45487017D01*
X72190511Y-45361988D01*
X72190506Y-45361982D01*
X72088017Y-45259493D01*
X72088011Y-45259488D01*
X71962488Y-45187017D01*
X71962489Y-45187017D01*
X71951006Y-45183940D01*
X71822475Y-45149500D01*
X71677525Y-45149500D01*
X71548993Y-45183940D01*
X71537511Y-45187017D01*
X71411988Y-45259488D01*
X71411982Y-45259493D01*
X71309493Y-45361982D01*
X71309488Y-45361988D01*
X71237017Y-45487511D01*
X71235724Y-45492335D01*
X71199500Y-45627525D01*
X50500500Y-45627525D01*
X50500500Y-45334500D01*
X50520185Y-45267461D01*
X50572989Y-45221706D01*
X50624500Y-45210500D01*
X52274676Y-45210500D01*
X52274677Y-45210499D01*
X52347740Y-45195966D01*
X52430601Y-45140601D01*
X52485966Y-45057740D01*
X52500500Y-44984674D01*
X52500500Y-43235326D01*
X52500500Y-43235323D01*
X52500499Y-43235321D01*
X52485967Y-43162264D01*
X52485966Y-43162260D01*
X52430601Y-43079399D01*
X52347740Y-43024034D01*
X52347739Y-43024033D01*
X52347735Y-43024032D01*
X52274677Y-43009500D01*
X52274674Y-43009500D01*
X50624500Y-43009500D01*
X50557461Y-42989815D01*
X50511706Y-42937011D01*
X50500500Y-42885500D01*
X50500500Y-42520131D01*
X50520185Y-42453092D01*
X50572989Y-42407337D01*
X50642147Y-42397393D01*
X50697383Y-42419812D01*
X50823212Y-42511232D01*
X50977555Y-42589873D01*
X51142299Y-42643402D01*
X51313389Y-42670500D01*
X51313390Y-42670500D01*
X51486610Y-42670500D01*
X51486611Y-42670500D01*
X51657701Y-42643402D01*
X51822445Y-42589873D01*
X51976788Y-42511232D01*
X52116928Y-42409414D01*
X52239414Y-42286928D01*
X52341232Y-42146788D01*
X52419873Y-41992445D01*
X52473402Y-41827701D01*
X52500500Y-41656611D01*
X52500500Y-41483389D01*
X52483162Y-41373920D01*
X52749499Y-41373920D01*
X52778340Y-41518907D01*
X52778343Y-41518917D01*
X52834912Y-41655488D01*
X52834919Y-41655501D01*
X52917048Y-41778415D01*
X52917051Y-41778419D01*
X53021580Y-41882948D01*
X53021584Y-41882951D01*
X53144498Y-41965080D01*
X53144511Y-41965087D01*
X53260141Y-42012982D01*
X53281087Y-42021658D01*
X53281091Y-42021658D01*
X53281092Y-42021659D01*
X53426079Y-42050500D01*
X53426082Y-42050500D01*
X53573920Y-42050500D01*
X53671462Y-42031096D01*
X53718913Y-42021658D01*
X53802549Y-41987014D01*
X53872016Y-41979546D01*
X53897447Y-41987013D01*
X53981087Y-42021658D01*
X53981091Y-42021658D01*
X53981092Y-42021659D01*
X54126079Y-42050500D01*
X54126082Y-42050500D01*
X54273920Y-42050500D01*
X54418908Y-42021659D01*
X54418908Y-42021658D01*
X54418913Y-42021658D01*
X54442333Y-42011956D01*
X54511800Y-42004487D01*
X54574280Y-42035760D01*
X54577468Y-42038836D01*
X56371578Y-43832947D01*
X56371581Y-43832950D01*
X56371584Y-43832952D01*
X56431831Y-43873207D01*
X56494505Y-43915084D01*
X56631087Y-43971658D01*
X56631091Y-43971658D01*
X56631092Y-43971659D01*
X56776079Y-44000500D01*
X56776082Y-44000500D01*
X56776083Y-44000500D01*
X56923917Y-44000500D01*
X62835066Y-44000500D01*
X62902105Y-44020185D01*
X62947860Y-44072989D01*
X62954839Y-44092401D01*
X62987016Y-44212485D01*
X62987017Y-44212488D01*
X63045048Y-44313000D01*
X63061521Y-44380900D01*
X63045048Y-44437000D01*
X62987017Y-44537511D01*
X62987016Y-44537515D01*
X62949500Y-44677525D01*
X62949500Y-44822475D01*
X62962897Y-44872472D01*
X62987017Y-44962488D01*
X63059488Y-45088011D01*
X63059490Y-45088013D01*
X63059491Y-45088015D01*
X63161985Y-45190509D01*
X63161986Y-45190510D01*
X63161988Y-45190511D01*
X63287511Y-45262982D01*
X63287512Y-45262982D01*
X63287515Y-45262984D01*
X63427525Y-45300500D01*
X63427528Y-45300500D01*
X63572472Y-45300500D01*
X63572475Y-45300500D01*
X63712485Y-45262984D01*
X63838015Y-45190509D01*
X63940509Y-45088015D01*
X64012984Y-44962485D01*
X64050500Y-44822475D01*
X64050500Y-44727525D01*
X72838528Y-44727525D01*
X72838528Y-44872475D01*
X72868592Y-44984674D01*
X72876045Y-45012488D01*
X72948516Y-45138011D01*
X72948518Y-45138013D01*
X72948519Y-45138015D01*
X73051013Y-45240509D01*
X73051014Y-45240510D01*
X73051016Y-45240511D01*
X73176539Y-45312982D01*
X73176540Y-45312982D01*
X73176543Y-45312984D01*
X73316553Y-45350500D01*
X73316556Y-45350500D01*
X73461500Y-45350500D01*
X73461503Y-45350500D01*
X73601513Y-45312984D01*
X73727043Y-45240509D01*
X73829537Y-45138015D01*
X73902012Y-45012485D01*
X73939528Y-44872475D01*
X73939528Y-44727525D01*
X73902012Y-44587515D01*
X73873144Y-44537515D01*
X73829539Y-44461988D01*
X73829534Y-44461982D01*
X73727045Y-44359493D01*
X73727039Y-44359488D01*
X73601516Y-44287017D01*
X73601517Y-44287017D01*
X73590034Y-44283940D01*
X73461503Y-44249500D01*
X73316553Y-44249500D01*
X73188021Y-44283940D01*
X73176539Y-44287017D01*
X73051016Y-44359488D01*
X73051010Y-44359493D01*
X72948521Y-44461982D01*
X72948516Y-44461988D01*
X72876045Y-44587511D01*
X72876044Y-44587515D01*
X72838528Y-44727525D01*
X64050500Y-44727525D01*
X64050500Y-44677525D01*
X64012984Y-44537515D01*
X63954950Y-44436997D01*
X63938478Y-44369101D01*
X63954951Y-44313000D01*
X64012984Y-44212485D01*
X64042552Y-44102135D01*
X84849500Y-44102135D01*
X84849500Y-45297870D01*
X84849501Y-45297876D01*
X84855908Y-45357483D01*
X84906202Y-45492328D01*
X84906206Y-45492335D01*
X84992452Y-45607544D01*
X84992455Y-45607547D01*
X85107664Y-45693793D01*
X85107671Y-45693797D01*
X85242517Y-45744091D01*
X85242516Y-45744091D01*
X85249444Y-45744835D01*
X85302127Y-45750500D01*
X86497872Y-45750499D01*
X86557483Y-45744091D01*
X86692331Y-45693796D01*
X86807546Y-45607546D01*
X86893796Y-45492331D01*
X86944091Y-45357483D01*
X86950500Y-45297873D01*
X86950499Y-44102128D01*
X86944091Y-44042517D01*
X86919725Y-43977189D01*
X86893797Y-43907671D01*
X86893793Y-43907664D01*
X86807547Y-43792455D01*
X86807544Y-43792452D01*
X86692335Y-43706206D01*
X86692328Y-43706202D01*
X86557482Y-43655908D01*
X86557483Y-43655908D01*
X86497883Y-43649501D01*
X86497881Y-43649500D01*
X86497873Y-43649500D01*
X86497864Y-43649500D01*
X85302129Y-43649500D01*
X85302123Y-43649501D01*
X85242516Y-43655908D01*
X85107671Y-43706202D01*
X85107664Y-43706206D01*
X84992455Y-43792452D01*
X84992452Y-43792455D01*
X84906206Y-43907664D01*
X84906202Y-43907671D01*
X84855908Y-44042517D01*
X84850545Y-44092406D01*
X84849501Y-44102123D01*
X84849500Y-44102135D01*
X64042552Y-44102135D01*
X64045159Y-44092404D01*
X64081524Y-44032746D01*
X64144372Y-44002217D01*
X64164934Y-44000500D01*
X65982711Y-44000500D01*
X66030162Y-44009938D01*
X66037513Y-44012983D01*
X66037515Y-44012984D01*
X66177525Y-44050500D01*
X66177528Y-44050500D01*
X66322472Y-44050500D01*
X66322475Y-44050500D01*
X66462485Y-44012984D01*
X66462488Y-44012981D01*
X66469838Y-44009938D01*
X66517289Y-44000500D01*
X76223920Y-44000500D01*
X76341109Y-43977189D01*
X76358139Y-43973801D01*
X76368913Y-43971658D01*
X76505495Y-43915084D01*
X76568169Y-43873207D01*
X76628416Y-43832952D01*
X77748883Y-42712485D01*
X78833844Y-41627525D01*
X84349500Y-41627525D01*
X84349500Y-41772475D01*
X84386882Y-41911985D01*
X84387017Y-41912488D01*
X84459482Y-42038000D01*
X84475955Y-42105900D01*
X84459482Y-42162000D01*
X84387017Y-42287511D01*
X84387016Y-42287515D01*
X84349500Y-42427525D01*
X84349500Y-42572475D01*
X84375766Y-42670500D01*
X84387017Y-42712488D01*
X84459488Y-42838011D01*
X84459490Y-42838013D01*
X84459491Y-42838015D01*
X84561985Y-42940509D01*
X84561986Y-42940510D01*
X84561988Y-42940511D01*
X84687511Y-43012982D01*
X84687512Y-43012982D01*
X84687515Y-43012984D01*
X84827525Y-43050500D01*
X84827528Y-43050500D01*
X84972472Y-43050500D01*
X84972475Y-43050500D01*
X85112485Y-43012984D01*
X85188001Y-42969384D01*
X85255899Y-42952912D01*
X85311998Y-42969384D01*
X85387515Y-43012984D01*
X85527525Y-43050500D01*
X85527528Y-43050500D01*
X85672472Y-43050500D01*
X85672475Y-43050500D01*
X85812485Y-43012984D01*
X85888001Y-42969384D01*
X85955899Y-42952912D01*
X86011998Y-42969384D01*
X86087515Y-43012984D01*
X86227525Y-43050500D01*
X86227528Y-43050500D01*
X86372472Y-43050500D01*
X86372475Y-43050500D01*
X86512485Y-43012984D01*
X86588001Y-42969384D01*
X86655899Y-42952912D01*
X86711998Y-42969384D01*
X86787515Y-43012984D01*
X86927525Y-43050500D01*
X86927528Y-43050500D01*
X87072472Y-43050500D01*
X87072475Y-43050500D01*
X87212485Y-43012984D01*
X87338015Y-42940509D01*
X87440509Y-42838015D01*
X87512984Y-42712485D01*
X87550500Y-42572475D01*
X87550500Y-42427525D01*
X87512984Y-42287515D01*
X87440516Y-42161997D01*
X87424044Y-42094101D01*
X87440515Y-42038003D01*
X87512984Y-41912485D01*
X87550500Y-41772475D01*
X87550500Y-41627525D01*
X87512984Y-41487515D01*
X87485843Y-41440506D01*
X87440511Y-41361988D01*
X87440506Y-41361982D01*
X87338017Y-41259493D01*
X87338011Y-41259488D01*
X87212488Y-41187017D01*
X87212489Y-41187017D01*
X87201006Y-41183940D01*
X87072475Y-41149500D01*
X86927525Y-41149500D01*
X86798993Y-41183940D01*
X86787511Y-41187017D01*
X86712000Y-41230614D01*
X86644100Y-41247087D01*
X86588000Y-41230614D01*
X86512488Y-41187017D01*
X86512489Y-41187017D01*
X86501006Y-41183940D01*
X86372475Y-41149500D01*
X86227525Y-41149500D01*
X86098993Y-41183940D01*
X86087511Y-41187017D01*
X86012000Y-41230614D01*
X85944100Y-41247087D01*
X85888000Y-41230614D01*
X85812488Y-41187017D01*
X85812489Y-41187017D01*
X85801006Y-41183940D01*
X85672475Y-41149500D01*
X85527525Y-41149500D01*
X85398993Y-41183940D01*
X85387511Y-41187017D01*
X85312000Y-41230614D01*
X85244100Y-41247087D01*
X85188000Y-41230614D01*
X85112488Y-41187017D01*
X85112489Y-41187017D01*
X85101006Y-41183940D01*
X84972475Y-41149500D01*
X84827525Y-41149500D01*
X84698993Y-41183940D01*
X84687511Y-41187017D01*
X84561988Y-41259488D01*
X84561982Y-41259493D01*
X84459493Y-41361982D01*
X84459488Y-41361988D01*
X84387017Y-41487511D01*
X84387016Y-41487515D01*
X84349500Y-41627525D01*
X78833844Y-41627525D01*
X78929652Y-41531717D01*
X81659234Y-38802135D01*
X84749500Y-38802135D01*
X84749500Y-39997870D01*
X84749501Y-39997876D01*
X84755908Y-40057483D01*
X84806202Y-40192328D01*
X84806206Y-40192335D01*
X84892452Y-40307544D01*
X84892455Y-40307547D01*
X85007664Y-40393793D01*
X85007671Y-40393797D01*
X85142517Y-40444091D01*
X85142516Y-40444091D01*
X85149444Y-40444835D01*
X85202127Y-40450500D01*
X86397872Y-40450499D01*
X86457483Y-40444091D01*
X86592331Y-40393796D01*
X86707546Y-40307546D01*
X86793796Y-40192331D01*
X86844091Y-40057483D01*
X86850500Y-39997873D01*
X86850499Y-38802128D01*
X86844091Y-38742517D01*
X86823390Y-38687016D01*
X86793797Y-38607671D01*
X86793793Y-38607664D01*
X86707547Y-38492455D01*
X86707544Y-38492452D01*
X86592335Y-38406206D01*
X86592328Y-38406202D01*
X86457482Y-38355908D01*
X86457483Y-38355908D01*
X86397883Y-38349501D01*
X86397881Y-38349500D01*
X86397873Y-38349500D01*
X86397864Y-38349500D01*
X85202129Y-38349500D01*
X85202123Y-38349501D01*
X85142516Y-38355908D01*
X85007671Y-38406202D01*
X85007664Y-38406206D01*
X84892455Y-38492452D01*
X84892452Y-38492455D01*
X84806206Y-38607664D01*
X84806202Y-38607671D01*
X84755908Y-38742517D01*
X84751071Y-38787511D01*
X84749501Y-38802123D01*
X84749500Y-38802135D01*
X81659234Y-38802135D01*
X81750244Y-38711125D01*
X82105547Y-38355821D01*
X82105552Y-38355816D01*
X82173524Y-38254087D01*
X82187684Y-38232895D01*
X82244258Y-38096313D01*
X82265800Y-37988017D01*
X82273100Y-37951320D01*
X82273100Y-34491438D01*
X82292785Y-34424399D01*
X82297834Y-34417126D01*
X82316396Y-34392331D01*
X82366691Y-34257483D01*
X82373100Y-34197873D01*
X82373099Y-33402128D01*
X82366691Y-33342517D01*
X82366471Y-33341928D01*
X82316397Y-33207671D01*
X82316393Y-33207664D01*
X82230147Y-33092455D01*
X82230144Y-33092452D01*
X82114935Y-33006206D01*
X82114928Y-33006202D01*
X81980082Y-32955908D01*
X81980083Y-32955908D01*
X81920483Y-32949501D01*
X81920481Y-32949500D01*
X81920473Y-32949500D01*
X81920464Y-32949500D01*
X81124729Y-32949500D01*
X81124723Y-32949501D01*
X81065116Y-32955908D01*
X80930271Y-33006202D01*
X80930264Y-33006206D01*
X80815055Y-33092452D01*
X80815052Y-33092455D01*
X80773572Y-33147866D01*
X80717639Y-33189737D01*
X80647947Y-33194721D01*
X80586625Y-33161236D01*
X80564762Y-33139373D01*
X80425460Y-33046295D01*
X80270682Y-32982184D01*
X80270674Y-32982182D01*
X80106371Y-32949500D01*
X80106367Y-32949500D01*
X79938833Y-32949500D01*
X79938828Y-32949500D01*
X79774525Y-32982182D01*
X79774517Y-32982184D01*
X79619739Y-33046295D01*
X79480437Y-33139373D01*
X79361973Y-33257837D01*
X79268895Y-33397139D01*
X79204784Y-33551917D01*
X79204782Y-33551925D01*
X79172100Y-33716228D01*
X79172100Y-33883771D01*
X79204782Y-34048074D01*
X79204784Y-34048082D01*
X79268895Y-34202860D01*
X79361973Y-34342162D01*
X79480437Y-34460626D01*
X79526551Y-34491438D01*
X79619737Y-34553703D01*
X79774518Y-34617816D01*
X79938828Y-34650499D01*
X79938832Y-34650500D01*
X79938833Y-34650500D01*
X80106368Y-34650500D01*
X80106369Y-34650499D01*
X80270682Y-34617816D01*
X80425463Y-34553703D01*
X80564762Y-34460626D01*
X80564763Y-34460625D01*
X80569433Y-34456793D01*
X80633742Y-34429478D01*
X80702610Y-34441268D01*
X80754171Y-34488419D01*
X80772100Y-34552644D01*
X80772100Y-37515170D01*
X80752415Y-37582209D01*
X80735781Y-37602851D01*
X75875451Y-42463181D01*
X75814128Y-42496666D01*
X75787770Y-42499500D01*
X75164666Y-42499500D01*
X75097627Y-42479815D01*
X75051872Y-42427011D01*
X75041928Y-42357853D01*
X75044891Y-42343407D01*
X75044891Y-42343406D01*
X75050500Y-42322475D01*
X75050500Y-42177525D01*
X75012984Y-42037515D01*
X75003828Y-42021657D01*
X74940511Y-41911988D01*
X74940510Y-41911986D01*
X74940509Y-41911985D01*
X74838015Y-41809491D01*
X74838012Y-41809489D01*
X74838011Y-41809488D01*
X74712488Y-41737017D01*
X74712489Y-41737017D01*
X74701006Y-41733940D01*
X74572475Y-41699500D01*
X74427525Y-41699500D01*
X74298993Y-41733940D01*
X74287511Y-41737017D01*
X74161988Y-41809488D01*
X74161982Y-41809493D01*
X74059493Y-41911982D01*
X74059488Y-41911988D01*
X73987017Y-42037511D01*
X73987016Y-42037515D01*
X73949500Y-42177525D01*
X73949500Y-42322475D01*
X73955109Y-42343406D01*
X73955109Y-42343407D01*
X73953446Y-42413257D01*
X73914283Y-42471119D01*
X73850055Y-42498623D01*
X73835334Y-42499500D01*
X69939356Y-42499500D01*
X69872317Y-42479815D01*
X69826562Y-42427011D01*
X69816618Y-42357853D01*
X69819581Y-42343407D01*
X69825190Y-42322476D01*
X69825190Y-42177526D01*
X69787674Y-42037516D01*
X69778518Y-42021658D01*
X69715201Y-41911989D01*
X69715196Y-41911983D01*
X69612707Y-41809494D01*
X69612701Y-41809489D01*
X69487178Y-41737018D01*
X69487179Y-41737018D01*
X69475696Y-41733941D01*
X69347165Y-41699501D01*
X69202215Y-41699501D01*
X69073683Y-41733941D01*
X69062201Y-41737018D01*
X68936678Y-41809489D01*
X68936672Y-41809494D01*
X68834183Y-41911983D01*
X68834178Y-41911989D01*
X68761707Y-42037512D01*
X68761706Y-42037516D01*
X68724190Y-42177526D01*
X68724190Y-42322476D01*
X68729799Y-42343407D01*
X68728136Y-42413256D01*
X68688974Y-42471118D01*
X68624746Y-42498623D01*
X68610024Y-42499500D01*
X67267289Y-42499500D01*
X67219838Y-42490062D01*
X67212486Y-42487016D01*
X67153157Y-42471119D01*
X67072475Y-42449500D01*
X66927525Y-42449500D01*
X66846843Y-42471119D01*
X66787513Y-42487016D01*
X66780162Y-42490062D01*
X66732711Y-42499500D01*
X57212230Y-42499500D01*
X57145191Y-42479815D01*
X57124549Y-42463181D01*
X56088893Y-41427525D01*
X61199500Y-41427525D01*
X61199500Y-41572475D01*
X61233537Y-41699500D01*
X61237017Y-41712488D01*
X61309488Y-41838011D01*
X61309490Y-41838013D01*
X61309491Y-41838015D01*
X61411985Y-41940509D01*
X61411986Y-41940510D01*
X61411988Y-41940511D01*
X61537511Y-42012982D01*
X61537512Y-42012982D01*
X61537515Y-42012984D01*
X61677525Y-42050500D01*
X61677528Y-42050500D01*
X61822472Y-42050500D01*
X61822475Y-42050500D01*
X61962485Y-42012984D01*
X62088015Y-41940509D01*
X62190509Y-41838015D01*
X62262984Y-41712485D01*
X62300500Y-41572475D01*
X62300500Y-41537884D01*
X62320185Y-41470845D01*
X62372989Y-41425090D01*
X62442147Y-41415146D01*
X62456594Y-41418109D01*
X62464268Y-41420165D01*
X62464273Y-41420168D01*
X62604283Y-41457684D01*
X62604286Y-41457684D01*
X62749230Y-41457684D01*
X62749233Y-41457684D01*
X62889243Y-41420168D01*
X63014773Y-41347693D01*
X63117267Y-41245199D01*
X63189742Y-41119669D01*
X63227258Y-40979659D01*
X63227258Y-40834709D01*
X63189742Y-40694699D01*
X63170856Y-40661988D01*
X63117269Y-40569172D01*
X63117264Y-40569166D01*
X63014775Y-40466677D01*
X63014769Y-40466672D01*
X62889246Y-40394201D01*
X62889247Y-40394201D01*
X62877764Y-40391124D01*
X62749233Y-40356684D01*
X62604283Y-40356684D01*
X62475751Y-40391124D01*
X62464269Y-40394201D01*
X62338746Y-40466672D01*
X62338740Y-40466677D01*
X62236251Y-40569166D01*
X62236246Y-40569172D01*
X62163775Y-40694695D01*
X62163774Y-40694699D01*
X62126258Y-40834709D01*
X62126258Y-40834711D01*
X62126258Y-40869299D01*
X62106573Y-40936338D01*
X62053769Y-40982093D01*
X61984611Y-40992037D01*
X61970164Y-40989074D01*
X61962486Y-40987016D01*
X61962485Y-40987016D01*
X61822475Y-40949500D01*
X61677525Y-40949500D01*
X61555888Y-40982093D01*
X61537511Y-40987017D01*
X61411988Y-41059488D01*
X61411982Y-41059493D01*
X61309493Y-41161982D01*
X61309488Y-41161988D01*
X61237017Y-41287511D01*
X61237016Y-41287515D01*
X61199500Y-41427525D01*
X56088893Y-41427525D01*
X55686819Y-41025451D01*
X55653334Y-40964128D01*
X55650500Y-40937770D01*
X55650500Y-40027525D01*
X65849500Y-40027525D01*
X65849500Y-40172475D01*
X65887016Y-40312485D01*
X65887017Y-40312488D01*
X65959488Y-40438011D01*
X65959490Y-40438013D01*
X65959491Y-40438015D01*
X66061985Y-40540509D01*
X66061986Y-40540510D01*
X66061988Y-40540511D01*
X66187511Y-40612982D01*
X66187512Y-40612982D01*
X66187515Y-40612984D01*
X66327525Y-40650500D01*
X66327528Y-40650500D01*
X66472472Y-40650500D01*
X66472475Y-40650500D01*
X66612485Y-40612984D01*
X66738015Y-40540509D01*
X66840509Y-40438015D01*
X66889867Y-40352525D01*
X69124500Y-40352525D01*
X69124500Y-40497475D01*
X69159680Y-40628768D01*
X69162017Y-40637488D01*
X69234488Y-40763011D01*
X69234490Y-40763013D01*
X69234491Y-40763015D01*
X69336985Y-40865509D01*
X69336986Y-40865510D01*
X69336988Y-40865511D01*
X69462511Y-40937982D01*
X69462512Y-40937982D01*
X69462515Y-40937984D01*
X69602525Y-40975500D01*
X69602528Y-40975500D01*
X69747472Y-40975500D01*
X69747475Y-40975500D01*
X69887485Y-40937984D01*
X69905600Y-40927525D01*
X71199500Y-40927525D01*
X71199500Y-41072475D01*
X71231128Y-41190511D01*
X71237017Y-41212488D01*
X71309488Y-41338011D01*
X71309490Y-41338013D01*
X71309491Y-41338015D01*
X71411985Y-41440509D01*
X71411986Y-41440510D01*
X71411988Y-41440511D01*
X71537511Y-41512982D01*
X71537512Y-41512982D01*
X71537515Y-41512984D01*
X71677525Y-41550500D01*
X71677528Y-41550500D01*
X71822472Y-41550500D01*
X71822475Y-41550500D01*
X71962485Y-41512984D01*
X72088015Y-41440509D01*
X72190509Y-41338015D01*
X72262984Y-41212485D01*
X72300500Y-41072475D01*
X72300500Y-40927525D01*
X72262984Y-40787515D01*
X72224111Y-40720186D01*
X72190511Y-40661988D01*
X72190506Y-40661982D01*
X72088017Y-40559493D01*
X72088011Y-40559488D01*
X71962488Y-40487017D01*
X71962489Y-40487017D01*
X71951006Y-40483940D01*
X71822475Y-40449500D01*
X71677525Y-40449500D01*
X71548993Y-40483940D01*
X71537511Y-40487017D01*
X71411988Y-40559488D01*
X71411982Y-40559493D01*
X71309493Y-40661982D01*
X71309488Y-40661988D01*
X71237017Y-40787511D01*
X71237016Y-40787515D01*
X71199500Y-40927525D01*
X69905600Y-40927525D01*
X70013015Y-40865509D01*
X70115509Y-40763015D01*
X70187984Y-40637485D01*
X70225500Y-40497475D01*
X70225500Y-40352525D01*
X70187984Y-40212515D01*
X70158451Y-40161363D01*
X70115511Y-40086988D01*
X70115506Y-40086982D01*
X70013017Y-39984493D01*
X70013011Y-39984488D01*
X69887488Y-39912017D01*
X69887489Y-39912017D01*
X69876006Y-39908940D01*
X69747475Y-39874500D01*
X69602525Y-39874500D01*
X69473993Y-39908940D01*
X69462511Y-39912017D01*
X69336988Y-39984488D01*
X69336982Y-39984493D01*
X69234493Y-40086982D01*
X69234488Y-40086988D01*
X69162017Y-40212511D01*
X69162016Y-40212515D01*
X69124500Y-40352525D01*
X66889867Y-40352525D01*
X66912984Y-40312485D01*
X66950500Y-40172475D01*
X66950500Y-40027525D01*
X66912984Y-39887515D01*
X66908537Y-39879813D01*
X66840511Y-39761988D01*
X66840506Y-39761982D01*
X66738017Y-39659493D01*
X66738011Y-39659488D01*
X66612488Y-39587017D01*
X66612489Y-39587017D01*
X66601006Y-39583940D01*
X66472475Y-39549500D01*
X66327525Y-39549500D01*
X66198993Y-39583940D01*
X66187511Y-39587017D01*
X66061988Y-39659488D01*
X66061982Y-39659493D01*
X65959493Y-39761982D01*
X65959488Y-39761988D01*
X65887017Y-39887511D01*
X65887016Y-39887515D01*
X65849500Y-40027525D01*
X55650500Y-40027525D01*
X55650500Y-39826079D01*
X55621659Y-39681092D01*
X55621658Y-39681091D01*
X55621658Y-39681087D01*
X55614674Y-39664226D01*
X55565087Y-39544511D01*
X55565080Y-39544498D01*
X55482951Y-39421584D01*
X55482948Y-39421580D01*
X55378419Y-39317051D01*
X55378415Y-39317048D01*
X55255501Y-39234919D01*
X55255488Y-39234912D01*
X55253186Y-39233959D01*
X55118917Y-39178343D01*
X55118907Y-39178340D01*
X54973920Y-39149500D01*
X54973918Y-39149500D01*
X54826082Y-39149500D01*
X54826080Y-39149500D01*
X54681093Y-39178340D01*
X54681085Y-39178342D01*
X54597452Y-39212984D01*
X54527982Y-39220453D01*
X54502548Y-39212984D01*
X54418914Y-39178342D01*
X54418906Y-39178340D01*
X54273920Y-39149500D01*
X54273918Y-39149500D01*
X54126082Y-39149500D01*
X54126080Y-39149500D01*
X53981093Y-39178340D01*
X53981085Y-39178342D01*
X53897452Y-39212984D01*
X53827982Y-39220453D01*
X53802548Y-39212984D01*
X53718914Y-39178342D01*
X53718906Y-39178340D01*
X53573920Y-39149500D01*
X53573918Y-39149500D01*
X53426082Y-39149500D01*
X53426080Y-39149500D01*
X53281092Y-39178340D01*
X53281082Y-39178343D01*
X53144511Y-39234912D01*
X53144498Y-39234919D01*
X53021584Y-39317048D01*
X53021580Y-39317051D01*
X52917051Y-39421580D01*
X52917048Y-39421584D01*
X52834919Y-39544498D01*
X52834912Y-39544511D01*
X52778343Y-39681082D01*
X52778340Y-39681092D01*
X52749500Y-39826079D01*
X52749500Y-39826082D01*
X52749500Y-41373918D01*
X52749500Y-41373920D01*
X52749499Y-41373920D01*
X52483162Y-41373920D01*
X52473402Y-41312299D01*
X52419873Y-41147555D01*
X52341232Y-40993212D01*
X52239414Y-40853072D01*
X52116928Y-40730586D01*
X51976788Y-40628768D01*
X51822445Y-40550127D01*
X51657701Y-40496598D01*
X51657699Y-40496597D01*
X51657698Y-40496597D01*
X51526271Y-40475781D01*
X51486611Y-40469500D01*
X51313389Y-40469500D01*
X51273728Y-40475781D01*
X51142302Y-40496597D01*
X50977552Y-40550128D01*
X50823208Y-40628770D01*
X50697385Y-40720186D01*
X50631579Y-40743666D01*
X50563525Y-40727841D01*
X50514830Y-40677735D01*
X50500500Y-40619868D01*
X50500500Y-39980131D01*
X50520185Y-39913092D01*
X50572989Y-39867337D01*
X50642147Y-39857393D01*
X50697383Y-39879812D01*
X50823212Y-39971232D01*
X50977555Y-40049873D01*
X51142299Y-40103402D01*
X51313389Y-40130500D01*
X51313390Y-40130500D01*
X51486610Y-40130500D01*
X51486611Y-40130500D01*
X51657701Y-40103402D01*
X51822445Y-40049873D01*
X51976788Y-39971232D01*
X52116928Y-39869414D01*
X52239414Y-39746928D01*
X52341232Y-39606788D01*
X52419873Y-39452445D01*
X52473402Y-39287701D01*
X52498771Y-39127525D01*
X57549500Y-39127525D01*
X57549500Y-39272475D01*
X57587016Y-39412485D01*
X57587017Y-39412488D01*
X57659488Y-39538011D01*
X57659490Y-39538013D01*
X57659491Y-39538015D01*
X57761985Y-39640509D01*
X57761986Y-39640510D01*
X57761988Y-39640511D01*
X57887511Y-39712982D01*
X57887512Y-39712982D01*
X57887515Y-39712984D01*
X58027525Y-39750500D01*
X58027528Y-39750500D01*
X58172472Y-39750500D01*
X58172475Y-39750500D01*
X58312485Y-39712984D01*
X58438015Y-39640509D01*
X58540509Y-39538015D01*
X58604301Y-39427525D01*
X72699500Y-39427525D01*
X72699500Y-39572475D01*
X72737016Y-39712485D01*
X72737017Y-39712488D01*
X72809488Y-39838011D01*
X72809490Y-39838013D01*
X72809491Y-39838015D01*
X72911985Y-39940509D01*
X73037515Y-40012984D01*
X73177525Y-40050500D01*
X73177529Y-40050500D01*
X73184138Y-40052271D01*
X73243799Y-40088636D01*
X73274328Y-40151483D01*
X73266033Y-40220859D01*
X73221548Y-40274736D01*
X73214047Y-40279432D01*
X73161988Y-40309489D01*
X73161982Y-40309493D01*
X73059493Y-40411982D01*
X73059488Y-40411988D01*
X72987017Y-40537511D01*
X72986214Y-40540509D01*
X72949500Y-40677525D01*
X72949500Y-40822475D01*
X72980451Y-40937984D01*
X72987017Y-40962488D01*
X73059488Y-41088011D01*
X73059490Y-41088013D01*
X73059491Y-41088015D01*
X73161985Y-41190509D01*
X73161986Y-41190510D01*
X73161988Y-41190511D01*
X73287511Y-41262982D01*
X73287512Y-41262982D01*
X73287515Y-41262984D01*
X73427525Y-41300500D01*
X73427528Y-41300500D01*
X73572472Y-41300500D01*
X73572475Y-41300500D01*
X73712485Y-41262984D01*
X73838015Y-41190509D01*
X73940509Y-41088015D01*
X74012984Y-40962485D01*
X74050500Y-40822475D01*
X74050500Y-40677525D01*
X74012984Y-40537515D01*
X73989360Y-40496598D01*
X73940511Y-40411988D01*
X73940506Y-40411982D01*
X73838017Y-40309493D01*
X73838011Y-40309488D01*
X73712488Y-40237017D01*
X73712489Y-40237017D01*
X73694215Y-40232120D01*
X73572475Y-40199500D01*
X73572473Y-40199500D01*
X73565860Y-40197728D01*
X73506200Y-40161363D01*
X73475671Y-40098516D01*
X73483966Y-40029140D01*
X73528451Y-39975262D01*
X73535955Y-39970566D01*
X73538496Y-39969098D01*
X73588015Y-39940509D01*
X73690509Y-39838015D01*
X73762984Y-39712485D01*
X73800500Y-39572475D01*
X73800500Y-39427525D01*
X73762984Y-39287515D01*
X73732063Y-39233959D01*
X73690511Y-39161988D01*
X73690506Y-39161982D01*
X73588017Y-39059493D01*
X73588015Y-39059491D01*
X73462485Y-38987016D01*
X73322475Y-38949500D01*
X73177525Y-38949500D01*
X73048993Y-38983940D01*
X73037511Y-38987017D01*
X72911988Y-39059488D01*
X72911982Y-39059493D01*
X72809493Y-39161982D01*
X72809488Y-39161988D01*
X72737017Y-39287511D01*
X72737016Y-39287515D01*
X72699500Y-39427525D01*
X58604301Y-39427525D01*
X58612984Y-39412485D01*
X58650500Y-39272475D01*
X58650500Y-39127525D01*
X58612984Y-38987515D01*
X58612696Y-38987017D01*
X58578349Y-38927525D01*
X74149500Y-38927525D01*
X74149500Y-39072475D01*
X74177868Y-39178343D01*
X74187017Y-39212488D01*
X74259488Y-39338011D01*
X74259490Y-39338013D01*
X74259491Y-39338015D01*
X74361985Y-39440509D01*
X74361986Y-39440510D01*
X74361988Y-39440511D01*
X74487511Y-39512982D01*
X74487512Y-39512982D01*
X74487515Y-39512984D01*
X74627525Y-39550500D01*
X74627528Y-39550500D01*
X74772472Y-39550500D01*
X74772475Y-39550500D01*
X74912485Y-39512984D01*
X75038015Y-39440509D01*
X75140509Y-39338015D01*
X75212984Y-39212485D01*
X75250500Y-39072475D01*
X75250500Y-38927525D01*
X75212984Y-38787515D01*
X75196805Y-38759493D01*
X75140511Y-38661988D01*
X75140506Y-38661982D01*
X75038017Y-38559493D01*
X75038015Y-38559491D01*
X74912485Y-38487016D01*
X74772475Y-38449500D01*
X74627525Y-38449500D01*
X74498993Y-38483940D01*
X74487511Y-38487017D01*
X74361988Y-38559488D01*
X74361982Y-38559493D01*
X74259493Y-38661982D01*
X74259488Y-38661988D01*
X74187017Y-38787511D01*
X74187016Y-38787515D01*
X74149500Y-38927525D01*
X58578349Y-38927525D01*
X58540511Y-38861988D01*
X58540506Y-38861982D01*
X58438017Y-38759493D01*
X58438011Y-38759488D01*
X58312488Y-38687017D01*
X58312489Y-38687017D01*
X58301006Y-38683940D01*
X58172475Y-38649500D01*
X58027525Y-38649500D01*
X57898993Y-38683940D01*
X57887511Y-38687017D01*
X57761988Y-38759488D01*
X57761982Y-38759493D01*
X57659493Y-38861982D01*
X57659488Y-38861988D01*
X57587017Y-38987511D01*
X57587016Y-38987515D01*
X57549500Y-39127525D01*
X52498771Y-39127525D01*
X52500500Y-39116611D01*
X52500500Y-38943389D01*
X52473402Y-38772299D01*
X52419873Y-38607555D01*
X52341232Y-38453212D01*
X52322569Y-38427525D01*
X77699500Y-38427525D01*
X77699500Y-38572475D01*
X77730192Y-38687016D01*
X77737017Y-38712488D01*
X77809488Y-38838011D01*
X77809490Y-38838013D01*
X77809491Y-38838015D01*
X77911985Y-38940509D01*
X77911986Y-38940510D01*
X77911988Y-38940511D01*
X78037511Y-39012982D01*
X78037512Y-39012982D01*
X78037515Y-39012984D01*
X78177525Y-39050500D01*
X78177528Y-39050500D01*
X78322472Y-39050500D01*
X78322475Y-39050500D01*
X78462485Y-39012984D01*
X78588015Y-38940509D01*
X78690509Y-38838015D01*
X78762984Y-38712485D01*
X78800500Y-38572475D01*
X78800500Y-38427525D01*
X78762984Y-38287515D01*
X78743689Y-38254096D01*
X78690511Y-38161988D01*
X78690506Y-38161982D01*
X78588017Y-38059493D01*
X78588011Y-38059488D01*
X78462488Y-37987017D01*
X78462489Y-37987017D01*
X78451006Y-37983940D01*
X78322475Y-37949500D01*
X78177525Y-37949500D01*
X78048993Y-37983940D01*
X78037511Y-37987017D01*
X77911988Y-38059488D01*
X77911982Y-38059493D01*
X77809493Y-38161982D01*
X77809488Y-38161988D01*
X77737017Y-38287511D01*
X77737016Y-38287515D01*
X77699500Y-38427525D01*
X52322569Y-38427525D01*
X52239414Y-38313072D01*
X52116928Y-38190586D01*
X51976788Y-38088768D01*
X51901682Y-38050500D01*
X51822447Y-38010128D01*
X51822446Y-38010127D01*
X51822445Y-38010127D01*
X51657701Y-37956598D01*
X51657699Y-37956597D01*
X51657698Y-37956597D01*
X51526271Y-37935781D01*
X51486611Y-37929500D01*
X51313389Y-37929500D01*
X51273728Y-37935781D01*
X51142302Y-37956597D01*
X50977552Y-38010128D01*
X50823208Y-38088770D01*
X50697385Y-38180186D01*
X50631579Y-38203666D01*
X50563525Y-38187841D01*
X50514830Y-38137735D01*
X50500500Y-38079868D01*
X50500500Y-37440131D01*
X50520185Y-37373092D01*
X50572989Y-37327337D01*
X50642147Y-37317393D01*
X50697383Y-37339812D01*
X50823212Y-37431232D01*
X50977555Y-37509873D01*
X51142299Y-37563402D01*
X51313389Y-37590500D01*
X51313390Y-37590500D01*
X51486610Y-37590500D01*
X51486611Y-37590500D01*
X51657701Y-37563402D01*
X51822445Y-37509873D01*
X51976788Y-37431232D01*
X52116928Y-37329414D01*
X52239414Y-37206928D01*
X52341232Y-37066788D01*
X52419873Y-36912445D01*
X52473402Y-36747701D01*
X52492436Y-36627525D01*
X56949500Y-36627525D01*
X56949500Y-36772475D01*
X56987005Y-36912445D01*
X56987017Y-36912488D01*
X57059488Y-37038011D01*
X57059490Y-37038013D01*
X57059491Y-37038015D01*
X57161985Y-37140509D01*
X57180328Y-37151099D01*
X57228543Y-37201667D01*
X57241765Y-37270274D01*
X57225715Y-37320485D01*
X57187017Y-37387512D01*
X57187016Y-37387514D01*
X57187016Y-37387515D01*
X57149500Y-37527525D01*
X57149500Y-37672475D01*
X57160221Y-37712485D01*
X57187017Y-37812488D01*
X57259488Y-37938011D01*
X57259490Y-37938013D01*
X57259491Y-37938015D01*
X57361985Y-38040509D01*
X57361986Y-38040510D01*
X57361988Y-38040511D01*
X57487511Y-38112982D01*
X57487512Y-38112982D01*
X57487515Y-38112984D01*
X57627525Y-38150500D01*
X57627528Y-38150500D01*
X57772472Y-38150500D01*
X57772475Y-38150500D01*
X57912485Y-38112984D01*
X58038015Y-38040509D01*
X58140509Y-37938015D01*
X58212984Y-37812485D01*
X58250500Y-37672475D01*
X58250500Y-37527525D01*
X58212984Y-37387515D01*
X58179439Y-37329414D01*
X58140511Y-37261988D01*
X58140506Y-37261982D01*
X58038017Y-37159493D01*
X58038011Y-37159488D01*
X58019670Y-37148899D01*
X57971455Y-37098331D01*
X57958234Y-37029724D01*
X57974283Y-36979515D01*
X58012984Y-36912485D01*
X58050500Y-36772475D01*
X58050500Y-36725439D01*
X70499500Y-36725439D01*
X70499500Y-36870389D01*
X70537016Y-37010399D01*
X70537017Y-37010402D01*
X70609488Y-37135925D01*
X70609490Y-37135927D01*
X70609491Y-37135929D01*
X70711985Y-37238423D01*
X70711986Y-37238424D01*
X70711988Y-37238425D01*
X70837511Y-37310896D01*
X70837512Y-37310896D01*
X70837515Y-37310898D01*
X70977525Y-37348414D01*
X70977528Y-37348414D01*
X71122472Y-37348414D01*
X71122475Y-37348414D01*
X71262485Y-37310898D01*
X71388015Y-37238423D01*
X71464820Y-37161617D01*
X71526139Y-37128135D01*
X71595831Y-37133119D01*
X71651765Y-37174990D01*
X71676182Y-37240454D01*
X71661331Y-37308727D01*
X71659885Y-37311301D01*
X71587017Y-37437511D01*
X71587016Y-37437515D01*
X71549500Y-37577525D01*
X71549500Y-37722475D01*
X71580460Y-37838017D01*
X71587017Y-37862488D01*
X71659488Y-37988011D01*
X71659490Y-37988013D01*
X71659491Y-37988015D01*
X71761985Y-38090509D01*
X71761986Y-38090510D01*
X71761988Y-38090511D01*
X71887511Y-38162982D01*
X71887512Y-38162982D01*
X71887515Y-38162984D01*
X72027525Y-38200500D01*
X72027528Y-38200500D01*
X72172472Y-38200500D01*
X72172475Y-38200500D01*
X72312485Y-38162984D01*
X72438015Y-38090509D01*
X72540509Y-37988015D01*
X72612984Y-37862485D01*
X72650500Y-37722475D01*
X72650500Y-37577525D01*
X72612984Y-37437515D01*
X72609356Y-37431232D01*
X72540511Y-37311988D01*
X72540506Y-37311982D01*
X72438017Y-37209493D01*
X72438015Y-37209491D01*
X72355738Y-37161988D01*
X72312340Y-37136932D01*
X72264124Y-37086365D01*
X72250902Y-37017758D01*
X72276870Y-36952893D01*
X72286647Y-36941876D01*
X72290509Y-36938015D01*
X72362984Y-36812485D01*
X72400500Y-36672475D01*
X72400500Y-36527525D01*
X72362984Y-36387515D01*
X72362982Y-36387511D01*
X72359454Y-36381400D01*
X72359453Y-36381399D01*
X72345598Y-36357402D01*
X72328349Y-36327525D01*
X74349500Y-36327525D01*
X74349500Y-36472475D01*
X74383670Y-36599998D01*
X74387017Y-36612488D01*
X74459488Y-36738011D01*
X74459490Y-36738013D01*
X74459491Y-36738015D01*
X74561985Y-36840509D01*
X74686656Y-36912488D01*
X74687659Y-36913067D01*
X74735875Y-36963634D01*
X74749098Y-37032241D01*
X74723130Y-37097106D01*
X74713341Y-37108135D01*
X74659488Y-37161988D01*
X74587017Y-37287511D01*
X74587016Y-37287515D01*
X74549500Y-37427525D01*
X74549500Y-37572475D01*
X74587016Y-37712485D01*
X74587017Y-37712488D01*
X74659488Y-37838011D01*
X74659490Y-37838013D01*
X74659491Y-37838015D01*
X74761985Y-37940509D01*
X74761986Y-37940510D01*
X74761988Y-37940511D01*
X74887511Y-38012982D01*
X74887512Y-38012982D01*
X74887515Y-38012984D01*
X75027525Y-38050500D01*
X75027528Y-38050500D01*
X75172472Y-38050500D01*
X75172475Y-38050500D01*
X75312485Y-38012984D01*
X75438015Y-37940509D01*
X75540509Y-37838015D01*
X75612984Y-37712485D01*
X75650500Y-37572475D01*
X75650500Y-37427525D01*
X75612984Y-37287515D01*
X75598244Y-37261985D01*
X75540511Y-37161988D01*
X75540506Y-37161982D01*
X75438017Y-37059493D01*
X75438015Y-37059491D01*
X75352991Y-37010402D01*
X75312340Y-36986932D01*
X75264124Y-36936365D01*
X75250902Y-36867758D01*
X75276870Y-36802893D01*
X75286643Y-36791880D01*
X75340509Y-36738015D01*
X75412984Y-36612485D01*
X75450500Y-36472475D01*
X75450500Y-36327525D01*
X75412984Y-36187515D01*
X75405940Y-36175315D01*
X75340511Y-36061988D01*
X75340506Y-36061982D01*
X75238017Y-35959493D01*
X75238011Y-35959488D01*
X75112488Y-35887017D01*
X75112489Y-35887017D01*
X75101006Y-35883940D01*
X74972475Y-35849500D01*
X74827525Y-35849500D01*
X74698993Y-35883940D01*
X74687511Y-35887017D01*
X74561988Y-35959488D01*
X74561982Y-35959493D01*
X74459493Y-36061982D01*
X74459488Y-36061988D01*
X74387017Y-36187511D01*
X74387016Y-36187515D01*
X74349500Y-36327525D01*
X72328349Y-36327525D01*
X72290509Y-36261985D01*
X72188015Y-36159491D01*
X72188013Y-36159490D01*
X72188011Y-36159488D01*
X72062488Y-36087017D01*
X72062489Y-36087017D01*
X72051006Y-36083940D01*
X71922475Y-36049500D01*
X71777525Y-36049500D01*
X71648993Y-36083940D01*
X71637511Y-36087017D01*
X71511988Y-36159488D01*
X71511981Y-36159494D01*
X71408415Y-36263059D01*
X71347092Y-36296543D01*
X71277400Y-36291558D01*
X71269480Y-36287827D01*
X71262489Y-36284931D01*
X71251006Y-36281854D01*
X71122475Y-36247414D01*
X70977525Y-36247414D01*
X70848993Y-36281854D01*
X70837511Y-36284931D01*
X70711988Y-36357402D01*
X70711982Y-36357407D01*
X70609493Y-36459896D01*
X70609488Y-36459902D01*
X70537017Y-36585425D01*
X70537016Y-36585429D01*
X70499500Y-36725439D01*
X58050500Y-36725439D01*
X58050500Y-36627525D01*
X58012984Y-36487515D01*
X58012982Y-36487511D01*
X58012982Y-36487510D01*
X58009872Y-36480001D01*
X58012588Y-36478875D01*
X57999439Y-36424702D01*
X58022282Y-36358673D01*
X58035618Y-36342904D01*
X58038010Y-36340511D01*
X58038015Y-36340509D01*
X58140509Y-36238015D01*
X58212984Y-36112485D01*
X58250500Y-35972475D01*
X58250500Y-35827525D01*
X58212984Y-35687515D01*
X58212982Y-35687511D01*
X58209454Y-35681400D01*
X58209453Y-35681399D01*
X58190078Y-35647841D01*
X58178349Y-35627525D01*
X59649500Y-35627525D01*
X59649500Y-35772475D01*
X59670139Y-35849500D01*
X59687017Y-35912488D01*
X59759488Y-36038011D01*
X59759490Y-36038013D01*
X59759491Y-36038015D01*
X59861985Y-36140509D01*
X59861986Y-36140510D01*
X59861988Y-36140511D01*
X59987511Y-36212982D01*
X59987512Y-36212982D01*
X59987515Y-36212984D01*
X60127525Y-36250500D01*
X60127528Y-36250500D01*
X60272472Y-36250500D01*
X60272475Y-36250500D01*
X60412485Y-36212984D01*
X60538015Y-36140509D01*
X60640509Y-36038015D01*
X60712984Y-35912485D01*
X60750500Y-35772475D01*
X60750500Y-35627525D01*
X60712984Y-35487515D01*
X60696805Y-35459493D01*
X60640511Y-35361988D01*
X60640506Y-35361982D01*
X60538017Y-35259493D01*
X60538011Y-35259488D01*
X60412488Y-35187017D01*
X60412489Y-35187017D01*
X60401006Y-35183940D01*
X60272475Y-35149500D01*
X60127525Y-35149500D01*
X59998993Y-35183940D01*
X59987511Y-35187017D01*
X59861988Y-35259488D01*
X59861982Y-35259493D01*
X59759493Y-35361982D01*
X59759488Y-35361988D01*
X59687017Y-35487511D01*
X59687016Y-35487515D01*
X59649500Y-35627525D01*
X58178349Y-35627525D01*
X58140509Y-35561985D01*
X58038015Y-35459491D01*
X58038013Y-35459490D01*
X58038011Y-35459488D01*
X57912488Y-35387017D01*
X57912489Y-35387017D01*
X57901006Y-35383940D01*
X57772475Y-35349500D01*
X57627525Y-35349500D01*
X57498993Y-35383940D01*
X57487511Y-35387017D01*
X57361988Y-35459488D01*
X57361982Y-35459493D01*
X57259493Y-35561982D01*
X57259488Y-35561988D01*
X57187017Y-35687511D01*
X57187016Y-35687515D01*
X57149500Y-35827525D01*
X57149500Y-35972475D01*
X57173485Y-36061988D01*
X57187016Y-36112486D01*
X57190127Y-36119995D01*
X57187413Y-36121119D01*
X57200559Y-36175315D01*
X57177705Y-36241342D01*
X57164382Y-36257092D01*
X57059494Y-36361981D01*
X57059488Y-36361988D01*
X56987017Y-36487511D01*
X56987016Y-36487515D01*
X56949500Y-36627525D01*
X52492436Y-36627525D01*
X52500500Y-36576611D01*
X52500500Y-36403389D01*
X52473402Y-36232299D01*
X52419873Y-36067555D01*
X52341232Y-35913212D01*
X52239414Y-35773072D01*
X52116928Y-35650586D01*
X51976788Y-35548768D01*
X51822445Y-35470127D01*
X51657701Y-35416598D01*
X51657699Y-35416597D01*
X51657698Y-35416597D01*
X51526271Y-35395781D01*
X51486611Y-35389500D01*
X51313389Y-35389500D01*
X51273728Y-35395781D01*
X51142302Y-35416597D01*
X50977552Y-35470128D01*
X50823208Y-35548770D01*
X50697385Y-35640186D01*
X50631579Y-35663666D01*
X50563525Y-35647841D01*
X50514830Y-35597735D01*
X50500500Y-35539868D01*
X50500500Y-34527525D01*
X61649500Y-34527525D01*
X61649500Y-34672475D01*
X61650854Y-34677527D01*
X61687017Y-34812488D01*
X61759488Y-34938011D01*
X61759490Y-34938013D01*
X61759491Y-34938015D01*
X61861985Y-35040509D01*
X61861986Y-35040510D01*
X61861988Y-35040511D01*
X61987511Y-35112982D01*
X61987512Y-35112982D01*
X61987515Y-35112984D01*
X62127525Y-35150500D01*
X62127528Y-35150500D01*
X62272472Y-35150500D01*
X62272475Y-35150500D01*
X62412485Y-35112984D01*
X62538015Y-35040509D01*
X62640509Y-34938015D01*
X62712984Y-34812485D01*
X62749147Y-34677525D01*
X65449500Y-34677525D01*
X65449500Y-34822475D01*
X65480460Y-34938017D01*
X65487017Y-34962488D01*
X65559488Y-35088011D01*
X65559490Y-35088013D01*
X65559491Y-35088015D01*
X65661985Y-35190509D01*
X65661986Y-35190510D01*
X65661988Y-35190511D01*
X65787511Y-35262982D01*
X65787512Y-35262982D01*
X65787515Y-35262984D01*
X65927525Y-35300500D01*
X65927528Y-35300500D01*
X66072472Y-35300500D01*
X66072475Y-35300500D01*
X66212485Y-35262984D01*
X66338015Y-35190509D01*
X66440509Y-35088015D01*
X66512984Y-34962485D01*
X66550500Y-34822475D01*
X66550500Y-34677525D01*
X66512984Y-34537515D01*
X66507217Y-34527527D01*
X66440511Y-34411988D01*
X66440506Y-34411982D01*
X66338017Y-34309493D01*
X66338011Y-34309488D01*
X66212488Y-34237017D01*
X66212489Y-34237017D01*
X66182696Y-34229034D01*
X66072475Y-34199500D01*
X65927525Y-34199500D01*
X65817304Y-34229034D01*
X65787511Y-34237017D01*
X65661988Y-34309488D01*
X65661982Y-34309493D01*
X65559493Y-34411982D01*
X65559488Y-34411988D01*
X65487017Y-34537511D01*
X65487016Y-34537515D01*
X65449500Y-34677525D01*
X62749147Y-34677525D01*
X62750500Y-34672475D01*
X62750500Y-34527525D01*
X62712984Y-34387515D01*
X62686799Y-34342162D01*
X62640511Y-34261988D01*
X62640506Y-34261982D01*
X62538017Y-34159493D01*
X62538011Y-34159488D01*
X62412488Y-34087017D01*
X62412489Y-34087017D01*
X62401006Y-34083940D01*
X62272475Y-34049500D01*
X62127525Y-34049500D01*
X61998993Y-34083940D01*
X61987511Y-34087017D01*
X61861988Y-34159488D01*
X61861982Y-34159493D01*
X61759493Y-34261982D01*
X61759488Y-34261988D01*
X61687017Y-34387511D01*
X61682583Y-34404055D01*
X61649500Y-34527525D01*
X50500500Y-34527525D01*
X50500500Y-34121904D01*
X50520185Y-34054865D01*
X50572989Y-34009110D01*
X50642147Y-33999166D01*
X50697387Y-34021587D01*
X50713567Y-34033343D01*
X50810915Y-34082944D01*
X50924003Y-34140566D01*
X50924005Y-34140566D01*
X50924008Y-34140568D01*
X51044412Y-34179689D01*
X51148631Y-34213553D01*
X51381903Y-34250500D01*
X51381908Y-34250500D01*
X51618097Y-34250500D01*
X51851368Y-34213553D01*
X51884268Y-34202863D01*
X52075992Y-34140568D01*
X52286433Y-34033343D01*
X52477510Y-33894517D01*
X52644517Y-33727510D01*
X52783343Y-33536433D01*
X52890568Y-33325992D01*
X52963553Y-33101368D01*
X52972093Y-33047447D01*
X53000500Y-32868097D01*
X53000500Y-32631902D01*
X52963553Y-32398631D01*
X52916810Y-32254773D01*
X52890568Y-32174008D01*
X52890566Y-32174005D01*
X52890566Y-32174003D01*
X52783342Y-31963566D01*
X52743021Y-31908069D01*
X52662603Y-31797384D01*
X52639124Y-31731578D01*
X52654949Y-31663524D01*
X52705055Y-31614829D01*
X52762922Y-31600499D01*
X58688797Y-31600499D01*
X58755836Y-31620184D01*
G37*
%TD.AperFunction*%
%TD*%
M02*
