%TF.GenerationSoftware,KiCad,Pcbnew,9.0.4*%
%TF.CreationDate,2025-10-30T10:52:48-04:00*%
%TF.ProjectId,SERVO-ESC,53455256-4f2d-4455-9343-2e6b69636164,rev?*%
%TF.SameCoordinates,Original*%
%TF.FileFunction,Copper,L1,Top*%
%TF.FilePolarity,Positive*%
%FSLAX46Y46*%
G04 Gerber Fmt 4.6, Leading zero omitted, Abs format (unit mm)*
G04 Created by KiCad (PCBNEW 9.0.4) date 2025-10-30 10:52:48*
%MOMM*%
%LPD*%
G01*
G04 APERTURE LIST*
G04 Aperture macros list*
%AMRoundRect*
0 Rectangle with rounded corners*
0 $1 Rounding radius*
0 $2 $3 $4 $5 $6 $7 $8 $9 X,Y pos of 4 corners*
0 Add a 4 corners polygon primitive as box body*
4,1,4,$2,$3,$4,$5,$6,$7,$8,$9,$2,$3,0*
0 Add four circle primitives for the rounded corners*
1,1,$1+$1,$2,$3*
1,1,$1+$1,$4,$5*
1,1,$1+$1,$6,$7*
1,1,$1+$1,$8,$9*
0 Add four rect primitives between the rounded corners*
20,1,$1+$1,$2,$3,$4,$5,0*
20,1,$1+$1,$4,$5,$6,$7,0*
20,1,$1+$1,$6,$7,$8,$9,0*
20,1,$1+$1,$8,$9,$2,$3,0*%
G04 Aperture macros list end*
%TA.AperFunction,SMDPad,CuDef*%
%ADD10RoundRect,0.147500X-0.172500X0.147500X-0.172500X-0.147500X0.172500X-0.147500X0.172500X0.147500X0*%
%TD*%
%TA.AperFunction,SMDPad,CuDef*%
%ADD11RoundRect,0.140000X-0.140000X-0.170000X0.140000X-0.170000X0.140000X0.170000X-0.140000X0.170000X0*%
%TD*%
%TA.AperFunction,SMDPad,CuDef*%
%ADD12RoundRect,0.150000X-0.725000X-0.150000X0.725000X-0.150000X0.725000X0.150000X-0.725000X0.150000X0*%
%TD*%
%TA.AperFunction,ViaPad*%
%ADD13C,0.600000*%
%TD*%
%TA.AperFunction,Conductor*%
%ADD14C,0.200000*%
%TD*%
G04 APERTURE END LIST*
D10*
%TO.P,D1,1,K*%
%TO.N,GND*%
X66700000Y-22915000D03*
%TO.P,D1,2,A*%
%TO.N,+3.3V*%
X66700000Y-23885000D03*
%TD*%
D11*
%TO.P,C13,2*%
%TO.N,GND*%
X69980000Y-26000000D03*
%TO.P,C13,1*%
%TO.N,+3.3V*%
X69020000Y-26000000D03*
%TD*%
D12*
%TO.P,IC4,8,GND*%
%TO.N,GND*%
X73775000Y-20795000D03*
%TO.P,IC4,7,Z/W*%
%TO.N,MAG-SCLK*%
X73775000Y-22065000D03*
%TO.P,IC4,6,B/V*%
%TO.N,MAG-MISO*%
X73775000Y-23335000D03*
%TO.P,IC4,5,A/U*%
%TO.N,MAG-MOSI*%
X73775000Y-24605000D03*
%TO.P,IC4,4,VDD*%
%TO.N,+3.3V*%
X68625000Y-24605000D03*
%TO.P,IC4,3,OUT*%
%TO.N,unconnected-(IC4-OUT-Pad3)*%
X68625000Y-23335000D03*
%TO.P,IC4,2,HVPP*%
%TO.N,unconnected-(IC4-HVPP-Pad2)*%
X68625000Y-22065000D03*
%TO.P,IC4,1,~{CS}*%
%TO.N,GND*%
X68625000Y-20795000D03*
%TD*%
D13*
%TO.N,+3.3V*%
X66730000Y-24600000D03*
%TO.N,GND*%
X70030000Y-20870000D03*
%TO.N,MAG-MISO*%
X75150000Y-23400000D03*
%TO.N,+3.3V*%
X69000000Y-26900000D03*
%TO.N,GND*%
X66700000Y-20800000D03*
%TO.N,MAG-SCLK*%
X75500000Y-22500000D03*
%TO.N,MAG-MOSI*%
X75150000Y-24605000D03*
%TO.N,GND*%
X73130000Y-19400000D03*
%TD*%
D14*
%TO.N,MAG-MISO*%
X73775000Y-23335000D02*
X75085000Y-23335000D01*
%TO.N,GND*%
X66700000Y-20800000D02*
X68620000Y-20800000D01*
X66700000Y-20800000D02*
X66700000Y-22915000D01*
%TO.N,MAG-MISO*%
X75085000Y-23335000D02*
X75150000Y-23400000D01*
%TO.N,GND*%
X68620000Y-20800000D02*
X68625000Y-20795000D01*
%TO.N,MAG-SCLK*%
X75500000Y-22500000D02*
X75500000Y-22430000D01*
X75135000Y-22065000D02*
X73775000Y-22065000D01*
%TO.N,GND*%
X68625000Y-20795000D02*
X69955000Y-20795000D01*
%TO.N,+3.3V*%
X68530000Y-24700000D02*
X68625000Y-24605000D01*
%TO.N,MAG-MOSI*%
X73775000Y-24605000D02*
X75150000Y-24605000D01*
%TO.N,+3.3V*%
X66730000Y-23915000D02*
X66700000Y-23885000D01*
X68005000Y-24605000D02*
X67285000Y-23885000D01*
X66730000Y-24600000D02*
X66730000Y-23915000D01*
X68625000Y-24605000D02*
X68625000Y-25775000D01*
X69000000Y-26020000D02*
X69020000Y-26000000D01*
X67285000Y-23885000D02*
X66700000Y-23885000D01*
X68625000Y-25775000D02*
X69050000Y-26200000D01*
%TO.N,GND*%
X73130000Y-20795000D02*
X73775000Y-20795000D01*
X69955000Y-20795000D02*
X70030000Y-20870000D01*
X73130000Y-19400000D02*
X73130000Y-20795000D01*
%TO.N,+3.3V*%
X69000000Y-26900000D02*
X69000000Y-26020000D01*
%TO.N,MAG-SCLK*%
X75500000Y-22430000D02*
X75135000Y-22065000D01*
%TO.N,+3.3V*%
X68625000Y-24605000D02*
X68005000Y-24605000D01*
%TD*%
%TA.AperFunction,Conductor*%
%TO.N,GND*%
G36*
X74254152Y-18220185D02*
G01*
X74299907Y-18272989D01*
X74309851Y-18342147D01*
X74287432Y-18397383D01*
X74250501Y-18448215D01*
X74180476Y-18544594D01*
X74091117Y-18719970D01*
X74030290Y-18907173D01*
X73999500Y-19101577D01*
X73999500Y-19298422D01*
X74030290Y-19492826D01*
X74091117Y-19680029D01*
X74180476Y-19855405D01*
X74296172Y-20014646D01*
X74435354Y-20153828D01*
X74594595Y-20269524D01*
X74677455Y-20311743D01*
X74769970Y-20358882D01*
X74769972Y-20358882D01*
X74769975Y-20358884D01*
X74870317Y-20391487D01*
X74957173Y-20419709D01*
X75151578Y-20450500D01*
X75151583Y-20450500D01*
X75348422Y-20450500D01*
X75542826Y-20419709D01*
X75730025Y-20358884D01*
X75905405Y-20269524D01*
X76052616Y-20162568D01*
X76118420Y-20139089D01*
X76186474Y-20154914D01*
X76235169Y-20205020D01*
X76249500Y-20262887D01*
X76249500Y-21818059D01*
X76229815Y-21885098D01*
X76177011Y-21930853D01*
X76107853Y-21940797D01*
X76044297Y-21911772D01*
X76037819Y-21905740D01*
X76010292Y-21878213D01*
X76010288Y-21878210D01*
X75879185Y-21790609D01*
X75879172Y-21790602D01*
X75733501Y-21730264D01*
X75733491Y-21730261D01*
X75665532Y-21716743D01*
X75603621Y-21684358D01*
X75602043Y-21682807D01*
X75503717Y-21584481D01*
X75503709Y-21584475D01*
X75380143Y-21513135D01*
X75380140Y-21513134D01*
X75380131Y-21513129D01*
X75366785Y-21505423D01*
X75214057Y-21464499D01*
X75055943Y-21464499D01*
X75048347Y-21464499D01*
X75048331Y-21464500D01*
X75020808Y-21464500D01*
X74953769Y-21444815D01*
X74933126Y-21428180D01*
X74901870Y-21396923D01*
X74901862Y-21396917D01*
X74760396Y-21313255D01*
X74760393Y-21313254D01*
X74602573Y-21267402D01*
X74602567Y-21267401D01*
X74565701Y-21264500D01*
X74565694Y-21264500D01*
X72984306Y-21264500D01*
X72984298Y-21264500D01*
X72947432Y-21267401D01*
X72947426Y-21267402D01*
X72789606Y-21313254D01*
X72789603Y-21313255D01*
X72648137Y-21396917D01*
X72648129Y-21396923D01*
X72531923Y-21513129D01*
X72531919Y-21513135D01*
X72448255Y-21654603D01*
X72448254Y-21654606D01*
X72402402Y-21812426D01*
X72402401Y-21812432D01*
X72399500Y-21849298D01*
X72399500Y-22280701D01*
X72402401Y-22317567D01*
X72402402Y-22317573D01*
X72448254Y-22475393D01*
X72448255Y-22475396D01*
X72531917Y-22616862D01*
X72536702Y-22623031D01*
X72534256Y-22624927D01*
X72560857Y-22673642D01*
X72555873Y-22743334D01*
X72535069Y-22775703D01*
X72536702Y-22776969D01*
X72531917Y-22783137D01*
X72448255Y-22924603D01*
X72448254Y-22924606D01*
X72402402Y-23082426D01*
X72402401Y-23082432D01*
X72399500Y-23119298D01*
X72399500Y-23550701D01*
X72402401Y-23587567D01*
X72402402Y-23587573D01*
X72448254Y-23745393D01*
X72448255Y-23745396D01*
X72448256Y-23745398D01*
X72485681Y-23808681D01*
X72531917Y-23886862D01*
X72536702Y-23893031D01*
X72534256Y-23894927D01*
X72560857Y-23943642D01*
X72555873Y-24013334D01*
X72535069Y-24045703D01*
X72536702Y-24046969D01*
X72531917Y-24053137D01*
X72448255Y-24194603D01*
X72448254Y-24194606D01*
X72402402Y-24352426D01*
X72402401Y-24352432D01*
X72399500Y-24389298D01*
X72399500Y-24820701D01*
X72402401Y-24857567D01*
X72402402Y-24857573D01*
X72448254Y-25015393D01*
X72448255Y-25015396D01*
X72531917Y-25156862D01*
X72531923Y-25156870D01*
X72648129Y-25273076D01*
X72648133Y-25273079D01*
X72648135Y-25273081D01*
X72789602Y-25356744D01*
X72803432Y-25360762D01*
X72947426Y-25402597D01*
X72947429Y-25402597D01*
X72947431Y-25402598D01*
X72984306Y-25405500D01*
X74048999Y-25405500D01*
X74116038Y-25425185D01*
X74161793Y-25477989D01*
X74171737Y-25547147D01*
X74159484Y-25585795D01*
X74091117Y-25719970D01*
X74030290Y-25907173D01*
X73999500Y-26101577D01*
X73999500Y-26298422D01*
X74030290Y-26492826D01*
X74091117Y-26680029D01*
X74163024Y-26821153D01*
X74180476Y-26855405D01*
X74287431Y-27002616D01*
X74310911Y-27068420D01*
X74295086Y-27136474D01*
X74244980Y-27185169D01*
X74187113Y-27199500D01*
X69907703Y-27199500D01*
X69840664Y-27179815D01*
X69794909Y-27127011D01*
X69784965Y-27057853D01*
X69786086Y-27051309D01*
X69800499Y-26978846D01*
X69800500Y-26978844D01*
X69800500Y-26821155D01*
X69800499Y-26821153D01*
X69769737Y-26666503D01*
X69727854Y-26565389D01*
X69720386Y-26495921D01*
X69735684Y-26454818D01*
X69752494Y-26426395D01*
X69789674Y-26298422D01*
X69797642Y-26270997D01*
X69797643Y-26270991D01*
X69800499Y-26234697D01*
X69800500Y-26234690D01*
X69800500Y-25765310D01*
X69797643Y-25729007D01*
X69795017Y-25719970D01*
X69764400Y-25614587D01*
X69752494Y-25573605D01*
X69683775Y-25457408D01*
X69666593Y-25389686D01*
X69688753Y-25323424D01*
X69727386Y-25287557D01*
X69751865Y-25273081D01*
X69868081Y-25156865D01*
X69951744Y-25015398D01*
X69997598Y-24857569D01*
X70000500Y-24820694D01*
X70000500Y-24389306D01*
X69997598Y-24352431D01*
X69951744Y-24194602D01*
X69868081Y-24053135D01*
X69868078Y-24053132D01*
X69863298Y-24046969D01*
X69865750Y-24045066D01*
X69839155Y-23996421D01*
X69844104Y-23926726D01*
X69864940Y-23894304D01*
X69863298Y-23893031D01*
X69868075Y-23886870D01*
X69868081Y-23886865D01*
X69951744Y-23745398D01*
X69997598Y-23587569D01*
X70000500Y-23550694D01*
X70000500Y-23119306D01*
X69997598Y-23082431D01*
X69993640Y-23068809D01*
X69951745Y-22924606D01*
X69951744Y-22924602D01*
X69868081Y-22783135D01*
X69868078Y-22783132D01*
X69863298Y-22776969D01*
X69865750Y-22775066D01*
X69839155Y-22726421D01*
X69844104Y-22656726D01*
X69864940Y-22624304D01*
X69863298Y-22623031D01*
X69868075Y-22616870D01*
X69868081Y-22616865D01*
X69951744Y-22475398D01*
X69997598Y-22317569D01*
X70000500Y-22280694D01*
X70000500Y-21849306D01*
X69997598Y-21812431D01*
X69991257Y-21790606D01*
X69951745Y-21654606D01*
X69951744Y-21654603D01*
X69951744Y-21654602D01*
X69868081Y-21513135D01*
X69868080Y-21513134D01*
X69868076Y-21513129D01*
X69751870Y-21396923D01*
X69751862Y-21396917D01*
X69610396Y-21313255D01*
X69610393Y-21313254D01*
X69452573Y-21267402D01*
X69452567Y-21267401D01*
X69415701Y-21264500D01*
X69415694Y-21264500D01*
X67834306Y-21264500D01*
X67834298Y-21264500D01*
X67797432Y-21267401D01*
X67797426Y-21267402D01*
X67639606Y-21313254D01*
X67639603Y-21313255D01*
X67498137Y-21396917D01*
X67498129Y-21396923D01*
X67381923Y-21513129D01*
X67381919Y-21513135D01*
X67298255Y-21654603D01*
X67298254Y-21654606D01*
X67252402Y-21812426D01*
X67252401Y-21812432D01*
X67249500Y-21849298D01*
X67249500Y-22280701D01*
X67252401Y-22317567D01*
X67252402Y-22317573D01*
X67298254Y-22475393D01*
X67298255Y-22475396D01*
X67381917Y-22616862D01*
X67386702Y-22623031D01*
X67384256Y-22624927D01*
X67410857Y-22673642D01*
X67405873Y-22743334D01*
X67385069Y-22775703D01*
X67386702Y-22776969D01*
X67381917Y-22783137D01*
X67298255Y-22924603D01*
X67298254Y-22924604D01*
X67262710Y-23046947D01*
X67225103Y-23105832D01*
X67161630Y-23135038D01*
X67109039Y-23131427D01*
X66974679Y-23092391D01*
X66974673Y-23092390D01*
X66937947Y-23089500D01*
X66937940Y-23089500D01*
X66462060Y-23089500D01*
X66462052Y-23089500D01*
X66425326Y-23092390D01*
X66309094Y-23126159D01*
X66239225Y-23125959D01*
X66180555Y-23088016D01*
X66151712Y-23024378D01*
X66150500Y-23007082D01*
X66150500Y-20262887D01*
X66170185Y-20195848D01*
X66222989Y-20150093D01*
X66292147Y-20140149D01*
X66347383Y-20162567D01*
X66494595Y-20269524D01*
X66577455Y-20311743D01*
X66669970Y-20358882D01*
X66669972Y-20358882D01*
X66669975Y-20358884D01*
X66770317Y-20391487D01*
X66857173Y-20419709D01*
X67051578Y-20450500D01*
X67051583Y-20450500D01*
X67248422Y-20450500D01*
X67442826Y-20419709D01*
X67630025Y-20358884D01*
X67805405Y-20269524D01*
X67964646Y-20153828D01*
X68103828Y-20014646D01*
X68219524Y-19855405D01*
X68308884Y-19680025D01*
X68369709Y-19492826D01*
X68400500Y-19298422D01*
X68400500Y-19101577D01*
X68369709Y-18907173D01*
X68308882Y-18719970D01*
X68219523Y-18544594D01*
X68149499Y-18448215D01*
X68112568Y-18397383D01*
X68089089Y-18331580D01*
X68104914Y-18263526D01*
X68155020Y-18214831D01*
X68212887Y-18200500D01*
X74187113Y-18200500D01*
X74254152Y-18220185D01*
G37*
%TD.AperFunction*%
%TD*%
M02*
