%TF.GenerationSoftware,KiCad,Pcbnew,9.0.4*%
%TF.CreationDate,2025-10-30T10:52:48-04:00*%
%TF.ProjectId,SERVO-ESC,53455256-4f2d-4455-9343-2e6b69636164,rev?*%
%TF.SameCoordinates,Original*%
%TF.FileFunction,Legend,Bot*%
%TF.FilePolarity,Positive*%
%FSLAX46Y46*%
G04 Gerber Fmt 4.6, Leading zero omitted, Abs format (unit mm)*
G04 Created by KiCad (PCBNEW 9.0.4) date 2025-10-30 10:52:48*
%MOMM*%
%LPD*%
G01*
G04 APERTURE LIST*
%ADD10C,0.150000*%
%ADD11C,0.120000*%
G04 APERTURE END LIST*
D10*
G36*
X71446746Y-26492128D02*
G01*
X71449242Y-26543420D01*
X71456332Y-26588299D01*
X71469596Y-26629405D01*
X71489122Y-26662670D01*
X71515721Y-26689622D01*
X71550244Y-26710054D01*
X71590853Y-26722224D01*
X71644155Y-26726723D01*
X71682135Y-26723792D01*
X71716634Y-26716099D01*
X71743928Y-26705840D01*
X71759316Y-26696254D01*
X71765422Y-26688072D01*
X71769513Y-26678180D01*
X71771955Y-26663892D01*
X71772627Y-26643070D01*
X71771589Y-26618157D01*
X71767864Y-26602465D01*
X71761392Y-26594282D01*
X71752110Y-26591901D01*
X71738127Y-26596786D01*
X71717611Y-26607533D01*
X71689951Y-26618279D01*
X71653070Y-26623164D01*
X71613441Y-26617363D01*
X71598551Y-26609215D01*
X71586086Y-26595870D01*
X71576950Y-26578293D01*
X71569722Y-26552578D01*
X71564227Y-26480648D01*
X71564227Y-25849036D01*
X71561540Y-25840183D01*
X71551953Y-25833405D01*
X71533879Y-25829314D01*
X71505486Y-25827909D01*
X71477520Y-25829314D01*
X71459385Y-25833405D01*
X71449860Y-25840183D01*
X71446746Y-25849036D01*
X71446746Y-26492128D01*
G37*
G36*
X70707545Y-26461720D02*
G01*
X70713016Y-26520269D01*
X70728733Y-26571079D01*
X70754514Y-26616349D01*
X70789488Y-26654549D01*
X70832834Y-26684757D01*
X70887185Y-26707978D01*
X70947514Y-26721820D01*
X71018344Y-26726723D01*
X71061936Y-26724896D01*
X71101325Y-26719640D01*
X71170019Y-26702787D01*
X71219905Y-26682515D01*
X71244818Y-26667311D01*
X71252634Y-26657847D01*
X71257458Y-26646367D01*
X71260511Y-26629820D01*
X71261549Y-26605823D01*
X71256786Y-26572056D01*
X71250779Y-26564839D01*
X71243108Y-26562592D01*
X71218867Y-26573278D01*
X71172400Y-26596297D01*
X71106149Y-26619317D01*
X71066974Y-26627219D01*
X71021763Y-26630003D01*
X70978245Y-26626949D01*
X70942506Y-26618463D01*
X70910614Y-26604197D01*
X70885170Y-26585734D01*
X70864805Y-26562629D01*
X70850305Y-26535664D01*
X70841665Y-26505788D01*
X70838703Y-26472711D01*
X70842489Y-26436624D01*
X70853419Y-26405300D01*
X70871312Y-26377583D01*
X70896406Y-26353520D01*
X70927190Y-26334670D01*
X70966076Y-26320181D01*
X71009002Y-26311633D01*
X71059987Y-26308579D01*
X71144007Y-26308579D01*
X71154631Y-26306198D01*
X71163546Y-26298382D01*
X71169652Y-26284033D01*
X71172034Y-26260830D01*
X71170019Y-26239337D01*
X71164218Y-26225659D01*
X71155669Y-26218148D01*
X71144739Y-26215767D01*
X71067498Y-26215767D01*
X71023828Y-26212718D01*
X70986592Y-26204105D01*
X70952960Y-26189535D01*
X70925776Y-26170338D01*
X70903770Y-26146167D01*
X70887552Y-26117704D01*
X70877626Y-26085774D01*
X70874179Y-26049193D01*
X70876426Y-26022159D01*
X70883094Y-25996559D01*
X70894237Y-25972952D01*
X70909717Y-25952840D01*
X70929562Y-25936472D01*
X70955146Y-25923592D01*
X70984138Y-25915714D01*
X71019015Y-25912906D01*
X71057550Y-25915985D01*
X71091800Y-25924874D01*
X71150846Y-25950519D01*
X71193893Y-25976165D01*
X71217829Y-25988133D01*
X71226378Y-25986423D01*
X71232484Y-25979645D01*
X71235903Y-25965296D01*
X71236941Y-25941055D01*
X71236269Y-25922981D01*
X71233522Y-25909303D01*
X71228759Y-25898740D01*
X71219539Y-25887505D01*
X71193222Y-25868759D01*
X71144373Y-25844518D01*
X71077451Y-25824368D01*
X71038694Y-25818293D01*
X70995812Y-25816186D01*
X70936523Y-25820371D01*
X70887857Y-25832001D01*
X70844533Y-25851427D01*
X70810310Y-25876575D01*
X70783209Y-25908174D01*
X70763904Y-25945573D01*
X70752484Y-25987153D01*
X70748517Y-26034417D01*
X70751320Y-26075297D01*
X70759446Y-26112269D01*
X70773084Y-26146534D01*
X70791564Y-26176139D01*
X70814967Y-26201736D01*
X70843466Y-26223461D01*
X70876056Y-26239809D01*
X70914480Y-26250572D01*
X70914480Y-26251915D01*
X70870237Y-26260132D01*
X70830826Y-26274752D01*
X70795223Y-26295353D01*
X70765614Y-26320059D01*
X70741328Y-26349504D01*
X70722932Y-26383745D01*
X70711437Y-26421237D01*
X70707545Y-26461720D01*
G37*
D11*
%TO.C,J3*%
X67590000Y-24685000D02*
X68640000Y-24685000D01*
X67590000Y-22185000D02*
X67590000Y-24685000D01*
X68640000Y-24685000D02*
X68640000Y-25675000D01*
X68760000Y-20215000D02*
X73640000Y-20215000D01*
X74810000Y-24685000D02*
X73760000Y-24685000D01*
X74810000Y-22185000D02*
X74810000Y-24685000D01*
%TD*%
M02*
