%TF.GenerationSoftware,KiCad,Pcbnew,9.0.4*%
%TF.CreationDate,2025-10-30T10:52:48-04:00*%
%TF.ProjectId,SERVO-ESC,53455256-4f2d-4455-9343-2e6b69636164,rev?*%
%TF.SameCoordinates,Original*%
%TF.FileFunction,Copper,L2,Inr*%
%TF.FilePolarity,Positive*%
%FSLAX46Y46*%
G04 Gerber Fmt 4.6, Leading zero omitted, Abs format (unit mm)*
G04 Created by KiCad (PCBNEW 9.0.4) date 2025-10-30 10:52:48*
%MOMM*%
%LPD*%
G01*
G04 APERTURE LIST*
%TA.AperFunction,ViaPad*%
%ADD10C,0.600000*%
%TD*%
G04 APERTURE END LIST*
D10*
%TO.N,+3.3V*%
X66730000Y-24600000D03*
%TO.N,GND*%
X70030000Y-20870000D03*
%TO.N,MAG-MISO*%
X75150000Y-23400000D03*
%TO.N,+3.3V*%
X69000000Y-26900000D03*
%TO.N,GND*%
X66700000Y-20800000D03*
%TO.N,MAG-SCLK*%
X75500000Y-22500000D03*
%TO.N,MAG-MOSI*%
X75150000Y-24605000D03*
%TO.N,GND*%
X73130000Y-19400000D03*
%TD*%
%TA.AperFunction,Conductor*%
%TO.N,GND*%
G36*
X74254152Y-18220185D02*
G01*
X74299907Y-18272989D01*
X74309851Y-18342147D01*
X74287432Y-18397383D01*
X74250501Y-18448215D01*
X74180476Y-18544594D01*
X74091117Y-18719970D01*
X74030290Y-18907173D01*
X73999500Y-19101577D01*
X73999500Y-19298422D01*
X74030290Y-19492826D01*
X74091117Y-19680029D01*
X74180476Y-19855405D01*
X74296172Y-20014646D01*
X74435354Y-20153828D01*
X74594595Y-20269524D01*
X74677455Y-20311743D01*
X74769970Y-20358882D01*
X74769972Y-20358882D01*
X74769975Y-20358884D01*
X74870317Y-20391487D01*
X74957173Y-20419709D01*
X75151578Y-20450500D01*
X75151583Y-20450500D01*
X75348422Y-20450500D01*
X75542826Y-20419709D01*
X75730025Y-20358884D01*
X75905405Y-20269524D01*
X76052616Y-20162568D01*
X76118420Y-20139089D01*
X76186474Y-20154914D01*
X76235169Y-20205020D01*
X76249500Y-20262887D01*
X76249500Y-21818059D01*
X76229815Y-21885098D01*
X76177011Y-21930853D01*
X76107853Y-21940797D01*
X76044297Y-21911772D01*
X76037819Y-21905740D01*
X76010292Y-21878213D01*
X76010288Y-21878210D01*
X75879185Y-21790609D01*
X75879172Y-21790602D01*
X75733501Y-21730264D01*
X75733489Y-21730261D01*
X75578845Y-21699500D01*
X75578842Y-21699500D01*
X75421158Y-21699500D01*
X75421155Y-21699500D01*
X75266510Y-21730261D01*
X75266498Y-21730264D01*
X75120827Y-21790602D01*
X75120814Y-21790609D01*
X74989711Y-21878210D01*
X74989707Y-21878213D01*
X74878213Y-21989707D01*
X74878210Y-21989711D01*
X74790609Y-22120814D01*
X74790602Y-22120827D01*
X74730264Y-22266498D01*
X74730261Y-22266510D01*
X74699500Y-22421153D01*
X74699500Y-22578840D01*
X74711326Y-22638298D01*
X74705097Y-22707890D01*
X74662234Y-22763067D01*
X74658602Y-22765588D01*
X74639709Y-22778212D01*
X74639704Y-22778217D01*
X74528213Y-22889707D01*
X74528210Y-22889711D01*
X74440609Y-23020814D01*
X74440602Y-23020827D01*
X74380264Y-23166498D01*
X74380261Y-23166510D01*
X74349500Y-23321153D01*
X74349500Y-23478846D01*
X74380261Y-23633489D01*
X74380264Y-23633501D01*
X74440602Y-23779172D01*
X74440609Y-23779185D01*
X74528210Y-23910288D01*
X74528213Y-23910292D01*
X74532740Y-23914819D01*
X74566225Y-23976142D01*
X74561241Y-24045834D01*
X74532740Y-24090181D01*
X74528213Y-24094707D01*
X74528210Y-24094711D01*
X74440609Y-24225814D01*
X74440602Y-24225827D01*
X74380264Y-24371498D01*
X74380261Y-24371510D01*
X74349500Y-24526153D01*
X74349500Y-24683846D01*
X74380261Y-24838489D01*
X74380264Y-24838501D01*
X74440602Y-24984172D01*
X74440609Y-24984185D01*
X74490499Y-25058850D01*
X74511377Y-25125528D01*
X74492892Y-25192908D01*
X74460286Y-25228056D01*
X74435360Y-25246167D01*
X74435351Y-25246174D01*
X74296174Y-25385351D01*
X74296174Y-25385352D01*
X74296172Y-25385354D01*
X74250501Y-25448215D01*
X74180476Y-25544594D01*
X74091117Y-25719970D01*
X74030290Y-25907173D01*
X73999500Y-26101577D01*
X73999500Y-26298422D01*
X74030290Y-26492826D01*
X74091117Y-26680029D01*
X74163024Y-26821153D01*
X74180476Y-26855405D01*
X74287431Y-27002616D01*
X74310911Y-27068420D01*
X74295086Y-27136474D01*
X74244980Y-27185169D01*
X74187113Y-27199500D01*
X69907703Y-27199500D01*
X69840664Y-27179815D01*
X69794909Y-27127011D01*
X69784965Y-27057853D01*
X69786086Y-27051309D01*
X69800499Y-26978846D01*
X69800500Y-26978844D01*
X69800500Y-26821155D01*
X69800499Y-26821153D01*
X69769737Y-26666503D01*
X69769735Y-26666498D01*
X69709397Y-26520827D01*
X69709390Y-26520814D01*
X69621789Y-26389711D01*
X69621786Y-26389707D01*
X69510292Y-26278213D01*
X69510288Y-26278210D01*
X69379185Y-26190609D01*
X69379172Y-26190602D01*
X69233501Y-26130264D01*
X69233489Y-26130261D01*
X69078845Y-26099500D01*
X69078842Y-26099500D01*
X68921158Y-26099500D01*
X68921155Y-26099500D01*
X68766510Y-26130261D01*
X68766498Y-26130264D01*
X68620827Y-26190602D01*
X68620816Y-26190608D01*
X68593390Y-26208934D01*
X68526712Y-26229811D01*
X68459332Y-26211326D01*
X68412643Y-26159346D01*
X68400500Y-26105831D01*
X68400500Y-26101577D01*
X68369709Y-25907173D01*
X68308882Y-25719970D01*
X68219523Y-25544594D01*
X68103828Y-25385354D01*
X67964646Y-25246172D01*
X67805405Y-25130476D01*
X67775599Y-25115289D01*
X67630029Y-25041117D01*
X67566970Y-25020628D01*
X67509295Y-24981189D01*
X67482097Y-24916831D01*
X67490728Y-24855246D01*
X67499737Y-24833497D01*
X67530500Y-24678842D01*
X67530500Y-24521158D01*
X67530500Y-24521155D01*
X67530499Y-24521153D01*
X67500733Y-24371510D01*
X67499737Y-24366503D01*
X67441468Y-24225827D01*
X67439397Y-24220827D01*
X67439390Y-24220814D01*
X67351789Y-24089711D01*
X67351786Y-24089707D01*
X67240292Y-23978213D01*
X67240288Y-23978210D01*
X67109185Y-23890609D01*
X67109172Y-23890602D01*
X66963501Y-23830264D01*
X66963489Y-23830261D01*
X66808845Y-23799500D01*
X66808842Y-23799500D01*
X66651158Y-23799500D01*
X66651155Y-23799500D01*
X66496510Y-23830261D01*
X66496498Y-23830264D01*
X66350827Y-23890602D01*
X66350816Y-23890608D01*
X66343386Y-23895573D01*
X66276707Y-23916447D01*
X66209328Y-23897959D01*
X66162640Y-23845978D01*
X66150500Y-23792467D01*
X66150500Y-20262887D01*
X66170185Y-20195848D01*
X66222989Y-20150093D01*
X66292147Y-20140149D01*
X66347383Y-20162567D01*
X66494595Y-20269524D01*
X66577455Y-20311743D01*
X66669970Y-20358882D01*
X66669972Y-20358882D01*
X66669975Y-20358884D01*
X66770317Y-20391487D01*
X66857173Y-20419709D01*
X67051578Y-20450500D01*
X67051583Y-20450500D01*
X67248422Y-20450500D01*
X67442826Y-20419709D01*
X67630025Y-20358884D01*
X67805405Y-20269524D01*
X67964646Y-20153828D01*
X68103828Y-20014646D01*
X68219524Y-19855405D01*
X68308884Y-19680025D01*
X68369709Y-19492826D01*
X68400500Y-19298422D01*
X68400500Y-19101577D01*
X68369709Y-18907173D01*
X68308882Y-18719970D01*
X68219523Y-18544594D01*
X68149499Y-18448215D01*
X68112568Y-18397383D01*
X68089089Y-18331580D01*
X68104914Y-18263526D01*
X68155020Y-18214831D01*
X68212887Y-18200500D01*
X74187113Y-18200500D01*
X74254152Y-18220185D01*
G37*
%TD.AperFunction*%
%TD*%
M02*
