%TF.GenerationSoftware,KiCad,Pcbnew,9.0.4*%
%TF.CreationDate,2025-10-30T10:52:48-04:00*%
%TF.ProjectId,SERVO-ESC,53455256-4f2d-4455-9343-2e6b69636164,rev?*%
%TF.SameCoordinates,Original*%
%TF.FileFunction,Legend,Top*%
%TF.FilePolarity,Positive*%
%FSLAX46Y46*%
G04 Gerber Fmt 4.6, Leading zero omitted, Abs format (unit mm)*
G04 Created by KiCad (PCBNEW 9.0.4) date 2025-10-30 10:52:48*
%MOMM*%
%LPD*%
G01*
G04 APERTURE LIST*
%ADD10C,0.150000*%
%ADD11C,0.100000*%
%ADD12C,0.120000*%
G04 APERTURE END LIST*
D10*
G36*
X66302660Y-21305484D02*
G01*
X66366734Y-21315699D01*
X66420351Y-21331493D01*
X66471127Y-21354588D01*
X66515171Y-21383005D01*
X66553219Y-21416795D01*
X66585760Y-21456004D01*
X66612856Y-21500724D01*
X66634552Y-21551617D01*
X66649575Y-21605096D01*
X66658952Y-21664451D01*
X66662212Y-21730464D01*
X66658673Y-21806551D01*
X66648641Y-21872906D01*
X66632842Y-21930743D01*
X66609671Y-21985757D01*
X66581078Y-22032760D01*
X66547113Y-22072709D01*
X66507205Y-22106727D01*
X66461336Y-22134816D01*
X66408749Y-22157034D01*
X66353429Y-22171997D01*
X66288787Y-22181588D01*
X66213416Y-22185000D01*
X66026204Y-22185000D01*
X66011136Y-22182434D01*
X65996467Y-22174436D01*
X65986385Y-22160862D01*
X65982484Y-22137250D01*
X65982484Y-22086325D01*
X66100026Y-22086325D01*
X66220926Y-22086325D01*
X66301897Y-22080599D01*
X66363686Y-22065198D01*
X66417297Y-22038183D01*
X66460651Y-22000413D01*
X66494154Y-21952301D01*
X66519086Y-21890931D01*
X66533343Y-21821818D01*
X66538564Y-21735104D01*
X66534002Y-21665059D01*
X66520796Y-21601748D01*
X66497690Y-21543625D01*
X66465108Y-21495013D01*
X66422582Y-21455273D01*
X66369121Y-21424794D01*
X66329571Y-21411466D01*
X66280354Y-21402707D01*
X66219522Y-21399515D01*
X66100026Y-21399515D01*
X66100026Y-22086325D01*
X65982484Y-22086325D01*
X65982484Y-21349567D01*
X65986387Y-21325966D01*
X65996467Y-21312442D01*
X66011140Y-21304397D01*
X66026204Y-21301817D01*
X66226361Y-21301817D01*
X66302660Y-21305484D01*
G37*
G36*
X67358976Y-22138288D02*
G01*
X67356900Y-22160270D01*
X67351465Y-22174680D01*
X67343589Y-22182618D01*
X67334368Y-22185000D01*
X66872566Y-22185000D01*
X66863713Y-22182618D01*
X66855836Y-22174680D01*
X66850035Y-22160270D01*
X66848020Y-22138288D01*
X66850035Y-22117039D01*
X66855164Y-22102262D01*
X66862674Y-22093347D01*
X66872566Y-22090233D01*
X67057031Y-22090233D01*
X67057031Y-21418077D01*
X66886244Y-21519682D01*
X66865422Y-21527864D01*
X66852783Y-21524811D01*
X66846310Y-21510095D01*
X66844600Y-21484145D01*
X66845577Y-21464300D01*
X66848631Y-21450622D01*
X66854431Y-21441036D01*
X66864384Y-21432854D01*
X67067961Y-21302184D01*
X67074799Y-21298825D01*
X67084997Y-21296078D01*
X67099346Y-21294368D01*
X67119862Y-21294002D01*
X67147217Y-21295406D01*
X67164253Y-21299131D01*
X67172435Y-21305298D01*
X67174512Y-21313114D01*
X67174512Y-22090233D01*
X67334368Y-22090233D01*
X67344627Y-22093347D01*
X67352442Y-22102262D01*
X67357266Y-22117039D01*
X67358976Y-22138288D01*
G37*
G36*
X71195209Y-26289337D02*
G01*
X71194537Y-26308571D01*
X71192156Y-26323042D01*
X71187699Y-26334033D01*
X71178112Y-26345757D01*
X71149475Y-26366884D01*
X71095131Y-26394544D01*
X71020698Y-26417381D01*
X70977582Y-26424299D01*
X70928801Y-26426723D01*
X70872014Y-26423380D01*
X70820446Y-26413698D01*
X70773402Y-26398025D01*
X70729292Y-26375730D01*
X70690045Y-26347557D01*
X70655188Y-26313211D01*
X70625810Y-26273935D01*
X70600728Y-26228083D01*
X70580084Y-26174787D01*
X70565886Y-26119231D01*
X70556916Y-26056297D01*
X70553766Y-25985010D01*
X70557130Y-25912017D01*
X70566761Y-25846925D01*
X70582099Y-25788822D01*
X70604160Y-25733034D01*
X70630744Y-25684642D01*
X70661722Y-25642826D01*
X70698245Y-25605973D01*
X70738976Y-25575664D01*
X70784332Y-25551540D01*
X70832819Y-25534293D01*
X70885309Y-25523722D01*
X70942479Y-25520094D01*
X71016912Y-25527360D01*
X71083834Y-25545617D01*
X71138484Y-25571079D01*
X71171640Y-25594832D01*
X71183608Y-25608937D01*
X71188065Y-25620172D01*
X71190752Y-25635560D01*
X71191790Y-25656748D01*
X71190446Y-25679951D01*
X71186355Y-25696010D01*
X71179822Y-25705596D01*
X71170663Y-25708649D01*
X71160641Y-25706000D01*
X71143979Y-25695277D01*
X71099954Y-25665662D01*
X71071193Y-25650694D01*
X71034375Y-25636109D01*
X70993610Y-25626282D01*
X70941807Y-25622676D01*
X70885113Y-25628715D01*
X70834890Y-25646306D01*
X70790535Y-25675173D01*
X70752519Y-25715732D01*
X70722832Y-25765290D01*
X70699579Y-25827534D01*
X70685781Y-25896193D01*
X70680834Y-25978415D01*
X70685621Y-26059861D01*
X70698908Y-26127220D01*
X70721615Y-26187883D01*
X70750870Y-26235298D01*
X70788631Y-26273495D01*
X70833852Y-26300938D01*
X70885332Y-26317412D01*
X70945227Y-26323164D01*
X70995877Y-26319645D01*
X71037062Y-26309914D01*
X71074595Y-26295322D01*
X71104046Y-26280177D01*
X71149475Y-26250502D01*
X71166791Y-26239860D01*
X71177440Y-26237191D01*
X71185684Y-26239267D01*
X71191118Y-26247144D01*
X71194171Y-26263325D01*
X71195209Y-26289337D01*
G37*
G36*
X71867182Y-26368288D02*
G01*
X71865106Y-26390270D01*
X71859672Y-26404680D01*
X71851795Y-26412618D01*
X71842575Y-26415000D01*
X71380773Y-26415000D01*
X71371919Y-26412618D01*
X71364042Y-26404680D01*
X71358241Y-26390270D01*
X71356226Y-26368288D01*
X71358241Y-26347039D01*
X71363370Y-26332262D01*
X71370881Y-26323347D01*
X71380773Y-26320233D01*
X71565237Y-26320233D01*
X71565237Y-25648077D01*
X71394450Y-25749682D01*
X71373629Y-25757864D01*
X71360989Y-25754811D01*
X71354517Y-25740095D01*
X71352807Y-25714145D01*
X71353784Y-25694300D01*
X71356837Y-25680622D01*
X71362638Y-25671036D01*
X71372591Y-25662854D01*
X71576167Y-25532184D01*
X71583006Y-25528825D01*
X71593203Y-25526078D01*
X71607552Y-25524368D01*
X71628069Y-25524002D01*
X71655424Y-25525406D01*
X71672460Y-25529131D01*
X71680642Y-25535298D01*
X71682718Y-25543114D01*
X71682718Y-26320233D01*
X71842575Y-26320233D01*
X71852833Y-26323347D01*
X71860649Y-26332262D01*
X71865473Y-26347039D01*
X71867182Y-26368288D01*
G37*
G36*
X72567549Y-26161720D02*
G01*
X72562077Y-26220269D01*
X72546361Y-26271079D01*
X72520580Y-26316349D01*
X72485605Y-26354549D01*
X72442259Y-26384757D01*
X72387908Y-26407978D01*
X72327580Y-26421820D01*
X72256750Y-26426723D01*
X72213157Y-26424896D01*
X72173768Y-26419640D01*
X72105075Y-26402787D01*
X72055188Y-26382515D01*
X72030275Y-26367311D01*
X72022460Y-26357847D01*
X72017636Y-26346367D01*
X72014583Y-26329820D01*
X72013545Y-26305823D01*
X72018308Y-26272056D01*
X72024314Y-26264839D01*
X72031985Y-26262592D01*
X72056226Y-26273278D01*
X72102693Y-26296297D01*
X72168944Y-26319317D01*
X72208119Y-26327219D01*
X72253330Y-26330003D01*
X72296848Y-26326949D01*
X72332587Y-26318463D01*
X72364480Y-26304197D01*
X72389923Y-26285734D01*
X72410288Y-26262629D01*
X72424789Y-26235664D01*
X72433428Y-26205788D01*
X72436390Y-26172711D01*
X72432604Y-26136624D01*
X72421675Y-26105300D01*
X72403782Y-26077583D01*
X72378688Y-26053520D01*
X72347903Y-26034670D01*
X72309018Y-26020181D01*
X72266092Y-26011633D01*
X72215106Y-26008579D01*
X72131087Y-26008579D01*
X72120462Y-26006198D01*
X72111547Y-25998382D01*
X72105441Y-25984033D01*
X72103060Y-25960830D01*
X72105075Y-25939337D01*
X72110876Y-25925659D01*
X72119424Y-25918148D01*
X72130354Y-25915767D01*
X72207596Y-25915767D01*
X72251266Y-25912718D01*
X72288501Y-25904105D01*
X72322134Y-25889535D01*
X72349318Y-25870338D01*
X72371323Y-25846167D01*
X72387542Y-25817704D01*
X72397468Y-25785774D01*
X72400914Y-25749193D01*
X72398667Y-25722159D01*
X72391999Y-25696559D01*
X72380856Y-25672952D01*
X72365377Y-25652840D01*
X72345531Y-25636472D01*
X72319947Y-25623592D01*
X72290956Y-25615714D01*
X72256078Y-25612906D01*
X72217543Y-25615985D01*
X72183294Y-25624874D01*
X72124248Y-25650519D01*
X72081200Y-25676165D01*
X72057264Y-25688133D01*
X72048716Y-25686423D01*
X72042610Y-25679645D01*
X72039190Y-25665296D01*
X72038152Y-25641055D01*
X72038824Y-25622981D01*
X72041572Y-25609303D01*
X72046334Y-25598740D01*
X72055555Y-25587505D01*
X72081872Y-25568759D01*
X72130720Y-25544518D01*
X72197643Y-25524368D01*
X72236399Y-25518293D01*
X72279281Y-25516186D01*
X72338571Y-25520371D01*
X72387236Y-25532001D01*
X72430560Y-25551427D01*
X72464783Y-25576575D01*
X72491884Y-25608174D01*
X72511190Y-25645573D01*
X72522610Y-25687153D01*
X72526577Y-25734417D01*
X72523773Y-25775297D01*
X72515647Y-25812269D01*
X72502009Y-25846534D01*
X72483529Y-25876139D01*
X72460127Y-25901736D01*
X72431628Y-25923461D01*
X72399038Y-25939809D01*
X72360614Y-25950572D01*
X72360614Y-25951915D01*
X72404856Y-25960132D01*
X72444267Y-25974752D01*
X72479870Y-25995353D01*
X72509480Y-26020059D01*
X72533765Y-26049504D01*
X72552161Y-26083745D01*
X72563657Y-26121237D01*
X72567549Y-26161720D01*
G37*
X70223810Y-19754819D02*
X70223810Y-18754819D01*
X71271428Y-19659580D02*
X71223809Y-19707200D01*
X71223809Y-19707200D02*
X71080952Y-19754819D01*
X71080952Y-19754819D02*
X70985714Y-19754819D01*
X70985714Y-19754819D02*
X70842857Y-19707200D01*
X70842857Y-19707200D02*
X70747619Y-19611961D01*
X70747619Y-19611961D02*
X70700000Y-19516723D01*
X70700000Y-19516723D02*
X70652381Y-19326247D01*
X70652381Y-19326247D02*
X70652381Y-19183390D01*
X70652381Y-19183390D02*
X70700000Y-18992914D01*
X70700000Y-18992914D02*
X70747619Y-18897676D01*
X70747619Y-18897676D02*
X70842857Y-18802438D01*
X70842857Y-18802438D02*
X70985714Y-18754819D01*
X70985714Y-18754819D02*
X71080952Y-18754819D01*
X71080952Y-18754819D02*
X71223809Y-18802438D01*
X71223809Y-18802438D02*
X71271428Y-18850057D01*
X72128571Y-19088152D02*
X72128571Y-19754819D01*
X71890476Y-18707200D02*
X71652381Y-19421485D01*
X71652381Y-19421485D02*
X72271428Y-19421485D01*
D11*
%TO.C,D1*%
X66750000Y-22310000D02*
G75*
G02*
X66650000Y-22310000I-50000J0D01*
G01*
X66650000Y-22310000D02*
G75*
G02*
X66750000Y-22310000I50000J0D01*
G01*
D12*
%TO.C,C13*%
X69392164Y-26360000D02*
X69607836Y-26360000D01*
X69392164Y-25640000D02*
X69607836Y-25640000D01*
%TO.C,IC4*%
X68500000Y-20235000D02*
X68260000Y-19905000D01*
X68740000Y-19905000D01*
X68500000Y-20235000D01*
G36*
X68500000Y-20235000D02*
G01*
X68260000Y-19905000D01*
X68740000Y-19905000D01*
X68500000Y-20235000D01*
G37*
X71200000Y-25260000D02*
X73150000Y-25260000D01*
X71200000Y-25260000D02*
X69250000Y-25260000D01*
X71200000Y-20140000D02*
X73150000Y-20140000D01*
X71200000Y-20140000D02*
X69250000Y-20140000D01*
%TD*%
M02*
