%TF.GenerationSoftware,KiCad,Pcbnew,9.0.4*%
%TF.CreationDate,2025-10-30T10:52:48-04:00*%
%TF.ProjectId,SERVO-ESC,53455256-4f2d-4455-9343-2e6b69636164,rev?*%
%TF.SameCoordinates,Original*%
%TF.FileFunction,Copper,L4,Bot*%
%TF.FilePolarity,Positive*%
%FSLAX46Y46*%
G04 Gerber Fmt 4.6, Leading zero omitted, Abs format (unit mm)*
G04 Created by KiCad (PCBNEW 9.0.4) date 2025-10-30 10:52:48*
%MOMM*%
%LPD*%
G01*
G04 APERTURE LIST*
G04 Aperture macros list*
%AMRoundRect*
0 Rectangle with rounded corners*
0 $1 Rounding radius*
0 $2 $3 $4 $5 $6 $7 $8 $9 X,Y pos of 4 corners*
0 Add a 4 corners polygon primitive as box body*
4,1,4,$2,$3,$4,$5,$6,$7,$8,$9,$2,$3,0*
0 Add four circle primitives for the rounded corners*
1,1,$1+$1,$2,$3*
1,1,$1+$1,$4,$5*
1,1,$1+$1,$6,$7*
1,1,$1+$1,$8,$9*
0 Add four rect primitives between the rounded corners*
20,1,$1+$1,$2,$3,$4,$5,0*
20,1,$1+$1,$4,$5,$6,$7,0*
20,1,$1+$1,$6,$7,$8,$9,0*
20,1,$1+$1,$8,$9,$2,$3,0*%
G04 Aperture macros list end*
%TA.AperFunction,SMDPad,CuDef*%
%ADD10RoundRect,0.150000X-0.150000X-0.625000X0.150000X-0.625000X0.150000X0.625000X-0.150000X0.625000X0*%
%TD*%
%TA.AperFunction,SMDPad,CuDef*%
%ADD11RoundRect,0.250000X-0.350000X-0.650000X0.350000X-0.650000X0.350000X0.650000X-0.350000X0.650000X0*%
%TD*%
%TA.AperFunction,ViaPad*%
%ADD12C,0.600000*%
%TD*%
%TA.AperFunction,Conductor*%
%ADD13C,0.200000*%
%TD*%
G04 APERTURE END LIST*
D10*
%TO.P,J3,1,Pin_1*%
%TO.N,+3.3V*%
X69200000Y-24900000D03*
%TO.P,J3,2,Pin_2*%
%TO.N,GND*%
X70200000Y-24900000D03*
%TO.P,J3,3,Pin_3*%
%TO.N,MAG-SCLK*%
X71200000Y-24900000D03*
%TO.P,J3,4,Pin_4*%
%TO.N,MAG-MISO*%
X72200000Y-24900000D03*
%TO.P,J3,5,Pin_5*%
%TO.N,MAG-MOSI*%
X73200000Y-24900000D03*
D11*
%TO.P,J3,MP*%
%TO.N,N/C*%
X67900000Y-21025000D03*
X74500000Y-21025000D03*
%TD*%
D12*
%TO.N,+3.3V*%
X66730000Y-24600000D03*
%TO.N,GND*%
X70030000Y-20870000D03*
%TO.N,MAG-MISO*%
X75150000Y-23400000D03*
%TO.N,+3.3V*%
X69000000Y-26900000D03*
%TO.N,GND*%
X66700000Y-20800000D03*
%TO.N,MAG-SCLK*%
X75500000Y-22500000D03*
%TO.N,MAG-MOSI*%
X75150000Y-24605000D03*
%TO.N,GND*%
X73130000Y-19400000D03*
%TD*%
D13*
%TO.N,MAG-SCLK*%
X70400000Y-48110000D02*
X70600000Y-48310000D01*
X71600000Y-40300000D02*
X71100000Y-40800000D01*
X71100000Y-40800000D02*
X71100000Y-41200000D01*
X70400000Y-41900000D02*
X70400000Y-48110000D01*
X71100000Y-41200000D02*
X70400000Y-41900000D01*
%TO.N,MAG-MISO*%
X71600000Y-47600000D02*
X71600000Y-48310000D01*
X71100000Y-47100000D02*
X71600000Y-47600000D01*
X71100000Y-42400000D02*
X71100000Y-47100000D01*
X71950000Y-41550000D02*
X71100000Y-42400000D01*
X71950000Y-41501000D02*
X71950000Y-41550000D01*
%TO.N,MAG-MOSI*%
X72326000Y-48036000D02*
X72600000Y-48310000D01*
X72326000Y-47326000D02*
X72326000Y-48036000D01*
X71800000Y-46800000D02*
X72326000Y-47326000D01*
X71800000Y-43201000D02*
X71800000Y-46800000D01*
X73500000Y-41501000D02*
X71800000Y-43201000D01*
%TO.N,+3.3V*%
X69200000Y-23840000D02*
X69200000Y-24700000D01*
X68930000Y-23570000D02*
X69200000Y-23840000D01*
X68030000Y-23570000D02*
X68930000Y-23570000D01*
X67100000Y-24500000D02*
X68030000Y-23570000D01*
X66730000Y-24600000D02*
X66830000Y-24500000D01*
X66830000Y-24500000D02*
X67100000Y-24500000D01*
%TO.N,TMP102-INT*%
X62200000Y-40400000D02*
X61600000Y-41000000D01*
X70000000Y-40100000D02*
X69700000Y-40400000D01*
X69700000Y-40400000D02*
X62200000Y-40400000D01*
%TO.N,I2C-SCL-2*%
X74451057Y-39601000D02*
X74500997Y-39601000D01*
X62100000Y-39500000D02*
X74350057Y-39500000D01*
X52050000Y-42420000D02*
X59180000Y-42420000D01*
X59180000Y-42420000D02*
X62100000Y-39500000D01*
X74350057Y-39500000D02*
X74451057Y-39601000D01*
X74500997Y-39601000D02*
X74700000Y-39800003D01*
X51200000Y-41570000D02*
X52050000Y-42420000D01*
%TO.N,I2C-SDA-1*%
X71100000Y-36200000D02*
X70600000Y-35700000D01*
X72600000Y-36200000D02*
X71100000Y-36200000D01*
X70600000Y-35700000D02*
X60200000Y-35700000D01*
X73400000Y-37000000D02*
X72600000Y-36200000D01*
%TO.N,I2C-SCL-1*%
X57800000Y-37700000D02*
X57700000Y-37600000D01*
X72900000Y-37700000D02*
X57800000Y-37700000D01*
X73400000Y-38200000D02*
X72900000Y-37700000D01*
%TO.N,I2C-SDA-2*%
X57851057Y-38599000D02*
X57650057Y-38800000D01*
X57650057Y-38800000D02*
X51430000Y-38800000D01*
X51430000Y-38800000D02*
X51200000Y-39030000D01*
X58348943Y-38599000D02*
X57851057Y-38599000D01*
X58549943Y-38800000D02*
X58348943Y-38599000D01*
X74700000Y-39000000D02*
X74500000Y-38800000D01*
X74500000Y-38800000D02*
X58549943Y-38800000D01*
%TO.N,MAG-SCLK*%
X71200000Y-23925001D02*
X71200000Y-24700000D01*
X72625001Y-22500000D02*
X71200000Y-23925001D01*
X75500000Y-22500000D02*
X72625001Y-22500000D01*
%TO.N,HBRIDGE-FAULT*%
X75300000Y-47700000D02*
X80100000Y-47700000D01*
X74124265Y-46524265D02*
X75300000Y-47700000D01*
%TO.N,HBRIDGE-VREF*%
X79400000Y-44100000D02*
X82100000Y-46800000D01*
X75000000Y-44100000D02*
X79400000Y-44100000D01*
X72800000Y-46300000D02*
X75000000Y-44100000D01*
X72800000Y-46700000D02*
X72800000Y-46300000D01*
%TO.N,HBRIDGE-IPROPI*%
X80000000Y-43200000D02*
X83900000Y-47100000D01*
X72800000Y-44900000D02*
X74500000Y-43200000D01*
X74500000Y-43200000D02*
X80000000Y-43200000D01*
%TO.N,RGB-LED-RED*%
X66400000Y-47300000D02*
X66400000Y-48900000D01*
X69100000Y-44600000D02*
X66400000Y-47300000D01*
X69100000Y-41900000D02*
X69100000Y-44600000D01*
X69500000Y-41500000D02*
X69100000Y-41900000D01*
%TO.N,GND*%
X70200000Y-21040000D02*
X70200000Y-24700000D01*
X70030000Y-20870000D02*
X70200000Y-21040000D01*
%TO.N,MAG-MISO*%
X72725001Y-23400000D02*
X75150000Y-23400000D01*
X72200000Y-23925001D02*
X72725001Y-23400000D01*
X72200000Y-24700000D02*
X72200000Y-23925001D01*
%TO.N,MAG-MOSI*%
X75055000Y-24700000D02*
X75150000Y-24605000D01*
X73200000Y-24700000D02*
X75055000Y-24700000D01*
%TO.N,HBRIDGE-VREF*%
X82000000Y-46800000D02*
X82100000Y-46800000D01*
%TO.N,SWDIO*%
X75000000Y-37500000D02*
X75100000Y-37500000D01*
X63430000Y-34100000D02*
X71600000Y-34100000D01*
X62060000Y-32730000D02*
X63430000Y-34100000D01*
X62060000Y-32400000D02*
X62060000Y-32730000D01*
X71600000Y-34100000D02*
X75000000Y-37500000D01*
%TO.N,SWCLK*%
X74900000Y-34700000D02*
X74900000Y-36400000D01*
X72600000Y-32400000D02*
X74900000Y-34700000D01*
X64600000Y-32400000D02*
X72600000Y-32400000D01*
%TD*%
%TA.AperFunction,Conductor*%
%TO.N,GND*%
G36*
X74254152Y-18220185D02*
G01*
X74299907Y-18272989D01*
X74309851Y-18342147D01*
X74287432Y-18397383D01*
X74250501Y-18448215D01*
X74180476Y-18544594D01*
X74091117Y-18719970D01*
X74030290Y-18907173D01*
X73999500Y-19101577D01*
X73999500Y-19298422D01*
X74030291Y-19492829D01*
X74030291Y-19492830D01*
X74030688Y-19494051D01*
X74030701Y-19494539D01*
X74031429Y-19497569D01*
X74030792Y-19497721D01*
X74032674Y-19563892D01*
X73996586Y-19623721D01*
X73951757Y-19650060D01*
X73830666Y-19690186D01*
X73830663Y-19690187D01*
X73681342Y-19782289D01*
X73557289Y-19906342D01*
X73465187Y-20055663D01*
X73465186Y-20055666D01*
X73410001Y-20222203D01*
X73410001Y-20222204D01*
X73410000Y-20222204D01*
X73399500Y-20324983D01*
X73399500Y-21725001D01*
X73399502Y-21725021D01*
X73403371Y-21762900D01*
X73390601Y-21831593D01*
X73342719Y-21882476D01*
X73280013Y-21899500D01*
X72711671Y-21899500D01*
X72711655Y-21899499D01*
X72704059Y-21899499D01*
X72545944Y-21899499D01*
X72500142Y-21911772D01*
X72393215Y-21940423D01*
X72393210Y-21940426D01*
X72256291Y-22019475D01*
X72256283Y-22019481D01*
X70719481Y-23556283D01*
X70719480Y-23556285D01*
X70678421Y-23627402D01*
X70640423Y-23693216D01*
X70620680Y-23766891D01*
X70617374Y-23774738D01*
X70604501Y-23790512D01*
X70590790Y-23814261D01*
X70531923Y-23873130D01*
X70531915Y-23873140D01*
X70448255Y-24014603D01*
X70448254Y-24014606D01*
X70402402Y-24172426D01*
X70402401Y-24172432D01*
X70399500Y-24209298D01*
X70399500Y-25590701D01*
X70402401Y-25627567D01*
X70402402Y-25627573D01*
X70448254Y-25785393D01*
X70448255Y-25785396D01*
X70531917Y-25926862D01*
X70531923Y-25926870D01*
X70648129Y-26043076D01*
X70648133Y-26043079D01*
X70648135Y-26043081D01*
X70789602Y-26126744D01*
X70831224Y-26138836D01*
X70947426Y-26172597D01*
X70947429Y-26172597D01*
X70947431Y-26172598D01*
X70984306Y-26175500D01*
X70984314Y-26175500D01*
X71415686Y-26175500D01*
X71415694Y-26175500D01*
X71452569Y-26172598D01*
X71452571Y-26172597D01*
X71452573Y-26172597D01*
X71525790Y-26151325D01*
X71610398Y-26126744D01*
X71620213Y-26120939D01*
X71636878Y-26111084D01*
X71704601Y-26093900D01*
X71763122Y-26111084D01*
X71789598Y-26126742D01*
X71789599Y-26126742D01*
X71789602Y-26126744D01*
X71831224Y-26138836D01*
X71947426Y-26172597D01*
X71947429Y-26172597D01*
X71947431Y-26172598D01*
X71984306Y-26175500D01*
X71984314Y-26175500D01*
X72415686Y-26175500D01*
X72415694Y-26175500D01*
X72452569Y-26172598D01*
X72452571Y-26172597D01*
X72452573Y-26172597D01*
X72525790Y-26151325D01*
X72610398Y-26126744D01*
X72620213Y-26120939D01*
X72636878Y-26111084D01*
X72704601Y-26093900D01*
X72763122Y-26111084D01*
X72789598Y-26126742D01*
X72789599Y-26126742D01*
X72789602Y-26126744D01*
X72831224Y-26138836D01*
X72947426Y-26172597D01*
X72947429Y-26172597D01*
X72947431Y-26172598D01*
X72984306Y-26175500D01*
X72984314Y-26175500D01*
X73415686Y-26175500D01*
X73415694Y-26175500D01*
X73452569Y-26172598D01*
X73452571Y-26172597D01*
X73452573Y-26172597D01*
X73525790Y-26151325D01*
X73610398Y-26126744D01*
X73751865Y-26043081D01*
X73787980Y-26006966D01*
X73849302Y-25973480D01*
X73918994Y-25978464D01*
X73974928Y-26020334D01*
X73999346Y-26085798D01*
X73999308Y-26096711D01*
X73999500Y-26096711D01*
X73999500Y-26298422D01*
X74030290Y-26492826D01*
X74091117Y-26680029D01*
X74163024Y-26821153D01*
X74180476Y-26855405D01*
X74287431Y-27002616D01*
X74310911Y-27068420D01*
X74295086Y-27136474D01*
X74244980Y-27185169D01*
X74187113Y-27199500D01*
X69907703Y-27199500D01*
X69840664Y-27179815D01*
X69794909Y-27127011D01*
X69784965Y-27057853D01*
X69786086Y-27051309D01*
X69800499Y-26978846D01*
X69800500Y-26978844D01*
X69800500Y-26821155D01*
X69800499Y-26821153D01*
X69769737Y-26666503D01*
X69769735Y-26666498D01*
X69709397Y-26520827D01*
X69709390Y-26520814D01*
X69621789Y-26389711D01*
X69621786Y-26389707D01*
X69563719Y-26331640D01*
X69530234Y-26270317D01*
X69535218Y-26200625D01*
X69577090Y-26144692D01*
X69603879Y-26131333D01*
X69603235Y-26129844D01*
X69610391Y-26126745D01*
X69610398Y-26126744D01*
X69751865Y-26043081D01*
X69868081Y-25926865D01*
X69951744Y-25785398D01*
X69997598Y-25627569D01*
X70000500Y-25590694D01*
X70000500Y-24209306D01*
X69997598Y-24172431D01*
X69976409Y-24099500D01*
X69951745Y-24014606D01*
X69951744Y-24014603D01*
X69951744Y-24014602D01*
X69868081Y-23873135D01*
X69868079Y-23873133D01*
X69868076Y-23873129D01*
X69836820Y-23841873D01*
X69803335Y-23780550D01*
X69802085Y-23768933D01*
X69801562Y-23769002D01*
X69800501Y-23760945D01*
X69800501Y-23760943D01*
X69759577Y-23608216D01*
X69759573Y-23608209D01*
X69680524Y-23471290D01*
X69680518Y-23471282D01*
X69427961Y-23218726D01*
X69427959Y-23218723D01*
X69298717Y-23089481D01*
X69298709Y-23089475D01*
X69197918Y-23031284D01*
X69197916Y-23031283D01*
X69161790Y-23010425D01*
X69161789Y-23010424D01*
X69149263Y-23007067D01*
X69009057Y-22969499D01*
X68850943Y-22969499D01*
X68843347Y-22969499D01*
X68843331Y-22969500D01*
X68116670Y-22969500D01*
X68116654Y-22969499D01*
X68109058Y-22969499D01*
X67950943Y-22969499D01*
X67874579Y-22989961D01*
X67798214Y-23010423D01*
X67798209Y-23010426D01*
X67661290Y-23089475D01*
X67661282Y-23089481D01*
X66974501Y-23776262D01*
X66913178Y-23809747D01*
X66862630Y-23810199D01*
X66808842Y-23799500D01*
X66651158Y-23799500D01*
X66651155Y-23799500D01*
X66496510Y-23830261D01*
X66496498Y-23830264D01*
X66350827Y-23890602D01*
X66350816Y-23890608D01*
X66343386Y-23895573D01*
X66276707Y-23916447D01*
X66209328Y-23897959D01*
X66162640Y-23845978D01*
X66150500Y-23792467D01*
X66150500Y-20262887D01*
X66170185Y-20195848D01*
X66222989Y-20150093D01*
X66292147Y-20140149D01*
X66347383Y-20162567D01*
X66494595Y-20269524D01*
X66669973Y-20358883D01*
X66669974Y-20358883D01*
X66669975Y-20358884D01*
X66713818Y-20373129D01*
X66771492Y-20412565D01*
X66798692Y-20476923D01*
X66799500Y-20491060D01*
X66799500Y-21725001D01*
X66799501Y-21725018D01*
X66810000Y-21827796D01*
X66810001Y-21827799D01*
X66863654Y-21989711D01*
X66865186Y-21994334D01*
X66957288Y-22143656D01*
X67081344Y-22267712D01*
X67230666Y-22359814D01*
X67397203Y-22414999D01*
X67499991Y-22425500D01*
X68300008Y-22425499D01*
X68300016Y-22425498D01*
X68300019Y-22425498D01*
X68356302Y-22419748D01*
X68402797Y-22414999D01*
X68569334Y-22359814D01*
X68718656Y-22267712D01*
X68842712Y-22143656D01*
X68934814Y-21994334D01*
X68989999Y-21827797D01*
X69000500Y-21725009D01*
X69000499Y-20324992D01*
X68989999Y-20222203D01*
X68934814Y-20055666D01*
X68842712Y-19906344D01*
X68718656Y-19782288D01*
X68569334Y-19690186D01*
X68448242Y-19650060D01*
X68390797Y-19610287D01*
X68363974Y-19545771D01*
X68368943Y-19497650D01*
X68368572Y-19497561D01*
X68369240Y-19494776D01*
X68369317Y-19494030D01*
X68369709Y-19492826D01*
X68385104Y-19395621D01*
X68400500Y-19298422D01*
X68400500Y-19101577D01*
X68369709Y-18907173D01*
X68308882Y-18719970D01*
X68219523Y-18544594D01*
X68149499Y-18448215D01*
X68112568Y-18397383D01*
X68089089Y-18331580D01*
X68104914Y-18263526D01*
X68155020Y-18214831D01*
X68212887Y-18200500D01*
X74187113Y-18200500D01*
X74254152Y-18220185D01*
G37*
%TD.AperFunction*%
%TD*%
M02*
